  0
SECTION
  2
HEADER
  9
$ACADVER
  1
AC1015
  9
$INSUNITS
 70
4
  9
$MEASUREMENT
 70
1
  9
$HANDSEED
  5
FFFF
  0
ENDSEC
  0
SECTION
  2
TABLES
  0
TABLE
  2
LTYPE
  5
2AF
100
AcDbSymbolTable
 70
1
  0
LTYPE
  5
2B0
330
2AF
100
AcDbSymbolTableRecord
100
AcDbLinetypeTableRecord
  2
CONTINUOUS
 70
0
  3
Solid line
 72
65
 73
0
 40
0
  0
ENDTAB
  0
TABLE
  2
LAYER
  5
2B1
100
AcDbSymbolTable
 70
8
  0
LAYER
  5
2B2
330
2B1
100
AcDbSymbolTableRecord
100
AcDbLayerTableRecord
  2
0
 70
0
 62
1
  6
CONTINUOUS
  0
LAYER
  5
2B3
330
2B1
100
AcDbSymbolTableRecord
100
AcDbLayerTableRecord
  2
WIND
 70
0
 62
2
  6
CONTINUOUS
  0
LAYER
  5
2B4
330
2B1
100
AcDbSymbolTableRecord
100
AcDbLayerTableRecord
  2
DOOR
 70
0
 62
3
  6
CONTINUOUS
  0
LAYER
  5
2B5
330
2B1
100
AcDbSymbolTableRecord
100
AcDbLayerTableRecord
  2
WALL
 70
0
 62
4
  6
CONTINUOUS
  0
LAYER
  5
2B6
330
2B1
100
AcDbSymbolTableRecord
100
AcDbLayerTableRecord
  2
COLUMN
 70
0
 62
5
  6
CONTINUOUS
  0
LAYER
  5
2B7
330
2B1
100
AcDbSymbolTableRecord
100
AcDbLayerTableRecord
  2
TEXT
 70
0
 62
6
  6
CONTINUOUS
  0
LAYER
  5
2B8
330
2B1
100
AcDbSymbolTableRecord
100
AcDbLayerTableRecord
  2
SANITARY
 70
0
 62
7
  6
CONTINUOUS
  0
LAYER
  5
2B9
330
2B1
100
AcDbSymbolTableRecord
100
AcDbLayerTableRecord
  2
DIM
 70
0
 62
1
  6
CONTINUOUS
  0
ENDTAB
  0
TABLE
  2
BLOCK_RECORD
  5
2BA
100
AcDbSymbolTable
 70
5
  0
BLOCK_RECORD
  5
2BB
330
2BA
100
AcDbSymbolTableRecord
100
AcDbBlockTableRecord
  2
*Model_Space
  0
BLOCK_RECORD
  5
2BC
330
2BA
100
AcDbSymbolTableRecord
100
AcDbBlockTableRecord
  2
*Paper_Space
  0
BLOCK_RECORD
  5
2BD
330
2BA
100
AcDbSymbolTableRecord
100
AcDbBlockTableRecord
  2
DOOR-900
  0
BLOCK_RECORD
  5
2BE
330
2BA
100
AcDbSymbolTableRecord
100
AcDbBlockTableRecord
  2
WIN-1200
  0
BLOCK_RECORD
  5
2BF
330
2BA
100
AcDbSymbolTableRecord
100
AcDbBlockTableRecord
  2
WC-STD
  0
ENDTAB
  0
ENDSEC
  0
SECTION
  2
BLOCKS
  0
BLOCK
  5
102
100
AcDbEntity
  8
0
100
AcDbBlockBegin
  2
DOOR-900
 70
0
 10
0
 20
0
 30
0
  3
DOOR-900
  0
ARC
  5
100
100
AcDbEntity
  8
DOOR
100
AcDbCircle
 10
-450
 20
0
 30
0
 40
900
100
AcDbArc
 50
0
 51
90
  0
LINE
  5
101
100
AcDbEntity
  8
DOOR
100
AcDbLine
 10
-450
 20
0
 30
0
 11
-450
 21
900
 31
0
  0
ENDBLK
  5
103
100
AcDbEntity
  8
0
100
AcDbBlockEnd
  0
BLOCK
  5
105
100
AcDbEntity
  8
0
100
AcDbBlockBegin
  2
WIN-1200
 70
0
 10
0
 20
0
 30
0
  3
WIN-1200
  0
LWPOLYLINE
  5
104
100
AcDbEntity
  8
WIND
100
AcDbPolyline
 90
4
 70
1
 10
-600
 20
-60
 10
600
 20
-60
 10
600
 20
60
 10
-600
 20
60
  0
ENDBLK
  5
106
100
AcDbEntity
  8
0
100
AcDbBlockEnd
  0
BLOCK
  5
108
100
AcDbEntity
  8
0
100
AcDbBlockBegin
  2
WC-STD
 70
0
 10
0
 20
0
 30
0
  3
WC-STD
  0
LWPOLYLINE
  5
107
100
AcDbEntity
  8
SANITARY
100
AcDbPolyline
 90
4
 70
1
 10
-200
 20
-300
 10
200
 20
-300
 10
200
 20
300
 10
-200
 20
300
  0
ENDBLK
  5
109
100
AcDbEntity
  8
0
100
AcDbBlockEnd
  0
ENDSEC
  0
SECTION
  2
ENTITIES
  0
INSERT
  5
10A
100
AcDbEntity
  8
WIND
100
AcDbBlockReference
  2
WIN-1200
 10
2250
 20
0
 30
0
 41
1
 42
1
 43
1
 50
0
  0
INSERT
  5
10B
100
AcDbEntity
  8
WIND
100
AcDbBlockReference
  2
WIN-1200
 10
2250
 20
10500
 30
0
 41
1
 42
1
 43
1
 50
0
  0
INSERT
  5
10C
100
AcDbEntity
  8
WIND
100
AcDbBlockReference
  2
WIN-1200
 10
6150
 20
0
 30
0
 41
1
 42
1
 43
1
 50
0
  0
INSERT
  5
10D
100
AcDbEntity
  8
WIND
100
AcDbBlockReference
  2
WIN-1200
 10
6150
 20
10500
 30
0
 41
1
 42
1
 43
1
 50
0
  0
INSERT
  5
10E
100
AcDbEntity
  8
WIND
100
AcDbBlockReference
  2
WIN-1200
 10
9600
 20
0
 30
0
 41
1
 42
1
 43
1
 50
0
  0
INSERT
  5
10F
100
AcDbEntity
  8
WIND
100
AcDbBlockReference
  2
WIN-1200
 10
9600
 20
10500
 30
0
 41
1
 42
1
 43
1
 50
0
  0
INSERT
  5
110
100
AcDbEntity
  8
WIND
100
AcDbBlockReference
  2
WIN-1200
 10
0
 20
2100
 30
0
 41
1
 42
1
 43
1
 50
90
  0
INSERT
  5
111
100
AcDbEntity
  8
WIND
100
AcDbBlockReference
  2
WIN-1200
 10
11400
 20
2100
 30
0
 41
1
 42
1
 43
1
 50
90
  0
INSERT
  5
112
100
AcDbEntity
  8
WIND
100
AcDbBlockReference
  2
WIN-1200
 10
0
 20
5400
 30
0
 41
1
 42
1
 43
1
 50
90
  0
INSERT
  5
113
100
AcDbEntity
  8
WIND
100
AcDbBlockReference
  2
WIN-1200
 10
11400
 20
5400
 30
0
 41
1
 42
1
 43
1
 50
90
  0
INSERT
  5
114
100
AcDbEntity
  8
WIND
100
AcDbBlockReference
  2
WIN-1200
 10
0
 20
8550
 30
0
 41
1
 42
1
 43
1
 50
90
  0
INSERT
  5
115
100
AcDbEntity
  8
WIND
100
AcDbBlockReference
  2
WIN-1200
 10
11400
 20
8550
 30
0
 41
1
 42
1
 43
1
 50
90
  0
INSERT
  5
116
100
AcDbEntity
  8
DOOR
100
AcDbBlockReference
  2
DOOR-900
 10
4500
 20
2100
 30
0
 41
1
 42
1
 43
1
 50
90
  0
INSERT
  5
117
100
AcDbEntity
  8
DOOR
100
AcDbBlockReference
  2
DOOR-900
 10
4500
 20
8550
 30
0
 41
1
 42
1
 43
1
 50
90
  0
INSERT
  5
118
100
AcDbEntity
  8
DOOR
100
AcDbBlockReference
  2
DOOR-900
 10
7800
 20
2100
 30
0
 41
1
 42
1
 43
1
 50
90
  0
INSERT
  5
119
100
AcDbEntity
  8
DOOR
100
AcDbBlockReference
  2
DOOR-900
 10
7800
 20
5400
 30
0
 41
1
 42
1
 43
1
 50
90
  0
INSERT
  5
11A
100
AcDbEntity
  8
DOOR
100
AcDbBlockReference
  2
DOOR-900
 10
7800
 20
8550
 30
0
 41
1
 42
1
 43
1
 50
90
  0
INSERT
  5
11B
100
AcDbEntity
  8
DOOR
100
AcDbBlockReference
  2
DOOR-900
 10
2250
 20
4200
 30
0
 41
1
 42
1
 43
1
 50
0
  0
INSERT
  5
11C
100
AcDbEntity
  8
DOOR
100
AcDbBlockReference
  2
DOOR-900
 10
6150
 20
4200
 30
0
 41
1
 42
1
 43
1
 50
0
  0
INSERT
  5
11D
100
AcDbEntity
  8
DOOR
100
AcDbBlockReference
  2
DOOR-900
 10
9600
 20
4200
 30
0
 41
1
 42
1
 43
1
 50
0
  0
INSERT
  5
11E
100
AcDbEntity
  8
DOOR
100
AcDbBlockReference
  2
DOOR-900
 10
6150
 20
6600
 30
0
 41
1
 42
1
 43
1
 50
0
  0
INSERT
  5
11F
100
AcDbEntity
  8
DOOR
100
AcDbBlockReference
  2
DOOR-900
 10
9600
 20
6600
 30
0
 41
1
 42
1
 43
1
 50
0
  0
LINE
  5
120
100
AcDbEntity
  8
WALL
100
AcDbLine
370
50
 10
0
 20
-112.5000
 30
0
 11
1650
 21
-112.5000
 31
0
  0
LINE
  5
121
100
AcDbEntity
  8
WALL
100
AcDbLine
370
50
 10
0
 20
112.5000
 30
0
 11
1650
 21
112.5000
 31
0
  0
LINE
  5
122
100
AcDbEntity
  8
WALL
100
AcDbLine
370
50
 10
2850
 20
-112.5000
 30
0
 11
4500
 21
-112.5000
 31
0
  0
LINE
  5
123
100
AcDbEntity
  8
WALL
100
AcDbLine
370
50
 10
2850
 20
112.5000
 30
0
 11
4500
 21
112.5000
 31
0
  0
LINE
  5
124
100
AcDbEntity
  8
WALL
100
AcDbLine
370
50
 10
1650
 20
-112.5000
 30
0
 11
1650
 21
112.5000
 31
0
  0
LINE
  5
125
100
AcDbEntity
  8
WALL
100
AcDbLine
370
50
 10
2850
 20
-112.5000
 30
0
 11
2850
 21
112.5000
 31
0
  0
LINE
  5
126
100
AcDbEntity
  8
WALL
100
AcDbLine
370
50
 10
0
 20
10387.5000
 30
0
 11
1650
 21
10387.5000
 31
0
  0
LINE
  5
127
100
AcDbEntity
  8
WALL
100
AcDbLine
370
50
 10
0
 20
10612.5000
 30
0
 11
1650
 21
10612.5000
 31
0
  0
LINE
  5
128
100
AcDbEntity
  8
WALL
100
AcDbLine
370
50
 10
2850
 20
10387.5000
 30
0
 11
4500
 21
10387.5000
 31
0
  0
LINE
  5
129
100
AcDbEntity
  8
WALL
100
AcDbLine
370
50
 10
2850
 20
10612.5000
 30
0
 11
4500
 21
10612.5000
 31
0
  0
LINE
  5
12A
100
AcDbEntity
  8
WALL
100
AcDbLine
370
50
 10
1650
 20
10387.5000
 30
0
 11
1650
 21
10612.5000
 31
0
  0
LINE
  5
12B
100
AcDbEntity
  8
WALL
100
AcDbLine
370
50
 10
2850
 20
10387.5000
 30
0
 11
2850
 21
10612.5000
 31
0
  0
LINE
  5
12C
100
AcDbEntity
  8
WALL
100
AcDbLine
370
50
 10
4500
 20
-112.5000
 30
0
 11
5550
 21
-112.5000
 31
0
  0
LINE
  5
12D
100
AcDbEntity
  8
WALL
100
AcDbLine
370
50
 10
4500
 20
112.5000
 30
0
 11
5550
 21
112.5000
 31
0
  0
LINE
  5
12E
100
AcDbEntity
  8
WALL
100
AcDbLine
370
50
 10
6750
 20
-112.5000
 30
0
 11
7800
 21
-112.5000
 31
0
  0
LINE
  5
12F
100
AcDbEntity
  8
WALL
100
AcDbLine
370
50
 10
6750
 20
112.5000
 30
0
 11
7800
 21
112.5000
 31
0
  0
LINE
  5
130
100
AcDbEntity
  8
WALL
100
AcDbLine
370
50
 10
5550
 20
-112.5000
 30
0
 11
5550
 21
112.5000
 31
0
  0
LINE
  5
131
100
AcDbEntity
  8
WALL
100
AcDbLine
370
50
 10
6750
 20
-112.5000
 30
0
 11
6750
 21
112.5000
 31
0
  0
LINE
  5
132
100
AcDbEntity
  8
WALL
100
AcDbLine
370
50
 10
4500
 20
10387.5000
 30
0
 11
5550
 21
10387.5000
 31
0
  0
LINE
  5
133
100
AcDbEntity
  8
WALL
100
AcDbLine
370
50
 10
4500
 20
10612.5000
 30
0
 11
5550
 21
10612.5000
 31
0
  0
LINE
  5
134
100
AcDbEntity
  8
WALL
100
AcDbLine
370
50
 10
6750
 20
10387.5000
 30
0
 11
7800
 21
10387.5000
 31
0
  0
LINE
  5
135
100
AcDbEntity
  8
WALL
100
AcDbLine
370
50
 10
6750
 20
10612.5000
 30
0
 11
7800
 21
10612.5000
 31
0
  0
LINE
  5
136
100
AcDbEntity
  8
WALL
100
AcDbLine
370
50
 10
5550
 20
10387.5000
 30
0
 11
5550
 21
10612.5000
 31
0
  0
LINE
  5
137
100
AcDbEntity
  8
WALL
100
AcDbLine
370
50
 10
6750
 20
10387.5000
 30
0
 11
6750
 21
10612.5000
 31
0
  0
LINE
  5
138
100
AcDbEntity
  8
WALL
100
AcDbLine
370
50
 10
7800
 20
-112.5000
 30
0
 11
9000
 21
-112.5000
 31
0
  0
LINE
  5
139
100
AcDbEntity
  8
WALL
100
AcDbLine
370
50
 10
7800
 20
112.5000
 30
0
 11
9000
 21
112.5000
 31
0
  0
LINE
  5
13A
100
AcDbEntity
  8
WALL
100
AcDbLine
370
50
 10
10200
 20
-112.5000
 30
0
 11
11400
 21
-112.5000
 31
0
  0
LINE
  5
13B
100
AcDbEntity
  8
WALL
100
AcDbLine
370
50
 10
10200
 20
112.5000
 30
0
 11
11400
 21
112.5000
 31
0
  0
LINE
  5
13C
100
AcDbEntity
  8
WALL
100
AcDbLine
370
50
 10
9000
 20
-112.5000
 30
0
 11
9000
 21
112.5000
 31
0
  0
LINE
  5
13D
100
AcDbEntity
  8
WALL
100
AcDbLine
370
50
 10
10200
 20
-112.5000
 30
0
 11
10200
 21
112.5000
 31
0
  0
LINE
  5
13E
100
AcDbEntity
  8
WALL
100
AcDbLine
370
50
 10
7800
 20
10387.5000
 30
0
 11
9000
 21
10387.5000
 31
0
  0
LINE
  5
13F
100
AcDbEntity
  8
WALL
100
AcDbLine
370
50
 10
7800
 20
10612.5000
 30
0
 11
9000
 21
10612.5000
 31
0
  0
LINE
  5
140
100
AcDbEntity
  8
WALL
100
AcDbLine
370
50
 10
10200
 20
10387.5000
 30
0
 11
11400
 21
10387.5000
 31
0
  0
LINE
  5
141
100
AcDbEntity
  8
WALL
100
AcDbLine
370
50
 10
10200
 20
10612.5000
 30
0
 11
11400
 21
10612.5000
 31
0
  0
LINE
  5
142
100
AcDbEntity
  8
WALL
100
AcDbLine
370
50
 10
9000
 20
10387.5000
 30
0
 11
9000
 21
10612.5000
 31
0
  0
LINE
  5
143
100
AcDbEntity
  8
WALL
100
AcDbLine
370
50
 10
10200
 20
10387.5000
 30
0
 11
10200
 21
10612.5000
 31
0
  0
LINE
  5
144
100
AcDbEntity
  8
WALL
100
AcDbLine
370
50
 10
-112.5000
 20
0
 30
0
 11
-112.5000
 21
1500
 31
0
  0
LINE
  5
145
100
AcDbEntity
  8
WALL
100
AcDbLine
370
50
 10
112.5000
 20
0
 30
0
 11
112.5000
 21
1500
 31
0
  0
LINE
  5
146
100
AcDbEntity
  8
WALL
100
AcDbLine
370
50
 10
-112.5000
 20
2700
 30
0
 11
-112.5000
 21
4200
 31
0
  0
LINE
  5
147
100
AcDbEntity
  8
WALL
100
AcDbLine
370
50
 10
112.5000
 20
2700
 30
0
 11
112.5000
 21
4200
 31
0
  0
LINE
  5
148
100
AcDbEntity
  8
WALL
100
AcDbLine
370
50
 10
-112.5000
 20
1500
 30
0
 11
112.5000
 21
1500
 31
0
  0
LINE
  5
149
100
AcDbEntity
  8
WALL
100
AcDbLine
370
50
 10
-112.5000
 20
2700
 30
0
 11
112.5000
 21
2700
 31
0
  0
LINE
  5
14A
100
AcDbEntity
  8
WALL
100
AcDbLine
370
50
 10
11287.5000
 20
0
 30
0
 11
11287.5000
 21
1500
 31
0
  0
LINE
  5
14B
100
AcDbEntity
  8
WALL
100
AcDbLine
370
50
 10
11512.5000
 20
0
 30
0
 11
11512.5000
 21
1500
 31
0
  0
LINE
  5
14C
100
AcDbEntity
  8
WALL
100
AcDbLine
370
50
 10
11287.5000
 20
2700
 30
0
 11
11287.5000
 21
4200
 31
0
  0
LINE
  5
14D
100
AcDbEntity
  8
WALL
100
AcDbLine
370
50
 10
11512.5000
 20
2700
 30
0
 11
11512.5000
 21
4200
 31
0
  0
LINE
  5
14E
100
AcDbEntity
  8
WALL
100
AcDbLine
370
50
 10
11287.5000
 20
1500
 30
0
 11
11512.5000
 21
1500
 31
0
  0
LINE
  5
14F
100
AcDbEntity
  8
WALL
100
AcDbLine
370
50
 10
11287.5000
 20
2700
 30
0
 11
11512.5000
 21
2700
 31
0
  0
LINE
  5
150
100
AcDbEntity
  8
WALL
100
AcDbLine
370
50
 10
-112.5000
 20
4200
 30
0
 11
-112.5000
 21
4800
 31
0
  0
LINE
  5
151
100
AcDbEntity
  8
WALL
100
AcDbLine
370
50
 10
112.5000
 20
4200
 30
0
 11
112.5000
 21
4800
 31
0
  0
LINE
  5
152
100
AcDbEntity
  8
WALL
100
AcDbLine
370
50
 10
-112.5000
 20
6000
 30
0
 11
-112.5000
 21
6600
 31
0
  0
LINE
  5
153
100
AcDbEntity
  8
WALL
100
AcDbLine
370
50
 10
112.5000
 20
6000
 30
0
 11
112.5000
 21
6600
 31
0
  0
LINE
  5
154
100
AcDbEntity
  8
WALL
100
AcDbLine
370
50
 10
-112.5000
 20
4800
 30
0
 11
112.5000
 21
4800
 31
0
  0
LINE
  5
155
100
AcDbEntity
  8
WALL
100
AcDbLine
370
50
 10
-112.5000
 20
6000
 30
0
 11
112.5000
 21
6000
 31
0
  0
LINE
  5
156
100
AcDbEntity
  8
WALL
100
AcDbLine
370
50
 10
11287.5000
 20
4200
 30
0
 11
11287.5000
 21
4800
 31
0
  0
LINE
  5
157
100
AcDbEntity
  8
WALL
100
AcDbLine
370
50
 10
11512.5000
 20
4200
 30
0
 11
11512.5000
 21
4800
 31
0
  0
LINE
  5
158
100
AcDbEntity
  8
WALL
100
AcDbLine
370
50
 10
11287.5000
 20
6000
 30
0
 11
11287.5000
 21
6600
 31
0
  0
LINE
  5
159
100
AcDbEntity
  8
WALL
100
AcDbLine
370
50
 10
11512.5000
 20
6000
 30
0
 11
11512.5000
 21
6600
 31
0
  0
LINE
  5
15A
100
AcDbEntity
  8
WALL
100
AcDbLine
370
50
 10
11287.5000
 20
4800
 30
0
 11
11512.5000
 21
4800
 31
0
  0
LINE
  5
15B
100
AcDbEntity
  8
WALL
100
AcDbLine
370
50
 10
11287.5000
 20
6000
 30
0
 11
11512.5000
 21
6000
 31
0
  0
LINE
  5
15C
100
AcDbEntity
  8
WALL
100
AcDbLine
370
50
 10
-112.5000
 20
6600
 30
0
 11
-112.5000
 21
7950
 31
0
  0
LINE
  5
15D
100
AcDbEntity
  8
WALL
100
AcDbLine
370
50
 10
112.5000
 20
6600
 30
0
 11
112.5000
 21
7950
 31
0
  0
LINE
  5
15E
100
AcDbEntity
  8
WALL
100
AcDbLine
370
50
 10
-112.5000
 20
9150
 30
0
 11
-112.5000
 21
10500
 31
0
  0
LINE
  5
15F
100
AcDbEntity
  8
WALL
100
AcDbLine
370
50
 10
112.5000
 20
9150
 30
0
 11
112.5000
 21
10500
 31
0
  0
LINE
  5
160
100
AcDbEntity
  8
WALL
100
AcDbLine
370
50
 10
-112.5000
 20
7950
 30
0
 11
112.5000
 21
7950
 31
0
  0
LINE
  5
161
100
AcDbEntity
  8
WALL
100
AcDbLine
370
50
 10
-112.5000
 20
9150
 30
0
 11
112.5000
 21
9150
 31
0
  0
LINE
  5
162
100
AcDbEntity
  8
WALL
100
AcDbLine
370
50
 10
11287.5000
 20
6600
 30
0
 11
11287.5000
 21
7950
 31
0
  0
LINE
  5
163
100
AcDbEntity
  8
WALL
100
AcDbLine
370
50
 10
11512.5000
 20
6600
 30
0
 11
11512.5000
 21
7950
 31
0
  0
LINE
  5
164
100
AcDbEntity
  8
WALL
100
AcDbLine
370
50
 10
11287.5000
 20
9150
 30
0
 11
11287.5000
 21
10500
 31
0
  0
LINE
  5
165
100
AcDbEntity
  8
WALL
100
AcDbLine
370
50
 10
11512.5000
 20
9150
 30
0
 11
11512.5000
 21
10500
 31
0
  0
LINE
  5
166
100
AcDbEntity
  8
WALL
100
AcDbLine
370
50
 10
11287.5000
 20
7950
 30
0
 11
11512.5000
 21
7950
 31
0
  0
LINE
  5
167
100
AcDbEntity
  8
WALL
100
AcDbLine
370
50
 10
11287.5000
 20
9150
 30
0
 11
11512.5000
 21
9150
 31
0
  0
LINE
  5
168
100
AcDbEntity
  8
WALL
100
AcDbLine
370
50
 10
4425
 20
0
 30
0
 11
4425
 21
1650
 31
0
  0
LINE
  5
169
100
AcDbEntity
  8
WALL
100
AcDbLine
370
50
 10
4575
 20
0
 30
0
 11
4575
 21
1650
 31
0
  0
LINE
  5
16A
100
AcDbEntity
  8
WALL
100
AcDbLine
370
50
 10
4425
 20
2550
 30
0
 11
4425
 21
4200
 31
0
  0
LINE
  5
16B
100
AcDbEntity
  8
WALL
100
AcDbLine
370
50
 10
4575
 20
2550
 30
0
 11
4575
 21
4200
 31
0
  0
LINE
  5
16C
100
AcDbEntity
  8
WALL
100
AcDbLine
370
50
 10
4425
 20
1650
 30
0
 11
4575
 21
1650
 31
0
  0
LINE
  5
16D
100
AcDbEntity
  8
WALL
100
AcDbLine
370
50
 10
4425
 20
2550
 30
0
 11
4575
 21
2550
 31
0
  0
LINE
  5
16E
100
AcDbEntity
  8
WALL
100
AcDbLine
370
50
 10
4425
 20
4200
 30
0
 11
4425
 21
6600
 31
0
  0
LINE
  5
16F
100
AcDbEntity
  8
WALL
100
AcDbLine
370
50
 10
4575
 20
4200
 30
0
 11
4575
 21
6600
 31
0
  0
LINE
  5
170
100
AcDbEntity
  8
WALL
100
AcDbLine
370
50
 10
4425
 20
6600
 30
0
 11
4425
 21
8100
 31
0
  0
LINE
  5
171
100
AcDbEntity
  8
WALL
100
AcDbLine
370
50
 10
4575
 20
6600
 30
0
 11
4575
 21
8100
 31
0
  0
LINE
  5
172
100
AcDbEntity
  8
WALL
100
AcDbLine
370
50
 10
4425
 20
9000
 30
0
 11
4425
 21
10500
 31
0
  0
LINE
  5
173
100
AcDbEntity
  8
WALL
100
AcDbLine
370
50
 10
4575
 20
9000
 30
0
 11
4575
 21
10500
 31
0
  0
LINE
  5
174
100
AcDbEntity
  8
WALL
100
AcDbLine
370
50
 10
4425
 20
8100
 30
0
 11
4575
 21
8100
 31
0
  0
LINE
  5
175
100
AcDbEntity
  8
WALL
100
AcDbLine
370
50
 10
4425
 20
9000
 30
0
 11
4575
 21
9000
 31
0
  0
LINE
  5
176
100
AcDbEntity
  8
WALL
100
AcDbLine
370
50
 10
7725
 20
0
 30
0
 11
7725
 21
1650
 31
0
  0
LINE
  5
177
100
AcDbEntity
  8
WALL
100
AcDbLine
370
50
 10
7875
 20
0
 30
0
 11
7875
 21
1650
 31
0
  0
LINE
  5
178
100
AcDbEntity
  8
WALL
100
AcDbLine
370
50
 10
7725
 20
2550
 30
0
 11
7725
 21
4200
 31
0
  0
LINE
  5
179
100
AcDbEntity
  8
WALL
100
AcDbLine
370
50
 10
7875
 20
2550
 30
0
 11
7875
 21
4200
 31
0
  0
LINE
  5
17A
100
AcDbEntity
  8
WALL
100
AcDbLine
370
50
 10
7725
 20
1650
 30
0
 11
7875
 21
1650
 31
0
  0
LINE
  5
17B
100
AcDbEntity
  8
WALL
100
AcDbLine
370
50
 10
7725
 20
2550
 30
0
 11
7875
 21
2550
 31
0
  0
LINE
  5
17C
100
AcDbEntity
  8
WALL
100
AcDbLine
370
50
 10
7725
 20
4200
 30
0
 11
7725
 21
4950
 31
0
  0
LINE
  5
17D
100
AcDbEntity
  8
WALL
100
AcDbLine
370
50
 10
7875
 20
4200
 30
0
 11
7875
 21
4950
 31
0
  0
LINE
  5
17E
100
AcDbEntity
  8
WALL
100
AcDbLine
370
50
 10
7725
 20
5850
 30
0
 11
7725
 21
6600
 31
0
  0
LINE
  5
17F
100
AcDbEntity
  8
WALL
100
AcDbLine
370
50
 10
7875
 20
5850
 30
0
 11
7875
 21
6600
 31
0
  0
LINE
  5
180
100
AcDbEntity
  8
WALL
100
AcDbLine
370
50
 10
7725
 20
4950
 30
0
 11
7875
 21
4950
 31
0
  0
LINE
  5
181
100
AcDbEntity
  8
WALL
100
AcDbLine
370
50
 10
7725
 20
5850
 30
0
 11
7875
 21
5850
 31
0
  0
LINE
  5
182
100
AcDbEntity
  8
WALL
100
AcDbLine
370
50
 10
7725
 20
6600
 30
0
 11
7725
 21
8100
 31
0
  0
LINE
  5
183
100
AcDbEntity
  8
WALL
100
AcDbLine
370
50
 10
7875
 20
6600
 30
0
 11
7875
 21
8100
 31
0
  0
LINE
  5
184
100
AcDbEntity
  8
WALL
100
AcDbLine
370
50
 10
7725
 20
9000
 30
0
 11
7725
 21
10500
 31
0
  0
LINE
  5
185
100
AcDbEntity
  8
WALL
100
AcDbLine
370
50
 10
7875
 20
9000
 30
0
 11
7875
 21
10500
 31
0
  0
LINE
  5
186
100
AcDbEntity
  8
WALL
100
AcDbLine
370
50
 10
7725
 20
8100
 30
0
 11
7875
 21
8100
 31
0
  0
LINE
  5
187
100
AcDbEntity
  8
WALL
100
AcDbLine
370
50
 10
7725
 20
9000
 30
0
 11
7875
 21
9000
 31
0
  0
LINE
  5
188
100
AcDbEntity
  8
WALL
100
AcDbLine
370
50
 10
0
 20
4125
 30
0
 11
1800
 21
4125
 31
0
  0
LINE
  5
189
100
AcDbEntity
  8
WALL
100
AcDbLine
370
50
 10
0
 20
4275
 30
0
 11
1800
 21
4275
 31
0
  0
LINE
  5
18A
100
AcDbEntity
  8
WALL
100
AcDbLine
370
50
 10
2700
 20
4125
 30
0
 11
4500
 21
4125
 31
0
  0
LINE
  5
18B
100
AcDbEntity
  8
WALL
100
AcDbLine
370
50
 10
2700
 20
4275
 30
0
 11
4500
 21
4275
 31
0
  0
LINE
  5
18C
100
AcDbEntity
  8
WALL
100
AcDbLine
370
50
 10
1800
 20
4125
 30
0
 11
1800
 21
4275
 31
0
  0
LINE
  5
18D
100
AcDbEntity
  8
WALL
100
AcDbLine
370
50
 10
2700
 20
4125
 30
0
 11
2700
 21
4275
 31
0
  0
LINE
  5
18E
100
AcDbEntity
  8
WALL
100
AcDbLine
370
50
 10
4500
 20
4125
 30
0
 11
5700
 21
4125
 31
0
  0
LINE
  5
18F
100
AcDbEntity
  8
WALL
100
AcDbLine
370
50
 10
4500
 20
4275
 30
0
 11
5700
 21
4275
 31
0
  0
LINE
  5
190
100
AcDbEntity
  8
WALL
100
AcDbLine
370
50
 10
6600
 20
4125
 30
0
 11
7800
 21
4125
 31
0
  0
LINE
  5
191
100
AcDbEntity
  8
WALL
100
AcDbLine
370
50
 10
6600
 20
4275
 30
0
 11
7800
 21
4275
 31
0
  0
LINE
  5
192
100
AcDbEntity
  8
WALL
100
AcDbLine
370
50
 10
5700
 20
4125
 30
0
 11
5700
 21
4275
 31
0
  0
LINE
  5
193
100
AcDbEntity
  8
WALL
100
AcDbLine
370
50
 10
6600
 20
4125
 30
0
 11
6600
 21
4275
 31
0
  0
LINE
  5
194
100
AcDbEntity
  8
WALL
100
AcDbLine
370
50
 10
7800
 20
4125
 30
0
 11
9150
 21
4125
 31
0
  0
LINE
  5
195
100
AcDbEntity
  8
WALL
100
AcDbLine
370
50
 10
7800
 20
4275
 30
0
 11
9150
 21
4275
 31
0
  0
LINE
  5
196
100
AcDbEntity
  8
WALL
100
AcDbLine
370
50
 10
10050
 20
4125
 30
0
 11
11400
 21
4125
 31
0
  0
LINE
  5
197
100
AcDbEntity
  8
WALL
100
AcDbLine
370
50
 10
10050
 20
4275
 30
0
 11
11400
 21
4275
 31
0
  0
LINE
  5
198
100
AcDbEntity
  8
WALL
100
AcDbLine
370
50
 10
9150
 20
4125
 30
0
 11
9150
 21
4275
 31
0
  0
LINE
  5
199
100
AcDbEntity
  8
WALL
100
AcDbLine
370
50
 10
10050
 20
4125
 30
0
 11
10050
 21
4275
 31
0
  0
LINE
  5
19A
100
AcDbEntity
  8
WALL
100
AcDbLine
370
50
 10
0
 20
6525
 30
0
 11
4500
 21
6525
 31
0
  0
LINE
  5
19B
100
AcDbEntity
  8
WALL
100
AcDbLine
370
50
 10
0
 20
6675
 30
0
 11
4500
 21
6675
 31
0
  0
LINE
  5
19C
100
AcDbEntity
  8
WALL
100
AcDbLine
370
50
 10
4500
 20
6525
 30
0
 11
5700
 21
6525
 31
0
  0
LINE
  5
19D
100
AcDbEntity
  8
WALL
100
AcDbLine
370
50
 10
4500
 20
6675
 30
0
 11
5700
 21
6675
 31
0
  0
LINE
  5
19E
100
AcDbEntity
  8
WALL
100
AcDbLine
370
50
 10
6600
 20
6525
 30
0
 11
7800
 21
6525
 31
0
  0
LINE
  5
19F
100
AcDbEntity
  8
WALL
100
AcDbLine
370
50
 10
6600
 20
6675
 30
0
 11
7800
 21
6675
 31
0
  0
LINE
  5
1A0
100
AcDbEntity
  8
WALL
100
AcDbLine
370
50
 10
5700
 20
6525
 30
0
 11
5700
 21
6675
 31
0
  0
LINE
  5
1A1
100
AcDbEntity
  8
WALL
100
AcDbLine
370
50
 10
6600
 20
6525
 30
0
 11
6600
 21
6675
 31
0
  0
LINE
  5
1A2
100
AcDbEntity
  8
WALL
100
AcDbLine
370
50
 10
7800
 20
6525
 30
0
 11
9150
 21
6525
 31
0
  0
LINE
  5
1A3
100
AcDbEntity
  8
WALL
100
AcDbLine
370
50
 10
7800
 20
6675
 30
0
 11
9150
 21
6675
 31
0
  0
LINE
  5
1A4
100
AcDbEntity
  8
WALL
100
AcDbLine
370
50
 10
10050
 20
6525
 30
0
 11
11400
 21
6525
 31
0
  0
LINE
  5
1A5
100
AcDbEntity
  8
WALL
100
AcDbLine
370
50
 10
10050
 20
6675
 30
0
 11
11400
 21
6675
 31
0
  0
LINE
  5
1A6
100
AcDbEntity
  8
WALL
100
AcDbLine
370
50
 10
9150
 20
6525
 30
0
 11
9150
 21
6675
 31
0
  0
LINE
  5
1A7
100
AcDbEntity
  8
WALL
100
AcDbLine
370
50
 10
10050
 20
6525
 30
0
 11
10050
 21
6675
 31
0
  0
LWPOLYLINE
  5
1A8
100
AcDbEntity
  8
COLUMN
100
AcDbPolyline
 90
4
 70
1
 10
-115
 20
-115
 10
115
 20
-115
 10
115
 20
115
 10
-115
 20
115
  0
LWPOLYLINE
  5
1A9
100
AcDbEntity
  8
COLUMN
100
AcDbPolyline
 90
4
 70
1
 10
-115
 20
4085
 10
115
 20
4085
 10
115
 20
4315
 10
-115
 20
4315
  0
LWPOLYLINE
  5
1AA
100
AcDbEntity
  8
COLUMN
100
AcDbPolyline
 90
4
 70
1
 10
-115
 20
6485
 10
115
 20
6485
 10
115
 20
6715
 10
-115
 20
6715
  0
LWPOLYLINE
  5
1AB
100
AcDbEntity
  8
COLUMN
100
AcDbPolyline
 90
4
 70
1
 10
-115
 20
10385
 10
115
 20
10385
 10
115
 20
10615
 10
-115
 20
10615
  0
LWPOLYLINE
  5
1AC
100
AcDbEntity
  8
COLUMN
100
AcDbPolyline
 90
4
 70
1
 10
4385
 20
-115
 10
4615
 20
-115
 10
4615
 20
115
 10
4385
 20
115
  0
LWPOLYLINE
  5
1AD
100
AcDbEntity
  8
COLUMN
100
AcDbPolyline
 90
4
 70
1
 10
4385
 20
4085
 10
4615
 20
4085
 10
4615
 20
4315
 10
4385
 20
4315
  0
LWPOLYLINE
  5
1AE
100
AcDbEntity
  8
COLUMN
100
AcDbPolyline
 90
4
 70
1
 10
4385
 20
6485
 10
4615
 20
6485
 10
4615
 20
6715
 10
4385
 20
6715
  0
LWPOLYLINE
  5
1AF
100
AcDbEntity
  8
COLUMN
100
AcDbPolyline
 90
4
 70
1
 10
4385
 20
10385
 10
4615
 20
10385
 10
4615
 20
10615
 10
4385
 20
10615
  0
LWPOLYLINE
  5
1B0
100
AcDbEntity
  8
COLUMN
100
AcDbPolyline
 90
4
 70
1
 10
7685
 20
-115
 10
7915
 20
-115
 10
7915
 20
115
 10
7685
 20
115
  0
LWPOLYLINE
  5
1B1
100
AcDbEntity
  8
COLUMN
100
AcDbPolyline
 90
4
 70
1
 10
7685
 20
4085
 10
7915
 20
4085
 10
7915
 20
4315
 10
7685
 20
4315
  0
LWPOLYLINE
  5
1B2
100
AcDbEntity
  8
COLUMN
100
AcDbPolyline
 90
4
 70
1
 10
7685
 20
6485
 10
7915
 20
6485
 10
7915
 20
6715
 10
7685
 20
6715
  0
LWPOLYLINE
  5
1B3
100
AcDbEntity
  8
COLUMN
100
AcDbPolyline
 90
4
 70
1
 10
7685
 20
10385
 10
7915
 20
10385
 10
7915
 20
10615
 10
7685
 20
10615
  0
LWPOLYLINE
  5
1B4
100
AcDbEntity
  8
COLUMN
100
AcDbPolyline
 90
4
 70
1
 10
11285
 20
-115
 10
11515
 20
-115
 10
11515
 20
115
 10
11285
 20
115
  0
LWPOLYLINE
  5
1B5
100
AcDbEntity
  8
COLUMN
100
AcDbPolyline
 90
4
 70
1
 10
11285
 20
4085
 10
11515
 20
4085
 10
11515
 20
4315
 10
11285
 20
4315
  0
LWPOLYLINE
  5
1B6
100
AcDbEntity
  8
COLUMN
100
AcDbPolyline
 90
4
 70
1
 10
11285
 20
6485
 10
11515
 20
6485
 10
11515
 20
6715
 10
11285
 20
6715
  0
LWPOLYLINE
  5
1B7
100
AcDbEntity
  8
COLUMN
100
AcDbPolyline
 90
4
 70
1
 10
11285
 20
10385
 10
11515
 20
10385
 10
11515
 20
10615
 10
11285
 20
10615
  0
TEXT
  5
1B8
100
AcDbEntity
  8
TEXT
100
AcDbText
 10
1768.7500
 20
2118.7500
 30
0
 40
250
  1
LOUNGE
100
AcDbText
  0
TEXT
  5
1B9
100
AcDbEntity
  8
TEXT
100
AcDbText
 10
5650
 20
2118.7500
 30
0
 40
250
  1
DINING
100
AcDbText
  0
TEXT
  5
1BA
100
AcDbEntity
  8
TEXT
100
AcDbText
 10
9081.2500
 20
2118.7500
 30
0
 40
250
  1
KITCHEN
100
AcDbText
  0
TEXT
  5
1BB
100
AcDbEntity
  8
TEXT
100
AcDbText
 10
1768.7500
 20
5400
 30
0
 40
250
  1
STUDY
100
AcDbText
  0
TEXT
  5
1BC
100
AcDbEntity
  8
TEXT
100
AcDbText
 10
5650
 20
5400
 30
0
 40
250
  1
WC
100
AcDbText
  0
INSERT
  5
1BD
100
AcDbEntity
  8
SANITARY
100
AcDbBlockReference
  2
WC-STD
 10
5175
 20
5925
 30
0
 41
1
 42
1
 43
1
 50
0
  0
TEXT
  5
1BE
100
AcDbEntity
  8
TEXT
100
AcDbText
 10
9081.2500
 20
5400
 30
0
 40
250
  1
STORE
100
AcDbText
  0
TEXT
  5
1BF
100
AcDbEntity
  8
TEXT
100
AcDbText
 10
1768.7500
 20
8531.2500
 30
0
 40
250
  1
GUEST BEDROOM
100
AcDbText
  0
TEXT
  5
1C0
100
AcDbEntity
  8
TEXT
100
AcDbText
 10
5650
 20
8531.2500
 30
0
 40
250
  1
LAUNDRY
100
AcDbText
  0
TEXT
  5
1C1
100
AcDbEntity
  8
TEXT
100
AcDbText
 10
9081.2500
 20
8531.2500
 30
0
 40
250
  1
GARAGE
100
AcDbText
  0
DIMENSION
  5
1C2
100
AcDbEntity
  8
DIM
100
AcDbDimension
  2
*D
 10
0
 20
-1800
 30
0
 11
5700
 21
-1550
 31
0
 70
33
  1

 42
11400
100
AcDbAlignedDimension
 13
0
 23
0
 33
0
 14
11400
 24
0
 34
0
  0
DIMENSION
  5
1C3
100
AcDbEntity
  8
DIM
100
AcDbDimension
  2
*D
 10
-1800
 20
0
 30
0
 11
-1550
 21
5250
 31
0
 70
33
  1

 42
10500
100
AcDbAlignedDimension
 13
0
 23
0
 33
0
 14
0
 24
10500
 34
0
  0
DIMENSION
  5
1C4
100
AcDbEntity
  8
DIM
100
AcDbDimension
  2
*D
 10
0
 20
11700
 30
0
 11
2250
 21
11950
 31
0
 70
33
  1

 42
4500
100
AcDbAlignedDimension
 13
0
 23
10500
 33
0
 14
4500
 24
10500
 34
0
  0
DIMENSION
  5
1C5
100
AcDbEntity
  8
DIM
100
AcDbDimension
  2
*D
 10
4500
 20
11700
 30
0
 11
6150
 21
11950
 31
0
 70
33
  1

 42
3300
100
AcDbAlignedDimension
 13
4500
 23
10500
 33
0
 14
7800
 24
10500
 34
0
  0
DIMENSION
  5
1C6
100
AcDbEntity
  8
DIM
100
AcDbDimension
  2
*D
 10
7800
 20
11700
 30
0
 11
9600
 21
11950
 31
0
 70
33
  1

 42
3600
100
AcDbAlignedDimension
 13
7800
 23
10500
 33
0
 14
11400
 24
10500
 34
0
  0
DIMENSION
  5
1C7
100
AcDbEntity
  8
DIM
100
AcDbDimension
  2
*D
 10
12600
 20
0
 30
0
 11
12850
 21
2100
 31
0
 70
33
  1

 42
4200
100
AcDbAlignedDimension
 13
11400
 23
0
 33
0
 14
11400
 24
4200
 34
0
  0
DIMENSION
  5
1C8
100
AcDbEntity
  8
DIM
100
AcDbDimension
  2
*D
 10
12600
 20
4200
 30
0
 11
12850
 21
5400
 31
0
 70
33
  1

 42
2400
100
AcDbAlignedDimension
 13
11400
 23
4200
 33
0
 14
11400
 24
6600
 34
0
  0
DIMENSION
  5
1C9
100
AcDbEntity
  8
DIM
100
AcDbDimension
  2
*D
 10
12600
 20
6600
 30
0
 11
12850
 21
8550
 31
0
 70
33
  1

 42
3900
100
AcDbAlignedDimension
 13
11400
 23
6600
 33
0
 14
11400
 24
10500
 34
0
  0
TEXT
  5
1CA
100
AcDbEntity
  8
TEXT
100
AcDbText
 10
0
 20
-3200
 30
0
 40
450
  1
GROUND FLOOR PLAN
100
AcDbText
  0
TEXT
  5
1CB
100
AcDbEntity
  8
TEXT
100
AcDbText
 10
14000
 20
5250
 30
0
 40
300
  1
+450
100
AcDbText
  0
INSERT
  5
1CC
100
AcDbEntity
  8
WIND
100
AcDbBlockReference
  2
WIN-1200
 10
25650
 20
0
 30
0
 41
1
 42
1
 43
1
 50
0
  0
INSERT
  5
1CD
100
AcDbEntity
  8
WIND
100
AcDbBlockReference
  2
WIN-1200
 10
25650
 20
10500
 30
0
 41
1
 42
1
 43
1
 50
0
  0
INSERT
  5
1CE
100
AcDbEntity
  8
WIND
100
AcDbBlockReference
  2
WIN-1200
 10
29550
 20
0
 30
0
 41
1
 42
1
 43
1
 50
0
  0
INSERT
  5
1CF
100
AcDbEntity
  8
WIND
100
AcDbBlockReference
  2
WIN-1200
 10
29550
 20
10500
 30
0
 41
1
 42
1
 43
1
 50
0
  0
INSERT
  5
1D0
100
AcDbEntity
  8
WIND
100
AcDbBlockReference
  2
WIN-1200
 10
33000
 20
0
 30
0
 41
1
 42
1
 43
1
 50
0
  0
INSERT
  5
1D1
100
AcDbEntity
  8
WIND
100
AcDbBlockReference
  2
WIN-1200
 10
33000
 20
10500
 30
0
 41
1
 42
1
 43
1
 50
0
  0
INSERT
  5
1D2
100
AcDbEntity
  8
WIND
100
AcDbBlockReference
  2
WIN-1200
 10
23400
 20
2100
 30
0
 41
1
 42
1
 43
1
 50
90
  0
INSERT
  5
1D3
100
AcDbEntity
  8
WIND
100
AcDbBlockReference
  2
WIN-1200
 10
34800
 20
2100
 30
0
 41
1
 42
1
 43
1
 50
90
  0
INSERT
  5
1D4
100
AcDbEntity
  8
WIND
100
AcDbBlockReference
  2
WIN-1200
 10
23400
 20
5400
 30
0
 41
1
 42
1
 43
1
 50
90
  0
INSERT
  5
1D5
100
AcDbEntity
  8
WIND
100
AcDbBlockReference
  2
WIN-1200
 10
34800
 20
5400
 30
0
 41
1
 42
1
 43
1
 50
90
  0
INSERT
  5
1D6
100
AcDbEntity
  8
WIND
100
AcDbBlockReference
  2
WIN-1200
 10
23400
 20
8550
 30
0
 41
1
 42
1
 43
1
 50
90
  0
INSERT
  5
1D7
100
AcDbEntity
  8
WIND
100
AcDbBlockReference
  2
WIN-1200
 10
34800
 20
8550
 30
0
 41
1
 42
1
 43
1
 50
90
  0
INSERT
  5
1D8
100
AcDbEntity
  8
DOOR
100
AcDbBlockReference
  2
DOOR-900
 10
27900
 20
2100
 30
0
 41
1
 42
1
 43
1
 50
90
  0
INSERT
  5
1D9
100
AcDbEntity
  8
DOOR
100
AcDbBlockReference
  2
DOOR-900
 10
27900
 20
8550
 30
0
 41
1
 42
1
 43
1
 50
90
  0
INSERT
  5
1DA
100
AcDbEntity
  8
DOOR
100
AcDbBlockReference
  2
DOOR-900
 10
31200
 20
2100
 30
0
 41
1
 42
1
 43
1
 50
90
  0
INSERT
  5
1DB
100
AcDbEntity
  8
DOOR
100
AcDbBlockReference
  2
DOOR-900
 10
31200
 20
5400
 30
0
 41
1
 42
1
 43
1
 50
90
  0
INSERT
  5
1DC
100
AcDbEntity
  8
DOOR
100
AcDbBlockReference
  2
DOOR-900
 10
31200
 20
8550
 30
0
 41
1
 42
1
 43
1
 50
90
  0
INSERT
  5
1DD
100
AcDbEntity
  8
DOOR
100
AcDbBlockReference
  2
DOOR-900
 10
25650
 20
4200
 30
0
 41
1
 42
1
 43
1
 50
0
  0
INSERT
  5
1DE
100
AcDbEntity
  8
DOOR
100
AcDbBlockReference
  2
DOOR-900
 10
29550
 20
4200
 30
0
 41
1
 42
1
 43
1
 50
0
  0
INSERT
  5
1DF
100
AcDbEntity
  8
DOOR
100
AcDbBlockReference
  2
DOOR-900
 10
33000
 20
4200
 30
0
 41
1
 42
1
 43
1
 50
0
  0
INSERT
  5
1E0
100
AcDbEntity
  8
DOOR
100
AcDbBlockReference
  2
DOOR-900
 10
29550
 20
6600
 30
0
 41
1
 42
1
 43
1
 50
0
  0
INSERT
  5
1E1
100
AcDbEntity
  8
DOOR
100
AcDbBlockReference
  2
DOOR-900
 10
33000
 20
6600
 30
0
 41
1
 42
1
 43
1
 50
0
  0
LINE
  5
1E2
100
AcDbEntity
  8
WALL
100
AcDbLine
370
50
 10
23400
 20
-112.5000
 30
0
 11
25050
 21
-112.5000
 31
0
  0
LINE
  5
1E3
100
AcDbEntity
  8
WALL
100
AcDbLine
370
50
 10
23400
 20
112.5000
 30
0
 11
25050
 21
112.5000
 31
0
  0
LINE
  5
1E4
100
AcDbEntity
  8
WALL
100
AcDbLine
370
50
 10
26250
 20
-112.5000
 30
0
 11
27900
 21
-112.5000
 31
0
  0
LINE
  5
1E5
100
AcDbEntity
  8
WALL
100
AcDbLine
370
50
 10
26250
 20
112.5000
 30
0
 11
27900
 21
112.5000
 31
0
  0
LINE
  5
1E6
100
AcDbEntity
  8
WALL
100
AcDbLine
370
50
 10
25050
 20
-112.5000
 30
0
 11
25050
 21
112.5000
 31
0
  0
LINE
  5
1E7
100
AcDbEntity
  8
WALL
100
AcDbLine
370
50
 10
26250
 20
-112.5000
 30
0
 11
26250
 21
112.5000
 31
0
  0
LINE
  5
1E8
100
AcDbEntity
  8
WALL
100
AcDbLine
370
50
 10
23400
 20
10387.5000
 30
0
 11
25050
 21
10387.5000
 31
0
  0
LINE
  5
1E9
100
AcDbEntity
  8
WALL
100
AcDbLine
370
50
 10
23400
 20
10612.5000
 30
0
 11
25050
 21
10612.5000
 31
0
  0
LINE
  5
1EA
100
AcDbEntity
  8
WALL
100
AcDbLine
370
50
 10
26250
 20
10387.5000
 30
0
 11
27900
 21
10387.5000
 31
0
  0
LINE
  5
1EB
100
AcDbEntity
  8
WALL
100
AcDbLine
370
50
 10
26250
 20
10612.5000
 30
0
 11
27900
 21
10612.5000
 31
0
  0
LINE
  5
1EC
100
AcDbEntity
  8
WALL
100
AcDbLine
370
50
 10
25050
 20
10387.5000
 30
0
 11
25050
 21
10612.5000
 31
0
  0
LINE
  5
1ED
100
AcDbEntity
  8
WALL
100
AcDbLine
370
50
 10
26250
 20
10387.5000
 30
0
 11
26250
 21
10612.5000
 31
0
  0
LINE
  5
1EE
100
AcDbEntity
  8
WALL
100
AcDbLine
370
50
 10
27900
 20
-112.5000
 30
0
 11
28950
 21
-112.5000
 31
0
  0
LINE
  5
1EF
100
AcDbEntity
  8
WALL
100
AcDbLine
370
50
 10
27900
 20
112.5000
 30
0
 11
28950
 21
112.5000
 31
0
  0
LINE
  5
1F0
100
AcDbEntity
  8
WALL
100
AcDbLine
370
50
 10
30150
 20
-112.5000
 30
0
 11
31200
 21
-112.5000
 31
0
  0
LINE
  5
1F1
100
AcDbEntity
  8
WALL
100
AcDbLine
370
50
 10
30150
 20
112.5000
 30
0
 11
31200
 21
112.5000
 31
0
  0
LINE
  5
1F2
100
AcDbEntity
  8
WALL
100
AcDbLine
370
50
 10
28950
 20
-112.5000
 30
0
 11
28950
 21
112.5000
 31
0
  0
LINE
  5
1F3
100
AcDbEntity
  8
WALL
100
AcDbLine
370
50
 10
30150
 20
-112.5000
 30
0
 11
30150
 21
112.5000
 31
0
  0
LINE
  5
1F4
100
AcDbEntity
  8
WALL
100
AcDbLine
370
50
 10
27900
 20
10387.5000
 30
0
 11
28950
 21
10387.5000
 31
0
  0
LINE
  5
1F5
100
AcDbEntity
  8
WALL
100
AcDbLine
370
50
 10
27900
 20
10612.5000
 30
0
 11
28950
 21
10612.5000
 31
0
  0
LINE
  5
1F6
100
AcDbEntity
  8
WALL
100
AcDbLine
370
50
 10
30150
 20
10387.5000
 30
0
 11
31200
 21
10387.5000
 31
0
  0
LINE
  5
1F7
100
AcDbEntity
  8
WALL
100
AcDbLine
370
50
 10
30150
 20
10612.5000
 30
0
 11
31200
 21
10612.5000
 31
0
  0
LINE
  5
1F8
100
AcDbEntity
  8
WALL
100
AcDbLine
370
50
 10
28950
 20
10387.5000
 30
0
 11
28950
 21
10612.5000
 31
0
  0
LINE
  5
1F9
100
AcDbEntity
  8
WALL
100
AcDbLine
370
50
 10
30150
 20
10387.5000
 30
0
 11
30150
 21
10612.5000
 31
0
  0
LINE
  5
1FA
100
AcDbEntity
  8
WALL
100
AcDbLine
370
50
 10
31200
 20
-112.5000
 30
0
 11
32400
 21
-112.5000
 31
0
  0
LINE
  5
1FB
100
AcDbEntity
  8
WALL
100
AcDbLine
370
50
 10
31200
 20
112.5000
 30
0
 11
32400
 21
112.5000
 31
0
  0
LINE
  5
1FC
100
AcDbEntity
  8
WALL
100
AcDbLine
370
50
 10
33600
 20
-112.5000
 30
0
 11
34800
 21
-112.5000
 31
0
  0
LINE
  5
1FD
100
AcDbEntity
  8
WALL
100
AcDbLine
370
50
 10
33600
 20
112.5000
 30
0
 11
34800
 21
112.5000
 31
0
  0
LINE
  5
1FE
100
AcDbEntity
  8
WALL
100
AcDbLine
370
50
 10
32400
 20
-112.5000
 30
0
 11
32400
 21
112.5000
 31
0
  0
LINE
  5
1FF
100
AcDbEntity
  8
WALL
100
AcDbLine
370
50
 10
33600
 20
-112.5000
 30
0
 11
33600
 21
112.5000
 31
0
  0
LINE
  5
200
100
AcDbEntity
  8
WALL
100
AcDbLine
370
50
 10
31200
 20
10387.5000
 30
0
 11
32400
 21
10387.5000
 31
0
  0
LINE
  5
201
100
AcDbEntity
  8
WALL
100
AcDbLine
370
50
 10
31200
 20
10612.5000
 30
0
 11
32400
 21
10612.5000
 31
0
  0
LINE
  5
202
100
AcDbEntity
  8
WALL
100
AcDbLine
370
50
 10
33600
 20
10387.5000
 30
0
 11
34800
 21
10387.5000
 31
0
  0
LINE
  5
203
100
AcDbEntity
  8
WALL
100
AcDbLine
370
50
 10
33600
 20
10612.5000
 30
0
 11
34800
 21
10612.5000
 31
0
  0
LINE
  5
204
100
AcDbEntity
  8
WALL
100
AcDbLine
370
50
 10
32400
 20
10387.5000
 30
0
 11
32400
 21
10612.5000
 31
0
  0
LINE
  5
205
100
AcDbEntity
  8
WALL
100
AcDbLine
370
50
 10
33600
 20
10387.5000
 30
0
 11
33600
 21
10612.5000
 31
0
  0
LINE
  5
206
100
AcDbEntity
  8
WALL
100
AcDbLine
370
50
 10
23287.5000
 20
0
 30
0
 11
23287.5000
 21
1500
 31
0
  0
LINE
  5
207
100
AcDbEntity
  8
WALL
100
AcDbLine
370
50
 10
23512.5000
 20
0
 30
0
 11
23512.5000
 21
1500
 31
0
  0
LINE
  5
208
100
AcDbEntity
  8
WALL
100
AcDbLine
370
50
 10
23287.5000
 20
2700
 30
0
 11
23287.5000
 21
4200
 31
0
  0
LINE
  5
209
100
AcDbEntity
  8
WALL
100
AcDbLine
370
50
 10
23512.5000
 20
2700
 30
0
 11
23512.5000
 21
4200
 31
0
  0
LINE
  5
20A
100
AcDbEntity
  8
WALL
100
AcDbLine
370
50
 10
23287.5000
 20
1500
 30
0
 11
23512.5000
 21
1500
 31
0
  0
LINE
  5
20B
100
AcDbEntity
  8
WALL
100
AcDbLine
370
50
 10
23287.5000
 20
2700
 30
0
 11
23512.5000
 21
2700
 31
0
  0
LINE
  5
20C
100
AcDbEntity
  8
WALL
100
AcDbLine
370
50
 10
34687.5000
 20
0
 30
0
 11
34687.5000
 21
1500
 31
0
  0
LINE
  5
20D
100
AcDbEntity
  8
WALL
100
AcDbLine
370
50
 10
34912.5000
 20
0
 30
0
 11
34912.5000
 21
1500
 31
0
  0
LINE
  5
20E
100
AcDbEntity
  8
WALL
100
AcDbLine
370
50
 10
34687.5000
 20
2700
 30
0
 11
34687.5000
 21
4200
 31
0
  0
LINE
  5
20F
100
AcDbEntity
  8
WALL
100
AcDbLine
370
50
 10
34912.5000
 20
2700
 30
0
 11
34912.5000
 21
4200
 31
0
  0
LINE
  5
210
100
AcDbEntity
  8
WALL
100
AcDbLine
370
50
 10
34687.5000
 20
1500
 30
0
 11
34912.5000
 21
1500
 31
0
  0
LINE
  5
211
100
AcDbEntity
  8
WALL
100
AcDbLine
370
50
 10
34687.5000
 20
2700
 30
0
 11
34912.5000
 21
2700
 31
0
  0
LINE
  5
212
100
AcDbEntity
  8
WALL
100
AcDbLine
370
50
 10
23287.5000
 20
4200
 30
0
 11
23287.5000
 21
4800
 31
0
  0
LINE
  5
213
100
AcDbEntity
  8
WALL
100
AcDbLine
370
50
 10
23512.5000
 20
4200
 30
0
 11
23512.5000
 21
4800
 31
0
  0
LINE
  5
214
100
AcDbEntity
  8
WALL
100
AcDbLine
370
50
 10
23287.5000
 20
6000
 30
0
 11
23287.5000
 21
6600
 31
0
  0
LINE
  5
215
100
AcDbEntity
  8
WALL
100
AcDbLine
370
50
 10
23512.5000
 20
6000
 30
0
 11
23512.5000
 21
6600
 31
0
  0
LINE
  5
216
100
AcDbEntity
  8
WALL
100
AcDbLine
370
50
 10
23287.5000
 20
4800
 30
0
 11
23512.5000
 21
4800
 31
0
  0
LINE
  5
217
100
AcDbEntity
  8
WALL
100
AcDbLine
370
50
 10
23287.5000
 20
6000
 30
0
 11
23512.5000
 21
6000
 31
0
  0
LINE
  5
218
100
AcDbEntity
  8
WALL
100
AcDbLine
370
50
 10
34687.5000
 20
4200
 30
0
 11
34687.5000
 21
4800
 31
0
  0
LINE
  5
219
100
AcDbEntity
  8
WALL
100
AcDbLine
370
50
 10
34912.5000
 20
4200
 30
0
 11
34912.5000
 21
4800
 31
0
  0
LINE
  5
21A
100
AcDbEntity
  8
WALL
100
AcDbLine
370
50
 10
34687.5000
 20
6000
 30
0
 11
34687.5000
 21
6600
 31
0
  0
LINE
  5
21B
100
AcDbEntity
  8
WALL
100
AcDbLine
370
50
 10
34912.5000
 20
6000
 30
0
 11
34912.5000
 21
6600
 31
0
  0
LINE
  5
21C
100
AcDbEntity
  8
WALL
100
AcDbLine
370
50
 10
34687.5000
 20
4800
 30
0
 11
34912.5000
 21
4800
 31
0
  0
LINE
  5
21D
100
AcDbEntity
  8
WALL
100
AcDbLine
370
50
 10
34687.5000
 20
6000
 30
0
 11
34912.5000
 21
6000
 31
0
  0
LINE
  5
21E
100
AcDbEntity
  8
WALL
100
AcDbLine
370
50
 10
23287.5000
 20
6600
 30
0
 11
23287.5000
 21
7950
 31
0
  0
LINE
  5
21F
100
AcDbEntity
  8
WALL
100
AcDbLine
370
50
 10
23512.5000
 20
6600
 30
0
 11
23512.5000
 21
7950
 31
0
  0
LINE
  5
220
100
AcDbEntity
  8
WALL
100
AcDbLine
370
50
 10
23287.5000
 20
9150
 30
0
 11
23287.5000
 21
10500
 31
0
  0
LINE
  5
221
100
AcDbEntity
  8
WALL
100
AcDbLine
370
50
 10
23512.5000
 20
9150
 30
0
 11
23512.5000
 21
10500
 31
0
  0
LINE
  5
222
100
AcDbEntity
  8
WALL
100
AcDbLine
370
50
 10
23287.5000
 20
7950
 30
0
 11
23512.5000
 21
7950
 31
0
  0
LINE
  5
223
100
AcDbEntity
  8
WALL
100
AcDbLine
370
50
 10
23287.5000
 20
9150
 30
0
 11
23512.5000
 21
9150
 31
0
  0
LINE
  5
224
100
AcDbEntity
  8
WALL
100
AcDbLine
370
50
 10
34687.5000
 20
6600
 30
0
 11
34687.5000
 21
7950
 31
0
  0
LINE
  5
225
100
AcDbEntity
  8
WALL
100
AcDbLine
370
50
 10
34912.5000
 20
6600
 30
0
 11
34912.5000
 21
7950
 31
0
  0
LINE
  5
226
100
AcDbEntity
  8
WALL
100
AcDbLine
370
50
 10
34687.5000
 20
9150
 30
0
 11
34687.5000
 21
10500
 31
0
  0
LINE
  5
227
100
AcDbEntity
  8
WALL
100
AcDbLine
370
50
 10
34912.5000
 20
9150
 30
0
 11
34912.5000
 21
10500
 31
0
  0
LINE
  5
228
100
AcDbEntity
  8
WALL
100
AcDbLine
370
50
 10
34687.5000
 20
7950
 30
0
 11
34912.5000
 21
7950
 31
0
  0
LINE
  5
229
100
AcDbEntity
  8
WALL
100
AcDbLine
370
50
 10
34687.5000
 20
9150
 30
0
 11
34912.5000
 21
9150
 31
0
  0
LINE
  5
22A
100
AcDbEntity
  8
WALL
100
AcDbLine
370
50
 10
27825
 20
0
 30
0
 11
27825
 21
1650
 31
0
  0
LINE
  5
22B
100
AcDbEntity
  8
WALL
100
AcDbLine
370
50
 10
27975
 20
0
 30
0
 11
27975
 21
1650
 31
0
  0
LINE
  5
22C
100
AcDbEntity
  8
WALL
100
AcDbLine
370
50
 10
27825
 20
2550
 30
0
 11
27825
 21
4200
 31
0
  0
LINE
  5
22D
100
AcDbEntity
  8
WALL
100
AcDbLine
370
50
 10
27975
 20
2550
 30
0
 11
27975
 21
4200
 31
0
  0
LINE
  5
22E
100
AcDbEntity
  8
WALL
100
AcDbLine
370
50
 10
27825
 20
1650
 30
0
 11
27975
 21
1650
 31
0
  0
LINE
  5
22F
100
AcDbEntity
  8
WALL
100
AcDbLine
370
50
 10
27825
 20
2550
 30
0
 11
27975
 21
2550
 31
0
  0
LINE
  5
230
100
AcDbEntity
  8
WALL
100
AcDbLine
370
50
 10
27825
 20
4200
 30
0
 11
27825
 21
6600
 31
0
  0
LINE
  5
231
100
AcDbEntity
  8
WALL
100
AcDbLine
370
50
 10
27975
 20
4200
 30
0
 11
27975
 21
6600
 31
0
  0
LINE
  5
232
100
AcDbEntity
  8
WALL
100
AcDbLine
370
50
 10
27825
 20
6600
 30
0
 11
27825
 21
8100
 31
0
  0
LINE
  5
233
100
AcDbEntity
  8
WALL
100
AcDbLine
370
50
 10
27975
 20
6600
 30
0
 11
27975
 21
8100
 31
0
  0
LINE
  5
234
100
AcDbEntity
  8
WALL
100
AcDbLine
370
50
 10
27825
 20
9000
 30
0
 11
27825
 21
10500
 31
0
  0
LINE
  5
235
100
AcDbEntity
  8
WALL
100
AcDbLine
370
50
 10
27975
 20
9000
 30
0
 11
27975
 21
10500
 31
0
  0
LINE
  5
236
100
AcDbEntity
  8
WALL
100
AcDbLine
370
50
 10
27825
 20
8100
 30
0
 11
27975
 21
8100
 31
0
  0
LINE
  5
237
100
AcDbEntity
  8
WALL
100
AcDbLine
370
50
 10
27825
 20
9000
 30
0
 11
27975
 21
9000
 31
0
  0
LINE
  5
238
100
AcDbEntity
  8
WALL
100
AcDbLine
370
50
 10
31125
 20
0
 30
0
 11
31125
 21
1650
 31
0
  0
LINE
  5
239
100
AcDbEntity
  8
WALL
100
AcDbLine
370
50
 10
31275
 20
0
 30
0
 11
31275
 21
1650
 31
0
  0
LINE
  5
23A
100
AcDbEntity
  8
WALL
100
AcDbLine
370
50
 10
31125
 20
2550
 30
0
 11
31125
 21
4200
 31
0
  0
LINE
  5
23B
100
AcDbEntity
  8
WALL
100
AcDbLine
370
50
 10
31275
 20
2550
 30
0
 11
31275
 21
4200
 31
0
  0
LINE
  5
23C
100
AcDbEntity
  8
WALL
100
AcDbLine
370
50
 10
31125
 20
1650
 30
0
 11
31275
 21
1650
 31
0
  0
LINE
  5
23D
100
AcDbEntity
  8
WALL
100
AcDbLine
370
50
 10
31125
 20
2550
 30
0
 11
31275
 21
2550
 31
0
  0
LINE
  5
23E
100
AcDbEntity
  8
WALL
100
AcDbLine
370
50
 10
31125
 20
4200
 30
0
 11
31125
 21
4950
 31
0
  0
LINE
  5
23F
100
AcDbEntity
  8
WALL
100
AcDbLine
370
50
 10
31275
 20
4200
 30
0
 11
31275
 21
4950
 31
0
  0
LINE
  5
240
100
AcDbEntity
  8
WALL
100
AcDbLine
370
50
 10
31125
 20
5850
 30
0
 11
31125
 21
6600
 31
0
  0
LINE
  5
241
100
AcDbEntity
  8
WALL
100
AcDbLine
370
50
 10
31275
 20
5850
 30
0
 11
31275
 21
6600
 31
0
  0
LINE
  5
242
100
AcDbEntity
  8
WALL
100
AcDbLine
370
50
 10
31125
 20
4950
 30
0
 11
31275
 21
4950
 31
0
  0
LINE
  5
243
100
AcDbEntity
  8
WALL
100
AcDbLine
370
50
 10
31125
 20
5850
 30
0
 11
31275
 21
5850
 31
0
  0
LINE
  5
244
100
AcDbEntity
  8
WALL
100
AcDbLine
370
50
 10
31125
 20
6600
 30
0
 11
31125
 21
8100
 31
0
  0
LINE
  5
245
100
AcDbEntity
  8
WALL
100
AcDbLine
370
50
 10
31275
 20
6600
 30
0
 11
31275
 21
8100
 31
0
  0
LINE
  5
246
100
AcDbEntity
  8
WALL
100
AcDbLine
370
50
 10
31125
 20
9000
 30
0
 11
31125
 21
10500
 31
0
  0
LINE
  5
247
100
AcDbEntity
  8
WALL
100
AcDbLine
370
50
 10
31275
 20
9000
 30
0
 11
31275
 21
10500
 31
0
  0
LINE
  5
248
100
AcDbEntity
  8
WALL
100
AcDbLine
370
50
 10
31125
 20
8100
 30
0
 11
31275
 21
8100
 31
0
  0
LINE
  5
249
100
AcDbEntity
  8
WALL
100
AcDbLine
370
50
 10
31125
 20
9000
 30
0
 11
31275
 21
9000
 31
0
  0
LINE
  5
24A
100
AcDbEntity
  8
WALL
100
AcDbLine
370
50
 10
23400
 20
4125
 30
0
 11
25200
 21
4125
 31
0
  0
LINE
  5
24B
100
AcDbEntity
  8
WALL
100
AcDbLine
370
50
 10
23400
 20
4275
 30
0
 11
25200
 21
4275
 31
0
  0
LINE
  5
24C
100
AcDbEntity
  8
WALL
100
AcDbLine
370
50
 10
26100
 20
4125
 30
0
 11
27900
 21
4125
 31
0
  0
LINE
  5
24D
100
AcDbEntity
  8
WALL
100
AcDbLine
370
50
 10
26100
 20
4275
 30
0
 11
27900
 21
4275
 31
0
  0
LINE
  5
24E
100
AcDbEntity
  8
WALL
100
AcDbLine
370
50
 10
25200
 20
4125
 30
0
 11
25200
 21
4275
 31
0
  0
LINE
  5
24F
100
AcDbEntity
  8
WALL
100
AcDbLine
370
50
 10
26100
 20
4125
 30
0
 11
26100
 21
4275
 31
0
  0
LINE
  5
250
100
AcDbEntity
  8
WALL
100
AcDbLine
370
50
 10
27900
 20
4125
 30
0
 11
29100
 21
4125
 31
0
  0
LINE
  5
251
100
AcDbEntity
  8
WALL
100
AcDbLine
370
50
 10
27900
 20
4275
 30
0
 11
29100
 21
4275
 31
0
  0
LINE
  5
252
100
AcDbEntity
  8
WALL
100
AcDbLine
370
50
 10
30000
 20
4125
 30
0
 11
31200
 21
4125
 31
0
  0
LINE
  5
253
100
AcDbEntity
  8
WALL
100
AcDbLine
370
50
 10
30000
 20
4275
 30
0
 11
31200
 21
4275
 31
0
  0
LINE
  5
254
100
AcDbEntity
  8
WALL
100
AcDbLine
370
50
 10
29100
 20
4125
 30
0
 11
29100
 21
4275
 31
0
  0
LINE
  5
255
100
AcDbEntity
  8
WALL
100
AcDbLine
370
50
 10
30000
 20
4125
 30
0
 11
30000
 21
4275
 31
0
  0
LINE
  5
256
100
AcDbEntity
  8
WALL
100
AcDbLine
370
50
 10
31200
 20
4125
 30
0
 11
32550
 21
4125
 31
0
  0
LINE
  5
257
100
AcDbEntity
  8
WALL
100
AcDbLine
370
50
 10
31200
 20
4275
 30
0
 11
32550
 21
4275
 31
0
  0
LINE
  5
258
100
AcDbEntity
  8
WALL
100
AcDbLine
370
50
 10
33450
 20
4125
 30
0
 11
34800
 21
4125
 31
0
  0
LINE
  5
259
100
AcDbEntity
  8
WALL
100
AcDbLine
370
50
 10
33450
 20
4275
 30
0
 11
34800
 21
4275
 31
0
  0
LINE
  5
25A
100
AcDbEntity
  8
WALL
100
AcDbLine
370
50
 10
32550
 20
4125
 30
0
 11
32550
 21
4275
 31
0
  0
LINE
  5
25B
100
AcDbEntity
  8
WALL
100
AcDbLine
370
50
 10
33450
 20
4125
 30
0
 11
33450
 21
4275
 31
0
  0
LINE
  5
25C
100
AcDbEntity
  8
WALL
100
AcDbLine
370
50
 10
23400
 20
6525
 30
0
 11
27900
 21
6525
 31
0
  0
LINE
  5
25D
100
AcDbEntity
  8
WALL
100
AcDbLine
370
50
 10
23400
 20
6675
 30
0
 11
27900
 21
6675
 31
0
  0
LINE
  5
25E
100
AcDbEntity
  8
WALL
100
AcDbLine
370
50
 10
27900
 20
6525
 30
0
 11
29100
 21
6525
 31
0
  0
LINE
  5
25F
100
AcDbEntity
  8
WALL
100
AcDbLine
370
50
 10
27900
 20
6675
 30
0
 11
29100
 21
6675
 31
0
  0
LINE
  5
260
100
AcDbEntity
  8
WALL
100
AcDbLine
370
50
 10
30000
 20
6525
 30
0
 11
31200
 21
6525
 31
0
  0
LINE
  5
261
100
AcDbEntity
  8
WALL
100
AcDbLine
370
50
 10
30000
 20
6675
 30
0
 11
31200
 21
6675
 31
0
  0
LINE
  5
262
100
AcDbEntity
  8
WALL
100
AcDbLine
370
50
 10
29100
 20
6525
 30
0
 11
29100
 21
6675
 31
0
  0
LINE
  5
263
100
AcDbEntity
  8
WALL
100
AcDbLine
370
50
 10
30000
 20
6525
 30
0
 11
30000
 21
6675
 31
0
  0
LINE
  5
264
100
AcDbEntity
  8
WALL
100
AcDbLine
370
50
 10
31200
 20
6525
 30
0
 11
32550
 21
6525
 31
0
  0
LINE
  5
265
100
AcDbEntity
  8
WALL
100
AcDbLine
370
50
 10
31200
 20
6675
 30
0
 11
32550
 21
6675
 31
0
  0
LINE
  5
266
100
AcDbEntity
  8
WALL
100
AcDbLine
370
50
 10
33450
 20
6525
 30
0
 11
34800
 21
6525
 31
0
  0
LINE
  5
267
100
AcDbEntity
  8
WALL
100
AcDbLine
370
50
 10
33450
 20
6675
 30
0
 11
34800
 21
6675
 31
0
  0
LINE
  5
268
100
AcDbEntity
  8
WALL
100
AcDbLine
370
50
 10
32550
 20
6525
 30
0
 11
32550
 21
6675
 31
0
  0
LINE
  5
269
100
AcDbEntity
  8
WALL
100
AcDbLine
370
50
 10
33450
 20
6525
 30
0
 11
33450
 21
6675
 31
0
  0
LWPOLYLINE
  5
26A
100
AcDbEntity
  8
COLUMN
100
AcDbPolyline
 90
4
 70
1
 10
23285
 20
-115
 10
23515
 20
-115
 10
23515
 20
115
 10
23285
 20
115
  0
LWPOLYLINE
  5
26B
100
AcDbEntity
  8
COLUMN
100
AcDbPolyline
 90
4
 70
1
 10
23285
 20
4085
 10
23515
 20
4085
 10
23515
 20
4315
 10
23285
 20
4315
  0
LWPOLYLINE
  5
26C
100
AcDbEntity
  8
COLUMN
100
AcDbPolyline
 90
4
 70
1
 10
23285
 20
6485
 10
23515
 20
6485
 10
23515
 20
6715
 10
23285
 20
6715
  0
LWPOLYLINE
  5
26D
100
AcDbEntity
  8
COLUMN
100
AcDbPolyline
 90
4
 70
1
 10
23285
 20
10385
 10
23515
 20
10385
 10
23515
 20
10615
 10
23285
 20
10615
  0
LWPOLYLINE
  5
26E
100
AcDbEntity
  8
COLUMN
100
AcDbPolyline
 90
4
 70
1
 10
27785
 20
-115
 10
28015
 20
-115
 10
28015
 20
115
 10
27785
 20
115
  0
LWPOLYLINE
  5
26F
100
AcDbEntity
  8
COLUMN
100
AcDbPolyline
 90
4
 70
1
 10
27785
 20
4085
 10
28015
 20
4085
 10
28015
 20
4315
 10
27785
 20
4315
  0
LWPOLYLINE
  5
270
100
AcDbEntity
  8
COLUMN
100
AcDbPolyline
 90
4
 70
1
 10
27785
 20
6485
 10
28015
 20
6485
 10
28015
 20
6715
 10
27785
 20
6715
  0
LWPOLYLINE
  5
271
100
AcDbEntity
  8
COLUMN
100
AcDbPolyline
 90
4
 70
1
 10
27785
 20
10385
 10
28015
 20
10385
 10
28015
 20
10615
 10
27785
 20
10615
  0
LWPOLYLINE
  5
272
100
AcDbEntity
  8
COLUMN
100
AcDbPolyline
 90
4
 70
1
 10
31085
 20
-115
 10
31315
 20
-115
 10
31315
 20
115
 10
31085
 20
115
  0
LWPOLYLINE
  5
273
100
AcDbEntity
  8
COLUMN
100
AcDbPolyline
 90
4
 70
1
 10
31085
 20
4085
 10
31315
 20
4085
 10
31315
 20
4315
 10
31085
 20
4315
  0
LWPOLYLINE
  5
274
100
AcDbEntity
  8
COLUMN
100
AcDbPolyline
 90
4
 70
1
 10
31085
 20
6485
 10
31315
 20
6485
 10
31315
 20
6715
 10
31085
 20
6715
  0
LWPOLYLINE
  5
275
100
AcDbEntity
  8
COLUMN
100
AcDbPolyline
 90
4
 70
1
 10
31085
 20
10385
 10
31315
 20
10385
 10
31315
 20
10615
 10
31085
 20
10615
  0
LWPOLYLINE
  5
276
100
AcDbEntity
  8
COLUMN
100
AcDbPolyline
 90
4
 70
1
 10
34685
 20
-115
 10
34915
 20
-115
 10
34915
 20
115
 10
34685
 20
115
  0
LWPOLYLINE
  5
277
100
AcDbEntity
  8
COLUMN
100
AcDbPolyline
 90
4
 70
1
 10
34685
 20
4085
 10
34915
 20
4085
 10
34915
 20
4315
 10
34685
 20
4315
  0
LWPOLYLINE
  5
278
100
AcDbEntity
  8
COLUMN
100
AcDbPolyline
 90
4
 70
1
 10
34685
 20
6485
 10
34915
 20
6485
 10
34915
 20
6715
 10
34685
 20
6715
  0
LWPOLYLINE
  5
279
100
AcDbEntity
  8
COLUMN
100
AcDbPolyline
 90
4
 70
1
 10
34685
 20
10385
 10
34915
 20
10385
 10
34915
 20
10615
 10
34685
 20
10615
  0
TEXT
  5
27A
100
AcDbEntity
  8
TEXT
100
AcDbText
 10
25168.7500
 20
2118.7500
 30
0
 40
250
  1
BEDROOM
100
AcDbText
  0
TEXT
  5
27B
100
AcDbEntity
  8
TEXT
100
AcDbText
 10
29050
 20
2118.7500
 30
0
 40
250
  1
BEDROOM
100
AcDbText
  0
TEXT
  5
27C
100
AcDbEntity
  8
TEXT
100
AcDbText
 10
32481.2500
 20
2118.7500
 30
0
 40
250
  1
BEDROOM
100
AcDbText
  0
TEXT
  5
27D
100
AcDbEntity
  8
TEXT
100
AcDbText
 10
25168.7500
 20
5400
 30
0
 40
250
  1
BATH
100
AcDbText
  0
INSERT
  5
27E
100
AcDbEntity
  8
SANITARY
100
AcDbBlockReference
  2
WC-STD
 10
24112.5000
 20
5925
 30
0
 41
1
 42
1
 43
1
 50
0
  0
TEXT
  5
27F
100
AcDbEntity
  8
TEXT
100
AcDbText
 10
29050
 20
5400
 30
0
 40
250
  1
BATH
100
AcDbText
  0
INSERT
  5
280
100
AcDbEntity
  8
SANITARY
100
AcDbBlockReference
  2
WC-STD
 10
28575
 20
5925
 30
0
 41
1
 42
1
 43
1
 50
0
  0
TEXT
  5
281
100
AcDbEntity
  8
TEXT
100
AcDbText
 10
32481.2500
 20
5400
 30
0
 40
250
  1
DRESSING
100
AcDbText
  0
TEXT
  5
282
100
AcDbEntity
  8
TEXT
100
AcDbText
 10
25168.7500
 20
8531.2500
 30
0
 40
250
  1
FAMILY LOUNGE
100
AcDbText
  0
TEXT
  5
283
100
AcDbEntity
  8
TEXT
100
AcDbText
 10
29050
 20
8531.2500
 30
0
 40
250
  1
STAIR HALL
100
AcDbText
  0
TEXT
  5
284
100
AcDbEntity
  8
TEXT
100
AcDbText
 10
32481.2500
 20
8531.2500
 30
0
 40
250
  1
MASTER BEDROOM
100
AcDbText
  0
DIMENSION
  5
285
100
AcDbEntity
  8
DIM
100
AcDbDimension
  2
*D
 10
23400
 20
-1800
 30
0
 11
29100
 21
-1550
 31
0
 70
33
  1

 42
11400
100
AcDbAlignedDimension
 13
23400
 23
0
 33
0
 14
34800
 24
0
 34
0
  0
DIMENSION
  5
286
100
AcDbEntity
  8
DIM
100
AcDbDimension
  2
*D
 10
21600
 20
0
 30
0
 11
21850
 21
5250
 31
0
 70
33
  1

 42
10500
100
AcDbAlignedDimension
 13
23400
 23
0
 33
0
 14
23400
 24
10500
 34
0
  0
DIMENSION
  5
287
100
AcDbEntity
  8
DIM
100
AcDbDimension
  2
*D
 10
23400
 20
11700
 30
0
 11
25650
 21
11950
 31
0
 70
33
  1

 42
4500
100
AcDbAlignedDimension
 13
23400
 23
10500
 33
0
 14
27900
 24
10500
 34
0
  0
DIMENSION
  5
288
100
AcDbEntity
  8
DIM
100
AcDbDimension
  2
*D
 10
27900
 20
11700
 30
0
 11
29550
 21
11950
 31
0
 70
33
  1

 42
3300
100
AcDbAlignedDimension
 13
27900
 23
10500
 33
0
 14
31200
 24
10500
 34
0
  0
DIMENSION
  5
289
100
AcDbEntity
  8
DIM
100
AcDbDimension
  2
*D
 10
31200
 20
11700
 30
0
 11
33000
 21
11950
 31
0
 70
33
  1

 42
3600
100
AcDbAlignedDimension
 13
31200
 23
10500
 33
0
 14
34800
 24
10500
 34
0
  0
DIMENSION
  5
28A
100
AcDbEntity
  8
DIM
100
AcDbDimension
  2
*D
 10
36000
 20
0
 30
0
 11
36250
 21
2100
 31
0
 70
33
  1

 42
4200
100
AcDbAlignedDimension
 13
34800
 23
0
 33
0
 14
34800
 24
4200
 34
0
  0
DIMENSION
  5
28B
100
AcDbEntity
  8
DIM
100
AcDbDimension
  2
*D
 10
36000
 20
4200
 30
0
 11
36250
 21
5400
 31
0
 70
33
  1

 42
2400
100
AcDbAlignedDimension
 13
34800
 23
4200
 33
0
 14
34800
 24
6600
 34
0
  0
DIMENSION
  5
28C
100
AcDbEntity
  8
DIM
100
AcDbDimension
  2
*D
 10
36000
 20
6600
 30
0
 11
36250
 21
8550
 31
0
 70
33
  1

 42
3900
100
AcDbAlignedDimension
 13
34800
 23
6600
 33
0
 14
34800
 24
10500
 34
0
  0
TEXT
  5
28D
100
AcDbEntity
  8
TEXT
100
AcDbText
 10
23400
 20
-3200
 30
0
 40
450
  1
FIRST FLOOR PLAN
100
AcDbText
  0
TEXT
  5
28E
100
AcDbEntity
  8
TEXT
100
AcDbText
 10
37400
 20
5250
 30
0
 40
300
  1
+3450
100
AcDbText
  0
LINE
  5
28F
100
AcDbEntity
  8
WALL
100
AcDbLine
370
50
 10
46800
 20
0
 30
0
 11
58200
 21
0
 31
0
  0
LINE
  5
290
100
AcDbEntity
  8
WALL
100
AcDbLine
370
50
 10
58200
 20
0
 30
0
 11
58200
 21
7200
 31
0
  0
LINE
  5
291
100
AcDbEntity
  8
WALL
100
AcDbLine
370
50
 10
58200
 20
7200
 30
0
 11
46800
 21
7200
 31
0
  0
LINE
  5
292
100
AcDbEntity
  8
WALL
100
AcDbLine
370
50
 10
46800
 20
7200
 30
0
 11
46800
 21
0
 31
0
  0
LINE
  5
293
100
AcDbEntity
  8
WALL
100
AcDbLine
 10
46800
 20
0
 30
0
 11
58200
 21
0
 31
0
  0
TEXT
  5
294
100
AcDbEntity
  8
TEXT
100
AcDbText
 10
59100
 20
0
 30
0
 40
250
  1
+450 GROUND FLOOR LEVEL
100
AcDbText
  0
LWPOLYLINE
  5
295
100
AcDbEntity
  8
WIND
100
AcDbPolyline
 90
4
 70
1
 10
49050
 20
900
 10
50250
 20
900
 10
50250
 20
2100
 10
49050
 20
2100
  0
LWPOLYLINE
  5
296
100
AcDbEntity
  8
WIND
100
AcDbPolyline
 90
4
 70
1
 10
51900
 20
900
 10
53100
 20
900
 10
53100
 20
2100
 10
51900
 20
2100
  0
LWPOLYLINE
  5
297
100
AcDbEntity
  8
WIND
100
AcDbPolyline
 90
4
 70
1
 10
54750
 20
900
 10
55950
 20
900
 10
55950
 20
2100
 10
54750
 20
2100
  0
LINE
  5
298
100
AcDbEntity
  8
WALL
100
AcDbLine
 10
46800
 20
3000
 30
0
 11
58200
 21
3000
 31
0
  0
TEXT
  5
299
100
AcDbEntity
  8
TEXT
100
AcDbText
 10
59100
 20
3000
 30
0
 40
250
  1
+3450 FIRST FLOOR SLAB
100
AcDbText
  0
LWPOLYLINE
  5
29A
100
AcDbEntity
  8
WIND
100
AcDbPolyline
 90
4
 70
1
 10
49050
 20
3900
 10
50250
 20
3900
 10
50250
 20
5100
 10
49050
 20
5100
  0
LWPOLYLINE
  5
29B
100
AcDbEntity
  8
WIND
100
AcDbPolyline
 90
4
 70
1
 10
51900
 20
3900
 10
53100
 20
3900
 10
53100
 20
5100
 10
51900
 20
5100
  0
LWPOLYLINE
  5
29C
100
AcDbEntity
  8
WIND
100
AcDbPolyline
 90
4
 70
1
 10
54750
 20
3900
 10
55950
 20
3900
 10
55950
 20
5100
 10
54750
 20
5100
  0
LINE
  5
29D
100
AcDbEntity
  8
WALL
100
AcDbLine
 10
46800
 20
6000
 30
0
 11
58200
 21
6000
 31
0
  0
TEXT
  5
29E
100
AcDbEntity
  8
TEXT
100
AcDbText
 10
59100
 20
6000
 30
0
 40
250
  1
+6450 ROOF LEVEL
100
AcDbText
  0
TEXT
  5
29F
100
AcDbEntity
  8
TEXT
100
AcDbText
 10
46800
 20
-3200
 30
0
 40
450
  1
NORTH ELEVATION
100
AcDbText
  0
LINE
  5
2A0
100
AcDbEntity
  8
WALL
100
AcDbLine
370
50
 10
70200
 20
0
 30
0
 11
80700
 21
0
 31
0
  0
LINE
  5
2A1
100
AcDbEntity
  8
WALL
100
AcDbLine
370
50
 10
80700
 20
0
 30
0
 11
80700
 21
7200
 31
0
  0
LINE
  5
2A2
100
AcDbEntity
  8
WALL
100
AcDbLine
370
50
 10
80700
 20
7200
 30
0
 11
70200
 21
7200
 31
0
  0
LINE
  5
2A3
100
AcDbEntity
  8
WALL
100
AcDbLine
370
50
 10
70200
 20
7200
 30
0
 11
70200
 21
0
 31
0
  0
LINE
  5
2A4
100
AcDbEntity
  8
WALL
100
AcDbLine
370
50
 10
70200
 20
0
 30
0
 11
80700
 21
0
 31
0
  0
LINE
  5
2A5
100
AcDbEntity
  8
WALL
100
AcDbLine
370
50
 10
70200
 20
150
 30
0
 11
80700
 21
150
 31
0
  0
TEXT
  5
2A6
100
AcDbEntity
  8
TEXT
100
AcDbText
 10
81600
 20
0
 30
0
 40
250
  1
+450 GROUND FLOOR LEVEL
100
AcDbText
  0
LINE
  5
2A7
100
AcDbEntity
  8
WALL
100
AcDbLine
370
50
 10
70200
 20
3000
 30
0
 11
80700
 21
3000
 31
0
  0
LINE
  5
2A8
100
AcDbEntity
  8
WALL
100
AcDbLine
370
50
 10
70200
 20
3150
 30
0
 11
80700
 21
3150
 31
0
  0
TEXT
  5
2A9
100
AcDbEntity
  8
TEXT
100
AcDbText
 10
81600
 20
3000
 30
0
 40
250
  1
+3450 FIRST FLOOR SLAB
100
AcDbText
  0
LINE
  5
2AA
100
AcDbEntity
  8
WALL
100
AcDbLine
370
50
 10
70200
 20
6000
 30
0
 11
80700
 21
6000
 31
0
  0
LINE
  5
2AB
100
AcDbEntity
  8
WALL
100
AcDbLine
370
50
 10
70200
 20
6150
 30
0
 11
80700
 21
6150
 31
0
  0
TEXT
  5
2AC
100
AcDbEntity
  8
TEXT
100
AcDbText
 10
81600
 20
6000
 30
0
 40
250
  1
+6450 ROOF LEVEL
100
AcDbText
  0
TEXT
  5
2AD
100
AcDbEntity
  8
TEXT
100
AcDbText
 10
71200
 20
1500
 30
0
 40
220
  1
19 NOS RISERS OF 158MM EACH AND TREADS OF 275MM
100
AcDbText
  0
TEXT
  5
2AE
100
AcDbEntity
  8
TEXT
100
AcDbText
 10
70200
 20
-3200
 30
0
 40
450
  1
SECTION A-A
100
AcDbText
  0
ENDSEC
  0
EOF
