  0
SECTION
  2
HEADER
  9
$ACADVER
  1
AC1015
  9
$INSUNITS
 70
1
  9
$MEASUREMENT
 70
1
  9
$HANDSEED
  5
FFFF
  0
ENDSEC
  0
SECTION
  2
TABLES
  0
TABLE
  2
LTYPE
  5
5D0
100
AcDbSymbolTable
 70
1
  0
LTYPE
  5
5D1
330
5D0
100
AcDbSymbolTableRecord
100
AcDbLinetypeTableRecord
  2
CONTINUOUS
 70
0
  3
Solid line
 72
65
 73
0
 40
0
  0
ENDTAB
  0
TABLE
  2
LAYER
  5
5D2
100
AcDbSymbolTable
 70
8
  0
LAYER
  5
5D3
330
5D2
100
AcDbSymbolTableRecord
100
AcDbLayerTableRecord
  2
0
 70
0
 62
1
  6
CONTINUOUS
  0
LAYER
  5
5D4
330
5D2
100
AcDbSymbolTableRecord
100
AcDbLayerTableRecord
  2
WIND
 70
0
 62
2
  6
CONTINUOUS
  0
LAYER
  5
5D5
330
5D2
100
AcDbSymbolTableRecord
100
AcDbLayerTableRecord
  2
DOOR
 70
0
 62
3
  6
CONTINUOUS
  0
LAYER
  5
5D6
330
5D2
100
AcDbSymbolTableRecord
100
AcDbLayerTableRecord
  2
WALL
 70
0
 62
4
  6
CONTINUOUS
  0
LAYER
  5
5D7
330
5D2
100
AcDbSymbolTableRecord
100
AcDbLayerTableRecord
  2
COLUMN
 70
0
 62
5
  6
CONTINUOUS
  0
LAYER
  5
5D8
330
5D2
100
AcDbSymbolTableRecord
100
AcDbLayerTableRecord
  2
TEXT
 70
0
 62
6
  6
CONTINUOUS
  0
LAYER
  5
5D9
330
5D2
100
AcDbSymbolTableRecord
100
AcDbLayerTableRecord
  2
SANITARY
 70
0
 62
7
  6
CONTINUOUS
  0
LAYER
  5
5DA
330
5D2
100
AcDbSymbolTableRecord
100
AcDbLayerTableRecord
  2
DIM
 70
0
 62
1
  6
CONTINUOUS
  0
ENDTAB
  0
TABLE
  2
BLOCK_RECORD
  5
5DB
100
AcDbSymbolTable
 70
2
  0
BLOCK_RECORD
  5
5DC
330
5DB
100
AcDbSymbolTableRecord
100
AcDbBlockTableRecord
  2
*Model_Space
  0
BLOCK_RECORD
  5
5DD
330
5DB
100
AcDbSymbolTableRecord
100
AcDbBlockTableRecord
  2
*Paper_Space
  0
ENDTAB
  0
ENDSEC
  0
SECTION
  2
BLOCKS
  0
ENDSEC
  0
SECTION
  2
ENTITIES
  0
LWPOLYLINE
  5
100
100
AcDbEntity
  8
WIND
100
AcDbPolyline
 90
4
 70
1
 10
-2.3622
 20
94.4882
 10
2.3622
 20
94.4882
 10
2.3622
 20
141.7323
 10
-2.3622
 20
141.7323
  0
LWPOLYLINE
  5
101
100
AcDbEntity
  8
WIND
100
AcDbPolyline
 90
4
 70
1
 10
-2.3622
 20
330.7087
 10
2.3622
 20
330.7087
 10
2.3622
 20
377.9528
 10
-2.3622
 20
377.9528
  0
LWPOLYLINE
  5
102
100
AcDbEntity
  8
WIND
100
AcDbPolyline
 90
4
 70
1
 10
-2.3622
 20
566.9291
 10
2.3622
 20
566.9291
 10
2.3622
 20
614.1732
 10
-2.3622
 20
614.1732
  0
LWPOLYLINE
  5
103
100
AcDbEntity
  8
WIND
100
AcDbPolyline
 90
4
 70
1
 10
-2.3622
 20
803.1496
 10
2.3622
 20
803.1496
 10
2.3622
 20
850.3937
 10
-2.3622
 20
850.3937
  0
LWPOLYLINE
  5
104
100
AcDbEntity
  8
WIND
100
AcDbPolyline
 90
4
 70
1
 10
-2.3622
 20
1039.3701
 10
2.3622
 20
1039.3701
 10
2.3622
 20
1086.6142
 10
-2.3622
 20
1086.6142
  0
LWPOLYLINE
  5
105
100
AcDbEntity
  8
WIND
100
AcDbPolyline
 90
4
 70
1
 10
1178.7402
 20
94.4882
 10
1183.4646
 20
94.4882
 10
1183.4646
 20
141.7323
 10
1178.7402
 20
141.7323
  0
LWPOLYLINE
  5
106
100
AcDbEntity
  8
WIND
100
AcDbPolyline
 90
4
 70
1
 10
1178.7402
 20
330.7087
 10
1183.4646
 20
330.7087
 10
1183.4646
 20
377.9528
 10
1178.7402
 20
377.9528
  0
LWPOLYLINE
  5
107
100
AcDbEntity
  8
WIND
100
AcDbPolyline
 90
4
 70
1
 10
1178.7402
 20
566.9291
 10
1183.4646
 20
566.9291
 10
1183.4646
 20
614.1732
 10
1178.7402
 20
614.1732
  0
LWPOLYLINE
  5
108
100
AcDbEntity
  8
WIND
100
AcDbPolyline
 90
4
 70
1
 10
1178.7402
 20
803.1496
 10
1183.4646
 20
803.1496
 10
1183.4646
 20
850.3937
 10
1178.7402
 20
850.3937
  0
LWPOLYLINE
  5
109
100
AcDbEntity
  8
WIND
100
AcDbPolyline
 90
4
 70
1
 10
1178.7402
 20
1039.3701
 10
1183.4646
 20
1039.3701
 10
1183.4646
 20
1086.6142
 10
1178.7402
 20
1086.6142
  0
LWPOLYLINE
  5
10A
100
AcDbEntity
  8
WIND
100
AcDbPolyline
 90
4
 70
1
 10
94.4882
 20
-2.3622
 10
141.7323
 20
-2.3622
 10
141.7323
 20
2.3622
 10
94.4882
 20
2.3622
  0
LWPOLYLINE
  5
10B
100
AcDbEntity
  8
WIND
100
AcDbPolyline
 90
4
 70
1
 10
330.7087
 20
-2.3622
 10
377.9528
 20
-2.3622
 10
377.9528
 20
2.3622
 10
330.7087
 20
2.3622
  0
LWPOLYLINE
  5
10C
100
AcDbEntity
  8
WIND
100
AcDbPolyline
 90
4
 70
1
 10
566.9291
 20
-2.3622
 10
614.1732
 20
-2.3622
 10
614.1732
 20
2.3622
 10
566.9291
 20
2.3622
  0
LWPOLYLINE
  5
10D
100
AcDbEntity
  8
WIND
100
AcDbPolyline
 90
4
 70
1
 10
803.1496
 20
-2.3622
 10
850.3937
 20
-2.3622
 10
850.3937
 20
2.3622
 10
803.1496
 20
2.3622
  0
LWPOLYLINE
  5
10E
100
AcDbEntity
  8
WIND
100
AcDbPolyline
 90
4
 70
1
 10
1039.3701
 20
-2.3622
 10
1086.6142
 20
-2.3622
 10
1086.6142
 20
2.3622
 10
1039.3701
 20
2.3622
  0
LWPOLYLINE
  5
10F
100
AcDbEntity
  8
WIND
100
AcDbPolyline
 90
4
 70
1
 10
94.4882
 20
1178.7402
 10
141.7323
 20
1178.7402
 10
141.7323
 20
1183.4646
 10
94.4882
 20
1183.4646
  0
LWPOLYLINE
  5
110
100
AcDbEntity
  8
WIND
100
AcDbPolyline
 90
4
 70
1
 10
330.7087
 20
1178.7402
 10
377.9528
 20
1178.7402
 10
377.9528
 20
1183.4646
 10
330.7087
 20
1183.4646
  0
LWPOLYLINE
  5
111
100
AcDbEntity
  8
WIND
100
AcDbPolyline
 90
4
 70
1
 10
566.9291
 20
1178.7402
 10
614.1732
 20
1178.7402
 10
614.1732
 20
1183.4646
 10
566.9291
 20
1183.4646
  0
LWPOLYLINE
  5
112
100
AcDbEntity
  8
WIND
100
AcDbPolyline
 90
4
 70
1
 10
803.1496
 20
1178.7402
 10
850.3937
 20
1178.7402
 10
850.3937
 20
1183.4646
 10
803.1496
 20
1183.4646
  0
LWPOLYLINE
  5
113
100
AcDbEntity
  8
WIND
100
AcDbPolyline
 90
4
 70
1
 10
1039.3701
 20
1178.7402
 10
1086.6142
 20
1178.7402
 10
1086.6142
 20
1183.4646
 10
1039.3701
 20
1183.4646
  0
ARC
  5
114
100
AcDbEntity
  8
DOOR
100
AcDbCircle
 10
236.2205
 20
336.6142
 30
0
 40
35.4331
100
AcDbArc
 50
90
 51
180
  0
LINE
  5
115
100
AcDbEntity
  8
DOOR
100
AcDbLine
 10
236.2205
 20
336.6142
 30
0
 11
200.7874
 21
336.6142
 31
0
  0
ARC
  5
116
100
AcDbEntity
  8
DOOR
100
AcDbCircle
 10
236.2205
 20
572.8346
 30
0
 40
35.4331
100
AcDbArc
 50
90
 51
180
  0
LINE
  5
117
100
AcDbEntity
  8
DOOR
100
AcDbLine
 10
236.2205
 20
572.8346
 30
0
 11
200.7874
 21
572.8346
 31
0
  0
ARC
  5
118
100
AcDbEntity
  8
DOOR
100
AcDbCircle
 10
236.2205
 20
809.0551
 30
0
 40
35.4331
100
AcDbArc
 50
90
 51
180
  0
LINE
  5
119
100
AcDbEntity
  8
DOOR
100
AcDbLine
 10
236.2205
 20
809.0551
 30
0
 11
200.7874
 21
809.0551
 31
0
  0
ARC
  5
11A
100
AcDbEntity
  8
DOOR
100
AcDbCircle
 10
236.2205
 20
1045.2756
 30
0
 40
35.4331
100
AcDbArc
 50
90
 51
180
  0
LINE
  5
11B
100
AcDbEntity
  8
DOOR
100
AcDbLine
 10
236.2205
 20
1045.2756
 30
0
 11
200.7874
 21
1045.2756
 31
0
  0
ARC
  5
11C
100
AcDbEntity
  8
DOOR
100
AcDbCircle
 10
472.4409
 20
100.3937
 30
0
 40
35.4331
100
AcDbArc
 50
90
 51
180
  0
LINE
  5
11D
100
AcDbEntity
  8
DOOR
100
AcDbLine
 10
472.4409
 20
100.3937
 30
0
 11
437.0079
 21
100.3937
 31
0
  0
ARC
  5
11E
100
AcDbEntity
  8
DOOR
100
AcDbCircle
 10
472.4409
 20
336.6142
 30
0
 40
35.4331
100
AcDbArc
 50
90
 51
180
  0
LINE
  5
11F
100
AcDbEntity
  8
DOOR
100
AcDbLine
 10
472.4409
 20
336.6142
 30
0
 11
437.0079
 21
336.6142
 31
0
  0
ARC
  5
120
100
AcDbEntity
  8
DOOR
100
AcDbCircle
 10
472.4409
 20
809.0551
 30
0
 40
35.4331
100
AcDbArc
 50
90
 51
180
  0
LINE
  5
121
100
AcDbEntity
  8
DOOR
100
AcDbLine
 10
472.4409
 20
809.0551
 30
0
 11
437.0079
 21
809.0551
 31
0
  0
ARC
  5
122
100
AcDbEntity
  8
DOOR
100
AcDbCircle
 10
472.4409
 20
1045.2756
 30
0
 40
35.4331
100
AcDbArc
 50
90
 51
180
  0
LINE
  5
123
100
AcDbEntity
  8
DOOR
100
AcDbLine
 10
472.4409
 20
1045.2756
 30
0
 11
437.0079
 21
1045.2756
 31
0
  0
ARC
  5
124
100
AcDbEntity
  8
DOOR
100
AcDbCircle
 10
708.6614
 20
100.3937
 30
0
 40
35.4331
100
AcDbArc
 50
90
 51
180
  0
LINE
  5
125
100
AcDbEntity
  8
DOOR
100
AcDbLine
 10
708.6614
 20
100.3937
 30
0
 11
673.2283
 21
100.3937
 31
0
  0
ARC
  5
126
100
AcDbEntity
  8
DOOR
100
AcDbCircle
 10
708.6614
 20
336.6142
 30
0
 40
35.4331
100
AcDbArc
 50
90
 51
180
  0
LINE
  5
127
100
AcDbEntity
  8
DOOR
100
AcDbLine
 10
708.6614
 20
336.6142
 30
0
 11
673.2283
 21
336.6142
 31
0
  0
ARC
  5
128
100
AcDbEntity
  8
DOOR
100
AcDbCircle
 10
708.6614
 20
572.8346
 30
0
 40
35.4331
100
AcDbArc
 50
90
 51
180
  0
LINE
  5
129
100
AcDbEntity
  8
DOOR
100
AcDbLine
 10
708.6614
 20
572.8346
 30
0
 11
673.2283
 21
572.8346
 31
0
  0
ARC
  5
12A
100
AcDbEntity
  8
DOOR
100
AcDbCircle
 10
708.6614
 20
809.0551
 30
0
 40
35.4331
100
AcDbArc
 50
90
 51
180
  0
LINE
  5
12B
100
AcDbEntity
  8
DOOR
100
AcDbLine
 10
708.6614
 20
809.0551
 30
0
 11
673.2283
 21
809.0551
 31
0
  0
ARC
  5
12C
100
AcDbEntity
  8
DOOR
100
AcDbCircle
 10
708.6614
 20
1045.2756
 30
0
 40
35.4331
100
AcDbArc
 50
90
 51
180
  0
LINE
  5
12D
100
AcDbEntity
  8
DOOR
100
AcDbLine
 10
708.6614
 20
1045.2756
 30
0
 11
673.2283
 21
1045.2756
 31
0
  0
ARC
  5
12E
100
AcDbEntity
  8
DOOR
100
AcDbCircle
 10
944.8819
 20
100.3937
 30
0
 40
35.4331
100
AcDbArc
 50
90
 51
180
  0
LINE
  5
12F
100
AcDbEntity
  8
DOOR
100
AcDbLine
 10
944.8819
 20
100.3937
 30
0
 11
909.4488
 21
100.3937
 31
0
  0
ARC
  5
130
100
AcDbEntity
  8
DOOR
100
AcDbCircle
 10
944.8819
 20
336.6142
 30
0
 40
35.4331
100
AcDbArc
 50
90
 51
180
  0
LINE
  5
131
100
AcDbEntity
  8
DOOR
100
AcDbLine
 10
944.8819
 20
336.6142
 30
0
 11
909.4488
 21
336.6142
 31
0
  0
ARC
  5
132
100
AcDbEntity
  8
DOOR
100
AcDbCircle
 10
944.8819
 20
572.8346
 30
0
 40
35.4331
100
AcDbArc
 50
90
 51
180
  0
LINE
  5
133
100
AcDbEntity
  8
DOOR
100
AcDbLine
 10
944.8819
 20
572.8346
 30
0
 11
909.4488
 21
572.8346
 31
0
  0
ARC
  5
134
100
AcDbEntity
  8
DOOR
100
AcDbCircle
 10
944.8819
 20
809.0551
 30
0
 40
35.4331
100
AcDbArc
 50
90
 51
180
  0
LINE
  5
135
100
AcDbEntity
  8
DOOR
100
AcDbLine
 10
944.8819
 20
809.0551
 30
0
 11
909.4488
 21
809.0551
 31
0
  0
ARC
  5
136
100
AcDbEntity
  8
DOOR
100
AcDbCircle
 10
100.3937
 20
236.2205
 30
0
 40
35.4331
100
AcDbArc
 50
0
 51
90
  0
LINE
  5
137
100
AcDbEntity
  8
DOOR
100
AcDbLine
 10
100.3937
 20
236.2205
 30
0
 11
100.3937
 21
271.6535
 31
0
  0
ARC
  5
138
100
AcDbEntity
  8
DOOR
100
AcDbCircle
 10
336.6142
 20
236.2205
 30
0
 40
35.4331
100
AcDbArc
 50
0
 51
90
  0
LINE
  5
139
100
AcDbEntity
  8
DOOR
100
AcDbLine
 10
336.6142
 20
236.2205
 30
0
 11
336.6142
 21
271.6535
 31
0
  0
ARC
  5
13A
100
AcDbEntity
  8
DOOR
100
AcDbCircle
 10
572.8346
 20
236.2205
 30
0
 40
35.4331
100
AcDbArc
 50
0
 51
90
  0
LINE
  5
13B
100
AcDbEntity
  8
DOOR
100
AcDbLine
 10
572.8346
 20
236.2205
 30
0
 11
572.8346
 21
271.6535
 31
0
  0
ARC
  5
13C
100
AcDbEntity
  8
DOOR
100
AcDbCircle
 10
809.0551
 20
236.2205
 30
0
 40
35.4331
100
AcDbArc
 50
0
 51
90
  0
LINE
  5
13D
100
AcDbEntity
  8
DOOR
100
AcDbLine
 10
809.0551
 20
236.2205
 30
0
 11
809.0551
 21
271.6535
 31
0
  0
ARC
  5
13E
100
AcDbEntity
  8
DOOR
100
AcDbCircle
 10
100.3937
 20
472.4409
 30
0
 40
35.4331
100
AcDbArc
 50
0
 51
90
  0
LINE
  5
13F
100
AcDbEntity
  8
DOOR
100
AcDbLine
 10
100.3937
 20
472.4409
 30
0
 11
100.3937
 21
507.8740
 31
0
  0
ARC
  5
140
100
AcDbEntity
  8
DOOR
100
AcDbCircle
 10
336.6142
 20
472.4409
 30
0
 40
35.4331
100
AcDbArc
 50
0
 51
90
  0
LINE
  5
141
100
AcDbEntity
  8
DOOR
100
AcDbLine
 10
336.6142
 20
472.4409
 30
0
 11
336.6142
 21
507.8740
 31
0
  0
ARC
  5
142
100
AcDbEntity
  8
DOOR
100
AcDbCircle
 10
572.8346
 20
472.4409
 30
0
 40
35.4331
100
AcDbArc
 50
0
 51
90
  0
LINE
  5
143
100
AcDbEntity
  8
DOOR
100
AcDbLine
 10
572.8346
 20
472.4409
 30
0
 11
572.8346
 21
507.8740
 31
0
  0
ARC
  5
144
100
AcDbEntity
  8
DOOR
100
AcDbCircle
 10
809.0551
 20
472.4409
 30
0
 40
35.4331
100
AcDbArc
 50
0
 51
90
  0
LINE
  5
145
100
AcDbEntity
  8
DOOR
100
AcDbLine
 10
809.0551
 20
472.4409
 30
0
 11
809.0551
 21
507.8740
 31
0
  0
ARC
  5
146
100
AcDbEntity
  8
DOOR
100
AcDbCircle
 10
1045.2756
 20
472.4409
 30
0
 40
35.4331
100
AcDbArc
 50
0
 51
90
  0
LINE
  5
147
100
AcDbEntity
  8
DOOR
100
AcDbLine
 10
1045.2756
 20
472.4409
 30
0
 11
1045.2756
 21
507.8740
 31
0
  0
ARC
  5
148
100
AcDbEntity
  8
DOOR
100
AcDbCircle
 10
100.3937
 20
708.6614
 30
0
 40
35.4331
100
AcDbArc
 50
0
 51
90
  0
LINE
  5
149
100
AcDbEntity
  8
DOOR
100
AcDbLine
 10
100.3937
 20
708.6614
 30
0
 11
100.3937
 21
744.0945
 31
0
  0
ARC
  5
14A
100
AcDbEntity
  8
DOOR
100
AcDbCircle
 10
336.6142
 20
708.6614
 30
0
 40
35.4331
100
AcDbArc
 50
0
 51
90
  0
LINE
  5
14B
100
AcDbEntity
  8
DOOR
100
AcDbLine
 10
336.6142
 20
708.6614
 30
0
 11
336.6142
 21
744.0945
 31
0
  0
ARC
  5
14C
100
AcDbEntity
  8
DOOR
100
AcDbCircle
 10
572.8346
 20
708.6614
 30
0
 40
35.4331
100
AcDbArc
 50
0
 51
90
  0
LINE
  5
14D
100
AcDbEntity
  8
DOOR
100
AcDbLine
 10
572.8346
 20
708.6614
 30
0
 11
572.8346
 21
744.0945
 31
0
  0
ARC
  5
14E
100
AcDbEntity
  8
DOOR
100
AcDbCircle
 10
809.0551
 20
708.6614
 30
0
 40
35.4331
100
AcDbArc
 50
0
 51
90
  0
LINE
  5
14F
100
AcDbEntity
  8
DOOR
100
AcDbLine
 10
809.0551
 20
708.6614
 30
0
 11
809.0551
 21
744.0945
 31
0
  0
ARC
  5
150
100
AcDbEntity
  8
DOOR
100
AcDbCircle
 10
1045.2756
 20
708.6614
 30
0
 40
35.4331
100
AcDbArc
 50
0
 51
90
  0
LINE
  5
151
100
AcDbEntity
  8
DOOR
100
AcDbLine
 10
1045.2756
 20
708.6614
 30
0
 11
1045.2756
 21
744.0945
 31
0
  0
ARC
  5
152
100
AcDbEntity
  8
DOOR
100
AcDbCircle
 10
336.6142
 20
944.8819
 30
0
 40
35.4331
100
AcDbArc
 50
0
 51
90
  0
LINE
  5
153
100
AcDbEntity
  8
DOOR
100
AcDbLine
 10
336.6142
 20
944.8819
 30
0
 11
336.6142
 21
980.3150
 31
0
  0
ARC
  5
154
100
AcDbEntity
  8
DOOR
100
AcDbCircle
 10
572.8346
 20
944.8819
 30
0
 40
35.4331
100
AcDbArc
 50
0
 51
90
  0
LINE
  5
155
100
AcDbEntity
  8
DOOR
100
AcDbLine
 10
572.8346
 20
944.8819
 30
0
 11
572.8346
 21
980.3150
 31
0
  0
ARC
  5
156
100
AcDbEntity
  8
DOOR
100
AcDbCircle
 10
809.0551
 20
944.8819
 30
0
 40
35.4331
100
AcDbArc
 50
0
 51
90
  0
LINE
  5
157
100
AcDbEntity
  8
DOOR
100
AcDbLine
 10
809.0551
 20
944.8819
 30
0
 11
809.0551
 21
980.3150
 31
0
  0
ARC
  5
158
100
AcDbEntity
  8
DOOR
100
AcDbCircle
 10
1045.2756
 20
944.8819
 30
0
 40
35.4331
100
AcDbArc
 50
0
 51
90
  0
LINE
  5
159
100
AcDbEntity
  8
DOOR
100
AcDbLine
 10
1045.2756
 20
944.8819
 30
0
 11
1045.2756
 21
980.3150
 31
0
  0
LINE
  5
15A
100
AcDbEntity
  8
WALL
100
AcDbLine
370
50
 10
-5.9055
 20
0
 30
0
 11
-5.9055
 21
94.4882
 31
0
  0
LINE
  5
15B
100
AcDbEntity
  8
WALL
100
AcDbLine
370
50
 10
5.9055
 20
94.4882
 30
0
 11
5.9055
 21
0
 31
0
  0
LINE
  5
15C
100
AcDbEntity
  8
WALL
100
AcDbLine
370
50
 10
-5.9055
 20
141.7323
 30
0
 11
-5.9055
 21
236.2205
 31
0
  0
LINE
  5
15D
100
AcDbEntity
  8
WALL
100
AcDbLine
370
50
 10
5.9055
 20
236.2205
 30
0
 11
5.9055
 21
141.7323
 31
0
  0
LINE
  5
15E
100
AcDbEntity
  8
WALL
100
AcDbLine
370
50
 10
-5.9055
 20
94.4882
 30
0
 11
5.9055
 21
94.4882
 31
0
  0
LINE
  5
15F
100
AcDbEntity
  8
WALL
100
AcDbLine
370
50
 10
-5.9055
 20
141.7323
 30
0
 11
5.9055
 21
141.7323
 31
0
  0
LINE
  5
160
100
AcDbEntity
  8
WALL
100
AcDbLine
370
50
 10
-5.9055
 20
236.2205
 30
0
 11
-5.9055
 21
330.7087
 31
0
  0
LINE
  5
161
100
AcDbEntity
  8
WALL
100
AcDbLine
370
50
 10
5.9055
 20
330.7087
 30
0
 11
5.9055
 21
236.2205
 31
0
  0
LINE
  5
162
100
AcDbEntity
  8
WALL
100
AcDbLine
370
50
 10
-5.9055
 20
377.9528
 30
0
 11
-5.9055
 21
472.4409
 31
0
  0
LINE
  5
163
100
AcDbEntity
  8
WALL
100
AcDbLine
370
50
 10
5.9055
 20
472.4409
 30
0
 11
5.9055
 21
377.9528
 31
0
  0
LINE
  5
164
100
AcDbEntity
  8
WALL
100
AcDbLine
370
50
 10
-5.9055
 20
330.7087
 30
0
 11
5.9055
 21
330.7087
 31
0
  0
LINE
  5
165
100
AcDbEntity
  8
WALL
100
AcDbLine
370
50
 10
-5.9055
 20
377.9528
 30
0
 11
5.9055
 21
377.9528
 31
0
  0
LINE
  5
166
100
AcDbEntity
  8
WALL
100
AcDbLine
370
50
 10
-5.9055
 20
472.4409
 30
0
 11
-5.9055
 21
566.9291
 31
0
  0
LINE
  5
167
100
AcDbEntity
  8
WALL
100
AcDbLine
370
50
 10
5.9055
 20
566.9291
 30
0
 11
5.9055
 21
472.4409
 31
0
  0
LINE
  5
168
100
AcDbEntity
  8
WALL
100
AcDbLine
370
50
 10
-5.9055
 20
614.1732
 30
0
 11
-5.9055
 21
708.6614
 31
0
  0
LINE
  5
169
100
AcDbEntity
  8
WALL
100
AcDbLine
370
50
 10
5.9055
 20
708.6614
 30
0
 11
5.9055
 21
614.1732
 31
0
  0
LINE
  5
16A
100
AcDbEntity
  8
WALL
100
AcDbLine
370
50
 10
-5.9055
 20
566.9291
 30
0
 11
5.9055
 21
566.9291
 31
0
  0
LINE
  5
16B
100
AcDbEntity
  8
WALL
100
AcDbLine
370
50
 10
-5.9055
 20
614.1732
 30
0
 11
5.9055
 21
614.1732
 31
0
  0
LINE
  5
16C
100
AcDbEntity
  8
WALL
100
AcDbLine
370
50
 10
-5.9055
 20
708.6614
 30
0
 11
-5.9055
 21
803.1496
 31
0
  0
LINE
  5
16D
100
AcDbEntity
  8
WALL
100
AcDbLine
370
50
 10
5.9055
 20
803.1496
 30
0
 11
5.9055
 21
708.6614
 31
0
  0
LINE
  5
16E
100
AcDbEntity
  8
WALL
100
AcDbLine
370
50
 10
-5.9055
 20
850.3937
 30
0
 11
-5.9055
 21
944.8819
 31
0
  0
LINE
  5
16F
100
AcDbEntity
  8
WALL
100
AcDbLine
370
50
 10
5.9055
 20
944.8819
 30
0
 11
5.9055
 21
850.3937
 31
0
  0
LINE
  5
170
100
AcDbEntity
  8
WALL
100
AcDbLine
370
50
 10
-5.9055
 20
803.1496
 30
0
 11
5.9055
 21
803.1496
 31
0
  0
LINE
  5
171
100
AcDbEntity
  8
WALL
100
AcDbLine
370
50
 10
-5.9055
 20
850.3937
 30
0
 11
5.9055
 21
850.3937
 31
0
  0
LINE
  5
172
100
AcDbEntity
  8
WALL
100
AcDbLine
370
50
 10
-5.9055
 20
944.8819
 30
0
 11
-5.9055
 21
1039.3701
 31
0
  0
LINE
  5
173
100
AcDbEntity
  8
WALL
100
AcDbLine
370
50
 10
5.9055
 20
1039.3701
 30
0
 11
5.9055
 21
944.8819
 31
0
  0
LINE
  5
174
100
AcDbEntity
  8
WALL
100
AcDbLine
370
50
 10
-5.9055
 20
1086.6142
 30
0
 11
-5.9055
 21
1181.1024
 31
0
  0
LINE
  5
175
100
AcDbEntity
  8
WALL
100
AcDbLine
370
50
 10
5.9055
 20
1181.1024
 30
0
 11
5.9055
 21
1086.6142
 31
0
  0
LINE
  5
176
100
AcDbEntity
  8
WALL
100
AcDbLine
370
50
 10
-5.9055
 20
1039.3701
 30
0
 11
5.9055
 21
1039.3701
 31
0
  0
LINE
  5
177
100
AcDbEntity
  8
WALL
100
AcDbLine
370
50
 10
-5.9055
 20
1086.6142
 30
0
 11
5.9055
 21
1086.6142
 31
0
  0
LINE
  5
178
100
AcDbEntity
  8
WALL
100
AcDbLine
370
50
 10
1175.1969
 20
0
 30
0
 11
1175.1969
 21
94.4882
 31
0
  0
LINE
  5
179
100
AcDbEntity
  8
WALL
100
AcDbLine
370
50
 10
1187.0079
 20
94.4882
 30
0
 11
1187.0079
 21
0
 31
0
  0
LINE
  5
17A
100
AcDbEntity
  8
WALL
100
AcDbLine
370
50
 10
1175.1969
 20
141.7323
 30
0
 11
1175.1969
 21
236.2205
 31
0
  0
LINE
  5
17B
100
AcDbEntity
  8
WALL
100
AcDbLine
370
50
 10
1187.0079
 20
236.2205
 30
0
 11
1187.0079
 21
141.7323
 31
0
  0
LINE
  5
17C
100
AcDbEntity
  8
WALL
100
AcDbLine
370
50
 10
1175.1969
 20
94.4882
 30
0
 11
1187.0079
 21
94.4882
 31
0
  0
LINE
  5
17D
100
AcDbEntity
  8
WALL
100
AcDbLine
370
50
 10
1175.1969
 20
141.7323
 30
0
 11
1187.0079
 21
141.7323
 31
0
  0
LINE
  5
17E
100
AcDbEntity
  8
WALL
100
AcDbLine
370
50
 10
1175.1969
 20
236.2205
 30
0
 11
1175.1969
 21
330.7087
 31
0
  0
LINE
  5
17F
100
AcDbEntity
  8
WALL
100
AcDbLine
370
50
 10
1187.0079
 20
330.7087
 30
0
 11
1187.0079
 21
236.2205
 31
0
  0
LINE
  5
180
100
AcDbEntity
  8
WALL
100
AcDbLine
370
50
 10
1175.1969
 20
377.9528
 30
0
 11
1175.1969
 21
472.4409
 31
0
  0
LINE
  5
181
100
AcDbEntity
  8
WALL
100
AcDbLine
370
50
 10
1187.0079
 20
472.4409
 30
0
 11
1187.0079
 21
377.9528
 31
0
  0
LINE
  5
182
100
AcDbEntity
  8
WALL
100
AcDbLine
370
50
 10
1175.1969
 20
330.7087
 30
0
 11
1187.0079
 21
330.7087
 31
0
  0
LINE
  5
183
100
AcDbEntity
  8
WALL
100
AcDbLine
370
50
 10
1175.1969
 20
377.9528
 30
0
 11
1187.0079
 21
377.9528
 31
0
  0
LINE
  5
184
100
AcDbEntity
  8
WALL
100
AcDbLine
370
50
 10
1175.1969
 20
472.4409
 30
0
 11
1175.1969
 21
566.9291
 31
0
  0
LINE
  5
185
100
AcDbEntity
  8
WALL
100
AcDbLine
370
50
 10
1187.0079
 20
566.9291
 30
0
 11
1187.0079
 21
472.4409
 31
0
  0
LINE
  5
186
100
AcDbEntity
  8
WALL
100
AcDbLine
370
50
 10
1175.1969
 20
614.1732
 30
0
 11
1175.1969
 21
708.6614
 31
0
  0
LINE
  5
187
100
AcDbEntity
  8
WALL
100
AcDbLine
370
50
 10
1187.0079
 20
708.6614
 30
0
 11
1187.0079
 21
614.1732
 31
0
  0
LINE
  5
188
100
AcDbEntity
  8
WALL
100
AcDbLine
370
50
 10
1175.1969
 20
566.9291
 30
0
 11
1187.0079
 21
566.9291
 31
0
  0
LINE
  5
189
100
AcDbEntity
  8
WALL
100
AcDbLine
370
50
 10
1175.1969
 20
614.1732
 30
0
 11
1187.0079
 21
614.1732
 31
0
  0
LINE
  5
18A
100
AcDbEntity
  8
WALL
100
AcDbLine
370
50
 10
1175.1969
 20
708.6614
 30
0
 11
1175.1969
 21
803.1496
 31
0
  0
LINE
  5
18B
100
AcDbEntity
  8
WALL
100
AcDbLine
370
50
 10
1187.0079
 20
803.1496
 30
0
 11
1187.0079
 21
708.6614
 31
0
  0
LINE
  5
18C
100
AcDbEntity
  8
WALL
100
AcDbLine
370
50
 10
1175.1969
 20
850.3937
 30
0
 11
1175.1969
 21
944.8819
 31
0
  0
LINE
  5
18D
100
AcDbEntity
  8
WALL
100
AcDbLine
370
50
 10
1187.0079
 20
944.8819
 30
0
 11
1187.0079
 21
850.3937
 31
0
  0
LINE
  5
18E
100
AcDbEntity
  8
WALL
100
AcDbLine
370
50
 10
1175.1969
 20
803.1496
 30
0
 11
1187.0079
 21
803.1496
 31
0
  0
LINE
  5
18F
100
AcDbEntity
  8
WALL
100
AcDbLine
370
50
 10
1175.1969
 20
850.3937
 30
0
 11
1187.0079
 21
850.3937
 31
0
  0
LINE
  5
190
100
AcDbEntity
  8
WALL
100
AcDbLine
370
50
 10
1175.1969
 20
944.8819
 30
0
 11
1175.1969
 21
1039.3701
 31
0
  0
LINE
  5
191
100
AcDbEntity
  8
WALL
100
AcDbLine
370
50
 10
1187.0079
 20
1039.3701
 30
0
 11
1187.0079
 21
944.8819
 31
0
  0
LINE
  5
192
100
AcDbEntity
  8
WALL
100
AcDbLine
370
50
 10
1175.1969
 20
1086.6142
 30
0
 11
1175.1969
 21
1181.1024
 31
0
  0
LINE
  5
193
100
AcDbEntity
  8
WALL
100
AcDbLine
370
50
 10
1187.0079
 20
1181.1024
 30
0
 11
1187.0079
 21
1086.6142
 31
0
  0
LINE
  5
194
100
AcDbEntity
  8
WALL
100
AcDbLine
370
50
 10
1175.1969
 20
1039.3701
 30
0
 11
1187.0079
 21
1039.3701
 31
0
  0
LINE
  5
195
100
AcDbEntity
  8
WALL
100
AcDbLine
370
50
 10
1175.1969
 20
1086.6142
 30
0
 11
1187.0079
 21
1086.6142
 31
0
  0
LINE
  5
196
100
AcDbEntity
  8
WALL
100
AcDbLine
370
50
 10
0
 20
-5.9055
 30
0
 11
94.4882
 21
-5.9055
 31
0
  0
LINE
  5
197
100
AcDbEntity
  8
WALL
100
AcDbLine
370
50
 10
94.4882
 20
5.9055
 30
0
 11
0
 21
5.9055
 31
0
  0
LINE
  5
198
100
AcDbEntity
  8
WALL
100
AcDbLine
370
50
 10
141.7323
 20
-5.9055
 30
0
 11
236.2205
 21
-5.9055
 31
0
  0
LINE
  5
199
100
AcDbEntity
  8
WALL
100
AcDbLine
370
50
 10
236.2205
 20
5.9055
 30
0
 11
141.7323
 21
5.9055
 31
0
  0
LINE
  5
19A
100
AcDbEntity
  8
WALL
100
AcDbLine
370
50
 10
94.4882
 20
-5.9055
 30
0
 11
94.4882
 21
5.9055
 31
0
  0
LINE
  5
19B
100
AcDbEntity
  8
WALL
100
AcDbLine
370
50
 10
141.7323
 20
-5.9055
 30
0
 11
141.7323
 21
5.9055
 31
0
  0
LINE
  5
19C
100
AcDbEntity
  8
WALL
100
AcDbLine
370
50
 10
236.2205
 20
-5.9055
 30
0
 11
330.7087
 21
-5.9055
 31
0
  0
LINE
  5
19D
100
AcDbEntity
  8
WALL
100
AcDbLine
370
50
 10
330.7087
 20
5.9055
 30
0
 11
236.2205
 21
5.9055
 31
0
  0
LINE
  5
19E
100
AcDbEntity
  8
WALL
100
AcDbLine
370
50
 10
377.9528
 20
-5.9055
 30
0
 11
472.4409
 21
-5.9055
 31
0
  0
LINE
  5
19F
100
AcDbEntity
  8
WALL
100
AcDbLine
370
50
 10
472.4409
 20
5.9055
 30
0
 11
377.9528
 21
5.9055
 31
0
  0
LINE
  5
1A0
100
AcDbEntity
  8
WALL
100
AcDbLine
370
50
 10
330.7087
 20
-5.9055
 30
0
 11
330.7087
 21
5.9055
 31
0
  0
LINE
  5
1A1
100
AcDbEntity
  8
WALL
100
AcDbLine
370
50
 10
377.9528
 20
-5.9055
 30
0
 11
377.9528
 21
5.9055
 31
0
  0
LINE
  5
1A2
100
AcDbEntity
  8
WALL
100
AcDbLine
370
50
 10
472.4409
 20
-5.9055
 30
0
 11
566.9291
 21
-5.9055
 31
0
  0
LINE
  5
1A3
100
AcDbEntity
  8
WALL
100
AcDbLine
370
50
 10
566.9291
 20
5.9055
 30
0
 11
472.4409
 21
5.9055
 31
0
  0
LINE
  5
1A4
100
AcDbEntity
  8
WALL
100
AcDbLine
370
50
 10
614.1732
 20
-5.9055
 30
0
 11
708.6614
 21
-5.9055
 31
0
  0
LINE
  5
1A5
100
AcDbEntity
  8
WALL
100
AcDbLine
370
50
 10
708.6614
 20
5.9055
 30
0
 11
614.1732
 21
5.9055
 31
0
  0
LINE
  5
1A6
100
AcDbEntity
  8
WALL
100
AcDbLine
370
50
 10
566.9291
 20
-5.9055
 30
0
 11
566.9291
 21
5.9055
 31
0
  0
LINE
  5
1A7
100
AcDbEntity
  8
WALL
100
AcDbLine
370
50
 10
614.1732
 20
-5.9055
 30
0
 11
614.1732
 21
5.9055
 31
0
  0
LINE
  5
1A8
100
AcDbEntity
  8
WALL
100
AcDbLine
370
50
 10
708.6614
 20
-5.9055
 30
0
 11
803.1496
 21
-5.9055
 31
0
  0
LINE
  5
1A9
100
AcDbEntity
  8
WALL
100
AcDbLine
370
50
 10
803.1496
 20
5.9055
 30
0
 11
708.6614
 21
5.9055
 31
0
  0
LINE
  5
1AA
100
AcDbEntity
  8
WALL
100
AcDbLine
370
50
 10
850.3937
 20
-5.9055
 30
0
 11
944.8819
 21
-5.9055
 31
0
  0
LINE
  5
1AB
100
AcDbEntity
  8
WALL
100
AcDbLine
370
50
 10
944.8819
 20
5.9055
 30
0
 11
850.3937
 21
5.9055
 31
0
  0
LINE
  5
1AC
100
AcDbEntity
  8
WALL
100
AcDbLine
370
50
 10
803.1496
 20
-5.9055
 30
0
 11
803.1496
 21
5.9055
 31
0
  0
LINE
  5
1AD
100
AcDbEntity
  8
WALL
100
AcDbLine
370
50
 10
850.3937
 20
-5.9055
 30
0
 11
850.3937
 21
5.9055
 31
0
  0
LINE
  5
1AE
100
AcDbEntity
  8
WALL
100
AcDbLine
370
50
 10
944.8819
 20
-5.9055
 30
0
 11
1039.3701
 21
-5.9055
 31
0
  0
LINE
  5
1AF
100
AcDbEntity
  8
WALL
100
AcDbLine
370
50
 10
1039.3701
 20
5.9055
 30
0
 11
944.8819
 21
5.9055
 31
0
  0
LINE
  5
1B0
100
AcDbEntity
  8
WALL
100
AcDbLine
370
50
 10
1086.6142
 20
-5.9055
 30
0
 11
1181.1024
 21
-5.9055
 31
0
  0
LINE
  5
1B1
100
AcDbEntity
  8
WALL
100
AcDbLine
370
50
 10
1181.1024
 20
5.9055
 30
0
 11
1086.6142
 21
5.9055
 31
0
  0
LINE
  5
1B2
100
AcDbEntity
  8
WALL
100
AcDbLine
370
50
 10
1039.3701
 20
-5.9055
 30
0
 11
1039.3701
 21
5.9055
 31
0
  0
LINE
  5
1B3
100
AcDbEntity
  8
WALL
100
AcDbLine
370
50
 10
1086.6142
 20
-5.9055
 30
0
 11
1086.6142
 21
5.9055
 31
0
  0
LINE
  5
1B4
100
AcDbEntity
  8
WALL
100
AcDbLine
370
50
 10
0
 20
1175.1969
 30
0
 11
94.4882
 21
1175.1969
 31
0
  0
LINE
  5
1B5
100
AcDbEntity
  8
WALL
100
AcDbLine
370
50
 10
94.4882
 20
1187.0079
 30
0
 11
0
 21
1187.0079
 31
0
  0
LINE
  5
1B6
100
AcDbEntity
  8
WALL
100
AcDbLine
370
50
 10
141.7323
 20
1175.1969
 30
0
 11
236.2205
 21
1175.1969
 31
0
  0
LINE
  5
1B7
100
AcDbEntity
  8
WALL
100
AcDbLine
370
50
 10
236.2205
 20
1187.0079
 30
0
 11
141.7323
 21
1187.0079
 31
0
  0
LINE
  5
1B8
100
AcDbEntity
  8
WALL
100
AcDbLine
370
50
 10
94.4882
 20
1175.1969
 30
0
 11
94.4882
 21
1187.0079
 31
0
  0
LINE
  5
1B9
100
AcDbEntity
  8
WALL
100
AcDbLine
370
50
 10
141.7323
 20
1175.1969
 30
0
 11
141.7323
 21
1187.0079
 31
0
  0
LINE
  5
1BA
100
AcDbEntity
  8
WALL
100
AcDbLine
370
50
 10
236.2205
 20
1175.1969
 30
0
 11
330.7087
 21
1175.1969
 31
0
  0
LINE
  5
1BB
100
AcDbEntity
  8
WALL
100
AcDbLine
370
50
 10
330.7087
 20
1187.0079
 30
0
 11
236.2205
 21
1187.0079
 31
0
  0
LINE
  5
1BC
100
AcDbEntity
  8
WALL
100
AcDbLine
370
50
 10
377.9528
 20
1175.1969
 30
0
 11
472.4409
 21
1175.1969
 31
0
  0
LINE
  5
1BD
100
AcDbEntity
  8
WALL
100
AcDbLine
370
50
 10
472.4409
 20
1187.0079
 30
0
 11
377.9528
 21
1187.0079
 31
0
  0
LINE
  5
1BE
100
AcDbEntity
  8
WALL
100
AcDbLine
370
50
 10
330.7087
 20
1175.1969
 30
0
 11
330.7087
 21
1187.0079
 31
0
  0
LINE
  5
1BF
100
AcDbEntity
  8
WALL
100
AcDbLine
370
50
 10
377.9528
 20
1175.1969
 30
0
 11
377.9528
 21
1187.0079
 31
0
  0
LINE
  5
1C0
100
AcDbEntity
  8
WALL
100
AcDbLine
370
50
 10
472.4409
 20
1175.1969
 30
0
 11
566.9291
 21
1175.1969
 31
0
  0
LINE
  5
1C1
100
AcDbEntity
  8
WALL
100
AcDbLine
370
50
 10
566.9291
 20
1187.0079
 30
0
 11
472.4409
 21
1187.0079
 31
0
  0
LINE
  5
1C2
100
AcDbEntity
  8
WALL
100
AcDbLine
370
50
 10
614.1732
 20
1175.1969
 30
0
 11
708.6614
 21
1175.1969
 31
0
  0
LINE
  5
1C3
100
AcDbEntity
  8
WALL
100
AcDbLine
370
50
 10
708.6614
 20
1187.0079
 30
0
 11
614.1732
 21
1187.0079
 31
0
  0
LINE
  5
1C4
100
AcDbEntity
  8
WALL
100
AcDbLine
370
50
 10
566.9291
 20
1175.1969
 30
0
 11
566.9291
 21
1187.0079
 31
0
  0
LINE
  5
1C5
100
AcDbEntity
  8
WALL
100
AcDbLine
370
50
 10
614.1732
 20
1175.1969
 30
0
 11
614.1732
 21
1187.0079
 31
0
  0
LINE
  5
1C6
100
AcDbEntity
  8
WALL
100
AcDbLine
370
50
 10
708.6614
 20
1175.1969
 30
0
 11
803.1496
 21
1175.1969
 31
0
  0
LINE
  5
1C7
100
AcDbEntity
  8
WALL
100
AcDbLine
370
50
 10
803.1496
 20
1187.0079
 30
0
 11
708.6614
 21
1187.0079
 31
0
  0
LINE
  5
1C8
100
AcDbEntity
  8
WALL
100
AcDbLine
370
50
 10
850.3937
 20
1175.1969
 30
0
 11
944.8819
 21
1175.1969
 31
0
  0
LINE
  5
1C9
100
AcDbEntity
  8
WALL
100
AcDbLine
370
50
 10
944.8819
 20
1187.0079
 30
0
 11
850.3937
 21
1187.0079
 31
0
  0
LINE
  5
1CA
100
AcDbEntity
  8
WALL
100
AcDbLine
370
50
 10
803.1496
 20
1175.1969
 30
0
 11
803.1496
 21
1187.0079
 31
0
  0
LINE
  5
1CB
100
AcDbEntity
  8
WALL
100
AcDbLine
370
50
 10
850.3937
 20
1175.1969
 30
0
 11
850.3937
 21
1187.0079
 31
0
  0
LINE
  5
1CC
100
AcDbEntity
  8
WALL
100
AcDbLine
370
50
 10
944.8819
 20
1175.1969
 30
0
 11
1039.3701
 21
1175.1969
 31
0
  0
LINE
  5
1CD
100
AcDbEntity
  8
WALL
100
AcDbLine
370
50
 10
1039.3701
 20
1187.0079
 30
0
 11
944.8819
 21
1187.0079
 31
0
  0
LINE
  5
1CE
100
AcDbEntity
  8
WALL
100
AcDbLine
370
50
 10
1086.6142
 20
1175.1969
 30
0
 11
1181.1024
 21
1175.1969
 31
0
  0
LINE
  5
1CF
100
AcDbEntity
  8
WALL
100
AcDbLine
370
50
 10
1181.1024
 20
1187.0079
 30
0
 11
1086.6142
 21
1187.0079
 31
0
  0
LINE
  5
1D0
100
AcDbEntity
  8
WALL
100
AcDbLine
370
50
 10
1039.3701
 20
1175.1969
 30
0
 11
1039.3701
 21
1187.0079
 31
0
  0
LINE
  5
1D1
100
AcDbEntity
  8
WALL
100
AcDbLine
370
50
 10
1086.6142
 20
1175.1969
 30
0
 11
1086.6142
 21
1187.0079
 31
0
  0
LINE
  5
1D2
100
AcDbEntity
  8
WALL
100
AcDbLine
370
50
 10
233.2677
 20
0
 30
0
 11
233.2677
 21
236.2205
 31
0
  0
LINE
  5
1D3
100
AcDbEntity
  8
WALL
100
AcDbLine
370
50
 10
239.1732
 20
236.2205
 30
0
 11
239.1732
 21
0
 31
0
  0
LINE
  5
1D4
100
AcDbEntity
  8
WALL
100
AcDbLine
370
50
 10
233.2677
 20
236.2205
 30
0
 11
233.2677
 21
336.6142
 31
0
  0
LINE
  5
1D5
100
AcDbEntity
  8
WALL
100
AcDbLine
370
50
 10
239.1732
 20
336.6142
 30
0
 11
239.1732
 21
236.2205
 31
0
  0
LINE
  5
1D6
100
AcDbEntity
  8
WALL
100
AcDbLine
370
50
 10
233.2677
 20
372.0472
 30
0
 11
233.2677
 21
472.4409
 31
0
  0
LINE
  5
1D7
100
AcDbEntity
  8
WALL
100
AcDbLine
370
50
 10
239.1732
 20
472.4409
 30
0
 11
239.1732
 21
372.0472
 31
0
  0
LINE
  5
1D8
100
AcDbEntity
  8
WALL
100
AcDbLine
370
50
 10
233.2677
 20
336.6142
 30
0
 11
239.1732
 21
336.6142
 31
0
  0
LINE
  5
1D9
100
AcDbEntity
  8
WALL
100
AcDbLine
370
50
 10
233.2677
 20
372.0472
 30
0
 11
239.1732
 21
372.0472
 31
0
  0
LINE
  5
1DA
100
AcDbEntity
  8
WALL
100
AcDbLine
370
50
 10
233.2677
 20
472.4409
 30
0
 11
233.2677
 21
572.8346
 31
0
  0
LINE
  5
1DB
100
AcDbEntity
  8
WALL
100
AcDbLine
370
50
 10
239.1732
 20
572.8346
 30
0
 11
239.1732
 21
472.4409
 31
0
  0
LINE
  5
1DC
100
AcDbEntity
  8
WALL
100
AcDbLine
370
50
 10
233.2677
 20
608.2677
 30
0
 11
233.2677
 21
708.6614
 31
0
  0
LINE
  5
1DD
100
AcDbEntity
  8
WALL
100
AcDbLine
370
50
 10
239.1732
 20
708.6614
 30
0
 11
239.1732
 21
608.2677
 31
0
  0
LINE
  5
1DE
100
AcDbEntity
  8
WALL
100
AcDbLine
370
50
 10
233.2677
 20
572.8346
 30
0
 11
239.1732
 21
572.8346
 31
0
  0
LINE
  5
1DF
100
AcDbEntity
  8
WALL
100
AcDbLine
370
50
 10
233.2677
 20
608.2677
 30
0
 11
239.1732
 21
608.2677
 31
0
  0
LINE
  5
1E0
100
AcDbEntity
  8
WALL
100
AcDbLine
370
50
 10
233.2677
 20
708.6614
 30
0
 11
233.2677
 21
809.0551
 31
0
  0
LINE
  5
1E1
100
AcDbEntity
  8
WALL
100
AcDbLine
370
50
 10
239.1732
 20
809.0551
 30
0
 11
239.1732
 21
708.6614
 31
0
  0
LINE
  5
1E2
100
AcDbEntity
  8
WALL
100
AcDbLine
370
50
 10
233.2677
 20
844.4882
 30
0
 11
233.2677
 21
944.8819
 31
0
  0
LINE
  5
1E3
100
AcDbEntity
  8
WALL
100
AcDbLine
370
50
 10
239.1732
 20
944.8819
 30
0
 11
239.1732
 21
844.4882
 31
0
  0
LINE
  5
1E4
100
AcDbEntity
  8
WALL
100
AcDbLine
370
50
 10
233.2677
 20
809.0551
 30
0
 11
239.1732
 21
809.0551
 31
0
  0
LINE
  5
1E5
100
AcDbEntity
  8
WALL
100
AcDbLine
370
50
 10
233.2677
 20
844.4882
 30
0
 11
239.1732
 21
844.4882
 31
0
  0
LINE
  5
1E6
100
AcDbEntity
  8
WALL
100
AcDbLine
370
50
 10
233.2677
 20
944.8819
 30
0
 11
233.2677
 21
1045.2756
 31
0
  0
LINE
  5
1E7
100
AcDbEntity
  8
WALL
100
AcDbLine
370
50
 10
239.1732
 20
1045.2756
 30
0
 11
239.1732
 21
944.8819
 31
0
  0
LINE
  5
1E8
100
AcDbEntity
  8
WALL
100
AcDbLine
370
50
 10
233.2677
 20
1080.7087
 30
0
 11
233.2677
 21
1181.1024
 31
0
  0
LINE
  5
1E9
100
AcDbEntity
  8
WALL
100
AcDbLine
370
50
 10
239.1732
 20
1181.1024
 30
0
 11
239.1732
 21
1080.7087
 31
0
  0
LINE
  5
1EA
100
AcDbEntity
  8
WALL
100
AcDbLine
370
50
 10
233.2677
 20
1045.2756
 30
0
 11
239.1732
 21
1045.2756
 31
0
  0
LINE
  5
1EB
100
AcDbEntity
  8
WALL
100
AcDbLine
370
50
 10
233.2677
 20
1080.7087
 30
0
 11
239.1732
 21
1080.7087
 31
0
  0
LINE
  5
1EC
100
AcDbEntity
  8
WALL
100
AcDbLine
370
50
 10
469.4882
 20
0
 30
0
 11
469.4882
 21
100.3937
 31
0
  0
LINE
  5
1ED
100
AcDbEntity
  8
WALL
100
AcDbLine
370
50
 10
475.3937
 20
100.3937
 30
0
 11
475.3937
 21
0
 31
0
  0
LINE
  5
1EE
100
AcDbEntity
  8
WALL
100
AcDbLine
370
50
 10
469.4882
 20
135.8268
 30
0
 11
469.4882
 21
236.2205
 31
0
  0
LINE
  5
1EF
100
AcDbEntity
  8
WALL
100
AcDbLine
370
50
 10
475.3937
 20
236.2205
 30
0
 11
475.3937
 21
135.8268
 31
0
  0
LINE
  5
1F0
100
AcDbEntity
  8
WALL
100
AcDbLine
370
50
 10
469.4882
 20
100.3937
 30
0
 11
475.3937
 21
100.3937
 31
0
  0
LINE
  5
1F1
100
AcDbEntity
  8
WALL
100
AcDbLine
370
50
 10
469.4882
 20
135.8268
 30
0
 11
475.3937
 21
135.8268
 31
0
  0
LINE
  5
1F2
100
AcDbEntity
  8
WALL
100
AcDbLine
370
50
 10
469.4882
 20
236.2205
 30
0
 11
469.4882
 21
336.6142
 31
0
  0
LINE
  5
1F3
100
AcDbEntity
  8
WALL
100
AcDbLine
370
50
 10
475.3937
 20
336.6142
 30
0
 11
475.3937
 21
236.2205
 31
0
  0
LINE
  5
1F4
100
AcDbEntity
  8
WALL
100
AcDbLine
370
50
 10
469.4882
 20
372.0472
 30
0
 11
469.4882
 21
472.4409
 31
0
  0
LINE
  5
1F5
100
AcDbEntity
  8
WALL
100
AcDbLine
370
50
 10
475.3937
 20
472.4409
 30
0
 11
475.3937
 21
372.0472
 31
0
  0
LINE
  5
1F6
100
AcDbEntity
  8
WALL
100
AcDbLine
370
50
 10
469.4882
 20
336.6142
 30
0
 11
475.3937
 21
336.6142
 31
0
  0
LINE
  5
1F7
100
AcDbEntity
  8
WALL
100
AcDbLine
370
50
 10
469.4882
 20
372.0472
 30
0
 11
475.3937
 21
372.0472
 31
0
  0
LINE
  5
1F8
100
AcDbEntity
  8
WALL
100
AcDbLine
370
50
 10
469.4882
 20
472.4409
 30
0
 11
469.4882
 21
708.6614
 31
0
  0
LINE
  5
1F9
100
AcDbEntity
  8
WALL
100
AcDbLine
370
50
 10
475.3937
 20
708.6614
 30
0
 11
475.3937
 21
472.4409
 31
0
  0
LINE
  5
1FA
100
AcDbEntity
  8
WALL
100
AcDbLine
370
50
 10
469.4882
 20
708.6614
 30
0
 11
469.4882
 21
809.0551
 31
0
  0
LINE
  5
1FB
100
AcDbEntity
  8
WALL
100
AcDbLine
370
50
 10
475.3937
 20
809.0551
 30
0
 11
475.3937
 21
708.6614
 31
0
  0
LINE
  5
1FC
100
AcDbEntity
  8
WALL
100
AcDbLine
370
50
 10
469.4882
 20
844.4882
 30
0
 11
469.4882
 21
944.8819
 31
0
  0
LINE
  5
1FD
100
AcDbEntity
  8
WALL
100
AcDbLine
370
50
 10
475.3937
 20
944.8819
 30
0
 11
475.3937
 21
844.4882
 31
0
  0
LINE
  5
1FE
100
AcDbEntity
  8
WALL
100
AcDbLine
370
50
 10
469.4882
 20
809.0551
 30
0
 11
475.3937
 21
809.0551
 31
0
  0
LINE
  5
1FF
100
AcDbEntity
  8
WALL
100
AcDbLine
370
50
 10
469.4882
 20
844.4882
 30
0
 11
475.3937
 21
844.4882
 31
0
  0
LINE
  5
200
100
AcDbEntity
  8
WALL
100
AcDbLine
370
50
 10
469.4882
 20
944.8819
 30
0
 11
469.4882
 21
1045.2756
 31
0
  0
LINE
  5
201
100
AcDbEntity
  8
WALL
100
AcDbLine
370
50
 10
475.3937
 20
1045.2756
 30
0
 11
475.3937
 21
944.8819
 31
0
  0
LINE
  5
202
100
AcDbEntity
  8
WALL
100
AcDbLine
370
50
 10
469.4882
 20
1080.7087
 30
0
 11
469.4882
 21
1181.1024
 31
0
  0
LINE
  5
203
100
AcDbEntity
  8
WALL
100
AcDbLine
370
50
 10
475.3937
 20
1181.1024
 30
0
 11
475.3937
 21
1080.7087
 31
0
  0
LINE
  5
204
100
AcDbEntity
  8
WALL
100
AcDbLine
370
50
 10
469.4882
 20
1045.2756
 30
0
 11
475.3937
 21
1045.2756
 31
0
  0
LINE
  5
205
100
AcDbEntity
  8
WALL
100
AcDbLine
370
50
 10
469.4882
 20
1080.7087
 30
0
 11
475.3937
 21
1080.7087
 31
0
  0
LINE
  5
206
100
AcDbEntity
  8
WALL
100
AcDbLine
370
50
 10
705.7087
 20
0
 30
0
 11
705.7087
 21
100.3937
 31
0
  0
LINE
  5
207
100
AcDbEntity
  8
WALL
100
AcDbLine
370
50
 10
711.6142
 20
100.3937
 30
0
 11
711.6142
 21
0
 31
0
  0
LINE
  5
208
100
AcDbEntity
  8
WALL
100
AcDbLine
370
50
 10
705.7087
 20
135.8268
 30
0
 11
705.7087
 21
236.2205
 31
0
  0
LINE
  5
209
100
AcDbEntity
  8
WALL
100
AcDbLine
370
50
 10
711.6142
 20
236.2205
 30
0
 11
711.6142
 21
135.8268
 31
0
  0
LINE
  5
20A
100
AcDbEntity
  8
WALL
100
AcDbLine
370
50
 10
705.7087
 20
100.3937
 30
0
 11
711.6142
 21
100.3937
 31
0
  0
LINE
  5
20B
100
AcDbEntity
  8
WALL
100
AcDbLine
370
50
 10
705.7087
 20
135.8268
 30
0
 11
711.6142
 21
135.8268
 31
0
  0
LINE
  5
20C
100
AcDbEntity
  8
WALL
100
AcDbLine
370
50
 10
705.7087
 20
236.2205
 30
0
 11
705.7087
 21
336.6142
 31
0
  0
LINE
  5
20D
100
AcDbEntity
  8
WALL
100
AcDbLine
370
50
 10
711.6142
 20
336.6142
 30
0
 11
711.6142
 21
236.2205
 31
0
  0
LINE
  5
20E
100
AcDbEntity
  8
WALL
100
AcDbLine
370
50
 10
705.7087
 20
372.0472
 30
0
 11
705.7087
 21
472.4409
 31
0
  0
LINE
  5
20F
100
AcDbEntity
  8
WALL
100
AcDbLine
370
50
 10
711.6142
 20
472.4409
 30
0
 11
711.6142
 21
372.0472
 31
0
  0
LINE
  5
210
100
AcDbEntity
  8
WALL
100
AcDbLine
370
50
 10
705.7087
 20
336.6142
 30
0
 11
711.6142
 21
336.6142
 31
0
  0
LINE
  5
211
100
AcDbEntity
  8
WALL
100
AcDbLine
370
50
 10
705.7087
 20
372.0472
 30
0
 11
711.6142
 21
372.0472
 31
0
  0
LINE
  5
212
100
AcDbEntity
  8
WALL
100
AcDbLine
370
50
 10
705.7087
 20
472.4409
 30
0
 11
705.7087
 21
572.8346
 31
0
  0
LINE
  5
213
100
AcDbEntity
  8
WALL
100
AcDbLine
370
50
 10
711.6142
 20
572.8346
 30
0
 11
711.6142
 21
472.4409
 31
0
  0
LINE
  5
214
100
AcDbEntity
  8
WALL
100
AcDbLine
370
50
 10
705.7087
 20
608.2677
 30
0
 11
705.7087
 21
708.6614
 31
0
  0
LINE
  5
215
100
AcDbEntity
  8
WALL
100
AcDbLine
370
50
 10
711.6142
 20
708.6614
 30
0
 11
711.6142
 21
608.2677
 31
0
  0
LINE
  5
216
100
AcDbEntity
  8
WALL
100
AcDbLine
370
50
 10
705.7087
 20
572.8346
 30
0
 11
711.6142
 21
572.8346
 31
0
  0
LINE
  5
217
100
AcDbEntity
  8
WALL
100
AcDbLine
370
50
 10
705.7087
 20
608.2677
 30
0
 11
711.6142
 21
608.2677
 31
0
  0
LINE
  5
218
100
AcDbEntity
  8
WALL
100
AcDbLine
370
50
 10
705.7087
 20
708.6614
 30
0
 11
705.7087
 21
809.0551
 31
0
  0
LINE
  5
219
100
AcDbEntity
  8
WALL
100
AcDbLine
370
50
 10
711.6142
 20
809.0551
 30
0
 11
711.6142
 21
708.6614
 31
0
  0
LINE
  5
21A
100
AcDbEntity
  8
WALL
100
AcDbLine
370
50
 10
705.7087
 20
844.4882
 30
0
 11
705.7087
 21
944.8819
 31
0
  0
LINE
  5
21B
100
AcDbEntity
  8
WALL
100
AcDbLine
370
50
 10
711.6142
 20
944.8819
 30
0
 11
711.6142
 21
844.4882
 31
0
  0
LINE
  5
21C
100
AcDbEntity
  8
WALL
100
AcDbLine
370
50
 10
705.7087
 20
809.0551
 30
0
 11
711.6142
 21
809.0551
 31
0
  0
LINE
  5
21D
100
AcDbEntity
  8
WALL
100
AcDbLine
370
50
 10
705.7087
 20
844.4882
 30
0
 11
711.6142
 21
844.4882
 31
0
  0
LINE
  5
21E
100
AcDbEntity
  8
WALL
100
AcDbLine
370
50
 10
705.7087
 20
944.8819
 30
0
 11
705.7087
 21
1045.2756
 31
0
  0
LINE
  5
21F
100
AcDbEntity
  8
WALL
100
AcDbLine
370
50
 10
711.6142
 20
1045.2756
 30
0
 11
711.6142
 21
944.8819
 31
0
  0
LINE
  5
220
100
AcDbEntity
  8
WALL
100
AcDbLine
370
50
 10
705.7087
 20
1080.7087
 30
0
 11
705.7087
 21
1181.1024
 31
0
  0
LINE
  5
221
100
AcDbEntity
  8
WALL
100
AcDbLine
370
50
 10
711.6142
 20
1181.1024
 30
0
 11
711.6142
 21
1080.7087
 31
0
  0
LINE
  5
222
100
AcDbEntity
  8
WALL
100
AcDbLine
370
50
 10
705.7087
 20
1045.2756
 30
0
 11
711.6142
 21
1045.2756
 31
0
  0
LINE
  5
223
100
AcDbEntity
  8
WALL
100
AcDbLine
370
50
 10
705.7087
 20
1080.7087
 30
0
 11
711.6142
 21
1080.7087
 31
0
  0
LINE
  5
224
100
AcDbEntity
  8
WALL
100
AcDbLine
370
50
 10
941.9291
 20
0
 30
0
 11
941.9291
 21
100.3937
 31
0
  0
LINE
  5
225
100
AcDbEntity
  8
WALL
100
AcDbLine
370
50
 10
947.8346
 20
100.3937
 30
0
 11
947.8346
 21
0
 31
0
  0
LINE
  5
226
100
AcDbEntity
  8
WALL
100
AcDbLine
370
50
 10
941.9291
 20
135.8268
 30
0
 11
941.9291
 21
236.2205
 31
0
  0
LINE
  5
227
100
AcDbEntity
  8
WALL
100
AcDbLine
370
50
 10
947.8346
 20
236.2205
 30
0
 11
947.8346
 21
135.8268
 31
0
  0
LINE
  5
228
100
AcDbEntity
  8
WALL
100
AcDbLine
370
50
 10
941.9291
 20
100.3937
 30
0
 11
947.8346
 21
100.3937
 31
0
  0
LINE
  5
229
100
AcDbEntity
  8
WALL
100
AcDbLine
370
50
 10
941.9291
 20
135.8268
 30
0
 11
947.8346
 21
135.8268
 31
0
  0
LINE
  5
22A
100
AcDbEntity
  8
WALL
100
AcDbLine
370
50
 10
941.9291
 20
236.2205
 30
0
 11
941.9291
 21
336.6142
 31
0
  0
LINE
  5
22B
100
AcDbEntity
  8
WALL
100
AcDbLine
370
50
 10
947.8346
 20
336.6142
 30
0
 11
947.8346
 21
236.2205
 31
0
  0
LINE
  5
22C
100
AcDbEntity
  8
WALL
100
AcDbLine
370
50
 10
941.9291
 20
372.0472
 30
0
 11
941.9291
 21
472.4409
 31
0
  0
LINE
  5
22D
100
AcDbEntity
  8
WALL
100
AcDbLine
370
50
 10
947.8346
 20
472.4409
 30
0
 11
947.8346
 21
372.0472
 31
0
  0
LINE
  5
22E
100
AcDbEntity
  8
WALL
100
AcDbLine
370
50
 10
941.9291
 20
336.6142
 30
0
 11
947.8346
 21
336.6142
 31
0
  0
LINE
  5
22F
100
AcDbEntity
  8
WALL
100
AcDbLine
370
50
 10
941.9291
 20
372.0472
 30
0
 11
947.8346
 21
372.0472
 31
0
  0
LINE
  5
230
100
AcDbEntity
  8
WALL
100
AcDbLine
370
50
 10
941.9291
 20
472.4409
 30
0
 11
941.9291
 21
572.8346
 31
0
  0
LINE
  5
231
100
AcDbEntity
  8
WALL
100
AcDbLine
370
50
 10
947.8346
 20
572.8346
 30
0
 11
947.8346
 21
472.4409
 31
0
  0
LINE
  5
232
100
AcDbEntity
  8
WALL
100
AcDbLine
370
50
 10
941.9291
 20
608.2677
 30
0
 11
941.9291
 21
708.6614
 31
0
  0
LINE
  5
233
100
AcDbEntity
  8
WALL
100
AcDbLine
370
50
 10
947.8346
 20
708.6614
 30
0
 11
947.8346
 21
608.2677
 31
0
  0
LINE
  5
234
100
AcDbEntity
  8
WALL
100
AcDbLine
370
50
 10
941.9291
 20
572.8346
 30
0
 11
947.8346
 21
572.8346
 31
0
  0
LINE
  5
235
100
AcDbEntity
  8
WALL
100
AcDbLine
370
50
 10
941.9291
 20
608.2677
 30
0
 11
947.8346
 21
608.2677
 31
0
  0
LINE
  5
236
100
AcDbEntity
  8
WALL
100
AcDbLine
370
50
 10
941.9291
 20
708.6614
 30
0
 11
941.9291
 21
809.0551
 31
0
  0
LINE
  5
237
100
AcDbEntity
  8
WALL
100
AcDbLine
370
50
 10
947.8346
 20
809.0551
 30
0
 11
947.8346
 21
708.6614
 31
0
  0
LINE
  5
238
100
AcDbEntity
  8
WALL
100
AcDbLine
370
50
 10
941.9291
 20
844.4882
 30
0
 11
941.9291
 21
944.8819
 31
0
  0
LINE
  5
239
100
AcDbEntity
  8
WALL
100
AcDbLine
370
50
 10
947.8346
 20
944.8819
 30
0
 11
947.8346
 21
844.4882
 31
0
  0
LINE
  5
23A
100
AcDbEntity
  8
WALL
100
AcDbLine
370
50
 10
941.9291
 20
809.0551
 30
0
 11
947.8346
 21
809.0551
 31
0
  0
LINE
  5
23B
100
AcDbEntity
  8
WALL
100
AcDbLine
370
50
 10
941.9291
 20
844.4882
 30
0
 11
947.8346
 21
844.4882
 31
0
  0
LINE
  5
23C
100
AcDbEntity
  8
WALL
100
AcDbLine
370
50
 10
941.9291
 20
944.8819
 30
0
 11
941.9291
 21
1181.1024
 31
0
  0
LINE
  5
23D
100
AcDbEntity
  8
WALL
100
AcDbLine
370
50
 10
947.8346
 20
1181.1024
 30
0
 11
947.8346
 21
944.8819
 31
0
  0
LINE
  5
23E
100
AcDbEntity
  8
WALL
100
AcDbLine
370
50
 10
0
 20
233.2677
 30
0
 11
100.3937
 21
233.2677
 31
0
  0
LINE
  5
23F
100
AcDbEntity
  8
WALL
100
AcDbLine
370
50
 10
100.3937
 20
239.1732
 30
0
 11
0
 21
239.1732
 31
0
  0
LINE
  5
240
100
AcDbEntity
  8
WALL
100
AcDbLine
370
50
 10
135.8268
 20
233.2677
 30
0
 11
236.2205
 21
233.2677
 31
0
  0
LINE
  5
241
100
AcDbEntity
  8
WALL
100
AcDbLine
370
50
 10
236.2205
 20
239.1732
 30
0
 11
135.8268
 21
239.1732
 31
0
  0
LINE
  5
242
100
AcDbEntity
  8
WALL
100
AcDbLine
370
50
 10
100.3937
 20
233.2677
 30
0
 11
100.3937
 21
239.1732
 31
0
  0
LINE
  5
243
100
AcDbEntity
  8
WALL
100
AcDbLine
370
50
 10
135.8268
 20
233.2677
 30
0
 11
135.8268
 21
239.1732
 31
0
  0
LINE
  5
244
100
AcDbEntity
  8
WALL
100
AcDbLine
370
50
 10
236.2205
 20
233.2677
 30
0
 11
336.6142
 21
233.2677
 31
0
  0
LINE
  5
245
100
AcDbEntity
  8
WALL
100
AcDbLine
370
50
 10
336.6142
 20
239.1732
 30
0
 11
236.2205
 21
239.1732
 31
0
  0
LINE
  5
246
100
AcDbEntity
  8
WALL
100
AcDbLine
370
50
 10
372.0472
 20
233.2677
 30
0
 11
472.4409
 21
233.2677
 31
0
  0
LINE
  5
247
100
AcDbEntity
  8
WALL
100
AcDbLine
370
50
 10
472.4409
 20
239.1732
 30
0
 11
372.0472
 21
239.1732
 31
0
  0
LINE
  5
248
100
AcDbEntity
  8
WALL
100
AcDbLine
370
50
 10
336.6142
 20
233.2677
 30
0
 11
336.6142
 21
239.1732
 31
0
  0
LINE
  5
249
100
AcDbEntity
  8
WALL
100
AcDbLine
370
50
 10
372.0472
 20
233.2677
 30
0
 11
372.0472
 21
239.1732
 31
0
  0
LINE
  5
24A
100
AcDbEntity
  8
WALL
100
AcDbLine
370
50
 10
472.4409
 20
233.2677
 30
0
 11
572.8346
 21
233.2677
 31
0
  0
LINE
  5
24B
100
AcDbEntity
  8
WALL
100
AcDbLine
370
50
 10
572.8346
 20
239.1732
 30
0
 11
472.4409
 21
239.1732
 31
0
  0
LINE
  5
24C
100
AcDbEntity
  8
WALL
100
AcDbLine
370
50
 10
608.2677
 20
233.2677
 30
0
 11
708.6614
 21
233.2677
 31
0
  0
LINE
  5
24D
100
AcDbEntity
  8
WALL
100
AcDbLine
370
50
 10
708.6614
 20
239.1732
 30
0
 11
608.2677
 21
239.1732
 31
0
  0
LINE
  5
24E
100
AcDbEntity
  8
WALL
100
AcDbLine
370
50
 10
572.8346
 20
233.2677
 30
0
 11
572.8346
 21
239.1732
 31
0
  0
LINE
  5
24F
100
AcDbEntity
  8
WALL
100
AcDbLine
370
50
 10
608.2677
 20
233.2677
 30
0
 11
608.2677
 21
239.1732
 31
0
  0
LINE
  5
250
100
AcDbEntity
  8
WALL
100
AcDbLine
370
50
 10
708.6614
 20
233.2677
 30
0
 11
809.0551
 21
233.2677
 31
0
  0
LINE
  5
251
100
AcDbEntity
  8
WALL
100
AcDbLine
370
50
 10
809.0551
 20
239.1732
 30
0
 11
708.6614
 21
239.1732
 31
0
  0
LINE
  5
252
100
AcDbEntity
  8
WALL
100
AcDbLine
370
50
 10
844.4882
 20
233.2677
 30
0
 11
944.8819
 21
233.2677
 31
0
  0
LINE
  5
253
100
AcDbEntity
  8
WALL
100
AcDbLine
370
50
 10
944.8819
 20
239.1732
 30
0
 11
844.4882
 21
239.1732
 31
0
  0
LINE
  5
254
100
AcDbEntity
  8
WALL
100
AcDbLine
370
50
 10
809.0551
 20
233.2677
 30
0
 11
809.0551
 21
239.1732
 31
0
  0
LINE
  5
255
100
AcDbEntity
  8
WALL
100
AcDbLine
370
50
 10
844.4882
 20
233.2677
 30
0
 11
844.4882
 21
239.1732
 31
0
  0
LINE
  5
256
100
AcDbEntity
  8
WALL
100
AcDbLine
370
50
 10
944.8819
 20
233.2677
 30
0
 11
1181.1024
 21
233.2677
 31
0
  0
LINE
  5
257
100
AcDbEntity
  8
WALL
100
AcDbLine
370
50
 10
1181.1024
 20
239.1732
 30
0
 11
944.8819
 21
239.1732
 31
0
  0
LINE
  5
258
100
AcDbEntity
  8
WALL
100
AcDbLine
370
50
 10
0
 20
469.4882
 30
0
 11
100.3937
 21
469.4882
 31
0
  0
LINE
  5
259
100
AcDbEntity
  8
WALL
100
AcDbLine
370
50
 10
100.3937
 20
475.3937
 30
0
 11
0
 21
475.3937
 31
0
  0
LINE
  5
25A
100
AcDbEntity
  8
WALL
100
AcDbLine
370
50
 10
135.8268
 20
469.4882
 30
0
 11
236.2205
 21
469.4882
 31
0
  0
LINE
  5
25B
100
AcDbEntity
  8
WALL
100
AcDbLine
370
50
 10
236.2205
 20
475.3937
 30
0
 11
135.8268
 21
475.3937
 31
0
  0
LINE
  5
25C
100
AcDbEntity
  8
WALL
100
AcDbLine
370
50
 10
100.3937
 20
469.4882
 30
0
 11
100.3937
 21
475.3937
 31
0
  0
LINE
  5
25D
100
AcDbEntity
  8
WALL
100
AcDbLine
370
50
 10
135.8268
 20
469.4882
 30
0
 11
135.8268
 21
475.3937
 31
0
  0
LINE
  5
25E
100
AcDbEntity
  8
WALL
100
AcDbLine
370
50
 10
236.2205
 20
469.4882
 30
0
 11
336.6142
 21
469.4882
 31
0
  0
LINE
  5
25F
100
AcDbEntity
  8
WALL
100
AcDbLine
370
50
 10
336.6142
 20
475.3937
 30
0
 11
236.2205
 21
475.3937
 31
0
  0
LINE
  5
260
100
AcDbEntity
  8
WALL
100
AcDbLine
370
50
 10
372.0472
 20
469.4882
 30
0
 11
472.4409
 21
469.4882
 31
0
  0
LINE
  5
261
100
AcDbEntity
  8
WALL
100
AcDbLine
370
50
 10
472.4409
 20
475.3937
 30
0
 11
372.0472
 21
475.3937
 31
0
  0
LINE
  5
262
100
AcDbEntity
  8
WALL
100
AcDbLine
370
50
 10
336.6142
 20
469.4882
 30
0
 11
336.6142
 21
475.3937
 31
0
  0
LINE
  5
263
100
AcDbEntity
  8
WALL
100
AcDbLine
370
50
 10
372.0472
 20
469.4882
 30
0
 11
372.0472
 21
475.3937
 31
0
  0
LINE
  5
264
100
AcDbEntity
  8
WALL
100
AcDbLine
370
50
 10
472.4409
 20
469.4882
 30
0
 11
572.8346
 21
469.4882
 31
0
  0
LINE
  5
265
100
AcDbEntity
  8
WALL
100
AcDbLine
370
50
 10
572.8346
 20
475.3937
 30
0
 11
472.4409
 21
475.3937
 31
0
  0
LINE
  5
266
100
AcDbEntity
  8
WALL
100
AcDbLine
370
50
 10
608.2677
 20
469.4882
 30
0
 11
708.6614
 21
469.4882
 31
0
  0
LINE
  5
267
100
AcDbEntity
  8
WALL
100
AcDbLine
370
50
 10
708.6614
 20
475.3937
 30
0
 11
608.2677
 21
475.3937
 31
0
  0
LINE
  5
268
100
AcDbEntity
  8
WALL
100
AcDbLine
370
50
 10
572.8346
 20
469.4882
 30
0
 11
572.8346
 21
475.3937
 31
0
  0
LINE
  5
269
100
AcDbEntity
  8
WALL
100
AcDbLine
370
50
 10
608.2677
 20
469.4882
 30
0
 11
608.2677
 21
475.3937
 31
0
  0
LINE
  5
26A
100
AcDbEntity
  8
WALL
100
AcDbLine
370
50
 10
708.6614
 20
469.4882
 30
0
 11
809.0551
 21
469.4882
 31
0
  0
LINE
  5
26B
100
AcDbEntity
  8
WALL
100
AcDbLine
370
50
 10
809.0551
 20
475.3937
 30
0
 11
708.6614
 21
475.3937
 31
0
  0
LINE
  5
26C
100
AcDbEntity
  8
WALL
100
AcDbLine
370
50
 10
844.4882
 20
469.4882
 30
0
 11
944.8819
 21
469.4882
 31
0
  0
LINE
  5
26D
100
AcDbEntity
  8
WALL
100
AcDbLine
370
50
 10
944.8819
 20
475.3937
 30
0
 11
844.4882
 21
475.3937
 31
0
  0
LINE
  5
26E
100
AcDbEntity
  8
WALL
100
AcDbLine
370
50
 10
809.0551
 20
469.4882
 30
0
 11
809.0551
 21
475.3937
 31
0
  0
LINE
  5
26F
100
AcDbEntity
  8
WALL
100
AcDbLine
370
50
 10
844.4882
 20
469.4882
 30
0
 11
844.4882
 21
475.3937
 31
0
  0
LINE
  5
270
100
AcDbEntity
  8
WALL
100
AcDbLine
370
50
 10
944.8819
 20
469.4882
 30
0
 11
1045.2756
 21
469.4882
 31
0
  0
LINE
  5
271
100
AcDbEntity
  8
WALL
100
AcDbLine
370
50
 10
1045.2756
 20
475.3937
 30
0
 11
944.8819
 21
475.3937
 31
0
  0
LINE
  5
272
100
AcDbEntity
  8
WALL
100
AcDbLine
370
50
 10
1080.7087
 20
469.4882
 30
0
 11
1181.1024
 21
469.4882
 31
0
  0
LINE
  5
273
100
AcDbEntity
  8
WALL
100
AcDbLine
370
50
 10
1181.1024
 20
475.3937
 30
0
 11
1080.7087
 21
475.3937
 31
0
  0
LINE
  5
274
100
AcDbEntity
  8
WALL
100
AcDbLine
370
50
 10
1045.2756
 20
469.4882
 30
0
 11
1045.2756
 21
475.3937
 31
0
  0
LINE
  5
275
100
AcDbEntity
  8
WALL
100
AcDbLine
370
50
 10
1080.7087
 20
469.4882
 30
0
 11
1080.7087
 21
475.3937
 31
0
  0
LINE
  5
276
100
AcDbEntity
  8
WALL
100
AcDbLine
370
50
 10
0
 20
705.7087
 30
0
 11
100.3937
 21
705.7087
 31
0
  0
LINE
  5
277
100
AcDbEntity
  8
WALL
100
AcDbLine
370
50
 10
100.3937
 20
711.6142
 30
0
 11
0
 21
711.6142
 31
0
  0
LINE
  5
278
100
AcDbEntity
  8
WALL
100
AcDbLine
370
50
 10
135.8268
 20
705.7087
 30
0
 11
236.2205
 21
705.7087
 31
0
  0
LINE
  5
279
100
AcDbEntity
  8
WALL
100
AcDbLine
370
50
 10
236.2205
 20
711.6142
 30
0
 11
135.8268
 21
711.6142
 31
0
  0
LINE
  5
27A
100
AcDbEntity
  8
WALL
100
AcDbLine
370
50
 10
100.3937
 20
705.7087
 30
0
 11
100.3937
 21
711.6142
 31
0
  0
LINE
  5
27B
100
AcDbEntity
  8
WALL
100
AcDbLine
370
50
 10
135.8268
 20
705.7087
 30
0
 11
135.8268
 21
711.6142
 31
0
  0
LINE
  5
27C
100
AcDbEntity
  8
WALL
100
AcDbLine
370
50
 10
236.2205
 20
705.7087
 30
0
 11
336.6142
 21
705.7087
 31
0
  0
LINE
  5
27D
100
AcDbEntity
  8
WALL
100
AcDbLine
370
50
 10
336.6142
 20
711.6142
 30
0
 11
236.2205
 21
711.6142
 31
0
  0
LINE
  5
27E
100
AcDbEntity
  8
WALL
100
AcDbLine
370
50
 10
372.0472
 20
705.7087
 30
0
 11
472.4409
 21
705.7087
 31
0
  0
LINE
  5
27F
100
AcDbEntity
  8
WALL
100
AcDbLine
370
50
 10
472.4409
 20
711.6142
 30
0
 11
372.0472
 21
711.6142
 31
0
  0
LINE
  5
280
100
AcDbEntity
  8
WALL
100
AcDbLine
370
50
 10
336.6142
 20
705.7087
 30
0
 11
336.6142
 21
711.6142
 31
0
  0
LINE
  5
281
100
AcDbEntity
  8
WALL
100
AcDbLine
370
50
 10
372.0472
 20
705.7087
 30
0
 11
372.0472
 21
711.6142
 31
0
  0
LINE
  5
282
100
AcDbEntity
  8
WALL
100
AcDbLine
370
50
 10
472.4409
 20
705.7087
 30
0
 11
572.8346
 21
705.7087
 31
0
  0
LINE
  5
283
100
AcDbEntity
  8
WALL
100
AcDbLine
370
50
 10
572.8346
 20
711.6142
 30
0
 11
472.4409
 21
711.6142
 31
0
  0
LINE
  5
284
100
AcDbEntity
  8
WALL
100
AcDbLine
370
50
 10
608.2677
 20
705.7087
 30
0
 11
708.6614
 21
705.7087
 31
0
  0
LINE
  5
285
100
AcDbEntity
  8
WALL
100
AcDbLine
370
50
 10
708.6614
 20
711.6142
 30
0
 11
608.2677
 21
711.6142
 31
0
  0
LINE
  5
286
100
AcDbEntity
  8
WALL
100
AcDbLine
370
50
 10
572.8346
 20
705.7087
 30
0
 11
572.8346
 21
711.6142
 31
0
  0
LINE
  5
287
100
AcDbEntity
  8
WALL
100
AcDbLine
370
50
 10
608.2677
 20
705.7087
 30
0
 11
608.2677
 21
711.6142
 31
0
  0
LINE
  5
288
100
AcDbEntity
  8
WALL
100
AcDbLine
370
50
 10
708.6614
 20
705.7087
 30
0
 11
809.0551
 21
705.7087
 31
0
  0
LINE
  5
289
100
AcDbEntity
  8
WALL
100
AcDbLine
370
50
 10
809.0551
 20
711.6142
 30
0
 11
708.6614
 21
711.6142
 31
0
  0
LINE
  5
28A
100
AcDbEntity
  8
WALL
100
AcDbLine
370
50
 10
844.4882
 20
705.7087
 30
0
 11
944.8819
 21
705.7087
 31
0
  0
LINE
  5
28B
100
AcDbEntity
  8
WALL
100
AcDbLine
370
50
 10
944.8819
 20
711.6142
 30
0
 11
844.4882
 21
711.6142
 31
0
  0
LINE
  5
28C
100
AcDbEntity
  8
WALL
100
AcDbLine
370
50
 10
809.0551
 20
705.7087
 30
0
 11
809.0551
 21
711.6142
 31
0
  0
LINE
  5
28D
100
AcDbEntity
  8
WALL
100
AcDbLine
370
50
 10
844.4882
 20
705.7087
 30
0
 11
844.4882
 21
711.6142
 31
0
  0
LINE
  5
28E
100
AcDbEntity
  8
WALL
100
AcDbLine
370
50
 10
944.8819
 20
705.7087
 30
0
 11
1045.2756
 21
705.7087
 31
0
  0
LINE
  5
28F
100
AcDbEntity
  8
WALL
100
AcDbLine
370
50
 10
1045.2756
 20
711.6142
 30
0
 11
944.8819
 21
711.6142
 31
0
  0
LINE
  5
290
100
AcDbEntity
  8
WALL
100
AcDbLine
370
50
 10
1080.7087
 20
705.7087
 30
0
 11
1181.1024
 21
705.7087
 31
0
  0
LINE
  5
291
100
AcDbEntity
  8
WALL
100
AcDbLine
370
50
 10
1181.1024
 20
711.6142
 30
0
 11
1080.7087
 21
711.6142
 31
0
  0
LINE
  5
292
100
AcDbEntity
  8
WALL
100
AcDbLine
370
50
 10
1045.2756
 20
705.7087
 30
0
 11
1045.2756
 21
711.6142
 31
0
  0
LINE
  5
293
100
AcDbEntity
  8
WALL
100
AcDbLine
370
50
 10
1080.7087
 20
705.7087
 30
0
 11
1080.7087
 21
711.6142
 31
0
  0
LINE
  5
294
100
AcDbEntity
  8
WALL
100
AcDbLine
370
50
 10
0
 20
941.9291
 30
0
 11
236.2205
 21
941.9291
 31
0
  0
LINE
  5
295
100
AcDbEntity
  8
WALL
100
AcDbLine
370
50
 10
236.2205
 20
947.8346
 30
0
 11
0
 21
947.8346
 31
0
  0
LINE
  5
296
100
AcDbEntity
  8
WALL
100
AcDbLine
370
50
 10
236.2205
 20
941.9291
 30
0
 11
336.6142
 21
941.9291
 31
0
  0
LINE
  5
297
100
AcDbEntity
  8
WALL
100
AcDbLine
370
50
 10
336.6142
 20
947.8346
 30
0
 11
236.2205
 21
947.8346
 31
0
  0
LINE
  5
298
100
AcDbEntity
  8
WALL
100
AcDbLine
370
50
 10
372.0472
 20
941.9291
 30
0
 11
472.4409
 21
941.9291
 31
0
  0
LINE
  5
299
100
AcDbEntity
  8
WALL
100
AcDbLine
370
50
 10
472.4409
 20
947.8346
 30
0
 11
372.0472
 21
947.8346
 31
0
  0
LINE
  5
29A
100
AcDbEntity
  8
WALL
100
AcDbLine
370
50
 10
336.6142
 20
941.9291
 30
0
 11
336.6142
 21
947.8346
 31
0
  0
LINE
  5
29B
100
AcDbEntity
  8
WALL
100
AcDbLine
370
50
 10
372.0472
 20
941.9291
 30
0
 11
372.0472
 21
947.8346
 31
0
  0
LINE
  5
29C
100
AcDbEntity
  8
WALL
100
AcDbLine
370
50
 10
472.4409
 20
941.9291
 30
0
 11
572.8346
 21
941.9291
 31
0
  0
LINE
  5
29D
100
AcDbEntity
  8
WALL
100
AcDbLine
370
50
 10
572.8346
 20
947.8346
 30
0
 11
472.4409
 21
947.8346
 31
0
  0
LINE
  5
29E
100
AcDbEntity
  8
WALL
100
AcDbLine
370
50
 10
608.2677
 20
941.9291
 30
0
 11
708.6614
 21
941.9291
 31
0
  0
LINE
  5
29F
100
AcDbEntity
  8
WALL
100
AcDbLine
370
50
 10
708.6614
 20
947.8346
 30
0
 11
608.2677
 21
947.8346
 31
0
  0
LINE
  5
2A0
100
AcDbEntity
  8
WALL
100
AcDbLine
370
50
 10
572.8346
 20
941.9291
 30
0
 11
572.8346
 21
947.8346
 31
0
  0
LINE
  5
2A1
100
AcDbEntity
  8
WALL
100
AcDbLine
370
50
 10
608.2677
 20
941.9291
 30
0
 11
608.2677
 21
947.8346
 31
0
  0
LINE
  5
2A2
100
AcDbEntity
  8
WALL
100
AcDbLine
370
50
 10
708.6614
 20
941.9291
 30
0
 11
809.0551
 21
941.9291
 31
0
  0
LINE
  5
2A3
100
AcDbEntity
  8
WALL
100
AcDbLine
370
50
 10
809.0551
 20
947.8346
 30
0
 11
708.6614
 21
947.8346
 31
0
  0
LINE
  5
2A4
100
AcDbEntity
  8
WALL
100
AcDbLine
370
50
 10
844.4882
 20
941.9291
 30
0
 11
944.8819
 21
941.9291
 31
0
  0
LINE
  5
2A5
100
AcDbEntity
  8
WALL
100
AcDbLine
370
50
 10
944.8819
 20
947.8346
 30
0
 11
844.4882
 21
947.8346
 31
0
  0
LINE
  5
2A6
100
AcDbEntity
  8
WALL
100
AcDbLine
370
50
 10
809.0551
 20
941.9291
 30
0
 11
809.0551
 21
947.8346
 31
0
  0
LINE
  5
2A7
100
AcDbEntity
  8
WALL
100
AcDbLine
370
50
 10
844.4882
 20
941.9291
 30
0
 11
844.4882
 21
947.8346
 31
0
  0
LINE
  5
2A8
100
AcDbEntity
  8
WALL
100
AcDbLine
370
50
 10
944.8819
 20
941.9291
 30
0
 11
1045.2756
 21
941.9291
 31
0
  0
LINE
  5
2A9
100
AcDbEntity
  8
WALL
100
AcDbLine
370
50
 10
1045.2756
 20
947.8346
 30
0
 11
944.8819
 21
947.8346
 31
0
  0
LINE
  5
2AA
100
AcDbEntity
  8
WALL
100
AcDbLine
370
50
 10
1080.7087
 20
941.9291
 30
0
 11
1181.1024
 21
941.9291
 31
0
  0
LINE
  5
2AB
100
AcDbEntity
  8
WALL
100
AcDbLine
370
50
 10
1181.1024
 20
947.8346
 30
0
 11
1080.7087
 21
947.8346
 31
0
  0
LINE
  5
2AC
100
AcDbEntity
  8
WALL
100
AcDbLine
370
50
 10
1045.2756
 20
941.9291
 30
0
 11
1045.2756
 21
947.8346
 31
0
  0
LINE
  5
2AD
100
AcDbEntity
  8
WALL
100
AcDbLine
370
50
 10
1080.7087
 20
941.9291
 30
0
 11
1080.7087
 21
947.8346
 31
0
  0
LWPOLYLINE
  5
2AE
100
AcDbEntity
  8
COLUMN
100
AcDbPolyline
 90
4
 70
1
 10
-4.5276
 20
-4.5276
 10
4.5276
 20
-4.5276
 10
4.5276
 20
4.5276
 10
-4.5276
 20
4.5276
  0
LWPOLYLINE
  5
2AF
100
AcDbEntity
  8
COLUMN
100
AcDbPolyline
 90
4
 70
1
 10
-4.5276
 20
231.6929
 10
4.5276
 20
231.6929
 10
4.5276
 20
240.7480
 10
-4.5276
 20
240.7480
  0
LWPOLYLINE
  5
2B0
100
AcDbEntity
  8
COLUMN
100
AcDbPolyline
 90
4
 70
1
 10
-4.5276
 20
467.9134
 10
4.5276
 20
467.9134
 10
4.5276
 20
476.9685
 10
-4.5276
 20
476.9685
  0
LWPOLYLINE
  5
2B1
100
AcDbEntity
  8
COLUMN
100
AcDbPolyline
 90
4
 70
1
 10
-4.5276
 20
704.1339
 10
4.5276
 20
704.1339
 10
4.5276
 20
713.1890
 10
-4.5276
 20
713.1890
  0
LWPOLYLINE
  5
2B2
100
AcDbEntity
  8
COLUMN
100
AcDbPolyline
 90
4
 70
1
 10
-4.5276
 20
940.3543
 10
4.5276
 20
940.3543
 10
4.5276
 20
949.4094
 10
-4.5276
 20
949.4094
  0
LWPOLYLINE
  5
2B3
100
AcDbEntity
  8
COLUMN
100
AcDbPolyline
 90
4
 70
1
 10
-4.5276
 20
1176.5748
 10
4.5276
 20
1176.5748
 10
4.5276
 20
1185.6299
 10
-4.5276
 20
1185.6299
  0
LWPOLYLINE
  5
2B4
100
AcDbEntity
  8
COLUMN
100
AcDbPolyline
 90
4
 70
1
 10
231.6929
 20
-4.5276
 10
240.7480
 20
-4.5276
 10
240.7480
 20
4.5276
 10
231.6929
 20
4.5276
  0
LWPOLYLINE
  5
2B5
100
AcDbEntity
  8
COLUMN
100
AcDbPolyline
 90
4
 70
1
 10
231.6929
 20
231.6929
 10
240.7480
 20
231.6929
 10
240.7480
 20
240.7480
 10
231.6929
 20
240.7480
  0
LWPOLYLINE
  5
2B6
100
AcDbEntity
  8
COLUMN
100
AcDbPolyline
 90
4
 70
1
 10
231.6929
 20
467.9134
 10
240.7480
 20
467.9134
 10
240.7480
 20
476.9685
 10
231.6929
 20
476.9685
  0
LWPOLYLINE
  5
2B7
100
AcDbEntity
  8
COLUMN
100
AcDbPolyline
 90
4
 70
1
 10
231.6929
 20
704.1339
 10
240.7480
 20
704.1339
 10
240.7480
 20
713.1890
 10
231.6929
 20
713.1890
  0
LWPOLYLINE
  5
2B8
100
AcDbEntity
  8
COLUMN
100
AcDbPolyline
 90
4
 70
1
 10
231.6929
 20
940.3543
 10
240.7480
 20
940.3543
 10
240.7480
 20
949.4094
 10
231.6929
 20
949.4094
  0
LWPOLYLINE
  5
2B9
100
AcDbEntity
  8
COLUMN
100
AcDbPolyline
 90
4
 70
1
 10
231.6929
 20
1176.5748
 10
240.7480
 20
1176.5748
 10
240.7480
 20
1185.6299
 10
231.6929
 20
1185.6299
  0
LWPOLYLINE
  5
2BA
100
AcDbEntity
  8
COLUMN
100
AcDbPolyline
 90
4
 70
1
 10
467.9134
 20
-4.5276
 10
476.9685
 20
-4.5276
 10
476.9685
 20
4.5276
 10
467.9134
 20
4.5276
  0
LWPOLYLINE
  5
2BB
100
AcDbEntity
  8
COLUMN
100
AcDbPolyline
 90
4
 70
1
 10
467.9134
 20
231.6929
 10
476.9685
 20
231.6929
 10
476.9685
 20
240.7480
 10
467.9134
 20
240.7480
  0
LWPOLYLINE
  5
2BC
100
AcDbEntity
  8
COLUMN
100
AcDbPolyline
 90
4
 70
1
 10
467.9134
 20
467.9134
 10
476.9685
 20
467.9134
 10
476.9685
 20
476.9685
 10
467.9134
 20
476.9685
  0
LWPOLYLINE
  5
2BD
100
AcDbEntity
  8
COLUMN
100
AcDbPolyline
 90
4
 70
1
 10
467.9134
 20
704.1339
 10
476.9685
 20
704.1339
 10
476.9685
 20
713.1890
 10
467.9134
 20
713.1890
  0
LWPOLYLINE
  5
2BE
100
AcDbEntity
  8
COLUMN
100
AcDbPolyline
 90
4
 70
1
 10
467.9134
 20
940.3543
 10
476.9685
 20
940.3543
 10
476.9685
 20
949.4094
 10
467.9134
 20
949.4094
  0
LWPOLYLINE
  5
2BF
100
AcDbEntity
  8
COLUMN
100
AcDbPolyline
 90
4
 70
1
 10
467.9134
 20
1176.5748
 10
476.9685
 20
1176.5748
 10
476.9685
 20
1185.6299
 10
467.9134
 20
1185.6299
  0
LWPOLYLINE
  5
2C0
100
AcDbEntity
  8
COLUMN
100
AcDbPolyline
 90
4
 70
1
 10
704.1339
 20
-4.5276
 10
713.1890
 20
-4.5276
 10
713.1890
 20
4.5276
 10
704.1339
 20
4.5276
  0
LWPOLYLINE
  5
2C1
100
AcDbEntity
  8
COLUMN
100
AcDbPolyline
 90
4
 70
1
 10
704.1339
 20
231.6929
 10
713.1890
 20
231.6929
 10
713.1890
 20
240.7480
 10
704.1339
 20
240.7480
  0
LWPOLYLINE
  5
2C2
100
AcDbEntity
  8
COLUMN
100
AcDbPolyline
 90
4
 70
1
 10
704.1339
 20
467.9134
 10
713.1890
 20
467.9134
 10
713.1890
 20
476.9685
 10
704.1339
 20
476.9685
  0
LWPOLYLINE
  5
2C3
100
AcDbEntity
  8
COLUMN
100
AcDbPolyline
 90
4
 70
1
 10
704.1339
 20
704.1339
 10
713.1890
 20
704.1339
 10
713.1890
 20
713.1890
 10
704.1339
 20
713.1890
  0
LWPOLYLINE
  5
2C4
100
AcDbEntity
  8
COLUMN
100
AcDbPolyline
 90
4
 70
1
 10
704.1339
 20
940.3543
 10
713.1890
 20
940.3543
 10
713.1890
 20
949.4094
 10
704.1339
 20
949.4094
  0
LWPOLYLINE
  5
2C5
100
AcDbEntity
  8
COLUMN
100
AcDbPolyline
 90
4
 70
1
 10
704.1339
 20
1176.5748
 10
713.1890
 20
1176.5748
 10
713.1890
 20
1185.6299
 10
704.1339
 20
1185.6299
  0
LWPOLYLINE
  5
2C6
100
AcDbEntity
  8
COLUMN
100
AcDbPolyline
 90
4
 70
1
 10
940.3543
 20
-4.5276
 10
949.4094
 20
-4.5276
 10
949.4094
 20
4.5276
 10
940.3543
 20
4.5276
  0
LWPOLYLINE
  5
2C7
100
AcDbEntity
  8
COLUMN
100
AcDbPolyline
 90
4
 70
1
 10
940.3543
 20
231.6929
 10
949.4094
 20
231.6929
 10
949.4094
 20
240.7480
 10
940.3543
 20
240.7480
  0
LWPOLYLINE
  5
2C8
100
AcDbEntity
  8
COLUMN
100
AcDbPolyline
 90
4
 70
1
 10
940.3543
 20
467.9134
 10
949.4094
 20
467.9134
 10
949.4094
 20
476.9685
 10
940.3543
 20
476.9685
  0
LWPOLYLINE
  5
2C9
100
AcDbEntity
  8
COLUMN
100
AcDbPolyline
 90
4
 70
1
 10
940.3543
 20
704.1339
 10
949.4094
 20
704.1339
 10
949.4094
 20
713.1890
 10
940.3543
 20
713.1890
  0
LWPOLYLINE
  5
2CA
100
AcDbEntity
  8
COLUMN
100
AcDbPolyline
 90
4
 70
1
 10
940.3543
 20
940.3543
 10
949.4094
 20
940.3543
 10
949.4094
 20
949.4094
 10
940.3543
 20
949.4094
  0
LWPOLYLINE
  5
2CB
100
AcDbEntity
  8
COLUMN
100
AcDbPolyline
 90
4
 70
1
 10
940.3543
 20
1176.5748
 10
949.4094
 20
1176.5748
 10
949.4094
 20
1185.6299
 10
940.3543
 20
1185.6299
  0
LWPOLYLINE
  5
2CC
100
AcDbEntity
  8
COLUMN
100
AcDbPolyline
 90
4
 70
1
 10
1176.5748
 20
-4.5276
 10
1185.6299
 20
-4.5276
 10
1185.6299
 20
4.5276
 10
1176.5748
 20
4.5276
  0
LWPOLYLINE
  5
2CD
100
AcDbEntity
  8
COLUMN
100
AcDbPolyline
 90
4
 70
1
 10
1176.5748
 20
231.6929
 10
1185.6299
 20
231.6929
 10
1185.6299
 20
240.7480
 10
1176.5748
 20
240.7480
  0
LWPOLYLINE
  5
2CE
100
AcDbEntity
  8
COLUMN
100
AcDbPolyline
 90
4
 70
1
 10
1176.5748
 20
467.9134
 10
1185.6299
 20
467.9134
 10
1185.6299
 20
476.9685
 10
1176.5748
 20
476.9685
  0
LWPOLYLINE
  5
2CF
100
AcDbEntity
  8
COLUMN
100
AcDbPolyline
 90
4
 70
1
 10
1176.5748
 20
704.1339
 10
1185.6299
 20
704.1339
 10
1185.6299
 20
713.1890
 10
1176.5748
 20
713.1890
  0
LWPOLYLINE
  5
2D0
100
AcDbEntity
  8
COLUMN
100
AcDbPolyline
 90
4
 70
1
 10
1176.5748
 20
940.3543
 10
1185.6299
 20
940.3543
 10
1185.6299
 20
949.4094
 10
1176.5748
 20
949.4094
  0
LWPOLYLINE
  5
2D1
100
AcDbEntity
  8
COLUMN
100
AcDbPolyline
 90
4
 70
1
 10
1176.5748
 20
1176.5748
 10
1185.6299
 20
1176.5748
 10
1185.6299
 20
1185.6299
 10
1176.5748
 20
1185.6299
  0
TEXT
  5
2D2
100
AcDbEntity
  8
TEXT
100
AcDbText
 10
99.9016
 20
119.5866
 30
0
 40
9.8425
  1
OFFICE 11
100
AcDbText
  0
TEXT
  5
2D3
100
AcDbEntity
  8
TEXT
100
AcDbText
 10
334.6457
 20
119.5866
 30
0
 40
9.8425
  1
OFFICE 12
100
AcDbText
  0
TEXT
  5
2D4
100
AcDbEntity
  8
TEXT
100
AcDbText
 10
570.8661
 20
119.5866
 30
0
 40
9.8425
  1
ENTRANCE LOBBY
100
AcDbText
  0
TEXT
  5
2D5
100
AcDbEntity
  8
TEXT
100
AcDbText
 10
807.0866
 20
119.5866
 30
0
 40
9.8425
  1
OFFICE 14
100
AcDbText
  0
TEXT
  5
2D6
100
AcDbEntity
  8
TEXT
100
AcDbText
 10
1041.8307
 20
119.5866
 30
0
 40
9.8425
  1
OFFICE 15
100
AcDbText
  0
TEXT
  5
2D7
100
AcDbEntity
  8
TEXT
100
AcDbText
 10
99.9016
 20
354.3307
 30
0
 40
9.8425
  1
OFFICE 21
100
AcDbText
  0
TEXT
  5
2D8
100
AcDbEntity
  8
TEXT
100
AcDbText
 10
334.6457
 20
354.3307
 30
0
 40
9.8425
  1
OFFICE 22
100
AcDbText
  0
TEXT
  5
2D9
100
AcDbEntity
  8
TEXT
100
AcDbText
 10
570.8661
 20
354.3307
 30
0
 40
9.8425
  1
OFFICE 23
100
AcDbText
  0
TEXT
  5
2DA
100
AcDbEntity
  8
TEXT
100
AcDbText
 10
807.0866
 20
354.3307
 30
0
 40
9.8425
  1
OFFICE 24
100
AcDbText
  0
TEXT
  5
2DB
100
AcDbEntity
  8
TEXT
100
AcDbText
 10
1041.8307
 20
354.3307
 30
0
 40
9.8425
  1
OFFICE 25
100
AcDbText
  0
TEXT
  5
2DC
100
AcDbEntity
  8
TEXT
100
AcDbText
 10
99.9016
 20
590.5512
 30
0
 40
9.8425
  1
OFFICE 31
100
AcDbText
  0
TEXT
  5
2DD
100
AcDbEntity
  8
TEXT
100
AcDbText
 10
334.6457
 20
590.5512
 30
0
 40
9.8425
  1
STAIR HALL
100
AcDbText
  0
TEXT
  5
2DE
100
AcDbEntity
  8
TEXT
100
AcDbText
 10
570.8661
 20
590.5512
 30
0
 40
9.8425
  1
LIFT LOBBY
100
AcDbText
  0
TEXT
  5
2DF
100
AcDbEntity
  8
TEXT
100
AcDbText
 10
807.0866
 20
590.5512
 30
0
 40
9.8425
  1
OFFICE 34
100
AcDbText
  0
LWPOLYLINE
  5
2E0
100
AcDbEntity
  8
SANITARY
100
AcDbPolyline
 90
4
 70
1
 10
727.3622
 20
670.2756
 10
743.1102
 20
670.2756
 10
743.1102
 20
693.8976
 10
727.3622
 20
693.8976
  0
TEXT
  5
2E1
100
AcDbEntity
  8
TEXT
100
AcDbText
 10
1041.8307
 20
590.5512
 30
0
 40
9.8425
  1
OFFICE 35
100
AcDbText
  0
TEXT
  5
2E2
100
AcDbEntity
  8
TEXT
100
AcDbText
 10
99.9016
 20
826.7717
 30
0
 40
9.8425
  1
OFFICE 41
100
AcDbText
  0
TEXT
  5
2E3
100
AcDbEntity
  8
TEXT
100
AcDbText
 10
334.6457
 20
826.7717
 30
0
 40
9.8425
  1
OFFICE 42
100
AcDbText
  0
TEXT
  5
2E4
100
AcDbEntity
  8
TEXT
100
AcDbText
 10
570.8661
 20
826.7717
 30
0
 40
9.8425
  1
OFFICE 43
100
AcDbText
  0
TEXT
  5
2E5
100
AcDbEntity
  8
TEXT
100
AcDbText
 10
807.0866
 20
826.7717
 30
0
 40
9.8425
  1
OFFICE 44
100
AcDbText
  0
TEXT
  5
2E6
100
AcDbEntity
  8
TEXT
100
AcDbText
 10
1041.8307
 20
826.7717
 30
0
 40
9.8425
  1
OFFICE 45
100
AcDbText
  0
TEXT
  5
2E7
100
AcDbEntity
  8
TEXT
100
AcDbText
 10
99.9016
 20
1061.5157
 30
0
 40
9.8425
  1
OFFICE 51
100
AcDbText
  0
TEXT
  5
2E8
100
AcDbEntity
  8
TEXT
100
AcDbText
 10
334.6457
 20
1061.5157
 30
0
 40
9.8425
  1
OFFICE 52
100
AcDbText
  0
TEXT
  5
2E9
100
AcDbEntity
  8
TEXT
100
AcDbText
 10
570.8661
 20
1061.5157
 30
0
 40
9.8425
  1
OFFICE 53
100
AcDbText
  0
TEXT
  5
2EA
100
AcDbEntity
  8
TEXT
100
AcDbText
 10
807.0866
 20
1061.5157
 30
0
 40
9.8425
  1
OFFICE 54
100
AcDbText
  0
TEXT
  5
2EB
100
AcDbEntity
  8
TEXT
100
AcDbText
 10
1041.8307
 20
1061.5157
 30
0
 40
9.8425
  1
OFFICE 55
100
AcDbText
  0
DIMENSION
  5
2EC
100
AcDbEntity
  8
DIM
100
AcDbDimension
  2
*D
 10
0
 20
-70.8661
 30
0
 11
590.5512
 21
-61.0236
 31
0
 70
33
  1
98'-5 1/8"
 42
1181.1024
100
AcDbAlignedDimension
 13
0
 23
0
 33
0
 14
1181.1024
 24
0
 34
0
  0
DIMENSION
  5
2ED
100
AcDbEntity
  8
DIM
100
AcDbDimension
  2
*D
 10
-70.8661
 20
0
 30
0
 11
-61.0236
 21
590.5512
 31
0
 70
33
  1
98'-5 1/8"
 42
1181.1024
100
AcDbAlignedDimension
 13
0
 23
0
 33
0
 14
0
 24
1181.1024
 34
0
  0
DIMENSION
  5
2EE
100
AcDbEntity
  8
DIM
100
AcDbDimension
  2
*D
 10
0
 20
1228.3465
 30
0
 11
118.1102
 21
1238.1890
 31
0
 70
33
  1
19'-8 1/4"
 42
236.2205
100
AcDbAlignedDimension
 13
0
 23
1181.1024
 33
0
 14
236.2205
 24
1181.1024
 34
0
  0
DIMENSION
  5
2EF
100
AcDbEntity
  8
DIM
100
AcDbDimension
  2
*D
 10
236.2205
 20
1228.3465
 30
0
 11
354.3307
 21
1238.1890
 31
0
 70
33
  1
19'-8 1/4"
 42
236.2205
100
AcDbAlignedDimension
 13
236.2205
 23
1181.1024
 33
0
 14
472.4409
 24
1181.1024
 34
0
  0
DIMENSION
  5
2F0
100
AcDbEntity
  8
DIM
100
AcDbDimension
  2
*D
 10
472.4409
 20
1228.3465
 30
0
 11
590.5512
 21
1238.1890
 31
0
 70
33
  1
19'-8 1/4"
 42
236.2205
100
AcDbAlignedDimension
 13
472.4409
 23
1181.1024
 33
0
 14
708.6614
 24
1181.1024
 34
0
  0
DIMENSION
  5
2F1
100
AcDbEntity
  8
DIM
100
AcDbDimension
  2
*D
 10
708.6614
 20
1228.3465
 30
0
 11
826.7717
 21
1238.1890
 31
0
 70
33
  1
19'-8 1/4"
 42
236.2205
100
AcDbAlignedDimension
 13
708.6614
 23
1181.1024
 33
0
 14
944.8819
 24
1181.1024
 34
0
  0
DIMENSION
  5
2F2
100
AcDbEntity
  8
DIM
100
AcDbDimension
  2
*D
 10
944.8819
 20
1228.3465
 30
0
 11
1062.9921
 21
1238.1890
 31
0
 70
33
  1
19'-8 1/4"
 42
236.2205
100
AcDbAlignedDimension
 13
944.8819
 23
1181.1024
 33
0
 14
1181.1024
 24
1181.1024
 34
0
  0
DIMENSION
  5
2F3
100
AcDbEntity
  8
DIM
100
AcDbDimension
  2
*D
 10
1228.3465
 20
0
 30
0
 11
1238.1890
 21
118.1102
 31
0
 70
33
  1
19'-8 1/4"
 42
236.2205
100
AcDbAlignedDimension
 13
1181.1024
 23
0
 33
0
 14
1181.1024
 24
236.2205
 34
0
  0
DIMENSION
  5
2F4
100
AcDbEntity
  8
DIM
100
AcDbDimension
  2
*D
 10
1228.3465
 20
236.2205
 30
0
 11
1238.1890
 21
354.3307
 31
0
 70
33
  1
19'-8 1/4"
 42
236.2205
100
AcDbAlignedDimension
 13
1181.1024
 23
236.2205
 33
0
 14
1181.1024
 24
472.4409
 34
0
  0
DIMENSION
  5
2F5
100
AcDbEntity
  8
DIM
100
AcDbDimension
  2
*D
 10
1228.3465
 20
472.4409
 30
0
 11
1238.1890
 21
590.5512
 31
0
 70
33
  1
19'-8 1/4"
 42
236.2205
100
AcDbAlignedDimension
 13
1181.1024
 23
472.4409
 33
0
 14
1181.1024
 24
708.6614
 34
0
  0
DIMENSION
  5
2F6
100
AcDbEntity
  8
DIM
100
AcDbDimension
  2
*D
 10
1228.3465
 20
708.6614
 30
0
 11
1238.1890
 21
826.7717
 31
0
 70
33
  1
19'-8 1/4"
 42
236.2205
100
AcDbAlignedDimension
 13
1181.1024
 23
708.6614
 33
0
 14
1181.1024
 24
944.8819
 34
0
  0
DIMENSION
  5
2F7
100
AcDbEntity
  8
DIM
100
AcDbDimension
  2
*D
 10
1228.3465
 20
944.8819
 30
0
 11
1238.1890
 21
1062.9921
 31
0
 70
33
  1
19'-8 1/4"
 42
236.2205
100
AcDbAlignedDimension
 13
1181.1024
 23
944.8819
 33
0
 14
1181.1024
 24
1181.1024
 34
0
  0
TEXT
  5
2F8
100
AcDbEntity
  8
TEXT
100
AcDbText
 10
0
 20
-125.9843
 30
0
 40
17.7165
  1
GROUND FLOOR PLAN
100
AcDbText
  0
TEXT
  5
2F9
100
AcDbEntity
  8
TEXT
100
AcDbText
 10
1283.4646
 20
590.5512
 30
0
 40
11.8110
  1
+1'-5 3/4"
100
AcDbText
  0
TEXT
  5
2FA
100
AcDbEntity
  8
TEXT
100
AcDbText
 10
0
 20
-157.4803
 30
0
 40
11.8110
  1
SCALE: 1/8" = 1'-0"
100
AcDbText
  0
LWPOLYLINE
  5
2FB
100
AcDbEntity
  8
WIND
100
AcDbPolyline
 90
4
 70
1
 10
1651.1811
 20
94.4882
 10
1655.9055
 20
94.4882
 10
1655.9055
 20
141.7323
 10
1651.1811
 20
141.7323
  0
LWPOLYLINE
  5
2FC
100
AcDbEntity
  8
WIND
100
AcDbPolyline
 90
4
 70
1
 10
1651.1811
 20
330.7087
 10
1655.9055
 20
330.7087
 10
1655.9055
 20
377.9528
 10
1651.1811
 20
377.9528
  0
LWPOLYLINE
  5
2FD
100
AcDbEntity
  8
WIND
100
AcDbPolyline
 90
4
 70
1
 10
1651.1811
 20
566.9291
 10
1655.9055
 20
566.9291
 10
1655.9055
 20
614.1732
 10
1651.1811
 20
614.1732
  0
LWPOLYLINE
  5
2FE
100
AcDbEntity
  8
WIND
100
AcDbPolyline
 90
4
 70
1
 10
1651.1811
 20
803.1496
 10
1655.9055
 20
803.1496
 10
1655.9055
 20
850.3937
 10
1651.1811
 20
850.3937
  0
LWPOLYLINE
  5
2FF
100
AcDbEntity
  8
WIND
100
AcDbPolyline
 90
4
 70
1
 10
1651.1811
 20
1039.3701
 10
1655.9055
 20
1039.3701
 10
1655.9055
 20
1086.6142
 10
1651.1811
 20
1086.6142
  0
LWPOLYLINE
  5
300
100
AcDbEntity
  8
WIND
100
AcDbPolyline
 90
4
 70
1
 10
2832.2835
 20
94.4882
 10
2837.0079
 20
94.4882
 10
2837.0079
 20
141.7323
 10
2832.2835
 20
141.7323
  0
LWPOLYLINE
  5
301
100
AcDbEntity
  8
WIND
100
AcDbPolyline
 90
4
 70
1
 10
2832.2835
 20
330.7087
 10
2837.0079
 20
330.7087
 10
2837.0079
 20
377.9528
 10
2832.2835
 20
377.9528
  0
LWPOLYLINE
  5
302
100
AcDbEntity
  8
WIND
100
AcDbPolyline
 90
4
 70
1
 10
2832.2835
 20
566.9291
 10
2837.0079
 20
566.9291
 10
2837.0079
 20
614.1732
 10
2832.2835
 20
614.1732
  0
LWPOLYLINE
  5
303
100
AcDbEntity
  8
WIND
100
AcDbPolyline
 90
4
 70
1
 10
2832.2835
 20
803.1496
 10
2837.0079
 20
803.1496
 10
2837.0079
 20
850.3937
 10
2832.2835
 20
850.3937
  0
LWPOLYLINE
  5
304
100
AcDbEntity
  8
WIND
100
AcDbPolyline
 90
4
 70
1
 10
2832.2835
 20
1039.3701
 10
2837.0079
 20
1039.3701
 10
2837.0079
 20
1086.6142
 10
2832.2835
 20
1086.6142
  0
LWPOLYLINE
  5
305
100
AcDbEntity
  8
WIND
100
AcDbPolyline
 90
4
 70
1
 10
1748.0315
 20
-2.3622
 10
1795.2756
 20
-2.3622
 10
1795.2756
 20
2.3622
 10
1748.0315
 20
2.3622
  0
LWPOLYLINE
  5
306
100
AcDbEntity
  8
WIND
100
AcDbPolyline
 90
4
 70
1
 10
1984.2520
 20
-2.3622
 10
2031.4961
 20
-2.3622
 10
2031.4961
 20
2.3622
 10
1984.2520
 20
2.3622
  0
LWPOLYLINE
  5
307
100
AcDbEntity
  8
WIND
100
AcDbPolyline
 90
4
 70
1
 10
2220.4724
 20
-2.3622
 10
2267.7165
 20
-2.3622
 10
2267.7165
 20
2.3622
 10
2220.4724
 20
2.3622
  0
LWPOLYLINE
  5
308
100
AcDbEntity
  8
WIND
100
AcDbPolyline
 90
4
 70
1
 10
2456.6929
 20
-2.3622
 10
2503.9370
 20
-2.3622
 10
2503.9370
 20
2.3622
 10
2456.6929
 20
2.3622
  0
LWPOLYLINE
  5
309
100
AcDbEntity
  8
WIND
100
AcDbPolyline
 90
4
 70
1
 10
2692.9134
 20
-2.3622
 10
2740.1575
 20
-2.3622
 10
2740.1575
 20
2.3622
 10
2692.9134
 20
2.3622
  0
LWPOLYLINE
  5
30A
100
AcDbEntity
  8
WIND
100
AcDbPolyline
 90
4
 70
1
 10
1748.0315
 20
1178.7402
 10
1795.2756
 20
1178.7402
 10
1795.2756
 20
1183.4646
 10
1748.0315
 20
1183.4646
  0
LWPOLYLINE
  5
30B
100
AcDbEntity
  8
WIND
100
AcDbPolyline
 90
4
 70
1
 10
1984.2520
 20
1178.7402
 10
2031.4961
 20
1178.7402
 10
2031.4961
 20
1183.4646
 10
1984.2520
 20
1183.4646
  0
LWPOLYLINE
  5
30C
100
AcDbEntity
  8
WIND
100
AcDbPolyline
 90
4
 70
1
 10
2220.4724
 20
1178.7402
 10
2267.7165
 20
1178.7402
 10
2267.7165
 20
1183.4646
 10
2220.4724
 20
1183.4646
  0
LWPOLYLINE
  5
30D
100
AcDbEntity
  8
WIND
100
AcDbPolyline
 90
4
 70
1
 10
2456.6929
 20
1178.7402
 10
2503.9370
 20
1178.7402
 10
2503.9370
 20
1183.4646
 10
2456.6929
 20
1183.4646
  0
LWPOLYLINE
  5
30E
100
AcDbEntity
  8
WIND
100
AcDbPolyline
 90
4
 70
1
 10
2692.9134
 20
1178.7402
 10
2740.1575
 20
1178.7402
 10
2740.1575
 20
1183.4646
 10
2692.9134
 20
1183.4646
  0
ARC
  5
30F
100
AcDbEntity
  8
DOOR
100
AcDbCircle
 10
1889.7638
 20
336.6142
 30
0
 40
35.4331
100
AcDbArc
 50
90
 51
180
  0
LINE
  5
310
100
AcDbEntity
  8
DOOR
100
AcDbLine
 10
1889.7638
 20
336.6142
 30
0
 11
1854.3307
 21
336.6142
 31
0
  0
ARC
  5
311
100
AcDbEntity
  8
DOOR
100
AcDbCircle
 10
1889.7638
 20
572.8346
 30
0
 40
35.4331
100
AcDbArc
 50
90
 51
180
  0
LINE
  5
312
100
AcDbEntity
  8
DOOR
100
AcDbLine
 10
1889.7638
 20
572.8346
 30
0
 11
1854.3307
 21
572.8346
 31
0
  0
ARC
  5
313
100
AcDbEntity
  8
DOOR
100
AcDbCircle
 10
1889.7638
 20
809.0551
 30
0
 40
35.4331
100
AcDbArc
 50
90
 51
180
  0
LINE
  5
314
100
AcDbEntity
  8
DOOR
100
AcDbLine
 10
1889.7638
 20
809.0551
 30
0
 11
1854.3307
 21
809.0551
 31
0
  0
ARC
  5
315
100
AcDbEntity
  8
DOOR
100
AcDbCircle
 10
1889.7638
 20
1045.2756
 30
0
 40
35.4331
100
AcDbArc
 50
90
 51
180
  0
LINE
  5
316
100
AcDbEntity
  8
DOOR
100
AcDbLine
 10
1889.7638
 20
1045.2756
 30
0
 11
1854.3307
 21
1045.2756
 31
0
  0
ARC
  5
317
100
AcDbEntity
  8
DOOR
100
AcDbCircle
 10
2125.9843
 20
100.3937
 30
0
 40
35.4331
100
AcDbArc
 50
90
 51
180
  0
LINE
  5
318
100
AcDbEntity
  8
DOOR
100
AcDbLine
 10
2125.9843
 20
100.3937
 30
0
 11
2090.5512
 21
100.3937
 31
0
  0
ARC
  5
319
100
AcDbEntity
  8
DOOR
100
AcDbCircle
 10
2125.9843
 20
336.6142
 30
0
 40
35.4331
100
AcDbArc
 50
90
 51
180
  0
LINE
  5
31A
100
AcDbEntity
  8
DOOR
100
AcDbLine
 10
2125.9843
 20
336.6142
 30
0
 11
2090.5512
 21
336.6142
 31
0
  0
ARC
  5
31B
100
AcDbEntity
  8
DOOR
100
AcDbCircle
 10
2125.9843
 20
809.0551
 30
0
 40
35.4331
100
AcDbArc
 50
90
 51
180
  0
LINE
  5
31C
100
AcDbEntity
  8
DOOR
100
AcDbLine
 10
2125.9843
 20
809.0551
 30
0
 11
2090.5512
 21
809.0551
 31
0
  0
ARC
  5
31D
100
AcDbEntity
  8
DOOR
100
AcDbCircle
 10
2125.9843
 20
1045.2756
 30
0
 40
35.4331
100
AcDbArc
 50
90
 51
180
  0
LINE
  5
31E
100
AcDbEntity
  8
DOOR
100
AcDbLine
 10
2125.9843
 20
1045.2756
 30
0
 11
2090.5512
 21
1045.2756
 31
0
  0
ARC
  5
31F
100
AcDbEntity
  8
DOOR
100
AcDbCircle
 10
2362.2047
 20
100.3937
 30
0
 40
35.4331
100
AcDbArc
 50
90
 51
180
  0
LINE
  5
320
100
AcDbEntity
  8
DOOR
100
AcDbLine
 10
2362.2047
 20
100.3937
 30
0
 11
2326.7717
 21
100.3937
 31
0
  0
ARC
  5
321
100
AcDbEntity
  8
DOOR
100
AcDbCircle
 10
2362.2047
 20
336.6142
 30
0
 40
35.4331
100
AcDbArc
 50
90
 51
180
  0
LINE
  5
322
100
AcDbEntity
  8
DOOR
100
AcDbLine
 10
2362.2047
 20
336.6142
 30
0
 11
2326.7717
 21
336.6142
 31
0
  0
ARC
  5
323
100
AcDbEntity
  8
DOOR
100
AcDbCircle
 10
2362.2047
 20
572.8346
 30
0
 40
35.4331
100
AcDbArc
 50
90
 51
180
  0
LINE
  5
324
100
AcDbEntity
  8
DOOR
100
AcDbLine
 10
2362.2047
 20
572.8346
 30
0
 11
2326.7717
 21
572.8346
 31
0
  0
ARC
  5
325
100
AcDbEntity
  8
DOOR
100
AcDbCircle
 10
2362.2047
 20
809.0551
 30
0
 40
35.4331
100
AcDbArc
 50
90
 51
180
  0
LINE
  5
326
100
AcDbEntity
  8
DOOR
100
AcDbLine
 10
2362.2047
 20
809.0551
 30
0
 11
2326.7717
 21
809.0551
 31
0
  0
ARC
  5
327
100
AcDbEntity
  8
DOOR
100
AcDbCircle
 10
2362.2047
 20
1045.2756
 30
0
 40
35.4331
100
AcDbArc
 50
90
 51
180
  0
LINE
  5
328
100
AcDbEntity
  8
DOOR
100
AcDbLine
 10
2362.2047
 20
1045.2756
 30
0
 11
2326.7717
 21
1045.2756
 31
0
  0
ARC
  5
329
100
AcDbEntity
  8
DOOR
100
AcDbCircle
 10
2598.4252
 20
100.3937
 30
0
 40
35.4331
100
AcDbArc
 50
90
 51
180
  0
LINE
  5
32A
100
AcDbEntity
  8
DOOR
100
AcDbLine
 10
2598.4252
 20
100.3937
 30
0
 11
2562.9921
 21
100.3937
 31
0
  0
ARC
  5
32B
100
AcDbEntity
  8
DOOR
100
AcDbCircle
 10
2598.4252
 20
336.6142
 30
0
 40
35.4331
100
AcDbArc
 50
90
 51
180
  0
LINE
  5
32C
100
AcDbEntity
  8
DOOR
100
AcDbLine
 10
2598.4252
 20
336.6142
 30
0
 11
2562.9921
 21
336.6142
 31
0
  0
ARC
  5
32D
100
AcDbEntity
  8
DOOR
100
AcDbCircle
 10
2598.4252
 20
572.8346
 30
0
 40
35.4331
100
AcDbArc
 50
90
 51
180
  0
LINE
  5
32E
100
AcDbEntity
  8
DOOR
100
AcDbLine
 10
2598.4252
 20
572.8346
 30
0
 11
2562.9921
 21
572.8346
 31
0
  0
ARC
  5
32F
100
AcDbEntity
  8
DOOR
100
AcDbCircle
 10
2598.4252
 20
809.0551
 30
0
 40
35.4331
100
AcDbArc
 50
90
 51
180
  0
LINE
  5
330
100
AcDbEntity
  8
DOOR
100
AcDbLine
 10
2598.4252
 20
809.0551
 30
0
 11
2562.9921
 21
809.0551
 31
0
  0
ARC
  5
331
100
AcDbEntity
  8
DOOR
100
AcDbCircle
 10
1753.9370
 20
236.2205
 30
0
 40
35.4331
100
AcDbArc
 50
0
 51
90
  0
LINE
  5
332
100
AcDbEntity
  8
DOOR
100
AcDbLine
 10
1753.9370
 20
236.2205
 30
0
 11
1753.9370
 21
271.6535
 31
0
  0
ARC
  5
333
100
AcDbEntity
  8
DOOR
100
AcDbCircle
 10
1990.1575
 20
236.2205
 30
0
 40
35.4331
100
AcDbArc
 50
0
 51
90
  0
LINE
  5
334
100
AcDbEntity
  8
DOOR
100
AcDbLine
 10
1990.1575
 20
236.2205
 30
0
 11
1990.1575
 21
271.6535
 31
0
  0
ARC
  5
335
100
AcDbEntity
  8
DOOR
100
AcDbCircle
 10
2226.3780
 20
236.2205
 30
0
 40
35.4331
100
AcDbArc
 50
0
 51
90
  0
LINE
  5
336
100
AcDbEntity
  8
DOOR
100
AcDbLine
 10
2226.3780
 20
236.2205
 30
0
 11
2226.3780
 21
271.6535
 31
0
  0
ARC
  5
337
100
AcDbEntity
  8
DOOR
100
AcDbCircle
 10
2462.5984
 20
236.2205
 30
0
 40
35.4331
100
AcDbArc
 50
0
 51
90
  0
LINE
  5
338
100
AcDbEntity
  8
DOOR
100
AcDbLine
 10
2462.5984
 20
236.2205
 30
0
 11
2462.5984
 21
271.6535
 31
0
  0
ARC
  5
339
100
AcDbEntity
  8
DOOR
100
AcDbCircle
 10
1753.9370
 20
472.4409
 30
0
 40
35.4331
100
AcDbArc
 50
0
 51
90
  0
LINE
  5
33A
100
AcDbEntity
  8
DOOR
100
AcDbLine
 10
1753.9370
 20
472.4409
 30
0
 11
1753.9370
 21
507.8740
 31
0
  0
ARC
  5
33B
100
AcDbEntity
  8
DOOR
100
AcDbCircle
 10
1990.1575
 20
472.4409
 30
0
 40
35.4331
100
AcDbArc
 50
0
 51
90
  0
LINE
  5
33C
100
AcDbEntity
  8
DOOR
100
AcDbLine
 10
1990.1575
 20
472.4409
 30
0
 11
1990.1575
 21
507.8740
 31
0
  0
ARC
  5
33D
100
AcDbEntity
  8
DOOR
100
AcDbCircle
 10
2226.3780
 20
472.4409
 30
0
 40
35.4331
100
AcDbArc
 50
0
 51
90
  0
LINE
  5
33E
100
AcDbEntity
  8
DOOR
100
AcDbLine
 10
2226.3780
 20
472.4409
 30
0
 11
2226.3780
 21
507.8740
 31
0
  0
ARC
  5
33F
100
AcDbEntity
  8
DOOR
100
AcDbCircle
 10
2462.5984
 20
472.4409
 30
0
 40
35.4331
100
AcDbArc
 50
0
 51
90
  0
LINE
  5
340
100
AcDbEntity
  8
DOOR
100
AcDbLine
 10
2462.5984
 20
472.4409
 30
0
 11
2462.5984
 21
507.8740
 31
0
  0
ARC
  5
341
100
AcDbEntity
  8
DOOR
100
AcDbCircle
 10
2698.8189
 20
472.4409
 30
0
 40
35.4331
100
AcDbArc
 50
0
 51
90
  0
LINE
  5
342
100
AcDbEntity
  8
DOOR
100
AcDbLine
 10
2698.8189
 20
472.4409
 30
0
 11
2698.8189
 21
507.8740
 31
0
  0
ARC
  5
343
100
AcDbEntity
  8
DOOR
100
AcDbCircle
 10
1753.9370
 20
708.6614
 30
0
 40
35.4331
100
AcDbArc
 50
0
 51
90
  0
LINE
  5
344
100
AcDbEntity
  8
DOOR
100
AcDbLine
 10
1753.9370
 20
708.6614
 30
0
 11
1753.9370
 21
744.0945
 31
0
  0
ARC
  5
345
100
AcDbEntity
  8
DOOR
100
AcDbCircle
 10
1990.1575
 20
708.6614
 30
0
 40
35.4331
100
AcDbArc
 50
0
 51
90
  0
LINE
  5
346
100
AcDbEntity
  8
DOOR
100
AcDbLine
 10
1990.1575
 20
708.6614
 30
0
 11
1990.1575
 21
744.0945
 31
0
  0
ARC
  5
347
100
AcDbEntity
  8
DOOR
100
AcDbCircle
 10
2226.3780
 20
708.6614
 30
0
 40
35.4331
100
AcDbArc
 50
0
 51
90
  0
LINE
  5
348
100
AcDbEntity
  8
DOOR
100
AcDbLine
 10
2226.3780
 20
708.6614
 30
0
 11
2226.3780
 21
744.0945
 31
0
  0
ARC
  5
349
100
AcDbEntity
  8
DOOR
100
AcDbCircle
 10
2462.5984
 20
708.6614
 30
0
 40
35.4331
100
AcDbArc
 50
0
 51
90
  0
LINE
  5
34A
100
AcDbEntity
  8
DOOR
100
AcDbLine
 10
2462.5984
 20
708.6614
 30
0
 11
2462.5984
 21
744.0945
 31
0
  0
ARC
  5
34B
100
AcDbEntity
  8
DOOR
100
AcDbCircle
 10
2698.8189
 20
708.6614
 30
0
 40
35.4331
100
AcDbArc
 50
0
 51
90
  0
LINE
  5
34C
100
AcDbEntity
  8
DOOR
100
AcDbLine
 10
2698.8189
 20
708.6614
 30
0
 11
2698.8189
 21
744.0945
 31
0
  0
ARC
  5
34D
100
AcDbEntity
  8
DOOR
100
AcDbCircle
 10
1990.1575
 20
944.8819
 30
0
 40
35.4331
100
AcDbArc
 50
0
 51
90
  0
LINE
  5
34E
100
AcDbEntity
  8
DOOR
100
AcDbLine
 10
1990.1575
 20
944.8819
 30
0
 11
1990.1575
 21
980.3150
 31
0
  0
ARC
  5
34F
100
AcDbEntity
  8
DOOR
100
AcDbCircle
 10
2226.3780
 20
944.8819
 30
0
 40
35.4331
100
AcDbArc
 50
0
 51
90
  0
LINE
  5
350
100
AcDbEntity
  8
DOOR
100
AcDbLine
 10
2226.3780
 20
944.8819
 30
0
 11
2226.3780
 21
980.3150
 31
0
  0
ARC
  5
351
100
AcDbEntity
  8
DOOR
100
AcDbCircle
 10
2462.5984
 20
944.8819
 30
0
 40
35.4331
100
AcDbArc
 50
0
 51
90
  0
LINE
  5
352
100
AcDbEntity
  8
DOOR
100
AcDbLine
 10
2462.5984
 20
944.8819
 30
0
 11
2462.5984
 21
980.3150
 31
0
  0
ARC
  5
353
100
AcDbEntity
  8
DOOR
100
AcDbCircle
 10
2698.8189
 20
944.8819
 30
0
 40
35.4331
100
AcDbArc
 50
0
 51
90
  0
LINE
  5
354
100
AcDbEntity
  8
DOOR
100
AcDbLine
 10
2698.8189
 20
944.8819
 30
0
 11
2698.8189
 21
980.3150
 31
0
  0
LINE
  5
355
100
AcDbEntity
  8
WALL
100
AcDbLine
370
50
 10
1647.6378
 20
0
 30
0
 11
1647.6378
 21
94.4882
 31
0
  0
LINE
  5
356
100
AcDbEntity
  8
WALL
100
AcDbLine
370
50
 10
1659.4488
 20
94.4882
 30
0
 11
1659.4488
 21
0
 31
0
  0
LINE
  5
357
100
AcDbEntity
  8
WALL
100
AcDbLine
370
50
 10
1647.6378
 20
141.7323
 30
0
 11
1647.6378
 21
236.2205
 31
0
  0
LINE
  5
358
100
AcDbEntity
  8
WALL
100
AcDbLine
370
50
 10
1659.4488
 20
236.2205
 30
0
 11
1659.4488
 21
141.7323
 31
0
  0
LINE
  5
359
100
AcDbEntity
  8
WALL
100
AcDbLine
370
50
 10
1647.6378
 20
94.4882
 30
0
 11
1659.4488
 21
94.4882
 31
0
  0
LINE
  5
35A
100
AcDbEntity
  8
WALL
100
AcDbLine
370
50
 10
1647.6378
 20
141.7323
 30
0
 11
1659.4488
 21
141.7323
 31
0
  0
LINE
  5
35B
100
AcDbEntity
  8
WALL
100
AcDbLine
370
50
 10
1647.6378
 20
236.2205
 30
0
 11
1647.6378
 21
330.7087
 31
0
  0
LINE
  5
35C
100
AcDbEntity
  8
WALL
100
AcDbLine
370
50
 10
1659.4488
 20
330.7087
 30
0
 11
1659.4488
 21
236.2205
 31
0
  0
LINE
  5
35D
100
AcDbEntity
  8
WALL
100
AcDbLine
370
50
 10
1647.6378
 20
377.9528
 30
0
 11
1647.6378
 21
472.4409
 31
0
  0
LINE
  5
35E
100
AcDbEntity
  8
WALL
100
AcDbLine
370
50
 10
1659.4488
 20
472.4409
 30
0
 11
1659.4488
 21
377.9528
 31
0
  0
LINE
  5
35F
100
AcDbEntity
  8
WALL
100
AcDbLine
370
50
 10
1647.6378
 20
330.7087
 30
0
 11
1659.4488
 21
330.7087
 31
0
  0
LINE
  5
360
100
AcDbEntity
  8
WALL
100
AcDbLine
370
50
 10
1647.6378
 20
377.9528
 30
0
 11
1659.4488
 21
377.9528
 31
0
  0
LINE
  5
361
100
AcDbEntity
  8
WALL
100
AcDbLine
370
50
 10
1647.6378
 20
472.4409
 30
0
 11
1647.6378
 21
566.9291
 31
0
  0
LINE
  5
362
100
AcDbEntity
  8
WALL
100
AcDbLine
370
50
 10
1659.4488
 20
566.9291
 30
0
 11
1659.4488
 21
472.4409
 31
0
  0
LINE
  5
363
100
AcDbEntity
  8
WALL
100
AcDbLine
370
50
 10
1647.6378
 20
614.1732
 30
0
 11
1647.6378
 21
708.6614
 31
0
  0
LINE
  5
364
100
AcDbEntity
  8
WALL
100
AcDbLine
370
50
 10
1659.4488
 20
708.6614
 30
0
 11
1659.4488
 21
614.1732
 31
0
  0
LINE
  5
365
100
AcDbEntity
  8
WALL
100
AcDbLine
370
50
 10
1647.6378
 20
566.9291
 30
0
 11
1659.4488
 21
566.9291
 31
0
  0
LINE
  5
366
100
AcDbEntity
  8
WALL
100
AcDbLine
370
50
 10
1647.6378
 20
614.1732
 30
0
 11
1659.4488
 21
614.1732
 31
0
  0
LINE
  5
367
100
AcDbEntity
  8
WALL
100
AcDbLine
370
50
 10
1647.6378
 20
708.6614
 30
0
 11
1647.6378
 21
803.1496
 31
0
  0
LINE
  5
368
100
AcDbEntity
  8
WALL
100
AcDbLine
370
50
 10
1659.4488
 20
803.1496
 30
0
 11
1659.4488
 21
708.6614
 31
0
  0
LINE
  5
369
100
AcDbEntity
  8
WALL
100
AcDbLine
370
50
 10
1647.6378
 20
850.3937
 30
0
 11
1647.6378
 21
944.8819
 31
0
  0
LINE
  5
36A
100
AcDbEntity
  8
WALL
100
AcDbLine
370
50
 10
1659.4488
 20
944.8819
 30
0
 11
1659.4488
 21
850.3937
 31
0
  0
LINE
  5
36B
100
AcDbEntity
  8
WALL
100
AcDbLine
370
50
 10
1647.6378
 20
803.1496
 30
0
 11
1659.4488
 21
803.1496
 31
0
  0
LINE
  5
36C
100
AcDbEntity
  8
WALL
100
AcDbLine
370
50
 10
1647.6378
 20
850.3937
 30
0
 11
1659.4488
 21
850.3937
 31
0
  0
LINE
  5
36D
100
AcDbEntity
  8
WALL
100
AcDbLine
370
50
 10
1647.6378
 20
944.8819
 30
0
 11
1647.6378
 21
1039.3701
 31
0
  0
LINE
  5
36E
100
AcDbEntity
  8
WALL
100
AcDbLine
370
50
 10
1659.4488
 20
1039.3701
 30
0
 11
1659.4488
 21
944.8819
 31
0
  0
LINE
  5
36F
100
AcDbEntity
  8
WALL
100
AcDbLine
370
50
 10
1647.6378
 20
1086.6142
 30
0
 11
1647.6378
 21
1181.1024
 31
0
  0
LINE
  5
370
100
AcDbEntity
  8
WALL
100
AcDbLine
370
50
 10
1659.4488
 20
1181.1024
 30
0
 11
1659.4488
 21
1086.6142
 31
0
  0
LINE
  5
371
100
AcDbEntity
  8
WALL
100
AcDbLine
370
50
 10
1647.6378
 20
1039.3701
 30
0
 11
1659.4488
 21
1039.3701
 31
0
  0
LINE
  5
372
100
AcDbEntity
  8
WALL
100
AcDbLine
370
50
 10
1647.6378
 20
1086.6142
 30
0
 11
1659.4488
 21
1086.6142
 31
0
  0
LINE
  5
373
100
AcDbEntity
  8
WALL
100
AcDbLine
370
50
 10
2828.7402
 20
0
 30
0
 11
2828.7402
 21
94.4882
 31
0
  0
LINE
  5
374
100
AcDbEntity
  8
WALL
100
AcDbLine
370
50
 10
2840.5512
 20
94.4882
 30
0
 11
2840.5512
 21
0
 31
0
  0
LINE
  5
375
100
AcDbEntity
  8
WALL
100
AcDbLine
370
50
 10
2828.7402
 20
141.7323
 30
0
 11
2828.7402
 21
236.2205
 31
0
  0
LINE
  5
376
100
AcDbEntity
  8
WALL
100
AcDbLine
370
50
 10
2840.5512
 20
236.2205
 30
0
 11
2840.5512
 21
141.7323
 31
0
  0
LINE
  5
377
100
AcDbEntity
  8
WALL
100
AcDbLine
370
50
 10
2828.7402
 20
94.4882
 30
0
 11
2840.5512
 21
94.4882
 31
0
  0
LINE
  5
378
100
AcDbEntity
  8
WALL
100
AcDbLine
370
50
 10
2828.7402
 20
141.7323
 30
0
 11
2840.5512
 21
141.7323
 31
0
  0
LINE
  5
379
100
AcDbEntity
  8
WALL
100
AcDbLine
370
50
 10
2828.7402
 20
236.2205
 30
0
 11
2828.7402
 21
330.7087
 31
0
  0
LINE
  5
37A
100
AcDbEntity
  8
WALL
100
AcDbLine
370
50
 10
2840.5512
 20
330.7087
 30
0
 11
2840.5512
 21
236.2205
 31
0
  0
LINE
  5
37B
100
AcDbEntity
  8
WALL
100
AcDbLine
370
50
 10
2828.7402
 20
377.9528
 30
0
 11
2828.7402
 21
472.4409
 31
0
  0
LINE
  5
37C
100
AcDbEntity
  8
WALL
100
AcDbLine
370
50
 10
2840.5512
 20
472.4409
 30
0
 11
2840.5512
 21
377.9528
 31
0
  0
LINE
  5
37D
100
AcDbEntity
  8
WALL
100
AcDbLine
370
50
 10
2828.7402
 20
330.7087
 30
0
 11
2840.5512
 21
330.7087
 31
0
  0
LINE
  5
37E
100
AcDbEntity
  8
WALL
100
AcDbLine
370
50
 10
2828.7402
 20
377.9528
 30
0
 11
2840.5512
 21
377.9528
 31
0
  0
LINE
  5
37F
100
AcDbEntity
  8
WALL
100
AcDbLine
370
50
 10
2828.7402
 20
472.4409
 30
0
 11
2828.7402
 21
566.9291
 31
0
  0
LINE
  5
380
100
AcDbEntity
  8
WALL
100
AcDbLine
370
50
 10
2840.5512
 20
566.9291
 30
0
 11
2840.5512
 21
472.4409
 31
0
  0
LINE
  5
381
100
AcDbEntity
  8
WALL
100
AcDbLine
370
50
 10
2828.7402
 20
614.1732
 30
0
 11
2828.7402
 21
708.6614
 31
0
  0
LINE
  5
382
100
AcDbEntity
  8
WALL
100
AcDbLine
370
50
 10
2840.5512
 20
708.6614
 30
0
 11
2840.5512
 21
614.1732
 31
0
  0
LINE
  5
383
100
AcDbEntity
  8
WALL
100
AcDbLine
370
50
 10
2828.7402
 20
566.9291
 30
0
 11
2840.5512
 21
566.9291
 31
0
  0
LINE
  5
384
100
AcDbEntity
  8
WALL
100
AcDbLine
370
50
 10
2828.7402
 20
614.1732
 30
0
 11
2840.5512
 21
614.1732
 31
0
  0
LINE
  5
385
100
AcDbEntity
  8
WALL
100
AcDbLine
370
50
 10
2828.7402
 20
708.6614
 30
0
 11
2828.7402
 21
803.1496
 31
0
  0
LINE
  5
386
100
AcDbEntity
  8
WALL
100
AcDbLine
370
50
 10
2840.5512
 20
803.1496
 30
0
 11
2840.5512
 21
708.6614
 31
0
  0
LINE
  5
387
100
AcDbEntity
  8
WALL
100
AcDbLine
370
50
 10
2828.7402
 20
850.3937
 30
0
 11
2828.7402
 21
944.8819
 31
0
  0
LINE
  5
388
100
AcDbEntity
  8
WALL
100
AcDbLine
370
50
 10
2840.5512
 20
944.8819
 30
0
 11
2840.5512
 21
850.3937
 31
0
  0
LINE
  5
389
100
AcDbEntity
  8
WALL
100
AcDbLine
370
50
 10
2828.7402
 20
803.1496
 30
0
 11
2840.5512
 21
803.1496
 31
0
  0
LINE
  5
38A
100
AcDbEntity
  8
WALL
100
AcDbLine
370
50
 10
2828.7402
 20
850.3937
 30
0
 11
2840.5512
 21
850.3937
 31
0
  0
LINE
  5
38B
100
AcDbEntity
  8
WALL
100
AcDbLine
370
50
 10
2828.7402
 20
944.8819
 30
0
 11
2828.7402
 21
1039.3701
 31
0
  0
LINE
  5
38C
100
AcDbEntity
  8
WALL
100
AcDbLine
370
50
 10
2840.5512
 20
1039.3701
 30
0
 11
2840.5512
 21
944.8819
 31
0
  0
LINE
  5
38D
100
AcDbEntity
  8
WALL
100
AcDbLine
370
50
 10
2828.7402
 20
1086.6142
 30
0
 11
2828.7402
 21
1181.1024
 31
0
  0
LINE
  5
38E
100
AcDbEntity
  8
WALL
100
AcDbLine
370
50
 10
2840.5512
 20
1181.1024
 30
0
 11
2840.5512
 21
1086.6142
 31
0
  0
LINE
  5
38F
100
AcDbEntity
  8
WALL
100
AcDbLine
370
50
 10
2828.7402
 20
1039.3701
 30
0
 11
2840.5512
 21
1039.3701
 31
0
  0
LINE
  5
390
100
AcDbEntity
  8
WALL
100
AcDbLine
370
50
 10
2828.7402
 20
1086.6142
 30
0
 11
2840.5512
 21
1086.6142
 31
0
  0
LINE
  5
391
100
AcDbEntity
  8
WALL
100
AcDbLine
370
50
 10
1653.5433
 20
-5.9055
 30
0
 11
1748.0315
 21
-5.9055
 31
0
  0
LINE
  5
392
100
AcDbEntity
  8
WALL
100
AcDbLine
370
50
 10
1748.0315
 20
5.9055
 30
0
 11
1653.5433
 21
5.9055
 31
0
  0
LINE
  5
393
100
AcDbEntity
  8
WALL
100
AcDbLine
370
50
 10
1795.2756
 20
-5.9055
 30
0
 11
1889.7638
 21
-5.9055
 31
0
  0
LINE
  5
394
100
AcDbEntity
  8
WALL
100
AcDbLine
370
50
 10
1889.7638
 20
5.9055
 30
0
 11
1795.2756
 21
5.9055
 31
0
  0
LINE
  5
395
100
AcDbEntity
  8
WALL
100
AcDbLine
370
50
 10
1748.0315
 20
-5.9055
 30
0
 11
1748.0315
 21
5.9055
 31
0
  0
LINE
  5
396
100
AcDbEntity
  8
WALL
100
AcDbLine
370
50
 10
1795.2756
 20
-5.9055
 30
0
 11
1795.2756
 21
5.9055
 31
0
  0
LINE
  5
397
100
AcDbEntity
  8
WALL
100
AcDbLine
370
50
 10
1889.7638
 20
-5.9055
 30
0
 11
1984.2520
 21
-5.9055
 31
0
  0
LINE
  5
398
100
AcDbEntity
  8
WALL
100
AcDbLine
370
50
 10
1984.2520
 20
5.9055
 30
0
 11
1889.7638
 21
5.9055
 31
0
  0
LINE
  5
399
100
AcDbEntity
  8
WALL
100
AcDbLine
370
50
 10
2031.4961
 20
-5.9055
 30
0
 11
2125.9843
 21
-5.9055
 31
0
  0
LINE
  5
39A
100
AcDbEntity
  8
WALL
100
AcDbLine
370
50
 10
2125.9843
 20
5.9055
 30
0
 11
2031.4961
 21
5.9055
 31
0
  0
LINE
  5
39B
100
AcDbEntity
  8
WALL
100
AcDbLine
370
50
 10
1984.2520
 20
-5.9055
 30
0
 11
1984.2520
 21
5.9055
 31
0
  0
LINE
  5
39C
100
AcDbEntity
  8
WALL
100
AcDbLine
370
50
 10
2031.4961
 20
-5.9055
 30
0
 11
2031.4961
 21
5.9055
 31
0
  0
LINE
  5
39D
100
AcDbEntity
  8
WALL
100
AcDbLine
370
50
 10
2125.9843
 20
-5.9055
 30
0
 11
2220.4724
 21
-5.9055
 31
0
  0
LINE
  5
39E
100
AcDbEntity
  8
WALL
100
AcDbLine
370
50
 10
2220.4724
 20
5.9055
 30
0
 11
2125.9843
 21
5.9055
 31
0
  0
LINE
  5
39F
100
AcDbEntity
  8
WALL
100
AcDbLine
370
50
 10
2267.7165
 20
-5.9055
 30
0
 11
2362.2047
 21
-5.9055
 31
0
  0
LINE
  5
3A0
100
AcDbEntity
  8
WALL
100
AcDbLine
370
50
 10
2362.2047
 20
5.9055
 30
0
 11
2267.7165
 21
5.9055
 31
0
  0
LINE
  5
3A1
100
AcDbEntity
  8
WALL
100
AcDbLine
370
50
 10
2220.4724
 20
-5.9055
 30
0
 11
2220.4724
 21
5.9055
 31
0
  0
LINE
  5
3A2
100
AcDbEntity
  8
WALL
100
AcDbLine
370
50
 10
2267.7165
 20
-5.9055
 30
0
 11
2267.7165
 21
5.9055
 31
0
  0
LINE
  5
3A3
100
AcDbEntity
  8
WALL
100
AcDbLine
370
50
 10
2362.2047
 20
-5.9055
 30
0
 11
2456.6929
 21
-5.9055
 31
0
  0
LINE
  5
3A4
100
AcDbEntity
  8
WALL
100
AcDbLine
370
50
 10
2456.6929
 20
5.9055
 30
0
 11
2362.2047
 21
5.9055
 31
0
  0
LINE
  5
3A5
100
AcDbEntity
  8
WALL
100
AcDbLine
370
50
 10
2503.9370
 20
-5.9055
 30
0
 11
2598.4252
 21
-5.9055
 31
0
  0
LINE
  5
3A6
100
AcDbEntity
  8
WALL
100
AcDbLine
370
50
 10
2598.4252
 20
5.9055
 30
0
 11
2503.9370
 21
5.9055
 31
0
  0
LINE
  5
3A7
100
AcDbEntity
  8
WALL
100
AcDbLine
370
50
 10
2456.6929
 20
-5.9055
 30
0
 11
2456.6929
 21
5.9055
 31
0
  0
LINE
  5
3A8
100
AcDbEntity
  8
WALL
100
AcDbLine
370
50
 10
2503.9370
 20
-5.9055
 30
0
 11
2503.9370
 21
5.9055
 31
0
  0
LINE
  5
3A9
100
AcDbEntity
  8
WALL
100
AcDbLine
370
50
 10
2598.4252
 20
-5.9055
 30
0
 11
2692.9134
 21
-5.9055
 31
0
  0
LINE
  5
3AA
100
AcDbEntity
  8
WALL
100
AcDbLine
370
50
 10
2692.9134
 20
5.9055
 30
0
 11
2598.4252
 21
5.9055
 31
0
  0
LINE
  5
3AB
100
AcDbEntity
  8
WALL
100
AcDbLine
370
50
 10
2740.1575
 20
-5.9055
 30
0
 11
2834.6457
 21
-5.9055
 31
0
  0
LINE
  5
3AC
100
AcDbEntity
  8
WALL
100
AcDbLine
370
50
 10
2834.6457
 20
5.9055
 30
0
 11
2740.1575
 21
5.9055
 31
0
  0
LINE
  5
3AD
100
AcDbEntity
  8
WALL
100
AcDbLine
370
50
 10
2692.9134
 20
-5.9055
 30
0
 11
2692.9134
 21
5.9055
 31
0
  0
LINE
  5
3AE
100
AcDbEntity
  8
WALL
100
AcDbLine
370
50
 10
2740.1575
 20
-5.9055
 30
0
 11
2740.1575
 21
5.9055
 31
0
  0
LINE
  5
3AF
100
AcDbEntity
  8
WALL
100
AcDbLine
370
50
 10
1653.5433
 20
1175.1969
 30
0
 11
1748.0315
 21
1175.1969
 31
0
  0
LINE
  5
3B0
100
AcDbEntity
  8
WALL
100
AcDbLine
370
50
 10
1748.0315
 20
1187.0079
 30
0
 11
1653.5433
 21
1187.0079
 31
0
  0
LINE
  5
3B1
100
AcDbEntity
  8
WALL
100
AcDbLine
370
50
 10
1795.2756
 20
1175.1969
 30
0
 11
1889.7638
 21
1175.1969
 31
0
  0
LINE
  5
3B2
100
AcDbEntity
  8
WALL
100
AcDbLine
370
50
 10
1889.7638
 20
1187.0079
 30
0
 11
1795.2756
 21
1187.0079
 31
0
  0
LINE
  5
3B3
100
AcDbEntity
  8
WALL
100
AcDbLine
370
50
 10
1748.0315
 20
1175.1969
 30
0
 11
1748.0315
 21
1187.0079
 31
0
  0
LINE
  5
3B4
100
AcDbEntity
  8
WALL
100
AcDbLine
370
50
 10
1795.2756
 20
1175.1969
 30
0
 11
1795.2756
 21
1187.0079
 31
0
  0
LINE
  5
3B5
100
AcDbEntity
  8
WALL
100
AcDbLine
370
50
 10
1889.7638
 20
1175.1969
 30
0
 11
1984.2520
 21
1175.1969
 31
0
  0
LINE
  5
3B6
100
AcDbEntity
  8
WALL
100
AcDbLine
370
50
 10
1984.2520
 20
1187.0079
 30
0
 11
1889.7638
 21
1187.0079
 31
0
  0
LINE
  5
3B7
100
AcDbEntity
  8
WALL
100
AcDbLine
370
50
 10
2031.4961
 20
1175.1969
 30
0
 11
2125.9843
 21
1175.1969
 31
0
  0
LINE
  5
3B8
100
AcDbEntity
  8
WALL
100
AcDbLine
370
50
 10
2125.9843
 20
1187.0079
 30
0
 11
2031.4961
 21
1187.0079
 31
0
  0
LINE
  5
3B9
100
AcDbEntity
  8
WALL
100
AcDbLine
370
50
 10
1984.2520
 20
1175.1969
 30
0
 11
1984.2520
 21
1187.0079
 31
0
  0
LINE
  5
3BA
100
AcDbEntity
  8
WALL
100
AcDbLine
370
50
 10
2031.4961
 20
1175.1969
 30
0
 11
2031.4961
 21
1187.0079
 31
0
  0
LINE
  5
3BB
100
AcDbEntity
  8
WALL
100
AcDbLine
370
50
 10
2125.9843
 20
1175.1969
 30
0
 11
2220.4724
 21
1175.1969
 31
0
  0
LINE
  5
3BC
100
AcDbEntity
  8
WALL
100
AcDbLine
370
50
 10
2220.4724
 20
1187.0079
 30
0
 11
2125.9843
 21
1187.0079
 31
0
  0
LINE
  5
3BD
100
AcDbEntity
  8
WALL
100
AcDbLine
370
50
 10
2267.7165
 20
1175.1969
 30
0
 11
2362.2047
 21
1175.1969
 31
0
  0
LINE
  5
3BE
100
AcDbEntity
  8
WALL
100
AcDbLine
370
50
 10
2362.2047
 20
1187.0079
 30
0
 11
2267.7165
 21
1187.0079
 31
0
  0
LINE
  5
3BF
100
AcDbEntity
  8
WALL
100
AcDbLine
370
50
 10
2220.4724
 20
1175.1969
 30
0
 11
2220.4724
 21
1187.0079
 31
0
  0
LINE
  5
3C0
100
AcDbEntity
  8
WALL
100
AcDbLine
370
50
 10
2267.7165
 20
1175.1969
 30
0
 11
2267.7165
 21
1187.0079
 31
0
  0
LINE
  5
3C1
100
AcDbEntity
  8
WALL
100
AcDbLine
370
50
 10
2362.2047
 20
1175.1969
 30
0
 11
2456.6929
 21
1175.1969
 31
0
  0
LINE
  5
3C2
100
AcDbEntity
  8
WALL
100
AcDbLine
370
50
 10
2456.6929
 20
1187.0079
 30
0
 11
2362.2047
 21
1187.0079
 31
0
  0
LINE
  5
3C3
100
AcDbEntity
  8
WALL
100
AcDbLine
370
50
 10
2503.9370
 20
1175.1969
 30
0
 11
2598.4252
 21
1175.1969
 31
0
  0
LINE
  5
3C4
100
AcDbEntity
  8
WALL
100
AcDbLine
370
50
 10
2598.4252
 20
1187.0079
 30
0
 11
2503.9370
 21
1187.0079
 31
0
  0
LINE
  5
3C5
100
AcDbEntity
  8
WALL
100
AcDbLine
370
50
 10
2456.6929
 20
1175.1969
 30
0
 11
2456.6929
 21
1187.0079
 31
0
  0
LINE
  5
3C6
100
AcDbEntity
  8
WALL
100
AcDbLine
370
50
 10
2503.9370
 20
1175.1969
 30
0
 11
2503.9370
 21
1187.0079
 31
0
  0
LINE
  5
3C7
100
AcDbEntity
  8
WALL
100
AcDbLine
370
50
 10
2598.4252
 20
1175.1969
 30
0
 11
2692.9134
 21
1175.1969
 31
0
  0
LINE
  5
3C8
100
AcDbEntity
  8
WALL
100
AcDbLine
370
50
 10
2692.9134
 20
1187.0079
 30
0
 11
2598.4252
 21
1187.0079
 31
0
  0
LINE
  5
3C9
100
AcDbEntity
  8
WALL
100
AcDbLine
370
50
 10
2740.1575
 20
1175.1969
 30
0
 11
2834.6457
 21
1175.1969
 31
0
  0
LINE
  5
3CA
100
AcDbEntity
  8
WALL
100
AcDbLine
370
50
 10
2834.6457
 20
1187.0079
 30
0
 11
2740.1575
 21
1187.0079
 31
0
  0
LINE
  5
3CB
100
AcDbEntity
  8
WALL
100
AcDbLine
370
50
 10
2692.9134
 20
1175.1969
 30
0
 11
2692.9134
 21
1187.0079
 31
0
  0
LINE
  5
3CC
100
AcDbEntity
  8
WALL
100
AcDbLine
370
50
 10
2740.1575
 20
1175.1969
 30
0
 11
2740.1575
 21
1187.0079
 31
0
  0
LINE
  5
3CD
100
AcDbEntity
  8
WALL
100
AcDbLine
370
50
 10
1886.8110
 20
0
 30
0
 11
1886.8110
 21
236.2205
 31
0
  0
LINE
  5
3CE
100
AcDbEntity
  8
WALL
100
AcDbLine
370
50
 10
1892.7165
 20
236.2205
 30
0
 11
1892.7165
 21
0
 31
0
  0
LINE
  5
3CF
100
AcDbEntity
  8
WALL
100
AcDbLine
370
50
 10
1886.8110
 20
236.2205
 30
0
 11
1886.8110
 21
336.6142
 31
0
  0
LINE
  5
3D0
100
AcDbEntity
  8
WALL
100
AcDbLine
370
50
 10
1892.7165
 20
336.6142
 30
0
 11
1892.7165
 21
236.2205
 31
0
  0
LINE
  5
3D1
100
AcDbEntity
  8
WALL
100
AcDbLine
370
50
 10
1886.8110
 20
372.0472
 30
0
 11
1886.8110
 21
472.4409
 31
0
  0
LINE
  5
3D2
100
AcDbEntity
  8
WALL
100
AcDbLine
370
50
 10
1892.7165
 20
472.4409
 30
0
 11
1892.7165
 21
372.0472
 31
0
  0
LINE
  5
3D3
100
AcDbEntity
  8
WALL
100
AcDbLine
370
50
 10
1886.8110
 20
336.6142
 30
0
 11
1892.7165
 21
336.6142
 31
0
  0
LINE
  5
3D4
100
AcDbEntity
  8
WALL
100
AcDbLine
370
50
 10
1886.8110
 20
372.0472
 30
0
 11
1892.7165
 21
372.0472
 31
0
  0
LINE
  5
3D5
100
AcDbEntity
  8
WALL
100
AcDbLine
370
50
 10
1886.8110
 20
472.4409
 30
0
 11
1886.8110
 21
572.8346
 31
0
  0
LINE
  5
3D6
100
AcDbEntity
  8
WALL
100
AcDbLine
370
50
 10
1892.7165
 20
572.8346
 30
0
 11
1892.7165
 21
472.4409
 31
0
  0
LINE
  5
3D7
100
AcDbEntity
  8
WALL
100
AcDbLine
370
50
 10
1886.8110
 20
608.2677
 30
0
 11
1886.8110
 21
708.6614
 31
0
  0
LINE
  5
3D8
100
AcDbEntity
  8
WALL
100
AcDbLine
370
50
 10
1892.7165
 20
708.6614
 30
0
 11
1892.7165
 21
608.2677
 31
0
  0
LINE
  5
3D9
100
AcDbEntity
  8
WALL
100
AcDbLine
370
50
 10
1886.8110
 20
572.8346
 30
0
 11
1892.7165
 21
572.8346
 31
0
  0
LINE
  5
3DA
100
AcDbEntity
  8
WALL
100
AcDbLine
370
50
 10
1886.8110
 20
608.2677
 30
0
 11
1892.7165
 21
608.2677
 31
0
  0
LINE
  5
3DB
100
AcDbEntity
  8
WALL
100
AcDbLine
370
50
 10
1886.8110
 20
708.6614
 30
0
 11
1886.8110
 21
809.0551
 31
0
  0
LINE
  5
3DC
100
AcDbEntity
  8
WALL
100
AcDbLine
370
50
 10
1892.7165
 20
809.0551
 30
0
 11
1892.7165
 21
708.6614
 31
0
  0
LINE
  5
3DD
100
AcDbEntity
  8
WALL
100
AcDbLine
370
50
 10
1886.8110
 20
844.4882
 30
0
 11
1886.8110
 21
944.8819
 31
0
  0
LINE
  5
3DE
100
AcDbEntity
  8
WALL
100
AcDbLine
370
50
 10
1892.7165
 20
944.8819
 30
0
 11
1892.7165
 21
844.4882
 31
0
  0
LINE
  5
3DF
100
AcDbEntity
  8
WALL
100
AcDbLine
370
50
 10
1886.8110
 20
809.0551
 30
0
 11
1892.7165
 21
809.0551
 31
0
  0
LINE
  5
3E0
100
AcDbEntity
  8
WALL
100
AcDbLine
370
50
 10
1886.8110
 20
844.4882
 30
0
 11
1892.7165
 21
844.4882
 31
0
  0
LINE
  5
3E1
100
AcDbEntity
  8
WALL
100
AcDbLine
370
50
 10
1886.8110
 20
944.8819
 30
0
 11
1886.8110
 21
1045.2756
 31
0
  0
LINE
  5
3E2
100
AcDbEntity
  8
WALL
100
AcDbLine
370
50
 10
1892.7165
 20
1045.2756
 30
0
 11
1892.7165
 21
944.8819
 31
0
  0
LINE
  5
3E3
100
AcDbEntity
  8
WALL
100
AcDbLine
370
50
 10
1886.8110
 20
1080.7087
 30
0
 11
1886.8110
 21
1181.1024
 31
0
  0
LINE
  5
3E4
100
AcDbEntity
  8
WALL
100
AcDbLine
370
50
 10
1892.7165
 20
1181.1024
 30
0
 11
1892.7165
 21
1080.7087
 31
0
  0
LINE
  5
3E5
100
AcDbEntity
  8
WALL
100
AcDbLine
370
50
 10
1886.8110
 20
1045.2756
 30
0
 11
1892.7165
 21
1045.2756
 31
0
  0
LINE
  5
3E6
100
AcDbEntity
  8
WALL
100
AcDbLine
370
50
 10
1886.8110
 20
1080.7087
 30
0
 11
1892.7165
 21
1080.7087
 31
0
  0
LINE
  5
3E7
100
AcDbEntity
  8
WALL
100
AcDbLine
370
50
 10
2123.0315
 20
0
 30
0
 11
2123.0315
 21
100.3937
 31
0
  0
LINE
  5
3E8
100
AcDbEntity
  8
WALL
100
AcDbLine
370
50
 10
2128.9370
 20
100.3937
 30
0
 11
2128.9370
 21
0
 31
0
  0
LINE
  5
3E9
100
AcDbEntity
  8
WALL
100
AcDbLine
370
50
 10
2123.0315
 20
135.8268
 30
0
 11
2123.0315
 21
236.2205
 31
0
  0
LINE
  5
3EA
100
AcDbEntity
  8
WALL
100
AcDbLine
370
50
 10
2128.9370
 20
236.2205
 30
0
 11
2128.9370
 21
135.8268
 31
0
  0
LINE
  5
3EB
100
AcDbEntity
  8
WALL
100
AcDbLine
370
50
 10
2123.0315
 20
100.3937
 30
0
 11
2128.9370
 21
100.3937
 31
0
  0
LINE
  5
3EC
100
AcDbEntity
  8
WALL
100
AcDbLine
370
50
 10
2123.0315
 20
135.8268
 30
0
 11
2128.9370
 21
135.8268
 31
0
  0
LINE
  5
3ED
100
AcDbEntity
  8
WALL
100
AcDbLine
370
50
 10
2123.0315
 20
236.2205
 30
0
 11
2123.0315
 21
336.6142
 31
0
  0
LINE
  5
3EE
100
AcDbEntity
  8
WALL
100
AcDbLine
370
50
 10
2128.9370
 20
336.6142
 30
0
 11
2128.9370
 21
236.2205
 31
0
  0
LINE
  5
3EF
100
AcDbEntity
  8
WALL
100
AcDbLine
370
50
 10
2123.0315
 20
372.0472
 30
0
 11
2123.0315
 21
472.4409
 31
0
  0
LINE
  5
3F0
100
AcDbEntity
  8
WALL
100
AcDbLine
370
50
 10
2128.9370
 20
472.4409
 30
0
 11
2128.9370
 21
372.0472
 31
0
  0
LINE
  5
3F1
100
AcDbEntity
  8
WALL
100
AcDbLine
370
50
 10
2123.0315
 20
336.6142
 30
0
 11
2128.9370
 21
336.6142
 31
0
  0
LINE
  5
3F2
100
AcDbEntity
  8
WALL
100
AcDbLine
370
50
 10
2123.0315
 20
372.0472
 30
0
 11
2128.9370
 21
372.0472
 31
0
  0
LINE
  5
3F3
100
AcDbEntity
  8
WALL
100
AcDbLine
370
50
 10
2123.0315
 20
472.4409
 30
0
 11
2123.0315
 21
708.6614
 31
0
  0
LINE
  5
3F4
100
AcDbEntity
  8
WALL
100
AcDbLine
370
50
 10
2128.9370
 20
708.6614
 30
0
 11
2128.9370
 21
472.4409
 31
0
  0
LINE
  5
3F5
100
AcDbEntity
  8
WALL
100
AcDbLine
370
50
 10
2123.0315
 20
708.6614
 30
0
 11
2123.0315
 21
809.0551
 31
0
  0
LINE
  5
3F6
100
AcDbEntity
  8
WALL
100
AcDbLine
370
50
 10
2128.9370
 20
809.0551
 30
0
 11
2128.9370
 21
708.6614
 31
0
  0
LINE
  5
3F7
100
AcDbEntity
  8
WALL
100
AcDbLine
370
50
 10
2123.0315
 20
844.4882
 30
0
 11
2123.0315
 21
944.8819
 31
0
  0
LINE
  5
3F8
100
AcDbEntity
  8
WALL
100
AcDbLine
370
50
 10
2128.9370
 20
944.8819
 30
0
 11
2128.9370
 21
844.4882
 31
0
  0
LINE
  5
3F9
100
AcDbEntity
  8
WALL
100
AcDbLine
370
50
 10
2123.0315
 20
809.0551
 30
0
 11
2128.9370
 21
809.0551
 31
0
  0
LINE
  5
3FA
100
AcDbEntity
  8
WALL
100
AcDbLine
370
50
 10
2123.0315
 20
844.4882
 30
0
 11
2128.9370
 21
844.4882
 31
0
  0
LINE
  5
3FB
100
AcDbEntity
  8
WALL
100
AcDbLine
370
50
 10
2123.0315
 20
944.8819
 30
0
 11
2123.0315
 21
1045.2756
 31
0
  0
LINE
  5
3FC
100
AcDbEntity
  8
WALL
100
AcDbLine
370
50
 10
2128.9370
 20
1045.2756
 30
0
 11
2128.9370
 21
944.8819
 31
0
  0
LINE
  5
3FD
100
AcDbEntity
  8
WALL
100
AcDbLine
370
50
 10
2123.0315
 20
1080.7087
 30
0
 11
2123.0315
 21
1181.1024
 31
0
  0
LINE
  5
3FE
100
AcDbEntity
  8
WALL
100
AcDbLine
370
50
 10
2128.9370
 20
1181.1024
 30
0
 11
2128.9370
 21
1080.7087
 31
0
  0
LINE
  5
3FF
100
AcDbEntity
  8
WALL
100
AcDbLine
370
50
 10
2123.0315
 20
1045.2756
 30
0
 11
2128.9370
 21
1045.2756
 31
0
  0
LINE
  5
400
100
AcDbEntity
  8
WALL
100
AcDbLine
370
50
 10
2123.0315
 20
1080.7087
 30
0
 11
2128.9370
 21
1080.7087
 31
0
  0
LINE
  5
401
100
AcDbEntity
  8
WALL
100
AcDbLine
370
50
 10
2359.2520
 20
0
 30
0
 11
2359.2520
 21
100.3937
 31
0
  0
LINE
  5
402
100
AcDbEntity
  8
WALL
100
AcDbLine
370
50
 10
2365.1575
 20
100.3937
 30
0
 11
2365.1575
 21
0
 31
0
  0
LINE
  5
403
100
AcDbEntity
  8
WALL
100
AcDbLine
370
50
 10
2359.2520
 20
135.8268
 30
0
 11
2359.2520
 21
236.2205
 31
0
  0
LINE
  5
404
100
AcDbEntity
  8
WALL
100
AcDbLine
370
50
 10
2365.1575
 20
236.2205
 30
0
 11
2365.1575
 21
135.8268
 31
0
  0
LINE
  5
405
100
AcDbEntity
  8
WALL
100
AcDbLine
370
50
 10
2359.2520
 20
100.3937
 30
0
 11
2365.1575
 21
100.3937
 31
0
  0
LINE
  5
406
100
AcDbEntity
  8
WALL
100
AcDbLine
370
50
 10
2359.2520
 20
135.8268
 30
0
 11
2365.1575
 21
135.8268
 31
0
  0
LINE
  5
407
100
AcDbEntity
  8
WALL
100
AcDbLine
370
50
 10
2359.2520
 20
236.2205
 30
0
 11
2359.2520
 21
336.6142
 31
0
  0
LINE
  5
408
100
AcDbEntity
  8
WALL
100
AcDbLine
370
50
 10
2365.1575
 20
336.6142
 30
0
 11
2365.1575
 21
236.2205
 31
0
  0
LINE
  5
409
100
AcDbEntity
  8
WALL
100
AcDbLine
370
50
 10
2359.2520
 20
372.0472
 30
0
 11
2359.2520
 21
472.4409
 31
0
  0
LINE
  5
40A
100
AcDbEntity
  8
WALL
100
AcDbLine
370
50
 10
2365.1575
 20
472.4409
 30
0
 11
2365.1575
 21
372.0472
 31
0
  0
LINE
  5
40B
100
AcDbEntity
  8
WALL
100
AcDbLine
370
50
 10
2359.2520
 20
336.6142
 30
0
 11
2365.1575
 21
336.6142
 31
0
  0
LINE
  5
40C
100
AcDbEntity
  8
WALL
100
AcDbLine
370
50
 10
2359.2520
 20
372.0472
 30
0
 11
2365.1575
 21
372.0472
 31
0
  0
LINE
  5
40D
100
AcDbEntity
  8
WALL
100
AcDbLine
370
50
 10
2359.2520
 20
472.4409
 30
0
 11
2359.2520
 21
572.8346
 31
0
  0
LINE
  5
40E
100
AcDbEntity
  8
WALL
100
AcDbLine
370
50
 10
2365.1575
 20
572.8346
 30
0
 11
2365.1575
 21
472.4409
 31
0
  0
LINE
  5
40F
100
AcDbEntity
  8
WALL
100
AcDbLine
370
50
 10
2359.2520
 20
608.2677
 30
0
 11
2359.2520
 21
708.6614
 31
0
  0
LINE
  5
410
100
AcDbEntity
  8
WALL
100
AcDbLine
370
50
 10
2365.1575
 20
708.6614
 30
0
 11
2365.1575
 21
608.2677
 31
0
  0
LINE
  5
411
100
AcDbEntity
  8
WALL
100
AcDbLine
370
50
 10
2359.2520
 20
572.8346
 30
0
 11
2365.1575
 21
572.8346
 31
0
  0
LINE
  5
412
100
AcDbEntity
  8
WALL
100
AcDbLine
370
50
 10
2359.2520
 20
608.2677
 30
0
 11
2365.1575
 21
608.2677
 31
0
  0
LINE
  5
413
100
AcDbEntity
  8
WALL
100
AcDbLine
370
50
 10
2359.2520
 20
708.6614
 30
0
 11
2359.2520
 21
809.0551
 31
0
  0
LINE
  5
414
100
AcDbEntity
  8
WALL
100
AcDbLine
370
50
 10
2365.1575
 20
809.0551
 30
0
 11
2365.1575
 21
708.6614
 31
0
  0
LINE
  5
415
100
AcDbEntity
  8
WALL
100
AcDbLine
370
50
 10
2359.2520
 20
844.4882
 30
0
 11
2359.2520
 21
944.8819
 31
0
  0
LINE
  5
416
100
AcDbEntity
  8
WALL
100
AcDbLine
370
50
 10
2365.1575
 20
944.8819
 30
0
 11
2365.1575
 21
844.4882
 31
0
  0
LINE
  5
417
100
AcDbEntity
  8
WALL
100
AcDbLine
370
50
 10
2359.2520
 20
809.0551
 30
0
 11
2365.1575
 21
809.0551
 31
0
  0
LINE
  5
418
100
AcDbEntity
  8
WALL
100
AcDbLine
370
50
 10
2359.2520
 20
844.4882
 30
0
 11
2365.1575
 21
844.4882
 31
0
  0
LINE
  5
419
100
AcDbEntity
  8
WALL
100
AcDbLine
370
50
 10
2359.2520
 20
944.8819
 30
0
 11
2359.2520
 21
1045.2756
 31
0
  0
LINE
  5
41A
100
AcDbEntity
  8
WALL
100
AcDbLine
370
50
 10
2365.1575
 20
1045.2756
 30
0
 11
2365.1575
 21
944.8819
 31
0
  0
LINE
  5
41B
100
AcDbEntity
  8
WALL
100
AcDbLine
370
50
 10
2359.2520
 20
1080.7087
 30
0
 11
2359.2520
 21
1181.1024
 31
0
  0
LINE
  5
41C
100
AcDbEntity
  8
WALL
100
AcDbLine
370
50
 10
2365.1575
 20
1181.1024
 30
0
 11
2365.1575
 21
1080.7087
 31
0
  0
LINE
  5
41D
100
AcDbEntity
  8
WALL
100
AcDbLine
370
50
 10
2359.2520
 20
1045.2756
 30
0
 11
2365.1575
 21
1045.2756
 31
0
  0
LINE
  5
41E
100
AcDbEntity
  8
WALL
100
AcDbLine
370
50
 10
2359.2520
 20
1080.7087
 30
0
 11
2365.1575
 21
1080.7087
 31
0
  0
LINE
  5
41F
100
AcDbEntity
  8
WALL
100
AcDbLine
370
50
 10
2595.4724
 20
0
 30
0
 11
2595.4724
 21
100.3937
 31
0
  0
LINE
  5
420
100
AcDbEntity
  8
WALL
100
AcDbLine
370
50
 10
2601.3780
 20
100.3937
 30
0
 11
2601.3780
 21
0
 31
0
  0
LINE
  5
421
100
AcDbEntity
  8
WALL
100
AcDbLine
370
50
 10
2595.4724
 20
135.8268
 30
0
 11
2595.4724
 21
236.2205
 31
0
  0
LINE
  5
422
100
AcDbEntity
  8
WALL
100
AcDbLine
370
50
 10
2601.3780
 20
236.2205
 30
0
 11
2601.3780
 21
135.8268
 31
0
  0
LINE
  5
423
100
AcDbEntity
  8
WALL
100
AcDbLine
370
50
 10
2595.4724
 20
100.3937
 30
0
 11
2601.3780
 21
100.3937
 31
0
  0
LINE
  5
424
100
AcDbEntity
  8
WALL
100
AcDbLine
370
50
 10
2595.4724
 20
135.8268
 30
0
 11
2601.3780
 21
135.8268
 31
0
  0
LINE
  5
425
100
AcDbEntity
  8
WALL
100
AcDbLine
370
50
 10
2595.4724
 20
236.2205
 30
0
 11
2595.4724
 21
336.6142
 31
0
  0
LINE
  5
426
100
AcDbEntity
  8
WALL
100
AcDbLine
370
50
 10
2601.3780
 20
336.6142
 30
0
 11
2601.3780
 21
236.2205
 31
0
  0
LINE
  5
427
100
AcDbEntity
  8
WALL
100
AcDbLine
370
50
 10
2595.4724
 20
372.0472
 30
0
 11
2595.4724
 21
472.4409
 31
0
  0
LINE
  5
428
100
AcDbEntity
  8
WALL
100
AcDbLine
370
50
 10
2601.3780
 20
472.4409
 30
0
 11
2601.3780
 21
372.0472
 31
0
  0
LINE
  5
429
100
AcDbEntity
  8
WALL
100
AcDbLine
370
50
 10
2595.4724
 20
336.6142
 30
0
 11
2601.3780
 21
336.6142
 31
0
  0
LINE
  5
42A
100
AcDbEntity
  8
WALL
100
AcDbLine
370
50
 10
2595.4724
 20
372.0472
 30
0
 11
2601.3780
 21
372.0472
 31
0
  0
LINE
  5
42B
100
AcDbEntity
  8
WALL
100
AcDbLine
370
50
 10
2595.4724
 20
472.4409
 30
0
 11
2595.4724
 21
572.8346
 31
0
  0
LINE
  5
42C
100
AcDbEntity
  8
WALL
100
AcDbLine
370
50
 10
2601.3780
 20
572.8346
 30
0
 11
2601.3780
 21
472.4409
 31
0
  0
LINE
  5
42D
100
AcDbEntity
  8
WALL
100
AcDbLine
370
50
 10
2595.4724
 20
608.2677
 30
0
 11
2595.4724
 21
708.6614
 31
0
  0
LINE
  5
42E
100
AcDbEntity
  8
WALL
100
AcDbLine
370
50
 10
2601.3780
 20
708.6614
 30
0
 11
2601.3780
 21
608.2677
 31
0
  0
LINE
  5
42F
100
AcDbEntity
  8
WALL
100
AcDbLine
370
50
 10
2595.4724
 20
572.8346
 30
0
 11
2601.3780
 21
572.8346
 31
0
  0
LINE
  5
430
100
AcDbEntity
  8
WALL
100
AcDbLine
370
50
 10
2595.4724
 20
608.2677
 30
0
 11
2601.3780
 21
608.2677
 31
0
  0
LINE
  5
431
100
AcDbEntity
  8
WALL
100
AcDbLine
370
50
 10
2595.4724
 20
708.6614
 30
0
 11
2595.4724
 21
809.0551
 31
0
  0
LINE
  5
432
100
AcDbEntity
  8
WALL
100
AcDbLine
370
50
 10
2601.3780
 20
809.0551
 30
0
 11
2601.3780
 21
708.6614
 31
0
  0
LINE
  5
433
100
AcDbEntity
  8
WALL
100
AcDbLine
370
50
 10
2595.4724
 20
844.4882
 30
0
 11
2595.4724
 21
944.8819
 31
0
  0
LINE
  5
434
100
AcDbEntity
  8
WALL
100
AcDbLine
370
50
 10
2601.3780
 20
944.8819
 30
0
 11
2601.3780
 21
844.4882
 31
0
  0
LINE
  5
435
100
AcDbEntity
  8
WALL
100
AcDbLine
370
50
 10
2595.4724
 20
809.0551
 30
0
 11
2601.3780
 21
809.0551
 31
0
  0
LINE
  5
436
100
AcDbEntity
  8
WALL
100
AcDbLine
370
50
 10
2595.4724
 20
844.4882
 30
0
 11
2601.3780
 21
844.4882
 31
0
  0
LINE
  5
437
100
AcDbEntity
  8
WALL
100
AcDbLine
370
50
 10
2595.4724
 20
944.8819
 30
0
 11
2595.4724
 21
1181.1024
 31
0
  0
LINE
  5
438
100
AcDbEntity
  8
WALL
100
AcDbLine
370
50
 10
2601.3780
 20
1181.1024
 30
0
 11
2601.3780
 21
944.8819
 31
0
  0
LINE
  5
439
100
AcDbEntity
  8
WALL
100
AcDbLine
370
50
 10
1653.5433
 20
233.2677
 30
0
 11
1753.9370
 21
233.2677
 31
0
  0
LINE
  5
43A
100
AcDbEntity
  8
WALL
100
AcDbLine
370
50
 10
1753.9370
 20
239.1732
 30
0
 11
1653.5433
 21
239.1732
 31
0
  0
LINE
  5
43B
100
AcDbEntity
  8
WALL
100
AcDbLine
370
50
 10
1789.3701
 20
233.2677
 30
0
 11
1889.7638
 21
233.2677
 31
0
  0
LINE
  5
43C
100
AcDbEntity
  8
WALL
100
AcDbLine
370
50
 10
1889.7638
 20
239.1732
 30
0
 11
1789.3701
 21
239.1732
 31
0
  0
LINE
  5
43D
100
AcDbEntity
  8
WALL
100
AcDbLine
370
50
 10
1753.9370
 20
233.2677
 30
0
 11
1753.9370
 21
239.1732
 31
0
  0
LINE
  5
43E
100
AcDbEntity
  8
WALL
100
AcDbLine
370
50
 10
1789.3701
 20
233.2677
 30
0
 11
1789.3701
 21
239.1732
 31
0
  0
LINE
  5
43F
100
AcDbEntity
  8
WALL
100
AcDbLine
370
50
 10
1889.7638
 20
233.2677
 30
0
 11
1990.1575
 21
233.2677
 31
0
  0
LINE
  5
440
100
AcDbEntity
  8
WALL
100
AcDbLine
370
50
 10
1990.1575
 20
239.1732
 30
0
 11
1889.7638
 21
239.1732
 31
0
  0
LINE
  5
441
100
AcDbEntity
  8
WALL
100
AcDbLine
370
50
 10
2025.5906
 20
233.2677
 30
0
 11
2125.9843
 21
233.2677
 31
0
  0
LINE
  5
442
100
AcDbEntity
  8
WALL
100
AcDbLine
370
50
 10
2125.9843
 20
239.1732
 30
0
 11
2025.5906
 21
239.1732
 31
0
  0
LINE
  5
443
100
AcDbEntity
  8
WALL
100
AcDbLine
370
50
 10
1990.1575
 20
233.2677
 30
0
 11
1990.1575
 21
239.1732
 31
0
  0
LINE
  5
444
100
AcDbEntity
  8
WALL
100
AcDbLine
370
50
 10
2025.5906
 20
233.2677
 30
0
 11
2025.5906
 21
239.1732
 31
0
  0
LINE
  5
445
100
AcDbEntity
  8
WALL
100
AcDbLine
370
50
 10
2125.9843
 20
233.2677
 30
0
 11
2226.3780
 21
233.2677
 31
0
  0
LINE
  5
446
100
AcDbEntity
  8
WALL
100
AcDbLine
370
50
 10
2226.3780
 20
239.1732
 30
0
 11
2125.9843
 21
239.1732
 31
0
  0
LINE
  5
447
100
AcDbEntity
  8
WALL
100
AcDbLine
370
50
 10
2261.8110
 20
233.2677
 30
0
 11
2362.2047
 21
233.2677
 31
0
  0
LINE
  5
448
100
AcDbEntity
  8
WALL
100
AcDbLine
370
50
 10
2362.2047
 20
239.1732
 30
0
 11
2261.8110
 21
239.1732
 31
0
  0
LINE
  5
449
100
AcDbEntity
  8
WALL
100
AcDbLine
370
50
 10
2226.3780
 20
233.2677
 30
0
 11
2226.3780
 21
239.1732
 31
0
  0
LINE
  5
44A
100
AcDbEntity
  8
WALL
100
AcDbLine
370
50
 10
2261.8110
 20
233.2677
 30
0
 11
2261.8110
 21
239.1732
 31
0
  0
LINE
  5
44B
100
AcDbEntity
  8
WALL
100
AcDbLine
370
50
 10
2362.2047
 20
233.2677
 30
0
 11
2462.5984
 21
233.2677
 31
0
  0
LINE
  5
44C
100
AcDbEntity
  8
WALL
100
AcDbLine
370
50
 10
2462.5984
 20
239.1732
 30
0
 11
2362.2047
 21
239.1732
 31
0
  0
LINE
  5
44D
100
AcDbEntity
  8
WALL
100
AcDbLine
370
50
 10
2498.0315
 20
233.2677
 30
0
 11
2598.4252
 21
233.2677
 31
0
  0
LINE
  5
44E
100
AcDbEntity
  8
WALL
100
AcDbLine
370
50
 10
2598.4252
 20
239.1732
 30
0
 11
2498.0315
 21
239.1732
 31
0
  0
LINE
  5
44F
100
AcDbEntity
  8
WALL
100
AcDbLine
370
50
 10
2462.5984
 20
233.2677
 30
0
 11
2462.5984
 21
239.1732
 31
0
  0
LINE
  5
450
100
AcDbEntity
  8
WALL
100
AcDbLine
370
50
 10
2498.0315
 20
233.2677
 30
0
 11
2498.0315
 21
239.1732
 31
0
  0
LINE
  5
451
100
AcDbEntity
  8
WALL
100
AcDbLine
370
50
 10
2598.4252
 20
233.2677
 30
0
 11
2834.6457
 21
233.2677
 31
0
  0
LINE
  5
452
100
AcDbEntity
  8
WALL
100
AcDbLine
370
50
 10
2834.6457
 20
239.1732
 30
0
 11
2598.4252
 21
239.1732
 31
0
  0
LINE
  5
453
100
AcDbEntity
  8
WALL
100
AcDbLine
370
50
 10
1653.5433
 20
469.4882
 30
0
 11
1753.9370
 21
469.4882
 31
0
  0
LINE
  5
454
100
AcDbEntity
  8
WALL
100
AcDbLine
370
50
 10
1753.9370
 20
475.3937
 30
0
 11
1653.5433
 21
475.3937
 31
0
  0
LINE
  5
455
100
AcDbEntity
  8
WALL
100
AcDbLine
370
50
 10
1789.3701
 20
469.4882
 30
0
 11
1889.7638
 21
469.4882
 31
0
  0
LINE
  5
456
100
AcDbEntity
  8
WALL
100
AcDbLine
370
50
 10
1889.7638
 20
475.3937
 30
0
 11
1789.3701
 21
475.3937
 31
0
  0
LINE
  5
457
100
AcDbEntity
  8
WALL
100
AcDbLine
370
50
 10
1753.9370
 20
469.4882
 30
0
 11
1753.9370
 21
475.3937
 31
0
  0
LINE
  5
458
100
AcDbEntity
  8
WALL
100
AcDbLine
370
50
 10
1789.3701
 20
469.4882
 30
0
 11
1789.3701
 21
475.3937
 31
0
  0
LINE
  5
459
100
AcDbEntity
  8
WALL
100
AcDbLine
370
50
 10
1889.7638
 20
469.4882
 30
0
 11
1990.1575
 21
469.4882
 31
0
  0
LINE
  5
45A
100
AcDbEntity
  8
WALL
100
AcDbLine
370
50
 10
1990.1575
 20
475.3937
 30
0
 11
1889.7638
 21
475.3937
 31
0
  0
LINE
  5
45B
100
AcDbEntity
  8
WALL
100
AcDbLine
370
50
 10
2025.5906
 20
469.4882
 30
0
 11
2125.9843
 21
469.4882
 31
0
  0
LINE
  5
45C
100
AcDbEntity
  8
WALL
100
AcDbLine
370
50
 10
2125.9843
 20
475.3937
 30
0
 11
2025.5906
 21
475.3937
 31
0
  0
LINE
  5
45D
100
AcDbEntity
  8
WALL
100
AcDbLine
370
50
 10
1990.1575
 20
469.4882
 30
0
 11
1990.1575
 21
475.3937
 31
0
  0
LINE
  5
45E
100
AcDbEntity
  8
WALL
100
AcDbLine
370
50
 10
2025.5906
 20
469.4882
 30
0
 11
2025.5906
 21
475.3937
 31
0
  0
LINE
  5
45F
100
AcDbEntity
  8
WALL
100
AcDbLine
370
50
 10
2125.9843
 20
469.4882
 30
0
 11
2226.3780
 21
469.4882
 31
0
  0
LINE
  5
460
100
AcDbEntity
  8
WALL
100
AcDbLine
370
50
 10
2226.3780
 20
475.3937
 30
0
 11
2125.9843
 21
475.3937
 31
0
  0
LINE
  5
461
100
AcDbEntity
  8
WALL
100
AcDbLine
370
50
 10
2261.8110
 20
469.4882
 30
0
 11
2362.2047
 21
469.4882
 31
0
  0
LINE
  5
462
100
AcDbEntity
  8
WALL
100
AcDbLine
370
50
 10
2362.2047
 20
475.3937
 30
0
 11
2261.8110
 21
475.3937
 31
0
  0
LINE
  5
463
100
AcDbEntity
  8
WALL
100
AcDbLine
370
50
 10
2226.3780
 20
469.4882
 30
0
 11
2226.3780
 21
475.3937
 31
0
  0
LINE
  5
464
100
AcDbEntity
  8
WALL
100
AcDbLine
370
50
 10
2261.8110
 20
469.4882
 30
0
 11
2261.8110
 21
475.3937
 31
0
  0
LINE
  5
465
100
AcDbEntity
  8
WALL
100
AcDbLine
370
50
 10
2362.2047
 20
469.4882
 30
0
 11
2462.5984
 21
469.4882
 31
0
  0
LINE
  5
466
100
AcDbEntity
  8
WALL
100
AcDbLine
370
50
 10
2462.5984
 20
475.3937
 30
0
 11
2362.2047
 21
475.3937
 31
0
  0
LINE
  5
467
100
AcDbEntity
  8
WALL
100
AcDbLine
370
50
 10
2498.0315
 20
469.4882
 30
0
 11
2598.4252
 21
469.4882
 31
0
  0
LINE
  5
468
100
AcDbEntity
  8
WALL
100
AcDbLine
370
50
 10
2598.4252
 20
475.3937
 30
0
 11
2498.0315
 21
475.3937
 31
0
  0
LINE
  5
469
100
AcDbEntity
  8
WALL
100
AcDbLine
370
50
 10
2462.5984
 20
469.4882
 30
0
 11
2462.5984
 21
475.3937
 31
0
  0
LINE
  5
46A
100
AcDbEntity
  8
WALL
100
AcDbLine
370
50
 10
2498.0315
 20
469.4882
 30
0
 11
2498.0315
 21
475.3937
 31
0
  0
LINE
  5
46B
100
AcDbEntity
  8
WALL
100
AcDbLine
370
50
 10
2598.4252
 20
469.4882
 30
0
 11
2698.8189
 21
469.4882
 31
0
  0
LINE
  5
46C
100
AcDbEntity
  8
WALL
100
AcDbLine
370
50
 10
2698.8189
 20
475.3937
 30
0
 11
2598.4252
 21
475.3937
 31
0
  0
LINE
  5
46D
100
AcDbEntity
  8
WALL
100
AcDbLine
370
50
 10
2734.2520
 20
469.4882
 30
0
 11
2834.6457
 21
469.4882
 31
0
  0
LINE
  5
46E
100
AcDbEntity
  8
WALL
100
AcDbLine
370
50
 10
2834.6457
 20
475.3937
 30
0
 11
2734.2520
 21
475.3937
 31
0
  0
LINE
  5
46F
100
AcDbEntity
  8
WALL
100
AcDbLine
370
50
 10
2698.8189
 20
469.4882
 30
0
 11
2698.8189
 21
475.3937
 31
0
  0
LINE
  5
470
100
AcDbEntity
  8
WALL
100
AcDbLine
370
50
 10
2734.2520
 20
469.4882
 30
0
 11
2734.2520
 21
475.3937
 31
0
  0
LINE
  5
471
100
AcDbEntity
  8
WALL
100
AcDbLine
370
50
 10
1653.5433
 20
705.7087
 30
0
 11
1753.9370
 21
705.7087
 31
0
  0
LINE
  5
472
100
AcDbEntity
  8
WALL
100
AcDbLine
370
50
 10
1753.9370
 20
711.6142
 30
0
 11
1653.5433
 21
711.6142
 31
0
  0
LINE
  5
473
100
AcDbEntity
  8
WALL
100
AcDbLine
370
50
 10
1789.3701
 20
705.7087
 30
0
 11
1889.7638
 21
705.7087
 31
0
  0
LINE
  5
474
100
AcDbEntity
  8
WALL
100
AcDbLine
370
50
 10
1889.7638
 20
711.6142
 30
0
 11
1789.3701
 21
711.6142
 31
0
  0
LINE
  5
475
100
AcDbEntity
  8
WALL
100
AcDbLine
370
50
 10
1753.9370
 20
705.7087
 30
0
 11
1753.9370
 21
711.6142
 31
0
  0
LINE
  5
476
100
AcDbEntity
  8
WALL
100
AcDbLine
370
50
 10
1789.3701
 20
705.7087
 30
0
 11
1789.3701
 21
711.6142
 31
0
  0
LINE
  5
477
100
AcDbEntity
  8
WALL
100
AcDbLine
370
50
 10
1889.7638
 20
705.7087
 30
0
 11
1990.1575
 21
705.7087
 31
0
  0
LINE
  5
478
100
AcDbEntity
  8
WALL
100
AcDbLine
370
50
 10
1990.1575
 20
711.6142
 30
0
 11
1889.7638
 21
711.6142
 31
0
  0
LINE
  5
479
100
AcDbEntity
  8
WALL
100
AcDbLine
370
50
 10
2025.5906
 20
705.7087
 30
0
 11
2125.9843
 21
705.7087
 31
0
  0
LINE
  5
47A
100
AcDbEntity
  8
WALL
100
AcDbLine
370
50
 10
2125.9843
 20
711.6142
 30
0
 11
2025.5906
 21
711.6142
 31
0
  0
LINE
  5
47B
100
AcDbEntity
  8
WALL
100
AcDbLine
370
50
 10
1990.1575
 20
705.7087
 30
0
 11
1990.1575
 21
711.6142
 31
0
  0
LINE
  5
47C
100
AcDbEntity
  8
WALL
100
AcDbLine
370
50
 10
2025.5906
 20
705.7087
 30
0
 11
2025.5906
 21
711.6142
 31
0
  0
LINE
  5
47D
100
AcDbEntity
  8
WALL
100
AcDbLine
370
50
 10
2125.9843
 20
705.7087
 30
0
 11
2226.3780
 21
705.7087
 31
0
  0
LINE
  5
47E
100
AcDbEntity
  8
WALL
100
AcDbLine
370
50
 10
2226.3780
 20
711.6142
 30
0
 11
2125.9843
 21
711.6142
 31
0
  0
LINE
  5
47F
100
AcDbEntity
  8
WALL
100
AcDbLine
370
50
 10
2261.8110
 20
705.7087
 30
0
 11
2362.2047
 21
705.7087
 31
0
  0
LINE
  5
480
100
AcDbEntity
  8
WALL
100
AcDbLine
370
50
 10
2362.2047
 20
711.6142
 30
0
 11
2261.8110
 21
711.6142
 31
0
  0
LINE
  5
481
100
AcDbEntity
  8
WALL
100
AcDbLine
370
50
 10
2226.3780
 20
705.7087
 30
0
 11
2226.3780
 21
711.6142
 31
0
  0
LINE
  5
482
100
AcDbEntity
  8
WALL
100
AcDbLine
370
50
 10
2261.8110
 20
705.7087
 30
0
 11
2261.8110
 21
711.6142
 31
0
  0
LINE
  5
483
100
AcDbEntity
  8
WALL
100
AcDbLine
370
50
 10
2362.2047
 20
705.7087
 30
0
 11
2462.5984
 21
705.7087
 31
0
  0
LINE
  5
484
100
AcDbEntity
  8
WALL
100
AcDbLine
370
50
 10
2462.5984
 20
711.6142
 30
0
 11
2362.2047
 21
711.6142
 31
0
  0
LINE
  5
485
100
AcDbEntity
  8
WALL
100
AcDbLine
370
50
 10
2498.0315
 20
705.7087
 30
0
 11
2598.4252
 21
705.7087
 31
0
  0
LINE
  5
486
100
AcDbEntity
  8
WALL
100
AcDbLine
370
50
 10
2598.4252
 20
711.6142
 30
0
 11
2498.0315
 21
711.6142
 31
0
  0
LINE
  5
487
100
AcDbEntity
  8
WALL
100
AcDbLine
370
50
 10
2462.5984
 20
705.7087
 30
0
 11
2462.5984
 21
711.6142
 31
0
  0
LINE
  5
488
100
AcDbEntity
  8
WALL
100
AcDbLine
370
50
 10
2498.0315
 20
705.7087
 30
0
 11
2498.0315
 21
711.6142
 31
0
  0
LINE
  5
489
100
AcDbEntity
  8
WALL
100
AcDbLine
370
50
 10
2598.4252
 20
705.7087
 30
0
 11
2698.8189
 21
705.7087
 31
0
  0
LINE
  5
48A
100
AcDbEntity
  8
WALL
100
AcDbLine
370
50
 10
2698.8189
 20
711.6142
 30
0
 11
2598.4252
 21
711.6142
 31
0
  0
LINE
  5
48B
100
AcDbEntity
  8
WALL
100
AcDbLine
370
50
 10
2734.2520
 20
705.7087
 30
0
 11
2834.6457
 21
705.7087
 31
0
  0
LINE
  5
48C
100
AcDbEntity
  8
WALL
100
AcDbLine
370
50
 10
2834.6457
 20
711.6142
 30
0
 11
2734.2520
 21
711.6142
 31
0
  0
LINE
  5
48D
100
AcDbEntity
  8
WALL
100
AcDbLine
370
50
 10
2698.8189
 20
705.7087
 30
0
 11
2698.8189
 21
711.6142
 31
0
  0
LINE
  5
48E
100
AcDbEntity
  8
WALL
100
AcDbLine
370
50
 10
2734.2520
 20
705.7087
 30
0
 11
2734.2520
 21
711.6142
 31
0
  0
LINE
  5
48F
100
AcDbEntity
  8
WALL
100
AcDbLine
370
50
 10
1653.5433
 20
941.9291
 30
0
 11
1889.7638
 21
941.9291
 31
0
  0
LINE
  5
490
100
AcDbEntity
  8
WALL
100
AcDbLine
370
50
 10
1889.7638
 20
947.8346
 30
0
 11
1653.5433
 21
947.8346
 31
0
  0
LINE
  5
491
100
AcDbEntity
  8
WALL
100
AcDbLine
370
50
 10
1889.7638
 20
941.9291
 30
0
 11
1990.1575
 21
941.9291
 31
0
  0
LINE
  5
492
100
AcDbEntity
  8
WALL
100
AcDbLine
370
50
 10
1990.1575
 20
947.8346
 30
0
 11
1889.7638
 21
947.8346
 31
0
  0
LINE
  5
493
100
AcDbEntity
  8
WALL
100
AcDbLine
370
50
 10
2025.5906
 20
941.9291
 30
0
 11
2125.9843
 21
941.9291
 31
0
  0
LINE
  5
494
100
AcDbEntity
  8
WALL
100
AcDbLine
370
50
 10
2125.9843
 20
947.8346
 30
0
 11
2025.5906
 21
947.8346
 31
0
  0
LINE
  5
495
100
AcDbEntity
  8
WALL
100
AcDbLine
370
50
 10
1990.1575
 20
941.9291
 30
0
 11
1990.1575
 21
947.8346
 31
0
  0
LINE
  5
496
100
AcDbEntity
  8
WALL
100
AcDbLine
370
50
 10
2025.5906
 20
941.9291
 30
0
 11
2025.5906
 21
947.8346
 31
0
  0
LINE
  5
497
100
AcDbEntity
  8
WALL
100
AcDbLine
370
50
 10
2125.9843
 20
941.9291
 30
0
 11
2226.3780
 21
941.9291
 31
0
  0
LINE
  5
498
100
AcDbEntity
  8
WALL
100
AcDbLine
370
50
 10
2226.3780
 20
947.8346
 30
0
 11
2125.9843
 21
947.8346
 31
0
  0
LINE
  5
499
100
AcDbEntity
  8
WALL
100
AcDbLine
370
50
 10
2261.8110
 20
941.9291
 30
0
 11
2362.2047
 21
941.9291
 31
0
  0
LINE
  5
49A
100
AcDbEntity
  8
WALL
100
AcDbLine
370
50
 10
2362.2047
 20
947.8346
 30
0
 11
2261.8110
 21
947.8346
 31
0
  0
LINE
  5
49B
100
AcDbEntity
  8
WALL
100
AcDbLine
370
50
 10
2226.3780
 20
941.9291
 30
0
 11
2226.3780
 21
947.8346
 31
0
  0
LINE
  5
49C
100
AcDbEntity
  8
WALL
100
AcDbLine
370
50
 10
2261.8110
 20
941.9291
 30
0
 11
2261.8110
 21
947.8346
 31
0
  0
LINE
  5
49D
100
AcDbEntity
  8
WALL
100
AcDbLine
370
50
 10
2362.2047
 20
941.9291
 30
0
 11
2462.5984
 21
941.9291
 31
0
  0
LINE
  5
49E
100
AcDbEntity
  8
WALL
100
AcDbLine
370
50
 10
2462.5984
 20
947.8346
 30
0
 11
2362.2047
 21
947.8346
 31
0
  0
LINE
  5
49F
100
AcDbEntity
  8
WALL
100
AcDbLine
370
50
 10
2498.0315
 20
941.9291
 30
0
 11
2598.4252
 21
941.9291
 31
0
  0
LINE
  5
4A0
100
AcDbEntity
  8
WALL
100
AcDbLine
370
50
 10
2598.4252
 20
947.8346
 30
0
 11
2498.0315
 21
947.8346
 31
0
  0
LINE
  5
4A1
100
AcDbEntity
  8
WALL
100
AcDbLine
370
50
 10
2462.5984
 20
941.9291
 30
0
 11
2462.5984
 21
947.8346
 31
0
  0
LINE
  5
4A2
100
AcDbEntity
  8
WALL
100
AcDbLine
370
50
 10
2498.0315
 20
941.9291
 30
0
 11
2498.0315
 21
947.8346
 31
0
  0
LINE
  5
4A3
100
AcDbEntity
  8
WALL
100
AcDbLine
370
50
 10
2598.4252
 20
941.9291
 30
0
 11
2698.8189
 21
941.9291
 31
0
  0
LINE
  5
4A4
100
AcDbEntity
  8
WALL
100
AcDbLine
370
50
 10
2698.8189
 20
947.8346
 30
0
 11
2598.4252
 21
947.8346
 31
0
  0
LINE
  5
4A5
100
AcDbEntity
  8
WALL
100
AcDbLine
370
50
 10
2734.2520
 20
941.9291
 30
0
 11
2834.6457
 21
941.9291
 31
0
  0
LINE
  5
4A6
100
AcDbEntity
  8
WALL
100
AcDbLine
370
50
 10
2834.6457
 20
947.8346
 30
0
 11
2734.2520
 21
947.8346
 31
0
  0
LINE
  5
4A7
100
AcDbEntity
  8
WALL
100
AcDbLine
370
50
 10
2698.8189
 20
941.9291
 30
0
 11
2698.8189
 21
947.8346
 31
0
  0
LINE
  5
4A8
100
AcDbEntity
  8
WALL
100
AcDbLine
370
50
 10
2734.2520
 20
941.9291
 30
0
 11
2734.2520
 21
947.8346
 31
0
  0
LWPOLYLINE
  5
4A9
100
AcDbEntity
  8
COLUMN
100
AcDbPolyline
 90
4
 70
1
 10
1649.0157
 20
-4.5276
 10
1658.0709
 20
-4.5276
 10
1658.0709
 20
4.5276
 10
1649.0157
 20
4.5276
  0
LWPOLYLINE
  5
4AA
100
AcDbEntity
  8
COLUMN
100
AcDbPolyline
 90
4
 70
1
 10
1649.0157
 20
231.6929
 10
1658.0709
 20
231.6929
 10
1658.0709
 20
240.7480
 10
1649.0157
 20
240.7480
  0
LWPOLYLINE
  5
4AB
100
AcDbEntity
  8
COLUMN
100
AcDbPolyline
 90
4
 70
1
 10
1649.0157
 20
467.9134
 10
1658.0709
 20
467.9134
 10
1658.0709
 20
476.9685
 10
1649.0157
 20
476.9685
  0
LWPOLYLINE
  5
4AC
100
AcDbEntity
  8
COLUMN
100
AcDbPolyline
 90
4
 70
1
 10
1649.0157
 20
704.1339
 10
1658.0709
 20
704.1339
 10
1658.0709
 20
713.1890
 10
1649.0157
 20
713.1890
  0
LWPOLYLINE
  5
4AD
100
AcDbEntity
  8
COLUMN
100
AcDbPolyline
 90
4
 70
1
 10
1649.0157
 20
940.3543
 10
1658.0709
 20
940.3543
 10
1658.0709
 20
949.4094
 10
1649.0157
 20
949.4094
  0
LWPOLYLINE
  5
4AE
100
AcDbEntity
  8
COLUMN
100
AcDbPolyline
 90
4
 70
1
 10
1649.0157
 20
1176.5748
 10
1658.0709
 20
1176.5748
 10
1658.0709
 20
1185.6299
 10
1649.0157
 20
1185.6299
  0
LWPOLYLINE
  5
4AF
100
AcDbEntity
  8
COLUMN
100
AcDbPolyline
 90
4
 70
1
 10
1885.2362
 20
-4.5276
 10
1894.2913
 20
-4.5276
 10
1894.2913
 20
4.5276
 10
1885.2362
 20
4.5276
  0
LWPOLYLINE
  5
4B0
100
AcDbEntity
  8
COLUMN
100
AcDbPolyline
 90
4
 70
1
 10
1885.2362
 20
231.6929
 10
1894.2913
 20
231.6929
 10
1894.2913
 20
240.7480
 10
1885.2362
 20
240.7480
  0
LWPOLYLINE
  5
4B1
100
AcDbEntity
  8
COLUMN
100
AcDbPolyline
 90
4
 70
1
 10
1885.2362
 20
467.9134
 10
1894.2913
 20
467.9134
 10
1894.2913
 20
476.9685
 10
1885.2362
 20
476.9685
  0
LWPOLYLINE
  5
4B2
100
AcDbEntity
  8
COLUMN
100
AcDbPolyline
 90
4
 70
1
 10
1885.2362
 20
704.1339
 10
1894.2913
 20
704.1339
 10
1894.2913
 20
713.1890
 10
1885.2362
 20
713.1890
  0
LWPOLYLINE
  5
4B3
100
AcDbEntity
  8
COLUMN
100
AcDbPolyline
 90
4
 70
1
 10
1885.2362
 20
940.3543
 10
1894.2913
 20
940.3543
 10
1894.2913
 20
949.4094
 10
1885.2362
 20
949.4094
  0
LWPOLYLINE
  5
4B4
100
AcDbEntity
  8
COLUMN
100
AcDbPolyline
 90
4
 70
1
 10
1885.2362
 20
1176.5748
 10
1894.2913
 20
1176.5748
 10
1894.2913
 20
1185.6299
 10
1885.2362
 20
1185.6299
  0
LWPOLYLINE
  5
4B5
100
AcDbEntity
  8
COLUMN
100
AcDbPolyline
 90
4
 70
1
 10
2121.4567
 20
-4.5276
 10
2130.5118
 20
-4.5276
 10
2130.5118
 20
4.5276
 10
2121.4567
 20
4.5276
  0
LWPOLYLINE
  5
4B6
100
AcDbEntity
  8
COLUMN
100
AcDbPolyline
 90
4
 70
1
 10
2121.4567
 20
231.6929
 10
2130.5118
 20
231.6929
 10
2130.5118
 20
240.7480
 10
2121.4567
 20
240.7480
  0
LWPOLYLINE
  5
4B7
100
AcDbEntity
  8
COLUMN
100
AcDbPolyline
 90
4
 70
1
 10
2121.4567
 20
467.9134
 10
2130.5118
 20
467.9134
 10
2130.5118
 20
476.9685
 10
2121.4567
 20
476.9685
  0
LWPOLYLINE
  5
4B8
100
AcDbEntity
  8
COLUMN
100
AcDbPolyline
 90
4
 70
1
 10
2121.4567
 20
704.1339
 10
2130.5118
 20
704.1339
 10
2130.5118
 20
713.1890
 10
2121.4567
 20
713.1890
  0
LWPOLYLINE
  5
4B9
100
AcDbEntity
  8
COLUMN
100
AcDbPolyline
 90
4
 70
1
 10
2121.4567
 20
940.3543
 10
2130.5118
 20
940.3543
 10
2130.5118
 20
949.4094
 10
2121.4567
 20
949.4094
  0
LWPOLYLINE
  5
4BA
100
AcDbEntity
  8
COLUMN
100
AcDbPolyline
 90
4
 70
1
 10
2121.4567
 20
1176.5748
 10
2130.5118
 20
1176.5748
 10
2130.5118
 20
1185.6299
 10
2121.4567
 20
1185.6299
  0
LWPOLYLINE
  5
4BB
100
AcDbEntity
  8
COLUMN
100
AcDbPolyline
 90
4
 70
1
 10
2357.6772
 20
-4.5276
 10
2366.7323
 20
-4.5276
 10
2366.7323
 20
4.5276
 10
2357.6772
 20
4.5276
  0
LWPOLYLINE
  5
4BC
100
AcDbEntity
  8
COLUMN
100
AcDbPolyline
 90
4
 70
1
 10
2357.6772
 20
231.6929
 10
2366.7323
 20
231.6929
 10
2366.7323
 20
240.7480
 10
2357.6772
 20
240.7480
  0
LWPOLYLINE
  5
4BD
100
AcDbEntity
  8
COLUMN
100
AcDbPolyline
 90
4
 70
1
 10
2357.6772
 20
467.9134
 10
2366.7323
 20
467.9134
 10
2366.7323
 20
476.9685
 10
2357.6772
 20
476.9685
  0
LWPOLYLINE
  5
4BE
100
AcDbEntity
  8
COLUMN
100
AcDbPolyline
 90
4
 70
1
 10
2357.6772
 20
704.1339
 10
2366.7323
 20
704.1339
 10
2366.7323
 20
713.1890
 10
2357.6772
 20
713.1890
  0
LWPOLYLINE
  5
4BF
100
AcDbEntity
  8
COLUMN
100
AcDbPolyline
 90
4
 70
1
 10
2357.6772
 20
940.3543
 10
2366.7323
 20
940.3543
 10
2366.7323
 20
949.4094
 10
2357.6772
 20
949.4094
  0
LWPOLYLINE
  5
4C0
100
AcDbEntity
  8
COLUMN
100
AcDbPolyline
 90
4
 70
1
 10
2357.6772
 20
1176.5748
 10
2366.7323
 20
1176.5748
 10
2366.7323
 20
1185.6299
 10
2357.6772
 20
1185.6299
  0
LWPOLYLINE
  5
4C1
100
AcDbEntity
  8
COLUMN
100
AcDbPolyline
 90
4
 70
1
 10
2593.8976
 20
-4.5276
 10
2602.9528
 20
-4.5276
 10
2602.9528
 20
4.5276
 10
2593.8976
 20
4.5276
  0
LWPOLYLINE
  5
4C2
100
AcDbEntity
  8
COLUMN
100
AcDbPolyline
 90
4
 70
1
 10
2593.8976
 20
231.6929
 10
2602.9528
 20
231.6929
 10
2602.9528
 20
240.7480
 10
2593.8976
 20
240.7480
  0
LWPOLYLINE
  5
4C3
100
AcDbEntity
  8
COLUMN
100
AcDbPolyline
 90
4
 70
1
 10
2593.8976
 20
467.9134
 10
2602.9528
 20
467.9134
 10
2602.9528
 20
476.9685
 10
2593.8976
 20
476.9685
  0
LWPOLYLINE
  5
4C4
100
AcDbEntity
  8
COLUMN
100
AcDbPolyline
 90
4
 70
1
 10
2593.8976
 20
704.1339
 10
2602.9528
 20
704.1339
 10
2602.9528
 20
713.1890
 10
2593.8976
 20
713.1890
  0
LWPOLYLINE
  5
4C5
100
AcDbEntity
  8
COLUMN
100
AcDbPolyline
 90
4
 70
1
 10
2593.8976
 20
940.3543
 10
2602.9528
 20
940.3543
 10
2602.9528
 20
949.4094
 10
2593.8976
 20
949.4094
  0
LWPOLYLINE
  5
4C6
100
AcDbEntity
  8
COLUMN
100
AcDbPolyline
 90
4
 70
1
 10
2593.8976
 20
1176.5748
 10
2602.9528
 20
1176.5748
 10
2602.9528
 20
1185.6299
 10
2593.8976
 20
1185.6299
  0
LWPOLYLINE
  5
4C7
100
AcDbEntity
  8
COLUMN
100
AcDbPolyline
 90
4
 70
1
 10
2830.1181
 20
-4.5276
 10
2839.1732
 20
-4.5276
 10
2839.1732
 20
4.5276
 10
2830.1181
 20
4.5276
  0
LWPOLYLINE
  5
4C8
100
AcDbEntity
  8
COLUMN
100
AcDbPolyline
 90
4
 70
1
 10
2830.1181
 20
231.6929
 10
2839.1732
 20
231.6929
 10
2839.1732
 20
240.7480
 10
2830.1181
 20
240.7480
  0
LWPOLYLINE
  5
4C9
100
AcDbEntity
  8
COLUMN
100
AcDbPolyline
 90
4
 70
1
 10
2830.1181
 20
467.9134
 10
2839.1732
 20
467.9134
 10
2839.1732
 20
476.9685
 10
2830.1181
 20
476.9685
  0
LWPOLYLINE
  5
4CA
100
AcDbEntity
  8
COLUMN
100
AcDbPolyline
 90
4
 70
1
 10
2830.1181
 20
704.1339
 10
2839.1732
 20
704.1339
 10
2839.1732
 20
713.1890
 10
2830.1181
 20
713.1890
  0
LWPOLYLINE
  5
4CB
100
AcDbEntity
  8
COLUMN
100
AcDbPolyline
 90
4
 70
1
 10
2830.1181
 20
940.3543
 10
2839.1732
 20
940.3543
 10
2839.1732
 20
949.4094
 10
2830.1181
 20
949.4094
  0
LWPOLYLINE
  5
4CC
100
AcDbEntity
  8
COLUMN
100
AcDbPolyline
 90
4
 70
1
 10
2830.1181
 20
1176.5748
 10
2839.1732
 20
1176.5748
 10
2839.1732
 20
1185.6299
 10
2830.1181
 20
1185.6299
  0
TEXT
  5
4CD
100
AcDbEntity
  8
TEXT
100
AcDbText
 10
1753.4449
 20
119.5866
 30
0
 40
9.8425
  1
OFFICE 11
100
AcDbText
  0
TEXT
  5
4CE
100
AcDbEntity
  8
TEXT
100
AcDbText
 10
1988.1890
 20
119.5866
 30
0
 40
9.8425
  1
OFFICE 12
100
AcDbText
  0
TEXT
  5
4CF
100
AcDbEntity
  8
TEXT
100
AcDbText
 10
2224.4094
 20
119.5866
 30
0
 40
9.8425
  1
OFFICE 13
100
AcDbText
  0
TEXT
  5
4D0
100
AcDbEntity
  8
TEXT
100
AcDbText
 10
2460.6299
 20
119.5866
 30
0
 40
9.8425
  1
OFFICE 14
100
AcDbText
  0
TEXT
  5
4D1
100
AcDbEntity
  8
TEXT
100
AcDbText
 10
2695.3740
 20
119.5866
 30
0
 40
9.8425
  1
OFFICE 15
100
AcDbText
  0
TEXT
  5
4D2
100
AcDbEntity
  8
TEXT
100
AcDbText
 10
1753.4449
 20
354.3307
 30
0
 40
9.8425
  1
OFFICE 21
100
AcDbText
  0
TEXT
  5
4D3
100
AcDbEntity
  8
TEXT
100
AcDbText
 10
1988.1890
 20
354.3307
 30
0
 40
9.8425
  1
OFFICE 22
100
AcDbText
  0
TEXT
  5
4D4
100
AcDbEntity
  8
TEXT
100
AcDbText
 10
2224.4094
 20
354.3307
 30
0
 40
9.8425
  1
OFFICE 23
100
AcDbText
  0
TEXT
  5
4D5
100
AcDbEntity
  8
TEXT
100
AcDbText
 10
2460.6299
 20
354.3307
 30
0
 40
9.8425
  1
OFFICE 24
100
AcDbText
  0
TEXT
  5
4D6
100
AcDbEntity
  8
TEXT
100
AcDbText
 10
2695.3740
 20
354.3307
 30
0
 40
9.8425
  1
OFFICE 25
100
AcDbText
  0
TEXT
  5
4D7
100
AcDbEntity
  8
TEXT
100
AcDbText
 10
1753.4449
 20
590.5512
 30
0
 40
9.8425
  1
OFFICE 31
100
AcDbText
  0
TEXT
  5
4D8
100
AcDbEntity
  8
TEXT
100
AcDbText
 10
1988.1890
 20
590.5512
 30
0
 40
9.8425
  1
STAIR HALL
100
AcDbText
  0
TEXT
  5
4D9
100
AcDbEntity
  8
TEXT
100
AcDbText
 10
2224.4094
 20
590.5512
 30
0
 40
9.8425
  1
LIFT LOBBY
100
AcDbText
  0
TEXT
  5
4DA
100
AcDbEntity
  8
TEXT
100
AcDbText
 10
2460.6299
 20
590.5512
 30
0
 40
9.8425
  1
OFFICE 34
100
AcDbText
  0
LWPOLYLINE
  5
4DB
100
AcDbEntity
  8
SANITARY
100
AcDbPolyline
 90
4
 70
1
 10
2380.9055
 20
670.2756
 10
2396.6535
 20
670.2756
 10
2396.6535
 20
693.8976
 10
2380.9055
 20
693.8976
  0
TEXT
  5
4DC
100
AcDbEntity
  8
TEXT
100
AcDbText
 10
2695.3740
 20
590.5512
 30
0
 40
9.8425
  1
OFFICE 35
100
AcDbText
  0
TEXT
  5
4DD
100
AcDbEntity
  8
TEXT
100
AcDbText
 10
1753.4449
 20
826.7717
 30
0
 40
9.8425
  1
OFFICE 41
100
AcDbText
  0
TEXT
  5
4DE
100
AcDbEntity
  8
TEXT
100
AcDbText
 10
1988.1890
 20
826.7717
 30
0
 40
9.8425
  1
OFFICE 42
100
AcDbText
  0
TEXT
  5
4DF
100
AcDbEntity
  8
TEXT
100
AcDbText
 10
2224.4094
 20
826.7717
 30
0
 40
9.8425
  1
OFFICE 43
100
AcDbText
  0
TEXT
  5
4E0
100
AcDbEntity
  8
TEXT
100
AcDbText
 10
2460.6299
 20
826.7717
 30
0
 40
9.8425
  1
OFFICE 44
100
AcDbText
  0
TEXT
  5
4E1
100
AcDbEntity
  8
TEXT
100
AcDbText
 10
2695.3740
 20
826.7717
 30
0
 40
9.8425
  1
OFFICE 45
100
AcDbText
  0
TEXT
  5
4E2
100
AcDbEntity
  8
TEXT
100
AcDbText
 10
1753.4449
 20
1061.5157
 30
0
 40
9.8425
  1
OFFICE 51
100
AcDbText
  0
TEXT
  5
4E3
100
AcDbEntity
  8
TEXT
100
AcDbText
 10
1988.1890
 20
1061.5157
 30
0
 40
9.8425
  1
OFFICE 52
100
AcDbText
  0
TEXT
  5
4E4
100
AcDbEntity
  8
TEXT
100
AcDbText
 10
2224.4094
 20
1061.5157
 30
0
 40
9.8425
  1
OFFICE 53
100
AcDbText
  0
TEXT
  5
4E5
100
AcDbEntity
  8
TEXT
100
AcDbText
 10
2460.6299
 20
1061.5157
 30
0
 40
9.8425
  1
OFFICE 54
100
AcDbText
  0
TEXT
  5
4E6
100
AcDbEntity
  8
TEXT
100
AcDbText
 10
2695.3740
 20
1061.5157
 30
0
 40
9.8425
  1
OFFICE 55
100
AcDbText
  0
DIMENSION
  5
4E7
100
AcDbEntity
  8
DIM
100
AcDbDimension
  2
*D
 10
1653.5433
 20
-70.8661
 30
0
 11
2244.0945
 21
-61.0236
 31
0
 70
33
  1
98'-5 1/8"
 42
1181.1024
100
AcDbAlignedDimension
 13
1653.5433
 23
0
 33
0
 14
2834.6457
 24
0
 34
0
  0
DIMENSION
  5
4E8
100
AcDbEntity
  8
DIM
100
AcDbDimension
  2
*D
 10
1582.6772
 20
0
 30
0
 11
1592.5197
 21
590.5512
 31
0
 70
33
  1
98'-5 1/8"
 42
1181.1024
100
AcDbAlignedDimension
 13
1653.5433
 23
0
 33
0
 14
1653.5433
 24
1181.1024
 34
0
  0
DIMENSION
  5
4E9
100
AcDbEntity
  8
DIM
100
AcDbDimension
  2
*D
 10
1653.5433
 20
1228.3465
 30
0
 11
1771.6535
 21
1238.1890
 31
0
 70
33
  1
19'-8 1/4"
 42
236.2205
100
AcDbAlignedDimension
 13
1653.5433
 23
1181.1024
 33
0
 14
1889.7638
 24
1181.1024
 34
0
  0
DIMENSION
  5
4EA
100
AcDbEntity
  8
DIM
100
AcDbDimension
  2
*D
 10
1889.7638
 20
1228.3465
 30
0
 11
2007.8740
 21
1238.1890
 31
0
 70
33
  1
19'-8 1/4"
 42
236.2205
100
AcDbAlignedDimension
 13
1889.7638
 23
1181.1024
 33
0
 14
2125.9843
 24
1181.1024
 34
0
  0
DIMENSION
  5
4EB
100
AcDbEntity
  8
DIM
100
AcDbDimension
  2
*D
 10
2125.9843
 20
1228.3465
 30
0
 11
2244.0945
 21
1238.1890
 31
0
 70
33
  1
19'-8 1/4"
 42
236.2205
100
AcDbAlignedDimension
 13
2125.9843
 23
1181.1024
 33
0
 14
2362.2047
 24
1181.1024
 34
0
  0
DIMENSION
  5
4EC
100
AcDbEntity
  8
DIM
100
AcDbDimension
  2
*D
 10
2362.2047
 20
1228.3465
 30
0
 11
2480.3150
 21
1238.1890
 31
0
 70
33
  1
19'-8 1/4"
 42
236.2205
100
AcDbAlignedDimension
 13
2362.2047
 23
1181.1024
 33
0
 14
2598.4252
 24
1181.1024
 34
0
  0
DIMENSION
  5
4ED
100
AcDbEntity
  8
DIM
100
AcDbDimension
  2
*D
 10
2598.4252
 20
1228.3465
 30
0
 11
2716.5354
 21
1238.1890
 31
0
 70
33
  1
19'-8 1/4"
 42
236.2205
100
AcDbAlignedDimension
 13
2598.4252
 23
1181.1024
 33
0
 14
2834.6457
 24
1181.1024
 34
0
  0
DIMENSION
  5
4EE
100
AcDbEntity
  8
DIM
100
AcDbDimension
  2
*D
 10
2881.8898
 20
0
 30
0
 11
2891.7323
 21
118.1102
 31
0
 70
33
  1
19'-8 1/4"
 42
236.2205
100
AcDbAlignedDimension
 13
2834.6457
 23
0
 33
0
 14
2834.6457
 24
236.2205
 34
0
  0
DIMENSION
  5
4EF
100
AcDbEntity
  8
DIM
100
AcDbDimension
  2
*D
 10
2881.8898
 20
236.2205
 30
0
 11
2891.7323
 21
354.3307
 31
0
 70
33
  1
19'-8 1/4"
 42
236.2205
100
AcDbAlignedDimension
 13
2834.6457
 23
236.2205
 33
0
 14
2834.6457
 24
472.4409
 34
0
  0
DIMENSION
  5
4F0
100
AcDbEntity
  8
DIM
100
AcDbDimension
  2
*D
 10
2881.8898
 20
472.4409
 30
0
 11
2891.7323
 21
590.5512
 31
0
 70
33
  1
19'-8 1/4"
 42
236.2205
100
AcDbAlignedDimension
 13
2834.6457
 23
472.4409
 33
0
 14
2834.6457
 24
708.6614
 34
0
  0
DIMENSION
  5
4F1
100
AcDbEntity
  8
DIM
100
AcDbDimension
  2
*D
 10
2881.8898
 20
708.6614
 30
0
 11
2891.7323
 21
826.7717
 31
0
 70
33
  1
19'-8 1/4"
 42
236.2205
100
AcDbAlignedDimension
 13
2834.6457
 23
708.6614
 33
0
 14
2834.6457
 24
944.8819
 34
0
  0
DIMENSION
  5
4F2
100
AcDbEntity
  8
DIM
100
AcDbDimension
  2
*D
 10
2881.8898
 20
944.8819
 30
0
 11
2891.7323
 21
1062.9921
 31
0
 70
33
  1
19'-8 1/4"
 42
236.2205
100
AcDbAlignedDimension
 13
2834.6457
 23
944.8819
 33
0
 14
2834.6457
 24
1181.1024
 34
0
  0
TEXT
  5
4F3
100
AcDbEntity
  8
TEXT
100
AcDbText
 10
1653.5433
 20
-125.9843
 30
0
 40
17.7165
  1
TYPICAL FLOOR PLAN (LEVELS 2-20)
100
AcDbText
  0
TEXT
  5
4F4
100
AcDbEntity
  8
TEXT
100
AcDbText
 10
2937.0079
 20
590.5512
 30
0
 40
11.8110
  1
+11'-3 7/8"
100
AcDbText
  0
TEXT
  5
4F5
100
AcDbEntity
  8
TEXT
100
AcDbText
 10
1653.5433
 20
-157.4803
 30
0
 40
11.8110
  1
SCALE: 1/8" = 1'-0"
100
AcDbText
  0
LINE
  5
4F6
100
AcDbEntity
  8
WALL
100
AcDbLine
370
50
 10
3307.0866
 20
0
 30
0
 11
4488.1890
 21
0
 31
0
  0
LINE
  5
4F7
100
AcDbEntity
  8
WALL
100
AcDbLine
370
50
 10
4488.1890
 20
0
 30
0
 11
4488.1890
 21
2409.4488
 31
0
  0
LINE
  5
4F8
100
AcDbEntity
  8
WALL
100
AcDbLine
370
50
 10
4488.1890
 20
2409.4488
 30
0
 11
3307.0866
 21
2409.4488
 31
0
  0
LINE
  5
4F9
100
AcDbEntity
  8
WALL
100
AcDbLine
370
50
 10
3307.0866
 20
2409.4488
 30
0
 11
3307.0866
 21
0
 31
0
  0
LINE
  5
4FA
100
AcDbEntity
  8
WALL
100
AcDbLine
 10
3307.0866
 20
0
 30
0
 11
4488.1890
 21
0
 31
0
  0
TEXT
  5
4FB
100
AcDbEntity
  8
TEXT
100
AcDbText
 10
4523.6220
 20
0
 30
0
 40
9.8425
  1
+1'-5 3/4" GROUND FLOOR LEVEL
100
AcDbText
  0
LWPOLYLINE
  5
4FC
100
AcDbEntity
  8
WIND
100
AcDbPolyline
 90
4
 70
1
 10
3480.3150
 20
35.4331
 10
3527.5591
 20
35.4331
 10
3527.5591
 20
82.6772
 10
3480.3150
 20
82.6772
  0
LWPOLYLINE
  5
4FD
100
AcDbEntity
  8
WIND
100
AcDbPolyline
 90
4
 70
1
 10
3677.1654
 20
35.4331
 10
3724.4094
 20
35.4331
 10
3724.4094
 20
82.6772
 10
3677.1654
 20
82.6772
  0
LWPOLYLINE
  5
4FE
100
AcDbEntity
  8
WIND
100
AcDbPolyline
 90
4
 70
1
 10
3874.0157
 20
35.4331
 10
3921.2598
 20
35.4331
 10
3921.2598
 20
82.6772
 10
3874.0157
 20
82.6772
  0
LWPOLYLINE
  5
4FF
100
AcDbEntity
  8
WIND
100
AcDbPolyline
 90
4
 70
1
 10
4070.8661
 20
35.4331
 10
4118.1102
 20
35.4331
 10
4118.1102
 20
82.6772
 10
4070.8661
 20
82.6772
  0
LWPOLYLINE
  5
500
100
AcDbEntity
  8
WIND
100
AcDbPolyline
 90
4
 70
1
 10
4267.7165
 20
35.4331
 10
4314.9606
 20
35.4331
 10
4314.9606
 20
82.6772
 10
4267.7165
 20
82.6772
  0
LINE
  5
501
100
AcDbEntity
  8
WALL
100
AcDbLine
 10
3307.0866
 20
118.1102
 30
0
 11
4488.1890
 21
118.1102
 31
0
  0
TEXT
  5
502
100
AcDbEntity
  8
TEXT
100
AcDbText
 10
4523.6220
 20
118.1102
 30
0
 40
9.8425
  1
+11'-3 7/8" FIRST FLOOR SLAB
100
AcDbText
  0
LWPOLYLINE
  5
503
100
AcDbEntity
  8
WIND
100
AcDbPolyline
 90
4
 70
1
 10
3480.3150
 20
153.5433
 10
3527.5591
 20
153.5433
 10
3527.5591
 20
200.7874
 10
3480.3150
 20
200.7874
  0
LWPOLYLINE
  5
504
100
AcDbEntity
  8
WIND
100
AcDbPolyline
 90
4
 70
1
 10
3677.1654
 20
153.5433
 10
3724.4094
 20
153.5433
 10
3724.4094
 20
200.7874
 10
3677.1654
 20
200.7874
  0
LWPOLYLINE
  5
505
100
AcDbEntity
  8
WIND
100
AcDbPolyline
 90
4
 70
1
 10
3874.0157
 20
153.5433
 10
3921.2598
 20
153.5433
 10
3921.2598
 20
200.7874
 10
3874.0157
 20
200.7874
  0
LWPOLYLINE
  5
506
100
AcDbEntity
  8
WIND
100
AcDbPolyline
 90
4
 70
1
 10
4070.8661
 20
153.5433
 10
4118.1102
 20
153.5433
 10
4118.1102
 20
200.7874
 10
4070.8661
 20
200.7874
  0
LWPOLYLINE
  5
507
100
AcDbEntity
  8
WIND
100
AcDbPolyline
 90
4
 70
1
 10
4267.7165
 20
153.5433
 10
4314.9606
 20
153.5433
 10
4314.9606
 20
200.7874
 10
4267.7165
 20
200.7874
  0
LINE
  5
508
100
AcDbEntity
  8
WALL
100
AcDbLine
 10
3307.0866
 20
236.2205
 30
0
 11
4488.1890
 21
236.2205
 31
0
  0
TEXT
  5
509
100
AcDbEntity
  8
TEXT
100
AcDbText
 10
4523.6220
 20
236.2205
 30
0
 40
9.8425
  1
+21'-1 7/8" SECOND FLOOR SLAB
100
AcDbText
  0
LWPOLYLINE
  5
50A
100
AcDbEntity
  8
WIND
100
AcDbPolyline
 90
4
 70
1
 10
3480.3150
 20
271.6535
 10
3527.5591
 20
271.6535
 10
3527.5591
 20
318.8976
 10
3480.3150
 20
318.8976
  0
LWPOLYLINE
  5
50B
100
AcDbEntity
  8
WIND
100
AcDbPolyline
 90
4
 70
1
 10
3677.1654
 20
271.6535
 10
3724.4094
 20
271.6535
 10
3724.4094
 20
318.8976
 10
3677.1654
 20
318.8976
  0
LWPOLYLINE
  5
50C
100
AcDbEntity
  8
WIND
100
AcDbPolyline
 90
4
 70
1
 10
3874.0157
 20
271.6535
 10
3921.2598
 20
271.6535
 10
3921.2598
 20
318.8976
 10
3874.0157
 20
318.8976
  0
LWPOLYLINE
  5
50D
100
AcDbEntity
  8
WIND
100
AcDbPolyline
 90
4
 70
1
 10
4070.8661
 20
271.6535
 10
4118.1102
 20
271.6535
 10
4118.1102
 20
318.8976
 10
4070.8661
 20
318.8976
  0
LWPOLYLINE
  5
50E
100
AcDbEntity
  8
WIND
100
AcDbPolyline
 90
4
 70
1
 10
4267.7165
 20
271.6535
 10
4314.9606
 20
271.6535
 10
4314.9606
 20
318.8976
 10
4267.7165
 20
318.8976
  0
LINE
  5
50F
100
AcDbEntity
  8
WALL
100
AcDbLine
 10
3307.0866
 20
354.3307
 30
0
 11
4488.1890
 21
354.3307
 31
0
  0
TEXT
  5
510
100
AcDbEntity
  8
TEXT
100
AcDbText
 10
4523.6220
 20
354.3307
 30
0
 40
9.8425
  1
+31'-0" THIRD FLOOR SLAB
100
AcDbText
  0
LWPOLYLINE
  5
511
100
AcDbEntity
  8
WIND
100
AcDbPolyline
 90
4
 70
1
 10
3480.3150
 20
389.7638
 10
3527.5591
 20
389.7638
 10
3527.5591
 20
437.0079
 10
3480.3150
 20
437.0079
  0
LWPOLYLINE
  5
512
100
AcDbEntity
  8
WIND
100
AcDbPolyline
 90
4
 70
1
 10
3677.1654
 20
389.7638
 10
3724.4094
 20
389.7638
 10
3724.4094
 20
437.0079
 10
3677.1654
 20
437.0079
  0
LWPOLYLINE
  5
513
100
AcDbEntity
  8
WIND
100
AcDbPolyline
 90
4
 70
1
 10
3874.0157
 20
389.7638
 10
3921.2598
 20
389.7638
 10
3921.2598
 20
437.0079
 10
3874.0157
 20
437.0079
  0
LWPOLYLINE
  5
514
100
AcDbEntity
  8
WIND
100
AcDbPolyline
 90
4
 70
1
 10
4070.8661
 20
389.7638
 10
4118.1102
 20
389.7638
 10
4118.1102
 20
437.0079
 10
4070.8661
 20
437.0079
  0
LWPOLYLINE
  5
515
100
AcDbEntity
  8
WIND
100
AcDbPolyline
 90
4
 70
1
 10
4267.7165
 20
389.7638
 10
4314.9606
 20
389.7638
 10
4314.9606
 20
437.0079
 10
4267.7165
 20
437.0079
  0
LINE
  5
516
100
AcDbEntity
  8
WALL
100
AcDbLine
 10
3307.0866
 20
472.4409
 30
0
 11
4488.1890
 21
472.4409
 31
0
  0
TEXT
  5
517
100
AcDbEntity
  8
TEXT
100
AcDbText
 10
4523.6220
 20
472.4409
 30
0
 40
9.8425
  1
+40'-10 1/8" LEVEL 4
100
AcDbText
  0
LWPOLYLINE
  5
518
100
AcDbEntity
  8
WIND
100
AcDbPolyline
 90
4
 70
1
 10
3480.3150
 20
507.8740
 10
3527.5591
 20
507.8740
 10
3527.5591
 20
555.1181
 10
3480.3150
 20
555.1181
  0
LWPOLYLINE
  5
519
100
AcDbEntity
  8
WIND
100
AcDbPolyline
 90
4
 70
1
 10
3677.1654
 20
507.8740
 10
3724.4094
 20
507.8740
 10
3724.4094
 20
555.1181
 10
3677.1654
 20
555.1181
  0
LWPOLYLINE
  5
51A
100
AcDbEntity
  8
WIND
100
AcDbPolyline
 90
4
 70
1
 10
3874.0157
 20
507.8740
 10
3921.2598
 20
507.8740
 10
3921.2598
 20
555.1181
 10
3874.0157
 20
555.1181
  0
LWPOLYLINE
  5
51B
100
AcDbEntity
  8
WIND
100
AcDbPolyline
 90
4
 70
1
 10
4070.8661
 20
507.8740
 10
4118.1102
 20
507.8740
 10
4118.1102
 20
555.1181
 10
4070.8661
 20
555.1181
  0
LWPOLYLINE
  5
51C
100
AcDbEntity
  8
WIND
100
AcDbPolyline
 90
4
 70
1
 10
4267.7165
 20
507.8740
 10
4314.9606
 20
507.8740
 10
4314.9606
 20
555.1181
 10
4267.7165
 20
555.1181
  0
LINE
  5
51D
100
AcDbEntity
  8
WALL
100
AcDbLine
 10
3307.0866
 20
590.5512
 30
0
 11
4488.1890
 21
590.5512
 31
0
  0
TEXT
  5
51E
100
AcDbEntity
  8
TEXT
100
AcDbText
 10
4523.6220
 20
590.5512
 30
0
 40
9.8425
  1
+50'-8 1/4" LEVEL 5
100
AcDbText
  0
LWPOLYLINE
  5
51F
100
AcDbEntity
  8
WIND
100
AcDbPolyline
 90
4
 70
1
 10
3480.3150
 20
625.9843
 10
3527.5591
 20
625.9843
 10
3527.5591
 20
673.2283
 10
3480.3150
 20
673.2283
  0
LWPOLYLINE
  5
520
100
AcDbEntity
  8
WIND
100
AcDbPolyline
 90
4
 70
1
 10
3677.1654
 20
625.9843
 10
3724.4094
 20
625.9843
 10
3724.4094
 20
673.2283
 10
3677.1654
 20
673.2283
  0
LWPOLYLINE
  5
521
100
AcDbEntity
  8
WIND
100
AcDbPolyline
 90
4
 70
1
 10
3874.0157
 20
625.9843
 10
3921.2598
 20
625.9843
 10
3921.2598
 20
673.2283
 10
3874.0157
 20
673.2283
  0
LWPOLYLINE
  5
522
100
AcDbEntity
  8
WIND
100
AcDbPolyline
 90
4
 70
1
 10
4070.8661
 20
625.9843
 10
4118.1102
 20
625.9843
 10
4118.1102
 20
673.2283
 10
4070.8661
 20
673.2283
  0
LWPOLYLINE
  5
523
100
AcDbEntity
  8
WIND
100
AcDbPolyline
 90
4
 70
1
 10
4267.7165
 20
625.9843
 10
4314.9606
 20
625.9843
 10
4314.9606
 20
673.2283
 10
4267.7165
 20
673.2283
  0
LINE
  5
524
100
AcDbEntity
  8
WALL
100
AcDbLine
 10
3307.0866
 20
708.6614
 30
0
 11
4488.1890
 21
708.6614
 31
0
  0
TEXT
  5
525
100
AcDbEntity
  8
TEXT
100
AcDbText
 10
4523.6220
 20
708.6614
 30
0
 40
9.8425
  1
+60'-6 3/8" LEVEL 6
100
AcDbText
  0
LWPOLYLINE
  5
526
100
AcDbEntity
  8
WIND
100
AcDbPolyline
 90
4
 70
1
 10
3480.3150
 20
744.0945
 10
3527.5591
 20
744.0945
 10
3527.5591
 20
791.3386
 10
3480.3150
 20
791.3386
  0
LWPOLYLINE
  5
527
100
AcDbEntity
  8
WIND
100
AcDbPolyline
 90
4
 70
1
 10
3677.1654
 20
744.0945
 10
3724.4094
 20
744.0945
 10
3724.4094
 20
791.3386
 10
3677.1654
 20
791.3386
  0
LWPOLYLINE
  5
528
100
AcDbEntity
  8
WIND
100
AcDbPolyline
 90
4
 70
1
 10
3874.0157
 20
744.0945
 10
3921.2598
 20
744.0945
 10
3921.2598
 20
791.3386
 10
3874.0157
 20
791.3386
  0
LWPOLYLINE
  5
529
100
AcDbEntity
  8
WIND
100
AcDbPolyline
 90
4
 70
1
 10
4070.8661
 20
744.0945
 10
4118.1102
 20
744.0945
 10
4118.1102
 20
791.3386
 10
4070.8661
 20
791.3386
  0
LWPOLYLINE
  5
52A
100
AcDbEntity
  8
WIND
100
AcDbPolyline
 90
4
 70
1
 10
4267.7165
 20
744.0945
 10
4314.9606
 20
744.0945
 10
4314.9606
 20
791.3386
 10
4267.7165
 20
791.3386
  0
LINE
  5
52B
100
AcDbEntity
  8
WALL
100
AcDbLine
 10
3307.0866
 20
826.7717
 30
0
 11
4488.1890
 21
826.7717
 31
0
  0
TEXT
  5
52C
100
AcDbEntity
  8
TEXT
100
AcDbText
 10
4523.6220
 20
826.7717
 30
0
 40
9.8425
  1
+70'-4 1/2" LEVEL 7
100
AcDbText
  0
LWPOLYLINE
  5
52D
100
AcDbEntity
  8
WIND
100
AcDbPolyline
 90
4
 70
1
 10
3480.3150
 20
862.2047
 10
3527.5591
 20
862.2047
 10
3527.5591
 20
909.4488
 10
3480.3150
 20
909.4488
  0
LWPOLYLINE
  5
52E
100
AcDbEntity
  8
WIND
100
AcDbPolyline
 90
4
 70
1
 10
3677.1654
 20
862.2047
 10
3724.4094
 20
862.2047
 10
3724.4094
 20
909.4488
 10
3677.1654
 20
909.4488
  0
LWPOLYLINE
  5
52F
100
AcDbEntity
  8
WIND
100
AcDbPolyline
 90
4
 70
1
 10
3874.0157
 20
862.2047
 10
3921.2598
 20
862.2047
 10
3921.2598
 20
909.4488
 10
3874.0157
 20
909.4488
  0
LWPOLYLINE
  5
530
100
AcDbEntity
  8
WIND
100
AcDbPolyline
 90
4
 70
1
 10
4070.8661
 20
862.2047
 10
4118.1102
 20
862.2047
 10
4118.1102
 20
909.4488
 10
4070.8661
 20
909.4488
  0
LWPOLYLINE
  5
531
100
AcDbEntity
  8
WIND
100
AcDbPolyline
 90
4
 70
1
 10
4267.7165
 20
862.2047
 10
4314.9606
 20
862.2047
 10
4314.9606
 20
909.4488
 10
4267.7165
 20
909.4488
  0
LINE
  5
532
100
AcDbEntity
  8
WALL
100
AcDbLine
 10
3307.0866
 20
944.8819
 30
0
 11
4488.1890
 21
944.8819
 31
0
  0
TEXT
  5
533
100
AcDbEntity
  8
TEXT
100
AcDbText
 10
4523.6220
 20
944.8819
 30
0
 40
9.8425
  1
+80'-2 5/8" LEVEL 8
100
AcDbText
  0
LWPOLYLINE
  5
534
100
AcDbEntity
  8
WIND
100
AcDbPolyline
 90
4
 70
1
 10
3480.3150
 20
980.3150
 10
3527.5591
 20
980.3150
 10
3527.5591
 20
1027.5591
 10
3480.3150
 20
1027.5591
  0
LWPOLYLINE
  5
535
100
AcDbEntity
  8
WIND
100
AcDbPolyline
 90
4
 70
1
 10
3677.1654
 20
980.3150
 10
3724.4094
 20
980.3150
 10
3724.4094
 20
1027.5591
 10
3677.1654
 20
1027.5591
  0
LWPOLYLINE
  5
536
100
AcDbEntity
  8
WIND
100
AcDbPolyline
 90
4
 70
1
 10
3874.0157
 20
980.3150
 10
3921.2598
 20
980.3150
 10
3921.2598
 20
1027.5591
 10
3874.0157
 20
1027.5591
  0
LWPOLYLINE
  5
537
100
AcDbEntity
  8
WIND
100
AcDbPolyline
 90
4
 70
1
 10
4070.8661
 20
980.3150
 10
4118.1102
 20
980.3150
 10
4118.1102
 20
1027.5591
 10
4070.8661
 20
1027.5591
  0
LWPOLYLINE
  5
538
100
AcDbEntity
  8
WIND
100
AcDbPolyline
 90
4
 70
1
 10
4267.7165
 20
980.3150
 10
4314.9606
 20
980.3150
 10
4314.9606
 20
1027.5591
 10
4267.7165
 20
1027.5591
  0
LINE
  5
539
100
AcDbEntity
  8
WALL
100
AcDbLine
 10
3307.0866
 20
1062.9921
 30
0
 11
4488.1890
 21
1062.9921
 31
0
  0
TEXT
  5
53A
100
AcDbEntity
  8
TEXT
100
AcDbText
 10
4523.6220
 20
1062.9921
 30
0
 40
9.8425
  1
+90'-0 3/4" LEVEL 9
100
AcDbText
  0
LWPOLYLINE
  5
53B
100
AcDbEntity
  8
WIND
100
AcDbPolyline
 90
4
 70
1
 10
3480.3150
 20
1098.4252
 10
3527.5591
 20
1098.4252
 10
3527.5591
 20
1145.6693
 10
3480.3150
 20
1145.6693
  0
LWPOLYLINE
  5
53C
100
AcDbEntity
  8
WIND
100
AcDbPolyline
 90
4
 70
1
 10
3677.1654
 20
1098.4252
 10
3724.4094
 20
1098.4252
 10
3724.4094
 20
1145.6693
 10
3677.1654
 20
1145.6693
  0
LWPOLYLINE
  5
53D
100
AcDbEntity
  8
WIND
100
AcDbPolyline
 90
4
 70
1
 10
3874.0157
 20
1098.4252
 10
3921.2598
 20
1098.4252
 10
3921.2598
 20
1145.6693
 10
3874.0157
 20
1145.6693
  0
LWPOLYLINE
  5
53E
100
AcDbEntity
  8
WIND
100
AcDbPolyline
 90
4
 70
1
 10
4070.8661
 20
1098.4252
 10
4118.1102
 20
1098.4252
 10
4118.1102
 20
1145.6693
 10
4070.8661
 20
1145.6693
  0
LWPOLYLINE
  5
53F
100
AcDbEntity
  8
WIND
100
AcDbPolyline
 90
4
 70
1
 10
4267.7165
 20
1098.4252
 10
4314.9606
 20
1098.4252
 10
4314.9606
 20
1145.6693
 10
4267.7165
 20
1145.6693
  0
LINE
  5
540
100
AcDbEntity
  8
WALL
100
AcDbLine
 10
3307.0866
 20
1181.1024
 30
0
 11
4488.1890
 21
1181.1024
 31
0
  0
TEXT
  5
541
100
AcDbEntity
  8
TEXT
100
AcDbText
 10
4523.6220
 20
1181.1024
 30
0
 40
9.8425
  1
+99'-10 7/8" LEVEL 10
100
AcDbText
  0
LWPOLYLINE
  5
542
100
AcDbEntity
  8
WIND
100
AcDbPolyline
 90
4
 70
1
 10
3480.3150
 20
1216.5354
 10
3527.5591
 20
1216.5354
 10
3527.5591
 20
1263.7795
 10
3480.3150
 20
1263.7795
  0
LWPOLYLINE
  5
543
100
AcDbEntity
  8
WIND
100
AcDbPolyline
 90
4
 70
1
 10
3677.1654
 20
1216.5354
 10
3724.4094
 20
1216.5354
 10
3724.4094
 20
1263.7795
 10
3677.1654
 20
1263.7795
  0
LWPOLYLINE
  5
544
100
AcDbEntity
  8
WIND
100
AcDbPolyline
 90
4
 70
1
 10
3874.0157
 20
1216.5354
 10
3921.2598
 20
1216.5354
 10
3921.2598
 20
1263.7795
 10
3874.0157
 20
1263.7795
  0
LWPOLYLINE
  5
545
100
AcDbEntity
  8
WIND
100
AcDbPolyline
 90
4
 70
1
 10
4070.8661
 20
1216.5354
 10
4118.1102
 20
1216.5354
 10
4118.1102
 20
1263.7795
 10
4070.8661
 20
1263.7795
  0
LWPOLYLINE
  5
546
100
AcDbEntity
  8
WIND
100
AcDbPolyline
 90
4
 70
1
 10
4267.7165
 20
1216.5354
 10
4314.9606
 20
1216.5354
 10
4314.9606
 20
1263.7795
 10
4267.7165
 20
1263.7795
  0
LINE
  5
547
100
AcDbEntity
  8
WALL
100
AcDbLine
 10
3307.0866
 20
1299.2126
 30
0
 11
4488.1890
 21
1299.2126
 31
0
  0
TEXT
  5
548
100
AcDbEntity
  8
TEXT
100
AcDbText
 10
4523.6220
 20
1299.2126
 30
0
 40
9.8425
  1
+109'-8 7/8" LEVEL 11
100
AcDbText
  0
LWPOLYLINE
  5
549
100
AcDbEntity
  8
WIND
100
AcDbPolyline
 90
4
 70
1
 10
3480.3150
 20
1334.6457
 10
3527.5591
 20
1334.6457
 10
3527.5591
 20
1381.8898
 10
3480.3150
 20
1381.8898
  0
LWPOLYLINE
  5
54A
100
AcDbEntity
  8
WIND
100
AcDbPolyline
 90
4
 70
1
 10
3677.1654
 20
1334.6457
 10
3724.4094
 20
1334.6457
 10
3724.4094
 20
1381.8898
 10
3677.1654
 20
1381.8898
  0
LWPOLYLINE
  5
54B
100
AcDbEntity
  8
WIND
100
AcDbPolyline
 90
4
 70
1
 10
3874.0157
 20
1334.6457
 10
3921.2598
 20
1334.6457
 10
3921.2598
 20
1381.8898
 10
3874.0157
 20
1381.8898
  0
LWPOLYLINE
  5
54C
100
AcDbEntity
  8
WIND
100
AcDbPolyline
 90
4
 70
1
 10
4070.8661
 20
1334.6457
 10
4118.1102
 20
1334.6457
 10
4118.1102
 20
1381.8898
 10
4070.8661
 20
1381.8898
  0
LWPOLYLINE
  5
54D
100
AcDbEntity
  8
WIND
100
AcDbPolyline
 90
4
 70
1
 10
4267.7165
 20
1334.6457
 10
4314.9606
 20
1334.6457
 10
4314.9606
 20
1381.8898
 10
4267.7165
 20
1381.8898
  0
LINE
  5
54E
100
AcDbEntity
  8
WALL
100
AcDbLine
 10
3307.0866
 20
1417.3228
 30
0
 11
4488.1890
 21
1417.3228
 31
0
  0
TEXT
  5
54F
100
AcDbEntity
  8
TEXT
100
AcDbText
 10
4523.6220
 20
1417.3228
 30
0
 40
9.8425
  1
+119'-7" LEVEL 12
100
AcDbText
  0
LWPOLYLINE
  5
550
100
AcDbEntity
  8
WIND
100
AcDbPolyline
 90
4
 70
1
 10
3480.3150
 20
1452.7559
 10
3527.5591
 20
1452.7559
 10
3527.5591
 20
1500
 10
3480.3150
 20
1500
  0
LWPOLYLINE
  5
551
100
AcDbEntity
  8
WIND
100
AcDbPolyline
 90
4
 70
1
 10
3677.1654
 20
1452.7559
 10
3724.4094
 20
1452.7559
 10
3724.4094
 20
1500
 10
3677.1654
 20
1500
  0
LWPOLYLINE
  5
552
100
AcDbEntity
  8
WIND
100
AcDbPolyline
 90
4
 70
1
 10
3874.0157
 20
1452.7559
 10
3921.2598
 20
1452.7559
 10
3921.2598
 20
1500
 10
3874.0157
 20
1500
  0
LWPOLYLINE
  5
553
100
AcDbEntity
  8
WIND
100
AcDbPolyline
 90
4
 70
1
 10
4070.8661
 20
1452.7559
 10
4118.1102
 20
1452.7559
 10
4118.1102
 20
1500
 10
4070.8661
 20
1500
  0
LWPOLYLINE
  5
554
100
AcDbEntity
  8
WIND
100
AcDbPolyline
 90
4
 70
1
 10
4267.7165
 20
1452.7559
 10
4314.9606
 20
1452.7559
 10
4314.9606
 20
1500
 10
4267.7165
 20
1500
  0
LINE
  5
555
100
AcDbEntity
  8
WALL
100
AcDbLine
 10
3307.0866
 20
1535.4331
 30
0
 11
4488.1890
 21
1535.4331
 31
0
  0
TEXT
  5
556
100
AcDbEntity
  8
TEXT
100
AcDbText
 10
4523.6220
 20
1535.4331
 30
0
 40
9.8425
  1
+129'-5 1/8" LEVEL 13
100
AcDbText
  0
LWPOLYLINE
  5
557
100
AcDbEntity
  8
WIND
100
AcDbPolyline
 90
4
 70
1
 10
3480.3150
 20
1570.8661
 10
3527.5591
 20
1570.8661
 10
3527.5591
 20
1618.1102
 10
3480.3150
 20
1618.1102
  0
LWPOLYLINE
  5
558
100
AcDbEntity
  8
WIND
100
AcDbPolyline
 90
4
 70
1
 10
3677.1654
 20
1570.8661
 10
3724.4094
 20
1570.8661
 10
3724.4094
 20
1618.1102
 10
3677.1654
 20
1618.1102
  0
LWPOLYLINE
  5
559
100
AcDbEntity
  8
WIND
100
AcDbPolyline
 90
4
 70
1
 10
3874.0157
 20
1570.8661
 10
3921.2598
 20
1570.8661
 10
3921.2598
 20
1618.1102
 10
3874.0157
 20
1618.1102
  0
LWPOLYLINE
  5
55A
100
AcDbEntity
  8
WIND
100
AcDbPolyline
 90
4
 70
1
 10
4070.8661
 20
1570.8661
 10
4118.1102
 20
1570.8661
 10
4118.1102
 20
1618.1102
 10
4070.8661
 20
1618.1102
  0
LWPOLYLINE
  5
55B
100
AcDbEntity
  8
WIND
100
AcDbPolyline
 90
4
 70
1
 10
4267.7165
 20
1570.8661
 10
4314.9606
 20
1570.8661
 10
4314.9606
 20
1618.1102
 10
4267.7165
 20
1618.1102
  0
LINE
  5
55C
100
AcDbEntity
  8
WALL
100
AcDbLine
 10
3307.0866
 20
1653.5433
 30
0
 11
4488.1890
 21
1653.5433
 31
0
  0
TEXT
  5
55D
100
AcDbEntity
  8
TEXT
100
AcDbText
 10
4523.6220
 20
1653.5433
 30
0
 40
9.8425
  1
+139'-3 1/4" LEVEL 14
100
AcDbText
  0
LWPOLYLINE
  5
55E
100
AcDbEntity
  8
WIND
100
AcDbPolyline
 90
4
 70
1
 10
3480.3150
 20
1688.9764
 10
3527.5591
 20
1688.9764
 10
3527.5591
 20
1736.2205
 10
3480.3150
 20
1736.2205
  0
LWPOLYLINE
  5
55F
100
AcDbEntity
  8
WIND
100
AcDbPolyline
 90
4
 70
1
 10
3677.1654
 20
1688.9764
 10
3724.4094
 20
1688.9764
 10
3724.4094
 20
1736.2205
 10
3677.1654
 20
1736.2205
  0
LWPOLYLINE
  5
560
100
AcDbEntity
  8
WIND
100
AcDbPolyline
 90
4
 70
1
 10
3874.0157
 20
1688.9764
 10
3921.2598
 20
1688.9764
 10
3921.2598
 20
1736.2205
 10
3874.0157
 20
1736.2205
  0
LWPOLYLINE
  5
561
100
AcDbEntity
  8
WIND
100
AcDbPolyline
 90
4
 70
1
 10
4070.8661
 20
1688.9764
 10
4118.1102
 20
1688.9764
 10
4118.1102
 20
1736.2205
 10
4070.8661
 20
1736.2205
  0
LWPOLYLINE
  5
562
100
AcDbEntity
  8
WIND
100
AcDbPolyline
 90
4
 70
1
 10
4267.7165
 20
1688.9764
 10
4314.9606
 20
1688.9764
 10
4314.9606
 20
1736.2205
 10
4267.7165
 20
1736.2205
  0
LINE
  5
563
100
AcDbEntity
  8
WALL
100
AcDbLine
 10
3307.0866
 20
1771.6535
 30
0
 11
4488.1890
 21
1771.6535
 31
0
  0
TEXT
  5
564
100
AcDbEntity
  8
TEXT
100
AcDbText
 10
4523.6220
 20
1771.6535
 30
0
 40
9.8425
  1
+149'-1 3/8" LEVEL 15
100
AcDbText
  0
LWPOLYLINE
  5
565
100
AcDbEntity
  8
WIND
100
AcDbPolyline
 90
4
 70
1
 10
3480.3150
 20
1807.0866
 10
3527.5591
 20
1807.0866
 10
3527.5591
 20
1854.3307
 10
3480.3150
 20
1854.3307
  0
LWPOLYLINE
  5
566
100
AcDbEntity
  8
WIND
100
AcDbPolyline
 90
4
 70
1
 10
3677.1654
 20
1807.0866
 10
3724.4094
 20
1807.0866
 10
3724.4094
 20
1854.3307
 10
3677.1654
 20
1854.3307
  0
LWPOLYLINE
  5
567
100
AcDbEntity
  8
WIND
100
AcDbPolyline
 90
4
 70
1
 10
3874.0157
 20
1807.0866
 10
3921.2598
 20
1807.0866
 10
3921.2598
 20
1854.3307
 10
3874.0157
 20
1854.3307
  0
LWPOLYLINE
  5
568
100
AcDbEntity
  8
WIND
100
AcDbPolyline
 90
4
 70
1
 10
4070.8661
 20
1807.0866
 10
4118.1102
 20
1807.0866
 10
4118.1102
 20
1854.3307
 10
4070.8661
 20
1854.3307
  0
LWPOLYLINE
  5
569
100
AcDbEntity
  8
WIND
100
AcDbPolyline
 90
4
 70
1
 10
4267.7165
 20
1807.0866
 10
4314.9606
 20
1807.0866
 10
4314.9606
 20
1854.3307
 10
4267.7165
 20
1854.3307
  0
LINE
  5
56A
100
AcDbEntity
  8
WALL
100
AcDbLine
 10
3307.0866
 20
1889.7638
 30
0
 11
4488.1890
 21
1889.7638
 31
0
  0
TEXT
  5
56B
100
AcDbEntity
  8
TEXT
100
AcDbText
 10
4523.6220
 20
1889.7638
 30
0
 40
9.8425
  1
+158'-11 1/2" LEVEL 16
100
AcDbText
  0
LWPOLYLINE
  5
56C
100
AcDbEntity
  8
WIND
100
AcDbPolyline
 90
4
 70
1
 10
3480.3150
 20
1925.1969
 10
3527.5591
 20
1925.1969
 10
3527.5591
 20
1972.4409
 10
3480.3150
 20
1972.4409
  0
LWPOLYLINE
  5
56D
100
AcDbEntity
  8
WIND
100
AcDbPolyline
 90
4
 70
1
 10
3677.1654
 20
1925.1969
 10
3724.4094
 20
1925.1969
 10
3724.4094
 20
1972.4409
 10
3677.1654
 20
1972.4409
  0
LWPOLYLINE
  5
56E
100
AcDbEntity
  8
WIND
100
AcDbPolyline
 90
4
 70
1
 10
3874.0157
 20
1925.1969
 10
3921.2598
 20
1925.1969
 10
3921.2598
 20
1972.4409
 10
3874.0157
 20
1972.4409
  0
LWPOLYLINE
  5
56F
100
AcDbEntity
  8
WIND
100
AcDbPolyline
 90
4
 70
1
 10
4070.8661
 20
1925.1969
 10
4118.1102
 20
1925.1969
 10
4118.1102
 20
1972.4409
 10
4070.8661
 20
1972.4409
  0
LWPOLYLINE
  5
570
100
AcDbEntity
  8
WIND
100
AcDbPolyline
 90
4
 70
1
 10
4267.7165
 20
1925.1969
 10
4314.9606
 20
1925.1969
 10
4314.9606
 20
1972.4409
 10
4267.7165
 20
1972.4409
  0
LINE
  5
571
100
AcDbEntity
  8
WALL
100
AcDbLine
 10
3307.0866
 20
2007.8740
 30
0
 11
4488.1890
 21
2007.8740
 31
0
  0
TEXT
  5
572
100
AcDbEntity
  8
TEXT
100
AcDbText
 10
4523.6220
 20
2007.8740
 30
0
 40
9.8425
  1
+168'-9 5/8" LEVEL 17
100
AcDbText
  0
LWPOLYLINE
  5
573
100
AcDbEntity
  8
WIND
100
AcDbPolyline
 90
4
 70
1
 10
3480.3150
 20
2043.3071
 10
3527.5591
 20
2043.3071
 10
3527.5591
 20
2090.5512
 10
3480.3150
 20
2090.5512
  0
LWPOLYLINE
  5
574
100
AcDbEntity
  8
WIND
100
AcDbPolyline
 90
4
 70
1
 10
3677.1654
 20
2043.3071
 10
3724.4094
 20
2043.3071
 10
3724.4094
 20
2090.5512
 10
3677.1654
 20
2090.5512
  0
LWPOLYLINE
  5
575
100
AcDbEntity
  8
WIND
100
AcDbPolyline
 90
4
 70
1
 10
3874.0157
 20
2043.3071
 10
3921.2598
 20
2043.3071
 10
3921.2598
 20
2090.5512
 10
3874.0157
 20
2090.5512
  0
LWPOLYLINE
  5
576
100
AcDbEntity
  8
WIND
100
AcDbPolyline
 90
4
 70
1
 10
4070.8661
 20
2043.3071
 10
4118.1102
 20
2043.3071
 10
4118.1102
 20
2090.5512
 10
4070.8661
 20
2090.5512
  0
LWPOLYLINE
  5
577
100
AcDbEntity
  8
WIND
100
AcDbPolyline
 90
4
 70
1
 10
4267.7165
 20
2043.3071
 10
4314.9606
 20
2043.3071
 10
4314.9606
 20
2090.5512
 10
4267.7165
 20
2090.5512
  0
LINE
  5
578
100
AcDbEntity
  8
WALL
100
AcDbLine
 10
3307.0866
 20
2125.9843
 30
0
 11
4488.1890
 21
2125.9843
 31
0
  0
TEXT
  5
579
100
AcDbEntity
  8
TEXT
100
AcDbText
 10
4523.6220
 20
2125.9843
 30
0
 40
9.8425
  1
+178'-7 3/4" LEVEL 18
100
AcDbText
  0
LWPOLYLINE
  5
57A
100
AcDbEntity
  8
WIND
100
AcDbPolyline
 90
4
 70
1
 10
3480.3150
 20
2161.4173
 10
3527.5591
 20
2161.4173
 10
3527.5591
 20
2208.6614
 10
3480.3150
 20
2208.6614
  0
LWPOLYLINE
  5
57B
100
AcDbEntity
  8
WIND
100
AcDbPolyline
 90
4
 70
1
 10
3677.1654
 20
2161.4173
 10
3724.4094
 20
2161.4173
 10
3724.4094
 20
2208.6614
 10
3677.1654
 20
2208.6614
  0
LWPOLYLINE
  5
57C
100
AcDbEntity
  8
WIND
100
AcDbPolyline
 90
4
 70
1
 10
3874.0157
 20
2161.4173
 10
3921.2598
 20
2161.4173
 10
3921.2598
 20
2208.6614
 10
3874.0157
 20
2208.6614
  0
LWPOLYLINE
  5
57D
100
AcDbEntity
  8
WIND
100
AcDbPolyline
 90
4
 70
1
 10
4070.8661
 20
2161.4173
 10
4118.1102
 20
2161.4173
 10
4118.1102
 20
2208.6614
 10
4070.8661
 20
2208.6614
  0
LWPOLYLINE
  5
57E
100
AcDbEntity
  8
WIND
100
AcDbPolyline
 90
4
 70
1
 10
4267.7165
 20
2161.4173
 10
4314.9606
 20
2161.4173
 10
4314.9606
 20
2208.6614
 10
4267.7165
 20
2208.6614
  0
LINE
  5
57F
100
AcDbEntity
  8
WALL
100
AcDbLine
 10
3307.0866
 20
2244.0945
 30
0
 11
4488.1890
 21
2244.0945
 31
0
  0
TEXT
  5
580
100
AcDbEntity
  8
TEXT
100
AcDbText
 10
4523.6220
 20
2244.0945
 30
0
 40
9.8425
  1
+188'-5 3/4" LEVEL 19
100
AcDbText
  0
LWPOLYLINE
  5
581
100
AcDbEntity
  8
WIND
100
AcDbPolyline
 90
4
 70
1
 10
3480.3150
 20
2279.5276
 10
3527.5591
 20
2279.5276
 10
3527.5591
 20
2326.7717
 10
3480.3150
 20
2326.7717
  0
LWPOLYLINE
  5
582
100
AcDbEntity
  8
WIND
100
AcDbPolyline
 90
4
 70
1
 10
3677.1654
 20
2279.5276
 10
3724.4094
 20
2279.5276
 10
3724.4094
 20
2326.7717
 10
3677.1654
 20
2326.7717
  0
LWPOLYLINE
  5
583
100
AcDbEntity
  8
WIND
100
AcDbPolyline
 90
4
 70
1
 10
3874.0157
 20
2279.5276
 10
3921.2598
 20
2279.5276
 10
3921.2598
 20
2326.7717
 10
3874.0157
 20
2326.7717
  0
LWPOLYLINE
  5
584
100
AcDbEntity
  8
WIND
100
AcDbPolyline
 90
4
 70
1
 10
4070.8661
 20
2279.5276
 10
4118.1102
 20
2279.5276
 10
4118.1102
 20
2326.7717
 10
4070.8661
 20
2326.7717
  0
LWPOLYLINE
  5
585
100
AcDbEntity
  8
WIND
100
AcDbPolyline
 90
4
 70
1
 10
4267.7165
 20
2279.5276
 10
4314.9606
 20
2279.5276
 10
4314.9606
 20
2326.7717
 10
4267.7165
 20
2326.7717
  0
LINE
  5
586
100
AcDbEntity
  8
WALL
100
AcDbLine
 10
3307.0866
 20
2362.2047
 30
0
 11
4488.1890
 21
2362.2047
 31
0
  0
TEXT
  5
587
100
AcDbEntity
  8
TEXT
100
AcDbText
 10
4523.6220
 20
2362.2047
 30
0
 40
9.8425
  1
+198'-3 7/8" ROOF LEVEL
100
AcDbText
  0
TEXT
  5
588
100
AcDbEntity
  8
TEXT
100
AcDbText
 10
3307.0866
 20
-125.9843
 30
0
 40
17.7165
  1
NORTH ELEVATION
100
AcDbText
  0
TEXT
  5
589
100
AcDbEntity
  8
TEXT
100
AcDbText
 10
3307.0866
 20
-157.4803
 30
0
 40
11.8110
  1
SCALE: 1/8" = 1'-0"
100
AcDbText
  0
LINE
  5
58A
100
AcDbEntity
  8
WALL
100
AcDbLine
370
50
 10
4960.6299
 20
0
 30
0
 11
6141.7323
 21
0
 31
0
  0
LINE
  5
58B
100
AcDbEntity
  8
WALL
100
AcDbLine
370
50
 10
6141.7323
 20
0
 30
0
 11
6141.7323
 21
2409.4488
 31
0
  0
LINE
  5
58C
100
AcDbEntity
  8
WALL
100
AcDbLine
370
50
 10
6141.7323
 20
2409.4488
 30
0
 11
4960.6299
 21
2409.4488
 31
0
  0
LINE
  5
58D
100
AcDbEntity
  8
WALL
100
AcDbLine
370
50
 10
4960.6299
 20
2409.4488
 30
0
 11
4960.6299
 21
0
 31
0
  0
LINE
  5
58E
100
AcDbEntity
  8
WALL
100
AcDbLine
370
50
 10
4960.6299
 20
0
 30
0
 11
6141.7323
 21
0
 31
0
  0
LINE
  5
58F
100
AcDbEntity
  8
WALL
100
AcDbLine
370
50
 10
4960.6299
 20
5.9055
 30
0
 11
6141.7323
 21
5.9055
 31
0
  0
TEXT
  5
590
100
AcDbEntity
  8
TEXT
100
AcDbText
 10
6177.1654
 20
0
 30
0
 40
9.8425
  1
+1'-5 3/4" GROUND FLOOR LEVEL
100
AcDbText
  0
LINE
  5
591
100
AcDbEntity
  8
WALL
100
AcDbLine
370
50
 10
4960.6299
 20
118.1102
 30
0
 11
6141.7323
 21
118.1102
 31
0
  0
LINE
  5
592
100
AcDbEntity
  8
WALL
100
AcDbLine
370
50
 10
4960.6299
 20
124.0157
 30
0
 11
6141.7323
 21
124.0157
 31
0
  0
TEXT
  5
593
100
AcDbEntity
  8
TEXT
100
AcDbText
 10
6177.1654
 20
118.1102
 30
0
 40
9.8425
  1
+11'-3 7/8" FIRST FLOOR SLAB
100
AcDbText
  0
LINE
  5
594
100
AcDbEntity
  8
WALL
100
AcDbLine
370
50
 10
4960.6299
 20
236.2205
 30
0
 11
6141.7323
 21
236.2205
 31
0
  0
LINE
  5
595
100
AcDbEntity
  8
WALL
100
AcDbLine
370
50
 10
4960.6299
 20
242.1260
 30
0
 11
6141.7323
 21
242.1260
 31
0
  0
TEXT
  5
596
100
AcDbEntity
  8
TEXT
100
AcDbText
 10
6177.1654
 20
236.2205
 30
0
 40
9.8425
  1
+21'-1 7/8" SECOND FLOOR SLAB
100
AcDbText
  0
LINE
  5
597
100
AcDbEntity
  8
WALL
100
AcDbLine
370
50
 10
4960.6299
 20
354.3307
 30
0
 11
6141.7323
 21
354.3307
 31
0
  0
LINE
  5
598
100
AcDbEntity
  8
WALL
100
AcDbLine
370
50
 10
4960.6299
 20
360.2362
 30
0
 11
6141.7323
 21
360.2362
 31
0
  0
TEXT
  5
599
100
AcDbEntity
  8
TEXT
100
AcDbText
 10
6177.1654
 20
354.3307
 30
0
 40
9.8425
  1
+31'-0" THIRD FLOOR SLAB
100
AcDbText
  0
LINE
  5
59A
100
AcDbEntity
  8
WALL
100
AcDbLine
370
50
 10
4960.6299
 20
472.4409
 30
0
 11
6141.7323
 21
472.4409
 31
0
  0
LINE
  5
59B
100
AcDbEntity
  8
WALL
100
AcDbLine
370
50
 10
4960.6299
 20
478.3465
 30
0
 11
6141.7323
 21
478.3465
 31
0
  0
TEXT
  5
59C
100
AcDbEntity
  8
TEXT
100
AcDbText
 10
6177.1654
 20
472.4409
 30
0
 40
9.8425
  1
+40'-10 1/8" LEVEL 4
100
AcDbText
  0
LINE
  5
59D
100
AcDbEntity
  8
WALL
100
AcDbLine
370
50
 10
4960.6299
 20
590.5512
 30
0
 11
6141.7323
 21
590.5512
 31
0
  0
LINE
  5
59E
100
AcDbEntity
  8
WALL
100
AcDbLine
370
50
 10
4960.6299
 20
596.4567
 30
0
 11
6141.7323
 21
596.4567
 31
0
  0
TEXT
  5
59F
100
AcDbEntity
  8
TEXT
100
AcDbText
 10
6177.1654
 20
590.5512
 30
0
 40
9.8425
  1
+50'-8 1/4" LEVEL 5
100
AcDbText
  0
LINE
  5
5A0
100
AcDbEntity
  8
WALL
100
AcDbLine
370
50
 10
4960.6299
 20
708.6614
 30
0
 11
6141.7323
 21
708.6614
 31
0
  0
LINE
  5
5A1
100
AcDbEntity
  8
WALL
100
AcDbLine
370
50
 10
4960.6299
 20
714.5669
 30
0
 11
6141.7323
 21
714.5669
 31
0
  0
TEXT
  5
5A2
100
AcDbEntity
  8
TEXT
100
AcDbText
 10
6177.1654
 20
708.6614
 30
0
 40
9.8425
  1
+60'-6 3/8" LEVEL 6
100
AcDbText
  0
LINE
  5
5A3
100
AcDbEntity
  8
WALL
100
AcDbLine
370
50
 10
4960.6299
 20
826.7717
 30
0
 11
6141.7323
 21
826.7717
 31
0
  0
LINE
  5
5A4
100
AcDbEntity
  8
WALL
100
AcDbLine
370
50
 10
4960.6299
 20
832.6772
 30
0
 11
6141.7323
 21
832.6772
 31
0
  0
TEXT
  5
5A5
100
AcDbEntity
  8
TEXT
100
AcDbText
 10
6177.1654
 20
826.7717
 30
0
 40
9.8425
  1
+70'-4 1/2" LEVEL 7
100
AcDbText
  0
LINE
  5
5A6
100
AcDbEntity
  8
WALL
100
AcDbLine
370
50
 10
4960.6299
 20
944.8819
 30
0
 11
6141.7323
 21
944.8819
 31
0
  0
LINE
  5
5A7
100
AcDbEntity
  8
WALL
100
AcDbLine
370
50
 10
4960.6299
 20
950.7874
 30
0
 11
6141.7323
 21
950.7874
 31
0
  0
TEXT
  5
5A8
100
AcDbEntity
  8
TEXT
100
AcDbText
 10
6177.1654
 20
944.8819
 30
0
 40
9.8425
  1
+80'-2 5/8" LEVEL 8
100
AcDbText
  0
LINE
  5
5A9
100
AcDbEntity
  8
WALL
100
AcDbLine
370
50
 10
4960.6299
 20
1062.9921
 30
0
 11
6141.7323
 21
1062.9921
 31
0
  0
LINE
  5
5AA
100
AcDbEntity
  8
WALL
100
AcDbLine
370
50
 10
4960.6299
 20
1068.8976
 30
0
 11
6141.7323
 21
1068.8976
 31
0
  0
TEXT
  5
5AB
100
AcDbEntity
  8
TEXT
100
AcDbText
 10
6177.1654
 20
1062.9921
 30
0
 40
9.8425
  1
+90'-0 3/4" LEVEL 9
100
AcDbText
  0
LINE
  5
5AC
100
AcDbEntity
  8
WALL
100
AcDbLine
370
50
 10
4960.6299
 20
1181.1024
 30
0
 11
6141.7323
 21
1181.1024
 31
0
  0
LINE
  5
5AD
100
AcDbEntity
  8
WALL
100
AcDbLine
370
50
 10
4960.6299
 20
1187.0079
 30
0
 11
6141.7323
 21
1187.0079
 31
0
  0
TEXT
  5
5AE
100
AcDbEntity
  8
TEXT
100
AcDbText
 10
6177.1654
 20
1181.1024
 30
0
 40
9.8425
  1
+99'-10 7/8" LEVEL 10
100
AcDbText
  0
LINE
  5
5AF
100
AcDbEntity
  8
WALL
100
AcDbLine
370
50
 10
4960.6299
 20
1299.2126
 30
0
 11
6141.7323
 21
1299.2126
 31
0
  0
LINE
  5
5B0
100
AcDbEntity
  8
WALL
100
AcDbLine
370
50
 10
4960.6299
 20
1305.1181
 30
0
 11
6141.7323
 21
1305.1181
 31
0
  0
TEXT
  5
5B1
100
AcDbEntity
  8
TEXT
100
AcDbText
 10
6177.1654
 20
1299.2126
 30
0
 40
9.8425
  1
+109'-8 7/8" LEVEL 11
100
AcDbText
  0
LINE
  5
5B2
100
AcDbEntity
  8
WALL
100
AcDbLine
370
50
 10
4960.6299
 20
1417.3228
 30
0
 11
6141.7323
 21
1417.3228
 31
0
  0
LINE
  5
5B3
100
AcDbEntity
  8
WALL
100
AcDbLine
370
50
 10
4960.6299
 20
1423.2283
 30
0
 11
6141.7323
 21
1423.2283
 31
0
  0
TEXT
  5
5B4
100
AcDbEntity
  8
TEXT
100
AcDbText
 10
6177.1654
 20
1417.3228
 30
0
 40
9.8425
  1
+119'-7" LEVEL 12
100
AcDbText
  0
LINE
  5
5B5
100
AcDbEntity
  8
WALL
100
AcDbLine
370
50
 10
4960.6299
 20
1535.4331
 30
0
 11
6141.7323
 21
1535.4331
 31
0
  0
LINE
  5
5B6
100
AcDbEntity
  8
WALL
100
AcDbLine
370
50
 10
4960.6299
 20
1541.3386
 30
0
 11
6141.7323
 21
1541.3386
 31
0
  0
TEXT
  5
5B7
100
AcDbEntity
  8
TEXT
100
AcDbText
 10
6177.1654
 20
1535.4331
 30
0
 40
9.8425
  1
+129'-5 1/8" LEVEL 13
100
AcDbText
  0
LINE
  5
5B8
100
AcDbEntity
  8
WALL
100
AcDbLine
370
50
 10
4960.6299
 20
1653.5433
 30
0
 11
6141.7323
 21
1653.5433
 31
0
  0
LINE
  5
5B9
100
AcDbEntity
  8
WALL
100
AcDbLine
370
50
 10
4960.6299
 20
1659.4488
 30
0
 11
6141.7323
 21
1659.4488
 31
0
  0
TEXT
  5
5BA
100
AcDbEntity
  8
TEXT
100
AcDbText
 10
6177.1654
 20
1653.5433
 30
0
 40
9.8425
  1
+139'-3 1/4" LEVEL 14
100
AcDbText
  0
LINE
  5
5BB
100
AcDbEntity
  8
WALL
100
AcDbLine
370
50
 10
4960.6299
 20
1771.6535
 30
0
 11
6141.7323
 21
1771.6535
 31
0
  0
LINE
  5
5BC
100
AcDbEntity
  8
WALL
100
AcDbLine
370
50
 10
4960.6299
 20
1777.5591
 30
0
 11
6141.7323
 21
1777.5591
 31
0
  0
TEXT
  5
5BD
100
AcDbEntity
  8
TEXT
100
AcDbText
 10
6177.1654
 20
1771.6535
 30
0
 40
9.8425
  1
+149'-1 3/8" LEVEL 15
100
AcDbText
  0
LINE
  5
5BE
100
AcDbEntity
  8
WALL
100
AcDbLine
370
50
 10
4960.6299
 20
1889.7638
 30
0
 11
6141.7323
 21
1889.7638
 31
0
  0
LINE
  5
5BF
100
AcDbEntity
  8
WALL
100
AcDbLine
370
50
 10
4960.6299
 20
1895.6693
 30
0
 11
6141.7323
 21
1895.6693
 31
0
  0
TEXT
  5
5C0
100
AcDbEntity
  8
TEXT
100
AcDbText
 10
6177.1654
 20
1889.7638
 30
0
 40
9.8425
  1
+158'-11 1/2" LEVEL 16
100
AcDbText
  0
LINE
  5
5C1
100
AcDbEntity
  8
WALL
100
AcDbLine
370
50
 10
4960.6299
 20
2007.8740
 30
0
 11
6141.7323
 21
2007.8740
 31
0
  0
LINE
  5
5C2
100
AcDbEntity
  8
WALL
100
AcDbLine
370
50
 10
4960.6299
 20
2013.7795
 30
0
 11
6141.7323
 21
2013.7795
 31
0
  0
TEXT
  5
5C3
100
AcDbEntity
  8
TEXT
100
AcDbText
 10
6177.1654
 20
2007.8740
 30
0
 40
9.8425
  1
+168'-9 5/8" LEVEL 17
100
AcDbText
  0
LINE
  5
5C4
100
AcDbEntity
  8
WALL
100
AcDbLine
370
50
 10
4960.6299
 20
2125.9843
 30
0
 11
6141.7323
 21
2125.9843
 31
0
  0
LINE
  5
5C5
100
AcDbEntity
  8
WALL
100
AcDbLine
370
50
 10
4960.6299
 20
2131.8898
 30
0
 11
6141.7323
 21
2131.8898
 31
0
  0
TEXT
  5
5C6
100
AcDbEntity
  8
TEXT
100
AcDbText
 10
6177.1654
 20
2125.9843
 30
0
 40
9.8425
  1
+178'-7 3/4" LEVEL 18
100
AcDbText
  0
LINE
  5
5C7
100
AcDbEntity
  8
WALL
100
AcDbLine
370
50
 10
4960.6299
 20
2244.0945
 30
0
 11
6141.7323
 21
2244.0945
 31
0
  0
LINE
  5
5C8
100
AcDbEntity
  8
WALL
100
AcDbLine
370
50
 10
4960.6299
 20
2250
 30
0
 11
6141.7323
 21
2250
 31
0
  0
TEXT
  5
5C9
100
AcDbEntity
  8
TEXT
100
AcDbText
 10
6177.1654
 20
2244.0945
 30
0
 40
9.8425
  1
+188'-5 3/4" LEVEL 19
100
AcDbText
  0
LINE
  5
5CA
100
AcDbEntity
  8
WALL
100
AcDbLine
370
50
 10
4960.6299
 20
2362.2047
 30
0
 11
6141.7323
 21
2362.2047
 31
0
  0
LINE
  5
5CB
100
AcDbEntity
  8
WALL
100
AcDbLine
370
50
 10
4960.6299
 20
2368.1102
 30
0
 11
6141.7323
 21
2368.1102
 31
0
  0
TEXT
  5
5CC
100
AcDbEntity
  8
TEXT
100
AcDbText
 10
6177.1654
 20
2362.2047
 30
0
 40
9.8425
  1
+198'-3 7/8" ROOF LEVEL
100
AcDbText
  0
TEXT
  5
5CD
100
AcDbEntity
  8
TEXT
100
AcDbText
 10
5000
 20
59.0551
 30
0
 40
8.6614
  1
19 NOS RISERS OF 158MM EACH AND TREADS OF 275MM
100
AcDbText
  0
TEXT
  5
5CE
100
AcDbEntity
  8
TEXT
100
AcDbText
 10
4960.6299
 20
-125.9843
 30
0
 40
17.7165
  1
SECTION A-A
100
AcDbText
  0
TEXT
  5
5CF
100
AcDbEntity
  8
TEXT
100
AcDbText
 10
4960.6299
 20
-157.4803
 30
0
 40
11.8110
  1
SCALE: 1/8" = 1'-0"
100
AcDbText
  0
ENDSEC
  0
EOF
