  0
SECTION
  2
HEADER
  9
$ACADVER
  1
AC1015
  9
$INSUNITS
 70
4
  9
$MEASUREMENT
 70
1
  9
$HANDSEED
  5
FFFF
  0
ENDSEC
  0
SECTION
  2
TABLES
  0
TABLE
  2
LTYPE
  5
674
100
AcDbSymbolTable
 70
1
  0
LTYPE
  5
675
330
674
100
AcDbSymbolTableRecord
100
AcDbLinetypeTableRecord
  2
CONTINUOUS
 70
0
  3
Solid line
 72
65
 73
0
 40
0
  0
ENDTAB
  0
TABLE
  2
LAYER
  5
676
100
AcDbSymbolTable
 70
8
  0
LAYER
  5
677
330
676
100
AcDbSymbolTableRecord
100
AcDbLayerTableRecord
  2
0
 70
0
 62
1
  6
CONTINUOUS
  0
LAYER
  5
678
330
676
100
AcDbSymbolTableRecord
100
AcDbLayerTableRecord
  2
WIND
 70
0
 62
2
  6
CONTINUOUS
  0
LAYER
  5
679
330
676
100
AcDbSymbolTableRecord
100
AcDbLayerTableRecord
  2
DOOR
 70
0
 62
3
  6
CONTINUOUS
  0
LAYER
  5
67A
330
676
100
AcDbSymbolTableRecord
100
AcDbLayerTableRecord
  2
WALL
 70
0
 62
4
  6
CONTINUOUS
  0
LAYER
  5
67B
330
676
100
AcDbSymbolTableRecord
100
AcDbLayerTableRecord
  2
COLUMN
 70
0
 62
5
  6
CONTINUOUS
  0
LAYER
  5
67C
330
676
100
AcDbSymbolTableRecord
100
AcDbLayerTableRecord
  2
TEXT
 70
0
 62
6
  6
CONTINUOUS
  0
LAYER
  5
67D
330
676
100
AcDbSymbolTableRecord
100
AcDbLayerTableRecord
  2
SANITARY
 70
0
 62
7
  6
CONTINUOUS
  0
LAYER
  5
67E
330
676
100
AcDbSymbolTableRecord
100
AcDbLayerTableRecord
  2
DIM
 70
0
 62
1
  6
CONTINUOUS
  0
ENDTAB
  0
TABLE
  2
BLOCK_RECORD
  5
67F
100
AcDbSymbolTable
 70
3
  0
BLOCK_RECORD
  5
680
330
67F
100
AcDbSymbolTableRecord
100
AcDbBlockTableRecord
  2
*Model_Space
  0
BLOCK_RECORD
  5
681
330
67F
100
AcDbSymbolTableRecord
100
AcDbBlockTableRecord
  2
*Paper_Space
  0
BLOCK_RECORD
  5
682
330
67F
100
AcDbSymbolTableRecord
100
AcDbBlockTableRecord
  2
TITLEBLOCK-A1
  0
ENDTAB
  0
ENDSEC
  0
SECTION
  2
BLOCKS
  0
BLOCK
  5
10E
100
AcDbEntity
  8
0
100
AcDbBlockBegin
  2
TITLEBLOCK-A1
 70
0
 10
0
 20
0
 30
0
  3
TITLEBLOCK-A1
  0
LWPOLYLINE
  5
100
100
AcDbEntity
  8
0
100
AcDbPolyline
 90
4
 70
1
 10
0
 20
0
 10
18000
 20
0
 10
18000
 20
5000
 10
0
 20
5000
  0
LINE
  5
101
100
AcDbEntity
  8
0
100
AcDbLine
 10
0
 20
2500
 30
0
 11
18000
 21
2500
 31
0
  0
LINE
  5
102
100
AcDbEntity
  8
0
100
AcDbLine
 10
6000
 20
0
 30
0
 11
6000
 21
5000
 31
0
  0
LINE
  5
103
100
AcDbEntity
  8
0
100
AcDbLine
 10
12000
 20
0
 30
0
 11
12000
 21
2500
 31
0
  0
TEXT
  5
104
100
AcDbEntity
  8
0
100
AcDbText
 10
300
 20
3800
 30
0
 40
350
  1
PANDA ARCHITECTS
100
AcDbText
  0
TEXT
  5
105
100
AcDbEntity
  8
0
100
AcDbText
 10
300
 20
2900
 30
0
 40
250
  1
12 MARINA ROAD LAGOS
100
AcDbText
  0
TEXT
  5
106
100
AcDbEntity
  8
0
100
AcDbText
 10
6300
 20
3800
 30
0
 40
250
  1
PROJECT: PROPOSED RESIDENTIAL DEVELOPMENT
100
AcDbText
  0
TEXT
  5
107
100
AcDbEntity
  8
0
100
AcDbText
 10
6300
 20
2900
 30
0
 40
250
  1
CLIENT: OGUDU ESTATE LTD
100
AcDbText
  0
TEXT
  5
108
100
AcDbEntity
  8
0
100
AcDbText
 10
300
 20
1500
 30
0
 40
250
  1
SCALE 1:100
100
AcDbText
  0
TEXT
  5
109
100
AcDbEntity
  8
0
100
AcDbText
 10
300
 20
600
 30
0
 40
250
  1
DATE 12-08-2026
100
AcDbText
  0
TEXT
  5
10A
100
AcDbEntity
  8
0
100
AcDbText
 10
6300
 20
1500
 30
0
 40
250
  1
DRAWN BY AO
100
AcDbText
  0
TEXT
  5
10B
100
AcDbEntity
  8
0
100
AcDbText
 10
6300
 20
600
 30
0
 40
250
  1
CHECKED BY TE
100
AcDbText
  0
TEXT
  5
10C
100
AcDbEntity
  8
0
100
AcDbText
 10
12300
 20
1500
 30
0
 40
250
  1
REV P01
100
AcDbText
  0
TEXT
  5
10D
100
AcDbEntity
  8
0
100
AcDbText
 10
12300
 20
600
 30
0
 40
250
  1
SHEET SIZE A1 594 X 841
100
AcDbText
  0
ENDBLK
  5
10F
100
AcDbEntity
  8
0
100
AcDbBlockEnd
  0
ENDSEC
  0
SECTION
  2
ENTITIES
  0
LWPOLYLINE
  5
110
100
AcDbEntity
  8
WIND
100
AcDbPolyline
 90
4
 70
1
 10
4740
 20
2400
 10
4860
 20
2400
 10
4860
 20
3600
 10
4740
 20
3600
  0
LWPOLYLINE
  5
111
100
AcDbEntity
  8
WIND
100
AcDbPolyline
 90
4
 70
1
 10
4740
 20
8400
 10
4860
 20
8400
 10
4860
 20
9600
 10
4740
 20
9600
  0
LWPOLYLINE
  5
112
100
AcDbEntity
  8
WIND
100
AcDbPolyline
 90
4
 70
1
 10
4740
 20
14400
 10
4860
 20
14400
 10
4860
 20
15600
 10
4740
 20
15600
  0
LWPOLYLINE
  5
113
100
AcDbEntity
  8
WIND
100
AcDbPolyline
 90
4
 70
1
 10
4740
 20
20400
 10
4860
 20
20400
 10
4860
 20
21600
 10
4740
 20
21600
  0
LWPOLYLINE
  5
114
100
AcDbEntity
  8
WIND
100
AcDbPolyline
 90
4
 70
1
 10
4740
 20
26400
 10
4860
 20
26400
 10
4860
 20
27600
 10
4740
 20
27600
  0
LWPOLYLINE
  5
115
100
AcDbEntity
  8
WIND
100
AcDbPolyline
 90
4
 70
1
 10
34740
 20
2400
 10
34860
 20
2400
 10
34860
 20
3600
 10
34740
 20
3600
  0
LWPOLYLINE
  5
116
100
AcDbEntity
  8
WIND
100
AcDbPolyline
 90
4
 70
1
 10
34740
 20
8400
 10
34860
 20
8400
 10
34860
 20
9600
 10
34740
 20
9600
  0
LWPOLYLINE
  5
117
100
AcDbEntity
  8
WIND
100
AcDbPolyline
 90
4
 70
1
 10
34740
 20
14400
 10
34860
 20
14400
 10
34860
 20
15600
 10
34740
 20
15600
  0
LWPOLYLINE
  5
118
100
AcDbEntity
  8
WIND
100
AcDbPolyline
 90
4
 70
1
 10
34740
 20
20400
 10
34860
 20
20400
 10
34860
 20
21600
 10
34740
 20
21600
  0
LWPOLYLINE
  5
119
100
AcDbEntity
  8
WIND
100
AcDbPolyline
 90
4
 70
1
 10
34740
 20
26400
 10
34860
 20
26400
 10
34860
 20
27600
 10
34740
 20
27600
  0
LWPOLYLINE
  5
11A
100
AcDbEntity
  8
WIND
100
AcDbPolyline
 90
4
 70
1
 10
7200
 20
-60
 10
8400
 20
-60
 10
8400
 20
60
 10
7200
 20
60
  0
LWPOLYLINE
  5
11B
100
AcDbEntity
  8
WIND
100
AcDbPolyline
 90
4
 70
1
 10
13200
 20
-60
 10
14400
 20
-60
 10
14400
 20
60
 10
13200
 20
60
  0
LWPOLYLINE
  5
11C
100
AcDbEntity
  8
WIND
100
AcDbPolyline
 90
4
 70
1
 10
19200
 20
-60
 10
20400
 20
-60
 10
20400
 20
60
 10
19200
 20
60
  0
LWPOLYLINE
  5
11D
100
AcDbEntity
  8
WIND
100
AcDbPolyline
 90
4
 70
1
 10
25200
 20
-60
 10
26400
 20
-60
 10
26400
 20
60
 10
25200
 20
60
  0
LWPOLYLINE
  5
11E
100
AcDbEntity
  8
WIND
100
AcDbPolyline
 90
4
 70
1
 10
31200
 20
-60
 10
32400
 20
-60
 10
32400
 20
60
 10
31200
 20
60
  0
LWPOLYLINE
  5
11F
100
AcDbEntity
  8
WIND
100
AcDbPolyline
 90
4
 70
1
 10
7200
 20
29940
 10
8400
 20
29940
 10
8400
 20
30060
 10
7200
 20
30060
  0
LWPOLYLINE
  5
120
100
AcDbEntity
  8
WIND
100
AcDbPolyline
 90
4
 70
1
 10
13200
 20
29940
 10
14400
 20
29940
 10
14400
 20
30060
 10
13200
 20
30060
  0
LWPOLYLINE
  5
121
100
AcDbEntity
  8
WIND
100
AcDbPolyline
 90
4
 70
1
 10
19200
 20
29940
 10
20400
 20
29940
 10
20400
 20
30060
 10
19200
 20
30060
  0
LWPOLYLINE
  5
122
100
AcDbEntity
  8
WIND
100
AcDbPolyline
 90
4
 70
1
 10
25200
 20
29940
 10
26400
 20
29940
 10
26400
 20
30060
 10
25200
 20
30060
  0
LWPOLYLINE
  5
123
100
AcDbEntity
  8
WIND
100
AcDbPolyline
 90
4
 70
1
 10
31200
 20
29940
 10
32400
 20
29940
 10
32400
 20
30060
 10
31200
 20
30060
  0
ARC
  5
124
100
AcDbEntity
  8
DOOR
100
AcDbCircle
 10
10800
 20
8550
 30
0
 40
900
100
AcDbArc
 50
90
 51
180
  0
LINE
  5
125
100
AcDbEntity
  8
DOOR
100
AcDbLine
 10
10800
 20
8550
 30
0
 11
9900
 21
8550
 31
0
  0
ARC
  5
126
100
AcDbEntity
  8
DOOR
100
AcDbCircle
 10
10800
 20
14550
 30
0
 40
900
100
AcDbArc
 50
90
 51
180
  0
LINE
  5
127
100
AcDbEntity
  8
DOOR
100
AcDbLine
 10
10800
 20
14550
 30
0
 11
9900
 21
14550
 31
0
  0
ARC
  5
128
100
AcDbEntity
  8
DOOR
100
AcDbCircle
 10
10800
 20
20550
 30
0
 40
900
100
AcDbArc
 50
90
 51
180
  0
LINE
  5
129
100
AcDbEntity
  8
DOOR
100
AcDbLine
 10
10800
 20
20550
 30
0
 11
9900
 21
20550
 31
0
  0
ARC
  5
12A
100
AcDbEntity
  8
DOOR
100
AcDbCircle
 10
10800
 20
26550
 30
0
 40
900
100
AcDbArc
 50
90
 51
180
  0
LINE
  5
12B
100
AcDbEntity
  8
DOOR
100
AcDbLine
 10
10800
 20
26550
 30
0
 11
9900
 21
26550
 31
0
  0
ARC
  5
12C
100
AcDbEntity
  8
DOOR
100
AcDbCircle
 10
16800
 20
2550
 30
0
 40
900
100
AcDbArc
 50
90
 51
180
  0
LINE
  5
12D
100
AcDbEntity
  8
DOOR
100
AcDbLine
 10
16800
 20
2550
 30
0
 11
15900
 21
2550
 31
0
  0
ARC
  5
12E
100
AcDbEntity
  8
DOOR
100
AcDbCircle
 10
16800
 20
8550
 30
0
 40
900
100
AcDbArc
 50
90
 51
180
  0
LINE
  5
12F
100
AcDbEntity
  8
DOOR
100
AcDbLine
 10
16800
 20
8550
 30
0
 11
15900
 21
8550
 31
0
  0
ARC
  5
130
100
AcDbEntity
  8
DOOR
100
AcDbCircle
 10
16800
 20
20550
 30
0
 40
900
100
AcDbArc
 50
90
 51
180
  0
LINE
  5
131
100
AcDbEntity
  8
DOOR
100
AcDbLine
 10
16800
 20
20550
 30
0
 11
15900
 21
20550
 31
0
  0
ARC
  5
132
100
AcDbEntity
  8
DOOR
100
AcDbCircle
 10
16800
 20
26550
 30
0
 40
900
100
AcDbArc
 50
90
 51
180
  0
LINE
  5
133
100
AcDbEntity
  8
DOOR
100
AcDbLine
 10
16800
 20
26550
 30
0
 11
15900
 21
26550
 31
0
  0
ARC
  5
134
100
AcDbEntity
  8
DOOR
100
AcDbCircle
 10
22800
 20
2550
 30
0
 40
900
100
AcDbArc
 50
90
 51
180
  0
LINE
  5
135
100
AcDbEntity
  8
DOOR
100
AcDbLine
 10
22800
 20
2550
 30
0
 11
21900
 21
2550
 31
0
  0
ARC
  5
136
100
AcDbEntity
  8
DOOR
100
AcDbCircle
 10
22800
 20
8550
 30
0
 40
900
100
AcDbArc
 50
90
 51
180
  0
LINE
  5
137
100
AcDbEntity
  8
DOOR
100
AcDbLine
 10
22800
 20
8550
 30
0
 11
21900
 21
8550
 31
0
  0
ARC
  5
138
100
AcDbEntity
  8
DOOR
100
AcDbCircle
 10
22800
 20
14550
 30
0
 40
900
100
AcDbArc
 50
90
 51
180
  0
LINE
  5
139
100
AcDbEntity
  8
DOOR
100
AcDbLine
 10
22800
 20
14550
 30
0
 11
21900
 21
14550
 31
0
  0
ARC
  5
13A
100
AcDbEntity
  8
DOOR
100
AcDbCircle
 10
22800
 20
20550
 30
0
 40
900
100
AcDbArc
 50
90
 51
180
  0
LINE
  5
13B
100
AcDbEntity
  8
DOOR
100
AcDbLine
 10
22800
 20
20550
 30
0
 11
21900
 21
20550
 31
0
  0
ARC
  5
13C
100
AcDbEntity
  8
DOOR
100
AcDbCircle
 10
22800
 20
26550
 30
0
 40
900
100
AcDbArc
 50
90
 51
180
  0
LINE
  5
13D
100
AcDbEntity
  8
DOOR
100
AcDbLine
 10
22800
 20
26550
 30
0
 11
21900
 21
26550
 31
0
  0
ARC
  5
13E
100
AcDbEntity
  8
DOOR
100
AcDbCircle
 10
28800
 20
2550
 30
0
 40
900
100
AcDbArc
 50
90
 51
180
  0
LINE
  5
13F
100
AcDbEntity
  8
DOOR
100
AcDbLine
 10
28800
 20
2550
 30
0
 11
27900
 21
2550
 31
0
  0
ARC
  5
140
100
AcDbEntity
  8
DOOR
100
AcDbCircle
 10
28800
 20
8550
 30
0
 40
900
100
AcDbArc
 50
90
 51
180
  0
LINE
  5
141
100
AcDbEntity
  8
DOOR
100
AcDbLine
 10
28800
 20
8550
 30
0
 11
27900
 21
8550
 31
0
  0
ARC
  5
142
100
AcDbEntity
  8
DOOR
100
AcDbCircle
 10
28800
 20
14550
 30
0
 40
900
100
AcDbArc
 50
90
 51
180
  0
LINE
  5
143
100
AcDbEntity
  8
DOOR
100
AcDbLine
 10
28800
 20
14550
 30
0
 11
27900
 21
14550
 31
0
  0
ARC
  5
144
100
AcDbEntity
  8
DOOR
100
AcDbCircle
 10
28800
 20
20550
 30
0
 40
900
100
AcDbArc
 50
90
 51
180
  0
LINE
  5
145
100
AcDbEntity
  8
DOOR
100
AcDbLine
 10
28800
 20
20550
 30
0
 11
27900
 21
20550
 31
0
  0
ARC
  5
146
100
AcDbEntity
  8
DOOR
100
AcDbCircle
 10
7350
 20
6000
 30
0
 40
900
100
AcDbArc
 50
0
 51
90
  0
LINE
  5
147
100
AcDbEntity
  8
DOOR
100
AcDbLine
 10
7350
 20
6000
 30
0
 11
7350
 21
6900
 31
0
  0
ARC
  5
148
100
AcDbEntity
  8
DOOR
100
AcDbCircle
 10
13350
 20
6000
 30
0
 40
900
100
AcDbArc
 50
0
 51
90
  0
LINE
  5
149
100
AcDbEntity
  8
DOOR
100
AcDbLine
 10
13350
 20
6000
 30
0
 11
13350
 21
6900
 31
0
  0
ARC
  5
14A
100
AcDbEntity
  8
DOOR
100
AcDbCircle
 10
19350
 20
6000
 30
0
 40
900
100
AcDbArc
 50
0
 51
90
  0
LINE
  5
14B
100
AcDbEntity
  8
DOOR
100
AcDbLine
 10
19350
 20
6000
 30
0
 11
19350
 21
6900
 31
0
  0
ARC
  5
14C
100
AcDbEntity
  8
DOOR
100
AcDbCircle
 10
25350
 20
6000
 30
0
 40
900
100
AcDbArc
 50
0
 51
90
  0
LINE
  5
14D
100
AcDbEntity
  8
DOOR
100
AcDbLine
 10
25350
 20
6000
 30
0
 11
25350
 21
6900
 31
0
  0
ARC
  5
14E
100
AcDbEntity
  8
DOOR
100
AcDbCircle
 10
7350
 20
12000
 30
0
 40
900
100
AcDbArc
 50
0
 51
90
  0
LINE
  5
14F
100
AcDbEntity
  8
DOOR
100
AcDbLine
 10
7350
 20
12000
 30
0
 11
7350
 21
12900
 31
0
  0
ARC
  5
150
100
AcDbEntity
  8
DOOR
100
AcDbCircle
 10
13350
 20
12000
 30
0
 40
900
100
AcDbArc
 50
0
 51
90
  0
LINE
  5
151
100
AcDbEntity
  8
DOOR
100
AcDbLine
 10
13350
 20
12000
 30
0
 11
13350
 21
12900
 31
0
  0
ARC
  5
152
100
AcDbEntity
  8
DOOR
100
AcDbCircle
 10
19350
 20
12000
 30
0
 40
900
100
AcDbArc
 50
0
 51
90
  0
LINE
  5
153
100
AcDbEntity
  8
DOOR
100
AcDbLine
 10
19350
 20
12000
 30
0
 11
19350
 21
12900
 31
0
  0
ARC
  5
154
100
AcDbEntity
  8
DOOR
100
AcDbCircle
 10
25350
 20
12000
 30
0
 40
900
100
AcDbArc
 50
0
 51
90
  0
LINE
  5
155
100
AcDbEntity
  8
DOOR
100
AcDbLine
 10
25350
 20
12000
 30
0
 11
25350
 21
12900
 31
0
  0
ARC
  5
156
100
AcDbEntity
  8
DOOR
100
AcDbCircle
 10
31350
 20
12000
 30
0
 40
900
100
AcDbArc
 50
0
 51
90
  0
LINE
  5
157
100
AcDbEntity
  8
DOOR
100
AcDbLine
 10
31350
 20
12000
 30
0
 11
31350
 21
12900
 31
0
  0
ARC
  5
158
100
AcDbEntity
  8
DOOR
100
AcDbCircle
 10
7350
 20
18000
 30
0
 40
900
100
AcDbArc
 50
0
 51
90
  0
LINE
  5
159
100
AcDbEntity
  8
DOOR
100
AcDbLine
 10
7350
 20
18000
 30
0
 11
7350
 21
18900
 31
0
  0
ARC
  5
15A
100
AcDbEntity
  8
DOOR
100
AcDbCircle
 10
13350
 20
18000
 30
0
 40
900
100
AcDbArc
 50
0
 51
90
  0
LINE
  5
15B
100
AcDbEntity
  8
DOOR
100
AcDbLine
 10
13350
 20
18000
 30
0
 11
13350
 21
18900
 31
0
  0
ARC
  5
15C
100
AcDbEntity
  8
DOOR
100
AcDbCircle
 10
19350
 20
18000
 30
0
 40
900
100
AcDbArc
 50
0
 51
90
  0
LINE
  5
15D
100
AcDbEntity
  8
DOOR
100
AcDbLine
 10
19350
 20
18000
 30
0
 11
19350
 21
18900
 31
0
  0
ARC
  5
15E
100
AcDbEntity
  8
DOOR
100
AcDbCircle
 10
25350
 20
18000
 30
0
 40
900
100
AcDbArc
 50
0
 51
90
  0
LINE
  5
15F
100
AcDbEntity
  8
DOOR
100
AcDbLine
 10
25350
 20
18000
 30
0
 11
25350
 21
18900
 31
0
  0
ARC
  5
160
100
AcDbEntity
  8
DOOR
100
AcDbCircle
 10
31350
 20
18000
 30
0
 40
900
100
AcDbArc
 50
0
 51
90
  0
LINE
  5
161
100
AcDbEntity
  8
DOOR
100
AcDbLine
 10
31350
 20
18000
 30
0
 11
31350
 21
18900
 31
0
  0
ARC
  5
162
100
AcDbEntity
  8
DOOR
100
AcDbCircle
 10
13350
 20
24000
 30
0
 40
900
100
AcDbArc
 50
0
 51
90
  0
LINE
  5
163
100
AcDbEntity
  8
DOOR
100
AcDbLine
 10
13350
 20
24000
 30
0
 11
13350
 21
24900
 31
0
  0
ARC
  5
164
100
AcDbEntity
  8
DOOR
100
AcDbCircle
 10
19350
 20
24000
 30
0
 40
900
100
AcDbArc
 50
0
 51
90
  0
LINE
  5
165
100
AcDbEntity
  8
DOOR
100
AcDbLine
 10
19350
 20
24000
 30
0
 11
19350
 21
24900
 31
0
  0
ARC
  5
166
100
AcDbEntity
  8
DOOR
100
AcDbCircle
 10
25350
 20
24000
 30
0
 40
900
100
AcDbArc
 50
0
 51
90
  0
LINE
  5
167
100
AcDbEntity
  8
DOOR
100
AcDbLine
 10
25350
 20
24000
 30
0
 11
25350
 21
24900
 31
0
  0
ARC
  5
168
100
AcDbEntity
  8
DOOR
100
AcDbCircle
 10
31350
 20
24000
 30
0
 40
900
100
AcDbArc
 50
0
 51
90
  0
LINE
  5
169
100
AcDbEntity
  8
DOOR
100
AcDbLine
 10
31350
 20
24000
 30
0
 11
31350
 21
24900
 31
0
  0
LINE
  5
16A
100
AcDbEntity
  8
WALL
100
AcDbLine
370
50
 10
4650
 20
0
 30
0
 11
4650
 21
2400
 31
0
  0
LINE
  5
16B
100
AcDbEntity
  8
WALL
100
AcDbLine
370
50
 10
4950
 20
2400
 30
0
 11
4950
 21
0
 31
0
  0
LINE
  5
16C
100
AcDbEntity
  8
WALL
100
AcDbLine
370
50
 10
4650
 20
3600
 30
0
 11
4650
 21
6000
 31
0
  0
LINE
  5
16D
100
AcDbEntity
  8
WALL
100
AcDbLine
370
50
 10
4950
 20
6000
 30
0
 11
4950
 21
3600
 31
0
  0
LINE
  5
16E
100
AcDbEntity
  8
WALL
100
AcDbLine
370
50
 10
4650
 20
2400
 30
0
 11
4950
 21
2400
 31
0
  0
LINE
  5
16F
100
AcDbEntity
  8
WALL
100
AcDbLine
370
50
 10
4650
 20
3600
 30
0
 11
4950
 21
3600
 31
0
  0
LINE
  5
170
100
AcDbEntity
  8
WALL
100
AcDbLine
370
50
 10
4650
 20
6000
 30
0
 11
4650
 21
8400
 31
0
  0
LINE
  5
171
100
AcDbEntity
  8
WALL
100
AcDbLine
370
50
 10
4950
 20
8400
 30
0
 11
4950
 21
6000
 31
0
  0
LINE
  5
172
100
AcDbEntity
  8
WALL
100
AcDbLine
370
50
 10
4650
 20
9600
 30
0
 11
4650
 21
12000
 31
0
  0
LINE
  5
173
100
AcDbEntity
  8
WALL
100
AcDbLine
370
50
 10
4950
 20
12000
 30
0
 11
4950
 21
9600
 31
0
  0
LINE
  5
174
100
AcDbEntity
  8
WALL
100
AcDbLine
370
50
 10
4650
 20
8400
 30
0
 11
4950
 21
8400
 31
0
  0
LINE
  5
175
100
AcDbEntity
  8
WALL
100
AcDbLine
370
50
 10
4650
 20
9600
 30
0
 11
4950
 21
9600
 31
0
  0
LINE
  5
176
100
AcDbEntity
  8
WALL
100
AcDbLine
370
50
 10
4650
 20
12000
 30
0
 11
4650
 21
14400
 31
0
  0
LINE
  5
177
100
AcDbEntity
  8
WALL
100
AcDbLine
370
50
 10
4950
 20
14400
 30
0
 11
4950
 21
12000
 31
0
  0
LINE
  5
178
100
AcDbEntity
  8
WALL
100
AcDbLine
370
50
 10
4650
 20
15600
 30
0
 11
4650
 21
18000
 31
0
  0
LINE
  5
179
100
AcDbEntity
  8
WALL
100
AcDbLine
370
50
 10
4950
 20
18000
 30
0
 11
4950
 21
15600
 31
0
  0
LINE
  5
17A
100
AcDbEntity
  8
WALL
100
AcDbLine
370
50
 10
4650
 20
14400
 30
0
 11
4950
 21
14400
 31
0
  0
LINE
  5
17B
100
AcDbEntity
  8
WALL
100
AcDbLine
370
50
 10
4650
 20
15600
 30
0
 11
4950
 21
15600
 31
0
  0
LINE
  5
17C
100
AcDbEntity
  8
WALL
100
AcDbLine
370
50
 10
4650
 20
18000
 30
0
 11
4650
 21
20400
 31
0
  0
LINE
  5
17D
100
AcDbEntity
  8
WALL
100
AcDbLine
370
50
 10
4950
 20
20400
 30
0
 11
4950
 21
18000
 31
0
  0
LINE
  5
17E
100
AcDbEntity
  8
WALL
100
AcDbLine
370
50
 10
4650
 20
21600
 30
0
 11
4650
 21
24000
 31
0
  0
LINE
  5
17F
100
AcDbEntity
  8
WALL
100
AcDbLine
370
50
 10
4950
 20
24000
 30
0
 11
4950
 21
21600
 31
0
  0
LINE
  5
180
100
AcDbEntity
  8
WALL
100
AcDbLine
370
50
 10
4650
 20
20400
 30
0
 11
4950
 21
20400
 31
0
  0
LINE
  5
181
100
AcDbEntity
  8
WALL
100
AcDbLine
370
50
 10
4650
 20
21600
 30
0
 11
4950
 21
21600
 31
0
  0
LINE
  5
182
100
AcDbEntity
  8
WALL
100
AcDbLine
370
50
 10
4650
 20
24000
 30
0
 11
4650
 21
26400
 31
0
  0
LINE
  5
183
100
AcDbEntity
  8
WALL
100
AcDbLine
370
50
 10
4950
 20
26400
 30
0
 11
4950
 21
24000
 31
0
  0
LINE
  5
184
100
AcDbEntity
  8
WALL
100
AcDbLine
370
50
 10
4650
 20
27600
 30
0
 11
4650
 21
30000
 31
0
  0
LINE
  5
185
100
AcDbEntity
  8
WALL
100
AcDbLine
370
50
 10
4950
 20
30000
 30
0
 11
4950
 21
27600
 31
0
  0
LINE
  5
186
100
AcDbEntity
  8
WALL
100
AcDbLine
370
50
 10
4650
 20
26400
 30
0
 11
4950
 21
26400
 31
0
  0
LINE
  5
187
100
AcDbEntity
  8
WALL
100
AcDbLine
370
50
 10
4650
 20
27600
 30
0
 11
4950
 21
27600
 31
0
  0
LINE
  5
188
100
AcDbEntity
  8
WALL
100
AcDbLine
370
50
 10
34650
 20
0
 30
0
 11
34650
 21
2400
 31
0
  0
LINE
  5
189
100
AcDbEntity
  8
WALL
100
AcDbLine
370
50
 10
34950
 20
2400
 30
0
 11
34950
 21
0
 31
0
  0
LINE
  5
18A
100
AcDbEntity
  8
WALL
100
AcDbLine
370
50
 10
34650
 20
3600
 30
0
 11
34650
 21
6000
 31
0
  0
LINE
  5
18B
100
AcDbEntity
  8
WALL
100
AcDbLine
370
50
 10
34950
 20
6000
 30
0
 11
34950
 21
3600
 31
0
  0
LINE
  5
18C
100
AcDbEntity
  8
WALL
100
AcDbLine
370
50
 10
34650
 20
2400
 30
0
 11
34950
 21
2400
 31
0
  0
LINE
  5
18D
100
AcDbEntity
  8
WALL
100
AcDbLine
370
50
 10
34650
 20
3600
 30
0
 11
34950
 21
3600
 31
0
  0
LINE
  5
18E
100
AcDbEntity
  8
WALL
100
AcDbLine
370
50
 10
34650
 20
6000
 30
0
 11
34650
 21
8400
 31
0
  0
LINE
  5
18F
100
AcDbEntity
  8
WALL
100
AcDbLine
370
50
 10
34950
 20
8400
 30
0
 11
34950
 21
6000
 31
0
  0
LINE
  5
190
100
AcDbEntity
  8
WALL
100
AcDbLine
370
50
 10
34650
 20
9600
 30
0
 11
34650
 21
12000
 31
0
  0
LINE
  5
191
100
AcDbEntity
  8
WALL
100
AcDbLine
370
50
 10
34950
 20
12000
 30
0
 11
34950
 21
9600
 31
0
  0
LINE
  5
192
100
AcDbEntity
  8
WALL
100
AcDbLine
370
50
 10
34650
 20
8400
 30
0
 11
34950
 21
8400
 31
0
  0
LINE
  5
193
100
AcDbEntity
  8
WALL
100
AcDbLine
370
50
 10
34650
 20
9600
 30
0
 11
34950
 21
9600
 31
0
  0
LINE
  5
194
100
AcDbEntity
  8
WALL
100
AcDbLine
370
50
 10
34650
 20
12000
 30
0
 11
34650
 21
14400
 31
0
  0
LINE
  5
195
100
AcDbEntity
  8
WALL
100
AcDbLine
370
50
 10
34950
 20
14400
 30
0
 11
34950
 21
12000
 31
0
  0
LINE
  5
196
100
AcDbEntity
  8
WALL
100
AcDbLine
370
50
 10
34650
 20
15600
 30
0
 11
34650
 21
18000
 31
0
  0
LINE
  5
197
100
AcDbEntity
  8
WALL
100
AcDbLine
370
50
 10
34950
 20
18000
 30
0
 11
34950
 21
15600
 31
0
  0
LINE
  5
198
100
AcDbEntity
  8
WALL
100
AcDbLine
370
50
 10
34650
 20
14400
 30
0
 11
34950
 21
14400
 31
0
  0
LINE
  5
199
100
AcDbEntity
  8
WALL
100
AcDbLine
370
50
 10
34650
 20
15600
 30
0
 11
34950
 21
15600
 31
0
  0
LINE
  5
19A
100
AcDbEntity
  8
WALL
100
AcDbLine
370
50
 10
34650
 20
18000
 30
0
 11
34650
 21
20400
 31
0
  0
LINE
  5
19B
100
AcDbEntity
  8
WALL
100
AcDbLine
370
50
 10
34950
 20
20400
 30
0
 11
34950
 21
18000
 31
0
  0
LINE
  5
19C
100
AcDbEntity
  8
WALL
100
AcDbLine
370
50
 10
34650
 20
21600
 30
0
 11
34650
 21
24000
 31
0
  0
LINE
  5
19D
100
AcDbEntity
  8
WALL
100
AcDbLine
370
50
 10
34950
 20
24000
 30
0
 11
34950
 21
21600
 31
0
  0
LINE
  5
19E
100
AcDbEntity
  8
WALL
100
AcDbLine
370
50
 10
34650
 20
20400
 30
0
 11
34950
 21
20400
 31
0
  0
LINE
  5
19F
100
AcDbEntity
  8
WALL
100
AcDbLine
370
50
 10
34650
 20
21600
 30
0
 11
34950
 21
21600
 31
0
  0
LINE
  5
1A0
100
AcDbEntity
  8
WALL
100
AcDbLine
370
50
 10
34650
 20
24000
 30
0
 11
34650
 21
26400
 31
0
  0
LINE
  5
1A1
100
AcDbEntity
  8
WALL
100
AcDbLine
370
50
 10
34950
 20
26400
 30
0
 11
34950
 21
24000
 31
0
  0
LINE
  5
1A2
100
AcDbEntity
  8
WALL
100
AcDbLine
370
50
 10
34650
 20
27600
 30
0
 11
34650
 21
30000
 31
0
  0
LINE
  5
1A3
100
AcDbEntity
  8
WALL
100
AcDbLine
370
50
 10
34950
 20
30000
 30
0
 11
34950
 21
27600
 31
0
  0
LINE
  5
1A4
100
AcDbEntity
  8
WALL
100
AcDbLine
370
50
 10
34650
 20
26400
 30
0
 11
34950
 21
26400
 31
0
  0
LINE
  5
1A5
100
AcDbEntity
  8
WALL
100
AcDbLine
370
50
 10
34650
 20
27600
 30
0
 11
34950
 21
27600
 31
0
  0
LINE
  5
1A6
100
AcDbEntity
  8
WALL
100
AcDbLine
370
50
 10
4800
 20
-150
 30
0
 11
7200
 21
-150
 31
0
  0
LINE
  5
1A7
100
AcDbEntity
  8
WALL
100
AcDbLine
370
50
 10
7200
 20
150
 30
0
 11
4800
 21
150
 31
0
  0
LINE
  5
1A8
100
AcDbEntity
  8
WALL
100
AcDbLine
370
50
 10
8400
 20
-150
 30
0
 11
10800
 21
-150
 31
0
  0
LINE
  5
1A9
100
AcDbEntity
  8
WALL
100
AcDbLine
370
50
 10
10800
 20
150
 30
0
 11
8400
 21
150
 31
0
  0
LINE
  5
1AA
100
AcDbEntity
  8
WALL
100
AcDbLine
370
50
 10
7200
 20
-150
 30
0
 11
7200
 21
150
 31
0
  0
LINE
  5
1AB
100
AcDbEntity
  8
WALL
100
AcDbLine
370
50
 10
8400
 20
-150
 30
0
 11
8400
 21
150
 31
0
  0
LINE
  5
1AC
100
AcDbEntity
  8
WALL
100
AcDbLine
370
50
 10
10800
 20
-150
 30
0
 11
13200
 21
-150
 31
0
  0
LINE
  5
1AD
100
AcDbEntity
  8
WALL
100
AcDbLine
370
50
 10
13200
 20
150
 30
0
 11
10800
 21
150
 31
0
  0
LINE
  5
1AE
100
AcDbEntity
  8
WALL
100
AcDbLine
370
50
 10
14400
 20
-150
 30
0
 11
16800
 21
-150
 31
0
  0
LINE
  5
1AF
100
AcDbEntity
  8
WALL
100
AcDbLine
370
50
 10
16800
 20
150
 30
0
 11
14400
 21
150
 31
0
  0
LINE
  5
1B0
100
AcDbEntity
  8
WALL
100
AcDbLine
370
50
 10
13200
 20
-150
 30
0
 11
13200
 21
150
 31
0
  0
LINE
  5
1B1
100
AcDbEntity
  8
WALL
100
AcDbLine
370
50
 10
14400
 20
-150
 30
0
 11
14400
 21
150
 31
0
  0
LINE
  5
1B2
100
AcDbEntity
  8
WALL
100
AcDbLine
370
50
 10
16800
 20
-150
 30
0
 11
19200
 21
-150
 31
0
  0
LINE
  5
1B3
100
AcDbEntity
  8
WALL
100
AcDbLine
370
50
 10
19200
 20
150
 30
0
 11
16800
 21
150
 31
0
  0
LINE
  5
1B4
100
AcDbEntity
  8
WALL
100
AcDbLine
370
50
 10
20400
 20
-150
 30
0
 11
22800
 21
-150
 31
0
  0
LINE
  5
1B5
100
AcDbEntity
  8
WALL
100
AcDbLine
370
50
 10
22800
 20
150
 30
0
 11
20400
 21
150
 31
0
  0
LINE
  5
1B6
100
AcDbEntity
  8
WALL
100
AcDbLine
370
50
 10
19200
 20
-150
 30
0
 11
19200
 21
150
 31
0
  0
LINE
  5
1B7
100
AcDbEntity
  8
WALL
100
AcDbLine
370
50
 10
20400
 20
-150
 30
0
 11
20400
 21
150
 31
0
  0
LINE
  5
1B8
100
AcDbEntity
  8
WALL
100
AcDbLine
370
50
 10
22800
 20
-150
 30
0
 11
25200
 21
-150
 31
0
  0
LINE
  5
1B9
100
AcDbEntity
  8
WALL
100
AcDbLine
370
50
 10
25200
 20
150
 30
0
 11
22800
 21
150
 31
0
  0
LINE
  5
1BA
100
AcDbEntity
  8
WALL
100
AcDbLine
370
50
 10
26400
 20
-150
 30
0
 11
28800
 21
-150
 31
0
  0
LINE
  5
1BB
100
AcDbEntity
  8
WALL
100
AcDbLine
370
50
 10
28800
 20
150
 30
0
 11
26400
 21
150
 31
0
  0
LINE
  5
1BC
100
AcDbEntity
  8
WALL
100
AcDbLine
370
50
 10
25200
 20
-150
 30
0
 11
25200
 21
150
 31
0
  0
LINE
  5
1BD
100
AcDbEntity
  8
WALL
100
AcDbLine
370
50
 10
26400
 20
-150
 30
0
 11
26400
 21
150
 31
0
  0
LINE
  5
1BE
100
AcDbEntity
  8
WALL
100
AcDbLine
370
50
 10
28800
 20
-150
 30
0
 11
31200
 21
-150
 31
0
  0
LINE
  5
1BF
100
AcDbEntity
  8
WALL
100
AcDbLine
370
50
 10
31200
 20
150
 30
0
 11
28800
 21
150
 31
0
  0
LINE
  5
1C0
100
AcDbEntity
  8
WALL
100
AcDbLine
370
50
 10
32400
 20
-150
 30
0
 11
34800
 21
-150
 31
0
  0
LINE
  5
1C1
100
AcDbEntity
  8
WALL
100
AcDbLine
370
50
 10
34800
 20
150
 30
0
 11
32400
 21
150
 31
0
  0
LINE
  5
1C2
100
AcDbEntity
  8
WALL
100
AcDbLine
370
50
 10
31200
 20
-150
 30
0
 11
31200
 21
150
 31
0
  0
LINE
  5
1C3
100
AcDbEntity
  8
WALL
100
AcDbLine
370
50
 10
32400
 20
-150
 30
0
 11
32400
 21
150
 31
0
  0
LINE
  5
1C4
100
AcDbEntity
  8
WALL
100
AcDbLine
370
50
 10
4800
 20
29850
 30
0
 11
7200
 21
29850
 31
0
  0
LINE
  5
1C5
100
AcDbEntity
  8
WALL
100
AcDbLine
370
50
 10
7200
 20
30150
 30
0
 11
4800
 21
30150
 31
0
  0
LINE
  5
1C6
100
AcDbEntity
  8
WALL
100
AcDbLine
370
50
 10
8400
 20
29850
 30
0
 11
10800
 21
29850
 31
0
  0
LINE
  5
1C7
100
AcDbEntity
  8
WALL
100
AcDbLine
370
50
 10
10800
 20
30150
 30
0
 11
8400
 21
30150
 31
0
  0
LINE
  5
1C8
100
AcDbEntity
  8
WALL
100
AcDbLine
370
50
 10
7200
 20
29850
 30
0
 11
7200
 21
30150
 31
0
  0
LINE
  5
1C9
100
AcDbEntity
  8
WALL
100
AcDbLine
370
50
 10
8400
 20
29850
 30
0
 11
8400
 21
30150
 31
0
  0
LINE
  5
1CA
100
AcDbEntity
  8
WALL
100
AcDbLine
370
50
 10
10800
 20
29850
 30
0
 11
13200
 21
29850
 31
0
  0
LINE
  5
1CB
100
AcDbEntity
  8
WALL
100
AcDbLine
370
50
 10
13200
 20
30150
 30
0
 11
10800
 21
30150
 31
0
  0
LINE
  5
1CC
100
AcDbEntity
  8
WALL
100
AcDbLine
370
50
 10
14400
 20
29850
 30
0
 11
16800
 21
29850
 31
0
  0
LINE
  5
1CD
100
AcDbEntity
  8
WALL
100
AcDbLine
370
50
 10
16800
 20
30150
 30
0
 11
14400
 21
30150
 31
0
  0
LINE
  5
1CE
100
AcDbEntity
  8
WALL
100
AcDbLine
370
50
 10
13200
 20
29850
 30
0
 11
13200
 21
30150
 31
0
  0
LINE
  5
1CF
100
AcDbEntity
  8
WALL
100
AcDbLine
370
50
 10
14400
 20
29850
 30
0
 11
14400
 21
30150
 31
0
  0
LINE
  5
1D0
100
AcDbEntity
  8
WALL
100
AcDbLine
370
50
 10
16800
 20
29850
 30
0
 11
19200
 21
29850
 31
0
  0
LINE
  5
1D1
100
AcDbEntity
  8
WALL
100
AcDbLine
370
50
 10
19200
 20
30150
 30
0
 11
16800
 21
30150
 31
0
  0
LINE
  5
1D2
100
AcDbEntity
  8
WALL
100
AcDbLine
370
50
 10
20400
 20
29850
 30
0
 11
22800
 21
29850
 31
0
  0
LINE
  5
1D3
100
AcDbEntity
  8
WALL
100
AcDbLine
370
50
 10
22800
 20
30150
 30
0
 11
20400
 21
30150
 31
0
  0
LINE
  5
1D4
100
AcDbEntity
  8
WALL
100
AcDbLine
370
50
 10
19200
 20
29850
 30
0
 11
19200
 21
30150
 31
0
  0
LINE
  5
1D5
100
AcDbEntity
  8
WALL
100
AcDbLine
370
50
 10
20400
 20
29850
 30
0
 11
20400
 21
30150
 31
0
  0
LINE
  5
1D6
100
AcDbEntity
  8
WALL
100
AcDbLine
370
50
 10
22800
 20
29850
 30
0
 11
25200
 21
29850
 31
0
  0
LINE
  5
1D7
100
AcDbEntity
  8
WALL
100
AcDbLine
370
50
 10
25200
 20
30150
 30
0
 11
22800
 21
30150
 31
0
  0
LINE
  5
1D8
100
AcDbEntity
  8
WALL
100
AcDbLine
370
50
 10
26400
 20
29850
 30
0
 11
28800
 21
29850
 31
0
  0
LINE
  5
1D9
100
AcDbEntity
  8
WALL
100
AcDbLine
370
50
 10
28800
 20
30150
 30
0
 11
26400
 21
30150
 31
0
  0
LINE
  5
1DA
100
AcDbEntity
  8
WALL
100
AcDbLine
370
50
 10
25200
 20
29850
 30
0
 11
25200
 21
30150
 31
0
  0
LINE
  5
1DB
100
AcDbEntity
  8
WALL
100
AcDbLine
370
50
 10
26400
 20
29850
 30
0
 11
26400
 21
30150
 31
0
  0
LINE
  5
1DC
100
AcDbEntity
  8
WALL
100
AcDbLine
370
50
 10
28800
 20
29850
 30
0
 11
31200
 21
29850
 31
0
  0
LINE
  5
1DD
100
AcDbEntity
  8
WALL
100
AcDbLine
370
50
 10
31200
 20
30150
 30
0
 11
28800
 21
30150
 31
0
  0
LINE
  5
1DE
100
AcDbEntity
  8
WALL
100
AcDbLine
370
50
 10
32400
 20
29850
 30
0
 11
34800
 21
29850
 31
0
  0
LINE
  5
1DF
100
AcDbEntity
  8
WALL
100
AcDbLine
370
50
 10
34800
 20
30150
 30
0
 11
32400
 21
30150
 31
0
  0
LINE
  5
1E0
100
AcDbEntity
  8
WALL
100
AcDbLine
370
50
 10
31200
 20
29850
 30
0
 11
31200
 21
30150
 31
0
  0
LINE
  5
1E1
100
AcDbEntity
  8
WALL
100
AcDbLine
370
50
 10
32400
 20
29850
 30
0
 11
32400
 21
30150
 31
0
  0
LINE
  5
1E2
100
AcDbEntity
  8
WALL
100
AcDbLine
370
50
 10
10725
 20
0
 30
0
 11
10725
 21
6000
 31
0
  0
LINE
  5
1E3
100
AcDbEntity
  8
WALL
100
AcDbLine
370
50
 10
10875
 20
6000
 30
0
 11
10875
 21
0
 31
0
  0
LINE
  5
1E4
100
AcDbEntity
  8
WALL
100
AcDbLine
370
50
 10
10725
 20
6000
 30
0
 11
10725
 21
8550
 31
0
  0
LINE
  5
1E5
100
AcDbEntity
  8
WALL
100
AcDbLine
370
50
 10
10875
 20
8550
 30
0
 11
10875
 21
6000
 31
0
  0
LINE
  5
1E6
100
AcDbEntity
  8
WALL
100
AcDbLine
370
50
 10
10725
 20
9450
 30
0
 11
10725
 21
12000
 31
0
  0
LINE
  5
1E7
100
AcDbEntity
  8
WALL
100
AcDbLine
370
50
 10
10875
 20
12000
 30
0
 11
10875
 21
9450
 31
0
  0
LINE
  5
1E8
100
AcDbEntity
  8
WALL
100
AcDbLine
370
50
 10
10725
 20
8550
 30
0
 11
10875
 21
8550
 31
0
  0
LINE
  5
1E9
100
AcDbEntity
  8
WALL
100
AcDbLine
370
50
 10
10725
 20
9450
 30
0
 11
10875
 21
9450
 31
0
  0
LINE
  5
1EA
100
AcDbEntity
  8
WALL
100
AcDbLine
370
50
 10
10725
 20
12000
 30
0
 11
10725
 21
14550
 31
0
  0
LINE
  5
1EB
100
AcDbEntity
  8
WALL
100
AcDbLine
370
50
 10
10875
 20
14550
 30
0
 11
10875
 21
12000
 31
0
  0
LINE
  5
1EC
100
AcDbEntity
  8
WALL
100
AcDbLine
370
50
 10
10725
 20
15450
 30
0
 11
10725
 21
18000
 31
0
  0
LINE
  5
1ED
100
AcDbEntity
  8
WALL
100
AcDbLine
370
50
 10
10875
 20
18000
 30
0
 11
10875
 21
15450
 31
0
  0
LINE
  5
1EE
100
AcDbEntity
  8
WALL
100
AcDbLine
370
50
 10
10725
 20
14550
 30
0
 11
10875
 21
14550
 31
0
  0
LINE
  5
1EF
100
AcDbEntity
  8
WALL
100
AcDbLine
370
50
 10
10725
 20
15450
 30
0
 11
10875
 21
15450
 31
0
  0
LINE
  5
1F0
100
AcDbEntity
  8
WALL
100
AcDbLine
370
50
 10
10725
 20
18000
 30
0
 11
10725
 21
20550
 31
0
  0
LINE
  5
1F1
100
AcDbEntity
  8
WALL
100
AcDbLine
370
50
 10
10875
 20
20550
 30
0
 11
10875
 21
18000
 31
0
  0
LINE
  5
1F2
100
AcDbEntity
  8
WALL
100
AcDbLine
370
50
 10
10725
 20
21450
 30
0
 11
10725
 21
24000
 31
0
  0
LINE
  5
1F3
100
AcDbEntity
  8
WALL
100
AcDbLine
370
50
 10
10875
 20
24000
 30
0
 11
10875
 21
21450
 31
0
  0
LINE
  5
1F4
100
AcDbEntity
  8
WALL
100
AcDbLine
370
50
 10
10725
 20
20550
 30
0
 11
10875
 21
20550
 31
0
  0
LINE
  5
1F5
100
AcDbEntity
  8
WALL
100
AcDbLine
370
50
 10
10725
 20
21450
 30
0
 11
10875
 21
21450
 31
0
  0
LINE
  5
1F6
100
AcDbEntity
  8
WALL
100
AcDbLine
370
50
 10
10725
 20
24000
 30
0
 11
10725
 21
26550
 31
0
  0
LINE
  5
1F7
100
AcDbEntity
  8
WALL
100
AcDbLine
370
50
 10
10875
 20
26550
 30
0
 11
10875
 21
24000
 31
0
  0
LINE
  5
1F8
100
AcDbEntity
  8
WALL
100
AcDbLine
370
50
 10
10725
 20
27450
 30
0
 11
10725
 21
30000
 31
0
  0
LINE
  5
1F9
100
AcDbEntity
  8
WALL
100
AcDbLine
370
50
 10
10875
 20
30000
 30
0
 11
10875
 21
27450
 31
0
  0
LINE
  5
1FA
100
AcDbEntity
  8
WALL
100
AcDbLine
370
50
 10
10725
 20
26550
 30
0
 11
10875
 21
26550
 31
0
  0
LINE
  5
1FB
100
AcDbEntity
  8
WALL
100
AcDbLine
370
50
 10
10725
 20
27450
 30
0
 11
10875
 21
27450
 31
0
  0
LINE
  5
1FC
100
AcDbEntity
  8
WALL
100
AcDbLine
370
50
 10
16725
 20
0
 30
0
 11
16725
 21
2550
 31
0
  0
LINE
  5
1FD
100
AcDbEntity
  8
WALL
100
AcDbLine
370
50
 10
16875
 20
2550
 30
0
 11
16875
 21
0
 31
0
  0
LINE
  5
1FE
100
AcDbEntity
  8
WALL
100
AcDbLine
370
50
 10
16725
 20
3450
 30
0
 11
16725
 21
6000
 31
0
  0
LINE
  5
1FF
100
AcDbEntity
  8
WALL
100
AcDbLine
370
50
 10
16875
 20
6000
 30
0
 11
16875
 21
3450
 31
0
  0
LINE
  5
200
100
AcDbEntity
  8
WALL
100
AcDbLine
370
50
 10
16725
 20
2550
 30
0
 11
16875
 21
2550
 31
0
  0
LINE
  5
201
100
AcDbEntity
  8
WALL
100
AcDbLine
370
50
 10
16725
 20
3450
 30
0
 11
16875
 21
3450
 31
0
  0
LINE
  5
202
100
AcDbEntity
  8
WALL
100
AcDbLine
370
50
 10
16725
 20
6000
 30
0
 11
16725
 21
8550
 31
0
  0
LINE
  5
203
100
AcDbEntity
  8
WALL
100
AcDbLine
370
50
 10
16875
 20
8550
 30
0
 11
16875
 21
6000
 31
0
  0
LINE
  5
204
100
AcDbEntity
  8
WALL
100
AcDbLine
370
50
 10
16725
 20
9450
 30
0
 11
16725
 21
12000
 31
0
  0
LINE
  5
205
100
AcDbEntity
  8
WALL
100
AcDbLine
370
50
 10
16875
 20
12000
 30
0
 11
16875
 21
9450
 31
0
  0
LINE
  5
206
100
AcDbEntity
  8
WALL
100
AcDbLine
370
50
 10
16725
 20
8550
 30
0
 11
16875
 21
8550
 31
0
  0
LINE
  5
207
100
AcDbEntity
  8
WALL
100
AcDbLine
370
50
 10
16725
 20
9450
 30
0
 11
16875
 21
9450
 31
0
  0
LINE
  5
208
100
AcDbEntity
  8
WALL
100
AcDbLine
370
50
 10
16725
 20
12000
 30
0
 11
16725
 21
18000
 31
0
  0
LINE
  5
209
100
AcDbEntity
  8
WALL
100
AcDbLine
370
50
 10
16875
 20
18000
 30
0
 11
16875
 21
12000
 31
0
  0
LINE
  5
20A
100
AcDbEntity
  8
WALL
100
AcDbLine
370
50
 10
16725
 20
18000
 30
0
 11
16725
 21
20550
 31
0
  0
LINE
  5
20B
100
AcDbEntity
  8
WALL
100
AcDbLine
370
50
 10
16875
 20
20550
 30
0
 11
16875
 21
18000
 31
0
  0
LINE
  5
20C
100
AcDbEntity
  8
WALL
100
AcDbLine
370
50
 10
16725
 20
21450
 30
0
 11
16725
 21
24000
 31
0
  0
LINE
  5
20D
100
AcDbEntity
  8
WALL
100
AcDbLine
370
50
 10
16875
 20
24000
 30
0
 11
16875
 21
21450
 31
0
  0
LINE
  5
20E
100
AcDbEntity
  8
WALL
100
AcDbLine
370
50
 10
16725
 20
20550
 30
0
 11
16875
 21
20550
 31
0
  0
LINE
  5
20F
100
AcDbEntity
  8
WALL
100
AcDbLine
370
50
 10
16725
 20
21450
 30
0
 11
16875
 21
21450
 31
0
  0
LINE
  5
210
100
AcDbEntity
  8
WALL
100
AcDbLine
370
50
 10
16725
 20
24000
 30
0
 11
16725
 21
26550
 31
0
  0
LINE
  5
211
100
AcDbEntity
  8
WALL
100
AcDbLine
370
50
 10
16875
 20
26550
 30
0
 11
16875
 21
24000
 31
0
  0
LINE
  5
212
100
AcDbEntity
  8
WALL
100
AcDbLine
370
50
 10
16725
 20
27450
 30
0
 11
16725
 21
30000
 31
0
  0
LINE
  5
213
100
AcDbEntity
  8
WALL
100
AcDbLine
370
50
 10
16875
 20
30000
 30
0
 11
16875
 21
27450
 31
0
  0
LINE
  5
214
100
AcDbEntity
  8
WALL
100
AcDbLine
370
50
 10
16725
 20
26550
 30
0
 11
16875
 21
26550
 31
0
  0
LINE
  5
215
100
AcDbEntity
  8
WALL
100
AcDbLine
370
50
 10
16725
 20
27450
 30
0
 11
16875
 21
27450
 31
0
  0
LINE
  5
216
100
AcDbEntity
  8
WALL
100
AcDbLine
370
50
 10
22725
 20
0
 30
0
 11
22725
 21
2550
 31
0
  0
LINE
  5
217
100
AcDbEntity
  8
WALL
100
AcDbLine
370
50
 10
22875
 20
2550
 30
0
 11
22875
 21
0
 31
0
  0
LINE
  5
218
100
AcDbEntity
  8
WALL
100
AcDbLine
370
50
 10
22725
 20
3450
 30
0
 11
22725
 21
6000
 31
0
  0
LINE
  5
219
100
AcDbEntity
  8
WALL
100
AcDbLine
370
50
 10
22875
 20
6000
 30
0
 11
22875
 21
3450
 31
0
  0
LINE
  5
21A
100
AcDbEntity
  8
WALL
100
AcDbLine
370
50
 10
22725
 20
2550
 30
0
 11
22875
 21
2550
 31
0
  0
LINE
  5
21B
100
AcDbEntity
  8
WALL
100
AcDbLine
370
50
 10
22725
 20
3450
 30
0
 11
22875
 21
3450
 31
0
  0
LINE
  5
21C
100
AcDbEntity
  8
WALL
100
AcDbLine
370
50
 10
22725
 20
6000
 30
0
 11
22725
 21
8550
 31
0
  0
LINE
  5
21D
100
AcDbEntity
  8
WALL
100
AcDbLine
370
50
 10
22875
 20
8550
 30
0
 11
22875
 21
6000
 31
0
  0
LINE
  5
21E
100
AcDbEntity
  8
WALL
100
AcDbLine
370
50
 10
22725
 20
9450
 30
0
 11
22725
 21
12000
 31
0
  0
LINE
  5
21F
100
AcDbEntity
  8
WALL
100
AcDbLine
370
50
 10
22875
 20
12000
 30
0
 11
22875
 21
9450
 31
0
  0
LINE
  5
220
100
AcDbEntity
  8
WALL
100
AcDbLine
370
50
 10
22725
 20
8550
 30
0
 11
22875
 21
8550
 31
0
  0
LINE
  5
221
100
AcDbEntity
  8
WALL
100
AcDbLine
370
50
 10
22725
 20
9450
 30
0
 11
22875
 21
9450
 31
0
  0
LINE
  5
222
100
AcDbEntity
  8
WALL
100
AcDbLine
370
50
 10
22725
 20
12000
 30
0
 11
22725
 21
14550
 31
0
  0
LINE
  5
223
100
AcDbEntity
  8
WALL
100
AcDbLine
370
50
 10
22875
 20
14550
 30
0
 11
22875
 21
12000
 31
0
  0
LINE
  5
224
100
AcDbEntity
  8
WALL
100
AcDbLine
370
50
 10
22725
 20
15450
 30
0
 11
22725
 21
18000
 31
0
  0
LINE
  5
225
100
AcDbEntity
  8
WALL
100
AcDbLine
370
50
 10
22875
 20
18000
 30
0
 11
22875
 21
15450
 31
0
  0
LINE
  5
226
100
AcDbEntity
  8
WALL
100
AcDbLine
370
50
 10
22725
 20
14550
 30
0
 11
22875
 21
14550
 31
0
  0
LINE
  5
227
100
AcDbEntity
  8
WALL
100
AcDbLine
370
50
 10
22725
 20
15450
 30
0
 11
22875
 21
15450
 31
0
  0
LINE
  5
228
100
AcDbEntity
  8
WALL
100
AcDbLine
370
50
 10
22725
 20
18000
 30
0
 11
22725
 21
20550
 31
0
  0
LINE
  5
229
100
AcDbEntity
  8
WALL
100
AcDbLine
370
50
 10
22875
 20
20550
 30
0
 11
22875
 21
18000
 31
0
  0
LINE
  5
22A
100
AcDbEntity
  8
WALL
100
AcDbLine
370
50
 10
22725
 20
21450
 30
0
 11
22725
 21
24000
 31
0
  0
LINE
  5
22B
100
AcDbEntity
  8
WALL
100
AcDbLine
370
50
 10
22875
 20
24000
 30
0
 11
22875
 21
21450
 31
0
  0
LINE
  5
22C
100
AcDbEntity
  8
WALL
100
AcDbLine
370
50
 10
22725
 20
20550
 30
0
 11
22875
 21
20550
 31
0
  0
LINE
  5
22D
100
AcDbEntity
  8
WALL
100
AcDbLine
370
50
 10
22725
 20
21450
 30
0
 11
22875
 21
21450
 31
0
  0
LINE
  5
22E
100
AcDbEntity
  8
WALL
100
AcDbLine
370
50
 10
22725
 20
24000
 30
0
 11
22725
 21
26550
 31
0
  0
LINE
  5
22F
100
AcDbEntity
  8
WALL
100
AcDbLine
370
50
 10
22875
 20
26550
 30
0
 11
22875
 21
24000
 31
0
  0
LINE
  5
230
100
AcDbEntity
  8
WALL
100
AcDbLine
370
50
 10
22725
 20
27450
 30
0
 11
22725
 21
30000
 31
0
  0
LINE
  5
231
100
AcDbEntity
  8
WALL
100
AcDbLine
370
50
 10
22875
 20
30000
 30
0
 11
22875
 21
27450
 31
0
  0
LINE
  5
232
100
AcDbEntity
  8
WALL
100
AcDbLine
370
50
 10
22725
 20
26550
 30
0
 11
22875
 21
26550
 31
0
  0
LINE
  5
233
100
AcDbEntity
  8
WALL
100
AcDbLine
370
50
 10
22725
 20
27450
 30
0
 11
22875
 21
27450
 31
0
  0
LINE
  5
234
100
AcDbEntity
  8
WALL
100
AcDbLine
370
50
 10
28725
 20
0
 30
0
 11
28725
 21
2550
 31
0
  0
LINE
  5
235
100
AcDbEntity
  8
WALL
100
AcDbLine
370
50
 10
28875
 20
2550
 30
0
 11
28875
 21
0
 31
0
  0
LINE
  5
236
100
AcDbEntity
  8
WALL
100
AcDbLine
370
50
 10
28725
 20
3450
 30
0
 11
28725
 21
6000
 31
0
  0
LINE
  5
237
100
AcDbEntity
  8
WALL
100
AcDbLine
370
50
 10
28875
 20
6000
 30
0
 11
28875
 21
3450
 31
0
  0
LINE
  5
238
100
AcDbEntity
  8
WALL
100
AcDbLine
370
50
 10
28725
 20
2550
 30
0
 11
28875
 21
2550
 31
0
  0
LINE
  5
239
100
AcDbEntity
  8
WALL
100
AcDbLine
370
50
 10
28725
 20
3450
 30
0
 11
28875
 21
3450
 31
0
  0
LINE
  5
23A
100
AcDbEntity
  8
WALL
100
AcDbLine
370
50
 10
28725
 20
6000
 30
0
 11
28725
 21
8550
 31
0
  0
LINE
  5
23B
100
AcDbEntity
  8
WALL
100
AcDbLine
370
50
 10
28875
 20
8550
 30
0
 11
28875
 21
6000
 31
0
  0
LINE
  5
23C
100
AcDbEntity
  8
WALL
100
AcDbLine
370
50
 10
28725
 20
9450
 30
0
 11
28725
 21
12000
 31
0
  0
LINE
  5
23D
100
AcDbEntity
  8
WALL
100
AcDbLine
370
50
 10
28875
 20
12000
 30
0
 11
28875
 21
9450
 31
0
  0
LINE
  5
23E
100
AcDbEntity
  8
WALL
100
AcDbLine
370
50
 10
28725
 20
8550
 30
0
 11
28875
 21
8550
 31
0
  0
LINE
  5
23F
100
AcDbEntity
  8
WALL
100
AcDbLine
370
50
 10
28725
 20
9450
 30
0
 11
28875
 21
9450
 31
0
  0
LINE
  5
240
100
AcDbEntity
  8
WALL
100
AcDbLine
370
50
 10
28725
 20
12000
 30
0
 11
28725
 21
14550
 31
0
  0
LINE
  5
241
100
AcDbEntity
  8
WALL
100
AcDbLine
370
50
 10
28875
 20
14550
 30
0
 11
28875
 21
12000
 31
0
  0
LINE
  5
242
100
AcDbEntity
  8
WALL
100
AcDbLine
370
50
 10
28725
 20
15450
 30
0
 11
28725
 21
18000
 31
0
  0
LINE
  5
243
100
AcDbEntity
  8
WALL
100
AcDbLine
370
50
 10
28875
 20
18000
 30
0
 11
28875
 21
15450
 31
0
  0
LINE
  5
244
100
AcDbEntity
  8
WALL
100
AcDbLine
370
50
 10
28725
 20
14550
 30
0
 11
28875
 21
14550
 31
0
  0
LINE
  5
245
100
AcDbEntity
  8
WALL
100
AcDbLine
370
50
 10
28725
 20
15450
 30
0
 11
28875
 21
15450
 31
0
  0
LINE
  5
246
100
AcDbEntity
  8
WALL
100
AcDbLine
370
50
 10
28725
 20
18000
 30
0
 11
28725
 21
20550
 31
0
  0
LINE
  5
247
100
AcDbEntity
  8
WALL
100
AcDbLine
370
50
 10
28875
 20
20550
 30
0
 11
28875
 21
18000
 31
0
  0
LINE
  5
248
100
AcDbEntity
  8
WALL
100
AcDbLine
370
50
 10
28725
 20
21450
 30
0
 11
28725
 21
24000
 31
0
  0
LINE
  5
249
100
AcDbEntity
  8
WALL
100
AcDbLine
370
50
 10
28875
 20
24000
 30
0
 11
28875
 21
21450
 31
0
  0
LINE
  5
24A
100
AcDbEntity
  8
WALL
100
AcDbLine
370
50
 10
28725
 20
20550
 30
0
 11
28875
 21
20550
 31
0
  0
LINE
  5
24B
100
AcDbEntity
  8
WALL
100
AcDbLine
370
50
 10
28725
 20
21450
 30
0
 11
28875
 21
21450
 31
0
  0
LINE
  5
24C
100
AcDbEntity
  8
WALL
100
AcDbLine
370
50
 10
28725
 20
24000
 30
0
 11
28725
 21
30000
 31
0
  0
LINE
  5
24D
100
AcDbEntity
  8
WALL
100
AcDbLine
370
50
 10
28875
 20
30000
 30
0
 11
28875
 21
24000
 31
0
  0
LINE
  5
24E
100
AcDbEntity
  8
WALL
100
AcDbLine
370
50
 10
4800
 20
5925
 30
0
 11
7350
 21
5925
 31
0
  0
LINE
  5
24F
100
AcDbEntity
  8
WALL
100
AcDbLine
370
50
 10
7350
 20
6075
 30
0
 11
4800
 21
6075
 31
0
  0
LINE
  5
250
100
AcDbEntity
  8
WALL
100
AcDbLine
370
50
 10
8250
 20
5925
 30
0
 11
10800
 21
5925
 31
0
  0
LINE
  5
251
100
AcDbEntity
  8
WALL
100
AcDbLine
370
50
 10
10800
 20
6075
 30
0
 11
8250
 21
6075
 31
0
  0
LINE
  5
252
100
AcDbEntity
  8
WALL
100
AcDbLine
370
50
 10
7350
 20
5925
 30
0
 11
7350
 21
6075
 31
0
  0
LINE
  5
253
100
AcDbEntity
  8
WALL
100
AcDbLine
370
50
 10
8250
 20
5925
 30
0
 11
8250
 21
6075
 31
0
  0
LINE
  5
254
100
AcDbEntity
  8
WALL
100
AcDbLine
370
50
 10
10800
 20
5925
 30
0
 11
13350
 21
5925
 31
0
  0
LINE
  5
255
100
AcDbEntity
  8
WALL
100
AcDbLine
370
50
 10
13350
 20
6075
 30
0
 11
10800
 21
6075
 31
0
  0
LINE
  5
256
100
AcDbEntity
  8
WALL
100
AcDbLine
370
50
 10
14250
 20
5925
 30
0
 11
16800
 21
5925
 31
0
  0
LINE
  5
257
100
AcDbEntity
  8
WALL
100
AcDbLine
370
50
 10
16800
 20
6075
 30
0
 11
14250
 21
6075
 31
0
  0
LINE
  5
258
100
AcDbEntity
  8
WALL
100
AcDbLine
370
50
 10
13350
 20
5925
 30
0
 11
13350
 21
6075
 31
0
  0
LINE
  5
259
100
AcDbEntity
  8
WALL
100
AcDbLine
370
50
 10
14250
 20
5925
 30
0
 11
14250
 21
6075
 31
0
  0
LINE
  5
25A
100
AcDbEntity
  8
WALL
100
AcDbLine
370
50
 10
16800
 20
5925
 30
0
 11
19350
 21
5925
 31
0
  0
LINE
  5
25B
100
AcDbEntity
  8
WALL
100
AcDbLine
370
50
 10
19350
 20
6075
 30
0
 11
16800
 21
6075
 31
0
  0
LINE
  5
25C
100
AcDbEntity
  8
WALL
100
AcDbLine
370
50
 10
20250
 20
5925
 30
0
 11
22800
 21
5925
 31
0
  0
LINE
  5
25D
100
AcDbEntity
  8
WALL
100
AcDbLine
370
50
 10
22800
 20
6075
 30
0
 11
20250
 21
6075
 31
0
  0
LINE
  5
25E
100
AcDbEntity
  8
WALL
100
AcDbLine
370
50
 10
19350
 20
5925
 30
0
 11
19350
 21
6075
 31
0
  0
LINE
  5
25F
100
AcDbEntity
  8
WALL
100
AcDbLine
370
50
 10
20250
 20
5925
 30
0
 11
20250
 21
6075
 31
0
  0
LINE
  5
260
100
AcDbEntity
  8
WALL
100
AcDbLine
370
50
 10
22800
 20
5925
 30
0
 11
25350
 21
5925
 31
0
  0
LINE
  5
261
100
AcDbEntity
  8
WALL
100
AcDbLine
370
50
 10
25350
 20
6075
 30
0
 11
22800
 21
6075
 31
0
  0
LINE
  5
262
100
AcDbEntity
  8
WALL
100
AcDbLine
370
50
 10
26250
 20
5925
 30
0
 11
28800
 21
5925
 31
0
  0
LINE
  5
263
100
AcDbEntity
  8
WALL
100
AcDbLine
370
50
 10
28800
 20
6075
 30
0
 11
26250
 21
6075
 31
0
  0
LINE
  5
264
100
AcDbEntity
  8
WALL
100
AcDbLine
370
50
 10
25350
 20
5925
 30
0
 11
25350
 21
6075
 31
0
  0
LINE
  5
265
100
AcDbEntity
  8
WALL
100
AcDbLine
370
50
 10
26250
 20
5925
 30
0
 11
26250
 21
6075
 31
0
  0
LINE
  5
266
100
AcDbEntity
  8
WALL
100
AcDbLine
370
50
 10
28800
 20
5925
 30
0
 11
34800
 21
5925
 31
0
  0
LINE
  5
267
100
AcDbEntity
  8
WALL
100
AcDbLine
370
50
 10
34800
 20
6075
 30
0
 11
28800
 21
6075
 31
0
  0
LINE
  5
268
100
AcDbEntity
  8
WALL
100
AcDbLine
370
50
 10
4800
 20
11925
 30
0
 11
7350
 21
11925
 31
0
  0
LINE
  5
269
100
AcDbEntity
  8
WALL
100
AcDbLine
370
50
 10
7350
 20
12075
 30
0
 11
4800
 21
12075
 31
0
  0
LINE
  5
26A
100
AcDbEntity
  8
WALL
100
AcDbLine
370
50
 10
8250
 20
11925
 30
0
 11
10800
 21
11925
 31
0
  0
LINE
  5
26B
100
AcDbEntity
  8
WALL
100
AcDbLine
370
50
 10
10800
 20
12075
 30
0
 11
8250
 21
12075
 31
0
  0
LINE
  5
26C
100
AcDbEntity
  8
WALL
100
AcDbLine
370
50
 10
7350
 20
11925
 30
0
 11
7350
 21
12075
 31
0
  0
LINE
  5
26D
100
AcDbEntity
  8
WALL
100
AcDbLine
370
50
 10
8250
 20
11925
 30
0
 11
8250
 21
12075
 31
0
  0
LINE
  5
26E
100
AcDbEntity
  8
WALL
100
AcDbLine
370
50
 10
10800
 20
11925
 30
0
 11
13350
 21
11925
 31
0
  0
LINE
  5
26F
100
AcDbEntity
  8
WALL
100
AcDbLine
370
50
 10
13350
 20
12075
 30
0
 11
10800
 21
12075
 31
0
  0
LINE
  5
270
100
AcDbEntity
  8
WALL
100
AcDbLine
370
50
 10
14250
 20
11925
 30
0
 11
16800
 21
11925
 31
0
  0
LINE
  5
271
100
AcDbEntity
  8
WALL
100
AcDbLine
370
50
 10
16800
 20
12075
 30
0
 11
14250
 21
12075
 31
0
  0
LINE
  5
272
100
AcDbEntity
  8
WALL
100
AcDbLine
370
50
 10
13350
 20
11925
 30
0
 11
13350
 21
12075
 31
0
  0
LINE
  5
273
100
AcDbEntity
  8
WALL
100
AcDbLine
370
50
 10
14250
 20
11925
 30
0
 11
14250
 21
12075
 31
0
  0
LINE
  5
274
100
AcDbEntity
  8
WALL
100
AcDbLine
370
50
 10
16800
 20
11925
 30
0
 11
19350
 21
11925
 31
0
  0
LINE
  5
275
100
AcDbEntity
  8
WALL
100
AcDbLine
370
50
 10
19350
 20
12075
 30
0
 11
16800
 21
12075
 31
0
  0
LINE
  5
276
100
AcDbEntity
  8
WALL
100
AcDbLine
370
50
 10
20250
 20
11925
 30
0
 11
22800
 21
11925
 31
0
  0
LINE
  5
277
100
AcDbEntity
  8
WALL
100
AcDbLine
370
50
 10
22800
 20
12075
 30
0
 11
20250
 21
12075
 31
0
  0
LINE
  5
278
100
AcDbEntity
  8
WALL
100
AcDbLine
370
50
 10
19350
 20
11925
 30
0
 11
19350
 21
12075
 31
0
  0
LINE
  5
279
100
AcDbEntity
  8
WALL
100
AcDbLine
370
50
 10
20250
 20
11925
 30
0
 11
20250
 21
12075
 31
0
  0
LINE
  5
27A
100
AcDbEntity
  8
WALL
100
AcDbLine
370
50
 10
22800
 20
11925
 30
0
 11
25350
 21
11925
 31
0
  0
LINE
  5
27B
100
AcDbEntity
  8
WALL
100
AcDbLine
370
50
 10
25350
 20
12075
 30
0
 11
22800
 21
12075
 31
0
  0
LINE
  5
27C
100
AcDbEntity
  8
WALL
100
AcDbLine
370
50
 10
26250
 20
11925
 30
0
 11
28800
 21
11925
 31
0
  0
LINE
  5
27D
100
AcDbEntity
  8
WALL
100
AcDbLine
370
50
 10
28800
 20
12075
 30
0
 11
26250
 21
12075
 31
0
  0
LINE
  5
27E
100
AcDbEntity
  8
WALL
100
AcDbLine
370
50
 10
25350
 20
11925
 30
0
 11
25350
 21
12075
 31
0
  0
LINE
  5
27F
100
AcDbEntity
  8
WALL
100
AcDbLine
370
50
 10
26250
 20
11925
 30
0
 11
26250
 21
12075
 31
0
  0
LINE
  5
280
100
AcDbEntity
  8
WALL
100
AcDbLine
370
50
 10
28800
 20
11925
 30
0
 11
31350
 21
11925
 31
0
  0
LINE
  5
281
100
AcDbEntity
  8
WALL
100
AcDbLine
370
50
 10
31350
 20
12075
 30
0
 11
28800
 21
12075
 31
0
  0
LINE
  5
282
100
AcDbEntity
  8
WALL
100
AcDbLine
370
50
 10
32250
 20
11925
 30
0
 11
34800
 21
11925
 31
0
  0
LINE
  5
283
100
AcDbEntity
  8
WALL
100
AcDbLine
370
50
 10
34800
 20
12075
 30
0
 11
32250
 21
12075
 31
0
  0
LINE
  5
284
100
AcDbEntity
  8
WALL
100
AcDbLine
370
50
 10
31350
 20
11925
 30
0
 11
31350
 21
12075
 31
0
  0
LINE
  5
285
100
AcDbEntity
  8
WALL
100
AcDbLine
370
50
 10
32250
 20
11925
 30
0
 11
32250
 21
12075
 31
0
  0
LINE
  5
286
100
AcDbEntity
  8
WALL
100
AcDbLine
370
50
 10
4800
 20
17925
 30
0
 11
7350
 21
17925
 31
0
  0
LINE
  5
287
100
AcDbEntity
  8
WALL
100
AcDbLine
370
50
 10
7350
 20
18075
 30
0
 11
4800
 21
18075
 31
0
  0
LINE
  5
288
100
AcDbEntity
  8
WALL
100
AcDbLine
370
50
 10
8250
 20
17925
 30
0
 11
10800
 21
17925
 31
0
  0
LINE
  5
289
100
AcDbEntity
  8
WALL
100
AcDbLine
370
50
 10
10800
 20
18075
 30
0
 11
8250
 21
18075
 31
0
  0
LINE
  5
28A
100
AcDbEntity
  8
WALL
100
AcDbLine
370
50
 10
7350
 20
17925
 30
0
 11
7350
 21
18075
 31
0
  0
LINE
  5
28B
100
AcDbEntity
  8
WALL
100
AcDbLine
370
50
 10
8250
 20
17925
 30
0
 11
8250
 21
18075
 31
0
  0
LINE
  5
28C
100
AcDbEntity
  8
WALL
100
AcDbLine
370
50
 10
10800
 20
17925
 30
0
 11
13350
 21
17925
 31
0
  0
LINE
  5
28D
100
AcDbEntity
  8
WALL
100
AcDbLine
370
50
 10
13350
 20
18075
 30
0
 11
10800
 21
18075
 31
0
  0
LINE
  5
28E
100
AcDbEntity
  8
WALL
100
AcDbLine
370
50
 10
14250
 20
17925
 30
0
 11
16800
 21
17925
 31
0
  0
LINE
  5
28F
100
AcDbEntity
  8
WALL
100
AcDbLine
370
50
 10
16800
 20
18075
 30
0
 11
14250
 21
18075
 31
0
  0
LINE
  5
290
100
AcDbEntity
  8
WALL
100
AcDbLine
370
50
 10
13350
 20
17925
 30
0
 11
13350
 21
18075
 31
0
  0
LINE
  5
291
100
AcDbEntity
  8
WALL
100
AcDbLine
370
50
 10
14250
 20
17925
 30
0
 11
14250
 21
18075
 31
0
  0
LINE
  5
292
100
AcDbEntity
  8
WALL
100
AcDbLine
370
50
 10
16800
 20
17925
 30
0
 11
19350
 21
17925
 31
0
  0
LINE
  5
293
100
AcDbEntity
  8
WALL
100
AcDbLine
370
50
 10
19350
 20
18075
 30
0
 11
16800
 21
18075
 31
0
  0
LINE
  5
294
100
AcDbEntity
  8
WALL
100
AcDbLine
370
50
 10
20250
 20
17925
 30
0
 11
22800
 21
17925
 31
0
  0
LINE
  5
295
100
AcDbEntity
  8
WALL
100
AcDbLine
370
50
 10
22800
 20
18075
 30
0
 11
20250
 21
18075
 31
0
  0
LINE
  5
296
100
AcDbEntity
  8
WALL
100
AcDbLine
370
50
 10
19350
 20
17925
 30
0
 11
19350
 21
18075
 31
0
  0
LINE
  5
297
100
AcDbEntity
  8
WALL
100
AcDbLine
370
50
 10
20250
 20
17925
 30
0
 11
20250
 21
18075
 31
0
  0
LINE
  5
298
100
AcDbEntity
  8
WALL
100
AcDbLine
370
50
 10
22800
 20
17925
 30
0
 11
25350
 21
17925
 31
0
  0
LINE
  5
299
100
AcDbEntity
  8
WALL
100
AcDbLine
370
50
 10
25350
 20
18075
 30
0
 11
22800
 21
18075
 31
0
  0
LINE
  5
29A
100
AcDbEntity
  8
WALL
100
AcDbLine
370
50
 10
26250
 20
17925
 30
0
 11
28800
 21
17925
 31
0
  0
LINE
  5
29B
100
AcDbEntity
  8
WALL
100
AcDbLine
370
50
 10
28800
 20
18075
 30
0
 11
26250
 21
18075
 31
0
  0
LINE
  5
29C
100
AcDbEntity
  8
WALL
100
AcDbLine
370
50
 10
25350
 20
17925
 30
0
 11
25350
 21
18075
 31
0
  0
LINE
  5
29D
100
AcDbEntity
  8
WALL
100
AcDbLine
370
50
 10
26250
 20
17925
 30
0
 11
26250
 21
18075
 31
0
  0
LINE
  5
29E
100
AcDbEntity
  8
WALL
100
AcDbLine
370
50
 10
28800
 20
17925
 30
0
 11
31350
 21
17925
 31
0
  0
LINE
  5
29F
100
AcDbEntity
  8
WALL
100
AcDbLine
370
50
 10
31350
 20
18075
 30
0
 11
28800
 21
18075
 31
0
  0
LINE
  5
2A0
100
AcDbEntity
  8
WALL
100
AcDbLine
370
50
 10
32250
 20
17925
 30
0
 11
34800
 21
17925
 31
0
  0
LINE
  5
2A1
100
AcDbEntity
  8
WALL
100
AcDbLine
370
50
 10
34800
 20
18075
 30
0
 11
32250
 21
18075
 31
0
  0
LINE
  5
2A2
100
AcDbEntity
  8
WALL
100
AcDbLine
370
50
 10
31350
 20
17925
 30
0
 11
31350
 21
18075
 31
0
  0
LINE
  5
2A3
100
AcDbEntity
  8
WALL
100
AcDbLine
370
50
 10
32250
 20
17925
 30
0
 11
32250
 21
18075
 31
0
  0
LINE
  5
2A4
100
AcDbEntity
  8
WALL
100
AcDbLine
370
50
 10
4800
 20
23925
 30
0
 11
10800
 21
23925
 31
0
  0
LINE
  5
2A5
100
AcDbEntity
  8
WALL
100
AcDbLine
370
50
 10
10800
 20
24075
 30
0
 11
4800
 21
24075
 31
0
  0
LINE
  5
2A6
100
AcDbEntity
  8
WALL
100
AcDbLine
370
50
 10
10800
 20
23925
 30
0
 11
13350
 21
23925
 31
0
  0
LINE
  5
2A7
100
AcDbEntity
  8
WALL
100
AcDbLine
370
50
 10
13350
 20
24075
 30
0
 11
10800
 21
24075
 31
0
  0
LINE
  5
2A8
100
AcDbEntity
  8
WALL
100
AcDbLine
370
50
 10
14250
 20
23925
 30
0
 11
16800
 21
23925
 31
0
  0
LINE
  5
2A9
100
AcDbEntity
  8
WALL
100
AcDbLine
370
50
 10
16800
 20
24075
 30
0
 11
14250
 21
24075
 31
0
  0
LINE
  5
2AA
100
AcDbEntity
  8
WALL
100
AcDbLine
370
50
 10
13350
 20
23925
 30
0
 11
13350
 21
24075
 31
0
  0
LINE
  5
2AB
100
AcDbEntity
  8
WALL
100
AcDbLine
370
50
 10
14250
 20
23925
 30
0
 11
14250
 21
24075
 31
0
  0
LINE
  5
2AC
100
AcDbEntity
  8
WALL
100
AcDbLine
370
50
 10
16800
 20
23925
 30
0
 11
19350
 21
23925
 31
0
  0
LINE
  5
2AD
100
AcDbEntity
  8
WALL
100
AcDbLine
370
50
 10
19350
 20
24075
 30
0
 11
16800
 21
24075
 31
0
  0
LINE
  5
2AE
100
AcDbEntity
  8
WALL
100
AcDbLine
370
50
 10
20250
 20
23925
 30
0
 11
22800
 21
23925
 31
0
  0
LINE
  5
2AF
100
AcDbEntity
  8
WALL
100
AcDbLine
370
50
 10
22800
 20
24075
 30
0
 11
20250
 21
24075
 31
0
  0
LINE
  5
2B0
100
AcDbEntity
  8
WALL
100
AcDbLine
370
50
 10
19350
 20
23925
 30
0
 11
19350
 21
24075
 31
0
  0
LINE
  5
2B1
100
AcDbEntity
  8
WALL
100
AcDbLine
370
50
 10
20250
 20
23925
 30
0
 11
20250
 21
24075
 31
0
  0
LINE
  5
2B2
100
AcDbEntity
  8
WALL
100
AcDbLine
370
50
 10
22800
 20
23925
 30
0
 11
25350
 21
23925
 31
0
  0
LINE
  5
2B3
100
AcDbEntity
  8
WALL
100
AcDbLine
370
50
 10
25350
 20
24075
 30
0
 11
22800
 21
24075
 31
0
  0
LINE
  5
2B4
100
AcDbEntity
  8
WALL
100
AcDbLine
370
50
 10
26250
 20
23925
 30
0
 11
28800
 21
23925
 31
0
  0
LINE
  5
2B5
100
AcDbEntity
  8
WALL
100
AcDbLine
370
50
 10
28800
 20
24075
 30
0
 11
26250
 21
24075
 31
0
  0
LINE
  5
2B6
100
AcDbEntity
  8
WALL
100
AcDbLine
370
50
 10
25350
 20
23925
 30
0
 11
25350
 21
24075
 31
0
  0
LINE
  5
2B7
100
AcDbEntity
  8
WALL
100
AcDbLine
370
50
 10
26250
 20
23925
 30
0
 11
26250
 21
24075
 31
0
  0
LINE
  5
2B8
100
AcDbEntity
  8
WALL
100
AcDbLine
370
50
 10
28800
 20
23925
 30
0
 11
31350
 21
23925
 31
0
  0
LINE
  5
2B9
100
AcDbEntity
  8
WALL
100
AcDbLine
370
50
 10
31350
 20
24075
 30
0
 11
28800
 21
24075
 31
0
  0
LINE
  5
2BA
100
AcDbEntity
  8
WALL
100
AcDbLine
370
50
 10
32250
 20
23925
 30
0
 11
34800
 21
23925
 31
0
  0
LINE
  5
2BB
100
AcDbEntity
  8
WALL
100
AcDbLine
370
50
 10
34800
 20
24075
 30
0
 11
32250
 21
24075
 31
0
  0
LINE
  5
2BC
100
AcDbEntity
  8
WALL
100
AcDbLine
370
50
 10
31350
 20
23925
 30
0
 11
31350
 21
24075
 31
0
  0
LINE
  5
2BD
100
AcDbEntity
  8
WALL
100
AcDbLine
370
50
 10
32250
 20
23925
 30
0
 11
32250
 21
24075
 31
0
  0
LWPOLYLINE
  5
2BE
100
AcDbEntity
  8
COLUMN
100
AcDbPolyline
 90
4
 70
1
 10
4685
 20
-115
 10
4915
 20
-115
 10
4915
 20
115
 10
4685
 20
115
  0
LWPOLYLINE
  5
2BF
100
AcDbEntity
  8
COLUMN
100
AcDbPolyline
 90
4
 70
1
 10
4685
 20
5885
 10
4915
 20
5885
 10
4915
 20
6115
 10
4685
 20
6115
  0
LWPOLYLINE
  5
2C0
100
AcDbEntity
  8
COLUMN
100
AcDbPolyline
 90
4
 70
1
 10
4685
 20
11885
 10
4915
 20
11885
 10
4915
 20
12115
 10
4685
 20
12115
  0
LWPOLYLINE
  5
2C1
100
AcDbEntity
  8
COLUMN
100
AcDbPolyline
 90
4
 70
1
 10
4685
 20
17885
 10
4915
 20
17885
 10
4915
 20
18115
 10
4685
 20
18115
  0
LWPOLYLINE
  5
2C2
100
AcDbEntity
  8
COLUMN
100
AcDbPolyline
 90
4
 70
1
 10
4685
 20
23885
 10
4915
 20
23885
 10
4915
 20
24115
 10
4685
 20
24115
  0
LWPOLYLINE
  5
2C3
100
AcDbEntity
  8
COLUMN
100
AcDbPolyline
 90
4
 70
1
 10
4685
 20
29885
 10
4915
 20
29885
 10
4915
 20
30115
 10
4685
 20
30115
  0
LWPOLYLINE
  5
2C4
100
AcDbEntity
  8
COLUMN
100
AcDbPolyline
 90
4
 70
1
 10
10685
 20
-115
 10
10915
 20
-115
 10
10915
 20
115
 10
10685
 20
115
  0
LWPOLYLINE
  5
2C5
100
AcDbEntity
  8
COLUMN
100
AcDbPolyline
 90
4
 70
1
 10
10685
 20
5885
 10
10915
 20
5885
 10
10915
 20
6115
 10
10685
 20
6115
  0
LWPOLYLINE
  5
2C6
100
AcDbEntity
  8
COLUMN
100
AcDbPolyline
 90
4
 70
1
 10
10685
 20
11885
 10
10915
 20
11885
 10
10915
 20
12115
 10
10685
 20
12115
  0
LWPOLYLINE
  5
2C7
100
AcDbEntity
  8
COLUMN
100
AcDbPolyline
 90
4
 70
1
 10
10685
 20
17885
 10
10915
 20
17885
 10
10915
 20
18115
 10
10685
 20
18115
  0
LWPOLYLINE
  5
2C8
100
AcDbEntity
  8
COLUMN
100
AcDbPolyline
 90
4
 70
1
 10
10685
 20
23885
 10
10915
 20
23885
 10
10915
 20
24115
 10
10685
 20
24115
  0
LWPOLYLINE
  5
2C9
100
AcDbEntity
  8
COLUMN
100
AcDbPolyline
 90
4
 70
1
 10
10685
 20
29885
 10
10915
 20
29885
 10
10915
 20
30115
 10
10685
 20
30115
  0
LWPOLYLINE
  5
2CA
100
AcDbEntity
  8
COLUMN
100
AcDbPolyline
 90
4
 70
1
 10
16685
 20
-115
 10
16915
 20
-115
 10
16915
 20
115
 10
16685
 20
115
  0
LWPOLYLINE
  5
2CB
100
AcDbEntity
  8
COLUMN
100
AcDbPolyline
 90
4
 70
1
 10
16685
 20
5885
 10
16915
 20
5885
 10
16915
 20
6115
 10
16685
 20
6115
  0
LWPOLYLINE
  5
2CC
100
AcDbEntity
  8
COLUMN
100
AcDbPolyline
 90
4
 70
1
 10
16685
 20
11885
 10
16915
 20
11885
 10
16915
 20
12115
 10
16685
 20
12115
  0
LWPOLYLINE
  5
2CD
100
AcDbEntity
  8
COLUMN
100
AcDbPolyline
 90
4
 70
1
 10
16685
 20
17885
 10
16915
 20
17885
 10
16915
 20
18115
 10
16685
 20
18115
  0
LWPOLYLINE
  5
2CE
100
AcDbEntity
  8
COLUMN
100
AcDbPolyline
 90
4
 70
1
 10
16685
 20
23885
 10
16915
 20
23885
 10
16915
 20
24115
 10
16685
 20
24115
  0
LWPOLYLINE
  5
2CF
100
AcDbEntity
  8
COLUMN
100
AcDbPolyline
 90
4
 70
1
 10
16685
 20
29885
 10
16915
 20
29885
 10
16915
 20
30115
 10
16685
 20
30115
  0
LWPOLYLINE
  5
2D0
100
AcDbEntity
  8
COLUMN
100
AcDbPolyline
 90
4
 70
1
 10
22685
 20
-115
 10
22915
 20
-115
 10
22915
 20
115
 10
22685
 20
115
  0
LWPOLYLINE
  5
2D1
100
AcDbEntity
  8
COLUMN
100
AcDbPolyline
 90
4
 70
1
 10
22685
 20
5885
 10
22915
 20
5885
 10
22915
 20
6115
 10
22685
 20
6115
  0
LWPOLYLINE
  5
2D2
100
AcDbEntity
  8
COLUMN
100
AcDbPolyline
 90
4
 70
1
 10
22685
 20
11885
 10
22915
 20
11885
 10
22915
 20
12115
 10
22685
 20
12115
  0
LWPOLYLINE
  5
2D3
100
AcDbEntity
  8
COLUMN
100
AcDbPolyline
 90
4
 70
1
 10
22685
 20
17885
 10
22915
 20
17885
 10
22915
 20
18115
 10
22685
 20
18115
  0
LWPOLYLINE
  5
2D4
100
AcDbEntity
  8
COLUMN
100
AcDbPolyline
 90
4
 70
1
 10
22685
 20
23885
 10
22915
 20
23885
 10
22915
 20
24115
 10
22685
 20
24115
  0
LWPOLYLINE
  5
2D5
100
AcDbEntity
  8
COLUMN
100
AcDbPolyline
 90
4
 70
1
 10
22685
 20
29885
 10
22915
 20
29885
 10
22915
 20
30115
 10
22685
 20
30115
  0
LWPOLYLINE
  5
2D6
100
AcDbEntity
  8
COLUMN
100
AcDbPolyline
 90
4
 70
1
 10
28685
 20
-115
 10
28915
 20
-115
 10
28915
 20
115
 10
28685
 20
115
  0
LWPOLYLINE
  5
2D7
100
AcDbEntity
  8
COLUMN
100
AcDbPolyline
 90
4
 70
1
 10
28685
 20
5885
 10
28915
 20
5885
 10
28915
 20
6115
 10
28685
 20
6115
  0
LWPOLYLINE
  5
2D8
100
AcDbEntity
  8
COLUMN
100
AcDbPolyline
 90
4
 70
1
 10
28685
 20
11885
 10
28915
 20
11885
 10
28915
 20
12115
 10
28685
 20
12115
  0
LWPOLYLINE
  5
2D9
100
AcDbEntity
  8
COLUMN
100
AcDbPolyline
 90
4
 70
1
 10
28685
 20
17885
 10
28915
 20
17885
 10
28915
 20
18115
 10
28685
 20
18115
  0
LWPOLYLINE
  5
2DA
100
AcDbEntity
  8
COLUMN
100
AcDbPolyline
 90
4
 70
1
 10
28685
 20
23885
 10
28915
 20
23885
 10
28915
 20
24115
 10
28685
 20
24115
  0
LWPOLYLINE
  5
2DB
100
AcDbEntity
  8
COLUMN
100
AcDbPolyline
 90
4
 70
1
 10
28685
 20
29885
 10
28915
 20
29885
 10
28915
 20
30115
 10
28685
 20
30115
  0
LWPOLYLINE
  5
2DC
100
AcDbEntity
  8
COLUMN
100
AcDbPolyline
 90
4
 70
1
 10
34685
 20
-115
 10
34915
 20
-115
 10
34915
 20
115
 10
34685
 20
115
  0
LWPOLYLINE
  5
2DD
100
AcDbEntity
  8
COLUMN
100
AcDbPolyline
 90
4
 70
1
 10
34685
 20
5885
 10
34915
 20
5885
 10
34915
 20
6115
 10
34685
 20
6115
  0
LWPOLYLINE
  5
2DE
100
AcDbEntity
  8
COLUMN
100
AcDbPolyline
 90
4
 70
1
 10
34685
 20
11885
 10
34915
 20
11885
 10
34915
 20
12115
 10
34685
 20
12115
  0
LWPOLYLINE
  5
2DF
100
AcDbEntity
  8
COLUMN
100
AcDbPolyline
 90
4
 70
1
 10
34685
 20
17885
 10
34915
 20
17885
 10
34915
 20
18115
 10
34685
 20
18115
  0
LWPOLYLINE
  5
2E0
100
AcDbEntity
  8
COLUMN
100
AcDbPolyline
 90
4
 70
1
 10
34685
 20
23885
 10
34915
 20
23885
 10
34915
 20
24115
 10
34685
 20
24115
  0
LWPOLYLINE
  5
2E1
100
AcDbEntity
  8
COLUMN
100
AcDbPolyline
 90
4
 70
1
 10
34685
 20
29885
 10
34915
 20
29885
 10
34915
 20
30115
 10
34685
 20
30115
  0
TEXT
  5
2E2
100
AcDbEntity
  8
TEXT
100
AcDbText
 10
7337.5000
 20
3037.5000
 30
0
 40
250
  1
OFFICE 11
100
AcDbText
  0
TEXT
  5
2E3
100
AcDbEntity
  8
TEXT
100
AcDbText
 10
13300
 20
3037.5000
 30
0
 40
250
  1
OFFICE 12
100
AcDbText
  0
TEXT
  5
2E4
100
AcDbEntity
  8
TEXT
100
AcDbText
 10
19300
 20
3037.5000
 30
0
 40
250
  1
ENTRANCE LOBBY
100
AcDbText
  0
TEXT
  5
2E5
100
AcDbEntity
  8
TEXT
100
AcDbText
 10
25300
 20
3037.5000
 30
0
 40
250
  1
OFFICE 14
100
AcDbText
  0
TEXT
  5
2E6
100
AcDbEntity
  8
TEXT
100
AcDbText
 10
31262.5000
 20
3037.5000
 30
0
 40
250
  1
OFFICE 15
100
AcDbText
  0
TEXT
  5
2E7
100
AcDbEntity
  8
TEXT
100
AcDbText
 10
7337.5000
 20
9000
 30
0
 40
250
  1
OFFICE 21
100
AcDbText
  0
TEXT
  5
2E8
100
AcDbEntity
  8
TEXT
100
AcDbText
 10
13300
 20
9000
 30
0
 40
250
  1
OFFICE 22
100
AcDbText
  0
TEXT
  5
2E9
100
AcDbEntity
  8
TEXT
100
AcDbText
 10
19300
 20
9000
 30
0
 40
250
  1
OFFICE 23
100
AcDbText
  0
TEXT
  5
2EA
100
AcDbEntity
  8
TEXT
100
AcDbText
 10
25300
 20
9000
 30
0
 40
250
  1
OFFICE 24
100
AcDbText
  0
TEXT
  5
2EB
100
AcDbEntity
  8
TEXT
100
AcDbText
 10
31262.5000
 20
9000
 30
0
 40
250
  1
OFFICE 25
100
AcDbText
  0
TEXT
  5
2EC
100
AcDbEntity
  8
TEXT
100
AcDbText
 10
7337.5000
 20
15000
 30
0
 40
250
  1
OFFICE 31
100
AcDbText
  0
TEXT
  5
2ED
100
AcDbEntity
  8
TEXT
100
AcDbText
 10
13300
 20
15000
 30
0
 40
250
  1
STAIR HALL
100
AcDbText
  0
TEXT
  5
2EE
100
AcDbEntity
  8
TEXT
100
AcDbText
 10
19300
 20
15000
 30
0
 40
250
  1
LIFT LOBBY
100
AcDbText
  0
TEXT
  5
2EF
100
AcDbEntity
  8
TEXT
100
AcDbText
 10
25300
 20
15000
 30
0
 40
250
  1
OFFICE 34
100
AcDbText
  0
LWPOLYLINE
  5
2F0
100
AcDbEntity
  8
SANITARY
100
AcDbPolyline
 90
4
 70
1
 10
23275
 20
17025
 10
23675
 20
17025
 10
23675
 20
17625
 10
23275
 20
17625
  0
TEXT
  5
2F1
100
AcDbEntity
  8
TEXT
100
AcDbText
 10
31262.5000
 20
15000
 30
0
 40
250
  1
OFFICE 35
100
AcDbText
  0
TEXT
  5
2F2
100
AcDbEntity
  8
TEXT
100
AcDbText
 10
7337.5000
 20
21000
 30
0
 40
250
  1
OFFICE 41
100
AcDbText
  0
TEXT
  5
2F3
100
AcDbEntity
  8
TEXT
100
AcDbText
 10
13300
 20
21000
 30
0
 40
250
  1
OFFICE 42
100
AcDbText
  0
TEXT
  5
2F4
100
AcDbEntity
  8
TEXT
100
AcDbText
 10
19300
 20
21000
 30
0
 40
250
  1
OFFICE 43
100
AcDbText
  0
TEXT
  5
2F5
100
AcDbEntity
  8
TEXT
100
AcDbText
 10
25300
 20
21000
 30
0
 40
250
  1
OFFICE 44
100
AcDbText
  0
TEXT
  5
2F6
100
AcDbEntity
  8
TEXT
100
AcDbText
 10
31262.5000
 20
21000
 30
0
 40
250
  1
OFFICE 45
100
AcDbText
  0
TEXT
  5
2F7
100
AcDbEntity
  8
TEXT
100
AcDbText
 10
7337.5000
 20
26962.5000
 30
0
 40
250
  1
OFFICE 51
100
AcDbText
  0
TEXT
  5
2F8
100
AcDbEntity
  8
TEXT
100
AcDbText
 10
13300
 20
26962.5000
 30
0
 40
250
  1
OFFICE 52
100
AcDbText
  0
TEXT
  5
2F9
100
AcDbEntity
  8
TEXT
100
AcDbText
 10
19300
 20
26962.5000
 30
0
 40
250
  1
OFFICE 53
100
AcDbText
  0
TEXT
  5
2FA
100
AcDbEntity
  8
TEXT
100
AcDbText
 10
25300
 20
26962.5000
 30
0
 40
250
  1
OFFICE 54
100
AcDbText
  0
TEXT
  5
2FB
100
AcDbEntity
  8
TEXT
100
AcDbText
 10
31262.5000
 20
26962.5000
 30
0
 40
250
  1
OFFICE 55
100
AcDbText
  0
DIMENSION
  5
2FC
100
AcDbEntity
  8
DIM
100
AcDbDimension
  2
*D
 10
4800
 20
-1800
 30
0
 11
19800
 21
-1550
 31
0
 70
33
  1

 42
30000
100
AcDbAlignedDimension
 13
4800
 23
0
 33
0
 14
34800
 24
0
 34
0
  0
DIMENSION
  5
2FD
100
AcDbEntity
  8
DIM
100
AcDbDimension
  2
*D
 10
3000
 20
0
 30
0
 11
3250
 21
15000
 31
0
 70
33
  1

 42
30000
100
AcDbAlignedDimension
 13
4800
 23
0
 33
0
 14
4800
 24
30000
 34
0
  0
DIMENSION
  5
2FE
100
AcDbEntity
  8
DIM
100
AcDbDimension
  2
*D
 10
4800
 20
31200
 30
0
 11
7800
 21
31450
 31
0
 70
33
  1

 42
6000
100
AcDbAlignedDimension
 13
4800
 23
30000
 33
0
 14
10800
 24
30000
 34
0
  0
DIMENSION
  5
2FF
100
AcDbEntity
  8
DIM
100
AcDbDimension
  2
*D
 10
10800
 20
31200
 30
0
 11
13800
 21
31450
 31
0
 70
33
  1

 42
6000
100
AcDbAlignedDimension
 13
10800
 23
30000
 33
0
 14
16800
 24
30000
 34
0
  0
DIMENSION
  5
300
100
AcDbEntity
  8
DIM
100
AcDbDimension
  2
*D
 10
16800
 20
31200
 30
0
 11
19800
 21
31450
 31
0
 70
33
  1

 42
6000
100
AcDbAlignedDimension
 13
16800
 23
30000
 33
0
 14
22800
 24
30000
 34
0
  0
DIMENSION
  5
301
100
AcDbEntity
  8
DIM
100
AcDbDimension
  2
*D
 10
22800
 20
31200
 30
0
 11
25800
 21
31450
 31
0
 70
33
  1

 42
6000
100
AcDbAlignedDimension
 13
22800
 23
30000
 33
0
 14
28800
 24
30000
 34
0
  0
DIMENSION
  5
302
100
AcDbEntity
  8
DIM
100
AcDbDimension
  2
*D
 10
28800
 20
31200
 30
0
 11
31800
 21
31450
 31
0
 70
33
  1

 42
6000
100
AcDbAlignedDimension
 13
28800
 23
30000
 33
0
 14
34800
 24
30000
 34
0
  0
DIMENSION
  5
303
100
AcDbEntity
  8
DIM
100
AcDbDimension
  2
*D
 10
36000
 20
0
 30
0
 11
36250
 21
3000
 31
0
 70
33
  1

 42
6000
100
AcDbAlignedDimension
 13
34800
 23
0
 33
0
 14
34800
 24
6000
 34
0
  0
DIMENSION
  5
304
100
AcDbEntity
  8
DIM
100
AcDbDimension
  2
*D
 10
36000
 20
6000
 30
0
 11
36250
 21
9000
 31
0
 70
33
  1

 42
6000
100
AcDbAlignedDimension
 13
34800
 23
6000
 33
0
 14
34800
 24
12000
 34
0
  0
DIMENSION
  5
305
100
AcDbEntity
  8
DIM
100
AcDbDimension
  2
*D
 10
36000
 20
12000
 30
0
 11
36250
 21
15000
 31
0
 70
33
  1

 42
6000
100
AcDbAlignedDimension
 13
34800
 23
12000
 33
0
 14
34800
 24
18000
 34
0
  0
DIMENSION
  5
306
100
AcDbEntity
  8
DIM
100
AcDbDimension
  2
*D
 10
36000
 20
18000
 30
0
 11
36250
 21
21000
 31
0
 70
33
  1

 42
6000
100
AcDbAlignedDimension
 13
34800
 23
18000
 33
0
 14
34800
 24
24000
 34
0
  0
DIMENSION
  5
307
100
AcDbEntity
  8
DIM
100
AcDbDimension
  2
*D
 10
36000
 20
24000
 30
0
 11
36250
 21
27000
 31
0
 70
33
  1

 42
6000
100
AcDbAlignedDimension
 13
34800
 23
24000
 33
0
 14
34800
 24
30000
 34
0
  0
TEXT
  5
308
100
AcDbEntity
  8
TEXT
100
AcDbText
 10
4800
 20
-3200
 30
0
 40
450
  1
GROUND FLOOR PLAN
100
AcDbText
  0
TEXT
  5
309
100
AcDbEntity
  8
TEXT
100
AcDbText
 10
37400
 20
15000
 30
0
 40
300
  1
+450
100
AcDbText
  0
LINE
  5
30A
100
AcDbEntity
  8
0
100
AcDbLine
 10
0
 20
-11200
 30
0
 11
59400
 21
-11200
 31
0
  0
LINE
  5
30B
100
AcDbEntity
  8
0
100
AcDbLine
 10
59400
 20
-11200
 30
0
 11
59400
 21
35200
 31
0
  0
LINE
  5
30C
100
AcDbEntity
  8
0
100
AcDbLine
 10
59400
 20
35200
 30
0
 11
0
 21
35200
 31
0
  0
LINE
  5
30D
100
AcDbEntity
  8
0
100
AcDbLine
 10
0
 20
35200
 30
0
 11
0
 21
-11200
 31
0
  0
INSERT
  5
30E
100
AcDbEntity
  8
0
100
AcDbBlockReference
  2
TITLEBLOCK-A1
 10
41400
 20
-11200
 30
0
 41
1
 42
1
 43
1
 50
0
  0
TEXT
  5
30F
100
AcDbEntity
  8
0
100
AcDbText
 10
53700
 20
-7400
 30
0
 40
300
  1
DRAWING: GROUND FLOOR PLAN
100
AcDbText
  0
TEXT
  5
310
100
AcDbEntity
  8
0
100
AcDbText
 10
53700
 20
-8300
 30
0
 40
300
  1
DRG NO A-101
100
AcDbText
  0
LINE
  5
311
100
AcDbEntity
  8
0
100
AcDbLine
 10
2000
 20
-9200
 30
0
 11
12000
 21
-9200
 31
0
  0
LINE
  5
312
100
AcDbEntity
  8
0
100
AcDbLine
 10
2000
 20
-8900
 30
0
 11
12000
 21
-8900
 31
0
  0
LINE
  5
313
100
AcDbEntity
  8
0
100
AcDbLine
 10
2000
 20
-9200
 30
0
 11
2000
 21
-8900
 31
0
  0
LINE
  5
314
100
AcDbEntity
  8
0
100
AcDbLine
 10
3000
 20
-9200
 30
0
 11
3000
 21
-8900
 31
0
  0
LINE
  5
315
100
AcDbEntity
  8
0
100
AcDbLine
 10
4000
 20
-9200
 30
0
 11
4000
 21
-8900
 31
0
  0
LINE
  5
316
100
AcDbEntity
  8
0
100
AcDbLine
 10
5000
 20
-9200
 30
0
 11
5000
 21
-8900
 31
0
  0
LINE
  5
317
100
AcDbEntity
  8
0
100
AcDbLine
 10
6000
 20
-9200
 30
0
 11
6000
 21
-8900
 31
0
  0
LINE
  5
318
100
AcDbEntity
  8
0
100
AcDbLine
 10
7000
 20
-9200
 30
0
 11
7000
 21
-8900
 31
0
  0
LINE
  5
319
100
AcDbEntity
  8
0
100
AcDbLine
 10
8000
 20
-9200
 30
0
 11
8000
 21
-8900
 31
0
  0
LINE
  5
31A
100
AcDbEntity
  8
0
100
AcDbLine
 10
9000
 20
-9200
 30
0
 11
9000
 21
-8900
 31
0
  0
LINE
  5
31B
100
AcDbEntity
  8
0
100
AcDbLine
 10
10000
 20
-9200
 30
0
 11
10000
 21
-8900
 31
0
  0
LINE
  5
31C
100
AcDbEntity
  8
0
100
AcDbLine
 10
11000
 20
-9200
 30
0
 11
11000
 21
-8900
 31
0
  0
LINE
  5
31D
100
AcDbEntity
  8
0
100
AcDbLine
 10
12000
 20
-9200
 30
0
 11
12000
 21
-8900
 31
0
  0
TEXT
  5
31E
100
AcDbEntity
  8
0
100
AcDbText
 10
1900
 20
-8700
 30
0
 40
250
  1
0
100
AcDbText
  0
TEXT
  5
31F
100
AcDbEntity
  8
0
100
AcDbText
 10
2900
 20
-8700
 30
0
 40
250
  1
1
100
AcDbText
  0
TEXT
  5
320
100
AcDbEntity
  8
0
100
AcDbText
 10
3900
 20
-8700
 30
0
 40
250
  1
2
100
AcDbText
  0
TEXT
  5
321
100
AcDbEntity
  8
0
100
AcDbText
 10
6900
 20
-8700
 30
0
 40
250
  1
5
100
AcDbText
  0
TEXT
  5
322
100
AcDbEntity
  8
0
100
AcDbText
 10
11900
 20
-8700
 30
0
 40
250
  1
10
100
AcDbText
  0
TEXT
  5
323
100
AcDbEntity
  8
0
100
AcDbText
 10
12600
 20
-8700
 30
0
 40
250
  1
m
100
AcDbText
  0
TEXT
  5
324
100
AcDbEntity
  8
0
100
AcDbText
 10
2000
 20
-8200
 30
0
 40
250
  1
SCALE BAR 1:100
100
AcDbText
  0
LWPOLYLINE
  5
325
100
AcDbEntity
  8
0
100
AcDbPolyline
 90
4
 70
1
 10
56400
 20
31700
 10
57000
 20
33500
 10
56400
 20
33100
 10
55800
 20
33500
  0
TEXT
  5
326
100
AcDbEntity
  8
0
100
AcDbText
 10
56250
 20
33800
 30
0
 40
400
  1
N
100
AcDbText
  0
TEXT
  5
327
100
AcDbEntity
  8
0
100
AcDbText
 10
38400
 20
32700
 30
0
 40
250
  1
GENERAL NOTES
100
AcDbText
  0
TEXT
  5
328
100
AcDbEntity
  8
0
100
AcDbText
 10
38400
 20
32100
 30
0
 40
250
  1
1. ALL DIMENSIONS ARE IN MILLIMETRES.
100
AcDbText
  0
TEXT
  5
329
100
AcDbEntity
  8
0
100
AcDbText
 10
38400
 20
31500
 30
0
 40
250
  1
2. SLAB THICKNESS 150 UNLESS NOTED.
100
AcDbText
  0
TEXT
  5
32A
100
AcDbEntity
  8
0
100
AcDbText
 10
38400
 20
30900
 30
0
 40
250
  1
3. COLUMNS 230 X 230 TO ENGINEER'S DETAILS.
100
AcDbText
  0
TEXT
  5
32B
100
AcDbEntity
  8
0
100
AcDbText
 10
38400
 20
30300
 30
0
 40
250
  1
4. WINDOW SILL LEVEL 900 ABOVE FFL.
100
AcDbText
  0
TEXT
  5
32C
100
AcDbEntity
  8
0
100
AcDbText
 10
38400
 20
29700
 30
0
 40
250
  1
5. DOOR HEIGHT 2100 UNLESS NOTED.
100
AcDbText
  0
TEXT
  5
32D
100
AcDbEntity
  8
0
100
AcDbText
 10
38400
 20
29100
 30
0
 40
250
  1
6. CONCRETE GRADE 25 COVER 40.
100
AcDbText
  0
TEXT
  5
32E
100
AcDbEntity
  8
0
100
AcDbText
 10
38400
 20
28500
 30
0
 40
250
  1
7. LINTEL 225 X 150 OVER ALL OPENINGS.
100
AcDbText
  0
TEXT
  5
32F
100
AcDbEntity
  8
0
100
AcDbText
 10
38400
 20
27900
 30
0
 40
250
  1
8. DO NOT SCALE OFF THIS DRAWING.
100
AcDbText
  0
LWPOLYLINE
  5
330
100
AcDbEntity
  8
WIND
100
AcDbPolyline
 90
4
 70
1
 10
70140
 20
2400
 10
70260
 20
2400
 10
70260
 20
3600
 10
70140
 20
3600
  0
LWPOLYLINE
  5
331
100
AcDbEntity
  8
WIND
100
AcDbPolyline
 90
4
 70
1
 10
70140
 20
8400
 10
70260
 20
8400
 10
70260
 20
9600
 10
70140
 20
9600
  0
LWPOLYLINE
  5
332
100
AcDbEntity
  8
WIND
100
AcDbPolyline
 90
4
 70
1
 10
70140
 20
14400
 10
70260
 20
14400
 10
70260
 20
15600
 10
70140
 20
15600
  0
LWPOLYLINE
  5
333
100
AcDbEntity
  8
WIND
100
AcDbPolyline
 90
4
 70
1
 10
70140
 20
20400
 10
70260
 20
20400
 10
70260
 20
21600
 10
70140
 20
21600
  0
LWPOLYLINE
  5
334
100
AcDbEntity
  8
WIND
100
AcDbPolyline
 90
4
 70
1
 10
70140
 20
26400
 10
70260
 20
26400
 10
70260
 20
27600
 10
70140
 20
27600
  0
LWPOLYLINE
  5
335
100
AcDbEntity
  8
WIND
100
AcDbPolyline
 90
4
 70
1
 10
100140
 20
2400
 10
100260
 20
2400
 10
100260
 20
3600
 10
100140
 20
3600
  0
LWPOLYLINE
  5
336
100
AcDbEntity
  8
WIND
100
AcDbPolyline
 90
4
 70
1
 10
100140
 20
8400
 10
100260
 20
8400
 10
100260
 20
9600
 10
100140
 20
9600
  0
LWPOLYLINE
  5
337
100
AcDbEntity
  8
WIND
100
AcDbPolyline
 90
4
 70
1
 10
100140
 20
14400
 10
100260
 20
14400
 10
100260
 20
15600
 10
100140
 20
15600
  0
LWPOLYLINE
  5
338
100
AcDbEntity
  8
WIND
100
AcDbPolyline
 90
4
 70
1
 10
100140
 20
20400
 10
100260
 20
20400
 10
100260
 20
21600
 10
100140
 20
21600
  0
LWPOLYLINE
  5
339
100
AcDbEntity
  8
WIND
100
AcDbPolyline
 90
4
 70
1
 10
100140
 20
26400
 10
100260
 20
26400
 10
100260
 20
27600
 10
100140
 20
27600
  0
LWPOLYLINE
  5
33A
100
AcDbEntity
  8
WIND
100
AcDbPolyline
 90
4
 70
1
 10
72600
 20
-60
 10
73800
 20
-60
 10
73800
 20
60
 10
72600
 20
60
  0
LWPOLYLINE
  5
33B
100
AcDbEntity
  8
WIND
100
AcDbPolyline
 90
4
 70
1
 10
78600
 20
-60
 10
79800
 20
-60
 10
79800
 20
60
 10
78600
 20
60
  0
LWPOLYLINE
  5
33C
100
AcDbEntity
  8
WIND
100
AcDbPolyline
 90
4
 70
1
 10
84600
 20
-60
 10
85800
 20
-60
 10
85800
 20
60
 10
84600
 20
60
  0
LWPOLYLINE
  5
33D
100
AcDbEntity
  8
WIND
100
AcDbPolyline
 90
4
 70
1
 10
90600
 20
-60
 10
91800
 20
-60
 10
91800
 20
60
 10
90600
 20
60
  0
LWPOLYLINE
  5
33E
100
AcDbEntity
  8
WIND
100
AcDbPolyline
 90
4
 70
1
 10
96600
 20
-60
 10
97800
 20
-60
 10
97800
 20
60
 10
96600
 20
60
  0
LWPOLYLINE
  5
33F
100
AcDbEntity
  8
WIND
100
AcDbPolyline
 90
4
 70
1
 10
72600
 20
29940
 10
73800
 20
29940
 10
73800
 20
30060
 10
72600
 20
30060
  0
LWPOLYLINE
  5
340
100
AcDbEntity
  8
WIND
100
AcDbPolyline
 90
4
 70
1
 10
78600
 20
29940
 10
79800
 20
29940
 10
79800
 20
30060
 10
78600
 20
30060
  0
LWPOLYLINE
  5
341
100
AcDbEntity
  8
WIND
100
AcDbPolyline
 90
4
 70
1
 10
84600
 20
29940
 10
85800
 20
29940
 10
85800
 20
30060
 10
84600
 20
30060
  0
LWPOLYLINE
  5
342
100
AcDbEntity
  8
WIND
100
AcDbPolyline
 90
4
 70
1
 10
90600
 20
29940
 10
91800
 20
29940
 10
91800
 20
30060
 10
90600
 20
30060
  0
LWPOLYLINE
  5
343
100
AcDbEntity
  8
WIND
100
AcDbPolyline
 90
4
 70
1
 10
96600
 20
29940
 10
97800
 20
29940
 10
97800
 20
30060
 10
96600
 20
30060
  0
ARC
  5
344
100
AcDbEntity
  8
DOOR
100
AcDbCircle
 10
76200
 20
8550
 30
0
 40
900
100
AcDbArc
 50
90
 51
180
  0
LINE
  5
345
100
AcDbEntity
  8
DOOR
100
AcDbLine
 10
76200
 20
8550
 30
0
 11
75300
 21
8550
 31
0
  0
ARC
  5
346
100
AcDbEntity
  8
DOOR
100
AcDbCircle
 10
76200
 20
14550
 30
0
 40
900
100
AcDbArc
 50
90
 51
180
  0
LINE
  5
347
100
AcDbEntity
  8
DOOR
100
AcDbLine
 10
76200
 20
14550
 30
0
 11
75300
 21
14550
 31
0
  0
ARC
  5
348
100
AcDbEntity
  8
DOOR
100
AcDbCircle
 10
76200
 20
20550
 30
0
 40
900
100
AcDbArc
 50
90
 51
180
  0
LINE
  5
349
100
AcDbEntity
  8
DOOR
100
AcDbLine
 10
76200
 20
20550
 30
0
 11
75300
 21
20550
 31
0
  0
ARC
  5
34A
100
AcDbEntity
  8
DOOR
100
AcDbCircle
 10
76200
 20
26550
 30
0
 40
900
100
AcDbArc
 50
90
 51
180
  0
LINE
  5
34B
100
AcDbEntity
  8
DOOR
100
AcDbLine
 10
76200
 20
26550
 30
0
 11
75300
 21
26550
 31
0
  0
ARC
  5
34C
100
AcDbEntity
  8
DOOR
100
AcDbCircle
 10
82200
 20
2550
 30
0
 40
900
100
AcDbArc
 50
90
 51
180
  0
LINE
  5
34D
100
AcDbEntity
  8
DOOR
100
AcDbLine
 10
82200
 20
2550
 30
0
 11
81300
 21
2550
 31
0
  0
ARC
  5
34E
100
AcDbEntity
  8
DOOR
100
AcDbCircle
 10
82200
 20
8550
 30
0
 40
900
100
AcDbArc
 50
90
 51
180
  0
LINE
  5
34F
100
AcDbEntity
  8
DOOR
100
AcDbLine
 10
82200
 20
8550
 30
0
 11
81300
 21
8550
 31
0
  0
ARC
  5
350
100
AcDbEntity
  8
DOOR
100
AcDbCircle
 10
82200
 20
20550
 30
0
 40
900
100
AcDbArc
 50
90
 51
180
  0
LINE
  5
351
100
AcDbEntity
  8
DOOR
100
AcDbLine
 10
82200
 20
20550
 30
0
 11
81300
 21
20550
 31
0
  0
ARC
  5
352
100
AcDbEntity
  8
DOOR
100
AcDbCircle
 10
82200
 20
26550
 30
0
 40
900
100
AcDbArc
 50
90
 51
180
  0
LINE
  5
353
100
AcDbEntity
  8
DOOR
100
AcDbLine
 10
82200
 20
26550
 30
0
 11
81300
 21
26550
 31
0
  0
ARC
  5
354
100
AcDbEntity
  8
DOOR
100
AcDbCircle
 10
88200
 20
2550
 30
0
 40
900
100
AcDbArc
 50
90
 51
180
  0
LINE
  5
355
100
AcDbEntity
  8
DOOR
100
AcDbLine
 10
88200
 20
2550
 30
0
 11
87300
 21
2550
 31
0
  0
ARC
  5
356
100
AcDbEntity
  8
DOOR
100
AcDbCircle
 10
88200
 20
8550
 30
0
 40
900
100
AcDbArc
 50
90
 51
180
  0
LINE
  5
357
100
AcDbEntity
  8
DOOR
100
AcDbLine
 10
88200
 20
8550
 30
0
 11
87300
 21
8550
 31
0
  0
ARC
  5
358
100
AcDbEntity
  8
DOOR
100
AcDbCircle
 10
88200
 20
14550
 30
0
 40
900
100
AcDbArc
 50
90
 51
180
  0
LINE
  5
359
100
AcDbEntity
  8
DOOR
100
AcDbLine
 10
88200
 20
14550
 30
0
 11
87300
 21
14550
 31
0
  0
ARC
  5
35A
100
AcDbEntity
  8
DOOR
100
AcDbCircle
 10
88200
 20
20550
 30
0
 40
900
100
AcDbArc
 50
90
 51
180
  0
LINE
  5
35B
100
AcDbEntity
  8
DOOR
100
AcDbLine
 10
88200
 20
20550
 30
0
 11
87300
 21
20550
 31
0
  0
ARC
  5
35C
100
AcDbEntity
  8
DOOR
100
AcDbCircle
 10
88200
 20
26550
 30
0
 40
900
100
AcDbArc
 50
90
 51
180
  0
LINE
  5
35D
100
AcDbEntity
  8
DOOR
100
AcDbLine
 10
88200
 20
26550
 30
0
 11
87300
 21
26550
 31
0
  0
ARC
  5
35E
100
AcDbEntity
  8
DOOR
100
AcDbCircle
 10
94200
 20
2550
 30
0
 40
900
100
AcDbArc
 50
90
 51
180
  0
LINE
  5
35F
100
AcDbEntity
  8
DOOR
100
AcDbLine
 10
94200
 20
2550
 30
0
 11
93300
 21
2550
 31
0
  0
ARC
  5
360
100
AcDbEntity
  8
DOOR
100
AcDbCircle
 10
94200
 20
8550
 30
0
 40
900
100
AcDbArc
 50
90
 51
180
  0
LINE
  5
361
100
AcDbEntity
  8
DOOR
100
AcDbLine
 10
94200
 20
8550
 30
0
 11
93300
 21
8550
 31
0
  0
ARC
  5
362
100
AcDbEntity
  8
DOOR
100
AcDbCircle
 10
94200
 20
14550
 30
0
 40
900
100
AcDbArc
 50
90
 51
180
  0
LINE
  5
363
100
AcDbEntity
  8
DOOR
100
AcDbLine
 10
94200
 20
14550
 30
0
 11
93300
 21
14550
 31
0
  0
ARC
  5
364
100
AcDbEntity
  8
DOOR
100
AcDbCircle
 10
94200
 20
20550
 30
0
 40
900
100
AcDbArc
 50
90
 51
180
  0
LINE
  5
365
100
AcDbEntity
  8
DOOR
100
AcDbLine
 10
94200
 20
20550
 30
0
 11
93300
 21
20550
 31
0
  0
ARC
  5
366
100
AcDbEntity
  8
DOOR
100
AcDbCircle
 10
72750
 20
6000
 30
0
 40
900
100
AcDbArc
 50
0
 51
90
  0
LINE
  5
367
100
AcDbEntity
  8
DOOR
100
AcDbLine
 10
72750
 20
6000
 30
0
 11
72750
 21
6900
 31
0
  0
ARC
  5
368
100
AcDbEntity
  8
DOOR
100
AcDbCircle
 10
78750
 20
6000
 30
0
 40
900
100
AcDbArc
 50
0
 51
90
  0
LINE
  5
369
100
AcDbEntity
  8
DOOR
100
AcDbLine
 10
78750
 20
6000
 30
0
 11
78750
 21
6900
 31
0
  0
ARC
  5
36A
100
AcDbEntity
  8
DOOR
100
AcDbCircle
 10
84750
 20
6000
 30
0
 40
900
100
AcDbArc
 50
0
 51
90
  0
LINE
  5
36B
100
AcDbEntity
  8
DOOR
100
AcDbLine
 10
84750
 20
6000
 30
0
 11
84750
 21
6900
 31
0
  0
ARC
  5
36C
100
AcDbEntity
  8
DOOR
100
AcDbCircle
 10
90750
 20
6000
 30
0
 40
900
100
AcDbArc
 50
0
 51
90
  0
LINE
  5
36D
100
AcDbEntity
  8
DOOR
100
AcDbLine
 10
90750
 20
6000
 30
0
 11
90750
 21
6900
 31
0
  0
ARC
  5
36E
100
AcDbEntity
  8
DOOR
100
AcDbCircle
 10
72750
 20
12000
 30
0
 40
900
100
AcDbArc
 50
0
 51
90
  0
LINE
  5
36F
100
AcDbEntity
  8
DOOR
100
AcDbLine
 10
72750
 20
12000
 30
0
 11
72750
 21
12900
 31
0
  0
ARC
  5
370
100
AcDbEntity
  8
DOOR
100
AcDbCircle
 10
78750
 20
12000
 30
0
 40
900
100
AcDbArc
 50
0
 51
90
  0
LINE
  5
371
100
AcDbEntity
  8
DOOR
100
AcDbLine
 10
78750
 20
12000
 30
0
 11
78750
 21
12900
 31
0
  0
ARC
  5
372
100
AcDbEntity
  8
DOOR
100
AcDbCircle
 10
84750
 20
12000
 30
0
 40
900
100
AcDbArc
 50
0
 51
90
  0
LINE
  5
373
100
AcDbEntity
  8
DOOR
100
AcDbLine
 10
84750
 20
12000
 30
0
 11
84750
 21
12900
 31
0
  0
ARC
  5
374
100
AcDbEntity
  8
DOOR
100
AcDbCircle
 10
90750
 20
12000
 30
0
 40
900
100
AcDbArc
 50
0
 51
90
  0
LINE
  5
375
100
AcDbEntity
  8
DOOR
100
AcDbLine
 10
90750
 20
12000
 30
0
 11
90750
 21
12900
 31
0
  0
ARC
  5
376
100
AcDbEntity
  8
DOOR
100
AcDbCircle
 10
96750
 20
12000
 30
0
 40
900
100
AcDbArc
 50
0
 51
90
  0
LINE
  5
377
100
AcDbEntity
  8
DOOR
100
AcDbLine
 10
96750
 20
12000
 30
0
 11
96750
 21
12900
 31
0
  0
ARC
  5
378
100
AcDbEntity
  8
DOOR
100
AcDbCircle
 10
72750
 20
18000
 30
0
 40
900
100
AcDbArc
 50
0
 51
90
  0
LINE
  5
379
100
AcDbEntity
  8
DOOR
100
AcDbLine
 10
72750
 20
18000
 30
0
 11
72750
 21
18900
 31
0
  0
ARC
  5
37A
100
AcDbEntity
  8
DOOR
100
AcDbCircle
 10
78750
 20
18000
 30
0
 40
900
100
AcDbArc
 50
0
 51
90
  0
LINE
  5
37B
100
AcDbEntity
  8
DOOR
100
AcDbLine
 10
78750
 20
18000
 30
0
 11
78750
 21
18900
 31
0
  0
ARC
  5
37C
100
AcDbEntity
  8
DOOR
100
AcDbCircle
 10
84750
 20
18000
 30
0
 40
900
100
AcDbArc
 50
0
 51
90
  0
LINE
  5
37D
100
AcDbEntity
  8
DOOR
100
AcDbLine
 10
84750
 20
18000
 30
0
 11
84750
 21
18900
 31
0
  0
ARC
  5
37E
100
AcDbEntity
  8
DOOR
100
AcDbCircle
 10
90750
 20
18000
 30
0
 40
900
100
AcDbArc
 50
0
 51
90
  0
LINE
  5
37F
100
AcDbEntity
  8
DOOR
100
AcDbLine
 10
90750
 20
18000
 30
0
 11
90750
 21
18900
 31
0
  0
ARC
  5
380
100
AcDbEntity
  8
DOOR
100
AcDbCircle
 10
96750
 20
18000
 30
0
 40
900
100
AcDbArc
 50
0
 51
90
  0
LINE
  5
381
100
AcDbEntity
  8
DOOR
100
AcDbLine
 10
96750
 20
18000
 30
0
 11
96750
 21
18900
 31
0
  0
ARC
  5
382
100
AcDbEntity
  8
DOOR
100
AcDbCircle
 10
78750
 20
24000
 30
0
 40
900
100
AcDbArc
 50
0
 51
90
  0
LINE
  5
383
100
AcDbEntity
  8
DOOR
100
AcDbLine
 10
78750
 20
24000
 30
0
 11
78750
 21
24900
 31
0
  0
ARC
  5
384
100
AcDbEntity
  8
DOOR
100
AcDbCircle
 10
84750
 20
24000
 30
0
 40
900
100
AcDbArc
 50
0
 51
90
  0
LINE
  5
385
100
AcDbEntity
  8
DOOR
100
AcDbLine
 10
84750
 20
24000
 30
0
 11
84750
 21
24900
 31
0
  0
ARC
  5
386
100
AcDbEntity
  8
DOOR
100
AcDbCircle
 10
90750
 20
24000
 30
0
 40
900
100
AcDbArc
 50
0
 51
90
  0
LINE
  5
387
100
AcDbEntity
  8
DOOR
100
AcDbLine
 10
90750
 20
24000
 30
0
 11
90750
 21
24900
 31
0
  0
ARC
  5
388
100
AcDbEntity
  8
DOOR
100
AcDbCircle
 10
96750
 20
24000
 30
0
 40
900
100
AcDbArc
 50
0
 51
90
  0
LINE
  5
389
100
AcDbEntity
  8
DOOR
100
AcDbLine
 10
96750
 20
24000
 30
0
 11
96750
 21
24900
 31
0
  0
LINE
  5
38A
100
AcDbEntity
  8
WALL
100
AcDbLine
370
50
 10
70050
 20
0
 30
0
 11
70050
 21
2400
 31
0
  0
LINE
  5
38B
100
AcDbEntity
  8
WALL
100
AcDbLine
370
50
 10
70350
 20
2400
 30
0
 11
70350
 21
0
 31
0
  0
LINE
  5
38C
100
AcDbEntity
  8
WALL
100
AcDbLine
370
50
 10
70050
 20
3600
 30
0
 11
70050
 21
6000
 31
0
  0
LINE
  5
38D
100
AcDbEntity
  8
WALL
100
AcDbLine
370
50
 10
70350
 20
6000
 30
0
 11
70350
 21
3600
 31
0
  0
LINE
  5
38E
100
AcDbEntity
  8
WALL
100
AcDbLine
370
50
 10
70050
 20
2400
 30
0
 11
70350
 21
2400
 31
0
  0
LINE
  5
38F
100
AcDbEntity
  8
WALL
100
AcDbLine
370
50
 10
70050
 20
3600
 30
0
 11
70350
 21
3600
 31
0
  0
LINE
  5
390
100
AcDbEntity
  8
WALL
100
AcDbLine
370
50
 10
70050
 20
6000
 30
0
 11
70050
 21
8400
 31
0
  0
LINE
  5
391
100
AcDbEntity
  8
WALL
100
AcDbLine
370
50
 10
70350
 20
8400
 30
0
 11
70350
 21
6000
 31
0
  0
LINE
  5
392
100
AcDbEntity
  8
WALL
100
AcDbLine
370
50
 10
70050
 20
9600
 30
0
 11
70050
 21
12000
 31
0
  0
LINE
  5
393
100
AcDbEntity
  8
WALL
100
AcDbLine
370
50
 10
70350
 20
12000
 30
0
 11
70350
 21
9600
 31
0
  0
LINE
  5
394
100
AcDbEntity
  8
WALL
100
AcDbLine
370
50
 10
70050
 20
8400
 30
0
 11
70350
 21
8400
 31
0
  0
LINE
  5
395
100
AcDbEntity
  8
WALL
100
AcDbLine
370
50
 10
70050
 20
9600
 30
0
 11
70350
 21
9600
 31
0
  0
LINE
  5
396
100
AcDbEntity
  8
WALL
100
AcDbLine
370
50
 10
70050
 20
12000
 30
0
 11
70050
 21
14400
 31
0
  0
LINE
  5
397
100
AcDbEntity
  8
WALL
100
AcDbLine
370
50
 10
70350
 20
14400
 30
0
 11
70350
 21
12000
 31
0
  0
LINE
  5
398
100
AcDbEntity
  8
WALL
100
AcDbLine
370
50
 10
70050
 20
15600
 30
0
 11
70050
 21
18000
 31
0
  0
LINE
  5
399
100
AcDbEntity
  8
WALL
100
AcDbLine
370
50
 10
70350
 20
18000
 30
0
 11
70350
 21
15600
 31
0
  0
LINE
  5
39A
100
AcDbEntity
  8
WALL
100
AcDbLine
370
50
 10
70050
 20
14400
 30
0
 11
70350
 21
14400
 31
0
  0
LINE
  5
39B
100
AcDbEntity
  8
WALL
100
AcDbLine
370
50
 10
70050
 20
15600
 30
0
 11
70350
 21
15600
 31
0
  0
LINE
  5
39C
100
AcDbEntity
  8
WALL
100
AcDbLine
370
50
 10
70050
 20
18000
 30
0
 11
70050
 21
20400
 31
0
  0
LINE
  5
39D
100
AcDbEntity
  8
WALL
100
AcDbLine
370
50
 10
70350
 20
20400
 30
0
 11
70350
 21
18000
 31
0
  0
LINE
  5
39E
100
AcDbEntity
  8
WALL
100
AcDbLine
370
50
 10
70050
 20
21600
 30
0
 11
70050
 21
24000
 31
0
  0
LINE
  5
39F
100
AcDbEntity
  8
WALL
100
AcDbLine
370
50
 10
70350
 20
24000
 30
0
 11
70350
 21
21600
 31
0
  0
LINE
  5
3A0
100
AcDbEntity
  8
WALL
100
AcDbLine
370
50
 10
70050
 20
20400
 30
0
 11
70350
 21
20400
 31
0
  0
LINE
  5
3A1
100
AcDbEntity
  8
WALL
100
AcDbLine
370
50
 10
70050
 20
21600
 30
0
 11
70350
 21
21600
 31
0
  0
LINE
  5
3A2
100
AcDbEntity
  8
WALL
100
AcDbLine
370
50
 10
70050
 20
24000
 30
0
 11
70050
 21
26400
 31
0
  0
LINE
  5
3A3
100
AcDbEntity
  8
WALL
100
AcDbLine
370
50
 10
70350
 20
26400
 30
0
 11
70350
 21
24000
 31
0
  0
LINE
  5
3A4
100
AcDbEntity
  8
WALL
100
AcDbLine
370
50
 10
70050
 20
27600
 30
0
 11
70050
 21
30000
 31
0
  0
LINE
  5
3A5
100
AcDbEntity
  8
WALL
100
AcDbLine
370
50
 10
70350
 20
30000
 30
0
 11
70350
 21
27600
 31
0
  0
LINE
  5
3A6
100
AcDbEntity
  8
WALL
100
AcDbLine
370
50
 10
70050
 20
26400
 30
0
 11
70350
 21
26400
 31
0
  0
LINE
  5
3A7
100
AcDbEntity
  8
WALL
100
AcDbLine
370
50
 10
70050
 20
27600
 30
0
 11
70350
 21
27600
 31
0
  0
LINE
  5
3A8
100
AcDbEntity
  8
WALL
100
AcDbLine
370
50
 10
100050
 20
0
 30
0
 11
100050
 21
2400
 31
0
  0
LINE
  5
3A9
100
AcDbEntity
  8
WALL
100
AcDbLine
370
50
 10
100350
 20
2400
 30
0
 11
100350
 21
0
 31
0
  0
LINE
  5
3AA
100
AcDbEntity
  8
WALL
100
AcDbLine
370
50
 10
100050
 20
3600
 30
0
 11
100050
 21
6000
 31
0
  0
LINE
  5
3AB
100
AcDbEntity
  8
WALL
100
AcDbLine
370
50
 10
100350
 20
6000
 30
0
 11
100350
 21
3600
 31
0
  0
LINE
  5
3AC
100
AcDbEntity
  8
WALL
100
AcDbLine
370
50
 10
100050
 20
2400
 30
0
 11
100350
 21
2400
 31
0
  0
LINE
  5
3AD
100
AcDbEntity
  8
WALL
100
AcDbLine
370
50
 10
100050
 20
3600
 30
0
 11
100350
 21
3600
 31
0
  0
LINE
  5
3AE
100
AcDbEntity
  8
WALL
100
AcDbLine
370
50
 10
100050
 20
6000
 30
0
 11
100050
 21
8400
 31
0
  0
LINE
  5
3AF
100
AcDbEntity
  8
WALL
100
AcDbLine
370
50
 10
100350
 20
8400
 30
0
 11
100350
 21
6000
 31
0
  0
LINE
  5
3B0
100
AcDbEntity
  8
WALL
100
AcDbLine
370
50
 10
100050
 20
9600
 30
0
 11
100050
 21
12000
 31
0
  0
LINE
  5
3B1
100
AcDbEntity
  8
WALL
100
AcDbLine
370
50
 10
100350
 20
12000
 30
0
 11
100350
 21
9600
 31
0
  0
LINE
  5
3B2
100
AcDbEntity
  8
WALL
100
AcDbLine
370
50
 10
100050
 20
8400
 30
0
 11
100350
 21
8400
 31
0
  0
LINE
  5
3B3
100
AcDbEntity
  8
WALL
100
AcDbLine
370
50
 10
100050
 20
9600
 30
0
 11
100350
 21
9600
 31
0
  0
LINE
  5
3B4
100
AcDbEntity
  8
WALL
100
AcDbLine
370
50
 10
100050
 20
12000
 30
0
 11
100050
 21
14400
 31
0
  0
LINE
  5
3B5
100
AcDbEntity
  8
WALL
100
AcDbLine
370
50
 10
100350
 20
14400
 30
0
 11
100350
 21
12000
 31
0
  0
LINE
  5
3B6
100
AcDbEntity
  8
WALL
100
AcDbLine
370
50
 10
100050
 20
15600
 30
0
 11
100050
 21
18000
 31
0
  0
LINE
  5
3B7
100
AcDbEntity
  8
WALL
100
AcDbLine
370
50
 10
100350
 20
18000
 30
0
 11
100350
 21
15600
 31
0
  0
LINE
  5
3B8
100
AcDbEntity
  8
WALL
100
AcDbLine
370
50
 10
100050
 20
14400
 30
0
 11
100350
 21
14400
 31
0
  0
LINE
  5
3B9
100
AcDbEntity
  8
WALL
100
AcDbLine
370
50
 10
100050
 20
15600
 30
0
 11
100350
 21
15600
 31
0
  0
LINE
  5
3BA
100
AcDbEntity
  8
WALL
100
AcDbLine
370
50
 10
100050
 20
18000
 30
0
 11
100050
 21
20400
 31
0
  0
LINE
  5
3BB
100
AcDbEntity
  8
WALL
100
AcDbLine
370
50
 10
100350
 20
20400
 30
0
 11
100350
 21
18000
 31
0
  0
LINE
  5
3BC
100
AcDbEntity
  8
WALL
100
AcDbLine
370
50
 10
100050
 20
21600
 30
0
 11
100050
 21
24000
 31
0
  0
LINE
  5
3BD
100
AcDbEntity
  8
WALL
100
AcDbLine
370
50
 10
100350
 20
24000
 30
0
 11
100350
 21
21600
 31
0
  0
LINE
  5
3BE
100
AcDbEntity
  8
WALL
100
AcDbLine
370
50
 10
100050
 20
20400
 30
0
 11
100350
 21
20400
 31
0
  0
LINE
  5
3BF
100
AcDbEntity
  8
WALL
100
AcDbLine
370
50
 10
100050
 20
21600
 30
0
 11
100350
 21
21600
 31
0
  0
LINE
  5
3C0
100
AcDbEntity
  8
WALL
100
AcDbLine
370
50
 10
100050
 20
24000
 30
0
 11
100050
 21
26400
 31
0
  0
LINE
  5
3C1
100
AcDbEntity
  8
WALL
100
AcDbLine
370
50
 10
100350
 20
26400
 30
0
 11
100350
 21
24000
 31
0
  0
LINE
  5
3C2
100
AcDbEntity
  8
WALL
100
AcDbLine
370
50
 10
100050
 20
27600
 30
0
 11
100050
 21
30000
 31
0
  0
LINE
  5
3C3
100
AcDbEntity
  8
WALL
100
AcDbLine
370
50
 10
100350
 20
30000
 30
0
 11
100350
 21
27600
 31
0
  0
LINE
  5
3C4
100
AcDbEntity
  8
WALL
100
AcDbLine
370
50
 10
100050
 20
26400
 30
0
 11
100350
 21
26400
 31
0
  0
LINE
  5
3C5
100
AcDbEntity
  8
WALL
100
AcDbLine
370
50
 10
100050
 20
27600
 30
0
 11
100350
 21
27600
 31
0
  0
LINE
  5
3C6
100
AcDbEntity
  8
WALL
100
AcDbLine
370
50
 10
70200
 20
-150
 30
0
 11
72600
 21
-150
 31
0
  0
LINE
  5
3C7
100
AcDbEntity
  8
WALL
100
AcDbLine
370
50
 10
72600
 20
150
 30
0
 11
70200
 21
150
 31
0
  0
LINE
  5
3C8
100
AcDbEntity
  8
WALL
100
AcDbLine
370
50
 10
73800
 20
-150
 30
0
 11
76200
 21
-150
 31
0
  0
LINE
  5
3C9
100
AcDbEntity
  8
WALL
100
AcDbLine
370
50
 10
76200
 20
150
 30
0
 11
73800
 21
150
 31
0
  0
LINE
  5
3CA
100
AcDbEntity
  8
WALL
100
AcDbLine
370
50
 10
72600
 20
-150
 30
0
 11
72600
 21
150
 31
0
  0
LINE
  5
3CB
100
AcDbEntity
  8
WALL
100
AcDbLine
370
50
 10
73800
 20
-150
 30
0
 11
73800
 21
150
 31
0
  0
LINE
  5
3CC
100
AcDbEntity
  8
WALL
100
AcDbLine
370
50
 10
76200
 20
-150
 30
0
 11
78600
 21
-150
 31
0
  0
LINE
  5
3CD
100
AcDbEntity
  8
WALL
100
AcDbLine
370
50
 10
78600
 20
150
 30
0
 11
76200
 21
150
 31
0
  0
LINE
  5
3CE
100
AcDbEntity
  8
WALL
100
AcDbLine
370
50
 10
79800
 20
-150
 30
0
 11
82200
 21
-150
 31
0
  0
LINE
  5
3CF
100
AcDbEntity
  8
WALL
100
AcDbLine
370
50
 10
82200
 20
150
 30
0
 11
79800
 21
150
 31
0
  0
LINE
  5
3D0
100
AcDbEntity
  8
WALL
100
AcDbLine
370
50
 10
78600
 20
-150
 30
0
 11
78600
 21
150
 31
0
  0
LINE
  5
3D1
100
AcDbEntity
  8
WALL
100
AcDbLine
370
50
 10
79800
 20
-150
 30
0
 11
79800
 21
150
 31
0
  0
LINE
  5
3D2
100
AcDbEntity
  8
WALL
100
AcDbLine
370
50
 10
82200
 20
-150
 30
0
 11
84600
 21
-150
 31
0
  0
LINE
  5
3D3
100
AcDbEntity
  8
WALL
100
AcDbLine
370
50
 10
84600
 20
150
 30
0
 11
82200
 21
150
 31
0
  0
LINE
  5
3D4
100
AcDbEntity
  8
WALL
100
AcDbLine
370
50
 10
85800
 20
-150
 30
0
 11
88200
 21
-150
 31
0
  0
LINE
  5
3D5
100
AcDbEntity
  8
WALL
100
AcDbLine
370
50
 10
88200
 20
150
 30
0
 11
85800
 21
150
 31
0
  0
LINE
  5
3D6
100
AcDbEntity
  8
WALL
100
AcDbLine
370
50
 10
84600
 20
-150
 30
0
 11
84600
 21
150
 31
0
  0
LINE
  5
3D7
100
AcDbEntity
  8
WALL
100
AcDbLine
370
50
 10
85800
 20
-150
 30
0
 11
85800
 21
150
 31
0
  0
LINE
  5
3D8
100
AcDbEntity
  8
WALL
100
AcDbLine
370
50
 10
88200
 20
-150
 30
0
 11
90600
 21
-150
 31
0
  0
LINE
  5
3D9
100
AcDbEntity
  8
WALL
100
AcDbLine
370
50
 10
90600
 20
150
 30
0
 11
88200
 21
150
 31
0
  0
LINE
  5
3DA
100
AcDbEntity
  8
WALL
100
AcDbLine
370
50
 10
91800
 20
-150
 30
0
 11
94200
 21
-150
 31
0
  0
LINE
  5
3DB
100
AcDbEntity
  8
WALL
100
AcDbLine
370
50
 10
94200
 20
150
 30
0
 11
91800
 21
150
 31
0
  0
LINE
  5
3DC
100
AcDbEntity
  8
WALL
100
AcDbLine
370
50
 10
90600
 20
-150
 30
0
 11
90600
 21
150
 31
0
  0
LINE
  5
3DD
100
AcDbEntity
  8
WALL
100
AcDbLine
370
50
 10
91800
 20
-150
 30
0
 11
91800
 21
150
 31
0
  0
LINE
  5
3DE
100
AcDbEntity
  8
WALL
100
AcDbLine
370
50
 10
94200
 20
-150
 30
0
 11
96600
 21
-150
 31
0
  0
LINE
  5
3DF
100
AcDbEntity
  8
WALL
100
AcDbLine
370
50
 10
96600
 20
150
 30
0
 11
94200
 21
150
 31
0
  0
LINE
  5
3E0
100
AcDbEntity
  8
WALL
100
AcDbLine
370
50
 10
97800
 20
-150
 30
0
 11
100200
 21
-150
 31
0
  0
LINE
  5
3E1
100
AcDbEntity
  8
WALL
100
AcDbLine
370
50
 10
100200
 20
150
 30
0
 11
97800
 21
150
 31
0
  0
LINE
  5
3E2
100
AcDbEntity
  8
WALL
100
AcDbLine
370
50
 10
96600
 20
-150
 30
0
 11
96600
 21
150
 31
0
  0
LINE
  5
3E3
100
AcDbEntity
  8
WALL
100
AcDbLine
370
50
 10
97800
 20
-150
 30
0
 11
97800
 21
150
 31
0
  0
LINE
  5
3E4
100
AcDbEntity
  8
WALL
100
AcDbLine
370
50
 10
70200
 20
29850
 30
0
 11
72600
 21
29850
 31
0
  0
LINE
  5
3E5
100
AcDbEntity
  8
WALL
100
AcDbLine
370
50
 10
72600
 20
30150
 30
0
 11
70200
 21
30150
 31
0
  0
LINE
  5
3E6
100
AcDbEntity
  8
WALL
100
AcDbLine
370
50
 10
73800
 20
29850
 30
0
 11
76200
 21
29850
 31
0
  0
LINE
  5
3E7
100
AcDbEntity
  8
WALL
100
AcDbLine
370
50
 10
76200
 20
30150
 30
0
 11
73800
 21
30150
 31
0
  0
LINE
  5
3E8
100
AcDbEntity
  8
WALL
100
AcDbLine
370
50
 10
72600
 20
29850
 30
0
 11
72600
 21
30150
 31
0
  0
LINE
  5
3E9
100
AcDbEntity
  8
WALL
100
AcDbLine
370
50
 10
73800
 20
29850
 30
0
 11
73800
 21
30150
 31
0
  0
LINE
  5
3EA
100
AcDbEntity
  8
WALL
100
AcDbLine
370
50
 10
76200
 20
29850
 30
0
 11
78600
 21
29850
 31
0
  0
LINE
  5
3EB
100
AcDbEntity
  8
WALL
100
AcDbLine
370
50
 10
78600
 20
30150
 30
0
 11
76200
 21
30150
 31
0
  0
LINE
  5
3EC
100
AcDbEntity
  8
WALL
100
AcDbLine
370
50
 10
79800
 20
29850
 30
0
 11
82200
 21
29850
 31
0
  0
LINE
  5
3ED
100
AcDbEntity
  8
WALL
100
AcDbLine
370
50
 10
82200
 20
30150
 30
0
 11
79800
 21
30150
 31
0
  0
LINE
  5
3EE
100
AcDbEntity
  8
WALL
100
AcDbLine
370
50
 10
78600
 20
29850
 30
0
 11
78600
 21
30150
 31
0
  0
LINE
  5
3EF
100
AcDbEntity
  8
WALL
100
AcDbLine
370
50
 10
79800
 20
29850
 30
0
 11
79800
 21
30150
 31
0
  0
LINE
  5
3F0
100
AcDbEntity
  8
WALL
100
AcDbLine
370
50
 10
82200
 20
29850
 30
0
 11
84600
 21
29850
 31
0
  0
LINE
  5
3F1
100
AcDbEntity
  8
WALL
100
AcDbLine
370
50
 10
84600
 20
30150
 30
0
 11
82200
 21
30150
 31
0
  0
LINE
  5
3F2
100
AcDbEntity
  8
WALL
100
AcDbLine
370
50
 10
85800
 20
29850
 30
0
 11
88200
 21
29850
 31
0
  0
LINE
  5
3F3
100
AcDbEntity
  8
WALL
100
AcDbLine
370
50
 10
88200
 20
30150
 30
0
 11
85800
 21
30150
 31
0
  0
LINE
  5
3F4
100
AcDbEntity
  8
WALL
100
AcDbLine
370
50
 10
84600
 20
29850
 30
0
 11
84600
 21
30150
 31
0
  0
LINE
  5
3F5
100
AcDbEntity
  8
WALL
100
AcDbLine
370
50
 10
85800
 20
29850
 30
0
 11
85800
 21
30150
 31
0
  0
LINE
  5
3F6
100
AcDbEntity
  8
WALL
100
AcDbLine
370
50
 10
88200
 20
29850
 30
0
 11
90600
 21
29850
 31
0
  0
LINE
  5
3F7
100
AcDbEntity
  8
WALL
100
AcDbLine
370
50
 10
90600
 20
30150
 30
0
 11
88200
 21
30150
 31
0
  0
LINE
  5
3F8
100
AcDbEntity
  8
WALL
100
AcDbLine
370
50
 10
91800
 20
29850
 30
0
 11
94200
 21
29850
 31
0
  0
LINE
  5
3F9
100
AcDbEntity
  8
WALL
100
AcDbLine
370
50
 10
94200
 20
30150
 30
0
 11
91800
 21
30150
 31
0
  0
LINE
  5
3FA
100
AcDbEntity
  8
WALL
100
AcDbLine
370
50
 10
90600
 20
29850
 30
0
 11
90600
 21
30150
 31
0
  0
LINE
  5
3FB
100
AcDbEntity
  8
WALL
100
AcDbLine
370
50
 10
91800
 20
29850
 30
0
 11
91800
 21
30150
 31
0
  0
LINE
  5
3FC
100
AcDbEntity
  8
WALL
100
AcDbLine
370
50
 10
94200
 20
29850
 30
0
 11
96600
 21
29850
 31
0
  0
LINE
  5
3FD
100
AcDbEntity
  8
WALL
100
AcDbLine
370
50
 10
96600
 20
30150
 30
0
 11
94200
 21
30150
 31
0
  0
LINE
  5
3FE
100
AcDbEntity
  8
WALL
100
AcDbLine
370
50
 10
97800
 20
29850
 30
0
 11
100200
 21
29850
 31
0
  0
LINE
  5
3FF
100
AcDbEntity
  8
WALL
100
AcDbLine
370
50
 10
100200
 20
30150
 30
0
 11
97800
 21
30150
 31
0
  0
LINE
  5
400
100
AcDbEntity
  8
WALL
100
AcDbLine
370
50
 10
96600
 20
29850
 30
0
 11
96600
 21
30150
 31
0
  0
LINE
  5
401
100
AcDbEntity
  8
WALL
100
AcDbLine
370
50
 10
97800
 20
29850
 30
0
 11
97800
 21
30150
 31
0
  0
LINE
  5
402
100
AcDbEntity
  8
WALL
100
AcDbLine
370
50
 10
76125
 20
0
 30
0
 11
76125
 21
6000
 31
0
  0
LINE
  5
403
100
AcDbEntity
  8
WALL
100
AcDbLine
370
50
 10
76275
 20
6000
 30
0
 11
76275
 21
0
 31
0
  0
LINE
  5
404
100
AcDbEntity
  8
WALL
100
AcDbLine
370
50
 10
76125
 20
6000
 30
0
 11
76125
 21
8550
 31
0
  0
LINE
  5
405
100
AcDbEntity
  8
WALL
100
AcDbLine
370
50
 10
76275
 20
8550
 30
0
 11
76275
 21
6000
 31
0
  0
LINE
  5
406
100
AcDbEntity
  8
WALL
100
AcDbLine
370
50
 10
76125
 20
9450
 30
0
 11
76125
 21
12000
 31
0
  0
LINE
  5
407
100
AcDbEntity
  8
WALL
100
AcDbLine
370
50
 10
76275
 20
12000
 30
0
 11
76275
 21
9450
 31
0
  0
LINE
  5
408
100
AcDbEntity
  8
WALL
100
AcDbLine
370
50
 10
76125
 20
8550
 30
0
 11
76275
 21
8550
 31
0
  0
LINE
  5
409
100
AcDbEntity
  8
WALL
100
AcDbLine
370
50
 10
76125
 20
9450
 30
0
 11
76275
 21
9450
 31
0
  0
LINE
  5
40A
100
AcDbEntity
  8
WALL
100
AcDbLine
370
50
 10
76125
 20
12000
 30
0
 11
76125
 21
14550
 31
0
  0
LINE
  5
40B
100
AcDbEntity
  8
WALL
100
AcDbLine
370
50
 10
76275
 20
14550
 30
0
 11
76275
 21
12000
 31
0
  0
LINE
  5
40C
100
AcDbEntity
  8
WALL
100
AcDbLine
370
50
 10
76125
 20
15450
 30
0
 11
76125
 21
18000
 31
0
  0
LINE
  5
40D
100
AcDbEntity
  8
WALL
100
AcDbLine
370
50
 10
76275
 20
18000
 30
0
 11
76275
 21
15450
 31
0
  0
LINE
  5
40E
100
AcDbEntity
  8
WALL
100
AcDbLine
370
50
 10
76125
 20
14550
 30
0
 11
76275
 21
14550
 31
0
  0
LINE
  5
40F
100
AcDbEntity
  8
WALL
100
AcDbLine
370
50
 10
76125
 20
15450
 30
0
 11
76275
 21
15450
 31
0
  0
LINE
  5
410
100
AcDbEntity
  8
WALL
100
AcDbLine
370
50
 10
76125
 20
18000
 30
0
 11
76125
 21
20550
 31
0
  0
LINE
  5
411
100
AcDbEntity
  8
WALL
100
AcDbLine
370
50
 10
76275
 20
20550
 30
0
 11
76275
 21
18000
 31
0
  0
LINE
  5
412
100
AcDbEntity
  8
WALL
100
AcDbLine
370
50
 10
76125
 20
21450
 30
0
 11
76125
 21
24000
 31
0
  0
LINE
  5
413
100
AcDbEntity
  8
WALL
100
AcDbLine
370
50
 10
76275
 20
24000
 30
0
 11
76275
 21
21450
 31
0
  0
LINE
  5
414
100
AcDbEntity
  8
WALL
100
AcDbLine
370
50
 10
76125
 20
20550
 30
0
 11
76275
 21
20550
 31
0
  0
LINE
  5
415
100
AcDbEntity
  8
WALL
100
AcDbLine
370
50
 10
76125
 20
21450
 30
0
 11
76275
 21
21450
 31
0
  0
LINE
  5
416
100
AcDbEntity
  8
WALL
100
AcDbLine
370
50
 10
76125
 20
24000
 30
0
 11
76125
 21
26550
 31
0
  0
LINE
  5
417
100
AcDbEntity
  8
WALL
100
AcDbLine
370
50
 10
76275
 20
26550
 30
0
 11
76275
 21
24000
 31
0
  0
LINE
  5
418
100
AcDbEntity
  8
WALL
100
AcDbLine
370
50
 10
76125
 20
27450
 30
0
 11
76125
 21
30000
 31
0
  0
LINE
  5
419
100
AcDbEntity
  8
WALL
100
AcDbLine
370
50
 10
76275
 20
30000
 30
0
 11
76275
 21
27450
 31
0
  0
LINE
  5
41A
100
AcDbEntity
  8
WALL
100
AcDbLine
370
50
 10
76125
 20
26550
 30
0
 11
76275
 21
26550
 31
0
  0
LINE
  5
41B
100
AcDbEntity
  8
WALL
100
AcDbLine
370
50
 10
76125
 20
27450
 30
0
 11
76275
 21
27450
 31
0
  0
LINE
  5
41C
100
AcDbEntity
  8
WALL
100
AcDbLine
370
50
 10
82125
 20
0
 30
0
 11
82125
 21
2550
 31
0
  0
LINE
  5
41D
100
AcDbEntity
  8
WALL
100
AcDbLine
370
50
 10
82275
 20
2550
 30
0
 11
82275
 21
0
 31
0
  0
LINE
  5
41E
100
AcDbEntity
  8
WALL
100
AcDbLine
370
50
 10
82125
 20
3450
 30
0
 11
82125
 21
6000
 31
0
  0
LINE
  5
41F
100
AcDbEntity
  8
WALL
100
AcDbLine
370
50
 10
82275
 20
6000
 30
0
 11
82275
 21
3450
 31
0
  0
LINE
  5
420
100
AcDbEntity
  8
WALL
100
AcDbLine
370
50
 10
82125
 20
2550
 30
0
 11
82275
 21
2550
 31
0
  0
LINE
  5
421
100
AcDbEntity
  8
WALL
100
AcDbLine
370
50
 10
82125
 20
3450
 30
0
 11
82275
 21
3450
 31
0
  0
LINE
  5
422
100
AcDbEntity
  8
WALL
100
AcDbLine
370
50
 10
82125
 20
6000
 30
0
 11
82125
 21
8550
 31
0
  0
LINE
  5
423
100
AcDbEntity
  8
WALL
100
AcDbLine
370
50
 10
82275
 20
8550
 30
0
 11
82275
 21
6000
 31
0
  0
LINE
  5
424
100
AcDbEntity
  8
WALL
100
AcDbLine
370
50
 10
82125
 20
9450
 30
0
 11
82125
 21
12000
 31
0
  0
LINE
  5
425
100
AcDbEntity
  8
WALL
100
AcDbLine
370
50
 10
82275
 20
12000
 30
0
 11
82275
 21
9450
 31
0
  0
LINE
  5
426
100
AcDbEntity
  8
WALL
100
AcDbLine
370
50
 10
82125
 20
8550
 30
0
 11
82275
 21
8550
 31
0
  0
LINE
  5
427
100
AcDbEntity
  8
WALL
100
AcDbLine
370
50
 10
82125
 20
9450
 30
0
 11
82275
 21
9450
 31
0
  0
LINE
  5
428
100
AcDbEntity
  8
WALL
100
AcDbLine
370
50
 10
82125
 20
12000
 30
0
 11
82125
 21
18000
 31
0
  0
LINE
  5
429
100
AcDbEntity
  8
WALL
100
AcDbLine
370
50
 10
82275
 20
18000
 30
0
 11
82275
 21
12000
 31
0
  0
LINE
  5
42A
100
AcDbEntity
  8
WALL
100
AcDbLine
370
50
 10
82125
 20
18000
 30
0
 11
82125
 21
20550
 31
0
  0
LINE
  5
42B
100
AcDbEntity
  8
WALL
100
AcDbLine
370
50
 10
82275
 20
20550
 30
0
 11
82275
 21
18000
 31
0
  0
LINE
  5
42C
100
AcDbEntity
  8
WALL
100
AcDbLine
370
50
 10
82125
 20
21450
 30
0
 11
82125
 21
24000
 31
0
  0
LINE
  5
42D
100
AcDbEntity
  8
WALL
100
AcDbLine
370
50
 10
82275
 20
24000
 30
0
 11
82275
 21
21450
 31
0
  0
LINE
  5
42E
100
AcDbEntity
  8
WALL
100
AcDbLine
370
50
 10
82125
 20
20550
 30
0
 11
82275
 21
20550
 31
0
  0
LINE
  5
42F
100
AcDbEntity
  8
WALL
100
AcDbLine
370
50
 10
82125
 20
21450
 30
0
 11
82275
 21
21450
 31
0
  0
LINE
  5
430
100
AcDbEntity
  8
WALL
100
AcDbLine
370
50
 10
82125
 20
24000
 30
0
 11
82125
 21
26550
 31
0
  0
LINE
  5
431
100
AcDbEntity
  8
WALL
100
AcDbLine
370
50
 10
82275
 20
26550
 30
0
 11
82275
 21
24000
 31
0
  0
LINE
  5
432
100
AcDbEntity
  8
WALL
100
AcDbLine
370
50
 10
82125
 20
27450
 30
0
 11
82125
 21
30000
 31
0
  0
LINE
  5
433
100
AcDbEntity
  8
WALL
100
AcDbLine
370
50
 10
82275
 20
30000
 30
0
 11
82275
 21
27450
 31
0
  0
LINE
  5
434
100
AcDbEntity
  8
WALL
100
AcDbLine
370
50
 10
82125
 20
26550
 30
0
 11
82275
 21
26550
 31
0
  0
LINE
  5
435
100
AcDbEntity
  8
WALL
100
AcDbLine
370
50
 10
82125
 20
27450
 30
0
 11
82275
 21
27450
 31
0
  0
LINE
  5
436
100
AcDbEntity
  8
WALL
100
AcDbLine
370
50
 10
88125
 20
0
 30
0
 11
88125
 21
2550
 31
0
  0
LINE
  5
437
100
AcDbEntity
  8
WALL
100
AcDbLine
370
50
 10
88275
 20
2550
 30
0
 11
88275
 21
0
 31
0
  0
LINE
  5
438
100
AcDbEntity
  8
WALL
100
AcDbLine
370
50
 10
88125
 20
3450
 30
0
 11
88125
 21
6000
 31
0
  0
LINE
  5
439
100
AcDbEntity
  8
WALL
100
AcDbLine
370
50
 10
88275
 20
6000
 30
0
 11
88275
 21
3450
 31
0
  0
LINE
  5
43A
100
AcDbEntity
  8
WALL
100
AcDbLine
370
50
 10
88125
 20
2550
 30
0
 11
88275
 21
2550
 31
0
  0
LINE
  5
43B
100
AcDbEntity
  8
WALL
100
AcDbLine
370
50
 10
88125
 20
3450
 30
0
 11
88275
 21
3450
 31
0
  0
LINE
  5
43C
100
AcDbEntity
  8
WALL
100
AcDbLine
370
50
 10
88125
 20
6000
 30
0
 11
88125
 21
8550
 31
0
  0
LINE
  5
43D
100
AcDbEntity
  8
WALL
100
AcDbLine
370
50
 10
88275
 20
8550
 30
0
 11
88275
 21
6000
 31
0
  0
LINE
  5
43E
100
AcDbEntity
  8
WALL
100
AcDbLine
370
50
 10
88125
 20
9450
 30
0
 11
88125
 21
12000
 31
0
  0
LINE
  5
43F
100
AcDbEntity
  8
WALL
100
AcDbLine
370
50
 10
88275
 20
12000
 30
0
 11
88275
 21
9450
 31
0
  0
LINE
  5
440
100
AcDbEntity
  8
WALL
100
AcDbLine
370
50
 10
88125
 20
8550
 30
0
 11
88275
 21
8550
 31
0
  0
LINE
  5
441
100
AcDbEntity
  8
WALL
100
AcDbLine
370
50
 10
88125
 20
9450
 30
0
 11
88275
 21
9450
 31
0
  0
LINE
  5
442
100
AcDbEntity
  8
WALL
100
AcDbLine
370
50
 10
88125
 20
12000
 30
0
 11
88125
 21
14550
 31
0
  0
LINE
  5
443
100
AcDbEntity
  8
WALL
100
AcDbLine
370
50
 10
88275
 20
14550
 30
0
 11
88275
 21
12000
 31
0
  0
LINE
  5
444
100
AcDbEntity
  8
WALL
100
AcDbLine
370
50
 10
88125
 20
15450
 30
0
 11
88125
 21
18000
 31
0
  0
LINE
  5
445
100
AcDbEntity
  8
WALL
100
AcDbLine
370
50
 10
88275
 20
18000
 30
0
 11
88275
 21
15450
 31
0
  0
LINE
  5
446
100
AcDbEntity
  8
WALL
100
AcDbLine
370
50
 10
88125
 20
14550
 30
0
 11
88275
 21
14550
 31
0
  0
LINE
  5
447
100
AcDbEntity
  8
WALL
100
AcDbLine
370
50
 10
88125
 20
15450
 30
0
 11
88275
 21
15450
 31
0
  0
LINE
  5
448
100
AcDbEntity
  8
WALL
100
AcDbLine
370
50
 10
88125
 20
18000
 30
0
 11
88125
 21
20550
 31
0
  0
LINE
  5
449
100
AcDbEntity
  8
WALL
100
AcDbLine
370
50
 10
88275
 20
20550
 30
0
 11
88275
 21
18000
 31
0
  0
LINE
  5
44A
100
AcDbEntity
  8
WALL
100
AcDbLine
370
50
 10
88125
 20
21450
 30
0
 11
88125
 21
24000
 31
0
  0
LINE
  5
44B
100
AcDbEntity
  8
WALL
100
AcDbLine
370
50
 10
88275
 20
24000
 30
0
 11
88275
 21
21450
 31
0
  0
LINE
  5
44C
100
AcDbEntity
  8
WALL
100
AcDbLine
370
50
 10
88125
 20
20550
 30
0
 11
88275
 21
20550
 31
0
  0
LINE
  5
44D
100
AcDbEntity
  8
WALL
100
AcDbLine
370
50
 10
88125
 20
21450
 30
0
 11
88275
 21
21450
 31
0
  0
LINE
  5
44E
100
AcDbEntity
  8
WALL
100
AcDbLine
370
50
 10
88125
 20
24000
 30
0
 11
88125
 21
26550
 31
0
  0
LINE
  5
44F
100
AcDbEntity
  8
WALL
100
AcDbLine
370
50
 10
88275
 20
26550
 30
0
 11
88275
 21
24000
 31
0
  0
LINE
  5
450
100
AcDbEntity
  8
WALL
100
AcDbLine
370
50
 10
88125
 20
27450
 30
0
 11
88125
 21
30000
 31
0
  0
LINE
  5
451
100
AcDbEntity
  8
WALL
100
AcDbLine
370
50
 10
88275
 20
30000
 30
0
 11
88275
 21
27450
 31
0
  0
LINE
  5
452
100
AcDbEntity
  8
WALL
100
AcDbLine
370
50
 10
88125
 20
26550
 30
0
 11
88275
 21
26550
 31
0
  0
LINE
  5
453
100
AcDbEntity
  8
WALL
100
AcDbLine
370
50
 10
88125
 20
27450
 30
0
 11
88275
 21
27450
 31
0
  0
LINE
  5
454
100
AcDbEntity
  8
WALL
100
AcDbLine
370
50
 10
94125
 20
0
 30
0
 11
94125
 21
2550
 31
0
  0
LINE
  5
455
100
AcDbEntity
  8
WALL
100
AcDbLine
370
50
 10
94275
 20
2550
 30
0
 11
94275
 21
0
 31
0
  0
LINE
  5
456
100
AcDbEntity
  8
WALL
100
AcDbLine
370
50
 10
94125
 20
3450
 30
0
 11
94125
 21
6000
 31
0
  0
LINE
  5
457
100
AcDbEntity
  8
WALL
100
AcDbLine
370
50
 10
94275
 20
6000
 30
0
 11
94275
 21
3450
 31
0
  0
LINE
  5
458
100
AcDbEntity
  8
WALL
100
AcDbLine
370
50
 10
94125
 20
2550
 30
0
 11
94275
 21
2550
 31
0
  0
LINE
  5
459
100
AcDbEntity
  8
WALL
100
AcDbLine
370
50
 10
94125
 20
3450
 30
0
 11
94275
 21
3450
 31
0
  0
LINE
  5
45A
100
AcDbEntity
  8
WALL
100
AcDbLine
370
50
 10
94125
 20
6000
 30
0
 11
94125
 21
8550
 31
0
  0
LINE
  5
45B
100
AcDbEntity
  8
WALL
100
AcDbLine
370
50
 10
94275
 20
8550
 30
0
 11
94275
 21
6000
 31
0
  0
LINE
  5
45C
100
AcDbEntity
  8
WALL
100
AcDbLine
370
50
 10
94125
 20
9450
 30
0
 11
94125
 21
12000
 31
0
  0
LINE
  5
45D
100
AcDbEntity
  8
WALL
100
AcDbLine
370
50
 10
94275
 20
12000
 30
0
 11
94275
 21
9450
 31
0
  0
LINE
  5
45E
100
AcDbEntity
  8
WALL
100
AcDbLine
370
50
 10
94125
 20
8550
 30
0
 11
94275
 21
8550
 31
0
  0
LINE
  5
45F
100
AcDbEntity
  8
WALL
100
AcDbLine
370
50
 10
94125
 20
9450
 30
0
 11
94275
 21
9450
 31
0
  0
LINE
  5
460
100
AcDbEntity
  8
WALL
100
AcDbLine
370
50
 10
94125
 20
12000
 30
0
 11
94125
 21
14550
 31
0
  0
LINE
  5
461
100
AcDbEntity
  8
WALL
100
AcDbLine
370
50
 10
94275
 20
14550
 30
0
 11
94275
 21
12000
 31
0
  0
LINE
  5
462
100
AcDbEntity
  8
WALL
100
AcDbLine
370
50
 10
94125
 20
15450
 30
0
 11
94125
 21
18000
 31
0
  0
LINE
  5
463
100
AcDbEntity
  8
WALL
100
AcDbLine
370
50
 10
94275
 20
18000
 30
0
 11
94275
 21
15450
 31
0
  0
LINE
  5
464
100
AcDbEntity
  8
WALL
100
AcDbLine
370
50
 10
94125
 20
14550
 30
0
 11
94275
 21
14550
 31
0
  0
LINE
  5
465
100
AcDbEntity
  8
WALL
100
AcDbLine
370
50
 10
94125
 20
15450
 30
0
 11
94275
 21
15450
 31
0
  0
LINE
  5
466
100
AcDbEntity
  8
WALL
100
AcDbLine
370
50
 10
94125
 20
18000
 30
0
 11
94125
 21
20550
 31
0
  0
LINE
  5
467
100
AcDbEntity
  8
WALL
100
AcDbLine
370
50
 10
94275
 20
20550
 30
0
 11
94275
 21
18000
 31
0
  0
LINE
  5
468
100
AcDbEntity
  8
WALL
100
AcDbLine
370
50
 10
94125
 20
21450
 30
0
 11
94125
 21
24000
 31
0
  0
LINE
  5
469
100
AcDbEntity
  8
WALL
100
AcDbLine
370
50
 10
94275
 20
24000
 30
0
 11
94275
 21
21450
 31
0
  0
LINE
  5
46A
100
AcDbEntity
  8
WALL
100
AcDbLine
370
50
 10
94125
 20
20550
 30
0
 11
94275
 21
20550
 31
0
  0
LINE
  5
46B
100
AcDbEntity
  8
WALL
100
AcDbLine
370
50
 10
94125
 20
21450
 30
0
 11
94275
 21
21450
 31
0
  0
LINE
  5
46C
100
AcDbEntity
  8
WALL
100
AcDbLine
370
50
 10
94125
 20
24000
 30
0
 11
94125
 21
30000
 31
0
  0
LINE
  5
46D
100
AcDbEntity
  8
WALL
100
AcDbLine
370
50
 10
94275
 20
30000
 30
0
 11
94275
 21
24000
 31
0
  0
LINE
  5
46E
100
AcDbEntity
  8
WALL
100
AcDbLine
370
50
 10
70200
 20
5925
 30
0
 11
72750
 21
5925
 31
0
  0
LINE
  5
46F
100
AcDbEntity
  8
WALL
100
AcDbLine
370
50
 10
72750
 20
6075
 30
0
 11
70200
 21
6075
 31
0
  0
LINE
  5
470
100
AcDbEntity
  8
WALL
100
AcDbLine
370
50
 10
73650
 20
5925
 30
0
 11
76200
 21
5925
 31
0
  0
LINE
  5
471
100
AcDbEntity
  8
WALL
100
AcDbLine
370
50
 10
76200
 20
6075
 30
0
 11
73650
 21
6075
 31
0
  0
LINE
  5
472
100
AcDbEntity
  8
WALL
100
AcDbLine
370
50
 10
72750
 20
5925
 30
0
 11
72750
 21
6075
 31
0
  0
LINE
  5
473
100
AcDbEntity
  8
WALL
100
AcDbLine
370
50
 10
73650
 20
5925
 30
0
 11
73650
 21
6075
 31
0
  0
LINE
  5
474
100
AcDbEntity
  8
WALL
100
AcDbLine
370
50
 10
76200
 20
5925
 30
0
 11
78750
 21
5925
 31
0
  0
LINE
  5
475
100
AcDbEntity
  8
WALL
100
AcDbLine
370
50
 10
78750
 20
6075
 30
0
 11
76200
 21
6075
 31
0
  0
LINE
  5
476
100
AcDbEntity
  8
WALL
100
AcDbLine
370
50
 10
79650
 20
5925
 30
0
 11
82200
 21
5925
 31
0
  0
LINE
  5
477
100
AcDbEntity
  8
WALL
100
AcDbLine
370
50
 10
82200
 20
6075
 30
0
 11
79650
 21
6075
 31
0
  0
LINE
  5
478
100
AcDbEntity
  8
WALL
100
AcDbLine
370
50
 10
78750
 20
5925
 30
0
 11
78750
 21
6075
 31
0
  0
LINE
  5
479
100
AcDbEntity
  8
WALL
100
AcDbLine
370
50
 10
79650
 20
5925
 30
0
 11
79650
 21
6075
 31
0
  0
LINE
  5
47A
100
AcDbEntity
  8
WALL
100
AcDbLine
370
50
 10
82200
 20
5925
 30
0
 11
84750
 21
5925
 31
0
  0
LINE
  5
47B
100
AcDbEntity
  8
WALL
100
AcDbLine
370
50
 10
84750
 20
6075
 30
0
 11
82200
 21
6075
 31
0
  0
LINE
  5
47C
100
AcDbEntity
  8
WALL
100
AcDbLine
370
50
 10
85650
 20
5925
 30
0
 11
88200
 21
5925
 31
0
  0
LINE
  5
47D
100
AcDbEntity
  8
WALL
100
AcDbLine
370
50
 10
88200
 20
6075
 30
0
 11
85650
 21
6075
 31
0
  0
LINE
  5
47E
100
AcDbEntity
  8
WALL
100
AcDbLine
370
50
 10
84750
 20
5925
 30
0
 11
84750
 21
6075
 31
0
  0
LINE
  5
47F
100
AcDbEntity
  8
WALL
100
AcDbLine
370
50
 10
85650
 20
5925
 30
0
 11
85650
 21
6075
 31
0
  0
LINE
  5
480
100
AcDbEntity
  8
WALL
100
AcDbLine
370
50
 10
88200
 20
5925
 30
0
 11
90750
 21
5925
 31
0
  0
LINE
  5
481
100
AcDbEntity
  8
WALL
100
AcDbLine
370
50
 10
90750
 20
6075
 30
0
 11
88200
 21
6075
 31
0
  0
LINE
  5
482
100
AcDbEntity
  8
WALL
100
AcDbLine
370
50
 10
91650
 20
5925
 30
0
 11
94200
 21
5925
 31
0
  0
LINE
  5
483
100
AcDbEntity
  8
WALL
100
AcDbLine
370
50
 10
94200
 20
6075
 30
0
 11
91650
 21
6075
 31
0
  0
LINE
  5
484
100
AcDbEntity
  8
WALL
100
AcDbLine
370
50
 10
90750
 20
5925
 30
0
 11
90750
 21
6075
 31
0
  0
LINE
  5
485
100
AcDbEntity
  8
WALL
100
AcDbLine
370
50
 10
91650
 20
5925
 30
0
 11
91650
 21
6075
 31
0
  0
LINE
  5
486
100
AcDbEntity
  8
WALL
100
AcDbLine
370
50
 10
94200
 20
5925
 30
0
 11
100200
 21
5925
 31
0
  0
LINE
  5
487
100
AcDbEntity
  8
WALL
100
AcDbLine
370
50
 10
100200
 20
6075
 30
0
 11
94200
 21
6075
 31
0
  0
LINE
  5
488
100
AcDbEntity
  8
WALL
100
AcDbLine
370
50
 10
70200
 20
11925
 30
0
 11
72750
 21
11925
 31
0
  0
LINE
  5
489
100
AcDbEntity
  8
WALL
100
AcDbLine
370
50
 10
72750
 20
12075
 30
0
 11
70200
 21
12075
 31
0
  0
LINE
  5
48A
100
AcDbEntity
  8
WALL
100
AcDbLine
370
50
 10
73650
 20
11925
 30
0
 11
76200
 21
11925
 31
0
  0
LINE
  5
48B
100
AcDbEntity
  8
WALL
100
AcDbLine
370
50
 10
76200
 20
12075
 30
0
 11
73650
 21
12075
 31
0
  0
LINE
  5
48C
100
AcDbEntity
  8
WALL
100
AcDbLine
370
50
 10
72750
 20
11925
 30
0
 11
72750
 21
12075
 31
0
  0
LINE
  5
48D
100
AcDbEntity
  8
WALL
100
AcDbLine
370
50
 10
73650
 20
11925
 30
0
 11
73650
 21
12075
 31
0
  0
LINE
  5
48E
100
AcDbEntity
  8
WALL
100
AcDbLine
370
50
 10
76200
 20
11925
 30
0
 11
78750
 21
11925
 31
0
  0
LINE
  5
48F
100
AcDbEntity
  8
WALL
100
AcDbLine
370
50
 10
78750
 20
12075
 30
0
 11
76200
 21
12075
 31
0
  0
LINE
  5
490
100
AcDbEntity
  8
WALL
100
AcDbLine
370
50
 10
79650
 20
11925
 30
0
 11
82200
 21
11925
 31
0
  0
LINE
  5
491
100
AcDbEntity
  8
WALL
100
AcDbLine
370
50
 10
82200
 20
12075
 30
0
 11
79650
 21
12075
 31
0
  0
LINE
  5
492
100
AcDbEntity
  8
WALL
100
AcDbLine
370
50
 10
78750
 20
11925
 30
0
 11
78750
 21
12075
 31
0
  0
LINE
  5
493
100
AcDbEntity
  8
WALL
100
AcDbLine
370
50
 10
79650
 20
11925
 30
0
 11
79650
 21
12075
 31
0
  0
LINE
  5
494
100
AcDbEntity
  8
WALL
100
AcDbLine
370
50
 10
82200
 20
11925
 30
0
 11
84750
 21
11925
 31
0
  0
LINE
  5
495
100
AcDbEntity
  8
WALL
100
AcDbLine
370
50
 10
84750
 20
12075
 30
0
 11
82200
 21
12075
 31
0
  0
LINE
  5
496
100
AcDbEntity
  8
WALL
100
AcDbLine
370
50
 10
85650
 20
11925
 30
0
 11
88200
 21
11925
 31
0
  0
LINE
  5
497
100
AcDbEntity
  8
WALL
100
AcDbLine
370
50
 10
88200
 20
12075
 30
0
 11
85650
 21
12075
 31
0
  0
LINE
  5
498
100
AcDbEntity
  8
WALL
100
AcDbLine
370
50
 10
84750
 20
11925
 30
0
 11
84750
 21
12075
 31
0
  0
LINE
  5
499
100
AcDbEntity
  8
WALL
100
AcDbLine
370
50
 10
85650
 20
11925
 30
0
 11
85650
 21
12075
 31
0
  0
LINE
  5
49A
100
AcDbEntity
  8
WALL
100
AcDbLine
370
50
 10
88200
 20
11925
 30
0
 11
90750
 21
11925
 31
0
  0
LINE
  5
49B
100
AcDbEntity
  8
WALL
100
AcDbLine
370
50
 10
90750
 20
12075
 30
0
 11
88200
 21
12075
 31
0
  0
LINE
  5
49C
100
AcDbEntity
  8
WALL
100
AcDbLine
370
50
 10
91650
 20
11925
 30
0
 11
94200
 21
11925
 31
0
  0
LINE
  5
49D
100
AcDbEntity
  8
WALL
100
AcDbLine
370
50
 10
94200
 20
12075
 30
0
 11
91650
 21
12075
 31
0
  0
LINE
  5
49E
100
AcDbEntity
  8
WALL
100
AcDbLine
370
50
 10
90750
 20
11925
 30
0
 11
90750
 21
12075
 31
0
  0
LINE
  5
49F
100
AcDbEntity
  8
WALL
100
AcDbLine
370
50
 10
91650
 20
11925
 30
0
 11
91650
 21
12075
 31
0
  0
LINE
  5
4A0
100
AcDbEntity
  8
WALL
100
AcDbLine
370
50
 10
94200
 20
11925
 30
0
 11
96750
 21
11925
 31
0
  0
LINE
  5
4A1
100
AcDbEntity
  8
WALL
100
AcDbLine
370
50
 10
96750
 20
12075
 30
0
 11
94200
 21
12075
 31
0
  0
LINE
  5
4A2
100
AcDbEntity
  8
WALL
100
AcDbLine
370
50
 10
97650
 20
11925
 30
0
 11
100200
 21
11925
 31
0
  0
LINE
  5
4A3
100
AcDbEntity
  8
WALL
100
AcDbLine
370
50
 10
100200
 20
12075
 30
0
 11
97650
 21
12075
 31
0
  0
LINE
  5
4A4
100
AcDbEntity
  8
WALL
100
AcDbLine
370
50
 10
96750
 20
11925
 30
0
 11
96750
 21
12075
 31
0
  0
LINE
  5
4A5
100
AcDbEntity
  8
WALL
100
AcDbLine
370
50
 10
97650
 20
11925
 30
0
 11
97650
 21
12075
 31
0
  0
LINE
  5
4A6
100
AcDbEntity
  8
WALL
100
AcDbLine
370
50
 10
70200
 20
17925
 30
0
 11
72750
 21
17925
 31
0
  0
LINE
  5
4A7
100
AcDbEntity
  8
WALL
100
AcDbLine
370
50
 10
72750
 20
18075
 30
0
 11
70200
 21
18075
 31
0
  0
LINE
  5
4A8
100
AcDbEntity
  8
WALL
100
AcDbLine
370
50
 10
73650
 20
17925
 30
0
 11
76200
 21
17925
 31
0
  0
LINE
  5
4A9
100
AcDbEntity
  8
WALL
100
AcDbLine
370
50
 10
76200
 20
18075
 30
0
 11
73650
 21
18075
 31
0
  0
LINE
  5
4AA
100
AcDbEntity
  8
WALL
100
AcDbLine
370
50
 10
72750
 20
17925
 30
0
 11
72750
 21
18075
 31
0
  0
LINE
  5
4AB
100
AcDbEntity
  8
WALL
100
AcDbLine
370
50
 10
73650
 20
17925
 30
0
 11
73650
 21
18075
 31
0
  0
LINE
  5
4AC
100
AcDbEntity
  8
WALL
100
AcDbLine
370
50
 10
76200
 20
17925
 30
0
 11
78750
 21
17925
 31
0
  0
LINE
  5
4AD
100
AcDbEntity
  8
WALL
100
AcDbLine
370
50
 10
78750
 20
18075
 30
0
 11
76200
 21
18075
 31
0
  0
LINE
  5
4AE
100
AcDbEntity
  8
WALL
100
AcDbLine
370
50
 10
79650
 20
17925
 30
0
 11
82200
 21
17925
 31
0
  0
LINE
  5
4AF
100
AcDbEntity
  8
WALL
100
AcDbLine
370
50
 10
82200
 20
18075
 30
0
 11
79650
 21
18075
 31
0
  0
LINE
  5
4B0
100
AcDbEntity
  8
WALL
100
AcDbLine
370
50
 10
78750
 20
17925
 30
0
 11
78750
 21
18075
 31
0
  0
LINE
  5
4B1
100
AcDbEntity
  8
WALL
100
AcDbLine
370
50
 10
79650
 20
17925
 30
0
 11
79650
 21
18075
 31
0
  0
LINE
  5
4B2
100
AcDbEntity
  8
WALL
100
AcDbLine
370
50
 10
82200
 20
17925
 30
0
 11
84750
 21
17925
 31
0
  0
LINE
  5
4B3
100
AcDbEntity
  8
WALL
100
AcDbLine
370
50
 10
84750
 20
18075
 30
0
 11
82200
 21
18075
 31
0
  0
LINE
  5
4B4
100
AcDbEntity
  8
WALL
100
AcDbLine
370
50
 10
85650
 20
17925
 30
0
 11
88200
 21
17925
 31
0
  0
LINE
  5
4B5
100
AcDbEntity
  8
WALL
100
AcDbLine
370
50
 10
88200
 20
18075
 30
0
 11
85650
 21
18075
 31
0
  0
LINE
  5
4B6
100
AcDbEntity
  8
WALL
100
AcDbLine
370
50
 10
84750
 20
17925
 30
0
 11
84750
 21
18075
 31
0
  0
LINE
  5
4B7
100
AcDbEntity
  8
WALL
100
AcDbLine
370
50
 10
85650
 20
17925
 30
0
 11
85650
 21
18075
 31
0
  0
LINE
  5
4B8
100
AcDbEntity
  8
WALL
100
AcDbLine
370
50
 10
88200
 20
17925
 30
0
 11
90750
 21
17925
 31
0
  0
LINE
  5
4B9
100
AcDbEntity
  8
WALL
100
AcDbLine
370
50
 10
90750
 20
18075
 30
0
 11
88200
 21
18075
 31
0
  0
LINE
  5
4BA
100
AcDbEntity
  8
WALL
100
AcDbLine
370
50
 10
91650
 20
17925
 30
0
 11
94200
 21
17925
 31
0
  0
LINE
  5
4BB
100
AcDbEntity
  8
WALL
100
AcDbLine
370
50
 10
94200
 20
18075
 30
0
 11
91650
 21
18075
 31
0
  0
LINE
  5
4BC
100
AcDbEntity
  8
WALL
100
AcDbLine
370
50
 10
90750
 20
17925
 30
0
 11
90750
 21
18075
 31
0
  0
LINE
  5
4BD
100
AcDbEntity
  8
WALL
100
AcDbLine
370
50
 10
91650
 20
17925
 30
0
 11
91650
 21
18075
 31
0
  0
LINE
  5
4BE
100
AcDbEntity
  8
WALL
100
AcDbLine
370
50
 10
94200
 20
17925
 30
0
 11
96750
 21
17925
 31
0
  0
LINE
  5
4BF
100
AcDbEntity
  8
WALL
100
AcDbLine
370
50
 10
96750
 20
18075
 30
0
 11
94200
 21
18075
 31
0
  0
LINE
  5
4C0
100
AcDbEntity
  8
WALL
100
AcDbLine
370
50
 10
97650
 20
17925
 30
0
 11
100200
 21
17925
 31
0
  0
LINE
  5
4C1
100
AcDbEntity
  8
WALL
100
AcDbLine
370
50
 10
100200
 20
18075
 30
0
 11
97650
 21
18075
 31
0
  0
LINE
  5
4C2
100
AcDbEntity
  8
WALL
100
AcDbLine
370
50
 10
96750
 20
17925
 30
0
 11
96750
 21
18075
 31
0
  0
LINE
  5
4C3
100
AcDbEntity
  8
WALL
100
AcDbLine
370
50
 10
97650
 20
17925
 30
0
 11
97650
 21
18075
 31
0
  0
LINE
  5
4C4
100
AcDbEntity
  8
WALL
100
AcDbLine
370
50
 10
70200
 20
23925
 30
0
 11
76200
 21
23925
 31
0
  0
LINE
  5
4C5
100
AcDbEntity
  8
WALL
100
AcDbLine
370
50
 10
76200
 20
24075
 30
0
 11
70200
 21
24075
 31
0
  0
LINE
  5
4C6
100
AcDbEntity
  8
WALL
100
AcDbLine
370
50
 10
76200
 20
23925
 30
0
 11
78750
 21
23925
 31
0
  0
LINE
  5
4C7
100
AcDbEntity
  8
WALL
100
AcDbLine
370
50
 10
78750
 20
24075
 30
0
 11
76200
 21
24075
 31
0
  0
LINE
  5
4C8
100
AcDbEntity
  8
WALL
100
AcDbLine
370
50
 10
79650
 20
23925
 30
0
 11
82200
 21
23925
 31
0
  0
LINE
  5
4C9
100
AcDbEntity
  8
WALL
100
AcDbLine
370
50
 10
82200
 20
24075
 30
0
 11
79650
 21
24075
 31
0
  0
LINE
  5
4CA
100
AcDbEntity
  8
WALL
100
AcDbLine
370
50
 10
78750
 20
23925
 30
0
 11
78750
 21
24075
 31
0
  0
LINE
  5
4CB
100
AcDbEntity
  8
WALL
100
AcDbLine
370
50
 10
79650
 20
23925
 30
0
 11
79650
 21
24075
 31
0
  0
LINE
  5
4CC
100
AcDbEntity
  8
WALL
100
AcDbLine
370
50
 10
82200
 20
23925
 30
0
 11
84750
 21
23925
 31
0
  0
LINE
  5
4CD
100
AcDbEntity
  8
WALL
100
AcDbLine
370
50
 10
84750
 20
24075
 30
0
 11
82200
 21
24075
 31
0
  0
LINE
  5
4CE
100
AcDbEntity
  8
WALL
100
AcDbLine
370
50
 10
85650
 20
23925
 30
0
 11
88200
 21
23925
 31
0
  0
LINE
  5
4CF
100
AcDbEntity
  8
WALL
100
AcDbLine
370
50
 10
88200
 20
24075
 30
0
 11
85650
 21
24075
 31
0
  0
LINE
  5
4D0
100
AcDbEntity
  8
WALL
100
AcDbLine
370
50
 10
84750
 20
23925
 30
0
 11
84750
 21
24075
 31
0
  0
LINE
  5
4D1
100
AcDbEntity
  8
WALL
100
AcDbLine
370
50
 10
85650
 20
23925
 30
0
 11
85650
 21
24075
 31
0
  0
LINE
  5
4D2
100
AcDbEntity
  8
WALL
100
AcDbLine
370
50
 10
88200
 20
23925
 30
0
 11
90750
 21
23925
 31
0
  0
LINE
  5
4D3
100
AcDbEntity
  8
WALL
100
AcDbLine
370
50
 10
90750
 20
24075
 30
0
 11
88200
 21
24075
 31
0
  0
LINE
  5
4D4
100
AcDbEntity
  8
WALL
100
AcDbLine
370
50
 10
91650
 20
23925
 30
0
 11
94200
 21
23925
 31
0
  0
LINE
  5
4D5
100
AcDbEntity
  8
WALL
100
AcDbLine
370
50
 10
94200
 20
24075
 30
0
 11
91650
 21
24075
 31
0
  0
LINE
  5
4D6
100
AcDbEntity
  8
WALL
100
AcDbLine
370
50
 10
90750
 20
23925
 30
0
 11
90750
 21
24075
 31
0
  0
LINE
  5
4D7
100
AcDbEntity
  8
WALL
100
AcDbLine
370
50
 10
91650
 20
23925
 30
0
 11
91650
 21
24075
 31
0
  0
LINE
  5
4D8
100
AcDbEntity
  8
WALL
100
AcDbLine
370
50
 10
94200
 20
23925
 30
0
 11
96750
 21
23925
 31
0
  0
LINE
  5
4D9
100
AcDbEntity
  8
WALL
100
AcDbLine
370
50
 10
96750
 20
24075
 30
0
 11
94200
 21
24075
 31
0
  0
LINE
  5
4DA
100
AcDbEntity
  8
WALL
100
AcDbLine
370
50
 10
97650
 20
23925
 30
0
 11
100200
 21
23925
 31
0
  0
LINE
  5
4DB
100
AcDbEntity
  8
WALL
100
AcDbLine
370
50
 10
100200
 20
24075
 30
0
 11
97650
 21
24075
 31
0
  0
LINE
  5
4DC
100
AcDbEntity
  8
WALL
100
AcDbLine
370
50
 10
96750
 20
23925
 30
0
 11
96750
 21
24075
 31
0
  0
LINE
  5
4DD
100
AcDbEntity
  8
WALL
100
AcDbLine
370
50
 10
97650
 20
23925
 30
0
 11
97650
 21
24075
 31
0
  0
LWPOLYLINE
  5
4DE
100
AcDbEntity
  8
COLUMN
100
AcDbPolyline
 90
4
 70
1
 10
70085
 20
-115
 10
70315
 20
-115
 10
70315
 20
115
 10
70085
 20
115
  0
LWPOLYLINE
  5
4DF
100
AcDbEntity
  8
COLUMN
100
AcDbPolyline
 90
4
 70
1
 10
70085
 20
5885
 10
70315
 20
5885
 10
70315
 20
6115
 10
70085
 20
6115
  0
LWPOLYLINE
  5
4E0
100
AcDbEntity
  8
COLUMN
100
AcDbPolyline
 90
4
 70
1
 10
70085
 20
11885
 10
70315
 20
11885
 10
70315
 20
12115
 10
70085
 20
12115
  0
LWPOLYLINE
  5
4E1
100
AcDbEntity
  8
COLUMN
100
AcDbPolyline
 90
4
 70
1
 10
70085
 20
17885
 10
70315
 20
17885
 10
70315
 20
18115
 10
70085
 20
18115
  0
LWPOLYLINE
  5
4E2
100
AcDbEntity
  8
COLUMN
100
AcDbPolyline
 90
4
 70
1
 10
70085
 20
23885
 10
70315
 20
23885
 10
70315
 20
24115
 10
70085
 20
24115
  0
LWPOLYLINE
  5
4E3
100
AcDbEntity
  8
COLUMN
100
AcDbPolyline
 90
4
 70
1
 10
70085
 20
29885
 10
70315
 20
29885
 10
70315
 20
30115
 10
70085
 20
30115
  0
LWPOLYLINE
  5
4E4
100
AcDbEntity
  8
COLUMN
100
AcDbPolyline
 90
4
 70
1
 10
76085
 20
-115
 10
76315
 20
-115
 10
76315
 20
115
 10
76085
 20
115
  0
LWPOLYLINE
  5
4E5
100
AcDbEntity
  8
COLUMN
100
AcDbPolyline
 90
4
 70
1
 10
76085
 20
5885
 10
76315
 20
5885
 10
76315
 20
6115
 10
76085
 20
6115
  0
LWPOLYLINE
  5
4E6
100
AcDbEntity
  8
COLUMN
100
AcDbPolyline
 90
4
 70
1
 10
76085
 20
11885
 10
76315
 20
11885
 10
76315
 20
12115
 10
76085
 20
12115
  0
LWPOLYLINE
  5
4E7
100
AcDbEntity
  8
COLUMN
100
AcDbPolyline
 90
4
 70
1
 10
76085
 20
17885
 10
76315
 20
17885
 10
76315
 20
18115
 10
76085
 20
18115
  0
LWPOLYLINE
  5
4E8
100
AcDbEntity
  8
COLUMN
100
AcDbPolyline
 90
4
 70
1
 10
76085
 20
23885
 10
76315
 20
23885
 10
76315
 20
24115
 10
76085
 20
24115
  0
LWPOLYLINE
  5
4E9
100
AcDbEntity
  8
COLUMN
100
AcDbPolyline
 90
4
 70
1
 10
76085
 20
29885
 10
76315
 20
29885
 10
76315
 20
30115
 10
76085
 20
30115
  0
LWPOLYLINE
  5
4EA
100
AcDbEntity
  8
COLUMN
100
AcDbPolyline
 90
4
 70
1
 10
82085
 20
-115
 10
82315
 20
-115
 10
82315
 20
115
 10
82085
 20
115
  0
LWPOLYLINE
  5
4EB
100
AcDbEntity
  8
COLUMN
100
AcDbPolyline
 90
4
 70
1
 10
82085
 20
5885
 10
82315
 20
5885
 10
82315
 20
6115
 10
82085
 20
6115
  0
LWPOLYLINE
  5
4EC
100
AcDbEntity
  8
COLUMN
100
AcDbPolyline
 90
4
 70
1
 10
82085
 20
11885
 10
82315
 20
11885
 10
82315
 20
12115
 10
82085
 20
12115
  0
LWPOLYLINE
  5
4ED
100
AcDbEntity
  8
COLUMN
100
AcDbPolyline
 90
4
 70
1
 10
82085
 20
17885
 10
82315
 20
17885
 10
82315
 20
18115
 10
82085
 20
18115
  0
LWPOLYLINE
  5
4EE
100
AcDbEntity
  8
COLUMN
100
AcDbPolyline
 90
4
 70
1
 10
82085
 20
23885
 10
82315
 20
23885
 10
82315
 20
24115
 10
82085
 20
24115
  0
LWPOLYLINE
  5
4EF
100
AcDbEntity
  8
COLUMN
100
AcDbPolyline
 90
4
 70
1
 10
82085
 20
29885
 10
82315
 20
29885
 10
82315
 20
30115
 10
82085
 20
30115
  0
LWPOLYLINE
  5
4F0
100
AcDbEntity
  8
COLUMN
100
AcDbPolyline
 90
4
 70
1
 10
88085
 20
-115
 10
88315
 20
-115
 10
88315
 20
115
 10
88085
 20
115
  0
LWPOLYLINE
  5
4F1
100
AcDbEntity
  8
COLUMN
100
AcDbPolyline
 90
4
 70
1
 10
88085
 20
5885
 10
88315
 20
5885
 10
88315
 20
6115
 10
88085
 20
6115
  0
LWPOLYLINE
  5
4F2
100
AcDbEntity
  8
COLUMN
100
AcDbPolyline
 90
4
 70
1
 10
88085
 20
11885
 10
88315
 20
11885
 10
88315
 20
12115
 10
88085
 20
12115
  0
LWPOLYLINE
  5
4F3
100
AcDbEntity
  8
COLUMN
100
AcDbPolyline
 90
4
 70
1
 10
88085
 20
17885
 10
88315
 20
17885
 10
88315
 20
18115
 10
88085
 20
18115
  0
LWPOLYLINE
  5
4F4
100
AcDbEntity
  8
COLUMN
100
AcDbPolyline
 90
4
 70
1
 10
88085
 20
23885
 10
88315
 20
23885
 10
88315
 20
24115
 10
88085
 20
24115
  0
LWPOLYLINE
  5
4F5
100
AcDbEntity
  8
COLUMN
100
AcDbPolyline
 90
4
 70
1
 10
88085
 20
29885
 10
88315
 20
29885
 10
88315
 20
30115
 10
88085
 20
30115
  0
LWPOLYLINE
  5
4F6
100
AcDbEntity
  8
COLUMN
100
AcDbPolyline
 90
4
 70
1
 10
94085
 20
-115
 10
94315
 20
-115
 10
94315
 20
115
 10
94085
 20
115
  0
LWPOLYLINE
  5
4F7
100
AcDbEntity
  8
COLUMN
100
AcDbPolyline
 90
4
 70
1
 10
94085
 20
5885
 10
94315
 20
5885
 10
94315
 20
6115
 10
94085
 20
6115
  0
LWPOLYLINE
  5
4F8
100
AcDbEntity
  8
COLUMN
100
AcDbPolyline
 90
4
 70
1
 10
94085
 20
11885
 10
94315
 20
11885
 10
94315
 20
12115
 10
94085
 20
12115
  0
LWPOLYLINE
  5
4F9
100
AcDbEntity
  8
COLUMN
100
AcDbPolyline
 90
4
 70
1
 10
94085
 20
17885
 10
94315
 20
17885
 10
94315
 20
18115
 10
94085
 20
18115
  0
LWPOLYLINE
  5
4FA
100
AcDbEntity
  8
COLUMN
100
AcDbPolyline
 90
4
 70
1
 10
94085
 20
23885
 10
94315
 20
23885
 10
94315
 20
24115
 10
94085
 20
24115
  0
LWPOLYLINE
  5
4FB
100
AcDbEntity
  8
COLUMN
100
AcDbPolyline
 90
4
 70
1
 10
94085
 20
29885
 10
94315
 20
29885
 10
94315
 20
30115
 10
94085
 20
30115
  0
LWPOLYLINE
  5
4FC
100
AcDbEntity
  8
COLUMN
100
AcDbPolyline
 90
4
 70
1
 10
100085
 20
-115
 10
100315
 20
-115
 10
100315
 20
115
 10
100085
 20
115
  0
LWPOLYLINE
  5
4FD
100
AcDbEntity
  8
COLUMN
100
AcDbPolyline
 90
4
 70
1
 10
100085
 20
5885
 10
100315
 20
5885
 10
100315
 20
6115
 10
100085
 20
6115
  0
LWPOLYLINE
  5
4FE
100
AcDbEntity
  8
COLUMN
100
AcDbPolyline
 90
4
 70
1
 10
100085
 20
11885
 10
100315
 20
11885
 10
100315
 20
12115
 10
100085
 20
12115
  0
LWPOLYLINE
  5
4FF
100
AcDbEntity
  8
COLUMN
100
AcDbPolyline
 90
4
 70
1
 10
100085
 20
17885
 10
100315
 20
17885
 10
100315
 20
18115
 10
100085
 20
18115
  0
LWPOLYLINE
  5
500
100
AcDbEntity
  8
COLUMN
100
AcDbPolyline
 90
4
 70
1
 10
100085
 20
23885
 10
100315
 20
23885
 10
100315
 20
24115
 10
100085
 20
24115
  0
LWPOLYLINE
  5
501
100
AcDbEntity
  8
COLUMN
100
AcDbPolyline
 90
4
 70
1
 10
100085
 20
29885
 10
100315
 20
29885
 10
100315
 20
30115
 10
100085
 20
30115
  0
TEXT
  5
502
100
AcDbEntity
  8
TEXT
100
AcDbText
 10
72737.5000
 20
3037.5000
 30
0
 40
250
  1
OFFICE 11
100
AcDbText
  0
TEXT
  5
503
100
AcDbEntity
  8
TEXT
100
AcDbText
 10
78700
 20
3037.5000
 30
0
 40
250
  1
OFFICE 12
100
AcDbText
  0
TEXT
  5
504
100
AcDbEntity
  8
TEXT
100
AcDbText
 10
84700
 20
3037.5000
 30
0
 40
250
  1
OFFICE 13
100
AcDbText
  0
TEXT
  5
505
100
AcDbEntity
  8
TEXT
100
AcDbText
 10
90700
 20
3037.5000
 30
0
 40
250
  1
OFFICE 14
100
AcDbText
  0
TEXT
  5
506
100
AcDbEntity
  8
TEXT
100
AcDbText
 10
96662.5000
 20
3037.5000
 30
0
 40
250
  1
OFFICE 15
100
AcDbText
  0
TEXT
  5
507
100
AcDbEntity
  8
TEXT
100
AcDbText
 10
72737.5000
 20
9000
 30
0
 40
250
  1
OFFICE 21
100
AcDbText
  0
TEXT
  5
508
100
AcDbEntity
  8
TEXT
100
AcDbText
 10
78700
 20
9000
 30
0
 40
250
  1
OFFICE 22
100
AcDbText
  0
TEXT
  5
509
100
AcDbEntity
  8
TEXT
100
AcDbText
 10
84700
 20
9000
 30
0
 40
250
  1
OFFICE 23
100
AcDbText
  0
TEXT
  5
50A
100
AcDbEntity
  8
TEXT
100
AcDbText
 10
90700
 20
9000
 30
0
 40
250
  1
OFFICE 24
100
AcDbText
  0
TEXT
  5
50B
100
AcDbEntity
  8
TEXT
100
AcDbText
 10
96662.5000
 20
9000
 30
0
 40
250
  1
OFFICE 25
100
AcDbText
  0
TEXT
  5
50C
100
AcDbEntity
  8
TEXT
100
AcDbText
 10
72737.5000
 20
15000
 30
0
 40
250
  1
OFFICE 31
100
AcDbText
  0
TEXT
  5
50D
100
AcDbEntity
  8
TEXT
100
AcDbText
 10
78700
 20
15000
 30
0
 40
250
  1
STAIR HALL
100
AcDbText
  0
TEXT
  5
50E
100
AcDbEntity
  8
TEXT
100
AcDbText
 10
84700
 20
15000
 30
0
 40
250
  1
LIFT LOBBY
100
AcDbText
  0
TEXT
  5
50F
100
AcDbEntity
  8
TEXT
100
AcDbText
 10
90700
 20
15000
 30
0
 40
250
  1
OFFICE 34
100
AcDbText
  0
LWPOLYLINE
  5
510
100
AcDbEntity
  8
SANITARY
100
AcDbPolyline
 90
4
 70
1
 10
88675
 20
17025
 10
89075
 20
17025
 10
89075
 20
17625
 10
88675
 20
17625
  0
TEXT
  5
511
100
AcDbEntity
  8
TEXT
100
AcDbText
 10
96662.5000
 20
15000
 30
0
 40
250
  1
OFFICE 35
100
AcDbText
  0
TEXT
  5
512
100
AcDbEntity
  8
TEXT
100
AcDbText
 10
72737.5000
 20
21000
 30
0
 40
250
  1
OFFICE 41
100
AcDbText
  0
TEXT
  5
513
100
AcDbEntity
  8
TEXT
100
AcDbText
 10
78700
 20
21000
 30
0
 40
250
  1
OFFICE 42
100
AcDbText
  0
TEXT
  5
514
100
AcDbEntity
  8
TEXT
100
AcDbText
 10
84700
 20
21000
 30
0
 40
250
  1
OFFICE 43
100
AcDbText
  0
TEXT
  5
515
100
AcDbEntity
  8
TEXT
100
AcDbText
 10
90700
 20
21000
 30
0
 40
250
  1
OFFICE 44
100
AcDbText
  0
TEXT
  5
516
100
AcDbEntity
  8
TEXT
100
AcDbText
 10
96662.5000
 20
21000
 30
0
 40
250
  1
OFFICE 45
100
AcDbText
  0
TEXT
  5
517
100
AcDbEntity
  8
TEXT
100
AcDbText
 10
72737.5000
 20
26962.5000
 30
0
 40
250
  1
OFFICE 51
100
AcDbText
  0
TEXT
  5
518
100
AcDbEntity
  8
TEXT
100
AcDbText
 10
78700
 20
26962.5000
 30
0
 40
250
  1
OFFICE 52
100
AcDbText
  0
TEXT
  5
519
100
AcDbEntity
  8
TEXT
100
AcDbText
 10
84700
 20
26962.5000
 30
0
 40
250
  1
OFFICE 53
100
AcDbText
  0
TEXT
  5
51A
100
AcDbEntity
  8
TEXT
100
AcDbText
 10
90700
 20
26962.5000
 30
0
 40
250
  1
OFFICE 54
100
AcDbText
  0
TEXT
  5
51B
100
AcDbEntity
  8
TEXT
100
AcDbText
 10
96662.5000
 20
26962.5000
 30
0
 40
250
  1
OFFICE 55
100
AcDbText
  0
DIMENSION
  5
51C
100
AcDbEntity
  8
DIM
100
AcDbDimension
  2
*D
 10
70200
 20
-1800
 30
0
 11
85200
 21
-1550
 31
0
 70
33
  1

 42
30000
100
AcDbAlignedDimension
 13
70200
 23
0
 33
0
 14
100200
 24
0
 34
0
  0
DIMENSION
  5
51D
100
AcDbEntity
  8
DIM
100
AcDbDimension
  2
*D
 10
68400
 20
0
 30
0
 11
68650
 21
15000
 31
0
 70
33
  1

 42
30000
100
AcDbAlignedDimension
 13
70200
 23
0
 33
0
 14
70200
 24
30000
 34
0
  0
DIMENSION
  5
51E
100
AcDbEntity
  8
DIM
100
AcDbDimension
  2
*D
 10
70200
 20
31200
 30
0
 11
73200
 21
31450
 31
0
 70
33
  1

 42
6000
100
AcDbAlignedDimension
 13
70200
 23
30000
 33
0
 14
76200
 24
30000
 34
0
  0
DIMENSION
  5
51F
100
AcDbEntity
  8
DIM
100
AcDbDimension
  2
*D
 10
76200
 20
31200
 30
0
 11
79200
 21
31450
 31
0
 70
33
  1

 42
6000
100
AcDbAlignedDimension
 13
76200
 23
30000
 33
0
 14
82200
 24
30000
 34
0
  0
DIMENSION
  5
520
100
AcDbEntity
  8
DIM
100
AcDbDimension
  2
*D
 10
82200
 20
31200
 30
0
 11
85200
 21
31450
 31
0
 70
33
  1

 42
6000
100
AcDbAlignedDimension
 13
82200
 23
30000
 33
0
 14
88200
 24
30000
 34
0
  0
DIMENSION
  5
521
100
AcDbEntity
  8
DIM
100
AcDbDimension
  2
*D
 10
88200
 20
31200
 30
0
 11
91200
 21
31450
 31
0
 70
33
  1

 42
6000
100
AcDbAlignedDimension
 13
88200
 23
30000
 33
0
 14
94200
 24
30000
 34
0
  0
DIMENSION
  5
522
100
AcDbEntity
  8
DIM
100
AcDbDimension
  2
*D
 10
94200
 20
31200
 30
0
 11
97200
 21
31450
 31
0
 70
33
  1

 42
6000
100
AcDbAlignedDimension
 13
94200
 23
30000
 33
0
 14
100200
 24
30000
 34
0
  0
DIMENSION
  5
523
100
AcDbEntity
  8
DIM
100
AcDbDimension
  2
*D
 10
101400
 20
0
 30
0
 11
101650
 21
3000
 31
0
 70
33
  1

 42
6000
100
AcDbAlignedDimension
 13
100200
 23
0
 33
0
 14
100200
 24
6000
 34
0
  0
DIMENSION
  5
524
100
AcDbEntity
  8
DIM
100
AcDbDimension
  2
*D
 10
101400
 20
6000
 30
0
 11
101650
 21
9000
 31
0
 70
33
  1

 42
6000
100
AcDbAlignedDimension
 13
100200
 23
6000
 33
0
 14
100200
 24
12000
 34
0
  0
DIMENSION
  5
525
100
AcDbEntity
  8
DIM
100
AcDbDimension
  2
*D
 10
101400
 20
12000
 30
0
 11
101650
 21
15000
 31
0
 70
33
  1

 42
6000
100
AcDbAlignedDimension
 13
100200
 23
12000
 33
0
 14
100200
 24
18000
 34
0
  0
DIMENSION
  5
526
100
AcDbEntity
  8
DIM
100
AcDbDimension
  2
*D
 10
101400
 20
18000
 30
0
 11
101650
 21
21000
 31
0
 70
33
  1

 42
6000
100
AcDbAlignedDimension
 13
100200
 23
18000
 33
0
 14
100200
 24
24000
 34
0
  0
DIMENSION
  5
527
100
AcDbEntity
  8
DIM
100
AcDbDimension
  2
*D
 10
101400
 20
24000
 30
0
 11
101650
 21
27000
 31
0
 70
33
  1

 42
6000
100
AcDbAlignedDimension
 13
100200
 23
24000
 33
0
 14
100200
 24
30000
 34
0
  0
TEXT
  5
528
100
AcDbEntity
  8
TEXT
100
AcDbText
 10
70200
 20
-3200
 30
0
 40
450
  1
TYPICAL FLOOR PLAN (LEVELS 2-20)
100
AcDbText
  0
TEXT
  5
529
100
AcDbEntity
  8
TEXT
100
AcDbText
 10
102800
 20
15000
 30
0
 40
300
  1
+3450
100
AcDbText
  0
LINE
  5
52A
100
AcDbEntity
  8
0
100
AcDbLine
 10
65400
 20
-11200
 30
0
 11
124800
 21
-11200
 31
0
  0
LINE
  5
52B
100
AcDbEntity
  8
0
100
AcDbLine
 10
124800
 20
-11200
 30
0
 11
124800
 21
35200
 31
0
  0
LINE
  5
52C
100
AcDbEntity
  8
0
100
AcDbLine
 10
124800
 20
35200
 30
0
 11
65400
 21
35200
 31
0
  0
LINE
  5
52D
100
AcDbEntity
  8
0
100
AcDbLine
 10
65400
 20
35200
 30
0
 11
65400
 21
-11200
 31
0
  0
INSERT
  5
52E
100
AcDbEntity
  8
0
100
AcDbBlockReference
  2
TITLEBLOCK-A1
 10
106800
 20
-11200
 30
0
 41
1
 42
1
 43
1
 50
0
  0
TEXT
  5
52F
100
AcDbEntity
  8
0
100
AcDbText
 10
119100
 20
-7400
 30
0
 40
300
  1
DRAWING: TYPICAL FLOOR PLAN (LEVELS 2-20)
100
AcDbText
  0
TEXT
  5
530
100
AcDbEntity
  8
0
100
AcDbText
 10
119100
 20
-8300
 30
0
 40
300
  1
DRG NO A-102
100
AcDbText
  0
LINE
  5
531
100
AcDbEntity
  8
0
100
AcDbLine
 10
67400
 20
-9200
 30
0
 11
77400
 21
-9200
 31
0
  0
LINE
  5
532
100
AcDbEntity
  8
0
100
AcDbLine
 10
67400
 20
-8900
 30
0
 11
77400
 21
-8900
 31
0
  0
LINE
  5
533
100
AcDbEntity
  8
0
100
AcDbLine
 10
67400
 20
-9200
 30
0
 11
67400
 21
-8900
 31
0
  0
LINE
  5
534
100
AcDbEntity
  8
0
100
AcDbLine
 10
68400
 20
-9200
 30
0
 11
68400
 21
-8900
 31
0
  0
LINE
  5
535
100
AcDbEntity
  8
0
100
AcDbLine
 10
69400
 20
-9200
 30
0
 11
69400
 21
-8900
 31
0
  0
LINE
  5
536
100
AcDbEntity
  8
0
100
AcDbLine
 10
70400
 20
-9200
 30
0
 11
70400
 21
-8900
 31
0
  0
LINE
  5
537
100
AcDbEntity
  8
0
100
AcDbLine
 10
71400
 20
-9200
 30
0
 11
71400
 21
-8900
 31
0
  0
LINE
  5
538
100
AcDbEntity
  8
0
100
AcDbLine
 10
72400
 20
-9200
 30
0
 11
72400
 21
-8900
 31
0
  0
LINE
  5
539
100
AcDbEntity
  8
0
100
AcDbLine
 10
73400
 20
-9200
 30
0
 11
73400
 21
-8900
 31
0
  0
LINE
  5
53A
100
AcDbEntity
  8
0
100
AcDbLine
 10
74400
 20
-9200
 30
0
 11
74400
 21
-8900
 31
0
  0
LINE
  5
53B
100
AcDbEntity
  8
0
100
AcDbLine
 10
75400
 20
-9200
 30
0
 11
75400
 21
-8900
 31
0
  0
LINE
  5
53C
100
AcDbEntity
  8
0
100
AcDbLine
 10
76400
 20
-9200
 30
0
 11
76400
 21
-8900
 31
0
  0
LINE
  5
53D
100
AcDbEntity
  8
0
100
AcDbLine
 10
77400
 20
-9200
 30
0
 11
77400
 21
-8900
 31
0
  0
TEXT
  5
53E
100
AcDbEntity
  8
0
100
AcDbText
 10
67300
 20
-8700
 30
0
 40
250
  1
0
100
AcDbText
  0
TEXT
  5
53F
100
AcDbEntity
  8
0
100
AcDbText
 10
68300
 20
-8700
 30
0
 40
250
  1
1
100
AcDbText
  0
TEXT
  5
540
100
AcDbEntity
  8
0
100
AcDbText
 10
69300
 20
-8700
 30
0
 40
250
  1
2
100
AcDbText
  0
TEXT
  5
541
100
AcDbEntity
  8
0
100
AcDbText
 10
72300
 20
-8700
 30
0
 40
250
  1
5
100
AcDbText
  0
TEXT
  5
542
100
AcDbEntity
  8
0
100
AcDbText
 10
77300
 20
-8700
 30
0
 40
250
  1
10
100
AcDbText
  0
TEXT
  5
543
100
AcDbEntity
  8
0
100
AcDbText
 10
78000
 20
-8700
 30
0
 40
250
  1
m
100
AcDbText
  0
TEXT
  5
544
100
AcDbEntity
  8
0
100
AcDbText
 10
67400
 20
-8200
 30
0
 40
250
  1
SCALE BAR 1:100
100
AcDbText
  0
LWPOLYLINE
  5
545
100
AcDbEntity
  8
0
100
AcDbPolyline
 90
4
 70
1
 10
121800
 20
31700
 10
122400
 20
33500
 10
121800
 20
33100
 10
121200
 20
33500
  0
TEXT
  5
546
100
AcDbEntity
  8
0
100
AcDbText
 10
121650
 20
33800
 30
0
 40
400
  1
N
100
AcDbText
  0
TEXT
  5
547
100
AcDbEntity
  8
0
100
AcDbText
 10
103800
 20
32700
 30
0
 40
250
  1
GENERAL NOTES
100
AcDbText
  0
TEXT
  5
548
100
AcDbEntity
  8
0
100
AcDbText
 10
103800
 20
32100
 30
0
 40
250
  1
1. ALL DIMENSIONS ARE IN MILLIMETRES.
100
AcDbText
  0
TEXT
  5
549
100
AcDbEntity
  8
0
100
AcDbText
 10
103800
 20
31500
 30
0
 40
250
  1
2. SLAB THICKNESS 150 UNLESS NOTED.
100
AcDbText
  0
TEXT
  5
54A
100
AcDbEntity
  8
0
100
AcDbText
 10
103800
 20
30900
 30
0
 40
250
  1
3. COLUMNS 230 X 230 TO ENGINEER'S DETAILS.
100
AcDbText
  0
TEXT
  5
54B
100
AcDbEntity
  8
0
100
AcDbText
 10
103800
 20
30300
 30
0
 40
250
  1
4. WINDOW SILL LEVEL 900 ABOVE FFL.
100
AcDbText
  0
TEXT
  5
54C
100
AcDbEntity
  8
0
100
AcDbText
 10
103800
 20
29700
 30
0
 40
250
  1
5. DOOR HEIGHT 2100 UNLESS NOTED.
100
AcDbText
  0
TEXT
  5
54D
100
AcDbEntity
  8
0
100
AcDbText
 10
103800
 20
29100
 30
0
 40
250
  1
6. CONCRETE GRADE 25 COVER 40.
100
AcDbText
  0
TEXT
  5
54E
100
AcDbEntity
  8
0
100
AcDbText
 10
103800
 20
28500
 30
0
 40
250
  1
7. LINTEL 225 X 150 OVER ALL OPENINGS.
100
AcDbText
  0
TEXT
  5
54F
100
AcDbEntity
  8
0
100
AcDbText
 10
103800
 20
27900
 30
0
 40
250
  1
8. DO NOT SCALE OFF THIS DRAWING.
100
AcDbText
  0
LINE
  5
550
100
AcDbEntity
  8
WALL
100
AcDbLine
370
50
 10
133800
 20
0
 30
0
 11
163800
 21
0
 31
0
  0
LINE
  5
551
100
AcDbEntity
  8
WALL
100
AcDbLine
370
50
 10
163800
 20
0
 30
0
 11
163800
 21
61200
 31
0
  0
LINE
  5
552
100
AcDbEntity
  8
WALL
100
AcDbLine
370
50
 10
163800
 20
61200
 30
0
 11
133800
 21
61200
 31
0
  0
LINE
  5
553
100
AcDbEntity
  8
WALL
100
AcDbLine
370
50
 10
133800
 20
61200
 30
0
 11
133800
 21
0
 31
0
  0
LINE
  5
554
100
AcDbEntity
  8
WALL
100
AcDbLine
 10
133800
 20
0
 30
0
 11
163800
 21
0
 31
0
  0
TEXT
  5
555
100
AcDbEntity
  8
TEXT
100
AcDbText
 10
164700
 20
0
 30
0
 40
250
  1
+450 GROUND FLOOR LEVEL
100
AcDbText
  0
LWPOLYLINE
  5
556
100
AcDbEntity
  8
WIND
100
AcDbPolyline
 90
4
 70
1
 10
138200
 20
900
 10
139400
 20
900
 10
139400
 20
2100
 10
138200
 20
2100
  0
LWPOLYLINE
  5
557
100
AcDbEntity
  8
WIND
100
AcDbPolyline
 90
4
 70
1
 10
143200
 20
900
 10
144400
 20
900
 10
144400
 20
2100
 10
143200
 20
2100
  0
LWPOLYLINE
  5
558
100
AcDbEntity
  8
WIND
100
AcDbPolyline
 90
4
 70
1
 10
148200
 20
900
 10
149400
 20
900
 10
149400
 20
2100
 10
148200
 20
2100
  0
LWPOLYLINE
  5
559
100
AcDbEntity
  8
WIND
100
AcDbPolyline
 90
4
 70
1
 10
153200
 20
900
 10
154400
 20
900
 10
154400
 20
2100
 10
153200
 20
2100
  0
LWPOLYLINE
  5
55A
100
AcDbEntity
  8
WIND
100
AcDbPolyline
 90
4
 70
1
 10
158200
 20
900
 10
159400
 20
900
 10
159400
 20
2100
 10
158200
 20
2100
  0
LINE
  5
55B
100
AcDbEntity
  8
WALL
100
AcDbLine
 10
133800
 20
3000
 30
0
 11
163800
 21
3000
 31
0
  0
TEXT
  5
55C
100
AcDbEntity
  8
TEXT
100
AcDbText
 10
164700
 20
3000
 30
0
 40
250
  1
+3450 FIRST FLOOR SLAB
100
AcDbText
  0
LWPOLYLINE
  5
55D
100
AcDbEntity
  8
WIND
100
AcDbPolyline
 90
4
 70
1
 10
138200
 20
3900
 10
139400
 20
3900
 10
139400
 20
5100
 10
138200
 20
5100
  0
LWPOLYLINE
  5
55E
100
AcDbEntity
  8
WIND
100
AcDbPolyline
 90
4
 70
1
 10
143200
 20
3900
 10
144400
 20
3900
 10
144400
 20
5100
 10
143200
 20
5100
  0
LWPOLYLINE
  5
55F
100
AcDbEntity
  8
WIND
100
AcDbPolyline
 90
4
 70
1
 10
148200
 20
3900
 10
149400
 20
3900
 10
149400
 20
5100
 10
148200
 20
5100
  0
LWPOLYLINE
  5
560
100
AcDbEntity
  8
WIND
100
AcDbPolyline
 90
4
 70
1
 10
153200
 20
3900
 10
154400
 20
3900
 10
154400
 20
5100
 10
153200
 20
5100
  0
LWPOLYLINE
  5
561
100
AcDbEntity
  8
WIND
100
AcDbPolyline
 90
4
 70
1
 10
158200
 20
3900
 10
159400
 20
3900
 10
159400
 20
5100
 10
158200
 20
5100
  0
LINE
  5
562
100
AcDbEntity
  8
WALL
100
AcDbLine
 10
133800
 20
6000
 30
0
 11
163800
 21
6000
 31
0
  0
TEXT
  5
563
100
AcDbEntity
  8
TEXT
100
AcDbText
 10
164700
 20
6000
 30
0
 40
250
  1
+6450 SECOND FLOOR SLAB
100
AcDbText
  0
LWPOLYLINE
  5
564
100
AcDbEntity
  8
WIND
100
AcDbPolyline
 90
4
 70
1
 10
138200
 20
6900
 10
139400
 20
6900
 10
139400
 20
8100
 10
138200
 20
8100
  0
LWPOLYLINE
  5
565
100
AcDbEntity
  8
WIND
100
AcDbPolyline
 90
4
 70
1
 10
143200
 20
6900
 10
144400
 20
6900
 10
144400
 20
8100
 10
143200
 20
8100
  0
LWPOLYLINE
  5
566
100
AcDbEntity
  8
WIND
100
AcDbPolyline
 90
4
 70
1
 10
148200
 20
6900
 10
149400
 20
6900
 10
149400
 20
8100
 10
148200
 20
8100
  0
LWPOLYLINE
  5
567
100
AcDbEntity
  8
WIND
100
AcDbPolyline
 90
4
 70
1
 10
153200
 20
6900
 10
154400
 20
6900
 10
154400
 20
8100
 10
153200
 20
8100
  0
LWPOLYLINE
  5
568
100
AcDbEntity
  8
WIND
100
AcDbPolyline
 90
4
 70
1
 10
158200
 20
6900
 10
159400
 20
6900
 10
159400
 20
8100
 10
158200
 20
8100
  0
LINE
  5
569
100
AcDbEntity
  8
WALL
100
AcDbLine
 10
133800
 20
9000
 30
0
 11
163800
 21
9000
 31
0
  0
TEXT
  5
56A
100
AcDbEntity
  8
TEXT
100
AcDbText
 10
164700
 20
9000
 30
0
 40
250
  1
+9450 THIRD FLOOR SLAB
100
AcDbText
  0
LWPOLYLINE
  5
56B
100
AcDbEntity
  8
WIND
100
AcDbPolyline
 90
4
 70
1
 10
138200
 20
9900
 10
139400
 20
9900
 10
139400
 20
11100
 10
138200
 20
11100
  0
LWPOLYLINE
  5
56C
100
AcDbEntity
  8
WIND
100
AcDbPolyline
 90
4
 70
1
 10
143200
 20
9900
 10
144400
 20
9900
 10
144400
 20
11100
 10
143200
 20
11100
  0
LWPOLYLINE
  5
56D
100
AcDbEntity
  8
WIND
100
AcDbPolyline
 90
4
 70
1
 10
148200
 20
9900
 10
149400
 20
9900
 10
149400
 20
11100
 10
148200
 20
11100
  0
LWPOLYLINE
  5
56E
100
AcDbEntity
  8
WIND
100
AcDbPolyline
 90
4
 70
1
 10
153200
 20
9900
 10
154400
 20
9900
 10
154400
 20
11100
 10
153200
 20
11100
  0
LWPOLYLINE
  5
56F
100
AcDbEntity
  8
WIND
100
AcDbPolyline
 90
4
 70
1
 10
158200
 20
9900
 10
159400
 20
9900
 10
159400
 20
11100
 10
158200
 20
11100
  0
LINE
  5
570
100
AcDbEntity
  8
WALL
100
AcDbLine
 10
133800
 20
12000
 30
0
 11
163800
 21
12000
 31
0
  0
TEXT
  5
571
100
AcDbEntity
  8
TEXT
100
AcDbText
 10
164700
 20
12000
 30
0
 40
250
  1
+12450 LEVEL 4
100
AcDbText
  0
LWPOLYLINE
  5
572
100
AcDbEntity
  8
WIND
100
AcDbPolyline
 90
4
 70
1
 10
138200
 20
12900
 10
139400
 20
12900
 10
139400
 20
14100
 10
138200
 20
14100
  0
LWPOLYLINE
  5
573
100
AcDbEntity
  8
WIND
100
AcDbPolyline
 90
4
 70
1
 10
143200
 20
12900
 10
144400
 20
12900
 10
144400
 20
14100
 10
143200
 20
14100
  0
LWPOLYLINE
  5
574
100
AcDbEntity
  8
WIND
100
AcDbPolyline
 90
4
 70
1
 10
148200
 20
12900
 10
149400
 20
12900
 10
149400
 20
14100
 10
148200
 20
14100
  0
LWPOLYLINE
  5
575
100
AcDbEntity
  8
WIND
100
AcDbPolyline
 90
4
 70
1
 10
153200
 20
12900
 10
154400
 20
12900
 10
154400
 20
14100
 10
153200
 20
14100
  0
LWPOLYLINE
  5
576
100
AcDbEntity
  8
WIND
100
AcDbPolyline
 90
4
 70
1
 10
158200
 20
12900
 10
159400
 20
12900
 10
159400
 20
14100
 10
158200
 20
14100
  0
LINE
  5
577
100
AcDbEntity
  8
WALL
100
AcDbLine
 10
133800
 20
15000
 30
0
 11
163800
 21
15000
 31
0
  0
TEXT
  5
578
100
AcDbEntity
  8
TEXT
100
AcDbText
 10
164700
 20
15000
 30
0
 40
250
  1
+15450 LEVEL 5
100
AcDbText
  0
LWPOLYLINE
  5
579
100
AcDbEntity
  8
WIND
100
AcDbPolyline
 90
4
 70
1
 10
138200
 20
15900
 10
139400
 20
15900
 10
139400
 20
17100
 10
138200
 20
17100
  0
LWPOLYLINE
  5
57A
100
AcDbEntity
  8
WIND
100
AcDbPolyline
 90
4
 70
1
 10
143200
 20
15900
 10
144400
 20
15900
 10
144400
 20
17100
 10
143200
 20
17100
  0
LWPOLYLINE
  5
57B
100
AcDbEntity
  8
WIND
100
AcDbPolyline
 90
4
 70
1
 10
148200
 20
15900
 10
149400
 20
15900
 10
149400
 20
17100
 10
148200
 20
17100
  0
LWPOLYLINE
  5
57C
100
AcDbEntity
  8
WIND
100
AcDbPolyline
 90
4
 70
1
 10
153200
 20
15900
 10
154400
 20
15900
 10
154400
 20
17100
 10
153200
 20
17100
  0
LWPOLYLINE
  5
57D
100
AcDbEntity
  8
WIND
100
AcDbPolyline
 90
4
 70
1
 10
158200
 20
15900
 10
159400
 20
15900
 10
159400
 20
17100
 10
158200
 20
17100
  0
LINE
  5
57E
100
AcDbEntity
  8
WALL
100
AcDbLine
 10
133800
 20
18000
 30
0
 11
163800
 21
18000
 31
0
  0
TEXT
  5
57F
100
AcDbEntity
  8
TEXT
100
AcDbText
 10
164700
 20
18000
 30
0
 40
250
  1
+18450 LEVEL 6
100
AcDbText
  0
LWPOLYLINE
  5
580
100
AcDbEntity
  8
WIND
100
AcDbPolyline
 90
4
 70
1
 10
138200
 20
18900
 10
139400
 20
18900
 10
139400
 20
20100
 10
138200
 20
20100
  0
LWPOLYLINE
  5
581
100
AcDbEntity
  8
WIND
100
AcDbPolyline
 90
4
 70
1
 10
143200
 20
18900
 10
144400
 20
18900
 10
144400
 20
20100
 10
143200
 20
20100
  0
LWPOLYLINE
  5
582
100
AcDbEntity
  8
WIND
100
AcDbPolyline
 90
4
 70
1
 10
148200
 20
18900
 10
149400
 20
18900
 10
149400
 20
20100
 10
148200
 20
20100
  0
LWPOLYLINE
  5
583
100
AcDbEntity
  8
WIND
100
AcDbPolyline
 90
4
 70
1
 10
153200
 20
18900
 10
154400
 20
18900
 10
154400
 20
20100
 10
153200
 20
20100
  0
LWPOLYLINE
  5
584
100
AcDbEntity
  8
WIND
100
AcDbPolyline
 90
4
 70
1
 10
158200
 20
18900
 10
159400
 20
18900
 10
159400
 20
20100
 10
158200
 20
20100
  0
LINE
  5
585
100
AcDbEntity
  8
WALL
100
AcDbLine
 10
133800
 20
21000
 30
0
 11
163800
 21
21000
 31
0
  0
TEXT
  5
586
100
AcDbEntity
  8
TEXT
100
AcDbText
 10
164700
 20
21000
 30
0
 40
250
  1
+21450 LEVEL 7
100
AcDbText
  0
LWPOLYLINE
  5
587
100
AcDbEntity
  8
WIND
100
AcDbPolyline
 90
4
 70
1
 10
138200
 20
21900
 10
139400
 20
21900
 10
139400
 20
23100
 10
138200
 20
23100
  0
LWPOLYLINE
  5
588
100
AcDbEntity
  8
WIND
100
AcDbPolyline
 90
4
 70
1
 10
143200
 20
21900
 10
144400
 20
21900
 10
144400
 20
23100
 10
143200
 20
23100
  0
LWPOLYLINE
  5
589
100
AcDbEntity
  8
WIND
100
AcDbPolyline
 90
4
 70
1
 10
148200
 20
21900
 10
149400
 20
21900
 10
149400
 20
23100
 10
148200
 20
23100
  0
LWPOLYLINE
  5
58A
100
AcDbEntity
  8
WIND
100
AcDbPolyline
 90
4
 70
1
 10
153200
 20
21900
 10
154400
 20
21900
 10
154400
 20
23100
 10
153200
 20
23100
  0
LWPOLYLINE
  5
58B
100
AcDbEntity
  8
WIND
100
AcDbPolyline
 90
4
 70
1
 10
158200
 20
21900
 10
159400
 20
21900
 10
159400
 20
23100
 10
158200
 20
23100
  0
LINE
  5
58C
100
AcDbEntity
  8
WALL
100
AcDbLine
 10
133800
 20
24000
 30
0
 11
163800
 21
24000
 31
0
  0
TEXT
  5
58D
100
AcDbEntity
  8
TEXT
100
AcDbText
 10
164700
 20
24000
 30
0
 40
250
  1
+24450 LEVEL 8
100
AcDbText
  0
LWPOLYLINE
  5
58E
100
AcDbEntity
  8
WIND
100
AcDbPolyline
 90
4
 70
1
 10
138200
 20
24900
 10
139400
 20
24900
 10
139400
 20
26100
 10
138200
 20
26100
  0
LWPOLYLINE
  5
58F
100
AcDbEntity
  8
WIND
100
AcDbPolyline
 90
4
 70
1
 10
143200
 20
24900
 10
144400
 20
24900
 10
144400
 20
26100
 10
143200
 20
26100
  0
LWPOLYLINE
  5
590
100
AcDbEntity
  8
WIND
100
AcDbPolyline
 90
4
 70
1
 10
148200
 20
24900
 10
149400
 20
24900
 10
149400
 20
26100
 10
148200
 20
26100
  0
LWPOLYLINE
  5
591
100
AcDbEntity
  8
WIND
100
AcDbPolyline
 90
4
 70
1
 10
153200
 20
24900
 10
154400
 20
24900
 10
154400
 20
26100
 10
153200
 20
26100
  0
LWPOLYLINE
  5
592
100
AcDbEntity
  8
WIND
100
AcDbPolyline
 90
4
 70
1
 10
158200
 20
24900
 10
159400
 20
24900
 10
159400
 20
26100
 10
158200
 20
26100
  0
LINE
  5
593
100
AcDbEntity
  8
WALL
100
AcDbLine
 10
133800
 20
27000
 30
0
 11
163800
 21
27000
 31
0
  0
TEXT
  5
594
100
AcDbEntity
  8
TEXT
100
AcDbText
 10
164700
 20
27000
 30
0
 40
250
  1
+27450 LEVEL 9
100
AcDbText
  0
LWPOLYLINE
  5
595
100
AcDbEntity
  8
WIND
100
AcDbPolyline
 90
4
 70
1
 10
138200
 20
27900
 10
139400
 20
27900
 10
139400
 20
29100
 10
138200
 20
29100
  0
LWPOLYLINE
  5
596
100
AcDbEntity
  8
WIND
100
AcDbPolyline
 90
4
 70
1
 10
143200
 20
27900
 10
144400
 20
27900
 10
144400
 20
29100
 10
143200
 20
29100
  0
LWPOLYLINE
  5
597
100
AcDbEntity
  8
WIND
100
AcDbPolyline
 90
4
 70
1
 10
148200
 20
27900
 10
149400
 20
27900
 10
149400
 20
29100
 10
148200
 20
29100
  0
LWPOLYLINE
  5
598
100
AcDbEntity
  8
WIND
100
AcDbPolyline
 90
4
 70
1
 10
153200
 20
27900
 10
154400
 20
27900
 10
154400
 20
29100
 10
153200
 20
29100
  0
LWPOLYLINE
  5
599
100
AcDbEntity
  8
WIND
100
AcDbPolyline
 90
4
 70
1
 10
158200
 20
27900
 10
159400
 20
27900
 10
159400
 20
29100
 10
158200
 20
29100
  0
LINE
  5
59A
100
AcDbEntity
  8
WALL
100
AcDbLine
 10
133800
 20
30000
 30
0
 11
163800
 21
30000
 31
0
  0
TEXT
  5
59B
100
AcDbEntity
  8
TEXT
100
AcDbText
 10
164700
 20
30000
 30
0
 40
250
  1
+30450 LEVEL 10
100
AcDbText
  0
LWPOLYLINE
  5
59C
100
AcDbEntity
  8
WIND
100
AcDbPolyline
 90
4
 70
1
 10
138200
 20
30900
 10
139400
 20
30900
 10
139400
 20
32100
 10
138200
 20
32100
  0
LWPOLYLINE
  5
59D
100
AcDbEntity
  8
WIND
100
AcDbPolyline
 90
4
 70
1
 10
143200
 20
30900
 10
144400
 20
30900
 10
144400
 20
32100
 10
143200
 20
32100
  0
LWPOLYLINE
  5
59E
100
AcDbEntity
  8
WIND
100
AcDbPolyline
 90
4
 70
1
 10
148200
 20
30900
 10
149400
 20
30900
 10
149400
 20
32100
 10
148200
 20
32100
  0
LWPOLYLINE
  5
59F
100
AcDbEntity
  8
WIND
100
AcDbPolyline
 90
4
 70
1
 10
153200
 20
30900
 10
154400
 20
30900
 10
154400
 20
32100
 10
153200
 20
32100
  0
LWPOLYLINE
  5
5A0
100
AcDbEntity
  8
WIND
100
AcDbPolyline
 90
4
 70
1
 10
158200
 20
30900
 10
159400
 20
30900
 10
159400
 20
32100
 10
158200
 20
32100
  0
LINE
  5
5A1
100
AcDbEntity
  8
WALL
100
AcDbLine
 10
133800
 20
33000
 30
0
 11
163800
 21
33000
 31
0
  0
TEXT
  5
5A2
100
AcDbEntity
  8
TEXT
100
AcDbText
 10
164700
 20
33000
 30
0
 40
250
  1
+33450 LEVEL 11
100
AcDbText
  0
LWPOLYLINE
  5
5A3
100
AcDbEntity
  8
WIND
100
AcDbPolyline
 90
4
 70
1
 10
138200
 20
33900
 10
139400
 20
33900
 10
139400
 20
35100
 10
138200
 20
35100
  0
LWPOLYLINE
  5
5A4
100
AcDbEntity
  8
WIND
100
AcDbPolyline
 90
4
 70
1
 10
143200
 20
33900
 10
144400
 20
33900
 10
144400
 20
35100
 10
143200
 20
35100
  0
LWPOLYLINE
  5
5A5
100
AcDbEntity
  8
WIND
100
AcDbPolyline
 90
4
 70
1
 10
148200
 20
33900
 10
149400
 20
33900
 10
149400
 20
35100
 10
148200
 20
35100
  0
LWPOLYLINE
  5
5A6
100
AcDbEntity
  8
WIND
100
AcDbPolyline
 90
4
 70
1
 10
153200
 20
33900
 10
154400
 20
33900
 10
154400
 20
35100
 10
153200
 20
35100
  0
LWPOLYLINE
  5
5A7
100
AcDbEntity
  8
WIND
100
AcDbPolyline
 90
4
 70
1
 10
158200
 20
33900
 10
159400
 20
33900
 10
159400
 20
35100
 10
158200
 20
35100
  0
LINE
  5
5A8
100
AcDbEntity
  8
WALL
100
AcDbLine
 10
133800
 20
36000
 30
0
 11
163800
 21
36000
 31
0
  0
TEXT
  5
5A9
100
AcDbEntity
  8
TEXT
100
AcDbText
 10
164700
 20
36000
 30
0
 40
250
  1
+36450 LEVEL 12
100
AcDbText
  0
LWPOLYLINE
  5
5AA
100
AcDbEntity
  8
WIND
100
AcDbPolyline
 90
4
 70
1
 10
138200
 20
36900
 10
139400
 20
36900
 10
139400
 20
38100
 10
138200
 20
38100
  0
LWPOLYLINE
  5
5AB
100
AcDbEntity
  8
WIND
100
AcDbPolyline
 90
4
 70
1
 10
143200
 20
36900
 10
144400
 20
36900
 10
144400
 20
38100
 10
143200
 20
38100
  0
LWPOLYLINE
  5
5AC
100
AcDbEntity
  8
WIND
100
AcDbPolyline
 90
4
 70
1
 10
148200
 20
36900
 10
149400
 20
36900
 10
149400
 20
38100
 10
148200
 20
38100
  0
LWPOLYLINE
  5
5AD
100
AcDbEntity
  8
WIND
100
AcDbPolyline
 90
4
 70
1
 10
153200
 20
36900
 10
154400
 20
36900
 10
154400
 20
38100
 10
153200
 20
38100
  0
LWPOLYLINE
  5
5AE
100
AcDbEntity
  8
WIND
100
AcDbPolyline
 90
4
 70
1
 10
158200
 20
36900
 10
159400
 20
36900
 10
159400
 20
38100
 10
158200
 20
38100
  0
LINE
  5
5AF
100
AcDbEntity
  8
WALL
100
AcDbLine
 10
133800
 20
39000
 30
0
 11
163800
 21
39000
 31
0
  0
TEXT
  5
5B0
100
AcDbEntity
  8
TEXT
100
AcDbText
 10
164700
 20
39000
 30
0
 40
250
  1
+39450 LEVEL 13
100
AcDbText
  0
LWPOLYLINE
  5
5B1
100
AcDbEntity
  8
WIND
100
AcDbPolyline
 90
4
 70
1
 10
138200
 20
39900
 10
139400
 20
39900
 10
139400
 20
41100
 10
138200
 20
41100
  0
LWPOLYLINE
  5
5B2
100
AcDbEntity
  8
WIND
100
AcDbPolyline
 90
4
 70
1
 10
143200
 20
39900
 10
144400
 20
39900
 10
144400
 20
41100
 10
143200
 20
41100
  0
LWPOLYLINE
  5
5B3
100
AcDbEntity
  8
WIND
100
AcDbPolyline
 90
4
 70
1
 10
148200
 20
39900
 10
149400
 20
39900
 10
149400
 20
41100
 10
148200
 20
41100
  0
LWPOLYLINE
  5
5B4
100
AcDbEntity
  8
WIND
100
AcDbPolyline
 90
4
 70
1
 10
153200
 20
39900
 10
154400
 20
39900
 10
154400
 20
41100
 10
153200
 20
41100
  0
LWPOLYLINE
  5
5B5
100
AcDbEntity
  8
WIND
100
AcDbPolyline
 90
4
 70
1
 10
158200
 20
39900
 10
159400
 20
39900
 10
159400
 20
41100
 10
158200
 20
41100
  0
LINE
  5
5B6
100
AcDbEntity
  8
WALL
100
AcDbLine
 10
133800
 20
42000
 30
0
 11
163800
 21
42000
 31
0
  0
TEXT
  5
5B7
100
AcDbEntity
  8
TEXT
100
AcDbText
 10
164700
 20
42000
 30
0
 40
250
  1
+42450 LEVEL 14
100
AcDbText
  0
LWPOLYLINE
  5
5B8
100
AcDbEntity
  8
WIND
100
AcDbPolyline
 90
4
 70
1
 10
138200
 20
42900
 10
139400
 20
42900
 10
139400
 20
44100
 10
138200
 20
44100
  0
LWPOLYLINE
  5
5B9
100
AcDbEntity
  8
WIND
100
AcDbPolyline
 90
4
 70
1
 10
143200
 20
42900
 10
144400
 20
42900
 10
144400
 20
44100
 10
143200
 20
44100
  0
LWPOLYLINE
  5
5BA
100
AcDbEntity
  8
WIND
100
AcDbPolyline
 90
4
 70
1
 10
148200
 20
42900
 10
149400
 20
42900
 10
149400
 20
44100
 10
148200
 20
44100
  0
LWPOLYLINE
  5
5BB
100
AcDbEntity
  8
WIND
100
AcDbPolyline
 90
4
 70
1
 10
153200
 20
42900
 10
154400
 20
42900
 10
154400
 20
44100
 10
153200
 20
44100
  0
LWPOLYLINE
  5
5BC
100
AcDbEntity
  8
WIND
100
AcDbPolyline
 90
4
 70
1
 10
158200
 20
42900
 10
159400
 20
42900
 10
159400
 20
44100
 10
158200
 20
44100
  0
LINE
  5
5BD
100
AcDbEntity
  8
WALL
100
AcDbLine
 10
133800
 20
45000
 30
0
 11
163800
 21
45000
 31
0
  0
TEXT
  5
5BE
100
AcDbEntity
  8
TEXT
100
AcDbText
 10
164700
 20
45000
 30
0
 40
250
  1
+45450 LEVEL 15
100
AcDbText
  0
LWPOLYLINE
  5
5BF
100
AcDbEntity
  8
WIND
100
AcDbPolyline
 90
4
 70
1
 10
138200
 20
45900
 10
139400
 20
45900
 10
139400
 20
47100
 10
138200
 20
47100
  0
LWPOLYLINE
  5
5C0
100
AcDbEntity
  8
WIND
100
AcDbPolyline
 90
4
 70
1
 10
143200
 20
45900
 10
144400
 20
45900
 10
144400
 20
47100
 10
143200
 20
47100
  0
LWPOLYLINE
  5
5C1
100
AcDbEntity
  8
WIND
100
AcDbPolyline
 90
4
 70
1
 10
148200
 20
45900
 10
149400
 20
45900
 10
149400
 20
47100
 10
148200
 20
47100
  0
LWPOLYLINE
  5
5C2
100
AcDbEntity
  8
WIND
100
AcDbPolyline
 90
4
 70
1
 10
153200
 20
45900
 10
154400
 20
45900
 10
154400
 20
47100
 10
153200
 20
47100
  0
LWPOLYLINE
  5
5C3
100
AcDbEntity
  8
WIND
100
AcDbPolyline
 90
4
 70
1
 10
158200
 20
45900
 10
159400
 20
45900
 10
159400
 20
47100
 10
158200
 20
47100
  0
LINE
  5
5C4
100
AcDbEntity
  8
WALL
100
AcDbLine
 10
133800
 20
48000
 30
0
 11
163800
 21
48000
 31
0
  0
TEXT
  5
5C5
100
AcDbEntity
  8
TEXT
100
AcDbText
 10
164700
 20
48000
 30
0
 40
250
  1
+48450 LEVEL 16
100
AcDbText
  0
LWPOLYLINE
  5
5C6
100
AcDbEntity
  8
WIND
100
AcDbPolyline
 90
4
 70
1
 10
138200
 20
48900
 10
139400
 20
48900
 10
139400
 20
50100
 10
138200
 20
50100
  0
LWPOLYLINE
  5
5C7
100
AcDbEntity
  8
WIND
100
AcDbPolyline
 90
4
 70
1
 10
143200
 20
48900
 10
144400
 20
48900
 10
144400
 20
50100
 10
143200
 20
50100
  0
LWPOLYLINE
  5
5C8
100
AcDbEntity
  8
WIND
100
AcDbPolyline
 90
4
 70
1
 10
148200
 20
48900
 10
149400
 20
48900
 10
149400
 20
50100
 10
148200
 20
50100
  0
LWPOLYLINE
  5
5C9
100
AcDbEntity
  8
WIND
100
AcDbPolyline
 90
4
 70
1
 10
153200
 20
48900
 10
154400
 20
48900
 10
154400
 20
50100
 10
153200
 20
50100
  0
LWPOLYLINE
  5
5CA
100
AcDbEntity
  8
WIND
100
AcDbPolyline
 90
4
 70
1
 10
158200
 20
48900
 10
159400
 20
48900
 10
159400
 20
50100
 10
158200
 20
50100
  0
LINE
  5
5CB
100
AcDbEntity
  8
WALL
100
AcDbLine
 10
133800
 20
51000
 30
0
 11
163800
 21
51000
 31
0
  0
TEXT
  5
5CC
100
AcDbEntity
  8
TEXT
100
AcDbText
 10
164700
 20
51000
 30
0
 40
250
  1
+51450 LEVEL 17
100
AcDbText
  0
LWPOLYLINE
  5
5CD
100
AcDbEntity
  8
WIND
100
AcDbPolyline
 90
4
 70
1
 10
138200
 20
51900
 10
139400
 20
51900
 10
139400
 20
53100
 10
138200
 20
53100
  0
LWPOLYLINE
  5
5CE
100
AcDbEntity
  8
WIND
100
AcDbPolyline
 90
4
 70
1
 10
143200
 20
51900
 10
144400
 20
51900
 10
144400
 20
53100
 10
143200
 20
53100
  0
LWPOLYLINE
  5
5CF
100
AcDbEntity
  8
WIND
100
AcDbPolyline
 90
4
 70
1
 10
148200
 20
51900
 10
149400
 20
51900
 10
149400
 20
53100
 10
148200
 20
53100
  0
LWPOLYLINE
  5
5D0
100
AcDbEntity
  8
WIND
100
AcDbPolyline
 90
4
 70
1
 10
153200
 20
51900
 10
154400
 20
51900
 10
154400
 20
53100
 10
153200
 20
53100
  0
LWPOLYLINE
  5
5D1
100
AcDbEntity
  8
WIND
100
AcDbPolyline
 90
4
 70
1
 10
158200
 20
51900
 10
159400
 20
51900
 10
159400
 20
53100
 10
158200
 20
53100
  0
LINE
  5
5D2
100
AcDbEntity
  8
WALL
100
AcDbLine
 10
133800
 20
54000
 30
0
 11
163800
 21
54000
 31
0
  0
TEXT
  5
5D3
100
AcDbEntity
  8
TEXT
100
AcDbText
 10
164700
 20
54000
 30
0
 40
250
  1
+54450 LEVEL 18
100
AcDbText
  0
LWPOLYLINE
  5
5D4
100
AcDbEntity
  8
WIND
100
AcDbPolyline
 90
4
 70
1
 10
138200
 20
54900
 10
139400
 20
54900
 10
139400
 20
56100
 10
138200
 20
56100
  0
LWPOLYLINE
  5
5D5
100
AcDbEntity
  8
WIND
100
AcDbPolyline
 90
4
 70
1
 10
143200
 20
54900
 10
144400
 20
54900
 10
144400
 20
56100
 10
143200
 20
56100
  0
LWPOLYLINE
  5
5D6
100
AcDbEntity
  8
WIND
100
AcDbPolyline
 90
4
 70
1
 10
148200
 20
54900
 10
149400
 20
54900
 10
149400
 20
56100
 10
148200
 20
56100
  0
LWPOLYLINE
  5
5D7
100
AcDbEntity
  8
WIND
100
AcDbPolyline
 90
4
 70
1
 10
153200
 20
54900
 10
154400
 20
54900
 10
154400
 20
56100
 10
153200
 20
56100
  0
LWPOLYLINE
  5
5D8
100
AcDbEntity
  8
WIND
100
AcDbPolyline
 90
4
 70
1
 10
158200
 20
54900
 10
159400
 20
54900
 10
159400
 20
56100
 10
158200
 20
56100
  0
LINE
  5
5D9
100
AcDbEntity
  8
WALL
100
AcDbLine
 10
133800
 20
57000
 30
0
 11
163800
 21
57000
 31
0
  0
TEXT
  5
5DA
100
AcDbEntity
  8
TEXT
100
AcDbText
 10
164700
 20
57000
 30
0
 40
250
  1
+57450 LEVEL 19
100
AcDbText
  0
LWPOLYLINE
  5
5DB
100
AcDbEntity
  8
WIND
100
AcDbPolyline
 90
4
 70
1
 10
138200
 20
57900
 10
139400
 20
57900
 10
139400
 20
59100
 10
138200
 20
59100
  0
LWPOLYLINE
  5
5DC
100
AcDbEntity
  8
WIND
100
AcDbPolyline
 90
4
 70
1
 10
143200
 20
57900
 10
144400
 20
57900
 10
144400
 20
59100
 10
143200
 20
59100
  0
LWPOLYLINE
  5
5DD
100
AcDbEntity
  8
WIND
100
AcDbPolyline
 90
4
 70
1
 10
148200
 20
57900
 10
149400
 20
57900
 10
149400
 20
59100
 10
148200
 20
59100
  0
LWPOLYLINE
  5
5DE
100
AcDbEntity
  8
WIND
100
AcDbPolyline
 90
4
 70
1
 10
153200
 20
57900
 10
154400
 20
57900
 10
154400
 20
59100
 10
153200
 20
59100
  0
LWPOLYLINE
  5
5DF
100
AcDbEntity
  8
WIND
100
AcDbPolyline
 90
4
 70
1
 10
158200
 20
57900
 10
159400
 20
57900
 10
159400
 20
59100
 10
158200
 20
59100
  0
LINE
  5
5E0
100
AcDbEntity
  8
WALL
100
AcDbLine
 10
133800
 20
60000
 30
0
 11
163800
 21
60000
 31
0
  0
TEXT
  5
5E1
100
AcDbEntity
  8
TEXT
100
AcDbText
 10
164700
 20
60000
 30
0
 40
250
  1
+60450 ROOF LEVEL
100
AcDbText
  0
TEXT
  5
5E2
100
AcDbEntity
  8
TEXT
100
AcDbText
 10
133800
 20
-3200
 30
0
 40
450
  1
NORTH ELEVATION
100
AcDbText
  0
LINE
  5
5E3
100
AcDbEntity
  8
0
100
AcDbLine
 10
130800
 20
-11200
 30
0
 11
186700
 21
-11200
 31
0
  0
LINE
  5
5E4
100
AcDbEntity
  8
0
100
AcDbLine
 10
186700
 20
-11200
 30
0
 11
186700
 21
65200
 31
0
  0
LINE
  5
5E5
100
AcDbEntity
  8
0
100
AcDbLine
 10
186700
 20
65200
 30
0
 11
130800
 21
65200
 31
0
  0
LINE
  5
5E6
100
AcDbEntity
  8
0
100
AcDbLine
 10
130800
 20
65200
 30
0
 11
130800
 21
-11200
 31
0
  0
INSERT
  5
5E7
100
AcDbEntity
  8
0
100
AcDbBlockReference
  2
TITLEBLOCK-A1
 10
168700
 20
-11200
 30
0
 41
1
 42
1
 43
1
 50
0
  0
TEXT
  5
5E8
100
AcDbEntity
  8
0
100
AcDbText
 10
181000
 20
-7400
 30
0
 40
300
  1
DRAWING: NORTH ELEVATION
100
AcDbText
  0
TEXT
  5
5E9
100
AcDbEntity
  8
0
100
AcDbText
 10
181000
 20
-8300
 30
0
 40
300
  1
DRG NO A-103
100
AcDbText
  0
LINE
  5
5EA
100
AcDbEntity
  8
0
100
AcDbLine
 10
132800
 20
-9200
 30
0
 11
142800
 21
-9200
 31
0
  0
LINE
  5
5EB
100
AcDbEntity
  8
0
100
AcDbLine
 10
132800
 20
-8900
 30
0
 11
142800
 21
-8900
 31
0
  0
LINE
  5
5EC
100
AcDbEntity
  8
0
100
AcDbLine
 10
132800
 20
-9200
 30
0
 11
132800
 21
-8900
 31
0
  0
LINE
  5
5ED
100
AcDbEntity
  8
0
100
AcDbLine
 10
133800
 20
-9200
 30
0
 11
133800
 21
-8900
 31
0
  0
LINE
  5
5EE
100
AcDbEntity
  8
0
100
AcDbLine
 10
134800
 20
-9200
 30
0
 11
134800
 21
-8900
 31
0
  0
LINE
  5
5EF
100
AcDbEntity
  8
0
100
AcDbLine
 10
135800
 20
-9200
 30
0
 11
135800
 21
-8900
 31
0
  0
LINE
  5
5F0
100
AcDbEntity
  8
0
100
AcDbLine
 10
136800
 20
-9200
 30
0
 11
136800
 21
-8900
 31
0
  0
LINE
  5
5F1
100
AcDbEntity
  8
0
100
AcDbLine
 10
137800
 20
-9200
 30
0
 11
137800
 21
-8900
 31
0
  0
LINE
  5
5F2
100
AcDbEntity
  8
0
100
AcDbLine
 10
138800
 20
-9200
 30
0
 11
138800
 21
-8900
 31
0
  0
LINE
  5
5F3
100
AcDbEntity
  8
0
100
AcDbLine
 10
139800
 20
-9200
 30
0
 11
139800
 21
-8900
 31
0
  0
LINE
  5
5F4
100
AcDbEntity
  8
0
100
AcDbLine
 10
140800
 20
-9200
 30
0
 11
140800
 21
-8900
 31
0
  0
LINE
  5
5F5
100
AcDbEntity
  8
0
100
AcDbLine
 10
141800
 20
-9200
 30
0
 11
141800
 21
-8900
 31
0
  0
LINE
  5
5F6
100
AcDbEntity
  8
0
100
AcDbLine
 10
142800
 20
-9200
 30
0
 11
142800
 21
-8900
 31
0
  0
TEXT
  5
5F7
100
AcDbEntity
  8
0
100
AcDbText
 10
132700
 20
-8700
 30
0
 40
250
  1
0
100
AcDbText
  0
TEXT
  5
5F8
100
AcDbEntity
  8
0
100
AcDbText
 10
133700
 20
-8700
 30
0
 40
250
  1
1
100
AcDbText
  0
TEXT
  5
5F9
100
AcDbEntity
  8
0
100
AcDbText
 10
134700
 20
-8700
 30
0
 40
250
  1
2
100
AcDbText
  0
TEXT
  5
5FA
100
AcDbEntity
  8
0
100
AcDbText
 10
137700
 20
-8700
 30
0
 40
250
  1
5
100
AcDbText
  0
TEXT
  5
5FB
100
AcDbEntity
  8
0
100
AcDbText
 10
142700
 20
-8700
 30
0
 40
250
  1
10
100
AcDbText
  0
TEXT
  5
5FC
100
AcDbEntity
  8
0
100
AcDbText
 10
143400
 20
-8700
 30
0
 40
250
  1
m
100
AcDbText
  0
TEXT
  5
5FD
100
AcDbEntity
  8
0
100
AcDbText
 10
132800
 20
-8200
 30
0
 40
250
  1
SCALE BAR 1:100
100
AcDbText
  0
LWPOLYLINE
  5
5FE
100
AcDbEntity
  8
0
100
AcDbPolyline
 90
4
 70
1
 10
183700
 20
61700
 10
184300
 20
63500
 10
183700
 20
63100
 10
183100
 20
63500
  0
TEXT
  5
5FF
100
AcDbEntity
  8
0
100
AcDbText
 10
183550
 20
63800
 30
0
 40
400
  1
N
100
AcDbText
  0
TEXT
  5
600
100
AcDbEntity
  8
0
100
AcDbText
 10
165700
 20
62700
 30
0
 40
250
  1
GENERAL NOTES
100
AcDbText
  0
TEXT
  5
601
100
AcDbEntity
  8
0
100
AcDbText
 10
165700
 20
62100
 30
0
 40
250
  1
1. ALL DIMENSIONS ARE IN MILLIMETRES.
100
AcDbText
  0
TEXT
  5
602
100
AcDbEntity
  8
0
100
AcDbText
 10
165700
 20
61500
 30
0
 40
250
  1
2. SLAB THICKNESS 150 UNLESS NOTED.
100
AcDbText
  0
TEXT
  5
603
100
AcDbEntity
  8
0
100
AcDbText
 10
165700
 20
60900
 30
0
 40
250
  1
3. COLUMNS 230 X 230 TO ENGINEER'S DETAILS.
100
AcDbText
  0
TEXT
  5
604
100
AcDbEntity
  8
0
100
AcDbText
 10
165700
 20
60300
 30
0
 40
250
  1
4. WINDOW SILL LEVEL 900 ABOVE FFL.
100
AcDbText
  0
TEXT
  5
605
100
AcDbEntity
  8
0
100
AcDbText
 10
165700
 20
59700
 30
0
 40
250
  1
5. DOOR HEIGHT 2100 UNLESS NOTED.
100
AcDbText
  0
TEXT
  5
606
100
AcDbEntity
  8
0
100
AcDbText
 10
165700
 20
59100
 30
0
 40
250
  1
6. CONCRETE GRADE 25 COVER 40.
100
AcDbText
  0
TEXT
  5
607
100
AcDbEntity
  8
0
100
AcDbText
 10
165700
 20
58500
 30
0
 40
250
  1
7. LINTEL 225 X 150 OVER ALL OPENINGS.
100
AcDbText
  0
TEXT
  5
608
100
AcDbEntity
  8
0
100
AcDbText
 10
165700
 20
57900
 30
0
 40
250
  1
8. DO NOT SCALE OFF THIS DRAWING.
100
AcDbText
  0
LINE
  5
609
100
AcDbEntity
  8
WALL
100
AcDbLine
370
50
 10
195700
 20
0
 30
0
 11
225700
 21
0
 31
0
  0
LINE
  5
60A
100
AcDbEntity
  8
WALL
100
AcDbLine
370
50
 10
225700
 20
0
 30
0
 11
225700
 21
61200
 31
0
  0
LINE
  5
60B
100
AcDbEntity
  8
WALL
100
AcDbLine
370
50
 10
225700
 20
61200
 30
0
 11
195700
 21
61200
 31
0
  0
LINE
  5
60C
100
AcDbEntity
  8
WALL
100
AcDbLine
370
50
 10
195700
 20
61200
 30
0
 11
195700
 21
0
 31
0
  0
LINE
  5
60D
100
AcDbEntity
  8
WALL
100
AcDbLine
370
50
 10
195700
 20
0
 30
0
 11
225700
 21
0
 31
0
  0
LINE
  5
60E
100
AcDbEntity
  8
WALL
100
AcDbLine
370
50
 10
195700
 20
150
 30
0
 11
225700
 21
150
 31
0
  0
TEXT
  5
60F
100
AcDbEntity
  8
TEXT
100
AcDbText
 10
226600
 20
0
 30
0
 40
250
  1
+450 GROUND FLOOR LEVEL
100
AcDbText
  0
LINE
  5
610
100
AcDbEntity
  8
WALL
100
AcDbLine
370
50
 10
195700
 20
3000
 30
0
 11
225700
 21
3000
 31
0
  0
LINE
  5
611
100
AcDbEntity
  8
WALL
100
AcDbLine
370
50
 10
195700
 20
3150
 30
0
 11
225700
 21
3150
 31
0
  0
TEXT
  5
612
100
AcDbEntity
  8
TEXT
100
AcDbText
 10
226600
 20
3000
 30
0
 40
250
  1
+3450 FIRST FLOOR SLAB
100
AcDbText
  0
LINE
  5
613
100
AcDbEntity
  8
WALL
100
AcDbLine
370
50
 10
195700
 20
6000
 30
0
 11
225700
 21
6000
 31
0
  0
LINE
  5
614
100
AcDbEntity
  8
WALL
100
AcDbLine
370
50
 10
195700
 20
6150
 30
0
 11
225700
 21
6150
 31
0
  0
TEXT
  5
615
100
AcDbEntity
  8
TEXT
100
AcDbText
 10
226600
 20
6000
 30
0
 40
250
  1
+6450 SECOND FLOOR SLAB
100
AcDbText
  0
LINE
  5
616
100
AcDbEntity
  8
WALL
100
AcDbLine
370
50
 10
195700
 20
9000
 30
0
 11
225700
 21
9000
 31
0
  0
LINE
  5
617
100
AcDbEntity
  8
WALL
100
AcDbLine
370
50
 10
195700
 20
9150
 30
0
 11
225700
 21
9150
 31
0
  0
TEXT
  5
618
100
AcDbEntity
  8
TEXT
100
AcDbText
 10
226600
 20
9000
 30
0
 40
250
  1
+9450 THIRD FLOOR SLAB
100
AcDbText
  0
LINE
  5
619
100
AcDbEntity
  8
WALL
100
AcDbLine
370
50
 10
195700
 20
12000
 30
0
 11
225700
 21
12000
 31
0
  0
LINE
  5
61A
100
AcDbEntity
  8
WALL
100
AcDbLine
370
50
 10
195700
 20
12150
 30
0
 11
225700
 21
12150
 31
0
  0
TEXT
  5
61B
100
AcDbEntity
  8
TEXT
100
AcDbText
 10
226600
 20
12000
 30
0
 40
250
  1
+12450 LEVEL 4
100
AcDbText
  0
LINE
  5
61C
100
AcDbEntity
  8
WALL
100
AcDbLine
370
50
 10
195700
 20
15000
 30
0
 11
225700
 21
15000
 31
0
  0
LINE
  5
61D
100
AcDbEntity
  8
WALL
100
AcDbLine
370
50
 10
195700
 20
15150
 30
0
 11
225700
 21
15150
 31
0
  0
TEXT
  5
61E
100
AcDbEntity
  8
TEXT
100
AcDbText
 10
226600
 20
15000
 30
0
 40
250
  1
+15450 LEVEL 5
100
AcDbText
  0
LINE
  5
61F
100
AcDbEntity
  8
WALL
100
AcDbLine
370
50
 10
195700
 20
18000
 30
0
 11
225700
 21
18000
 31
0
  0
LINE
  5
620
100
AcDbEntity
  8
WALL
100
AcDbLine
370
50
 10
195700
 20
18150
 30
0
 11
225700
 21
18150
 31
0
  0
TEXT
  5
621
100
AcDbEntity
  8
TEXT
100
AcDbText
 10
226600
 20
18000
 30
0
 40
250
  1
+18450 LEVEL 6
100
AcDbText
  0
LINE
  5
622
100
AcDbEntity
  8
WALL
100
AcDbLine
370
50
 10
195700
 20
21000
 30
0
 11
225700
 21
21000
 31
0
  0
LINE
  5
623
100
AcDbEntity
  8
WALL
100
AcDbLine
370
50
 10
195700
 20
21150
 30
0
 11
225700
 21
21150
 31
0
  0
TEXT
  5
624
100
AcDbEntity
  8
TEXT
100
AcDbText
 10
226600
 20
21000
 30
0
 40
250
  1
+21450 LEVEL 7
100
AcDbText
  0
LINE
  5
625
100
AcDbEntity
  8
WALL
100
AcDbLine
370
50
 10
195700
 20
24000
 30
0
 11
225700
 21
24000
 31
0
  0
LINE
  5
626
100
AcDbEntity
  8
WALL
100
AcDbLine
370
50
 10
195700
 20
24150
 30
0
 11
225700
 21
24150
 31
0
  0
TEXT
  5
627
100
AcDbEntity
  8
TEXT
100
AcDbText
 10
226600
 20
24000
 30
0
 40
250
  1
+24450 LEVEL 8
100
AcDbText
  0
LINE
  5
628
100
AcDbEntity
  8
WALL
100
AcDbLine
370
50
 10
195700
 20
27000
 30
0
 11
225700
 21
27000
 31
0
  0
LINE
  5
629
100
AcDbEntity
  8
WALL
100
AcDbLine
370
50
 10
195700
 20
27150
 30
0
 11
225700
 21
27150
 31
0
  0
TEXT
  5
62A
100
AcDbEntity
  8
TEXT
100
AcDbText
 10
226600
 20
27000
 30
0
 40
250
  1
+27450 LEVEL 9
100
AcDbText
  0
LINE
  5
62B
100
AcDbEntity
  8
WALL
100
AcDbLine
370
50
 10
195700
 20
30000
 30
0
 11
225700
 21
30000
 31
0
  0
LINE
  5
62C
100
AcDbEntity
  8
WALL
100
AcDbLine
370
50
 10
195700
 20
30150
 30
0
 11
225700
 21
30150
 31
0
  0
TEXT
  5
62D
100
AcDbEntity
  8
TEXT
100
AcDbText
 10
226600
 20
30000
 30
0
 40
250
  1
+30450 LEVEL 10
100
AcDbText
  0
LINE
  5
62E
100
AcDbEntity
  8
WALL
100
AcDbLine
370
50
 10
195700
 20
33000
 30
0
 11
225700
 21
33000
 31
0
  0
LINE
  5
62F
100
AcDbEntity
  8
WALL
100
AcDbLine
370
50
 10
195700
 20
33150
 30
0
 11
225700
 21
33150
 31
0
  0
TEXT
  5
630
100
AcDbEntity
  8
TEXT
100
AcDbText
 10
226600
 20
33000
 30
0
 40
250
  1
+33450 LEVEL 11
100
AcDbText
  0
LINE
  5
631
100
AcDbEntity
  8
WALL
100
AcDbLine
370
50
 10
195700
 20
36000
 30
0
 11
225700
 21
36000
 31
0
  0
LINE
  5
632
100
AcDbEntity
  8
WALL
100
AcDbLine
370
50
 10
195700
 20
36150
 30
0
 11
225700
 21
36150
 31
0
  0
TEXT
  5
633
100
AcDbEntity
  8
TEXT
100
AcDbText
 10
226600
 20
36000
 30
0
 40
250
  1
+36450 LEVEL 12
100
AcDbText
  0
LINE
  5
634
100
AcDbEntity
  8
WALL
100
AcDbLine
370
50
 10
195700
 20
39000
 30
0
 11
225700
 21
39000
 31
0
  0
LINE
  5
635
100
AcDbEntity
  8
WALL
100
AcDbLine
370
50
 10
195700
 20
39150
 30
0
 11
225700
 21
39150
 31
0
  0
TEXT
  5
636
100
AcDbEntity
  8
TEXT
100
AcDbText
 10
226600
 20
39000
 30
0
 40
250
  1
+39450 LEVEL 13
100
AcDbText
  0
LINE
  5
637
100
AcDbEntity
  8
WALL
100
AcDbLine
370
50
 10
195700
 20
42000
 30
0
 11
225700
 21
42000
 31
0
  0
LINE
  5
638
100
AcDbEntity
  8
WALL
100
AcDbLine
370
50
 10
195700
 20
42150
 30
0
 11
225700
 21
42150
 31
0
  0
TEXT
  5
639
100
AcDbEntity
  8
TEXT
100
AcDbText
 10
226600
 20
42000
 30
0
 40
250
  1
+42450 LEVEL 14
100
AcDbText
  0
LINE
  5
63A
100
AcDbEntity
  8
WALL
100
AcDbLine
370
50
 10
195700
 20
45000
 30
0
 11
225700
 21
45000
 31
0
  0
LINE
  5
63B
100
AcDbEntity
  8
WALL
100
AcDbLine
370
50
 10
195700
 20
45150
 30
0
 11
225700
 21
45150
 31
0
  0
TEXT
  5
63C
100
AcDbEntity
  8
TEXT
100
AcDbText
 10
226600
 20
45000
 30
0
 40
250
  1
+45450 LEVEL 15
100
AcDbText
  0
LINE
  5
63D
100
AcDbEntity
  8
WALL
100
AcDbLine
370
50
 10
195700
 20
48000
 30
0
 11
225700
 21
48000
 31
0
  0
LINE
  5
63E
100
AcDbEntity
  8
WALL
100
AcDbLine
370
50
 10
195700
 20
48150
 30
0
 11
225700
 21
48150
 31
0
  0
TEXT
  5
63F
100
AcDbEntity
  8
TEXT
100
AcDbText
 10
226600
 20
48000
 30
0
 40
250
  1
+48450 LEVEL 16
100
AcDbText
  0
LINE
  5
640
100
AcDbEntity
  8
WALL
100
AcDbLine
370
50
 10
195700
 20
51000
 30
0
 11
225700
 21
51000
 31
0
  0
LINE
  5
641
100
AcDbEntity
  8
WALL
100
AcDbLine
370
50
 10
195700
 20
51150
 30
0
 11
225700
 21
51150
 31
0
  0
TEXT
  5
642
100
AcDbEntity
  8
TEXT
100
AcDbText
 10
226600
 20
51000
 30
0
 40
250
  1
+51450 LEVEL 17
100
AcDbText
  0
LINE
  5
643
100
AcDbEntity
  8
WALL
100
AcDbLine
370
50
 10
195700
 20
54000
 30
0
 11
225700
 21
54000
 31
0
  0
LINE
  5
644
100
AcDbEntity
  8
WALL
100
AcDbLine
370
50
 10
195700
 20
54150
 30
0
 11
225700
 21
54150
 31
0
  0
TEXT
  5
645
100
AcDbEntity
  8
TEXT
100
AcDbText
 10
226600
 20
54000
 30
0
 40
250
  1
+54450 LEVEL 18
100
AcDbText
  0
LINE
  5
646
100
AcDbEntity
  8
WALL
100
AcDbLine
370
50
 10
195700
 20
57000
 30
0
 11
225700
 21
57000
 31
0
  0
LINE
  5
647
100
AcDbEntity
  8
WALL
100
AcDbLine
370
50
 10
195700
 20
57150
 30
0
 11
225700
 21
57150
 31
0
  0
TEXT
  5
648
100
AcDbEntity
  8
TEXT
100
AcDbText
 10
226600
 20
57000
 30
0
 40
250
  1
+57450 LEVEL 19
100
AcDbText
  0
LINE
  5
649
100
AcDbEntity
  8
WALL
100
AcDbLine
370
50
 10
195700
 20
60000
 30
0
 11
225700
 21
60000
 31
0
  0
LINE
  5
64A
100
AcDbEntity
  8
WALL
100
AcDbLine
370
50
 10
195700
 20
60150
 30
0
 11
225700
 21
60150
 31
0
  0
TEXT
  5
64B
100
AcDbEntity
  8
TEXT
100
AcDbText
 10
226600
 20
60000
 30
0
 40
250
  1
+60450 ROOF LEVEL
100
AcDbText
  0
TEXT
  5
64C
100
AcDbEntity
  8
TEXT
100
AcDbText
 10
196700
 20
1500
 30
0
 40
220
  1
19 NOS RISERS OF 158MM EACH AND TREADS OF 275MM
100
AcDbText
  0
TEXT
  5
64D
100
AcDbEntity
  8
TEXT
100
AcDbText
 10
195700
 20
-3200
 30
0
 40
450
  1
SECTION A-A
100
AcDbText
  0
LINE
  5
64E
100
AcDbEntity
  8
0
100
AcDbLine
 10
192700
 20
-11200
 30
0
 11
248600
 21
-11200
 31
0
  0
LINE
  5
64F
100
AcDbEntity
  8
0
100
AcDbLine
 10
248600
 20
-11200
 30
0
 11
248600
 21
65200
 31
0
  0
LINE
  5
650
100
AcDbEntity
  8
0
100
AcDbLine
 10
248600
 20
65200
 30
0
 11
192700
 21
65200
 31
0
  0
LINE
  5
651
100
AcDbEntity
  8
0
100
AcDbLine
 10
192700
 20
65200
 30
0
 11
192700
 21
-11200
 31
0
  0
INSERT
  5
652
100
AcDbEntity
  8
0
100
AcDbBlockReference
  2
TITLEBLOCK-A1
 10
230600
 20
-11200
 30
0
 41
1
 42
1
 43
1
 50
0
  0
TEXT
  5
653
100
AcDbEntity
  8
0
100
AcDbText
 10
242900
 20
-7400
 30
0
 40
300
  1
DRAWING: SECTION A-A
100
AcDbText
  0
TEXT
  5
654
100
AcDbEntity
  8
0
100
AcDbText
 10
242900
 20
-8300
 30
0
 40
300
  1
DRG NO A-104
100
AcDbText
  0
LINE
  5
655
100
AcDbEntity
  8
0
100
AcDbLine
 10
194700
 20
-9200
 30
0
 11
204700
 21
-9200
 31
0
  0
LINE
  5
656
100
AcDbEntity
  8
0
100
AcDbLine
 10
194700
 20
-8900
 30
0
 11
204700
 21
-8900
 31
0
  0
LINE
  5
657
100
AcDbEntity
  8
0
100
AcDbLine
 10
194700
 20
-9200
 30
0
 11
194700
 21
-8900
 31
0
  0
LINE
  5
658
100
AcDbEntity
  8
0
100
AcDbLine
 10
195700
 20
-9200
 30
0
 11
195700
 21
-8900
 31
0
  0
LINE
  5
659
100
AcDbEntity
  8
0
100
AcDbLine
 10
196700
 20
-9200
 30
0
 11
196700
 21
-8900
 31
0
  0
LINE
  5
65A
100
AcDbEntity
  8
0
100
AcDbLine
 10
197700
 20
-9200
 30
0
 11
197700
 21
-8900
 31
0
  0
LINE
  5
65B
100
AcDbEntity
  8
0
100
AcDbLine
 10
198700
 20
-9200
 30
0
 11
198700
 21
-8900
 31
0
  0
LINE
  5
65C
100
AcDbEntity
  8
0
100
AcDbLine
 10
199700
 20
-9200
 30
0
 11
199700
 21
-8900
 31
0
  0
LINE
  5
65D
100
AcDbEntity
  8
0
100
AcDbLine
 10
200700
 20
-9200
 30
0
 11
200700
 21
-8900
 31
0
  0
LINE
  5
65E
100
AcDbEntity
  8
0
100
AcDbLine
 10
201700
 20
-9200
 30
0
 11
201700
 21
-8900
 31
0
  0
LINE
  5
65F
100
AcDbEntity
  8
0
100
AcDbLine
 10
202700
 20
-9200
 30
0
 11
202700
 21
-8900
 31
0
  0
LINE
  5
660
100
AcDbEntity
  8
0
100
AcDbLine
 10
203700
 20
-9200
 30
0
 11
203700
 21
-8900
 31
0
  0
LINE
  5
661
100
AcDbEntity
  8
0
100
AcDbLine
 10
204700
 20
-9200
 30
0
 11
204700
 21
-8900
 31
0
  0
TEXT
  5
662
100
AcDbEntity
  8
0
100
AcDbText
 10
194600
 20
-8700
 30
0
 40
250
  1
0
100
AcDbText
  0
TEXT
  5
663
100
AcDbEntity
  8
0
100
AcDbText
 10
195600
 20
-8700
 30
0
 40
250
  1
1
100
AcDbText
  0
TEXT
  5
664
100
AcDbEntity
  8
0
100
AcDbText
 10
196600
 20
-8700
 30
0
 40
250
  1
2
100
AcDbText
  0
TEXT
  5
665
100
AcDbEntity
  8
0
100
AcDbText
 10
199600
 20
-8700
 30
0
 40
250
  1
5
100
AcDbText
  0
TEXT
  5
666
100
AcDbEntity
  8
0
100
AcDbText
 10
204600
 20
-8700
 30
0
 40
250
  1
10
100
AcDbText
  0
TEXT
  5
667
100
AcDbEntity
  8
0
100
AcDbText
 10
205300
 20
-8700
 30
0
 40
250
  1
m
100
AcDbText
  0
TEXT
  5
668
100
AcDbEntity
  8
0
100
AcDbText
 10
194700
 20
-8200
 30
0
 40
250
  1
SCALE BAR 1:100
100
AcDbText
  0
LWPOLYLINE
  5
669
100
AcDbEntity
  8
0
100
AcDbPolyline
 90
4
 70
1
 10
245600
 20
61700
 10
246200
 20
63500
 10
245600
 20
63100
 10
245000
 20
63500
  0
TEXT
  5
66A
100
AcDbEntity
  8
0
100
AcDbText
 10
245450
 20
63800
 30
0
 40
400
  1
N
100
AcDbText
  0
TEXT
  5
66B
100
AcDbEntity
  8
0
100
AcDbText
 10
227600
 20
62700
 30
0
 40
250
  1
GENERAL NOTES
100
AcDbText
  0
TEXT
  5
66C
100
AcDbEntity
  8
0
100
AcDbText
 10
227600
 20
62100
 30
0
 40
250
  1
1. ALL DIMENSIONS ARE IN MILLIMETRES.
100
AcDbText
  0
TEXT
  5
66D
100
AcDbEntity
  8
0
100
AcDbText
 10
227600
 20
61500
 30
0
 40
250
  1
2. SLAB THICKNESS 150 UNLESS NOTED.
100
AcDbText
  0
TEXT
  5
66E
100
AcDbEntity
  8
0
100
AcDbText
 10
227600
 20
60900
 30
0
 40
250
  1
3. COLUMNS 230 X 230 TO ENGINEER'S DETAILS.
100
AcDbText
  0
TEXT
  5
66F
100
AcDbEntity
  8
0
100
AcDbText
 10
227600
 20
60300
 30
0
 40
250
  1
4. WINDOW SILL LEVEL 900 ABOVE FFL.
100
AcDbText
  0
TEXT
  5
670
100
AcDbEntity
  8
0
100
AcDbText
 10
227600
 20
59700
 30
0
 40
250
  1
5. DOOR HEIGHT 2100 UNLESS NOTED.
100
AcDbText
  0
TEXT
  5
671
100
AcDbEntity
  8
0
100
AcDbText
 10
227600
 20
59100
 30
0
 40
250
  1
6. CONCRETE GRADE 25 COVER 40.
100
AcDbText
  0
TEXT
  5
672
100
AcDbEntity
  8
0
100
AcDbText
 10
227600
 20
58500
 30
0
 40
250
  1
7. LINTEL 225 X 150 OVER ALL OPENINGS.
100
AcDbText
  0
TEXT
  5
673
100
AcDbEntity
  8
0
100
AcDbText
 10
227600
 20
57900
 30
0
 40
250
  1
8. DO NOT SCALE OFF THIS DRAWING.
100
AcDbText
  0
ENDSEC
  0
EOF
