<svg width="18" height="18" viewBox="0 0 18 18" fill="none" xmlns="http://www.w3.org/2000/svg">
<path fill-rule="evenodd" clip-rule="evenodd" d="M2.59835 2.59835C1.5 3.6967 1.5 5.46447 1.5 9C1.5 12.5355 1.5 14.3033 2.59835 15.4017C3.6967 16.5 5.46447 16.5 9 16.5C12.5355 16.5 14.3033 16.5 15.4017 15.4017C16.5 14.3033 16.5 12.5355 16.5 9C16.5 5.46447 16.5 3.6967 15.4017 2.59835C14.3033 1.5 12.5355 1.5 9 1.5C5.46447 1.5 3.6967 1.5 2.59835 2.59835ZM10.3125 7.5C10.3125 7.81066 10.5643 8.0625 10.875 8.0625H11.392L9.88258 9.57192C9.80936 9.64515 9.69064 9.64515 9.61742 9.57192L8.42808 8.38258C7.91551 7.87002 7.08449 7.87002 6.57192 8.38258L4.85225 10.1023C4.63258 10.3219 4.63258 10.6781 4.85225 10.8977C5.07192 11.1174 5.42808 11.1174 5.64775 10.8977L7.36742 9.17808C7.44064 9.10485 7.55936 9.10485 7.63258 9.17808L8.82192 10.3674C9.33449 10.88 10.1655 10.88 10.6781 10.3674L12.1875 8.85799V9.375C12.1875 9.68566 12.4393 9.9375 12.75 9.9375C13.0607 9.9375 13.3125 9.68566 13.3125 9.375V7.5C13.3125 7.18934 13.0607 6.9375 12.75 6.9375H10.875C10.5643 6.9375 10.3125 7.18934 10.3125 7.5Z" fill="#B5B5B5"/>
</svg>
