  0
SECTION
  2
HEADER
  9
$ACADVER
  1
AC1015
  9
$INSUNITS
 70
1
  9
$MEASUREMENT
 70
1
  9
$HANDSEED
  5
FFFF
  0
ENDSEC
  0
SECTION
  2
TABLES
  0
TABLE
  2
LTYPE
  5
2BD
100
AcDbSymbolTable
 70
1
  0
LTYPE
  5
2BE
330
2BD
100
AcDbSymbolTableRecord
100
AcDbLinetypeTableRecord
  2
CONTINUOUS
 70
0
  3
Solid line
 72
65
 73
0
 40
0
  0
ENDTAB
  0
TABLE
  2
LAYER
  5
2BF
100
AcDbSymbolTable
 70
8
  0
LAYER
  5
2C0
330
2BF
100
AcDbSymbolTableRecord
100
AcDbLayerTableRecord
  2
0
 70
0
 62
1
  6
CONTINUOUS
  0
LAYER
  5
2C1
330
2BF
100
AcDbSymbolTableRecord
100
AcDbLayerTableRecord
  2
WIND
 70
0
 62
2
  6
CONTINUOUS
  0
LAYER
  5
2C2
330
2BF
100
AcDbSymbolTableRecord
100
AcDbLayerTableRecord
  2
DOOR
 70
0
 62
3
  6
CONTINUOUS
  0
LAYER
  5
2C3
330
2BF
100
AcDbSymbolTableRecord
100
AcDbLayerTableRecord
  2
WALL
 70
0
 62
4
  6
CONTINUOUS
  0
LAYER
  5
2C4
330
2BF
100
AcDbSymbolTableRecord
100
AcDbLayerTableRecord
  2
COLUMN
 70
0
 62
5
  6
CONTINUOUS
  0
LAYER
  5
2C5
330
2BF
100
AcDbSymbolTableRecord
100
AcDbLayerTableRecord
  2
TEXT
 70
0
 62
6
  6
CONTINUOUS
  0
LAYER
  5
2C6
330
2BF
100
AcDbSymbolTableRecord
100
AcDbLayerTableRecord
  2
SANITARY
 70
0
 62
7
  6
CONTINUOUS
  0
LAYER
  5
2C7
330
2BF
100
AcDbSymbolTableRecord
100
AcDbLayerTableRecord
  2
DIM
 70
0
 62
1
  6
CONTINUOUS
  0
ENDTAB
  0
TABLE
  2
BLOCK_RECORD
  5
2C8
100
AcDbSymbolTable
 70
2
  0
BLOCK_RECORD
  5
2C9
330
2C8
100
AcDbSymbolTableRecord
100
AcDbBlockTableRecord
  2
*Model_Space
  0
BLOCK_RECORD
  5
2CA
330
2C8
100
AcDbSymbolTableRecord
100
AcDbBlockTableRecord
  2
*Paper_Space
  0
ENDTAB
  0
ENDSEC
  0
SECTION
  2
BLOCKS
  0
ENDSEC
  0
SECTION
  2
ENTITIES
  0
LWPOLYLINE
  5
100
100
AcDbEntity
  8
WIND
100
AcDbPolyline
 90
4
 70
1
 10
-2.3622
 20
59.0551
 10
2.3622
 20
59.0551
 10
2.3622
 20
106.2992
 10
-2.3622
 20
106.2992
  0
LWPOLYLINE
  5
101
100
AcDbEntity
  8
WIND
100
AcDbPolyline
 90
4
 70
1
 10
-2.3622
 20
188.9764
 10
2.3622
 20
188.9764
 10
2.3622
 20
236.2205
 10
-2.3622
 20
236.2205
  0
LWPOLYLINE
  5
102
100
AcDbEntity
  8
WIND
100
AcDbPolyline
 90
4
 70
1
 10
-2.3622
 20
312.9921
 10
2.3622
 20
312.9921
 10
2.3622
 20
360.2362
 10
-2.3622
 20
360.2362
  0
LWPOLYLINE
  5
103
100
AcDbEntity
  8
WIND
100
AcDbPolyline
 90
4
 70
1
 10
446.4567
 20
59.0551
 10
451.1811
 20
59.0551
 10
451.1811
 20
106.2992
 10
446.4567
 20
106.2992
  0
LWPOLYLINE
  5
104
100
AcDbEntity
  8
WIND
100
AcDbPolyline
 90
4
 70
1
 10
446.4567
 20
188.9764
 10
451.1811
 20
188.9764
 10
451.1811
 20
236.2205
 10
446.4567
 20
236.2205
  0
LWPOLYLINE
  5
105
100
AcDbEntity
  8
WIND
100
AcDbPolyline
 90
4
 70
1
 10
446.4567
 20
312.9921
 10
451.1811
 20
312.9921
 10
451.1811
 20
360.2362
 10
446.4567
 20
360.2362
  0
LWPOLYLINE
  5
106
100
AcDbEntity
  8
WIND
100
AcDbPolyline
 90
4
 70
1
 10
64.9606
 20
-2.3622
 10
112.2047
 20
-2.3622
 10
112.2047
 20
2.3622
 10
64.9606
 20
2.3622
  0
LWPOLYLINE
  5
107
100
AcDbEntity
  8
WIND
100
AcDbPolyline
 90
4
 70
1
 10
218.5039
 20
-2.3622
 10
265.7480
 20
-2.3622
 10
265.7480
 20
2.3622
 10
218.5039
 20
2.3622
  0
LWPOLYLINE
  5
108
100
AcDbEntity
  8
WIND
100
AcDbPolyline
 90
4
 70
1
 10
354.3307
 20
-2.3622
 10
401.5748
 20
-2.3622
 10
401.5748
 20
2.3622
 10
354.3307
 20
2.3622
  0
LWPOLYLINE
  5
109
100
AcDbEntity
  8
WIND
100
AcDbPolyline
 90
4
 70
1
 10
64.9606
 20
411.0236
 10
112.2047
 20
411.0236
 10
112.2047
 20
415.7480
 10
64.9606
 20
415.7480
  0
LWPOLYLINE
  5
10A
100
AcDbEntity
  8
WIND
100
AcDbPolyline
 90
4
 70
1
 10
218.5039
 20
411.0236
 10
265.7480
 20
411.0236
 10
265.7480
 20
415.7480
 10
218.5039
 20
415.7480
  0
LWPOLYLINE
  5
10B
100
AcDbEntity
  8
WIND
100
AcDbPolyline
 90
4
 70
1
 10
354.3307
 20
411.0236
 10
401.5748
 20
411.0236
 10
401.5748
 20
415.7480
 10
354.3307
 20
415.7480
  0
ARC
  5
10C
100
AcDbEntity
  8
DOOR
100
AcDbCircle
 10
177.1654
 20
64.9606
 30
0
 40
35.4331
100
AcDbArc
 50
90
 51
180
  0
LINE
  5
10D
100
AcDbEntity
  8
DOOR
100
AcDbLine
 10
177.1654
 20
64.9606
 30
0
 11
141.7323
 21
64.9606
 31
0
  0
ARC
  5
10E
100
AcDbEntity
  8
DOOR
100
AcDbCircle
 10
177.1654
 20
318.8976
 30
0
 40
35.4331
100
AcDbArc
 50
90
 51
180
  0
LINE
  5
10F
100
AcDbEntity
  8
DOOR
100
AcDbLine
 10
177.1654
 20
318.8976
 30
0
 11
141.7323
 21
318.8976
 31
0
  0
ARC
  5
110
100
AcDbEntity
  8
DOOR
100
AcDbCircle
 10
307.0866
 20
64.9606
 30
0
 40
35.4331
100
AcDbArc
 50
90
 51
180
  0
LINE
  5
111
100
AcDbEntity
  8
DOOR
100
AcDbLine
 10
307.0866
 20
64.9606
 30
0
 11
271.6535
 21
64.9606
 31
0
  0
ARC
  5
112
100
AcDbEntity
  8
DOOR
100
AcDbCircle
 10
307.0866
 20
194.8819
 30
0
 40
35.4331
100
AcDbArc
 50
90
 51
180
  0
LINE
  5
113
100
AcDbEntity
  8
DOOR
100
AcDbLine
 10
307.0866
 20
194.8819
 30
0
 11
271.6535
 21
194.8819
 31
0
  0
ARC
  5
114
100
AcDbEntity
  8
DOOR
100
AcDbCircle
 10
307.0866
 20
318.8976
 30
0
 40
35.4331
100
AcDbArc
 50
90
 51
180
  0
LINE
  5
115
100
AcDbEntity
  8
DOOR
100
AcDbLine
 10
307.0866
 20
318.8976
 30
0
 11
271.6535
 21
318.8976
 31
0
  0
ARC
  5
116
100
AcDbEntity
  8
DOOR
100
AcDbCircle
 10
70.8661
 20
165.3543
 30
0
 40
35.4331
100
AcDbArc
 50
0
 51
90
  0
LINE
  5
117
100
AcDbEntity
  8
DOOR
100
AcDbLine
 10
70.8661
 20
165.3543
 30
0
 11
70.8661
 21
200.7874
 31
0
  0
ARC
  5
118
100
AcDbEntity
  8
DOOR
100
AcDbCircle
 10
224.4094
 20
165.3543
 30
0
 40
35.4331
100
AcDbArc
 50
0
 51
90
  0
LINE
  5
119
100
AcDbEntity
  8
DOOR
100
AcDbLine
 10
224.4094
 20
165.3543
 30
0
 11
224.4094
 21
200.7874
 31
0
  0
ARC
  5
11A
100
AcDbEntity
  8
DOOR
100
AcDbCircle
 10
360.2362
 20
165.3543
 30
0
 40
35.4331
100
AcDbArc
 50
0
 51
90
  0
LINE
  5
11B
100
AcDbEntity
  8
DOOR
100
AcDbLine
 10
360.2362
 20
165.3543
 30
0
 11
360.2362
 21
200.7874
 31
0
  0
ARC
  5
11C
100
AcDbEntity
  8
DOOR
100
AcDbCircle
 10
224.4094
 20
259.8425
 30
0
 40
35.4331
100
AcDbArc
 50
0
 51
90
  0
LINE
  5
11D
100
AcDbEntity
  8
DOOR
100
AcDbLine
 10
224.4094
 20
259.8425
 30
0
 11
224.4094
 21
295.2756
 31
0
  0
ARC
  5
11E
100
AcDbEntity
  8
DOOR
100
AcDbCircle
 10
360.2362
 20
259.8425
 30
0
 40
35.4331
100
AcDbArc
 50
0
 51
90
  0
LINE
  5
11F
100
AcDbEntity
  8
DOOR
100
AcDbLine
 10
360.2362
 20
259.8425
 30
0
 11
360.2362
 21
295.2756
 31
0
  0
LINE
  5
120
100
AcDbEntity
  8
WALL
100
AcDbLine
370
50
 10
-4.4291
 20
0
 30
0
 11
-4.4291
 21
59.0551
 31
0
  0
LINE
  5
121
100
AcDbEntity
  8
WALL
100
AcDbLine
370
50
 10
4.4291
 20
59.0551
 30
0
 11
4.4291
 21
0
 31
0
  0
LINE
  5
122
100
AcDbEntity
  8
WALL
100
AcDbLine
370
50
 10
-4.4291
 20
106.2992
 30
0
 11
-4.4291
 21
165.3543
 31
0
  0
LINE
  5
123
100
AcDbEntity
  8
WALL
100
AcDbLine
370
50
 10
4.4291
 20
165.3543
 30
0
 11
4.4291
 21
106.2992
 31
0
  0
LINE
  5
124
100
AcDbEntity
  8
WALL
100
AcDbLine
370
50
 10
-4.4291
 20
59.0551
 30
0
 11
4.4291
 21
59.0551
 31
0
  0
LINE
  5
125
100
AcDbEntity
  8
WALL
100
AcDbLine
370
50
 10
-4.4291
 20
106.2992
 30
0
 11
4.4291
 21
106.2992
 31
0
  0
LINE
  5
126
100
AcDbEntity
  8
WALL
100
AcDbLine
370
50
 10
-4.4291
 20
165.3543
 30
0
 11
-4.4291
 21
188.9764
 31
0
  0
LINE
  5
127
100
AcDbEntity
  8
WALL
100
AcDbLine
370
50
 10
4.4291
 20
188.9764
 30
0
 11
4.4291
 21
165.3543
 31
0
  0
LINE
  5
128
100
AcDbEntity
  8
WALL
100
AcDbLine
370
50
 10
-4.4291
 20
236.2205
 30
0
 11
-4.4291
 21
259.8425
 31
0
  0
LINE
  5
129
100
AcDbEntity
  8
WALL
100
AcDbLine
370
50
 10
4.4291
 20
259.8425
 30
0
 11
4.4291
 21
236.2205
 31
0
  0
LINE
  5
12A
100
AcDbEntity
  8
WALL
100
AcDbLine
370
50
 10
-4.4291
 20
188.9764
 30
0
 11
4.4291
 21
188.9764
 31
0
  0
LINE
  5
12B
100
AcDbEntity
  8
WALL
100
AcDbLine
370
50
 10
-4.4291
 20
236.2205
 30
0
 11
4.4291
 21
236.2205
 31
0
  0
LINE
  5
12C
100
AcDbEntity
  8
WALL
100
AcDbLine
370
50
 10
-4.4291
 20
259.8425
 30
0
 11
-4.4291
 21
312.9921
 31
0
  0
LINE
  5
12D
100
AcDbEntity
  8
WALL
100
AcDbLine
370
50
 10
4.4291
 20
312.9921
 30
0
 11
4.4291
 21
259.8425
 31
0
  0
LINE
  5
12E
100
AcDbEntity
  8
WALL
100
AcDbLine
370
50
 10
-4.4291
 20
360.2362
 30
0
 11
-4.4291
 21
413.3858
 31
0
  0
LINE
  5
12F
100
AcDbEntity
  8
WALL
100
AcDbLine
370
50
 10
4.4291
 20
413.3858
 30
0
 11
4.4291
 21
360.2362
 31
0
  0
LINE
  5
130
100
AcDbEntity
  8
WALL
100
AcDbLine
370
50
 10
-4.4291
 20
312.9921
 30
0
 11
4.4291
 21
312.9921
 31
0
  0
LINE
  5
131
100
AcDbEntity
  8
WALL
100
AcDbLine
370
50
 10
-4.4291
 20
360.2362
 30
0
 11
4.4291
 21
360.2362
 31
0
  0
LINE
  5
132
100
AcDbEntity
  8
WALL
100
AcDbLine
370
50
 10
444.3898
 20
0
 30
0
 11
444.3898
 21
59.0551
 31
0
  0
LINE
  5
133
100
AcDbEntity
  8
WALL
100
AcDbLine
370
50
 10
453.2480
 20
59.0551
 30
0
 11
453.2480
 21
0
 31
0
  0
LINE
  5
134
100
AcDbEntity
  8
WALL
100
AcDbLine
370
50
 10
444.3898
 20
106.2992
 30
0
 11
444.3898
 21
165.3543
 31
0
  0
LINE
  5
135
100
AcDbEntity
  8
WALL
100
AcDbLine
370
50
 10
453.2480
 20
165.3543
 30
0
 11
453.2480
 21
106.2992
 31
0
  0
LINE
  5
136
100
AcDbEntity
  8
WALL
100
AcDbLine
370
50
 10
444.3898
 20
59.0551
 30
0
 11
453.2480
 21
59.0551
 31
0
  0
LINE
  5
137
100
AcDbEntity
  8
WALL
100
AcDbLine
370
50
 10
444.3898
 20
106.2992
 30
0
 11
453.2480
 21
106.2992
 31
0
  0
LINE
  5
138
100
AcDbEntity
  8
WALL
100
AcDbLine
370
50
 10
444.3898
 20
165.3543
 30
0
 11
444.3898
 21
188.9764
 31
0
  0
LINE
  5
139
100
AcDbEntity
  8
WALL
100
AcDbLine
370
50
 10
453.2480
 20
188.9764
 30
0
 11
453.2480
 21
165.3543
 31
0
  0
LINE
  5
13A
100
AcDbEntity
  8
WALL
100
AcDbLine
370
50
 10
444.3898
 20
236.2205
 30
0
 11
444.3898
 21
259.8425
 31
0
  0
LINE
  5
13B
100
AcDbEntity
  8
WALL
100
AcDbLine
370
50
 10
453.2480
 20
259.8425
 30
0
 11
453.2480
 21
236.2205
 31
0
  0
LINE
  5
13C
100
AcDbEntity
  8
WALL
100
AcDbLine
370
50
 10
444.3898
 20
188.9764
 30
0
 11
453.2480
 21
188.9764
 31
0
  0
LINE
  5
13D
100
AcDbEntity
  8
WALL
100
AcDbLine
370
50
 10
444.3898
 20
236.2205
 30
0
 11
453.2480
 21
236.2205
 31
0
  0
LINE
  5
13E
100
AcDbEntity
  8
WALL
100
AcDbLine
370
50
 10
444.3898
 20
259.8425
 30
0
 11
444.3898
 21
312.9921
 31
0
  0
LINE
  5
13F
100
AcDbEntity
  8
WALL
100
AcDbLine
370
50
 10
453.2480
 20
312.9921
 30
0
 11
453.2480
 21
259.8425
 31
0
  0
LINE
  5
140
100
AcDbEntity
  8
WALL
100
AcDbLine
370
50
 10
444.3898
 20
360.2362
 30
0
 11
444.3898
 21
413.3858
 31
0
  0
LINE
  5
141
100
AcDbEntity
  8
WALL
100
AcDbLine
370
50
 10
453.2480
 20
413.3858
 30
0
 11
453.2480
 21
360.2362
 31
0
  0
LINE
  5
142
100
AcDbEntity
  8
WALL
100
AcDbLine
370
50
 10
444.3898
 20
312.9921
 30
0
 11
453.2480
 21
312.9921
 31
0
  0
LINE
  5
143
100
AcDbEntity
  8
WALL
100
AcDbLine
370
50
 10
444.3898
 20
360.2362
 30
0
 11
453.2480
 21
360.2362
 31
0
  0
LINE
  5
144
100
AcDbEntity
  8
WALL
100
AcDbLine
370
50
 10
0
 20
-4.4291
 30
0
 11
64.9606
 21
-4.4291
 31
0
  0
LINE
  5
145
100
AcDbEntity
  8
WALL
100
AcDbLine
370
50
 10
64.9606
 20
4.4291
 30
0
 11
0
 21
4.4291
 31
0
  0
LINE
  5
146
100
AcDbEntity
  8
WALL
100
AcDbLine
370
50
 10
112.2047
 20
-4.4291
 30
0
 11
177.1654
 21
-4.4291
 31
0
  0
LINE
  5
147
100
AcDbEntity
  8
WALL
100
AcDbLine
370
50
 10
177.1654
 20
4.4291
 30
0
 11
112.2047
 21
4.4291
 31
0
  0
LINE
  5
148
100
AcDbEntity
  8
WALL
100
AcDbLine
370
50
 10
64.9606
 20
-4.4291
 30
0
 11
64.9606
 21
4.4291
 31
0
  0
LINE
  5
149
100
AcDbEntity
  8
WALL
100
AcDbLine
370
50
 10
112.2047
 20
-4.4291
 30
0
 11
112.2047
 21
4.4291
 31
0
  0
LINE
  5
14A
100
AcDbEntity
  8
WALL
100
AcDbLine
370
50
 10
177.1654
 20
-4.4291
 30
0
 11
218.5039
 21
-4.4291
 31
0
  0
LINE
  5
14B
100
AcDbEntity
  8
WALL
100
AcDbLine
370
50
 10
218.5039
 20
4.4291
 30
0
 11
177.1654
 21
4.4291
 31
0
  0
LINE
  5
14C
100
AcDbEntity
  8
WALL
100
AcDbLine
370
50
 10
265.7480
 20
-4.4291
 30
0
 11
307.0866
 21
-4.4291
 31
0
  0
LINE
  5
14D
100
AcDbEntity
  8
WALL
100
AcDbLine
370
50
 10
307.0866
 20
4.4291
 30
0
 11
265.7480
 21
4.4291
 31
0
  0
LINE
  5
14E
100
AcDbEntity
  8
WALL
100
AcDbLine
370
50
 10
218.5039
 20
-4.4291
 30
0
 11
218.5039
 21
4.4291
 31
0
  0
LINE
  5
14F
100
AcDbEntity
  8
WALL
100
AcDbLine
370
50
 10
265.7480
 20
-4.4291
 30
0
 11
265.7480
 21
4.4291
 31
0
  0
LINE
  5
150
100
AcDbEntity
  8
WALL
100
AcDbLine
370
50
 10
307.0866
 20
-4.4291
 30
0
 11
354.3307
 21
-4.4291
 31
0
  0
LINE
  5
151
100
AcDbEntity
  8
WALL
100
AcDbLine
370
50
 10
354.3307
 20
4.4291
 30
0
 11
307.0866
 21
4.4291
 31
0
  0
LINE
  5
152
100
AcDbEntity
  8
WALL
100
AcDbLine
370
50
 10
401.5748
 20
-4.4291
 30
0
 11
448.8189
 21
-4.4291
 31
0
  0
LINE
  5
153
100
AcDbEntity
  8
WALL
100
AcDbLine
370
50
 10
448.8189
 20
4.4291
 30
0
 11
401.5748
 21
4.4291
 31
0
  0
LINE
  5
154
100
AcDbEntity
  8
WALL
100
AcDbLine
370
50
 10
354.3307
 20
-4.4291
 30
0
 11
354.3307
 21
4.4291
 31
0
  0
LINE
  5
155
100
AcDbEntity
  8
WALL
100
AcDbLine
370
50
 10
401.5748
 20
-4.4291
 30
0
 11
401.5748
 21
4.4291
 31
0
  0
LINE
  5
156
100
AcDbEntity
  8
WALL
100
AcDbLine
370
50
 10
0
 20
408.9567
 30
0
 11
64.9606
 21
408.9567
 31
0
  0
LINE
  5
157
100
AcDbEntity
  8
WALL
100
AcDbLine
370
50
 10
64.9606
 20
417.8150
 30
0
 11
0
 21
417.8150
 31
0
  0
LINE
  5
158
100
AcDbEntity
  8
WALL
100
AcDbLine
370
50
 10
112.2047
 20
408.9567
 30
0
 11
177.1654
 21
408.9567
 31
0
  0
LINE
  5
159
100
AcDbEntity
  8
WALL
100
AcDbLine
370
50
 10
177.1654
 20
417.8150
 30
0
 11
112.2047
 21
417.8150
 31
0
  0
LINE
  5
15A
100
AcDbEntity
  8
WALL
100
AcDbLine
370
50
 10
64.9606
 20
408.9567
 30
0
 11
64.9606
 21
417.8150
 31
0
  0
LINE
  5
15B
100
AcDbEntity
  8
WALL
100
AcDbLine
370
50
 10
112.2047
 20
408.9567
 30
0
 11
112.2047
 21
417.8150
 31
0
  0
LINE
  5
15C
100
AcDbEntity
  8
WALL
100
AcDbLine
370
50
 10
177.1654
 20
408.9567
 30
0
 11
218.5039
 21
408.9567
 31
0
  0
LINE
  5
15D
100
AcDbEntity
  8
WALL
100
AcDbLine
370
50
 10
218.5039
 20
417.8150
 30
0
 11
177.1654
 21
417.8150
 31
0
  0
LINE
  5
15E
100
AcDbEntity
  8
WALL
100
AcDbLine
370
50
 10
265.7480
 20
408.9567
 30
0
 11
307.0866
 21
408.9567
 31
0
  0
LINE
  5
15F
100
AcDbEntity
  8
WALL
100
AcDbLine
370
50
 10
307.0866
 20
417.8150
 30
0
 11
265.7480
 21
417.8150
 31
0
  0
LINE
  5
160
100
AcDbEntity
  8
WALL
100
AcDbLine
370
50
 10
218.5039
 20
408.9567
 30
0
 11
218.5039
 21
417.8150
 31
0
  0
LINE
  5
161
100
AcDbEntity
  8
WALL
100
AcDbLine
370
50
 10
265.7480
 20
408.9567
 30
0
 11
265.7480
 21
417.8150
 31
0
  0
LINE
  5
162
100
AcDbEntity
  8
WALL
100
AcDbLine
370
50
 10
307.0866
 20
408.9567
 30
0
 11
354.3307
 21
408.9567
 31
0
  0
LINE
  5
163
100
AcDbEntity
  8
WALL
100
AcDbLine
370
50
 10
354.3307
 20
417.8150
 30
0
 11
307.0866
 21
417.8150
 31
0
  0
LINE
  5
164
100
AcDbEntity
  8
WALL
100
AcDbLine
370
50
 10
401.5748
 20
408.9567
 30
0
 11
448.8189
 21
408.9567
 31
0
  0
LINE
  5
165
100
AcDbEntity
  8
WALL
100
AcDbLine
370
50
 10
448.8189
 20
417.8150
 30
0
 11
401.5748
 21
417.8150
 31
0
  0
LINE
  5
166
100
AcDbEntity
  8
WALL
100
AcDbLine
370
50
 10
354.3307
 20
408.9567
 30
0
 11
354.3307
 21
417.8150
 31
0
  0
LINE
  5
167
100
AcDbEntity
  8
WALL
100
AcDbLine
370
50
 10
401.5748
 20
408.9567
 30
0
 11
401.5748
 21
417.8150
 31
0
  0
LINE
  5
168
100
AcDbEntity
  8
WALL
100
AcDbLine
370
50
 10
174.2126
 20
0
 30
0
 11
174.2126
 21
64.9606
 31
0
  0
LINE
  5
169
100
AcDbEntity
  8
WALL
100
AcDbLine
370
50
 10
180.1181
 20
64.9606
 30
0
 11
180.1181
 21
0
 31
0
  0
LINE
  5
16A
100
AcDbEntity
  8
WALL
100
AcDbLine
370
50
 10
174.2126
 20
100.3937
 30
0
 11
174.2126
 21
165.3543
 31
0
  0
LINE
  5
16B
100
AcDbEntity
  8
WALL
100
AcDbLine
370
50
 10
180.1181
 20
165.3543
 30
0
 11
180.1181
 21
100.3937
 31
0
  0
LINE
  5
16C
100
AcDbEntity
  8
WALL
100
AcDbLine
370
50
 10
174.2126
 20
64.9606
 30
0
 11
180.1181
 21
64.9606
 31
0
  0
LINE
  5
16D
100
AcDbEntity
  8
WALL
100
AcDbLine
370
50
 10
174.2126
 20
100.3937
 30
0
 11
180.1181
 21
100.3937
 31
0
  0
LINE
  5
16E
100
AcDbEntity
  8
WALL
100
AcDbLine
370
50
 10
174.2126
 20
165.3543
 30
0
 11
174.2126
 21
259.8425
 31
0
  0
LINE
  5
16F
100
AcDbEntity
  8
WALL
100
AcDbLine
370
50
 10
180.1181
 20
259.8425
 30
0
 11
180.1181
 21
165.3543
 31
0
  0
LINE
  5
170
100
AcDbEntity
  8
WALL
100
AcDbLine
370
50
 10
174.2126
 20
259.8425
 30
0
 11
174.2126
 21
318.8976
 31
0
  0
LINE
  5
171
100
AcDbEntity
  8
WALL
100
AcDbLine
370
50
 10
180.1181
 20
318.8976
 30
0
 11
180.1181
 21
259.8425
 31
0
  0
LINE
  5
172
100
AcDbEntity
  8
WALL
100
AcDbLine
370
50
 10
174.2126
 20
354.3307
 30
0
 11
174.2126
 21
413.3858
 31
0
  0
LINE
  5
173
100
AcDbEntity
  8
WALL
100
AcDbLine
370
50
 10
180.1181
 20
413.3858
 30
0
 11
180.1181
 21
354.3307
 31
0
  0
LINE
  5
174
100
AcDbEntity
  8
WALL
100
AcDbLine
370
50
 10
174.2126
 20
318.8976
 30
0
 11
180.1181
 21
318.8976
 31
0
  0
LINE
  5
175
100
AcDbEntity
  8
WALL
100
AcDbLine
370
50
 10
174.2126
 20
354.3307
 30
0
 11
180.1181
 21
354.3307
 31
0
  0
LINE
  5
176
100
AcDbEntity
  8
WALL
100
AcDbLine
370
50
 10
304.1339
 20
0
 30
0
 11
304.1339
 21
64.9606
 31
0
  0
LINE
  5
177
100
AcDbEntity
  8
WALL
100
AcDbLine
370
50
 10
310.0394
 20
64.9606
 30
0
 11
310.0394
 21
0
 31
0
  0
LINE
  5
178
100
AcDbEntity
  8
WALL
100
AcDbLine
370
50
 10
304.1339
 20
100.3937
 30
0
 11
304.1339
 21
165.3543
 31
0
  0
LINE
  5
179
100
AcDbEntity
  8
WALL
100
AcDbLine
370
50
 10
310.0394
 20
165.3543
 30
0
 11
310.0394
 21
100.3937
 31
0
  0
LINE
  5
17A
100
AcDbEntity
  8
WALL
100
AcDbLine
370
50
 10
304.1339
 20
64.9606
 30
0
 11
310.0394
 21
64.9606
 31
0
  0
LINE
  5
17B
100
AcDbEntity
  8
WALL
100
AcDbLine
370
50
 10
304.1339
 20
100.3937
 30
0
 11
310.0394
 21
100.3937
 31
0
  0
LINE
  5
17C
100
AcDbEntity
  8
WALL
100
AcDbLine
370
50
 10
304.1339
 20
165.3543
 30
0
 11
304.1339
 21
194.8819
 31
0
  0
LINE
  5
17D
100
AcDbEntity
  8
WALL
100
AcDbLine
370
50
 10
310.0394
 20
194.8819
 30
0
 11
310.0394
 21
165.3543
 31
0
  0
LINE
  5
17E
100
AcDbEntity
  8
WALL
100
AcDbLine
370
50
 10
304.1339
 20
230.3150
 30
0
 11
304.1339
 21
259.8425
 31
0
  0
LINE
  5
17F
100
AcDbEntity
  8
WALL
100
AcDbLine
370
50
 10
310.0394
 20
259.8425
 30
0
 11
310.0394
 21
230.3150
 31
0
  0
LINE
  5
180
100
AcDbEntity
  8
WALL
100
AcDbLine
370
50
 10
304.1339
 20
194.8819
 30
0
 11
310.0394
 21
194.8819
 31
0
  0
LINE
  5
181
100
AcDbEntity
  8
WALL
100
AcDbLine
370
50
 10
304.1339
 20
230.3150
 30
0
 11
310.0394
 21
230.3150
 31
0
  0
LINE
  5
182
100
AcDbEntity
  8
WALL
100
AcDbLine
370
50
 10
304.1339
 20
259.8425
 30
0
 11
304.1339
 21
318.8976
 31
0
  0
LINE
  5
183
100
AcDbEntity
  8
WALL
100
AcDbLine
370
50
 10
310.0394
 20
318.8976
 30
0
 11
310.0394
 21
259.8425
 31
0
  0
LINE
  5
184
100
AcDbEntity
  8
WALL
100
AcDbLine
370
50
 10
304.1339
 20
354.3307
 30
0
 11
304.1339
 21
413.3858
 31
0
  0
LINE
  5
185
100
AcDbEntity
  8
WALL
100
AcDbLine
370
50
 10
310.0394
 20
413.3858
 30
0
 11
310.0394
 21
354.3307
 31
0
  0
LINE
  5
186
100
AcDbEntity
  8
WALL
100
AcDbLine
370
50
 10
304.1339
 20
318.8976
 30
0
 11
310.0394
 21
318.8976
 31
0
  0
LINE
  5
187
100
AcDbEntity
  8
WALL
100
AcDbLine
370
50
 10
304.1339
 20
354.3307
 30
0
 11
310.0394
 21
354.3307
 31
0
  0
LINE
  5
188
100
AcDbEntity
  8
WALL
100
AcDbLine
370
50
 10
0
 20
162.4016
 30
0
 11
70.8661
 21
162.4016
 31
0
  0
LINE
  5
189
100
AcDbEntity
  8
WALL
100
AcDbLine
370
50
 10
70.8661
 20
168.3071
 30
0
 11
0
 21
168.3071
 31
0
  0
LINE
  5
18A
100
AcDbEntity
  8
WALL
100
AcDbLine
370
50
 10
106.2992
 20
162.4016
 30
0
 11
177.1654
 21
162.4016
 31
0
  0
LINE
  5
18B
100
AcDbEntity
  8
WALL
100
AcDbLine
370
50
 10
177.1654
 20
168.3071
 30
0
 11
106.2992
 21
168.3071
 31
0
  0
LINE
  5
18C
100
AcDbEntity
  8
WALL
100
AcDbLine
370
50
 10
70.8661
 20
162.4016
 30
0
 11
70.8661
 21
168.3071
 31
0
  0
LINE
  5
18D
100
AcDbEntity
  8
WALL
100
AcDbLine
370
50
 10
106.2992
 20
162.4016
 30
0
 11
106.2992
 21
168.3071
 31
0
  0
LINE
  5
18E
100
AcDbEntity
  8
WALL
100
AcDbLine
370
50
 10
177.1654
 20
162.4016
 30
0
 11
224.4094
 21
162.4016
 31
0
  0
LINE
  5
18F
100
AcDbEntity
  8
WALL
100
AcDbLine
370
50
 10
224.4094
 20
168.3071
 30
0
 11
177.1654
 21
168.3071
 31
0
  0
LINE
  5
190
100
AcDbEntity
  8
WALL
100
AcDbLine
370
50
 10
259.8425
 20
162.4016
 30
0
 11
307.0866
 21
162.4016
 31
0
  0
LINE
  5
191
100
AcDbEntity
  8
WALL
100
AcDbLine
370
50
 10
307.0866
 20
168.3071
 30
0
 11
259.8425
 21
168.3071
 31
0
  0
LINE
  5
192
100
AcDbEntity
  8
WALL
100
AcDbLine
370
50
 10
224.4094
 20
162.4016
 30
0
 11
224.4094
 21
168.3071
 31
0
  0
LINE
  5
193
100
AcDbEntity
  8
WALL
100
AcDbLine
370
50
 10
259.8425
 20
162.4016
 30
0
 11
259.8425
 21
168.3071
 31
0
  0
LINE
  5
194
100
AcDbEntity
  8
WALL
100
AcDbLine
370
50
 10
307.0866
 20
162.4016
 30
0
 11
360.2362
 21
162.4016
 31
0
  0
LINE
  5
195
100
AcDbEntity
  8
WALL
100
AcDbLine
370
50
 10
360.2362
 20
168.3071
 30
0
 11
307.0866
 21
168.3071
 31
0
  0
LINE
  5
196
100
AcDbEntity
  8
WALL
100
AcDbLine
370
50
 10
395.6693
 20
162.4016
 30
0
 11
448.8189
 21
162.4016
 31
0
  0
LINE
  5
197
100
AcDbEntity
  8
WALL
100
AcDbLine
370
50
 10
448.8189
 20
168.3071
 30
0
 11
395.6693
 21
168.3071
 31
0
  0
LINE
  5
198
100
AcDbEntity
  8
WALL
100
AcDbLine
370
50
 10
360.2362
 20
162.4016
 30
0
 11
360.2362
 21
168.3071
 31
0
  0
LINE
  5
199
100
AcDbEntity
  8
WALL
100
AcDbLine
370
50
 10
395.6693
 20
162.4016
 30
0
 11
395.6693
 21
168.3071
 31
0
  0
LINE
  5
19A
100
AcDbEntity
  8
WALL
100
AcDbLine
370
50
 10
0
 20
256.8898
 30
0
 11
177.1654
 21
256.8898
 31
0
  0
LINE
  5
19B
100
AcDbEntity
  8
WALL
100
AcDbLine
370
50
 10
177.1654
 20
262.7953
 30
0
 11
0
 21
262.7953
 31
0
  0
LINE
  5
19C
100
AcDbEntity
  8
WALL
100
AcDbLine
370
50
 10
177.1654
 20
256.8898
 30
0
 11
224.4094
 21
256.8898
 31
0
  0
LINE
  5
19D
100
AcDbEntity
  8
WALL
100
AcDbLine
370
50
 10
224.4094
 20
262.7953
 30
0
 11
177.1654
 21
262.7953
 31
0
  0
LINE
  5
19E
100
AcDbEntity
  8
WALL
100
AcDbLine
370
50
 10
259.8425
 20
256.8898
 30
0
 11
307.0866
 21
256.8898
 31
0
  0
LINE
  5
19F
100
AcDbEntity
  8
WALL
100
AcDbLine
370
50
 10
307.0866
 20
262.7953
 30
0
 11
259.8425
 21
262.7953
 31
0
  0
LINE
  5
1A0
100
AcDbEntity
  8
WALL
100
AcDbLine
370
50
 10
224.4094
 20
256.8898
 30
0
 11
224.4094
 21
262.7953
 31
0
  0
LINE
  5
1A1
100
AcDbEntity
  8
WALL
100
AcDbLine
370
50
 10
259.8425
 20
256.8898
 30
0
 11
259.8425
 21
262.7953
 31
0
  0
LINE
  5
1A2
100
AcDbEntity
  8
WALL
100
AcDbLine
370
50
 10
307.0866
 20
256.8898
 30
0
 11
360.2362
 21
256.8898
 31
0
  0
LINE
  5
1A3
100
AcDbEntity
  8
WALL
100
AcDbLine
370
50
 10
360.2362
 20
262.7953
 30
0
 11
307.0866
 21
262.7953
 31
0
  0
LINE
  5
1A4
100
AcDbEntity
  8
WALL
100
AcDbLine
370
50
 10
395.6693
 20
256.8898
 30
0
 11
448.8189
 21
256.8898
 31
0
  0
LINE
  5
1A5
100
AcDbEntity
  8
WALL
100
AcDbLine
370
50
 10
448.8189
 20
262.7953
 30
0
 11
395.6693
 21
262.7953
 31
0
  0
LINE
  5
1A6
100
AcDbEntity
  8
WALL
100
AcDbLine
370
50
 10
360.2362
 20
256.8898
 30
0
 11
360.2362
 21
262.7953
 31
0
  0
LINE
  5
1A7
100
AcDbEntity
  8
WALL
100
AcDbLine
370
50
 10
395.6693
 20
256.8898
 30
0
 11
395.6693
 21
262.7953
 31
0
  0
LWPOLYLINE
  5
1A8
100
AcDbEntity
  8
COLUMN
100
AcDbPolyline
 90
4
 70
1
 10
-4.5276
 20
-4.5276
 10
4.5276
 20
-4.5276
 10
4.5276
 20
4.5276
 10
-4.5276
 20
4.5276
  0
LWPOLYLINE
  5
1A9
100
AcDbEntity
  8
COLUMN
100
AcDbPolyline
 90
4
 70
1
 10
-4.5276
 20
160.8268
 10
4.5276
 20
160.8268
 10
4.5276
 20
169.8819
 10
-4.5276
 20
169.8819
  0
LWPOLYLINE
  5
1AA
100
AcDbEntity
  8
COLUMN
100
AcDbPolyline
 90
4
 70
1
 10
-4.5276
 20
255.3150
 10
4.5276
 20
255.3150
 10
4.5276
 20
264.3701
 10
-4.5276
 20
264.3701
  0
LWPOLYLINE
  5
1AB
100
AcDbEntity
  8
COLUMN
100
AcDbPolyline
 90
4
 70
1
 10
-4.5276
 20
408.8583
 10
4.5276
 20
408.8583
 10
4.5276
 20
417.9134
 10
-4.5276
 20
417.9134
  0
LWPOLYLINE
  5
1AC
100
AcDbEntity
  8
COLUMN
100
AcDbPolyline
 90
4
 70
1
 10
172.6378
 20
-4.5276
 10
181.6929
 20
-4.5276
 10
181.6929
 20
4.5276
 10
172.6378
 20
4.5276
  0
LWPOLYLINE
  5
1AD
100
AcDbEntity
  8
COLUMN
100
AcDbPolyline
 90
4
 70
1
 10
172.6378
 20
160.8268
 10
181.6929
 20
160.8268
 10
181.6929
 20
169.8819
 10
172.6378
 20
169.8819
  0
LWPOLYLINE
  5
1AE
100
AcDbEntity
  8
COLUMN
100
AcDbPolyline
 90
4
 70
1
 10
172.6378
 20
255.3150
 10
181.6929
 20
255.3150
 10
181.6929
 20
264.3701
 10
172.6378
 20
264.3701
  0
LWPOLYLINE
  5
1AF
100
AcDbEntity
  8
COLUMN
100
AcDbPolyline
 90
4
 70
1
 10
172.6378
 20
408.8583
 10
181.6929
 20
408.8583
 10
181.6929
 20
417.9134
 10
172.6378
 20
417.9134
  0
LWPOLYLINE
  5
1B0
100
AcDbEntity
  8
COLUMN
100
AcDbPolyline
 90
4
 70
1
 10
302.5591
 20
-4.5276
 10
311.6142
 20
-4.5276
 10
311.6142
 20
4.5276
 10
302.5591
 20
4.5276
  0
LWPOLYLINE
  5
1B1
100
AcDbEntity
  8
COLUMN
100
AcDbPolyline
 90
4
 70
1
 10
302.5591
 20
160.8268
 10
311.6142
 20
160.8268
 10
311.6142
 20
169.8819
 10
302.5591
 20
169.8819
  0
LWPOLYLINE
  5
1B2
100
AcDbEntity
  8
COLUMN
100
AcDbPolyline
 90
4
 70
1
 10
302.5591
 20
255.3150
 10
311.6142
 20
255.3150
 10
311.6142
 20
264.3701
 10
302.5591
 20
264.3701
  0
LWPOLYLINE
  5
1B3
100
AcDbEntity
  8
COLUMN
100
AcDbPolyline
 90
4
 70
1
 10
302.5591
 20
408.8583
 10
311.6142
 20
408.8583
 10
311.6142
 20
417.9134
 10
302.5591
 20
417.9134
  0
LWPOLYLINE
  5
1B4
100
AcDbEntity
  8
COLUMN
100
AcDbPolyline
 90
4
 70
1
 10
444.2913
 20
-4.5276
 10
453.3465
 20
-4.5276
 10
453.3465
 20
4.5276
 10
444.2913
 20
4.5276
  0
LWPOLYLINE
  5
1B5
100
AcDbEntity
  8
COLUMN
100
AcDbPolyline
 90
4
 70
1
 10
444.2913
 20
160.8268
 10
453.3465
 20
160.8268
 10
453.3465
 20
169.8819
 10
444.2913
 20
169.8819
  0
LWPOLYLINE
  5
1B6
100
AcDbEntity
  8
COLUMN
100
AcDbPolyline
 90
4
 70
1
 10
444.2913
 20
255.3150
 10
453.3465
 20
255.3150
 10
453.3465
 20
264.3701
 10
444.2913
 20
264.3701
  0
LWPOLYLINE
  5
1B7
100
AcDbEntity
  8
COLUMN
100
AcDbPolyline
 90
4
 70
1
 10
444.2913
 20
408.8583
 10
453.3465
 20
408.8583
 10
453.3465
 20
417.9134
 10
444.2913
 20
417.9134
  0
TEXT
  5
1B8
100
AcDbEntity
  8
TEXT
100
AcDbText
 10
69.6358
 20
83.4154
 30
0
 40
9.8425
  1
LOUNGE
100
AcDbText
  0
TEXT
  5
1B9
100
AcDbEntity
  8
TEXT
100
AcDbText
 10
222.4409
 20
83.4154
 30
0
 40
9.8425
  1
DINING
100
AcDbText
  0
TEXT
  5
1BA
100
AcDbEntity
  8
TEXT
100
AcDbText
 10
357.5295
 20
83.4154
 30
0
 40
9.8425
  1
KITCHEN
100
AcDbText
  0
TEXT
  5
1BB
100
AcDbEntity
  8
TEXT
100
AcDbText
 10
69.6358
 20
212.5984
 30
0
 40
9.8425
  1
STUDY
100
AcDbText
  0
TEXT
  5
1BC
100
AcDbEntity
  8
TEXT
100
AcDbText
 10
222.4409
 20
212.5984
 30
0
 40
9.8425
  1
WC
100
AcDbText
  0
LWPOLYLINE
  5
1BD
100
AcDbEntity
  8
SANITARY
100
AcDbPolyline
 90
4
 70
1
 10
195.8661
 20
221.4567
 10
211.6142
 20
221.4567
 10
211.6142
 20
245.0787
 10
195.8661
 20
245.0787
  0
TEXT
  5
1BE
100
AcDbEntity
  8
TEXT
100
AcDbText
 10
357.5295
 20
212.5984
 30
0
 40
9.8425
  1
STORE
100
AcDbText
  0
TEXT
  5
1BF
100
AcDbEntity
  8
TEXT
100
AcDbText
 10
69.6358
 20
335.8760
 30
0
 40
9.8425
  1
GUEST BEDROOM
100
AcDbText
  0
TEXT
  5
1C0
100
AcDbEntity
  8
TEXT
100
AcDbText
 10
222.4409
 20
335.8760
 30
0
 40
9.8425
  1
LAUNDRY
100
AcDbText
  0
TEXT
  5
1C1
100
AcDbEntity
  8
TEXT
100
AcDbText
 10
357.5295
 20
335.8760
 30
0
 40
9.8425
  1
GARAGE
100
AcDbText
  0
DIMENSION
  5
1C2
100
AcDbEntity
  8
DIM
100
AcDbDimension
  2
*D
 10
0
 20
-70.8661
 30
0
 11
224.4094
 21
-61.0236
 31
0
 70
33
  1
37'-4 7/8"
 42
448.8189
100
AcDbAlignedDimension
 13
0
 23
0
 33
0
 14
448.8189
 24
0
 34
0
  0
DIMENSION
  5
1C3
100
AcDbEntity
  8
DIM
100
AcDbDimension
  2
*D
 10
-70.8661
 20
0
 30
0
 11
-61.0236
 21
206.6929
 31
0
 70
33
  1
34'-5 3/8"
 42
413.3858
100
AcDbAlignedDimension
 13
0
 23
0
 33
0
 14
0
 24
413.3858
 34
0
  0
DIMENSION
  5
1C4
100
AcDbEntity
  8
DIM
100
AcDbDimension
  2
*D
 10
0
 20
460.6299
 30
0
 11
88.5827
 21
470.4724
 31
0
 70
33
  1
14'-9 1/8"
 42
177.1654
100
AcDbAlignedDimension
 13
0
 23
413.3858
 33
0
 14
177.1654
 24
413.3858
 34
0
  0
DIMENSION
  5
1C5
100
AcDbEntity
  8
DIM
100
AcDbDimension
  2
*D
 10
177.1654
 20
460.6299
 30
0
 11
242.1260
 21
470.4724
 31
0
 70
33
  1
10'-9 7/8"
 42
129.9213
100
AcDbAlignedDimension
 13
177.1654
 23
413.3858
 33
0
 14
307.0866
 24
413.3858
 34
0
  0
DIMENSION
  5
1C6
100
AcDbEntity
  8
DIM
100
AcDbDimension
  2
*D
 10
307.0866
 20
460.6299
 30
0
 11
377.9528
 21
470.4724
 31
0
 70
33
  1
11'-9 3/4"
 42
141.7323
100
AcDbAlignedDimension
 13
307.0866
 23
413.3858
 33
0
 14
448.8189
 24
413.3858
 34
0
  0
DIMENSION
  5
1C7
100
AcDbEntity
  8
DIM
100
AcDbDimension
  2
*D
 10
496.0630
 20
0
 30
0
 11
505.9055
 21
82.6772
 31
0
 70
33
  1
13'-9 3/8"
 42
165.3543
100
AcDbAlignedDimension
 13
448.8189
 23
0
 33
0
 14
448.8189
 24
165.3543
 34
0
  0
DIMENSION
  5
1C8
100
AcDbEntity
  8
DIM
100
AcDbDimension
  2
*D
 10
496.0630
 20
165.3543
 30
0
 11
505.9055
 21
212.5984
 31
0
 70
33
  1
7'-10 1/2"
 42
94.4882
100
AcDbAlignedDimension
 13
448.8189
 23
165.3543
 33
0
 14
448.8189
 24
259.8425
 34
0
  0
DIMENSION
  5
1C9
100
AcDbEntity
  8
DIM
100
AcDbDimension
  2
*D
 10
496.0630
 20
259.8425
 30
0
 11
505.9055
 21
336.6142
 31
0
 70
33
  1
12'-9 1/2"
 42
153.5433
100
AcDbAlignedDimension
 13
448.8189
 23
259.8425
 33
0
 14
448.8189
 24
413.3858
 34
0
  0
TEXT
  5
1CA
100
AcDbEntity
  8
TEXT
100
AcDbText
 10
0
 20
-125.9843
 30
0
 40
17.7165
  1
GROUND FLOOR PLAN
100
AcDbText
  0
TEXT
  5
1CB
100
AcDbEntity
  8
TEXT
100
AcDbText
 10
551.1811
 20
206.6929
 30
0
 40
11.8110
  1
+1'-5 3/4"
100
AcDbText
  0
TEXT
  5
1CC
100
AcDbEntity
  8
TEXT
100
AcDbText
 10
0
 20
-157.4803
 30
0
 40
11.8110
  1
SCALE: 1/8" = 1'-0"
100
AcDbText
  0
LWPOLYLINE
  5
1CD
100
AcDbEntity
  8
WIND
100
AcDbPolyline
 90
4
 70
1
 10
918.8976
 20
59.0551
 10
923.6220
 20
59.0551
 10
923.6220
 20
106.2992
 10
918.8976
 20
106.2992
  0
LWPOLYLINE
  5
1CE
100
AcDbEntity
  8
WIND
100
AcDbPolyline
 90
4
 70
1
 10
918.8976
 20
188.9764
 10
923.6220
 20
188.9764
 10
923.6220
 20
236.2205
 10
918.8976
 20
236.2205
  0
LWPOLYLINE
  5
1CF
100
AcDbEntity
  8
WIND
100
AcDbPolyline
 90
4
 70
1
 10
918.8976
 20
312.9921
 10
923.6220
 20
312.9921
 10
923.6220
 20
360.2362
 10
918.8976
 20
360.2362
  0
LWPOLYLINE
  5
1D0
100
AcDbEntity
  8
WIND
100
AcDbPolyline
 90
4
 70
1
 10
1367.7165
 20
59.0551
 10
1372.4409
 20
59.0551
 10
1372.4409
 20
106.2992
 10
1367.7165
 20
106.2992
  0
LWPOLYLINE
  5
1D1
100
AcDbEntity
  8
WIND
100
AcDbPolyline
 90
4
 70
1
 10
1367.7165
 20
188.9764
 10
1372.4409
 20
188.9764
 10
1372.4409
 20
236.2205
 10
1367.7165
 20
236.2205
  0
LWPOLYLINE
  5
1D2
100
AcDbEntity
  8
WIND
100
AcDbPolyline
 90
4
 70
1
 10
1367.7165
 20
312.9921
 10
1372.4409
 20
312.9921
 10
1372.4409
 20
360.2362
 10
1367.7165
 20
360.2362
  0
LWPOLYLINE
  5
1D3
100
AcDbEntity
  8
WIND
100
AcDbPolyline
 90
4
 70
1
 10
986.2205
 20
-2.3622
 10
1033.4646
 20
-2.3622
 10
1033.4646
 20
2.3622
 10
986.2205
 20
2.3622
  0
LWPOLYLINE
  5
1D4
100
AcDbEntity
  8
WIND
100
AcDbPolyline
 90
4
 70
1
 10
1139.7638
 20
-2.3622
 10
1187.0079
 20
-2.3622
 10
1187.0079
 20
2.3622
 10
1139.7638
 20
2.3622
  0
LWPOLYLINE
  5
1D5
100
AcDbEntity
  8
WIND
100
AcDbPolyline
 90
4
 70
1
 10
1275.5906
 20
-2.3622
 10
1322.8346
 20
-2.3622
 10
1322.8346
 20
2.3622
 10
1275.5906
 20
2.3622
  0
LWPOLYLINE
  5
1D6
100
AcDbEntity
  8
WIND
100
AcDbPolyline
 90
4
 70
1
 10
986.2205
 20
411.0236
 10
1033.4646
 20
411.0236
 10
1033.4646
 20
415.7480
 10
986.2205
 20
415.7480
  0
LWPOLYLINE
  5
1D7
100
AcDbEntity
  8
WIND
100
AcDbPolyline
 90
4
 70
1
 10
1139.7638
 20
411.0236
 10
1187.0079
 20
411.0236
 10
1187.0079
 20
415.7480
 10
1139.7638
 20
415.7480
  0
LWPOLYLINE
  5
1D8
100
AcDbEntity
  8
WIND
100
AcDbPolyline
 90
4
 70
1
 10
1275.5906
 20
411.0236
 10
1322.8346
 20
411.0236
 10
1322.8346
 20
415.7480
 10
1275.5906
 20
415.7480
  0
ARC
  5
1D9
100
AcDbEntity
  8
DOOR
100
AcDbCircle
 10
1098.4252
 20
64.9606
 30
0
 40
35.4331
100
AcDbArc
 50
90
 51
180
  0
LINE
  5
1DA
100
AcDbEntity
  8
DOOR
100
AcDbLine
 10
1098.4252
 20
64.9606
 30
0
 11
1062.9921
 21
64.9606
 31
0
  0
ARC
  5
1DB
100
AcDbEntity
  8
DOOR
100
AcDbCircle
 10
1098.4252
 20
318.8976
 30
0
 40
35.4331
100
AcDbArc
 50
90
 51
180
  0
LINE
  5
1DC
100
AcDbEntity
  8
DOOR
100
AcDbLine
 10
1098.4252
 20
318.8976
 30
0
 11
1062.9921
 21
318.8976
 31
0
  0
ARC
  5
1DD
100
AcDbEntity
  8
DOOR
100
AcDbCircle
 10
1228.3465
 20
64.9606
 30
0
 40
35.4331
100
AcDbArc
 50
90
 51
180
  0
LINE
  5
1DE
100
AcDbEntity
  8
DOOR
100
AcDbLine
 10
1228.3465
 20
64.9606
 30
0
 11
1192.9134
 21
64.9606
 31
0
  0
ARC
  5
1DF
100
AcDbEntity
  8
DOOR
100
AcDbCircle
 10
1228.3465
 20
194.8819
 30
0
 40
35.4331
100
AcDbArc
 50
90
 51
180
  0
LINE
  5
1E0
100
AcDbEntity
  8
DOOR
100
AcDbLine
 10
1228.3465
 20
194.8819
 30
0
 11
1192.9134
 21
194.8819
 31
0
  0
ARC
  5
1E1
100
AcDbEntity
  8
DOOR
100
AcDbCircle
 10
1228.3465
 20
318.8976
 30
0
 40
35.4331
100
AcDbArc
 50
90
 51
180
  0
LINE
  5
1E2
100
AcDbEntity
  8
DOOR
100
AcDbLine
 10
1228.3465
 20
318.8976
 30
0
 11
1192.9134
 21
318.8976
 31
0
  0
ARC
  5
1E3
100
AcDbEntity
  8
DOOR
100
AcDbCircle
 10
992.1260
 20
165.3543
 30
0
 40
35.4331
100
AcDbArc
 50
0
 51
90
  0
LINE
  5
1E4
100
AcDbEntity
  8
DOOR
100
AcDbLine
 10
992.1260
 20
165.3543
 30
0
 11
992.1260
 21
200.7874
 31
0
  0
ARC
  5
1E5
100
AcDbEntity
  8
DOOR
100
AcDbCircle
 10
1145.6693
 20
165.3543
 30
0
 40
35.4331
100
AcDbArc
 50
0
 51
90
  0
LINE
  5
1E6
100
AcDbEntity
  8
DOOR
100
AcDbLine
 10
1145.6693
 20
165.3543
 30
0
 11
1145.6693
 21
200.7874
 31
0
  0
ARC
  5
1E7
100
AcDbEntity
  8
DOOR
100
AcDbCircle
 10
1281.4961
 20
165.3543
 30
0
 40
35.4331
100
AcDbArc
 50
0
 51
90
  0
LINE
  5
1E8
100
AcDbEntity
  8
DOOR
100
AcDbLine
 10
1281.4961
 20
165.3543
 30
0
 11
1281.4961
 21
200.7874
 31
0
  0
ARC
  5
1E9
100
AcDbEntity
  8
DOOR
100
AcDbCircle
 10
1145.6693
 20
259.8425
 30
0
 40
35.4331
100
AcDbArc
 50
0
 51
90
  0
LINE
  5
1EA
100
AcDbEntity
  8
DOOR
100
AcDbLine
 10
1145.6693
 20
259.8425
 30
0
 11
1145.6693
 21
295.2756
 31
0
  0
ARC
  5
1EB
100
AcDbEntity
  8
DOOR
100
AcDbCircle
 10
1281.4961
 20
259.8425
 30
0
 40
35.4331
100
AcDbArc
 50
0
 51
90
  0
LINE
  5
1EC
100
AcDbEntity
  8
DOOR
100
AcDbLine
 10
1281.4961
 20
259.8425
 30
0
 11
1281.4961
 21
295.2756
 31
0
  0
LINE
  5
1ED
100
AcDbEntity
  8
WALL
100
AcDbLine
370
50
 10
916.8307
 20
0
 30
0
 11
916.8307
 21
59.0551
 31
0
  0
LINE
  5
1EE
100
AcDbEntity
  8
WALL
100
AcDbLine
370
50
 10
925.6890
 20
59.0551
 30
0
 11
925.6890
 21
0
 31
0
  0
LINE
  5
1EF
100
AcDbEntity
  8
WALL
100
AcDbLine
370
50
 10
916.8307
 20
106.2992
 30
0
 11
916.8307
 21
165.3543
 31
0
  0
LINE
  5
1F0
100
AcDbEntity
  8
WALL
100
AcDbLine
370
50
 10
925.6890
 20
165.3543
 30
0
 11
925.6890
 21
106.2992
 31
0
  0
LINE
  5
1F1
100
AcDbEntity
  8
WALL
100
AcDbLine
370
50
 10
916.8307
 20
59.0551
 30
0
 11
925.6890
 21
59.0551
 31
0
  0
LINE
  5
1F2
100
AcDbEntity
  8
WALL
100
AcDbLine
370
50
 10
916.8307
 20
106.2992
 30
0
 11
925.6890
 21
106.2992
 31
0
  0
LINE
  5
1F3
100
AcDbEntity
  8
WALL
100
AcDbLine
370
50
 10
916.8307
 20
165.3543
 30
0
 11
916.8307
 21
188.9764
 31
0
  0
LINE
  5
1F4
100
AcDbEntity
  8
WALL
100
AcDbLine
370
50
 10
925.6890
 20
188.9764
 30
0
 11
925.6890
 21
165.3543
 31
0
  0
LINE
  5
1F5
100
AcDbEntity
  8
WALL
100
AcDbLine
370
50
 10
916.8307
 20
236.2205
 30
0
 11
916.8307
 21
259.8425
 31
0
  0
LINE
  5
1F6
100
AcDbEntity
  8
WALL
100
AcDbLine
370
50
 10
925.6890
 20
259.8425
 30
0
 11
925.6890
 21
236.2205
 31
0
  0
LINE
  5
1F7
100
AcDbEntity
  8
WALL
100
AcDbLine
370
50
 10
916.8307
 20
188.9764
 30
0
 11
925.6890
 21
188.9764
 31
0
  0
LINE
  5
1F8
100
AcDbEntity
  8
WALL
100
AcDbLine
370
50
 10
916.8307
 20
236.2205
 30
0
 11
925.6890
 21
236.2205
 31
0
  0
LINE
  5
1F9
100
AcDbEntity
  8
WALL
100
AcDbLine
370
50
 10
916.8307
 20
259.8425
 30
0
 11
916.8307
 21
312.9921
 31
0
  0
LINE
  5
1FA
100
AcDbEntity
  8
WALL
100
AcDbLine
370
50
 10
925.6890
 20
312.9921
 30
0
 11
925.6890
 21
259.8425
 31
0
  0
LINE
  5
1FB
100
AcDbEntity
  8
WALL
100
AcDbLine
370
50
 10
916.8307
 20
360.2362
 30
0
 11
916.8307
 21
413.3858
 31
0
  0
LINE
  5
1FC
100
AcDbEntity
  8
WALL
100
AcDbLine
370
50
 10
925.6890
 20
413.3858
 30
0
 11
925.6890
 21
360.2362
 31
0
  0
LINE
  5
1FD
100
AcDbEntity
  8
WALL
100
AcDbLine
370
50
 10
916.8307
 20
312.9921
 30
0
 11
925.6890
 21
312.9921
 31
0
  0
LINE
  5
1FE
100
AcDbEntity
  8
WALL
100
AcDbLine
370
50
 10
916.8307
 20
360.2362
 30
0
 11
925.6890
 21
360.2362
 31
0
  0
LINE
  5
1FF
100
AcDbEntity
  8
WALL
100
AcDbLine
370
50
 10
1365.6496
 20
0
 30
0
 11
1365.6496
 21
59.0551
 31
0
  0
LINE
  5
200
100
AcDbEntity
  8
WALL
100
AcDbLine
370
50
 10
1374.5079
 20
59.0551
 30
0
 11
1374.5079
 21
0
 31
0
  0
LINE
  5
201
100
AcDbEntity
  8
WALL
100
AcDbLine
370
50
 10
1365.6496
 20
106.2992
 30
0
 11
1365.6496
 21
165.3543
 31
0
  0
LINE
  5
202
100
AcDbEntity
  8
WALL
100
AcDbLine
370
50
 10
1374.5079
 20
165.3543
 30
0
 11
1374.5079
 21
106.2992
 31
0
  0
LINE
  5
203
100
AcDbEntity
  8
WALL
100
AcDbLine
370
50
 10
1365.6496
 20
59.0551
 30
0
 11
1374.5079
 21
59.0551
 31
0
  0
LINE
  5
204
100
AcDbEntity
  8
WALL
100
AcDbLine
370
50
 10
1365.6496
 20
106.2992
 30
0
 11
1374.5079
 21
106.2992
 31
0
  0
LINE
  5
205
100
AcDbEntity
  8
WALL
100
AcDbLine
370
50
 10
1365.6496
 20
165.3543
 30
0
 11
1365.6496
 21
188.9764
 31
0
  0
LINE
  5
206
100
AcDbEntity
  8
WALL
100
AcDbLine
370
50
 10
1374.5079
 20
188.9764
 30
0
 11
1374.5079
 21
165.3543
 31
0
  0
LINE
  5
207
100
AcDbEntity
  8
WALL
100
AcDbLine
370
50
 10
1365.6496
 20
236.2205
 30
0
 11
1365.6496
 21
259.8425
 31
0
  0
LINE
  5
208
100
AcDbEntity
  8
WALL
100
AcDbLine
370
50
 10
1374.5079
 20
259.8425
 30
0
 11
1374.5079
 21
236.2205
 31
0
  0
LINE
  5
209
100
AcDbEntity
  8
WALL
100
AcDbLine
370
50
 10
1365.6496
 20
188.9764
 30
0
 11
1374.5079
 21
188.9764
 31
0
  0
LINE
  5
20A
100
AcDbEntity
  8
WALL
100
AcDbLine
370
50
 10
1365.6496
 20
236.2205
 30
0
 11
1374.5079
 21
236.2205
 31
0
  0
LINE
  5
20B
100
AcDbEntity
  8
WALL
100
AcDbLine
370
50
 10
1365.6496
 20
259.8425
 30
0
 11
1365.6496
 21
312.9921
 31
0
  0
LINE
  5
20C
100
AcDbEntity
  8
WALL
100
AcDbLine
370
50
 10
1374.5079
 20
312.9921
 30
0
 11
1374.5079
 21
259.8425
 31
0
  0
LINE
  5
20D
100
AcDbEntity
  8
WALL
100
AcDbLine
370
50
 10
1365.6496
 20
360.2362
 30
0
 11
1365.6496
 21
413.3858
 31
0
  0
LINE
  5
20E
100
AcDbEntity
  8
WALL
100
AcDbLine
370
50
 10
1374.5079
 20
413.3858
 30
0
 11
1374.5079
 21
360.2362
 31
0
  0
LINE
  5
20F
100
AcDbEntity
  8
WALL
100
AcDbLine
370
50
 10
1365.6496
 20
312.9921
 30
0
 11
1374.5079
 21
312.9921
 31
0
  0
LINE
  5
210
100
AcDbEntity
  8
WALL
100
AcDbLine
370
50
 10
1365.6496
 20
360.2362
 30
0
 11
1374.5079
 21
360.2362
 31
0
  0
LINE
  5
211
100
AcDbEntity
  8
WALL
100
AcDbLine
370
50
 10
921.2598
 20
-4.4291
 30
0
 11
986.2205
 21
-4.4291
 31
0
  0
LINE
  5
212
100
AcDbEntity
  8
WALL
100
AcDbLine
370
50
 10
986.2205
 20
4.4291
 30
0
 11
921.2598
 21
4.4291
 31
0
  0
LINE
  5
213
100
AcDbEntity
  8
WALL
100
AcDbLine
370
50
 10
1033.4646
 20
-4.4291
 30
0
 11
1098.4252
 21
-4.4291
 31
0
  0
LINE
  5
214
100
AcDbEntity
  8
WALL
100
AcDbLine
370
50
 10
1098.4252
 20
4.4291
 30
0
 11
1033.4646
 21
4.4291
 31
0
  0
LINE
  5
215
100
AcDbEntity
  8
WALL
100
AcDbLine
370
50
 10
986.2205
 20
-4.4291
 30
0
 11
986.2205
 21
4.4291
 31
0
  0
LINE
  5
216
100
AcDbEntity
  8
WALL
100
AcDbLine
370
50
 10
1033.4646
 20
-4.4291
 30
0
 11
1033.4646
 21
4.4291
 31
0
  0
LINE
  5
217
100
AcDbEntity
  8
WALL
100
AcDbLine
370
50
 10
1098.4252
 20
-4.4291
 30
0
 11
1139.7638
 21
-4.4291
 31
0
  0
LINE
  5
218
100
AcDbEntity
  8
WALL
100
AcDbLine
370
50
 10
1139.7638
 20
4.4291
 30
0
 11
1098.4252
 21
4.4291
 31
0
  0
LINE
  5
219
100
AcDbEntity
  8
WALL
100
AcDbLine
370
50
 10
1187.0079
 20
-4.4291
 30
0
 11
1228.3465
 21
-4.4291
 31
0
  0
LINE
  5
21A
100
AcDbEntity
  8
WALL
100
AcDbLine
370
50
 10
1228.3465
 20
4.4291
 30
0
 11
1187.0079
 21
4.4291
 31
0
  0
LINE
  5
21B
100
AcDbEntity
  8
WALL
100
AcDbLine
370
50
 10
1139.7638
 20
-4.4291
 30
0
 11
1139.7638
 21
4.4291
 31
0
  0
LINE
  5
21C
100
AcDbEntity
  8
WALL
100
AcDbLine
370
50
 10
1187.0079
 20
-4.4291
 30
0
 11
1187.0079
 21
4.4291
 31
0
  0
LINE
  5
21D
100
AcDbEntity
  8
WALL
100
AcDbLine
370
50
 10
1228.3465
 20
-4.4291
 30
0
 11
1275.5906
 21
-4.4291
 31
0
  0
LINE
  5
21E
100
AcDbEntity
  8
WALL
100
AcDbLine
370
50
 10
1275.5906
 20
4.4291
 30
0
 11
1228.3465
 21
4.4291
 31
0
  0
LINE
  5
21F
100
AcDbEntity
  8
WALL
100
AcDbLine
370
50
 10
1322.8346
 20
-4.4291
 30
0
 11
1370.0787
 21
-4.4291
 31
0
  0
LINE
  5
220
100
AcDbEntity
  8
WALL
100
AcDbLine
370
50
 10
1370.0787
 20
4.4291
 30
0
 11
1322.8346
 21
4.4291
 31
0
  0
LINE
  5
221
100
AcDbEntity
  8
WALL
100
AcDbLine
370
50
 10
1275.5906
 20
-4.4291
 30
0
 11
1275.5906
 21
4.4291
 31
0
  0
LINE
  5
222
100
AcDbEntity
  8
WALL
100
AcDbLine
370
50
 10
1322.8346
 20
-4.4291
 30
0
 11
1322.8346
 21
4.4291
 31
0
  0
LINE
  5
223
100
AcDbEntity
  8
WALL
100
AcDbLine
370
50
 10
921.2598
 20
408.9567
 30
0
 11
986.2205
 21
408.9567
 31
0
  0
LINE
  5
224
100
AcDbEntity
  8
WALL
100
AcDbLine
370
50
 10
986.2205
 20
417.8150
 30
0
 11
921.2598
 21
417.8150
 31
0
  0
LINE
  5
225
100
AcDbEntity
  8
WALL
100
AcDbLine
370
50
 10
1033.4646
 20
408.9567
 30
0
 11
1098.4252
 21
408.9567
 31
0
  0
LINE
  5
226
100
AcDbEntity
  8
WALL
100
AcDbLine
370
50
 10
1098.4252
 20
417.8150
 30
0
 11
1033.4646
 21
417.8150
 31
0
  0
LINE
  5
227
100
AcDbEntity
  8
WALL
100
AcDbLine
370
50
 10
986.2205
 20
408.9567
 30
0
 11
986.2205
 21
417.8150
 31
0
  0
LINE
  5
228
100
AcDbEntity
  8
WALL
100
AcDbLine
370
50
 10
1033.4646
 20
408.9567
 30
0
 11
1033.4646
 21
417.8150
 31
0
  0
LINE
  5
229
100
AcDbEntity
  8
WALL
100
AcDbLine
370
50
 10
1098.4252
 20
408.9567
 30
0
 11
1139.7638
 21
408.9567
 31
0
  0
LINE
  5
22A
100
AcDbEntity
  8
WALL
100
AcDbLine
370
50
 10
1139.7638
 20
417.8150
 30
0
 11
1098.4252
 21
417.8150
 31
0
  0
LINE
  5
22B
100
AcDbEntity
  8
WALL
100
AcDbLine
370
50
 10
1187.0079
 20
408.9567
 30
0
 11
1228.3465
 21
408.9567
 31
0
  0
LINE
  5
22C
100
AcDbEntity
  8
WALL
100
AcDbLine
370
50
 10
1228.3465
 20
417.8150
 30
0
 11
1187.0079
 21
417.8150
 31
0
  0
LINE
  5
22D
100
AcDbEntity
  8
WALL
100
AcDbLine
370
50
 10
1139.7638
 20
408.9567
 30
0
 11
1139.7638
 21
417.8150
 31
0
  0
LINE
  5
22E
100
AcDbEntity
  8
WALL
100
AcDbLine
370
50
 10
1187.0079
 20
408.9567
 30
0
 11
1187.0079
 21
417.8150
 31
0
  0
LINE
  5
22F
100
AcDbEntity
  8
WALL
100
AcDbLine
370
50
 10
1228.3465
 20
408.9567
 30
0
 11
1275.5906
 21
408.9567
 31
0
  0
LINE
  5
230
100
AcDbEntity
  8
WALL
100
AcDbLine
370
50
 10
1275.5906
 20
417.8150
 30
0
 11
1228.3465
 21
417.8150
 31
0
  0
LINE
  5
231
100
AcDbEntity
  8
WALL
100
AcDbLine
370
50
 10
1322.8346
 20
408.9567
 30
0
 11
1370.0787
 21
408.9567
 31
0
  0
LINE
  5
232
100
AcDbEntity
  8
WALL
100
AcDbLine
370
50
 10
1370.0787
 20
417.8150
 30
0
 11
1322.8346
 21
417.8150
 31
0
  0
LINE
  5
233
100
AcDbEntity
  8
WALL
100
AcDbLine
370
50
 10
1275.5906
 20
408.9567
 30
0
 11
1275.5906
 21
417.8150
 31
0
  0
LINE
  5
234
100
AcDbEntity
  8
WALL
100
AcDbLine
370
50
 10
1322.8346
 20
408.9567
 30
0
 11
1322.8346
 21
417.8150
 31
0
  0
LINE
  5
235
100
AcDbEntity
  8
WALL
100
AcDbLine
370
50
 10
1095.4724
 20
0
 30
0
 11
1095.4724
 21
64.9606
 31
0
  0
LINE
  5
236
100
AcDbEntity
  8
WALL
100
AcDbLine
370
50
 10
1101.3780
 20
64.9606
 30
0
 11
1101.3780
 21
0
 31
0
  0
LINE
  5
237
100
AcDbEntity
  8
WALL
100
AcDbLine
370
50
 10
1095.4724
 20
100.3937
 30
0
 11
1095.4724
 21
165.3543
 31
0
  0
LINE
  5
238
100
AcDbEntity
  8
WALL
100
AcDbLine
370
50
 10
1101.3780
 20
165.3543
 30
0
 11
1101.3780
 21
100.3937
 31
0
  0
LINE
  5
239
100
AcDbEntity
  8
WALL
100
AcDbLine
370
50
 10
1095.4724
 20
64.9606
 30
0
 11
1101.3780
 21
64.9606
 31
0
  0
LINE
  5
23A
100
AcDbEntity
  8
WALL
100
AcDbLine
370
50
 10
1095.4724
 20
100.3937
 30
0
 11
1101.3780
 21
100.3937
 31
0
  0
LINE
  5
23B
100
AcDbEntity
  8
WALL
100
AcDbLine
370
50
 10
1095.4724
 20
165.3543
 30
0
 11
1095.4724
 21
259.8425
 31
0
  0
LINE
  5
23C
100
AcDbEntity
  8
WALL
100
AcDbLine
370
50
 10
1101.3780
 20
259.8425
 30
0
 11
1101.3780
 21
165.3543
 31
0
  0
LINE
  5
23D
100
AcDbEntity
  8
WALL
100
AcDbLine
370
50
 10
1095.4724
 20
259.8425
 30
0
 11
1095.4724
 21
318.8976
 31
0
  0
LINE
  5
23E
100
AcDbEntity
  8
WALL
100
AcDbLine
370
50
 10
1101.3780
 20
318.8976
 30
0
 11
1101.3780
 21
259.8425
 31
0
  0
LINE
  5
23F
100
AcDbEntity
  8
WALL
100
AcDbLine
370
50
 10
1095.4724
 20
354.3307
 30
0
 11
1095.4724
 21
413.3858
 31
0
  0
LINE
  5
240
100
AcDbEntity
  8
WALL
100
AcDbLine
370
50
 10
1101.3780
 20
413.3858
 30
0
 11
1101.3780
 21
354.3307
 31
0
  0
LINE
  5
241
100
AcDbEntity
  8
WALL
100
AcDbLine
370
50
 10
1095.4724
 20
318.8976
 30
0
 11
1101.3780
 21
318.8976
 31
0
  0
LINE
  5
242
100
AcDbEntity
  8
WALL
100
AcDbLine
370
50
 10
1095.4724
 20
354.3307
 30
0
 11
1101.3780
 21
354.3307
 31
0
  0
LINE
  5
243
100
AcDbEntity
  8
WALL
100
AcDbLine
370
50
 10
1225.3937
 20
0
 30
0
 11
1225.3937
 21
64.9606
 31
0
  0
LINE
  5
244
100
AcDbEntity
  8
WALL
100
AcDbLine
370
50
 10
1231.2992
 20
64.9606
 30
0
 11
1231.2992
 21
0
 31
0
  0
LINE
  5
245
100
AcDbEntity
  8
WALL
100
AcDbLine
370
50
 10
1225.3937
 20
100.3937
 30
0
 11
1225.3937
 21
165.3543
 31
0
  0
LINE
  5
246
100
AcDbEntity
  8
WALL
100
AcDbLine
370
50
 10
1231.2992
 20
165.3543
 30
0
 11
1231.2992
 21
100.3937
 31
0
  0
LINE
  5
247
100
AcDbEntity
  8
WALL
100
AcDbLine
370
50
 10
1225.3937
 20
64.9606
 30
0
 11
1231.2992
 21
64.9606
 31
0
  0
LINE
  5
248
100
AcDbEntity
  8
WALL
100
AcDbLine
370
50
 10
1225.3937
 20
100.3937
 30
0
 11
1231.2992
 21
100.3937
 31
0
  0
LINE
  5
249
100
AcDbEntity
  8
WALL
100
AcDbLine
370
50
 10
1225.3937
 20
165.3543
 30
0
 11
1225.3937
 21
194.8819
 31
0
  0
LINE
  5
24A
100
AcDbEntity
  8
WALL
100
AcDbLine
370
50
 10
1231.2992
 20
194.8819
 30
0
 11
1231.2992
 21
165.3543
 31
0
  0
LINE
  5
24B
100
AcDbEntity
  8
WALL
100
AcDbLine
370
50
 10
1225.3937
 20
230.3150
 30
0
 11
1225.3937
 21
259.8425
 31
0
  0
LINE
  5
24C
100
AcDbEntity
  8
WALL
100
AcDbLine
370
50
 10
1231.2992
 20
259.8425
 30
0
 11
1231.2992
 21
230.3150
 31
0
  0
LINE
  5
24D
100
AcDbEntity
  8
WALL
100
AcDbLine
370
50
 10
1225.3937
 20
194.8819
 30
0
 11
1231.2992
 21
194.8819
 31
0
  0
LINE
  5
24E
100
AcDbEntity
  8
WALL
100
AcDbLine
370
50
 10
1225.3937
 20
230.3150
 30
0
 11
1231.2992
 21
230.3150
 31
0
  0
LINE
  5
24F
100
AcDbEntity
  8
WALL
100
AcDbLine
370
50
 10
1225.3937
 20
259.8425
 30
0
 11
1225.3937
 21
318.8976
 31
0
  0
LINE
  5
250
100
AcDbEntity
  8
WALL
100
AcDbLine
370
50
 10
1231.2992
 20
318.8976
 30
0
 11
1231.2992
 21
259.8425
 31
0
  0
LINE
  5
251
100
AcDbEntity
  8
WALL
100
AcDbLine
370
50
 10
1225.3937
 20
354.3307
 30
0
 11
1225.3937
 21
413.3858
 31
0
  0
LINE
  5
252
100
AcDbEntity
  8
WALL
100
AcDbLine
370
50
 10
1231.2992
 20
413.3858
 30
0
 11
1231.2992
 21
354.3307
 31
0
  0
LINE
  5
253
100
AcDbEntity
  8
WALL
100
AcDbLine
370
50
 10
1225.3937
 20
318.8976
 30
0
 11
1231.2992
 21
318.8976
 31
0
  0
LINE
  5
254
100
AcDbEntity
  8
WALL
100
AcDbLine
370
50
 10
1225.3937
 20
354.3307
 30
0
 11
1231.2992
 21
354.3307
 31
0
  0
LINE
  5
255
100
AcDbEntity
  8
WALL
100
AcDbLine
370
50
 10
921.2598
 20
162.4016
 30
0
 11
992.1260
 21
162.4016
 31
0
  0
LINE
  5
256
100
AcDbEntity
  8
WALL
100
AcDbLine
370
50
 10
992.1260
 20
168.3071
 30
0
 11
921.2598
 21
168.3071
 31
0
  0
LINE
  5
257
100
AcDbEntity
  8
WALL
100
AcDbLine
370
50
 10
1027.5591
 20
162.4016
 30
0
 11
1098.4252
 21
162.4016
 31
0
  0
LINE
  5
258
100
AcDbEntity
  8
WALL
100
AcDbLine
370
50
 10
1098.4252
 20
168.3071
 30
0
 11
1027.5591
 21
168.3071
 31
0
  0
LINE
  5
259
100
AcDbEntity
  8
WALL
100
AcDbLine
370
50
 10
992.1260
 20
162.4016
 30
0
 11
992.1260
 21
168.3071
 31
0
  0
LINE
  5
25A
100
AcDbEntity
  8
WALL
100
AcDbLine
370
50
 10
1027.5591
 20
162.4016
 30
0
 11
1027.5591
 21
168.3071
 31
0
  0
LINE
  5
25B
100
AcDbEntity
  8
WALL
100
AcDbLine
370
50
 10
1098.4252
 20
162.4016
 30
0
 11
1145.6693
 21
162.4016
 31
0
  0
LINE
  5
25C
100
AcDbEntity
  8
WALL
100
AcDbLine
370
50
 10
1145.6693
 20
168.3071
 30
0
 11
1098.4252
 21
168.3071
 31
0
  0
LINE
  5
25D
100
AcDbEntity
  8
WALL
100
AcDbLine
370
50
 10
1181.1024
 20
162.4016
 30
0
 11
1228.3465
 21
162.4016
 31
0
  0
LINE
  5
25E
100
AcDbEntity
  8
WALL
100
AcDbLine
370
50
 10
1228.3465
 20
168.3071
 30
0
 11
1181.1024
 21
168.3071
 31
0
  0
LINE
  5
25F
100
AcDbEntity
  8
WALL
100
AcDbLine
370
50
 10
1145.6693
 20
162.4016
 30
0
 11
1145.6693
 21
168.3071
 31
0
  0
LINE
  5
260
100
AcDbEntity
  8
WALL
100
AcDbLine
370
50
 10
1181.1024
 20
162.4016
 30
0
 11
1181.1024
 21
168.3071
 31
0
  0
LINE
  5
261
100
AcDbEntity
  8
WALL
100
AcDbLine
370
50
 10
1228.3465
 20
162.4016
 30
0
 11
1281.4961
 21
162.4016
 31
0
  0
LINE
  5
262
100
AcDbEntity
  8
WALL
100
AcDbLine
370
50
 10
1281.4961
 20
168.3071
 30
0
 11
1228.3465
 21
168.3071
 31
0
  0
LINE
  5
263
100
AcDbEntity
  8
WALL
100
AcDbLine
370
50
 10
1316.9291
 20
162.4016
 30
0
 11
1370.0787
 21
162.4016
 31
0
  0
LINE
  5
264
100
AcDbEntity
  8
WALL
100
AcDbLine
370
50
 10
1370.0787
 20
168.3071
 30
0
 11
1316.9291
 21
168.3071
 31
0
  0
LINE
  5
265
100
AcDbEntity
  8
WALL
100
AcDbLine
370
50
 10
1281.4961
 20
162.4016
 30
0
 11
1281.4961
 21
168.3071
 31
0
  0
LINE
  5
266
100
AcDbEntity
  8
WALL
100
AcDbLine
370
50
 10
1316.9291
 20
162.4016
 30
0
 11
1316.9291
 21
168.3071
 31
0
  0
LINE
  5
267
100
AcDbEntity
  8
WALL
100
AcDbLine
370
50
 10
921.2598
 20
256.8898
 30
0
 11
1098.4252
 21
256.8898
 31
0
  0
LINE
  5
268
100
AcDbEntity
  8
WALL
100
AcDbLine
370
50
 10
1098.4252
 20
262.7953
 30
0
 11
921.2598
 21
262.7953
 31
0
  0
LINE
  5
269
100
AcDbEntity
  8
WALL
100
AcDbLine
370
50
 10
1098.4252
 20
256.8898
 30
0
 11
1145.6693
 21
256.8898
 31
0
  0
LINE
  5
26A
100
AcDbEntity
  8
WALL
100
AcDbLine
370
50
 10
1145.6693
 20
262.7953
 30
0
 11
1098.4252
 21
262.7953
 31
0
  0
LINE
  5
26B
100
AcDbEntity
  8
WALL
100
AcDbLine
370
50
 10
1181.1024
 20
256.8898
 30
0
 11
1228.3465
 21
256.8898
 31
0
  0
LINE
  5
26C
100
AcDbEntity
  8
WALL
100
AcDbLine
370
50
 10
1228.3465
 20
262.7953
 30
0
 11
1181.1024
 21
262.7953
 31
0
  0
LINE
  5
26D
100
AcDbEntity
  8
WALL
100
AcDbLine
370
50
 10
1145.6693
 20
256.8898
 30
0
 11
1145.6693
 21
262.7953
 31
0
  0
LINE
  5
26E
100
AcDbEntity
  8
WALL
100
AcDbLine
370
50
 10
1181.1024
 20
256.8898
 30
0
 11
1181.1024
 21
262.7953
 31
0
  0
LINE
  5
26F
100
AcDbEntity
  8
WALL
100
AcDbLine
370
50
 10
1228.3465
 20
256.8898
 30
0
 11
1281.4961
 21
256.8898
 31
0
  0
LINE
  5
270
100
AcDbEntity
  8
WALL
100
AcDbLine
370
50
 10
1281.4961
 20
262.7953
 30
0
 11
1228.3465
 21
262.7953
 31
0
  0
LINE
  5
271
100
AcDbEntity
  8
WALL
100
AcDbLine
370
50
 10
1316.9291
 20
256.8898
 30
0
 11
1370.0787
 21
256.8898
 31
0
  0
LINE
  5
272
100
AcDbEntity
  8
WALL
100
AcDbLine
370
50
 10
1370.0787
 20
262.7953
 30
0
 11
1316.9291
 21
262.7953
 31
0
  0
LINE
  5
273
100
AcDbEntity
  8
WALL
100
AcDbLine
370
50
 10
1281.4961
 20
256.8898
 30
0
 11
1281.4961
 21
262.7953
 31
0
  0
LINE
  5
274
100
AcDbEntity
  8
WALL
100
AcDbLine
370
50
 10
1316.9291
 20
256.8898
 30
0
 11
1316.9291
 21
262.7953
 31
0
  0
LWPOLYLINE
  5
275
100
AcDbEntity
  8
COLUMN
100
AcDbPolyline
 90
4
 70
1
 10
916.7323
 20
-4.5276
 10
925.7874
 20
-4.5276
 10
925.7874
 20
4.5276
 10
916.7323
 20
4.5276
  0
LWPOLYLINE
  5
276
100
AcDbEntity
  8
COLUMN
100
AcDbPolyline
 90
4
 70
1
 10
916.7323
 20
160.8268
 10
925.7874
 20
160.8268
 10
925.7874
 20
169.8819
 10
916.7323
 20
169.8819
  0
LWPOLYLINE
  5
277
100
AcDbEntity
  8
COLUMN
100
AcDbPolyline
 90
4
 70
1
 10
916.7323
 20
255.3150
 10
925.7874
 20
255.3150
 10
925.7874
 20
264.3701
 10
916.7323
 20
264.3701
  0
LWPOLYLINE
  5
278
100
AcDbEntity
  8
COLUMN
100
AcDbPolyline
 90
4
 70
1
 10
916.7323
 20
408.8583
 10
925.7874
 20
408.8583
 10
925.7874
 20
417.9134
 10
916.7323
 20
417.9134
  0
LWPOLYLINE
  5
279
100
AcDbEntity
  8
COLUMN
100
AcDbPolyline
 90
4
 70
1
 10
1093.8976
 20
-4.5276
 10
1102.9528
 20
-4.5276
 10
1102.9528
 20
4.5276
 10
1093.8976
 20
4.5276
  0
LWPOLYLINE
  5
27A
100
AcDbEntity
  8
COLUMN
100
AcDbPolyline
 90
4
 70
1
 10
1093.8976
 20
160.8268
 10
1102.9528
 20
160.8268
 10
1102.9528
 20
169.8819
 10
1093.8976
 20
169.8819
  0
LWPOLYLINE
  5
27B
100
AcDbEntity
  8
COLUMN
100
AcDbPolyline
 90
4
 70
1
 10
1093.8976
 20
255.3150
 10
1102.9528
 20
255.3150
 10
1102.9528
 20
264.3701
 10
1093.8976
 20
264.3701
  0
LWPOLYLINE
  5
27C
100
AcDbEntity
  8
COLUMN
100
AcDbPolyline
 90
4
 70
1
 10
1093.8976
 20
408.8583
 10
1102.9528
 20
408.8583
 10
1102.9528
 20
417.9134
 10
1093.8976
 20
417.9134
  0
LWPOLYLINE
  5
27D
100
AcDbEntity
  8
COLUMN
100
AcDbPolyline
 90
4
 70
1
 10
1223.8189
 20
-4.5276
 10
1232.8740
 20
-4.5276
 10
1232.8740
 20
4.5276
 10
1223.8189
 20
4.5276
  0
LWPOLYLINE
  5
27E
100
AcDbEntity
  8
COLUMN
100
AcDbPolyline
 90
4
 70
1
 10
1223.8189
 20
160.8268
 10
1232.8740
 20
160.8268
 10
1232.8740
 20
169.8819
 10
1223.8189
 20
169.8819
  0
LWPOLYLINE
  5
27F
100
AcDbEntity
  8
COLUMN
100
AcDbPolyline
 90
4
 70
1
 10
1223.8189
 20
255.3150
 10
1232.8740
 20
255.3150
 10
1232.8740
 20
264.3701
 10
1223.8189
 20
264.3701
  0
LWPOLYLINE
  5
280
100
AcDbEntity
  8
COLUMN
100
AcDbPolyline
 90
4
 70
1
 10
1223.8189
 20
408.8583
 10
1232.8740
 20
408.8583
 10
1232.8740
 20
417.9134
 10
1223.8189
 20
417.9134
  0
LWPOLYLINE
  5
281
100
AcDbEntity
  8
COLUMN
100
AcDbPolyline
 90
4
 70
1
 10
1365.5512
 20
-4.5276
 10
1374.6063
 20
-4.5276
 10
1374.6063
 20
4.5276
 10
1365.5512
 20
4.5276
  0
LWPOLYLINE
  5
282
100
AcDbEntity
  8
COLUMN
100
AcDbPolyline
 90
4
 70
1
 10
1365.5512
 20
160.8268
 10
1374.6063
 20
160.8268
 10
1374.6063
 20
169.8819
 10
1365.5512
 20
169.8819
  0
LWPOLYLINE
  5
283
100
AcDbEntity
  8
COLUMN
100
AcDbPolyline
 90
4
 70
1
 10
1365.5512
 20
255.3150
 10
1374.6063
 20
255.3150
 10
1374.6063
 20
264.3701
 10
1365.5512
 20
264.3701
  0
LWPOLYLINE
  5
284
100
AcDbEntity
  8
COLUMN
100
AcDbPolyline
 90
4
 70
1
 10
1365.5512
 20
408.8583
 10
1374.6063
 20
408.8583
 10
1374.6063
 20
417.9134
 10
1365.5512
 20
417.9134
  0
TEXT
  5
285
100
AcDbEntity
  8
TEXT
100
AcDbText
 10
990.8957
 20
83.4154
 30
0
 40
9.8425
  1
BEDROOM
100
AcDbText
  0
TEXT
  5
286
100
AcDbEntity
  8
TEXT
100
AcDbText
 10
1143.7008
 20
83.4154
 30
0
 40
9.8425
  1
BEDROOM
100
AcDbText
  0
TEXT
  5
287
100
AcDbEntity
  8
TEXT
100
AcDbText
 10
1278.7894
 20
83.4154
 30
0
 40
9.8425
  1
BEDROOM
100
AcDbText
  0
TEXT
  5
288
100
AcDbEntity
  8
TEXT
100
AcDbText
 10
990.8957
 20
212.5984
 30
0
 40
9.8425
  1
BATH
100
AcDbText
  0
LWPOLYLINE
  5
289
100
AcDbEntity
  8
SANITARY
100
AcDbPolyline
 90
4
 70
1
 10
941.4370
 20
221.4567
 10
957.1850
 20
221.4567
 10
957.1850
 20
245.0787
 10
941.4370
 20
245.0787
  0
TEXT
  5
28A
100
AcDbEntity
  8
TEXT
100
AcDbText
 10
1143.7008
 20
212.5984
 30
0
 40
9.8425
  1
BATH
100
AcDbText
  0
LWPOLYLINE
  5
28B
100
AcDbEntity
  8
SANITARY
100
AcDbPolyline
 90
4
 70
1
 10
1117.1260
 20
221.4567
 10
1132.8740
 20
221.4567
 10
1132.8740
 20
245.0787
 10
1117.1260
 20
245.0787
  0
TEXT
  5
28C
100
AcDbEntity
  8
TEXT
100
AcDbText
 10
1278.7894
 20
212.5984
 30
0
 40
9.8425
  1
DRESSING
100
AcDbText
  0
TEXT
  5
28D
100
AcDbEntity
  8
TEXT
100
AcDbText
 10
990.8957
 20
335.8760
 30
0
 40
9.8425
  1
FAMILY LOUNGE
100
AcDbText
  0
TEXT
  5
28E
100
AcDbEntity
  8
TEXT
100
AcDbText
 10
1143.7008
 20
335.8760
 30
0
 40
9.8425
  1
STAIR HALL
100
AcDbText
  0
TEXT
  5
28F
100
AcDbEntity
  8
TEXT
100
AcDbText
 10
1278.7894
 20
335.8760
 30
0
 40
9.8425
  1
MASTER BEDROOM
100
AcDbText
  0
DIMENSION
  5
290
100
AcDbEntity
  8
DIM
100
AcDbDimension
  2
*D
 10
921.2598
 20
-70.8661
 30
0
 11
1145.6693
 21
-61.0236
 31
0
 70
33
  1
37'-4 7/8"
 42
448.8189
100
AcDbAlignedDimension
 13
921.2598
 23
0
 33
0
 14
1370.0787
 24
0
 34
0
  0
DIMENSION
  5
291
100
AcDbEntity
  8
DIM
100
AcDbDimension
  2
*D
 10
850.3937
 20
0
 30
0
 11
860.2362
 21
206.6929
 31
0
 70
33
  1
34'-5 3/8"
 42
413.3858
100
AcDbAlignedDimension
 13
921.2598
 23
0
 33
0
 14
921.2598
 24
413.3858
 34
0
  0
DIMENSION
  5
292
100
AcDbEntity
  8
DIM
100
AcDbDimension
  2
*D
 10
921.2598
 20
460.6299
 30
0
 11
1009.8425
 21
470.4724
 31
0
 70
33
  1
14'-9 1/8"
 42
177.1654
100
AcDbAlignedDimension
 13
921.2598
 23
413.3858
 33
0
 14
1098.4252
 24
413.3858
 34
0
  0
DIMENSION
  5
293
100
AcDbEntity
  8
DIM
100
AcDbDimension
  2
*D
 10
1098.4252
 20
460.6299
 30
0
 11
1163.3858
 21
470.4724
 31
0
 70
33
  1
10'-9 7/8"
 42
129.9213
100
AcDbAlignedDimension
 13
1098.4252
 23
413.3858
 33
0
 14
1228.3465
 24
413.3858
 34
0
  0
DIMENSION
  5
294
100
AcDbEntity
  8
DIM
100
AcDbDimension
  2
*D
 10
1228.3465
 20
460.6299
 30
0
 11
1299.2126
 21
470.4724
 31
0
 70
33
  1
11'-9 3/4"
 42
141.7323
100
AcDbAlignedDimension
 13
1228.3465
 23
413.3858
 33
0
 14
1370.0787
 24
413.3858
 34
0
  0
DIMENSION
  5
295
100
AcDbEntity
  8
DIM
100
AcDbDimension
  2
*D
 10
1417.3228
 20
0
 30
0
 11
1427.1654
 21
82.6772
 31
0
 70
33
  1
13'-9 3/8"
 42
165.3543
100
AcDbAlignedDimension
 13
1370.0787
 23
0
 33
0
 14
1370.0787
 24
165.3543
 34
0
  0
DIMENSION
  5
296
100
AcDbEntity
  8
DIM
100
AcDbDimension
  2
*D
 10
1417.3228
 20
165.3543
 30
0
 11
1427.1654
 21
212.5984
 31
0
 70
33
  1
7'-10 1/2"
 42
94.4882
100
AcDbAlignedDimension
 13
1370.0787
 23
165.3543
 33
0
 14
1370.0787
 24
259.8425
 34
0
  0
DIMENSION
  5
297
100
AcDbEntity
  8
DIM
100
AcDbDimension
  2
*D
 10
1417.3228
 20
259.8425
 30
0
 11
1427.1654
 21
336.6142
 31
0
 70
33
  1
12'-9 1/2"
 42
153.5433
100
AcDbAlignedDimension
 13
1370.0787
 23
259.8425
 33
0
 14
1370.0787
 24
413.3858
 34
0
  0
TEXT
  5
298
100
AcDbEntity
  8
TEXT
100
AcDbText
 10
921.2598
 20
-125.9843
 30
0
 40
17.7165
  1
FIRST FLOOR PLAN
100
AcDbText
  0
TEXT
  5
299
100
AcDbEntity
  8
TEXT
100
AcDbText
 10
1472.4409
 20
206.6929
 30
0
 40
11.8110
  1
+11'-3 7/8"
100
AcDbText
  0
TEXT
  5
29A
100
AcDbEntity
  8
TEXT
100
AcDbText
 10
921.2598
 20
-157.4803
 30
0
 40
11.8110
  1
SCALE: 1/8" = 1'-0"
100
AcDbText
  0
LINE
  5
29B
100
AcDbEntity
  8
WALL
100
AcDbLine
370
50
 10
1842.5197
 20
0
 30
0
 11
2291.3386
 21
0
 31
0
  0
LINE
  5
29C
100
AcDbEntity
  8
WALL
100
AcDbLine
370
50
 10
2291.3386
 20
0
 30
0
 11
2291.3386
 21
283.4646
 31
0
  0
LINE
  5
29D
100
AcDbEntity
  8
WALL
100
AcDbLine
370
50
 10
2291.3386
 20
283.4646
 30
0
 11
1842.5197
 21
283.4646
 31
0
  0
LINE
  5
29E
100
AcDbEntity
  8
WALL
100
AcDbLine
370
50
 10
1842.5197
 20
283.4646
 30
0
 11
1842.5197
 21
0
 31
0
  0
LINE
  5
29F
100
AcDbEntity
  8
WALL
100
AcDbLine
 10
1842.5197
 20
0
 30
0
 11
2291.3386
 21
0
 31
0
  0
TEXT
  5
2A0
100
AcDbEntity
  8
TEXT
100
AcDbText
 10
2326.7717
 20
0
 30
0
 40
9.8425
  1
+1'-5 3/4" GROUND FLOOR LEVEL
100
AcDbText
  0
LWPOLYLINE
  5
2A1
100
AcDbEntity
  8
WIND
100
AcDbPolyline
 90
4
 70
1
 10
1931.1024
 20
35.4331
 10
1978.3465
 20
35.4331
 10
1978.3465
 20
82.6772
 10
1931.1024
 20
82.6772
  0
LWPOLYLINE
  5
2A2
100
AcDbEntity
  8
WIND
100
AcDbPolyline
 90
4
 70
1
 10
2043.3071
 20
35.4331
 10
2090.5512
 20
35.4331
 10
2090.5512
 20
82.6772
 10
2043.3071
 20
82.6772
  0
LWPOLYLINE
  5
2A3
100
AcDbEntity
  8
WIND
100
AcDbPolyline
 90
4
 70
1
 10
2155.5118
 20
35.4331
 10
2202.7559
 20
35.4331
 10
2202.7559
 20
82.6772
 10
2155.5118
 20
82.6772
  0
LINE
  5
2A4
100
AcDbEntity
  8
WALL
100
AcDbLine
 10
1842.5197
 20
118.1102
 30
0
 11
2291.3386
 21
118.1102
 31
0
  0
TEXT
  5
2A5
100
AcDbEntity
  8
TEXT
100
AcDbText
 10
2326.7717
 20
118.1102
 30
0
 40
9.8425
  1
+11'-3 7/8" FIRST FLOOR SLAB
100
AcDbText
  0
LWPOLYLINE
  5
2A6
100
AcDbEntity
  8
WIND
100
AcDbPolyline
 90
4
 70
1
 10
1931.1024
 20
153.5433
 10
1978.3465
 20
153.5433
 10
1978.3465
 20
200.7874
 10
1931.1024
 20
200.7874
  0
LWPOLYLINE
  5
2A7
100
AcDbEntity
  8
WIND
100
AcDbPolyline
 90
4
 70
1
 10
2043.3071
 20
153.5433
 10
2090.5512
 20
153.5433
 10
2090.5512
 20
200.7874
 10
2043.3071
 20
200.7874
  0
LWPOLYLINE
  5
2A8
100
AcDbEntity
  8
WIND
100
AcDbPolyline
 90
4
 70
1
 10
2155.5118
 20
153.5433
 10
2202.7559
 20
153.5433
 10
2202.7559
 20
200.7874
 10
2155.5118
 20
200.7874
  0
LINE
  5
2A9
100
AcDbEntity
  8
WALL
100
AcDbLine
 10
1842.5197
 20
236.2205
 30
0
 11
2291.3386
 21
236.2205
 31
0
  0
TEXT
  5
2AA
100
AcDbEntity
  8
TEXT
100
AcDbText
 10
2326.7717
 20
236.2205
 30
0
 40
9.8425
  1
+21'-1 7/8" ROOF LEVEL
100
AcDbText
  0
TEXT
  5
2AB
100
AcDbEntity
  8
TEXT
100
AcDbText
 10
1842.5197
 20
-125.9843
 30
0
 40
17.7165
  1
NORTH ELEVATION
100
AcDbText
  0
TEXT
  5
2AC
100
AcDbEntity
  8
TEXT
100
AcDbText
 10
1842.5197
 20
-157.4803
 30
0
 40
11.8110
  1
SCALE: 1/8" = 1'-0"
100
AcDbText
  0
LINE
  5
2AD
100
AcDbEntity
  8
WALL
100
AcDbLine
370
50
 10
2763.7795
 20
0
 30
0
 11
3177.1654
 21
0
 31
0
  0
LINE
  5
2AE
100
AcDbEntity
  8
WALL
100
AcDbLine
370
50
 10
3177.1654
 20
0
 30
0
 11
3177.1654
 21
283.4646
 31
0
  0
LINE
  5
2AF
100
AcDbEntity
  8
WALL
100
AcDbLine
370
50
 10
3177.1654
 20
283.4646
 30
0
 11
2763.7795
 21
283.4646
 31
0
  0
LINE
  5
2B0
100
AcDbEntity
  8
WALL
100
AcDbLine
370
50
 10
2763.7795
 20
283.4646
 30
0
 11
2763.7795
 21
0
 31
0
  0
LINE
  5
2B1
100
AcDbEntity
  8
WALL
100
AcDbLine
370
50
 10
2763.7795
 20
0
 30
0
 11
3177.1654
 21
0
 31
0
  0
LINE
  5
2B2
100
AcDbEntity
  8
WALL
100
AcDbLine
370
50
 10
2763.7795
 20
5.9055
 30
0
 11
3177.1654
 21
5.9055
 31
0
  0
TEXT
  5
2B3
100
AcDbEntity
  8
TEXT
100
AcDbText
 10
3212.5984
 20
0
 30
0
 40
9.8425
  1
+1'-5 3/4" GROUND FLOOR LEVEL
100
AcDbText
  0
LINE
  5
2B4
100
AcDbEntity
  8
WALL
100
AcDbLine
370
50
 10
2763.7795
 20
118.1102
 30
0
 11
3177.1654
 21
118.1102
 31
0
  0
LINE
  5
2B5
100
AcDbEntity
  8
WALL
100
AcDbLine
370
50
 10
2763.7795
 20
124.0157
 30
0
 11
3177.1654
 21
124.0157
 31
0
  0
TEXT
  5
2B6
100
AcDbEntity
  8
TEXT
100
AcDbText
 10
3212.5984
 20
118.1102
 30
0
 40
9.8425
  1
+11'-3 7/8" FIRST FLOOR SLAB
100
AcDbText
  0
LINE
  5
2B7
100
AcDbEntity
  8
WALL
100
AcDbLine
370
50
 10
2763.7795
 20
236.2205
 30
0
 11
3177.1654
 21
236.2205
 31
0
  0
LINE
  5
2B8
100
AcDbEntity
  8
WALL
100
AcDbLine
370
50
 10
2763.7795
 20
242.1260
 30
0
 11
3177.1654
 21
242.1260
 31
0
  0
TEXT
  5
2B9
100
AcDbEntity
  8
TEXT
100
AcDbText
 10
3212.5984
 20
236.2205
 30
0
 40
9.8425
  1
+21'-1 7/8" ROOF LEVEL
100
AcDbText
  0
TEXT
  5
2BA
100
AcDbEntity
  8
TEXT
100
AcDbText
 10
2803.1496
 20
59.0551
 30
0
 40
8.6614
  1
19 NOS RISERS OF 158MM EACH AND TREADS OF 275MM
100
AcDbText
  0
TEXT
  5
2BB
100
AcDbEntity
  8
TEXT
100
AcDbText
 10
2763.7795
 20
-125.9843
 30
0
 40
17.7165
  1
SECTION A-A
100
AcDbText
  0
TEXT
  5
2BC
100
AcDbEntity
  8
TEXT
100
AcDbText
 10
2763.7795
 20
-157.4803
 30
0
 40
11.8110
  1
SCALE: 1/8" = 1'-0"
100
AcDbText
  0
ENDSEC
  0
EOF
