  0
SECTION
  2
HEADER
  9
$ACADVER
  1
AC1015
  9
$INSUNITS
 70
6
  9
$MEASUREMENT
 70
1
  9
$HANDSEED
  5
FFFF
  0
ENDSEC
  0
SECTION
  2
TABLES
  0
TABLE
  2
LTYPE
  5
5CC
100
AcDbSymbolTable
 70
1
  0
LTYPE
  5
5CD
330
5CC
100
AcDbSymbolTableRecord
100
AcDbLinetypeTableRecord
  2
CONTINUOUS
 70
0
  3
Solid line
 72
65
 73
0
 40
0
  0
ENDTAB
  0
TABLE
  2
LAYER
  5
5CE
100
AcDbSymbolTable
 70
8
  0
LAYER
  5
5CF
330
5CE
100
AcDbSymbolTableRecord
100
AcDbLayerTableRecord
  2
0
 70
0
 62
1
  6
CONTINUOUS
  0
LAYER
  5
5D0
330
5CE
100
AcDbSymbolTableRecord
100
AcDbLayerTableRecord
  2
WIND
 70
0
 62
2
  6
CONTINUOUS
  0
LAYER
  5
5D1
330
5CE
100
AcDbSymbolTableRecord
100
AcDbLayerTableRecord
  2
DOOR
 70
0
 62
3
  6
CONTINUOUS
  0
LAYER
  5
5D2
330
5CE
100
AcDbSymbolTableRecord
100
AcDbLayerTableRecord
  2
WALL
 70
0
 62
4
  6
CONTINUOUS
  0
LAYER
  5
5D3
330
5CE
100
AcDbSymbolTableRecord
100
AcDbLayerTableRecord
  2
COLUMN
 70
0
 62
5
  6
CONTINUOUS
  0
LAYER
  5
5D4
330
5CE
100
AcDbSymbolTableRecord
100
AcDbLayerTableRecord
  2
TEXT
 70
0
 62
6
  6
CONTINUOUS
  0
LAYER
  5
5D5
330
5CE
100
AcDbSymbolTableRecord
100
AcDbLayerTableRecord
  2
SANITARY
 70
0
 62
7
  6
CONTINUOUS
  0
LAYER
  5
5D6
330
5CE
100
AcDbSymbolTableRecord
100
AcDbLayerTableRecord
  2
DIM
 70
0
 62
1
  6
CONTINUOUS
  0
ENDTAB
  0
TABLE
  2
BLOCK_RECORD
  5
5D7
100
AcDbSymbolTable
 70
2
  0
BLOCK_RECORD
  5
5D8
330
5D7
100
AcDbSymbolTableRecord
100
AcDbBlockTableRecord
  2
*Model_Space
  0
BLOCK_RECORD
  5
5D9
330
5D7
100
AcDbSymbolTableRecord
100
AcDbBlockTableRecord
  2
*Paper_Space
  0
ENDTAB
  0
ENDSEC
  0
SECTION
  2
BLOCKS
  0
ENDSEC
  0
SECTION
  2
ENTITIES
  0
LWPOLYLINE
  5
100
100
AcDbEntity
  8
WIND
100
AcDbPolyline
 90
4
 70
1
 10
2.4000
 20
-0.0600
 10
3.6000
 20
-0.0600
 10
3.6000
 20
0.0600
 10
2.4000
 20
0.0600
  0
LWPOLYLINE
  5
101
100
AcDbEntity
  8
WIND
100
AcDbPolyline
 90
4
 70
1
 10
2.4000
 20
29.9400
 10
3.6000
 20
29.9400
 10
3.6000
 20
30.0600
 10
2.4000
 20
30.0600
  0
LWPOLYLINE
  5
102
100
AcDbEntity
  8
WIND
100
AcDbPolyline
 90
4
 70
1
 10
8.4000
 20
-0.0600
 10
9.6000
 20
-0.0600
 10
9.6000
 20
0.0600
 10
8.4000
 20
0.0600
  0
LWPOLYLINE
  5
103
100
AcDbEntity
  8
WIND
100
AcDbPolyline
 90
4
 70
1
 10
8.4000
 20
29.9400
 10
9.6000
 20
29.9400
 10
9.6000
 20
30.0600
 10
8.4000
 20
30.0600
  0
LWPOLYLINE
  5
104
100
AcDbEntity
  8
WIND
100
AcDbPolyline
 90
4
 70
1
 10
14.4000
 20
-0.0600
 10
15.6000
 20
-0.0600
 10
15.6000
 20
0.0600
 10
14.4000
 20
0.0600
  0
LWPOLYLINE
  5
105
100
AcDbEntity
  8
WIND
100
AcDbPolyline
 90
4
 70
1
 10
14.4000
 20
29.9400
 10
15.6000
 20
29.9400
 10
15.6000
 20
30.0600
 10
14.4000
 20
30.0600
  0
LWPOLYLINE
  5
106
100
AcDbEntity
  8
WIND
100
AcDbPolyline
 90
4
 70
1
 10
20.4000
 20
-0.0600
 10
21.6000
 20
-0.0600
 10
21.6000
 20
0.0600
 10
20.4000
 20
0.0600
  0
LWPOLYLINE
  5
107
100
AcDbEntity
  8
WIND
100
AcDbPolyline
 90
4
 70
1
 10
20.4000
 20
29.9400
 10
21.6000
 20
29.9400
 10
21.6000
 20
30.0600
 10
20.4000
 20
30.0600
  0
LWPOLYLINE
  5
108
100
AcDbEntity
  8
WIND
100
AcDbPolyline
 90
4
 70
1
 10
26.4000
 20
-0.0600
 10
27.6000
 20
-0.0600
 10
27.6000
 20
0.0600
 10
26.4000
 20
0.0600
  0
LWPOLYLINE
  5
109
100
AcDbEntity
  8
WIND
100
AcDbPolyline
 90
4
 70
1
 10
26.4000
 20
29.9400
 10
27.6000
 20
29.9400
 10
27.6000
 20
30.0600
 10
26.4000
 20
30.0600
  0
LWPOLYLINE
  5
10A
100
AcDbEntity
  8
WIND
100
AcDbPolyline
 90
4
 70
1
 10
-0.0600
 20
2.4000
 10
0.0600
 20
2.4000
 10
0.0600
 20
3.6000
 10
-0.0600
 20
3.6000
  0
LWPOLYLINE
  5
10B
100
AcDbEntity
  8
WIND
100
AcDbPolyline
 90
4
 70
1
 10
29.9400
 20
2.4000
 10
30.0600
 20
2.4000
 10
30.0600
 20
3.6000
 10
29.9400
 20
3.6000
  0
LWPOLYLINE
  5
10C
100
AcDbEntity
  8
WIND
100
AcDbPolyline
 90
4
 70
1
 10
-0.0600
 20
8.4000
 10
0.0600
 20
8.4000
 10
0.0600
 20
9.6000
 10
-0.0600
 20
9.6000
  0
LWPOLYLINE
  5
10D
100
AcDbEntity
  8
WIND
100
AcDbPolyline
 90
4
 70
1
 10
29.9400
 20
8.4000
 10
30.0600
 20
8.4000
 10
30.0600
 20
9.6000
 10
29.9400
 20
9.6000
  0
LWPOLYLINE
  5
10E
100
AcDbEntity
  8
WIND
100
AcDbPolyline
 90
4
 70
1
 10
-0.0600
 20
14.4000
 10
0.0600
 20
14.4000
 10
0.0600
 20
15.6000
 10
-0.0600
 20
15.6000
  0
LWPOLYLINE
  5
10F
100
AcDbEntity
  8
WIND
100
AcDbPolyline
 90
4
 70
1
 10
29.9400
 20
14.4000
 10
30.0600
 20
14.4000
 10
30.0600
 20
15.6000
 10
29.9400
 20
15.6000
  0
LWPOLYLINE
  5
110
100
AcDbEntity
  8
WIND
100
AcDbPolyline
 90
4
 70
1
 10
-0.0600
 20
20.4000
 10
0.0600
 20
20.4000
 10
0.0600
 20
21.6000
 10
-0.0600
 20
21.6000
  0
LWPOLYLINE
  5
111
100
AcDbEntity
  8
WIND
100
AcDbPolyline
 90
4
 70
1
 10
29.9400
 20
20.4000
 10
30.0600
 20
20.4000
 10
30.0600
 20
21.6000
 10
29.9400
 20
21.6000
  0
LWPOLYLINE
  5
112
100
AcDbEntity
  8
WIND
100
AcDbPolyline
 90
4
 70
1
 10
-0.0600
 20
26.4000
 10
0.0600
 20
26.4000
 10
0.0600
 20
27.6000
 10
-0.0600
 20
27.6000
  0
LWPOLYLINE
  5
113
100
AcDbEntity
  8
WIND
100
AcDbPolyline
 90
4
 70
1
 10
29.9400
 20
26.4000
 10
30.0600
 20
26.4000
 10
30.0600
 20
27.6000
 10
29.9400
 20
27.6000
  0
ARC
  5
114
100
AcDbEntity
  8
DOOR
100
AcDbCircle
 10
6
 20
8.5500
 30
0
 40
0.9000
100
AcDbArc
 50
90
 51
180
  0
LINE
  5
115
100
AcDbEntity
  8
DOOR
100
AcDbLine
 10
6
 20
8.5500
 30
0
 11
5.1000
 21
8.5500
 31
0
  0
ARC
  5
116
100
AcDbEntity
  8
DOOR
100
AcDbCircle
 10
6
 20
14.5500
 30
0
 40
0.9000
100
AcDbArc
 50
90
 51
180
  0
LINE
  5
117
100
AcDbEntity
  8
DOOR
100
AcDbLine
 10
6
 20
14.5500
 30
0
 11
5.1000
 21
14.5500
 31
0
  0
ARC
  5
118
100
AcDbEntity
  8
DOOR
100
AcDbCircle
 10
6
 20
20.5500
 30
0
 40
0.9000
100
AcDbArc
 50
90
 51
180
  0
LINE
  5
119
100
AcDbEntity
  8
DOOR
100
AcDbLine
 10
6
 20
20.5500
 30
0
 11
5.1000
 21
20.5500
 31
0
  0
ARC
  5
11A
100
AcDbEntity
  8
DOOR
100
AcDbCircle
 10
6
 20
26.5500
 30
0
 40
0.9000
100
AcDbArc
 50
90
 51
180
  0
LINE
  5
11B
100
AcDbEntity
  8
DOOR
100
AcDbLine
 10
6
 20
26.5500
 30
0
 11
5.1000
 21
26.5500
 31
0
  0
ARC
  5
11C
100
AcDbEntity
  8
DOOR
100
AcDbCircle
 10
12
 20
2.5500
 30
0
 40
0.9000
100
AcDbArc
 50
90
 51
180
  0
LINE
  5
11D
100
AcDbEntity
  8
DOOR
100
AcDbLine
 10
12
 20
2.5500
 30
0
 11
11.1000
 21
2.5500
 31
0
  0
ARC
  5
11E
100
AcDbEntity
  8
DOOR
100
AcDbCircle
 10
12
 20
8.5500
 30
0
 40
0.9000
100
AcDbArc
 50
90
 51
180
  0
LINE
  5
11F
100
AcDbEntity
  8
DOOR
100
AcDbLine
 10
12
 20
8.5500
 30
0
 11
11.1000
 21
8.5500
 31
0
  0
ARC
  5
120
100
AcDbEntity
  8
DOOR
100
AcDbCircle
 10
12
 20
20.5500
 30
0
 40
0.9000
100
AcDbArc
 50
90
 51
180
  0
LINE
  5
121
100
AcDbEntity
  8
DOOR
100
AcDbLine
 10
12
 20
20.5500
 30
0
 11
11.1000
 21
20.5500
 31
0
  0
ARC
  5
122
100
AcDbEntity
  8
DOOR
100
AcDbCircle
 10
12
 20
26.5500
 30
0
 40
0.9000
100
AcDbArc
 50
90
 51
180
  0
LINE
  5
123
100
AcDbEntity
  8
DOOR
100
AcDbLine
 10
12
 20
26.5500
 30
0
 11
11.1000
 21
26.5500
 31
0
  0
ARC
  5
124
100
AcDbEntity
  8
DOOR
100
AcDbCircle
 10
18
 20
2.5500
 30
0
 40
0.9000
100
AcDbArc
 50
90
 51
180
  0
LINE
  5
125
100
AcDbEntity
  8
DOOR
100
AcDbLine
 10
18
 20
2.5500
 30
0
 11
17.1000
 21
2.5500
 31
0
  0
ARC
  5
126
100
AcDbEntity
  8
DOOR
100
AcDbCircle
 10
18
 20
8.5500
 30
0
 40
0.9000
100
AcDbArc
 50
90
 51
180
  0
LINE
  5
127
100
AcDbEntity
  8
DOOR
100
AcDbLine
 10
18
 20
8.5500
 30
0
 11
17.1000
 21
8.5500
 31
0
  0
ARC
  5
128
100
AcDbEntity
  8
DOOR
100
AcDbCircle
 10
18
 20
14.5500
 30
0
 40
0.9000
100
AcDbArc
 50
90
 51
180
  0
LINE
  5
129
100
AcDbEntity
  8
DOOR
100
AcDbLine
 10
18
 20
14.5500
 30
0
 11
17.1000
 21
14.5500
 31
0
  0
ARC
  5
12A
100
AcDbEntity
  8
DOOR
100
AcDbCircle
 10
18
 20
20.5500
 30
0
 40
0.9000
100
AcDbArc
 50
90
 51
180
  0
LINE
  5
12B
100
AcDbEntity
  8
DOOR
100
AcDbLine
 10
18
 20
20.5500
 30
0
 11
17.1000
 21
20.5500
 31
0
  0
ARC
  5
12C
100
AcDbEntity
  8
DOOR
100
AcDbCircle
 10
18
 20
26.5500
 30
0
 40
0.9000
100
AcDbArc
 50
90
 51
180
  0
LINE
  5
12D
100
AcDbEntity
  8
DOOR
100
AcDbLine
 10
18
 20
26.5500
 30
0
 11
17.1000
 21
26.5500
 31
0
  0
ARC
  5
12E
100
AcDbEntity
  8
DOOR
100
AcDbCircle
 10
24
 20
2.5500
 30
0
 40
0.9000
100
AcDbArc
 50
90
 51
180
  0
LINE
  5
12F
100
AcDbEntity
  8
DOOR
100
AcDbLine
 10
24
 20
2.5500
 30
0
 11
23.1000
 21
2.5500
 31
0
  0
ARC
  5
130
100
AcDbEntity
  8
DOOR
100
AcDbCircle
 10
24
 20
8.5500
 30
0
 40
0.9000
100
AcDbArc
 50
90
 51
180
  0
LINE
  5
131
100
AcDbEntity
  8
DOOR
100
AcDbLine
 10
24
 20
8.5500
 30
0
 11
23.1000
 21
8.5500
 31
0
  0
ARC
  5
132
100
AcDbEntity
  8
DOOR
100
AcDbCircle
 10
24
 20
14.5500
 30
0
 40
0.9000
100
AcDbArc
 50
90
 51
180
  0
LINE
  5
133
100
AcDbEntity
  8
DOOR
100
AcDbLine
 10
24
 20
14.5500
 30
0
 11
23.1000
 21
14.5500
 31
0
  0
ARC
  5
134
100
AcDbEntity
  8
DOOR
100
AcDbCircle
 10
24
 20
20.5500
 30
0
 40
0.9000
100
AcDbArc
 50
90
 51
180
  0
LINE
  5
135
100
AcDbEntity
  8
DOOR
100
AcDbLine
 10
24
 20
20.5500
 30
0
 11
23.1000
 21
20.5500
 31
0
  0
ARC
  5
136
100
AcDbEntity
  8
DOOR
100
AcDbCircle
 10
2.5500
 20
6
 30
0
 40
0.9000
100
AcDbArc
 50
0
 51
90
  0
LINE
  5
137
100
AcDbEntity
  8
DOOR
100
AcDbLine
 10
2.5500
 20
6
 30
0
 11
2.5500
 21
6.9000
 31
0
  0
ARC
  5
138
100
AcDbEntity
  8
DOOR
100
AcDbCircle
 10
8.5500
 20
6
 30
0
 40
0.9000
100
AcDbArc
 50
0
 51
90
  0
LINE
  5
139
100
AcDbEntity
  8
DOOR
100
AcDbLine
 10
8.5500
 20
6
 30
0
 11
8.5500
 21
6.9000
 31
0
  0
ARC
  5
13A
100
AcDbEntity
  8
DOOR
100
AcDbCircle
 10
14.5500
 20
6
 30
0
 40
0.9000
100
AcDbArc
 50
0
 51
90
  0
LINE
  5
13B
100
AcDbEntity
  8
DOOR
100
AcDbLine
 10
14.5500
 20
6
 30
0
 11
14.5500
 21
6.9000
 31
0
  0
ARC
  5
13C
100
AcDbEntity
  8
DOOR
100
AcDbCircle
 10
20.5500
 20
6
 30
0
 40
0.9000
100
AcDbArc
 50
0
 51
90
  0
LINE
  5
13D
100
AcDbEntity
  8
DOOR
100
AcDbLine
 10
20.5500
 20
6
 30
0
 11
20.5500
 21
6.9000
 31
0
  0
ARC
  5
13E
100
AcDbEntity
  8
DOOR
100
AcDbCircle
 10
2.5500
 20
12
 30
0
 40
0.9000
100
AcDbArc
 50
0
 51
90
  0
LINE
  5
13F
100
AcDbEntity
  8
DOOR
100
AcDbLine
 10
2.5500
 20
12
 30
0
 11
2.5500
 21
12.9000
 31
0
  0
ARC
  5
140
100
AcDbEntity
  8
DOOR
100
AcDbCircle
 10
8.5500
 20
12
 30
0
 40
0.9000
100
AcDbArc
 50
0
 51
90
  0
LINE
  5
141
100
AcDbEntity
  8
DOOR
100
AcDbLine
 10
8.5500
 20
12
 30
0
 11
8.5500
 21
12.9000
 31
0
  0
ARC
  5
142
100
AcDbEntity
  8
DOOR
100
AcDbCircle
 10
14.5500
 20
12
 30
0
 40
0.9000
100
AcDbArc
 50
0
 51
90
  0
LINE
  5
143
100
AcDbEntity
  8
DOOR
100
AcDbLine
 10
14.5500
 20
12
 30
0
 11
14.5500
 21
12.9000
 31
0
  0
ARC
  5
144
100
AcDbEntity
  8
DOOR
100
AcDbCircle
 10
20.5500
 20
12
 30
0
 40
0.9000
100
AcDbArc
 50
0
 51
90
  0
LINE
  5
145
100
AcDbEntity
  8
DOOR
100
AcDbLine
 10
20.5500
 20
12
 30
0
 11
20.5500
 21
12.9000
 31
0
  0
ARC
  5
146
100
AcDbEntity
  8
DOOR
100
AcDbCircle
 10
26.5500
 20
12
 30
0
 40
0.9000
100
AcDbArc
 50
0
 51
90
  0
LINE
  5
147
100
AcDbEntity
  8
DOOR
100
AcDbLine
 10
26.5500
 20
12
 30
0
 11
26.5500
 21
12.9000
 31
0
  0
ARC
  5
148
100
AcDbEntity
  8
DOOR
100
AcDbCircle
 10
2.5500
 20
18
 30
0
 40
0.9000
100
AcDbArc
 50
0
 51
90
  0
LINE
  5
149
100
AcDbEntity
  8
DOOR
100
AcDbLine
 10
2.5500
 20
18
 30
0
 11
2.5500
 21
18.9000
 31
0
  0
ARC
  5
14A
100
AcDbEntity
  8
DOOR
100
AcDbCircle
 10
8.5500
 20
18
 30
0
 40
0.9000
100
AcDbArc
 50
0
 51
90
  0
LINE
  5
14B
100
AcDbEntity
  8
DOOR
100
AcDbLine
 10
8.5500
 20
18
 30
0
 11
8.5500
 21
18.9000
 31
0
  0
ARC
  5
14C
100
AcDbEntity
  8
DOOR
100
AcDbCircle
 10
14.5500
 20
18
 30
0
 40
0.9000
100
AcDbArc
 50
0
 51
90
  0
LINE
  5
14D
100
AcDbEntity
  8
DOOR
100
AcDbLine
 10
14.5500
 20
18
 30
0
 11
14.5500
 21
18.9000
 31
0
  0
ARC
  5
14E
100
AcDbEntity
  8
DOOR
100
AcDbCircle
 10
20.5500
 20
18
 30
0
 40
0.9000
100
AcDbArc
 50
0
 51
90
  0
LINE
  5
14F
100
AcDbEntity
  8
DOOR
100
AcDbLine
 10
20.5500
 20
18
 30
0
 11
20.5500
 21
18.9000
 31
0
  0
ARC
  5
150
100
AcDbEntity
  8
DOOR
100
AcDbCircle
 10
26.5500
 20
18
 30
0
 40
0.9000
100
AcDbArc
 50
0
 51
90
  0
LINE
  5
151
100
AcDbEntity
  8
DOOR
100
AcDbLine
 10
26.5500
 20
18
 30
0
 11
26.5500
 21
18.9000
 31
0
  0
ARC
  5
152
100
AcDbEntity
  8
DOOR
100
AcDbCircle
 10
8.5500
 20
24
 30
0
 40
0.9000
100
AcDbArc
 50
0
 51
90
  0
LINE
  5
153
100
AcDbEntity
  8
DOOR
100
AcDbLine
 10
8.5500
 20
24
 30
0
 11
8.5500
 21
24.9000
 31
0
  0
ARC
  5
154
100
AcDbEntity
  8
DOOR
100
AcDbCircle
 10
14.5500
 20
24
 30
0
 40
0.9000
100
AcDbArc
 50
0
 51
90
  0
LINE
  5
155
100
AcDbEntity
  8
DOOR
100
AcDbLine
 10
14.5500
 20
24
 30
0
 11
14.5500
 21
24.9000
 31
0
  0
ARC
  5
156
100
AcDbEntity
  8
DOOR
100
AcDbCircle
 10
20.5500
 20
24
 30
0
 40
0.9000
100
AcDbArc
 50
0
 51
90
  0
LINE
  5
157
100
AcDbEntity
  8
DOOR
100
AcDbLine
 10
20.5500
 20
24
 30
0
 11
20.5500
 21
24.9000
 31
0
  0
ARC
  5
158
100
AcDbEntity
  8
DOOR
100
AcDbCircle
 10
26.5500
 20
24
 30
0
 40
0.9000
100
AcDbArc
 50
0
 51
90
  0
LINE
  5
159
100
AcDbEntity
  8
DOOR
100
AcDbLine
 10
26.5500
 20
24
 30
0
 11
26.5500
 21
24.9000
 31
0
  0
LINE
  5
15A
100
AcDbEntity
  8
WALL
100
AcDbLine
370
50
 10
0
 20
-0.1500
 30
0
 11
2.4000
 21
-0.1500
 31
0
  0
LINE
  5
15B
100
AcDbEntity
  8
WALL
100
AcDbLine
370
50
 10
0
 20
0.1500
 30
0
 11
2.4000
 21
0.1500
 31
0
  0
LINE
  5
15C
100
AcDbEntity
  8
WALL
100
AcDbLine
370
50
 10
3.6000
 20
-0.1500
 30
0
 11
6
 21
-0.1500
 31
0
  0
LINE
  5
15D
100
AcDbEntity
  8
WALL
100
AcDbLine
370
50
 10
3.6000
 20
0.1500
 30
0
 11
6
 21
0.1500
 31
0
  0
LINE
  5
15E
100
AcDbEntity
  8
WALL
100
AcDbLine
370
50
 10
2.4000
 20
-0.1500
 30
0
 11
2.4000
 21
0.1500
 31
0
  0
LINE
  5
15F
100
AcDbEntity
  8
WALL
100
AcDbLine
370
50
 10
3.6000
 20
-0.1500
 30
0
 11
3.6000
 21
0.1500
 31
0
  0
LINE
  5
160
100
AcDbEntity
  8
WALL
100
AcDbLine
370
50
 10
0
 20
29.8500
 30
0
 11
2.4000
 21
29.8500
 31
0
  0
LINE
  5
161
100
AcDbEntity
  8
WALL
100
AcDbLine
370
50
 10
0
 20
30.1500
 30
0
 11
2.4000
 21
30.1500
 31
0
  0
LINE
  5
162
100
AcDbEntity
  8
WALL
100
AcDbLine
370
50
 10
3.6000
 20
29.8500
 30
0
 11
6
 21
29.8500
 31
0
  0
LINE
  5
163
100
AcDbEntity
  8
WALL
100
AcDbLine
370
50
 10
3.6000
 20
30.1500
 30
0
 11
6
 21
30.1500
 31
0
  0
LINE
  5
164
100
AcDbEntity
  8
WALL
100
AcDbLine
370
50
 10
2.4000
 20
29.8500
 30
0
 11
2.4000
 21
30.1500
 31
0
  0
LINE
  5
165
100
AcDbEntity
  8
WALL
100
AcDbLine
370
50
 10
3.6000
 20
29.8500
 30
0
 11
3.6000
 21
30.1500
 31
0
  0
LINE
  5
166
100
AcDbEntity
  8
WALL
100
AcDbLine
370
50
 10
6
 20
-0.1500
 30
0
 11
8.4000
 21
-0.1500
 31
0
  0
LINE
  5
167
100
AcDbEntity
  8
WALL
100
AcDbLine
370
50
 10
6
 20
0.1500
 30
0
 11
8.4000
 21
0.1500
 31
0
  0
LINE
  5
168
100
AcDbEntity
  8
WALL
100
AcDbLine
370
50
 10
9.6000
 20
-0.1500
 30
0
 11
12
 21
-0.1500
 31
0
  0
LINE
  5
169
100
AcDbEntity
  8
WALL
100
AcDbLine
370
50
 10
9.6000
 20
0.1500
 30
0
 11
12
 21
0.1500
 31
0
  0
LINE
  5
16A
100
AcDbEntity
  8
WALL
100
AcDbLine
370
50
 10
8.4000
 20
-0.1500
 30
0
 11
8.4000
 21
0.1500
 31
0
  0
LINE
  5
16B
100
AcDbEntity
  8
WALL
100
AcDbLine
370
50
 10
9.6000
 20
-0.1500
 30
0
 11
9.6000
 21
0.1500
 31
0
  0
LINE
  5
16C
100
AcDbEntity
  8
WALL
100
AcDbLine
370
50
 10
6
 20
29.8500
 30
0
 11
8.4000
 21
29.8500
 31
0
  0
LINE
  5
16D
100
AcDbEntity
  8
WALL
100
AcDbLine
370
50
 10
6
 20
30.1500
 30
0
 11
8.4000
 21
30.1500
 31
0
  0
LINE
  5
16E
100
AcDbEntity
  8
WALL
100
AcDbLine
370
50
 10
9.6000
 20
29.8500
 30
0
 11
12
 21
29.8500
 31
0
  0
LINE
  5
16F
100
AcDbEntity
  8
WALL
100
AcDbLine
370
50
 10
9.6000
 20
30.1500
 30
0
 11
12
 21
30.1500
 31
0
  0
LINE
  5
170
100
AcDbEntity
  8
WALL
100
AcDbLine
370
50
 10
8.4000
 20
29.8500
 30
0
 11
8.4000
 21
30.1500
 31
0
  0
LINE
  5
171
100
AcDbEntity
  8
WALL
100
AcDbLine
370
50
 10
9.6000
 20
29.8500
 30
0
 11
9.6000
 21
30.1500
 31
0
  0
LINE
  5
172
100
AcDbEntity
  8
WALL
100
AcDbLine
370
50
 10
12
 20
-0.1500
 30
0
 11
14.4000
 21
-0.1500
 31
0
  0
LINE
  5
173
100
AcDbEntity
  8
WALL
100
AcDbLine
370
50
 10
12
 20
0.1500
 30
0
 11
14.4000
 21
0.1500
 31
0
  0
LINE
  5
174
100
AcDbEntity
  8
WALL
100
AcDbLine
370
50
 10
15.6000
 20
-0.1500
 30
0
 11
18
 21
-0.1500
 31
0
  0
LINE
  5
175
100
AcDbEntity
  8
WALL
100
AcDbLine
370
50
 10
15.6000
 20
0.1500
 30
0
 11
18
 21
0.1500
 31
0
  0
LINE
  5
176
100
AcDbEntity
  8
WALL
100
AcDbLine
370
50
 10
14.4000
 20
-0.1500
 30
0
 11
14.4000
 21
0.1500
 31
0
  0
LINE
  5
177
100
AcDbEntity
  8
WALL
100
AcDbLine
370
50
 10
15.6000
 20
-0.1500
 30
0
 11
15.6000
 21
0.1500
 31
0
  0
LINE
  5
178
100
AcDbEntity
  8
WALL
100
AcDbLine
370
50
 10
12
 20
29.8500
 30
0
 11
14.4000
 21
29.8500
 31
0
  0
LINE
  5
179
100
AcDbEntity
  8
WALL
100
AcDbLine
370
50
 10
12
 20
30.1500
 30
0
 11
14.4000
 21
30.1500
 31
0
  0
LINE
  5
17A
100
AcDbEntity
  8
WALL
100
AcDbLine
370
50
 10
15.6000
 20
29.8500
 30
0
 11
18
 21
29.8500
 31
0
  0
LINE
  5
17B
100
AcDbEntity
  8
WALL
100
AcDbLine
370
50
 10
15.6000
 20
30.1500
 30
0
 11
18
 21
30.1500
 31
0
  0
LINE
  5
17C
100
AcDbEntity
  8
WALL
100
AcDbLine
370
50
 10
14.4000
 20
29.8500
 30
0
 11
14.4000
 21
30.1500
 31
0
  0
LINE
  5
17D
100
AcDbEntity
  8
WALL
100
AcDbLine
370
50
 10
15.6000
 20
29.8500
 30
0
 11
15.6000
 21
30.1500
 31
0
  0
LINE
  5
17E
100
AcDbEntity
  8
WALL
100
AcDbLine
370
50
 10
18
 20
-0.1500
 30
0
 11
20.4000
 21
-0.1500
 31
0
  0
LINE
  5
17F
100
AcDbEntity
  8
WALL
100
AcDbLine
370
50
 10
18
 20
0.1500
 30
0
 11
20.4000
 21
0.1500
 31
0
  0
LINE
  5
180
100
AcDbEntity
  8
WALL
100
AcDbLine
370
50
 10
21.6000
 20
-0.1500
 30
0
 11
24
 21
-0.1500
 31
0
  0
LINE
  5
181
100
AcDbEntity
  8
WALL
100
AcDbLine
370
50
 10
21.6000
 20
0.1500
 30
0
 11
24
 21
0.1500
 31
0
  0
LINE
  5
182
100
AcDbEntity
  8
WALL
100
AcDbLine
370
50
 10
20.4000
 20
-0.1500
 30
0
 11
20.4000
 21
0.1500
 31
0
  0
LINE
  5
183
100
AcDbEntity
  8
WALL
100
AcDbLine
370
50
 10
21.6000
 20
-0.1500
 30
0
 11
21.6000
 21
0.1500
 31
0
  0
LINE
  5
184
100
AcDbEntity
  8
WALL
100
AcDbLine
370
50
 10
18
 20
29.8500
 30
0
 11
20.4000
 21
29.8500
 31
0
  0
LINE
  5
185
100
AcDbEntity
  8
WALL
100
AcDbLine
370
50
 10
18
 20
30.1500
 30
0
 11
20.4000
 21
30.1500
 31
0
  0
LINE
  5
186
100
AcDbEntity
  8
WALL
100
AcDbLine
370
50
 10
21.6000
 20
29.8500
 30
0
 11
24
 21
29.8500
 31
0
  0
LINE
  5
187
100
AcDbEntity
  8
WALL
100
AcDbLine
370
50
 10
21.6000
 20
30.1500
 30
0
 11
24
 21
30.1500
 31
0
  0
LINE
  5
188
100
AcDbEntity
  8
WALL
100
AcDbLine
370
50
 10
20.4000
 20
29.8500
 30
0
 11
20.4000
 21
30.1500
 31
0
  0
LINE
  5
189
100
AcDbEntity
  8
WALL
100
AcDbLine
370
50
 10
21.6000
 20
29.8500
 30
0
 11
21.6000
 21
30.1500
 31
0
  0
LINE
  5
18A
100
AcDbEntity
  8
WALL
100
AcDbLine
370
50
 10
24
 20
-0.1500
 30
0
 11
26.4000
 21
-0.1500
 31
0
  0
LINE
  5
18B
100
AcDbEntity
  8
WALL
100
AcDbLine
370
50
 10
24
 20
0.1500
 30
0
 11
26.4000
 21
0.1500
 31
0
  0
LINE
  5
18C
100
AcDbEntity
  8
WALL
100
AcDbLine
370
50
 10
27.6000
 20
-0.1500
 30
0
 11
30
 21
-0.1500
 31
0
  0
LINE
  5
18D
100
AcDbEntity
  8
WALL
100
AcDbLine
370
50
 10
27.6000
 20
0.1500
 30
0
 11
30
 21
0.1500
 31
0
  0
LINE
  5
18E
100
AcDbEntity
  8
WALL
100
AcDbLine
370
50
 10
26.4000
 20
-0.1500
 30
0
 11
26.4000
 21
0.1500
 31
0
  0
LINE
  5
18F
100
AcDbEntity
  8
WALL
100
AcDbLine
370
50
 10
27.6000
 20
-0.1500
 30
0
 11
27.6000
 21
0.1500
 31
0
  0
LINE
  5
190
100
AcDbEntity
  8
WALL
100
AcDbLine
370
50
 10
24
 20
29.8500
 30
0
 11
26.4000
 21
29.8500
 31
0
  0
LINE
  5
191
100
AcDbEntity
  8
WALL
100
AcDbLine
370
50
 10
24
 20
30.1500
 30
0
 11
26.4000
 21
30.1500
 31
0
  0
LINE
  5
192
100
AcDbEntity
  8
WALL
100
AcDbLine
370
50
 10
27.6000
 20
29.8500
 30
0
 11
30
 21
29.8500
 31
0
  0
LINE
  5
193
100
AcDbEntity
  8
WALL
100
AcDbLine
370
50
 10
27.6000
 20
30.1500
 30
0
 11
30
 21
30.1500
 31
0
  0
LINE
  5
194
100
AcDbEntity
  8
WALL
100
AcDbLine
370
50
 10
26.4000
 20
29.8500
 30
0
 11
26.4000
 21
30.1500
 31
0
  0
LINE
  5
195
100
AcDbEntity
  8
WALL
100
AcDbLine
370
50
 10
27.6000
 20
29.8500
 30
0
 11
27.6000
 21
30.1500
 31
0
  0
LINE
  5
196
100
AcDbEntity
  8
WALL
100
AcDbLine
370
50
 10
-0.1500
 20
0
 30
0
 11
-0.1500
 21
2.4000
 31
0
  0
LINE
  5
197
100
AcDbEntity
  8
WALL
100
AcDbLine
370
50
 10
0.1500
 20
0
 30
0
 11
0.1500
 21
2.4000
 31
0
  0
LINE
  5
198
100
AcDbEntity
  8
WALL
100
AcDbLine
370
50
 10
-0.1500
 20
3.6000
 30
0
 11
-0.1500
 21
6
 31
0
  0
LINE
  5
199
100
AcDbEntity
  8
WALL
100
AcDbLine
370
50
 10
0.1500
 20
3.6000
 30
0
 11
0.1500
 21
6
 31
0
  0
LINE
  5
19A
100
AcDbEntity
  8
WALL
100
AcDbLine
370
50
 10
-0.1500
 20
2.4000
 30
0
 11
0.1500
 21
2.4000
 31
0
  0
LINE
  5
19B
100
AcDbEntity
  8
WALL
100
AcDbLine
370
50
 10
-0.1500
 20
3.6000
 30
0
 11
0.1500
 21
3.6000
 31
0
  0
LINE
  5
19C
100
AcDbEntity
  8
WALL
100
AcDbLine
370
50
 10
29.8500
 20
0
 30
0
 11
29.8500
 21
2.4000
 31
0
  0
LINE
  5
19D
100
AcDbEntity
  8
WALL
100
AcDbLine
370
50
 10
30.1500
 20
0
 30
0
 11
30.1500
 21
2.4000
 31
0
  0
LINE
  5
19E
100
AcDbEntity
  8
WALL
100
AcDbLine
370
50
 10
29.8500
 20
3.6000
 30
0
 11
29.8500
 21
6
 31
0
  0
LINE
  5
19F
100
AcDbEntity
  8
WALL
100
AcDbLine
370
50
 10
30.1500
 20
3.6000
 30
0
 11
30.1500
 21
6
 31
0
  0
LINE
  5
1A0
100
AcDbEntity
  8
WALL
100
AcDbLine
370
50
 10
29.8500
 20
2.4000
 30
0
 11
30.1500
 21
2.4000
 31
0
  0
LINE
  5
1A1
100
AcDbEntity
  8
WALL
100
AcDbLine
370
50
 10
29.8500
 20
3.6000
 30
0
 11
30.1500
 21
3.6000
 31
0
  0
LINE
  5
1A2
100
AcDbEntity
  8
WALL
100
AcDbLine
370
50
 10
-0.1500
 20
6
 30
0
 11
-0.1500
 21
8.4000
 31
0
  0
LINE
  5
1A3
100
AcDbEntity
  8
WALL
100
AcDbLine
370
50
 10
0.1500
 20
6
 30
0
 11
0.1500
 21
8.4000
 31
0
  0
LINE
  5
1A4
100
AcDbEntity
  8
WALL
100
AcDbLine
370
50
 10
-0.1500
 20
9.6000
 30
0
 11
-0.1500
 21
12
 31
0
  0
LINE
  5
1A5
100
AcDbEntity
  8
WALL
100
AcDbLine
370
50
 10
0.1500
 20
9.6000
 30
0
 11
0.1500
 21
12
 31
0
  0
LINE
  5
1A6
100
AcDbEntity
  8
WALL
100
AcDbLine
370
50
 10
-0.1500
 20
8.4000
 30
0
 11
0.1500
 21
8.4000
 31
0
  0
LINE
  5
1A7
100
AcDbEntity
  8
WALL
100
AcDbLine
370
50
 10
-0.1500
 20
9.6000
 30
0
 11
0.1500
 21
9.6000
 31
0
  0
LINE
  5
1A8
100
AcDbEntity
  8
WALL
100
AcDbLine
370
50
 10
29.8500
 20
6
 30
0
 11
29.8500
 21
8.4000
 31
0
  0
LINE
  5
1A9
100
AcDbEntity
  8
WALL
100
AcDbLine
370
50
 10
30.1500
 20
6
 30
0
 11
30.1500
 21
8.4000
 31
0
  0
LINE
  5
1AA
100
AcDbEntity
  8
WALL
100
AcDbLine
370
50
 10
29.8500
 20
9.6000
 30
0
 11
29.8500
 21
12
 31
0
  0
LINE
  5
1AB
100
AcDbEntity
  8
WALL
100
AcDbLine
370
50
 10
30.1500
 20
9.6000
 30
0
 11
30.1500
 21
12
 31
0
  0
LINE
  5
1AC
100
AcDbEntity
  8
WALL
100
AcDbLine
370
50
 10
29.8500
 20
8.4000
 30
0
 11
30.1500
 21
8.4000
 31
0
  0
LINE
  5
1AD
100
AcDbEntity
  8
WALL
100
AcDbLine
370
50
 10
29.8500
 20
9.6000
 30
0
 11
30.1500
 21
9.6000
 31
0
  0
LINE
  5
1AE
100
AcDbEntity
  8
WALL
100
AcDbLine
370
50
 10
-0.1500
 20
12
 30
0
 11
-0.1500
 21
14.4000
 31
0
  0
LINE
  5
1AF
100
AcDbEntity
  8
WALL
100
AcDbLine
370
50
 10
0.1500
 20
12
 30
0
 11
0.1500
 21
14.4000
 31
0
  0
LINE
  5
1B0
100
AcDbEntity
  8
WALL
100
AcDbLine
370
50
 10
-0.1500
 20
15.6000
 30
0
 11
-0.1500
 21
18
 31
0
  0
LINE
  5
1B1
100
AcDbEntity
  8
WALL
100
AcDbLine
370
50
 10
0.1500
 20
15.6000
 30
0
 11
0.1500
 21
18
 31
0
  0
LINE
  5
1B2
100
AcDbEntity
  8
WALL
100
AcDbLine
370
50
 10
-0.1500
 20
14.4000
 30
0
 11
0.1500
 21
14.4000
 31
0
  0
LINE
  5
1B3
100
AcDbEntity
  8
WALL
100
AcDbLine
370
50
 10
-0.1500
 20
15.6000
 30
0
 11
0.1500
 21
15.6000
 31
0
  0
LINE
  5
1B4
100
AcDbEntity
  8
WALL
100
AcDbLine
370
50
 10
29.8500
 20
12
 30
0
 11
29.8500
 21
14.4000
 31
0
  0
LINE
  5
1B5
100
AcDbEntity
  8
WALL
100
AcDbLine
370
50
 10
30.1500
 20
12
 30
0
 11
30.1500
 21
14.4000
 31
0
  0
LINE
  5
1B6
100
AcDbEntity
  8
WALL
100
AcDbLine
370
50
 10
29.8500
 20
15.6000
 30
0
 11
29.8500
 21
18
 31
0
  0
LINE
  5
1B7
100
AcDbEntity
  8
WALL
100
AcDbLine
370
50
 10
30.1500
 20
15.6000
 30
0
 11
30.1500
 21
18
 31
0
  0
LINE
  5
1B8
100
AcDbEntity
  8
WALL
100
AcDbLine
370
50
 10
29.8500
 20
14.4000
 30
0
 11
30.1500
 21
14.4000
 31
0
  0
LINE
  5
1B9
100
AcDbEntity
  8
WALL
100
AcDbLine
370
50
 10
29.8500
 20
15.6000
 30
0
 11
30.1500
 21
15.6000
 31
0
  0
LINE
  5
1BA
100
AcDbEntity
  8
WALL
100
AcDbLine
370
50
 10
-0.1500
 20
18
 30
0
 11
-0.1500
 21
20.4000
 31
0
  0
LINE
  5
1BB
100
AcDbEntity
  8
WALL
100
AcDbLine
370
50
 10
0.1500
 20
18
 30
0
 11
0.1500
 21
20.4000
 31
0
  0
LINE
  5
1BC
100
AcDbEntity
  8
WALL
100
AcDbLine
370
50
 10
-0.1500
 20
21.6000
 30
0
 11
-0.1500
 21
24
 31
0
  0
LINE
  5
1BD
100
AcDbEntity
  8
WALL
100
AcDbLine
370
50
 10
0.1500
 20
21.6000
 30
0
 11
0.1500
 21
24
 31
0
  0
LINE
  5
1BE
100
AcDbEntity
  8
WALL
100
AcDbLine
370
50
 10
-0.1500
 20
20.4000
 30
0
 11
0.1500
 21
20.4000
 31
0
  0
LINE
  5
1BF
100
AcDbEntity
  8
WALL
100
AcDbLine
370
50
 10
-0.1500
 20
21.6000
 30
0
 11
0.1500
 21
21.6000
 31
0
  0
LINE
  5
1C0
100
AcDbEntity
  8
WALL
100
AcDbLine
370
50
 10
29.8500
 20
18
 30
0
 11
29.8500
 21
20.4000
 31
0
  0
LINE
  5
1C1
100
AcDbEntity
  8
WALL
100
AcDbLine
370
50
 10
30.1500
 20
18
 30
0
 11
30.1500
 21
20.4000
 31
0
  0
LINE
  5
1C2
100
AcDbEntity
  8
WALL
100
AcDbLine
370
50
 10
29.8500
 20
21.6000
 30
0
 11
29.8500
 21
24
 31
0
  0
LINE
  5
1C3
100
AcDbEntity
  8
WALL
100
AcDbLine
370
50
 10
30.1500
 20
21.6000
 30
0
 11
30.1500
 21
24
 31
0
  0
LINE
  5
1C4
100
AcDbEntity
  8
WALL
100
AcDbLine
370
50
 10
29.8500
 20
20.4000
 30
0
 11
30.1500
 21
20.4000
 31
0
  0
LINE
  5
1C5
100
AcDbEntity
  8
WALL
100
AcDbLine
370
50
 10
29.8500
 20
21.6000
 30
0
 11
30.1500
 21
21.6000
 31
0
  0
LINE
  5
1C6
100
AcDbEntity
  8
WALL
100
AcDbLine
370
50
 10
-0.1500
 20
24
 30
0
 11
-0.1500
 21
26.4000
 31
0
  0
LINE
  5
1C7
100
AcDbEntity
  8
WALL
100
AcDbLine
370
50
 10
0.1500
 20
24
 30
0
 11
0.1500
 21
26.4000
 31
0
  0
LINE
  5
1C8
100
AcDbEntity
  8
WALL
100
AcDbLine
370
50
 10
-0.1500
 20
27.6000
 30
0
 11
-0.1500
 21
30
 31
0
  0
LINE
  5
1C9
100
AcDbEntity
  8
WALL
100
AcDbLine
370
50
 10
0.1500
 20
27.6000
 30
0
 11
0.1500
 21
30
 31
0
  0
LINE
  5
1CA
100
AcDbEntity
  8
WALL
100
AcDbLine
370
50
 10
-0.1500
 20
26.4000
 30
0
 11
0.1500
 21
26.4000
 31
0
  0
LINE
  5
1CB
100
AcDbEntity
  8
WALL
100
AcDbLine
370
50
 10
-0.1500
 20
27.6000
 30
0
 11
0.1500
 21
27.6000
 31
0
  0
LINE
  5
1CC
100
AcDbEntity
  8
WALL
100
AcDbLine
370
50
 10
29.8500
 20
24
 30
0
 11
29.8500
 21
26.4000
 31
0
  0
LINE
  5
1CD
100
AcDbEntity
  8
WALL
100
AcDbLine
370
50
 10
30.1500
 20
24
 30
0
 11
30.1500
 21
26.4000
 31
0
  0
LINE
  5
1CE
100
AcDbEntity
  8
WALL
100
AcDbLine
370
50
 10
29.8500
 20
27.6000
 30
0
 11
29.8500
 21
30
 31
0
  0
LINE
  5
1CF
100
AcDbEntity
  8
WALL
100
AcDbLine
370
50
 10
30.1500
 20
27.6000
 30
0
 11
30.1500
 21
30
 31
0
  0
LINE
  5
1D0
100
AcDbEntity
  8
WALL
100
AcDbLine
370
50
 10
29.8500
 20
26.4000
 30
0
 11
30.1500
 21
26.4000
 31
0
  0
LINE
  5
1D1
100
AcDbEntity
  8
WALL
100
AcDbLine
370
50
 10
29.8500
 20
27.6000
 30
0
 11
30.1500
 21
27.6000
 31
0
  0
LINE
  5
1D2
100
AcDbEntity
  8
WALL
100
AcDbLine
370
50
 10
5.9250
 20
0
 30
0
 11
5.9250
 21
6
 31
0
  0
LINE
  5
1D3
100
AcDbEntity
  8
WALL
100
AcDbLine
370
50
 10
6.0750
 20
0
 30
0
 11
6.0750
 21
6
 31
0
  0
LINE
  5
1D4
100
AcDbEntity
  8
WALL
100
AcDbLine
370
50
 10
5.9250
 20
6
 30
0
 11
5.9250
 21
8.5500
 31
0
  0
LINE
  5
1D5
100
AcDbEntity
  8
WALL
100
AcDbLine
370
50
 10
6.0750
 20
6
 30
0
 11
6.0750
 21
8.5500
 31
0
  0
LINE
  5
1D6
100
AcDbEntity
  8
WALL
100
AcDbLine
370
50
 10
5.9250
 20
9.4500
 30
0
 11
5.9250
 21
12
 31
0
  0
LINE
  5
1D7
100
AcDbEntity
  8
WALL
100
AcDbLine
370
50
 10
6.0750
 20
9.4500
 30
0
 11
6.0750
 21
12
 31
0
  0
LINE
  5
1D8
100
AcDbEntity
  8
WALL
100
AcDbLine
370
50
 10
5.9250
 20
8.5500
 30
0
 11
6.0750
 21
8.5500
 31
0
  0
LINE
  5
1D9
100
AcDbEntity
  8
WALL
100
AcDbLine
370
50
 10
5.9250
 20
9.4500
 30
0
 11
6.0750
 21
9.4500
 31
0
  0
LINE
  5
1DA
100
AcDbEntity
  8
WALL
100
AcDbLine
370
50
 10
5.9250
 20
12
 30
0
 11
5.9250
 21
14.5500
 31
0
  0
LINE
  5
1DB
100
AcDbEntity
  8
WALL
100
AcDbLine
370
50
 10
6.0750
 20
12
 30
0
 11
6.0750
 21
14.5500
 31
0
  0
LINE
  5
1DC
100
AcDbEntity
  8
WALL
100
AcDbLine
370
50
 10
5.9250
 20
15.4500
 30
0
 11
5.9250
 21
18
 31
0
  0
LINE
  5
1DD
100
AcDbEntity
  8
WALL
100
AcDbLine
370
50
 10
6.0750
 20
15.4500
 30
0
 11
6.0750
 21
18
 31
0
  0
LINE
  5
1DE
100
AcDbEntity
  8
WALL
100
AcDbLine
370
50
 10
5.9250
 20
14.5500
 30
0
 11
6.0750
 21
14.5500
 31
0
  0
LINE
  5
1DF
100
AcDbEntity
  8
WALL
100
AcDbLine
370
50
 10
5.9250
 20
15.4500
 30
0
 11
6.0750
 21
15.4500
 31
0
  0
LINE
  5
1E0
100
AcDbEntity
  8
WALL
100
AcDbLine
370
50
 10
5.9250
 20
18
 30
0
 11
5.9250
 21
20.5500
 31
0
  0
LINE
  5
1E1
100
AcDbEntity
  8
WALL
100
AcDbLine
370
50
 10
6.0750
 20
18
 30
0
 11
6.0750
 21
20.5500
 31
0
  0
LINE
  5
1E2
100
AcDbEntity
  8
WALL
100
AcDbLine
370
50
 10
5.9250
 20
21.4500
 30
0
 11
5.9250
 21
24
 31
0
  0
LINE
  5
1E3
100
AcDbEntity
  8
WALL
100
AcDbLine
370
50
 10
6.0750
 20
21.4500
 30
0
 11
6.0750
 21
24
 31
0
  0
LINE
  5
1E4
100
AcDbEntity
  8
WALL
100
AcDbLine
370
50
 10
5.9250
 20
20.5500
 30
0
 11
6.0750
 21
20.5500
 31
0
  0
LINE
  5
1E5
100
AcDbEntity
  8
WALL
100
AcDbLine
370
50
 10
5.9250
 20
21.4500
 30
0
 11
6.0750
 21
21.4500
 31
0
  0
LINE
  5
1E6
100
AcDbEntity
  8
WALL
100
AcDbLine
370
50
 10
5.9250
 20
24
 30
0
 11
5.9250
 21
26.5500
 31
0
  0
LINE
  5
1E7
100
AcDbEntity
  8
WALL
100
AcDbLine
370
50
 10
6.0750
 20
24
 30
0
 11
6.0750
 21
26.5500
 31
0
  0
LINE
  5
1E8
100
AcDbEntity
  8
WALL
100
AcDbLine
370
50
 10
5.9250
 20
27.4500
 30
0
 11
5.9250
 21
30
 31
0
  0
LINE
  5
1E9
100
AcDbEntity
  8
WALL
100
AcDbLine
370
50
 10
6.0750
 20
27.4500
 30
0
 11
6.0750
 21
30
 31
0
  0
LINE
  5
1EA
100
AcDbEntity
  8
WALL
100
AcDbLine
370
50
 10
5.9250
 20
26.5500
 30
0
 11
6.0750
 21
26.5500
 31
0
  0
LINE
  5
1EB
100
AcDbEntity
  8
WALL
100
AcDbLine
370
50
 10
5.9250
 20
27.4500
 30
0
 11
6.0750
 21
27.4500
 31
0
  0
LINE
  5
1EC
100
AcDbEntity
  8
WALL
100
AcDbLine
370
50
 10
11.9250
 20
0
 30
0
 11
11.9250
 21
2.5500
 31
0
  0
LINE
  5
1ED
100
AcDbEntity
  8
WALL
100
AcDbLine
370
50
 10
12.0750
 20
0
 30
0
 11
12.0750
 21
2.5500
 31
0
  0
LINE
  5
1EE
100
AcDbEntity
  8
WALL
100
AcDbLine
370
50
 10
11.9250
 20
3.4500
 30
0
 11
11.9250
 21
6
 31
0
  0
LINE
  5
1EF
100
AcDbEntity
  8
WALL
100
AcDbLine
370
50
 10
12.0750
 20
3.4500
 30
0
 11
12.0750
 21
6
 31
0
  0
LINE
  5
1F0
100
AcDbEntity
  8
WALL
100
AcDbLine
370
50
 10
11.9250
 20
2.5500
 30
0
 11
12.0750
 21
2.5500
 31
0
  0
LINE
  5
1F1
100
AcDbEntity
  8
WALL
100
AcDbLine
370
50
 10
11.9250
 20
3.4500
 30
0
 11
12.0750
 21
3.4500
 31
0
  0
LINE
  5
1F2
100
AcDbEntity
  8
WALL
100
AcDbLine
370
50
 10
11.9250
 20
6
 30
0
 11
11.9250
 21
8.5500
 31
0
  0
LINE
  5
1F3
100
AcDbEntity
  8
WALL
100
AcDbLine
370
50
 10
12.0750
 20
6
 30
0
 11
12.0750
 21
8.5500
 31
0
  0
LINE
  5
1F4
100
AcDbEntity
  8
WALL
100
AcDbLine
370
50
 10
11.9250
 20
9.4500
 30
0
 11
11.9250
 21
12
 31
0
  0
LINE
  5
1F5
100
AcDbEntity
  8
WALL
100
AcDbLine
370
50
 10
12.0750
 20
9.4500
 30
0
 11
12.0750
 21
12
 31
0
  0
LINE
  5
1F6
100
AcDbEntity
  8
WALL
100
AcDbLine
370
50
 10
11.9250
 20
8.5500
 30
0
 11
12.0750
 21
8.5500
 31
0
  0
LINE
  5
1F7
100
AcDbEntity
  8
WALL
100
AcDbLine
370
50
 10
11.9250
 20
9.4500
 30
0
 11
12.0750
 21
9.4500
 31
0
  0
LINE
  5
1F8
100
AcDbEntity
  8
WALL
100
AcDbLine
370
50
 10
11.9250
 20
12
 30
0
 11
11.9250
 21
18
 31
0
  0
LINE
  5
1F9
100
AcDbEntity
  8
WALL
100
AcDbLine
370
50
 10
12.0750
 20
12
 30
0
 11
12.0750
 21
18
 31
0
  0
LINE
  5
1FA
100
AcDbEntity
  8
WALL
100
AcDbLine
370
50
 10
11.9250
 20
18
 30
0
 11
11.9250
 21
20.5500
 31
0
  0
LINE
  5
1FB
100
AcDbEntity
  8
WALL
100
AcDbLine
370
50
 10
12.0750
 20
18
 30
0
 11
12.0750
 21
20.5500
 31
0
  0
LINE
  5
1FC
100
AcDbEntity
  8
WALL
100
AcDbLine
370
50
 10
11.9250
 20
21.4500
 30
0
 11
11.9250
 21
24
 31
0
  0
LINE
  5
1FD
100
AcDbEntity
  8
WALL
100
AcDbLine
370
50
 10
12.0750
 20
21.4500
 30
0
 11
12.0750
 21
24
 31
0
  0
LINE
  5
1FE
100
AcDbEntity
  8
WALL
100
AcDbLine
370
50
 10
11.9250
 20
20.5500
 30
0
 11
12.0750
 21
20.5500
 31
0
  0
LINE
  5
1FF
100
AcDbEntity
  8
WALL
100
AcDbLine
370
50
 10
11.9250
 20
21.4500
 30
0
 11
12.0750
 21
21.4500
 31
0
  0
LINE
  5
200
100
AcDbEntity
  8
WALL
100
AcDbLine
370
50
 10
11.9250
 20
24
 30
0
 11
11.9250
 21
26.5500
 31
0
  0
LINE
  5
201
100
AcDbEntity
  8
WALL
100
AcDbLine
370
50
 10
12.0750
 20
24
 30
0
 11
12.0750
 21
26.5500
 31
0
  0
LINE
  5
202
100
AcDbEntity
  8
WALL
100
AcDbLine
370
50
 10
11.9250
 20
27.4500
 30
0
 11
11.9250
 21
30
 31
0
  0
LINE
  5
203
100
AcDbEntity
  8
WALL
100
AcDbLine
370
50
 10
12.0750
 20
27.4500
 30
0
 11
12.0750
 21
30
 31
0
  0
LINE
  5
204
100
AcDbEntity
  8
WALL
100
AcDbLine
370
50
 10
11.9250
 20
26.5500
 30
0
 11
12.0750
 21
26.5500
 31
0
  0
LINE
  5
205
100
AcDbEntity
  8
WALL
100
AcDbLine
370
50
 10
11.9250
 20
27.4500
 30
0
 11
12.0750
 21
27.4500
 31
0
  0
LINE
  5
206
100
AcDbEntity
  8
WALL
100
AcDbLine
370
50
 10
17.9250
 20
0
 30
0
 11
17.9250
 21
2.5500
 31
0
  0
LINE
  5
207
100
AcDbEntity
  8
WALL
100
AcDbLine
370
50
 10
18.0750
 20
0
 30
0
 11
18.0750
 21
2.5500
 31
0
  0
LINE
  5
208
100
AcDbEntity
  8
WALL
100
AcDbLine
370
50
 10
17.9250
 20
3.4500
 30
0
 11
17.9250
 21
6
 31
0
  0
LINE
  5
209
100
AcDbEntity
  8
WALL
100
AcDbLine
370
50
 10
18.0750
 20
3.4500
 30
0
 11
18.0750
 21
6
 31
0
  0
LINE
  5
20A
100
AcDbEntity
  8
WALL
100
AcDbLine
370
50
 10
17.9250
 20
2.5500
 30
0
 11
18.0750
 21
2.5500
 31
0
  0
LINE
  5
20B
100
AcDbEntity
  8
WALL
100
AcDbLine
370
50
 10
17.9250
 20
3.4500
 30
0
 11
18.0750
 21
3.4500
 31
0
  0
LINE
  5
20C
100
AcDbEntity
  8
WALL
100
AcDbLine
370
50
 10
17.9250
 20
6
 30
0
 11
17.9250
 21
8.5500
 31
0
  0
LINE
  5
20D
100
AcDbEntity
  8
WALL
100
AcDbLine
370
50
 10
18.0750
 20
6
 30
0
 11
18.0750
 21
8.5500
 31
0
  0
LINE
  5
20E
100
AcDbEntity
  8
WALL
100
AcDbLine
370
50
 10
17.9250
 20
9.4500
 30
0
 11
17.9250
 21
12
 31
0
  0
LINE
  5
20F
100
AcDbEntity
  8
WALL
100
AcDbLine
370
50
 10
18.0750
 20
9.4500
 30
0
 11
18.0750
 21
12
 31
0
  0
LINE
  5
210
100
AcDbEntity
  8
WALL
100
AcDbLine
370
50
 10
17.9250
 20
8.5500
 30
0
 11
18.0750
 21
8.5500
 31
0
  0
LINE
  5
211
100
AcDbEntity
  8
WALL
100
AcDbLine
370
50
 10
17.9250
 20
9.4500
 30
0
 11
18.0750
 21
9.4500
 31
0
  0
LINE
  5
212
100
AcDbEntity
  8
WALL
100
AcDbLine
370
50
 10
17.9250
 20
12
 30
0
 11
17.9250
 21
14.5500
 31
0
  0
LINE
  5
213
100
AcDbEntity
  8
WALL
100
AcDbLine
370
50
 10
18.0750
 20
12
 30
0
 11
18.0750
 21
14.5500
 31
0
  0
LINE
  5
214
100
AcDbEntity
  8
WALL
100
AcDbLine
370
50
 10
17.9250
 20
15.4500
 30
0
 11
17.9250
 21
18
 31
0
  0
LINE
  5
215
100
AcDbEntity
  8
WALL
100
AcDbLine
370
50
 10
18.0750
 20
15.4500
 30
0
 11
18.0750
 21
18
 31
0
  0
LINE
  5
216
100
AcDbEntity
  8
WALL
100
AcDbLine
370
50
 10
17.9250
 20
14.5500
 30
0
 11
18.0750
 21
14.5500
 31
0
  0
LINE
  5
217
100
AcDbEntity
  8
WALL
100
AcDbLine
370
50
 10
17.9250
 20
15.4500
 30
0
 11
18.0750
 21
15.4500
 31
0
  0
LINE
  5
218
100
AcDbEntity
  8
WALL
100
AcDbLine
370
50
 10
17.9250
 20
18
 30
0
 11
17.9250
 21
20.5500
 31
0
  0
LINE
  5
219
100
AcDbEntity
  8
WALL
100
AcDbLine
370
50
 10
18.0750
 20
18
 30
0
 11
18.0750
 21
20.5500
 31
0
  0
LINE
  5
21A
100
AcDbEntity
  8
WALL
100
AcDbLine
370
50
 10
17.9250
 20
21.4500
 30
0
 11
17.9250
 21
24
 31
0
  0
LINE
  5
21B
100
AcDbEntity
  8
WALL
100
AcDbLine
370
50
 10
18.0750
 20
21.4500
 30
0
 11
18.0750
 21
24
 31
0
  0
LINE
  5
21C
100
AcDbEntity
  8
WALL
100
AcDbLine
370
50
 10
17.9250
 20
20.5500
 30
0
 11
18.0750
 21
20.5500
 31
0
  0
LINE
  5
21D
100
AcDbEntity
  8
WALL
100
AcDbLine
370
50
 10
17.9250
 20
21.4500
 30
0
 11
18.0750
 21
21.4500
 31
0
  0
LINE
  5
21E
100
AcDbEntity
  8
WALL
100
AcDbLine
370
50
 10
17.9250
 20
24
 30
0
 11
17.9250
 21
26.5500
 31
0
  0
LINE
  5
21F
100
AcDbEntity
  8
WALL
100
AcDbLine
370
50
 10
18.0750
 20
24
 30
0
 11
18.0750
 21
26.5500
 31
0
  0
LINE
  5
220
100
AcDbEntity
  8
WALL
100
AcDbLine
370
50
 10
17.9250
 20
27.4500
 30
0
 11
17.9250
 21
30
 31
0
  0
LINE
  5
221
100
AcDbEntity
  8
WALL
100
AcDbLine
370
50
 10
18.0750
 20
27.4500
 30
0
 11
18.0750
 21
30
 31
0
  0
LINE
  5
222
100
AcDbEntity
  8
WALL
100
AcDbLine
370
50
 10
17.9250
 20
26.5500
 30
0
 11
18.0750
 21
26.5500
 31
0
  0
LINE
  5
223
100
AcDbEntity
  8
WALL
100
AcDbLine
370
50
 10
17.9250
 20
27.4500
 30
0
 11
18.0750
 21
27.4500
 31
0
  0
LINE
  5
224
100
AcDbEntity
  8
WALL
100
AcDbLine
370
50
 10
23.9250
 20
0
 30
0
 11
23.9250
 21
2.5500
 31
0
  0
LINE
  5
225
100
AcDbEntity
  8
WALL
100
AcDbLine
370
50
 10
24.0750
 20
0
 30
0
 11
24.0750
 21
2.5500
 31
0
  0
LINE
  5
226
100
AcDbEntity
  8
WALL
100
AcDbLine
370
50
 10
23.9250
 20
3.4500
 30
0
 11
23.9250
 21
6
 31
0
  0
LINE
  5
227
100
AcDbEntity
  8
WALL
100
AcDbLine
370
50
 10
24.0750
 20
3.4500
 30
0
 11
24.0750
 21
6
 31
0
  0
LINE
  5
228
100
AcDbEntity
  8
WALL
100
AcDbLine
370
50
 10
23.9250
 20
2.5500
 30
0
 11
24.0750
 21
2.5500
 31
0
  0
LINE
  5
229
100
AcDbEntity
  8
WALL
100
AcDbLine
370
50
 10
23.9250
 20
3.4500
 30
0
 11
24.0750
 21
3.4500
 31
0
  0
LINE
  5
22A
100
AcDbEntity
  8
WALL
100
AcDbLine
370
50
 10
23.9250
 20
6
 30
0
 11
23.9250
 21
8.5500
 31
0
  0
LINE
  5
22B
100
AcDbEntity
  8
WALL
100
AcDbLine
370
50
 10
24.0750
 20
6
 30
0
 11
24.0750
 21
8.5500
 31
0
  0
LINE
  5
22C
100
AcDbEntity
  8
WALL
100
AcDbLine
370
50
 10
23.9250
 20
9.4500
 30
0
 11
23.9250
 21
12
 31
0
  0
LINE
  5
22D
100
AcDbEntity
  8
WALL
100
AcDbLine
370
50
 10
24.0750
 20
9.4500
 30
0
 11
24.0750
 21
12
 31
0
  0
LINE
  5
22E
100
AcDbEntity
  8
WALL
100
AcDbLine
370
50
 10
23.9250
 20
8.5500
 30
0
 11
24.0750
 21
8.5500
 31
0
  0
LINE
  5
22F
100
AcDbEntity
  8
WALL
100
AcDbLine
370
50
 10
23.9250
 20
9.4500
 30
0
 11
24.0750
 21
9.4500
 31
0
  0
LINE
  5
230
100
AcDbEntity
  8
WALL
100
AcDbLine
370
50
 10
23.9250
 20
12
 30
0
 11
23.9250
 21
14.5500
 31
0
  0
LINE
  5
231
100
AcDbEntity
  8
WALL
100
AcDbLine
370
50
 10
24.0750
 20
12
 30
0
 11
24.0750
 21
14.5500
 31
0
  0
LINE
  5
232
100
AcDbEntity
  8
WALL
100
AcDbLine
370
50
 10
23.9250
 20
15.4500
 30
0
 11
23.9250
 21
18
 31
0
  0
LINE
  5
233
100
AcDbEntity
  8
WALL
100
AcDbLine
370
50
 10
24.0750
 20
15.4500
 30
0
 11
24.0750
 21
18
 31
0
  0
LINE
  5
234
100
AcDbEntity
  8
WALL
100
AcDbLine
370
50
 10
23.9250
 20
14.5500
 30
0
 11
24.0750
 21
14.5500
 31
0
  0
LINE
  5
235
100
AcDbEntity
  8
WALL
100
AcDbLine
370
50
 10
23.9250
 20
15.4500
 30
0
 11
24.0750
 21
15.4500
 31
0
  0
LINE
  5
236
100
AcDbEntity
  8
WALL
100
AcDbLine
370
50
 10
23.9250
 20
18
 30
0
 11
23.9250
 21
20.5500
 31
0
  0
LINE
  5
237
100
AcDbEntity
  8
WALL
100
AcDbLine
370
50
 10
24.0750
 20
18
 30
0
 11
24.0750
 21
20.5500
 31
0
  0
LINE
  5
238
100
AcDbEntity
  8
WALL
100
AcDbLine
370
50
 10
23.9250
 20
21.4500
 30
0
 11
23.9250
 21
24
 31
0
  0
LINE
  5
239
100
AcDbEntity
  8
WALL
100
AcDbLine
370
50
 10
24.0750
 20
21.4500
 30
0
 11
24.0750
 21
24
 31
0
  0
LINE
  5
23A
100
AcDbEntity
  8
WALL
100
AcDbLine
370
50
 10
23.9250
 20
20.5500
 30
0
 11
24.0750
 21
20.5500
 31
0
  0
LINE
  5
23B
100
AcDbEntity
  8
WALL
100
AcDbLine
370
50
 10
23.9250
 20
21.4500
 30
0
 11
24.0750
 21
21.4500
 31
0
  0
LINE
  5
23C
100
AcDbEntity
  8
WALL
100
AcDbLine
370
50
 10
23.9250
 20
24
 30
0
 11
23.9250
 21
30
 31
0
  0
LINE
  5
23D
100
AcDbEntity
  8
WALL
100
AcDbLine
370
50
 10
24.0750
 20
24
 30
0
 11
24.0750
 21
30
 31
0
  0
LINE
  5
23E
100
AcDbEntity
  8
WALL
100
AcDbLine
370
50
 10
0
 20
5.9250
 30
0
 11
2.5500
 21
5.9250
 31
0
  0
LINE
  5
23F
100
AcDbEntity
  8
WALL
100
AcDbLine
370
50
 10
0
 20
6.0750
 30
0
 11
2.5500
 21
6.0750
 31
0
  0
LINE
  5
240
100
AcDbEntity
  8
WALL
100
AcDbLine
370
50
 10
3.4500
 20
5.9250
 30
0
 11
6
 21
5.9250
 31
0
  0
LINE
  5
241
100
AcDbEntity
  8
WALL
100
AcDbLine
370
50
 10
3.4500
 20
6.0750
 30
0
 11
6
 21
6.0750
 31
0
  0
LINE
  5
242
100
AcDbEntity
  8
WALL
100
AcDbLine
370
50
 10
2.5500
 20
5.9250
 30
0
 11
2.5500
 21
6.0750
 31
0
  0
LINE
  5
243
100
AcDbEntity
  8
WALL
100
AcDbLine
370
50
 10
3.4500
 20
5.9250
 30
0
 11
3.4500
 21
6.0750
 31
0
  0
LINE
  5
244
100
AcDbEntity
  8
WALL
100
AcDbLine
370
50
 10
6
 20
5.9250
 30
0
 11
8.5500
 21
5.9250
 31
0
  0
LINE
  5
245
100
AcDbEntity
  8
WALL
100
AcDbLine
370
50
 10
6
 20
6.0750
 30
0
 11
8.5500
 21
6.0750
 31
0
  0
LINE
  5
246
100
AcDbEntity
  8
WALL
100
AcDbLine
370
50
 10
9.4500
 20
5.9250
 30
0
 11
12
 21
5.9250
 31
0
  0
LINE
  5
247
100
AcDbEntity
  8
WALL
100
AcDbLine
370
50
 10
9.4500
 20
6.0750
 30
0
 11
12
 21
6.0750
 31
0
  0
LINE
  5
248
100
AcDbEntity
  8
WALL
100
AcDbLine
370
50
 10
8.5500
 20
5.9250
 30
0
 11
8.5500
 21
6.0750
 31
0
  0
LINE
  5
249
100
AcDbEntity
  8
WALL
100
AcDbLine
370
50
 10
9.4500
 20
5.9250
 30
0
 11
9.4500
 21
6.0750
 31
0
  0
LINE
  5
24A
100
AcDbEntity
  8
WALL
100
AcDbLine
370
50
 10
12
 20
5.9250
 30
0
 11
14.5500
 21
5.9250
 31
0
  0
LINE
  5
24B
100
AcDbEntity
  8
WALL
100
AcDbLine
370
50
 10
12
 20
6.0750
 30
0
 11
14.5500
 21
6.0750
 31
0
  0
LINE
  5
24C
100
AcDbEntity
  8
WALL
100
AcDbLine
370
50
 10
15.4500
 20
5.9250
 30
0
 11
18
 21
5.9250
 31
0
  0
LINE
  5
24D
100
AcDbEntity
  8
WALL
100
AcDbLine
370
50
 10
15.4500
 20
6.0750
 30
0
 11
18
 21
6.0750
 31
0
  0
LINE
  5
24E
100
AcDbEntity
  8
WALL
100
AcDbLine
370
50
 10
14.5500
 20
5.9250
 30
0
 11
14.5500
 21
6.0750
 31
0
  0
LINE
  5
24F
100
AcDbEntity
  8
WALL
100
AcDbLine
370
50
 10
15.4500
 20
5.9250
 30
0
 11
15.4500
 21
6.0750
 31
0
  0
LINE
  5
250
100
AcDbEntity
  8
WALL
100
AcDbLine
370
50
 10
18
 20
5.9250
 30
0
 11
20.5500
 21
5.9250
 31
0
  0
LINE
  5
251
100
AcDbEntity
  8
WALL
100
AcDbLine
370
50
 10
18
 20
6.0750
 30
0
 11
20.5500
 21
6.0750
 31
0
  0
LINE
  5
252
100
AcDbEntity
  8
WALL
100
AcDbLine
370
50
 10
21.4500
 20
5.9250
 30
0
 11
24
 21
5.9250
 31
0
  0
LINE
  5
253
100
AcDbEntity
  8
WALL
100
AcDbLine
370
50
 10
21.4500
 20
6.0750
 30
0
 11
24
 21
6.0750
 31
0
  0
LINE
  5
254
100
AcDbEntity
  8
WALL
100
AcDbLine
370
50
 10
20.5500
 20
5.9250
 30
0
 11
20.5500
 21
6.0750
 31
0
  0
LINE
  5
255
100
AcDbEntity
  8
WALL
100
AcDbLine
370
50
 10
21.4500
 20
5.9250
 30
0
 11
21.4500
 21
6.0750
 31
0
  0
LINE
  5
256
100
AcDbEntity
  8
WALL
100
AcDbLine
370
50
 10
24
 20
5.9250
 30
0
 11
30
 21
5.9250
 31
0
  0
LINE
  5
257
100
AcDbEntity
  8
WALL
100
AcDbLine
370
50
 10
24
 20
6.0750
 30
0
 11
30
 21
6.0750
 31
0
  0
LINE
  5
258
100
AcDbEntity
  8
WALL
100
AcDbLine
370
50
 10
0
 20
11.9250
 30
0
 11
2.5500
 21
11.9250
 31
0
  0
LINE
  5
259
100
AcDbEntity
  8
WALL
100
AcDbLine
370
50
 10
0
 20
12.0750
 30
0
 11
2.5500
 21
12.0750
 31
0
  0
LINE
  5
25A
100
AcDbEntity
  8
WALL
100
AcDbLine
370
50
 10
3.4500
 20
11.9250
 30
0
 11
6
 21
11.9250
 31
0
  0
LINE
  5
25B
100
AcDbEntity
  8
WALL
100
AcDbLine
370
50
 10
3.4500
 20
12.0750
 30
0
 11
6
 21
12.0750
 31
0
  0
LINE
  5
25C
100
AcDbEntity
  8
WALL
100
AcDbLine
370
50
 10
2.5500
 20
11.9250
 30
0
 11
2.5500
 21
12.0750
 31
0
  0
LINE
  5
25D
100
AcDbEntity
  8
WALL
100
AcDbLine
370
50
 10
3.4500
 20
11.9250
 30
0
 11
3.4500
 21
12.0750
 31
0
  0
LINE
  5
25E
100
AcDbEntity
  8
WALL
100
AcDbLine
370
50
 10
6
 20
11.9250
 30
0
 11
8.5500
 21
11.9250
 31
0
  0
LINE
  5
25F
100
AcDbEntity
  8
WALL
100
AcDbLine
370
50
 10
6
 20
12.0750
 30
0
 11
8.5500
 21
12.0750
 31
0
  0
LINE
  5
260
100
AcDbEntity
  8
WALL
100
AcDbLine
370
50
 10
9.4500
 20
11.9250
 30
0
 11
12
 21
11.9250
 31
0
  0
LINE
  5
261
100
AcDbEntity
  8
WALL
100
AcDbLine
370
50
 10
9.4500
 20
12.0750
 30
0
 11
12
 21
12.0750
 31
0
  0
LINE
  5
262
100
AcDbEntity
  8
WALL
100
AcDbLine
370
50
 10
8.5500
 20
11.9250
 30
0
 11
8.5500
 21
12.0750
 31
0
  0
LINE
  5
263
100
AcDbEntity
  8
WALL
100
AcDbLine
370
50
 10
9.4500
 20
11.9250
 30
0
 11
9.4500
 21
12.0750
 31
0
  0
LINE
  5
264
100
AcDbEntity
  8
WALL
100
AcDbLine
370
50
 10
12
 20
11.9250
 30
0
 11
14.5500
 21
11.9250
 31
0
  0
LINE
  5
265
100
AcDbEntity
  8
WALL
100
AcDbLine
370
50
 10
12
 20
12.0750
 30
0
 11
14.5500
 21
12.0750
 31
0
  0
LINE
  5
266
100
AcDbEntity
  8
WALL
100
AcDbLine
370
50
 10
15.4500
 20
11.9250
 30
0
 11
18
 21
11.9250
 31
0
  0
LINE
  5
267
100
AcDbEntity
  8
WALL
100
AcDbLine
370
50
 10
15.4500
 20
12.0750
 30
0
 11
18
 21
12.0750
 31
0
  0
LINE
  5
268
100
AcDbEntity
  8
WALL
100
AcDbLine
370
50
 10
14.5500
 20
11.9250
 30
0
 11
14.5500
 21
12.0750
 31
0
  0
LINE
  5
269
100
AcDbEntity
  8
WALL
100
AcDbLine
370
50
 10
15.4500
 20
11.9250
 30
0
 11
15.4500
 21
12.0750
 31
0
  0
LINE
  5
26A
100
AcDbEntity
  8
WALL
100
AcDbLine
370
50
 10
18
 20
11.9250
 30
0
 11
20.5500
 21
11.9250
 31
0
  0
LINE
  5
26B
100
AcDbEntity
  8
WALL
100
AcDbLine
370
50
 10
18
 20
12.0750
 30
0
 11
20.5500
 21
12.0750
 31
0
  0
LINE
  5
26C
100
AcDbEntity
  8
WALL
100
AcDbLine
370
50
 10
21.4500
 20
11.9250
 30
0
 11
24
 21
11.9250
 31
0
  0
LINE
  5
26D
100
AcDbEntity
  8
WALL
100
AcDbLine
370
50
 10
21.4500
 20
12.0750
 30
0
 11
24
 21
12.0750
 31
0
  0
LINE
  5
26E
100
AcDbEntity
  8
WALL
100
AcDbLine
370
50
 10
20.5500
 20
11.9250
 30
0
 11
20.5500
 21
12.0750
 31
0
  0
LINE
  5
26F
100
AcDbEntity
  8
WALL
100
AcDbLine
370
50
 10
21.4500
 20
11.9250
 30
0
 11
21.4500
 21
12.0750
 31
0
  0
LINE
  5
270
100
AcDbEntity
  8
WALL
100
AcDbLine
370
50
 10
24
 20
11.9250
 30
0
 11
26.5500
 21
11.9250
 31
0
  0
LINE
  5
271
100
AcDbEntity
  8
WALL
100
AcDbLine
370
50
 10
24
 20
12.0750
 30
0
 11
26.5500
 21
12.0750
 31
0
  0
LINE
  5
272
100
AcDbEntity
  8
WALL
100
AcDbLine
370
50
 10
27.4500
 20
11.9250
 30
0
 11
30
 21
11.9250
 31
0
  0
LINE
  5
273
100
AcDbEntity
  8
WALL
100
AcDbLine
370
50
 10
27.4500
 20
12.0750
 30
0
 11
30
 21
12.0750
 31
0
  0
LINE
  5
274
100
AcDbEntity
  8
WALL
100
AcDbLine
370
50
 10
26.5500
 20
11.9250
 30
0
 11
26.5500
 21
12.0750
 31
0
  0
LINE
  5
275
100
AcDbEntity
  8
WALL
100
AcDbLine
370
50
 10
27.4500
 20
11.9250
 30
0
 11
27.4500
 21
12.0750
 31
0
  0
LINE
  5
276
100
AcDbEntity
  8
WALL
100
AcDbLine
370
50
 10
0
 20
17.9250
 30
0
 11
2.5500
 21
17.9250
 31
0
  0
LINE
  5
277
100
AcDbEntity
  8
WALL
100
AcDbLine
370
50
 10
0
 20
18.0750
 30
0
 11
2.5500
 21
18.0750
 31
0
  0
LINE
  5
278
100
AcDbEntity
  8
WALL
100
AcDbLine
370
50
 10
3.4500
 20
17.9250
 30
0
 11
6
 21
17.9250
 31
0
  0
LINE
  5
279
100
AcDbEntity
  8
WALL
100
AcDbLine
370
50
 10
3.4500
 20
18.0750
 30
0
 11
6
 21
18.0750
 31
0
  0
LINE
  5
27A
100
AcDbEntity
  8
WALL
100
AcDbLine
370
50
 10
2.5500
 20
17.9250
 30
0
 11
2.5500
 21
18.0750
 31
0
  0
LINE
  5
27B
100
AcDbEntity
  8
WALL
100
AcDbLine
370
50
 10
3.4500
 20
17.9250
 30
0
 11
3.4500
 21
18.0750
 31
0
  0
LINE
  5
27C
100
AcDbEntity
  8
WALL
100
AcDbLine
370
50
 10
6
 20
17.9250
 30
0
 11
8.5500
 21
17.9250
 31
0
  0
LINE
  5
27D
100
AcDbEntity
  8
WALL
100
AcDbLine
370
50
 10
6
 20
18.0750
 30
0
 11
8.5500
 21
18.0750
 31
0
  0
LINE
  5
27E
100
AcDbEntity
  8
WALL
100
AcDbLine
370
50
 10
9.4500
 20
17.9250
 30
0
 11
12
 21
17.9250
 31
0
  0
LINE
  5
27F
100
AcDbEntity
  8
WALL
100
AcDbLine
370
50
 10
9.4500
 20
18.0750
 30
0
 11
12
 21
18.0750
 31
0
  0
LINE
  5
280
100
AcDbEntity
  8
WALL
100
AcDbLine
370
50
 10
8.5500
 20
17.9250
 30
0
 11
8.5500
 21
18.0750
 31
0
  0
LINE
  5
281
100
AcDbEntity
  8
WALL
100
AcDbLine
370
50
 10
9.4500
 20
17.9250
 30
0
 11
9.4500
 21
18.0750
 31
0
  0
LINE
  5
282
100
AcDbEntity
  8
WALL
100
AcDbLine
370
50
 10
12
 20
17.9250
 30
0
 11
14.5500
 21
17.9250
 31
0
  0
LINE
  5
283
100
AcDbEntity
  8
WALL
100
AcDbLine
370
50
 10
12
 20
18.0750
 30
0
 11
14.5500
 21
18.0750
 31
0
  0
LINE
  5
284
100
AcDbEntity
  8
WALL
100
AcDbLine
370
50
 10
15.4500
 20
17.9250
 30
0
 11
18
 21
17.9250
 31
0
  0
LINE
  5
285
100
AcDbEntity
  8
WALL
100
AcDbLine
370
50
 10
15.4500
 20
18.0750
 30
0
 11
18
 21
18.0750
 31
0
  0
LINE
  5
286
100
AcDbEntity
  8
WALL
100
AcDbLine
370
50
 10
14.5500
 20
17.9250
 30
0
 11
14.5500
 21
18.0750
 31
0
  0
LINE
  5
287
100
AcDbEntity
  8
WALL
100
AcDbLine
370
50
 10
15.4500
 20
17.9250
 30
0
 11
15.4500
 21
18.0750
 31
0
  0
LINE
  5
288
100
AcDbEntity
  8
WALL
100
AcDbLine
370
50
 10
18
 20
17.9250
 30
0
 11
20.5500
 21
17.9250
 31
0
  0
LINE
  5
289
100
AcDbEntity
  8
WALL
100
AcDbLine
370
50
 10
18
 20
18.0750
 30
0
 11
20.5500
 21
18.0750
 31
0
  0
LINE
  5
28A
100
AcDbEntity
  8
WALL
100
AcDbLine
370
50
 10
21.4500
 20
17.9250
 30
0
 11
24
 21
17.9250
 31
0
  0
LINE
  5
28B
100
AcDbEntity
  8
WALL
100
AcDbLine
370
50
 10
21.4500
 20
18.0750
 30
0
 11
24
 21
18.0750
 31
0
  0
LINE
  5
28C
100
AcDbEntity
  8
WALL
100
AcDbLine
370
50
 10
20.5500
 20
17.9250
 30
0
 11
20.5500
 21
18.0750
 31
0
  0
LINE
  5
28D
100
AcDbEntity
  8
WALL
100
AcDbLine
370
50
 10
21.4500
 20
17.9250
 30
0
 11
21.4500
 21
18.0750
 31
0
  0
LINE
  5
28E
100
AcDbEntity
  8
WALL
100
AcDbLine
370
50
 10
24
 20
17.9250
 30
0
 11
26.5500
 21
17.9250
 31
0
  0
LINE
  5
28F
100
AcDbEntity
  8
WALL
100
AcDbLine
370
50
 10
24
 20
18.0750
 30
0
 11
26.5500
 21
18.0750
 31
0
  0
LINE
  5
290
100
AcDbEntity
  8
WALL
100
AcDbLine
370
50
 10
27.4500
 20
17.9250
 30
0
 11
30
 21
17.9250
 31
0
  0
LINE
  5
291
100
AcDbEntity
  8
WALL
100
AcDbLine
370
50
 10
27.4500
 20
18.0750
 30
0
 11
30
 21
18.0750
 31
0
  0
LINE
  5
292
100
AcDbEntity
  8
WALL
100
AcDbLine
370
50
 10
26.5500
 20
17.9250
 30
0
 11
26.5500
 21
18.0750
 31
0
  0
LINE
  5
293
100
AcDbEntity
  8
WALL
100
AcDbLine
370
50
 10
27.4500
 20
17.9250
 30
0
 11
27.4500
 21
18.0750
 31
0
  0
LINE
  5
294
100
AcDbEntity
  8
WALL
100
AcDbLine
370
50
 10
0
 20
23.9250
 30
0
 11
6
 21
23.9250
 31
0
  0
LINE
  5
295
100
AcDbEntity
  8
WALL
100
AcDbLine
370
50
 10
0
 20
24.0750
 30
0
 11
6
 21
24.0750
 31
0
  0
LINE
  5
296
100
AcDbEntity
  8
WALL
100
AcDbLine
370
50
 10
6
 20
23.9250
 30
0
 11
8.5500
 21
23.9250
 31
0
  0
LINE
  5
297
100
AcDbEntity
  8
WALL
100
AcDbLine
370
50
 10
6
 20
24.0750
 30
0
 11
8.5500
 21
24.0750
 31
0
  0
LINE
  5
298
100
AcDbEntity
  8
WALL
100
AcDbLine
370
50
 10
9.4500
 20
23.9250
 30
0
 11
12
 21
23.9250
 31
0
  0
LINE
  5
299
100
AcDbEntity
  8
WALL
100
AcDbLine
370
50
 10
9.4500
 20
24.0750
 30
0
 11
12
 21
24.0750
 31
0
  0
LINE
  5
29A
100
AcDbEntity
  8
WALL
100
AcDbLine
370
50
 10
8.5500
 20
23.9250
 30
0
 11
8.5500
 21
24.0750
 31
0
  0
LINE
  5
29B
100
AcDbEntity
  8
WALL
100
AcDbLine
370
50
 10
9.4500
 20
23.9250
 30
0
 11
9.4500
 21
24.0750
 31
0
  0
LINE
  5
29C
100
AcDbEntity
  8
WALL
100
AcDbLine
370
50
 10
12
 20
23.9250
 30
0
 11
14.5500
 21
23.9250
 31
0
  0
LINE
  5
29D
100
AcDbEntity
  8
WALL
100
AcDbLine
370
50
 10
12
 20
24.0750
 30
0
 11
14.5500
 21
24.0750
 31
0
  0
LINE
  5
29E
100
AcDbEntity
  8
WALL
100
AcDbLine
370
50
 10
15.4500
 20
23.9250
 30
0
 11
18
 21
23.9250
 31
0
  0
LINE
  5
29F
100
AcDbEntity
  8
WALL
100
AcDbLine
370
50
 10
15.4500
 20
24.0750
 30
0
 11
18
 21
24.0750
 31
0
  0
LINE
  5
2A0
100
AcDbEntity
  8
WALL
100
AcDbLine
370
50
 10
14.5500
 20
23.9250
 30
0
 11
14.5500
 21
24.0750
 31
0
  0
LINE
  5
2A1
100
AcDbEntity
  8
WALL
100
AcDbLine
370
50
 10
15.4500
 20
23.9250
 30
0
 11
15.4500
 21
24.0750
 31
0
  0
LINE
  5
2A2
100
AcDbEntity
  8
WALL
100
AcDbLine
370
50
 10
18
 20
23.9250
 30
0
 11
20.5500
 21
23.9250
 31
0
  0
LINE
  5
2A3
100
AcDbEntity
  8
WALL
100
AcDbLine
370
50
 10
18
 20
24.0750
 30
0
 11
20.5500
 21
24.0750
 31
0
  0
LINE
  5
2A4
100
AcDbEntity
  8
WALL
100
AcDbLine
370
50
 10
21.4500
 20
23.9250
 30
0
 11
24
 21
23.9250
 31
0
  0
LINE
  5
2A5
100
AcDbEntity
  8
WALL
100
AcDbLine
370
50
 10
21.4500
 20
24.0750
 30
0
 11
24
 21
24.0750
 31
0
  0
LINE
  5
2A6
100
AcDbEntity
  8
WALL
100
AcDbLine
370
50
 10
20.5500
 20
23.9250
 30
0
 11
20.5500
 21
24.0750
 31
0
  0
LINE
  5
2A7
100
AcDbEntity
  8
WALL
100
AcDbLine
370
50
 10
21.4500
 20
23.9250
 30
0
 11
21.4500
 21
24.0750
 31
0
  0
LINE
  5
2A8
100
AcDbEntity
  8
WALL
100
AcDbLine
370
50
 10
24
 20
23.9250
 30
0
 11
26.5500
 21
23.9250
 31
0
  0
LINE
  5
2A9
100
AcDbEntity
  8
WALL
100
AcDbLine
370
50
 10
24
 20
24.0750
 30
0
 11
26.5500
 21
24.0750
 31
0
  0
LINE
  5
2AA
100
AcDbEntity
  8
WALL
100
AcDbLine
370
50
 10
27.4500
 20
23.9250
 30
0
 11
30
 21
23.9250
 31
0
  0
LINE
  5
2AB
100
AcDbEntity
  8
WALL
100
AcDbLine
370
50
 10
27.4500
 20
24.0750
 30
0
 11
30
 21
24.0750
 31
0
  0
LINE
  5
2AC
100
AcDbEntity
  8
WALL
100
AcDbLine
370
50
 10
26.5500
 20
23.9250
 30
0
 11
26.5500
 21
24.0750
 31
0
  0
LINE
  5
2AD
100
AcDbEntity
  8
WALL
100
AcDbLine
370
50
 10
27.4500
 20
23.9250
 30
0
 11
27.4500
 21
24.0750
 31
0
  0
LWPOLYLINE
  5
2AE
100
AcDbEntity
  8
COLUMN
100
AcDbPolyline
 90
4
 70
1
 10
-0.1150
 20
-0.1150
 10
0.1150
 20
-0.1150
 10
0.1150
 20
0.1150
 10
-0.1150
 20
0.1150
  0
LWPOLYLINE
  5
2AF
100
AcDbEntity
  8
COLUMN
100
AcDbPolyline
 90
4
 70
1
 10
-0.1150
 20
5.8850
 10
0.1150
 20
5.8850
 10
0.1150
 20
6.1150
 10
-0.1150
 20
6.1150
  0
LWPOLYLINE
  5
2B0
100
AcDbEntity
  8
COLUMN
100
AcDbPolyline
 90
4
 70
1
 10
-0.1150
 20
11.8850
 10
0.1150
 20
11.8850
 10
0.1150
 20
12.1150
 10
-0.1150
 20
12.1150
  0
LWPOLYLINE
  5
2B1
100
AcDbEntity
  8
COLUMN
100
AcDbPolyline
 90
4
 70
1
 10
-0.1150
 20
17.8850
 10
0.1150
 20
17.8850
 10
0.1150
 20
18.1150
 10
-0.1150
 20
18.1150
  0
LWPOLYLINE
  5
2B2
100
AcDbEntity
  8
COLUMN
100
AcDbPolyline
 90
4
 70
1
 10
-0.1150
 20
23.8850
 10
0.1150
 20
23.8850
 10
0.1150
 20
24.1150
 10
-0.1150
 20
24.1150
  0
LWPOLYLINE
  5
2B3
100
AcDbEntity
  8
COLUMN
100
AcDbPolyline
 90
4
 70
1
 10
-0.1150
 20
29.8850
 10
0.1150
 20
29.8850
 10
0.1150
 20
30.1150
 10
-0.1150
 20
30.1150
  0
LWPOLYLINE
  5
2B4
100
AcDbEntity
  8
COLUMN
100
AcDbPolyline
 90
4
 70
1
 10
5.8850
 20
-0.1150
 10
6.1150
 20
-0.1150
 10
6.1150
 20
0.1150
 10
5.8850
 20
0.1150
  0
LWPOLYLINE
  5
2B5
100
AcDbEntity
  8
COLUMN
100
AcDbPolyline
 90
4
 70
1
 10
5.8850
 20
5.8850
 10
6.1150
 20
5.8850
 10
6.1150
 20
6.1150
 10
5.8850
 20
6.1150
  0
LWPOLYLINE
  5
2B6
100
AcDbEntity
  8
COLUMN
100
AcDbPolyline
 90
4
 70
1
 10
5.8850
 20
11.8850
 10
6.1150
 20
11.8850
 10
6.1150
 20
12.1150
 10
5.8850
 20
12.1150
  0
LWPOLYLINE
  5
2B7
100
AcDbEntity
  8
COLUMN
100
AcDbPolyline
 90
4
 70
1
 10
5.8850
 20
17.8850
 10
6.1150
 20
17.8850
 10
6.1150
 20
18.1150
 10
5.8850
 20
18.1150
  0
LWPOLYLINE
  5
2B8
100
AcDbEntity
  8
COLUMN
100
AcDbPolyline
 90
4
 70
1
 10
5.8850
 20
23.8850
 10
6.1150
 20
23.8850
 10
6.1150
 20
24.1150
 10
5.8850
 20
24.1150
  0
LWPOLYLINE
  5
2B9
100
AcDbEntity
  8
COLUMN
100
AcDbPolyline
 90
4
 70
1
 10
5.8850
 20
29.8850
 10
6.1150
 20
29.8850
 10
6.1150
 20
30.1150
 10
5.8850
 20
30.1150
  0
LWPOLYLINE
  5
2BA
100
AcDbEntity
  8
COLUMN
100
AcDbPolyline
 90
4
 70
1
 10
11.8850
 20
-0.1150
 10
12.1150
 20
-0.1150
 10
12.1150
 20
0.1150
 10
11.8850
 20
0.1150
  0
LWPOLYLINE
  5
2BB
100
AcDbEntity
  8
COLUMN
100
AcDbPolyline
 90
4
 70
1
 10
11.8850
 20
5.8850
 10
12.1150
 20
5.8850
 10
12.1150
 20
6.1150
 10
11.8850
 20
6.1150
  0
LWPOLYLINE
  5
2BC
100
AcDbEntity
  8
COLUMN
100
AcDbPolyline
 90
4
 70
1
 10
11.8850
 20
11.8850
 10
12.1150
 20
11.8850
 10
12.1150
 20
12.1150
 10
11.8850
 20
12.1150
  0
LWPOLYLINE
  5
2BD
100
AcDbEntity
  8
COLUMN
100
AcDbPolyline
 90
4
 70
1
 10
11.8850
 20
17.8850
 10
12.1150
 20
17.8850
 10
12.1150
 20
18.1150
 10
11.8850
 20
18.1150
  0
LWPOLYLINE
  5
2BE
100
AcDbEntity
  8
COLUMN
100
AcDbPolyline
 90
4
 70
1
 10
11.8850
 20
23.8850
 10
12.1150
 20
23.8850
 10
12.1150
 20
24.1150
 10
11.8850
 20
24.1150
  0
LWPOLYLINE
  5
2BF
100
AcDbEntity
  8
COLUMN
100
AcDbPolyline
 90
4
 70
1
 10
11.8850
 20
29.8850
 10
12.1150
 20
29.8850
 10
12.1150
 20
30.1150
 10
11.8850
 20
30.1150
  0
LWPOLYLINE
  5
2C0
100
AcDbEntity
  8
COLUMN
100
AcDbPolyline
 90
4
 70
1
 10
17.8850
 20
-0.1150
 10
18.1150
 20
-0.1150
 10
18.1150
 20
0.1150
 10
17.8850
 20
0.1150
  0
LWPOLYLINE
  5
2C1
100
AcDbEntity
  8
COLUMN
100
AcDbPolyline
 90
4
 70
1
 10
17.8850
 20
5.8850
 10
18.1150
 20
5.8850
 10
18.1150
 20
6.1150
 10
17.8850
 20
6.1150
  0
LWPOLYLINE
  5
2C2
100
AcDbEntity
  8
COLUMN
100
AcDbPolyline
 90
4
 70
1
 10
17.8850
 20
11.8850
 10
18.1150
 20
11.8850
 10
18.1150
 20
12.1150
 10
17.8850
 20
12.1150
  0
LWPOLYLINE
  5
2C3
100
AcDbEntity
  8
COLUMN
100
AcDbPolyline
 90
4
 70
1
 10
17.8850
 20
17.8850
 10
18.1150
 20
17.8850
 10
18.1150
 20
18.1150
 10
17.8850
 20
18.1150
  0
LWPOLYLINE
  5
2C4
100
AcDbEntity
  8
COLUMN
100
AcDbPolyline
 90
4
 70
1
 10
17.8850
 20
23.8850
 10
18.1150
 20
23.8850
 10
18.1150
 20
24.1150
 10
17.8850
 20
24.1150
  0
LWPOLYLINE
  5
2C5
100
AcDbEntity
  8
COLUMN
100
AcDbPolyline
 90
4
 70
1
 10
17.8850
 20
29.8850
 10
18.1150
 20
29.8850
 10
18.1150
 20
30.1150
 10
17.8850
 20
30.1150
  0
LWPOLYLINE
  5
2C6
100
AcDbEntity
  8
COLUMN
100
AcDbPolyline
 90
4
 70
1
 10
23.8850
 20
-0.1150
 10
24.1150
 20
-0.1150
 10
24.1150
 20
0.1150
 10
23.8850
 20
0.1150
  0
LWPOLYLINE
  5
2C7
100
AcDbEntity
  8
COLUMN
100
AcDbPolyline
 90
4
 70
1
 10
23.8850
 20
5.8850
 10
24.1150
 20
5.8850
 10
24.1150
 20
6.1150
 10
23.8850
 20
6.1150
  0
LWPOLYLINE
  5
2C8
100
AcDbEntity
  8
COLUMN
100
AcDbPolyline
 90
4
 70
1
 10
23.8850
 20
11.8850
 10
24.1150
 20
11.8850
 10
24.1150
 20
12.1150
 10
23.8850
 20
12.1150
  0
LWPOLYLINE
  5
2C9
100
AcDbEntity
  8
COLUMN
100
AcDbPolyline
 90
4
 70
1
 10
23.8850
 20
17.8850
 10
24.1150
 20
17.8850
 10
24.1150
 20
18.1150
 10
23.8850
 20
18.1150
  0
LWPOLYLINE
  5
2CA
100
AcDbEntity
  8
COLUMN
100
AcDbPolyline
 90
4
 70
1
 10
23.8850
 20
23.8850
 10
24.1150
 20
23.8850
 10
24.1150
 20
24.1150
 10
23.8850
 20
24.1150
  0
LWPOLYLINE
  5
2CB
100
AcDbEntity
  8
COLUMN
100
AcDbPolyline
 90
4
 70
1
 10
23.8850
 20
29.8850
 10
24.1150
 20
29.8850
 10
24.1150
 20
30.1150
 10
23.8850
 20
30.1150
  0
LWPOLYLINE
  5
2CC
100
AcDbEntity
  8
COLUMN
100
AcDbPolyline
 90
4
 70
1
 10
29.8850
 20
-0.1150
 10
30.1150
 20
-0.1150
 10
30.1150
 20
0.1150
 10
29.8850
 20
0.1150
  0
LWPOLYLINE
  5
2CD
100
AcDbEntity
  8
COLUMN
100
AcDbPolyline
 90
4
 70
1
 10
29.8850
 20
5.8850
 10
30.1150
 20
5.8850
 10
30.1150
 20
6.1150
 10
29.8850
 20
6.1150
  0
LWPOLYLINE
  5
2CE
100
AcDbEntity
  8
COLUMN
100
AcDbPolyline
 90
4
 70
1
 10
29.8850
 20
11.8850
 10
30.1150
 20
11.8850
 10
30.1150
 20
12.1150
 10
29.8850
 20
12.1150
  0
LWPOLYLINE
  5
2CF
100
AcDbEntity
  8
COLUMN
100
AcDbPolyline
 90
4
 70
1
 10
29.8850
 20
17.8850
 10
30.1150
 20
17.8850
 10
30.1150
 20
18.1150
 10
29.8850
 20
18.1150
  0
LWPOLYLINE
  5
2D0
100
AcDbEntity
  8
COLUMN
100
AcDbPolyline
 90
4
 70
1
 10
29.8850
 20
23.8850
 10
30.1150
 20
23.8850
 10
30.1150
 20
24.1150
 10
29.8850
 20
24.1150
  0
LWPOLYLINE
  5
2D1
100
AcDbEntity
  8
COLUMN
100
AcDbPolyline
 90
4
 70
1
 10
29.8850
 20
29.8850
 10
30.1150
 20
29.8850
 10
30.1150
 20
30.1150
 10
29.8850
 20
30.1150
  0
TEXT
  5
2D2
100
AcDbEntity
  8
TEXT
100
AcDbText
 10
2.5375
 20
3.0375
 30
0
 40
0.2500
  1
OFFICE 11
100
AcDbText
  0
TEXT
  5
2D3
100
AcDbEntity
  8
TEXT
100
AcDbText
 10
8.5000
 20
3.0375
 30
0
 40
0.2500
  1
OFFICE 12
100
AcDbText
  0
TEXT
  5
2D4
100
AcDbEntity
  8
TEXT
100
AcDbText
 10
14.5000
 20
3.0375
 30
0
 40
0.2500
  1
ENTRANCE LOBBY
100
AcDbText
  0
TEXT
  5
2D5
100
AcDbEntity
  8
TEXT
100
AcDbText
 10
20.5000
 20
3.0375
 30
0
 40
0.2500
  1
OFFICE 14
100
AcDbText
  0
TEXT
  5
2D6
100
AcDbEntity
  8
TEXT
100
AcDbText
 10
26.4625
 20
3.0375
 30
0
 40
0.2500
  1
OFFICE 15
100
AcDbText
  0
TEXT
  5
2D7
100
AcDbEntity
  8
TEXT
100
AcDbText
 10
2.5375
 20
9
 30
0
 40
0.2500
  1
OFFICE 21
100
AcDbText
  0
TEXT
  5
2D8
100
AcDbEntity
  8
TEXT
100
AcDbText
 10
8.5000
 20
9
 30
0
 40
0.2500
  1
OFFICE 22
100
AcDbText
  0
TEXT
  5
2D9
100
AcDbEntity
  8
TEXT
100
AcDbText
 10
14.5000
 20
9
 30
0
 40
0.2500
  1
OFFICE 23
100
AcDbText
  0
TEXT
  5
2DA
100
AcDbEntity
  8
TEXT
100
AcDbText
 10
20.5000
 20
9
 30
0
 40
0.2500
  1
OFFICE 24
100
AcDbText
  0
TEXT
  5
2DB
100
AcDbEntity
  8
TEXT
100
AcDbText
 10
26.4625
 20
9
 30
0
 40
0.2500
  1
OFFICE 25
100
AcDbText
  0
TEXT
  5
2DC
100
AcDbEntity
  8
TEXT
100
AcDbText
 10
2.5375
 20
15
 30
0
 40
0.2500
  1
OFFICE 31
100
AcDbText
  0
TEXT
  5
2DD
100
AcDbEntity
  8
TEXT
100
AcDbText
 10
8.5000
 20
15
 30
0
 40
0.2500
  1
STAIR HALL
100
AcDbText
  0
TEXT
  5
2DE
100
AcDbEntity
  8
TEXT
100
AcDbText
 10
14.5000
 20
15
 30
0
 40
0.2500
  1
LIFT LOBBY
100
AcDbText
  0
TEXT
  5
2DF
100
AcDbEntity
  8
TEXT
100
AcDbText
 10
20.5000
 20
15
 30
0
 40
0.2500
  1
OFFICE 34
100
AcDbText
  0
LWPOLYLINE
  5
2E0
100
AcDbEntity
  8
SANITARY
100
AcDbPolyline
 90
4
 70
1
 10
18.4750
 20
17.0250
 10
18.8750
 20
17.0250
 10
18.8750
 20
17.6250
 10
18.4750
 20
17.6250
  0
TEXT
  5
2E1
100
AcDbEntity
  8
TEXT
100
AcDbText
 10
26.4625
 20
15
 30
0
 40
0.2500
  1
OFFICE 35
100
AcDbText
  0
TEXT
  5
2E2
100
AcDbEntity
  8
TEXT
100
AcDbText
 10
2.5375
 20
21
 30
0
 40
0.2500
  1
OFFICE 41
100
AcDbText
  0
TEXT
  5
2E3
100
AcDbEntity
  8
TEXT
100
AcDbText
 10
8.5000
 20
21
 30
0
 40
0.2500
  1
OFFICE 42
100
AcDbText
  0
TEXT
  5
2E4
100
AcDbEntity
  8
TEXT
100
AcDbText
 10
14.5000
 20
21
 30
0
 40
0.2500
  1
OFFICE 43
100
AcDbText
  0
TEXT
  5
2E5
100
AcDbEntity
  8
TEXT
100
AcDbText
 10
20.5000
 20
21
 30
0
 40
0.2500
  1
OFFICE 44
100
AcDbText
  0
TEXT
  5
2E6
100
AcDbEntity
  8
TEXT
100
AcDbText
 10
26.4625
 20
21
 30
0
 40
0.2500
  1
OFFICE 45
100
AcDbText
  0
TEXT
  5
2E7
100
AcDbEntity
  8
TEXT
100
AcDbText
 10
2.5375
 20
26.9625
 30
0
 40
0.2500
  1
OFFICE 51
100
AcDbText
  0
TEXT
  5
2E8
100
AcDbEntity
  8
TEXT
100
AcDbText
 10
8.5000
 20
26.9625
 30
0
 40
0.2500
  1
OFFICE 52
100
AcDbText
  0
TEXT
  5
2E9
100
AcDbEntity
  8
TEXT
100
AcDbText
 10
14.5000
 20
26.9625
 30
0
 40
0.2500
  1
OFFICE 53
100
AcDbText
  0
TEXT
  5
2EA
100
AcDbEntity
  8
TEXT
100
AcDbText
 10
20.5000
 20
26.9625
 30
0
 40
0.2500
  1
OFFICE 54
100
AcDbText
  0
TEXT
  5
2EB
100
AcDbEntity
  8
TEXT
100
AcDbText
 10
26.4625
 20
26.9625
 30
0
 40
0.2500
  1
OFFICE 55
100
AcDbText
  0
DIMENSION
  5
2EC
100
AcDbEntity
  8
DIM
100
AcDbDimension
  2
*D
 10
0
 20
-1.8000
 30
0
 11
15
 21
-1.5500
 31
0
 70
33
  1

 42
30
100
AcDbAlignedDimension
 13
0
 23
0
 33
0
 14
30
 24
0
 34
0
  0
DIMENSION
  5
2ED
100
AcDbEntity
  8
DIM
100
AcDbDimension
  2
*D
 10
-1.8000
 20
0
 30
0
 11
-1.5500
 21
15
 31
0
 70
33
  1

 42
30
100
AcDbAlignedDimension
 13
0
 23
0
 33
0
 14
0
 24
30
 34
0
  0
DIMENSION
  5
2EE
100
AcDbEntity
  8
DIM
100
AcDbDimension
  2
*D
 10
0
 20
31.2000
 30
0
 11
3
 21
31.4500
 31
0
 70
33
  1

 42
6
100
AcDbAlignedDimension
 13
0
 23
30
 33
0
 14
6
 24
30
 34
0
  0
DIMENSION
  5
2EF
100
AcDbEntity
  8
DIM
100
AcDbDimension
  2
*D
 10
6
 20
31.2000
 30
0
 11
9
 21
31.4500
 31
0
 70
33
  1

 42
6
100
AcDbAlignedDimension
 13
6
 23
30
 33
0
 14
12
 24
30
 34
0
  0
DIMENSION
  5
2F0
100
AcDbEntity
  8
DIM
100
AcDbDimension
  2
*D
 10
12
 20
31.2000
 30
0
 11
15
 21
31.4500
 31
0
 70
33
  1

 42
6
100
AcDbAlignedDimension
 13
12
 23
30
 33
0
 14
18
 24
30
 34
0
  0
DIMENSION
  5
2F1
100
AcDbEntity
  8
DIM
100
AcDbDimension
  2
*D
 10
18
 20
31.2000
 30
0
 11
21
 21
31.4500
 31
0
 70
33
  1

 42
6
100
AcDbAlignedDimension
 13
18
 23
30
 33
0
 14
24
 24
30
 34
0
  0
DIMENSION
  5
2F2
100
AcDbEntity
  8
DIM
100
AcDbDimension
  2
*D
 10
24
 20
31.2000
 30
0
 11
27
 21
31.4500
 31
0
 70
33
  1

 42
6
100
AcDbAlignedDimension
 13
24
 23
30
 33
0
 14
30
 24
30
 34
0
  0
DIMENSION
  5
2F3
100
AcDbEntity
  8
DIM
100
AcDbDimension
  2
*D
 10
31.2000
 20
0
 30
0
 11
31.4500
 21
3
 31
0
 70
33
  1

 42
6
100
AcDbAlignedDimension
 13
30
 23
0
 33
0
 14
30
 24
6
 34
0
  0
DIMENSION
  5
2F4
100
AcDbEntity
  8
DIM
100
AcDbDimension
  2
*D
 10
31.2000
 20
6
 30
0
 11
31.4500
 21
9
 31
0
 70
33
  1

 42
6
100
AcDbAlignedDimension
 13
30
 23
6
 33
0
 14
30
 24
12
 34
0
  0
DIMENSION
  5
2F5
100
AcDbEntity
  8
DIM
100
AcDbDimension
  2
*D
 10
31.2000
 20
12
 30
0
 11
31.4500
 21
15
 31
0
 70
33
  1

 42
6
100
AcDbAlignedDimension
 13
30
 23
12
 33
0
 14
30
 24
18
 34
0
  0
DIMENSION
  5
2F6
100
AcDbEntity
  8
DIM
100
AcDbDimension
  2
*D
 10
31.2000
 20
18
 30
0
 11
31.4500
 21
21
 31
0
 70
33
  1

 42
6
100
AcDbAlignedDimension
 13
30
 23
18
 33
0
 14
30
 24
24
 34
0
  0
DIMENSION
  5
2F7
100
AcDbEntity
  8
DIM
100
AcDbDimension
  2
*D
 10
31.2000
 20
24
 30
0
 11
31.4500
 21
27
 31
0
 70
33
  1

 42
6
100
AcDbAlignedDimension
 13
30
 23
24
 33
0
 14
30
 24
30
 34
0
  0
TEXT
  5
2F8
100
AcDbEntity
  8
TEXT
100
AcDbText
 10
0
 20
-3.2000
 30
0
 40
0.4500
  1
GROUND FLOOR PLAN
100
AcDbText
  0
TEXT
  5
2F9
100
AcDbEntity
  8
TEXT
100
AcDbText
 10
32.6000
 20
15
 30
0
 40
0.3000
  1
+450
100
AcDbText
  0
LWPOLYLINE
  5
2FA
100
AcDbEntity
  8
WIND
100
AcDbPolyline
 90
4
 70
1
 10
44.4000
 20
-0.0600
 10
45.6000
 20
-0.0600
 10
45.6000
 20
0.0600
 10
44.4000
 20
0.0600
  0
LWPOLYLINE
  5
2FB
100
AcDbEntity
  8
WIND
100
AcDbPolyline
 90
4
 70
1
 10
44.4000
 20
29.9400
 10
45.6000
 20
29.9400
 10
45.6000
 20
30.0600
 10
44.4000
 20
30.0600
  0
LWPOLYLINE
  5
2FC
100
AcDbEntity
  8
WIND
100
AcDbPolyline
 90
4
 70
1
 10
50.4000
 20
-0.0600
 10
51.6000
 20
-0.0600
 10
51.6000
 20
0.0600
 10
50.4000
 20
0.0600
  0
LWPOLYLINE
  5
2FD
100
AcDbEntity
  8
WIND
100
AcDbPolyline
 90
4
 70
1
 10
50.4000
 20
29.9400
 10
51.6000
 20
29.9400
 10
51.6000
 20
30.0600
 10
50.4000
 20
30.0600
  0
LWPOLYLINE
  5
2FE
100
AcDbEntity
  8
WIND
100
AcDbPolyline
 90
4
 70
1
 10
56.4000
 20
-0.0600
 10
57.6000
 20
-0.0600
 10
57.6000
 20
0.0600
 10
56.4000
 20
0.0600
  0
LWPOLYLINE
  5
2FF
100
AcDbEntity
  8
WIND
100
AcDbPolyline
 90
4
 70
1
 10
56.4000
 20
29.9400
 10
57.6000
 20
29.9400
 10
57.6000
 20
30.0600
 10
56.4000
 20
30.0600
  0
LWPOLYLINE
  5
300
100
AcDbEntity
  8
WIND
100
AcDbPolyline
 90
4
 70
1
 10
62.4000
 20
-0.0600
 10
63.6000
 20
-0.0600
 10
63.6000
 20
0.0600
 10
62.4000
 20
0.0600
  0
LWPOLYLINE
  5
301
100
AcDbEntity
  8
WIND
100
AcDbPolyline
 90
4
 70
1
 10
62.4000
 20
29.9400
 10
63.6000
 20
29.9400
 10
63.6000
 20
30.0600
 10
62.4000
 20
30.0600
  0
LWPOLYLINE
  5
302
100
AcDbEntity
  8
WIND
100
AcDbPolyline
 90
4
 70
1
 10
68.4000
 20
-0.0600
 10
69.6000
 20
-0.0600
 10
69.6000
 20
0.0600
 10
68.4000
 20
0.0600
  0
LWPOLYLINE
  5
303
100
AcDbEntity
  8
WIND
100
AcDbPolyline
 90
4
 70
1
 10
68.4000
 20
29.9400
 10
69.6000
 20
29.9400
 10
69.6000
 20
30.0600
 10
68.4000
 20
30.0600
  0
LWPOLYLINE
  5
304
100
AcDbEntity
  8
WIND
100
AcDbPolyline
 90
4
 70
1
 10
41.9400
 20
2.4000
 10
42.0600
 20
2.4000
 10
42.0600
 20
3.6000
 10
41.9400
 20
3.6000
  0
LWPOLYLINE
  5
305
100
AcDbEntity
  8
WIND
100
AcDbPolyline
 90
4
 70
1
 10
71.9400
 20
2.4000
 10
72.0600
 20
2.4000
 10
72.0600
 20
3.6000
 10
71.9400
 20
3.6000
  0
LWPOLYLINE
  5
306
100
AcDbEntity
  8
WIND
100
AcDbPolyline
 90
4
 70
1
 10
41.9400
 20
8.4000
 10
42.0600
 20
8.4000
 10
42.0600
 20
9.6000
 10
41.9400
 20
9.6000
  0
LWPOLYLINE
  5
307
100
AcDbEntity
  8
WIND
100
AcDbPolyline
 90
4
 70
1
 10
71.9400
 20
8.4000
 10
72.0600
 20
8.4000
 10
72.0600
 20
9.6000
 10
71.9400
 20
9.6000
  0
LWPOLYLINE
  5
308
100
AcDbEntity
  8
WIND
100
AcDbPolyline
 90
4
 70
1
 10
41.9400
 20
14.4000
 10
42.0600
 20
14.4000
 10
42.0600
 20
15.6000
 10
41.9400
 20
15.6000
  0
LWPOLYLINE
  5
309
100
AcDbEntity
  8
WIND
100
AcDbPolyline
 90
4
 70
1
 10
71.9400
 20
14.4000
 10
72.0600
 20
14.4000
 10
72.0600
 20
15.6000
 10
71.9400
 20
15.6000
  0
LWPOLYLINE
  5
30A
100
AcDbEntity
  8
WIND
100
AcDbPolyline
 90
4
 70
1
 10
41.9400
 20
20.4000
 10
42.0600
 20
20.4000
 10
42.0600
 20
21.6000
 10
41.9400
 20
21.6000
  0
LWPOLYLINE
  5
30B
100
AcDbEntity
  8
WIND
100
AcDbPolyline
 90
4
 70
1
 10
71.9400
 20
20.4000
 10
72.0600
 20
20.4000
 10
72.0600
 20
21.6000
 10
71.9400
 20
21.6000
  0
LWPOLYLINE
  5
30C
100
AcDbEntity
  8
WIND
100
AcDbPolyline
 90
4
 70
1
 10
41.9400
 20
26.4000
 10
42.0600
 20
26.4000
 10
42.0600
 20
27.6000
 10
41.9400
 20
27.6000
  0
LWPOLYLINE
  5
30D
100
AcDbEntity
  8
WIND
100
AcDbPolyline
 90
4
 70
1
 10
71.9400
 20
26.4000
 10
72.0600
 20
26.4000
 10
72.0600
 20
27.6000
 10
71.9400
 20
27.6000
  0
ARC
  5
30E
100
AcDbEntity
  8
DOOR
100
AcDbCircle
 10
48
 20
8.5500
 30
0
 40
0.9000
100
AcDbArc
 50
90
 51
180
  0
LINE
  5
30F
100
AcDbEntity
  8
DOOR
100
AcDbLine
 10
48
 20
8.5500
 30
0
 11
47.1000
 21
8.5500
 31
0
  0
ARC
  5
310
100
AcDbEntity
  8
DOOR
100
AcDbCircle
 10
48
 20
14.5500
 30
0
 40
0.9000
100
AcDbArc
 50
90
 51
180
  0
LINE
  5
311
100
AcDbEntity
  8
DOOR
100
AcDbLine
 10
48
 20
14.5500
 30
0
 11
47.1000
 21
14.5500
 31
0
  0
ARC
  5
312
100
AcDbEntity
  8
DOOR
100
AcDbCircle
 10
48
 20
20.5500
 30
0
 40
0.9000
100
AcDbArc
 50
90
 51
180
  0
LINE
  5
313
100
AcDbEntity
  8
DOOR
100
AcDbLine
 10
48
 20
20.5500
 30
0
 11
47.1000
 21
20.5500
 31
0
  0
ARC
  5
314
100
AcDbEntity
  8
DOOR
100
AcDbCircle
 10
48
 20
26.5500
 30
0
 40
0.9000
100
AcDbArc
 50
90
 51
180
  0
LINE
  5
315
100
AcDbEntity
  8
DOOR
100
AcDbLine
 10
48
 20
26.5500
 30
0
 11
47.1000
 21
26.5500
 31
0
  0
ARC
  5
316
100
AcDbEntity
  8
DOOR
100
AcDbCircle
 10
54
 20
2.5500
 30
0
 40
0.9000
100
AcDbArc
 50
90
 51
180
  0
LINE
  5
317
100
AcDbEntity
  8
DOOR
100
AcDbLine
 10
54
 20
2.5500
 30
0
 11
53.1000
 21
2.5500
 31
0
  0
ARC
  5
318
100
AcDbEntity
  8
DOOR
100
AcDbCircle
 10
54
 20
8.5500
 30
0
 40
0.9000
100
AcDbArc
 50
90
 51
180
  0
LINE
  5
319
100
AcDbEntity
  8
DOOR
100
AcDbLine
 10
54
 20
8.5500
 30
0
 11
53.1000
 21
8.5500
 31
0
  0
ARC
  5
31A
100
AcDbEntity
  8
DOOR
100
AcDbCircle
 10
54
 20
20.5500
 30
0
 40
0.9000
100
AcDbArc
 50
90
 51
180
  0
LINE
  5
31B
100
AcDbEntity
  8
DOOR
100
AcDbLine
 10
54
 20
20.5500
 30
0
 11
53.1000
 21
20.5500
 31
0
  0
ARC
  5
31C
100
AcDbEntity
  8
DOOR
100
AcDbCircle
 10
54
 20
26.5500
 30
0
 40
0.9000
100
AcDbArc
 50
90
 51
180
  0
LINE
  5
31D
100
AcDbEntity
  8
DOOR
100
AcDbLine
 10
54
 20
26.5500
 30
0
 11
53.1000
 21
26.5500
 31
0
  0
ARC
  5
31E
100
AcDbEntity
  8
DOOR
100
AcDbCircle
 10
60
 20
2.5500
 30
0
 40
0.9000
100
AcDbArc
 50
90
 51
180
  0
LINE
  5
31F
100
AcDbEntity
  8
DOOR
100
AcDbLine
 10
60
 20
2.5500
 30
0
 11
59.1000
 21
2.5500
 31
0
  0
ARC
  5
320
100
AcDbEntity
  8
DOOR
100
AcDbCircle
 10
60
 20
8.5500
 30
0
 40
0.9000
100
AcDbArc
 50
90
 51
180
  0
LINE
  5
321
100
AcDbEntity
  8
DOOR
100
AcDbLine
 10
60
 20
8.5500
 30
0
 11
59.1000
 21
8.5500
 31
0
  0
ARC
  5
322
100
AcDbEntity
  8
DOOR
100
AcDbCircle
 10
60
 20
14.5500
 30
0
 40
0.9000
100
AcDbArc
 50
90
 51
180
  0
LINE
  5
323
100
AcDbEntity
  8
DOOR
100
AcDbLine
 10
60
 20
14.5500
 30
0
 11
59.1000
 21
14.5500
 31
0
  0
ARC
  5
324
100
AcDbEntity
  8
DOOR
100
AcDbCircle
 10
60
 20
20.5500
 30
0
 40
0.9000
100
AcDbArc
 50
90
 51
180
  0
LINE
  5
325
100
AcDbEntity
  8
DOOR
100
AcDbLine
 10
60
 20
20.5500
 30
0
 11
59.1000
 21
20.5500
 31
0
  0
ARC
  5
326
100
AcDbEntity
  8
DOOR
100
AcDbCircle
 10
60
 20
26.5500
 30
0
 40
0.9000
100
AcDbArc
 50
90
 51
180
  0
LINE
  5
327
100
AcDbEntity
  8
DOOR
100
AcDbLine
 10
60
 20
26.5500
 30
0
 11
59.1000
 21
26.5500
 31
0
  0
ARC
  5
328
100
AcDbEntity
  8
DOOR
100
AcDbCircle
 10
66
 20
2.5500
 30
0
 40
0.9000
100
AcDbArc
 50
90
 51
180
  0
LINE
  5
329
100
AcDbEntity
  8
DOOR
100
AcDbLine
 10
66
 20
2.5500
 30
0
 11
65.1000
 21
2.5500
 31
0
  0
ARC
  5
32A
100
AcDbEntity
  8
DOOR
100
AcDbCircle
 10
66
 20
8.5500
 30
0
 40
0.9000
100
AcDbArc
 50
90
 51
180
  0
LINE
  5
32B
100
AcDbEntity
  8
DOOR
100
AcDbLine
 10
66
 20
8.5500
 30
0
 11
65.1000
 21
8.5500
 31
0
  0
ARC
  5
32C
100
AcDbEntity
  8
DOOR
100
AcDbCircle
 10
66
 20
14.5500
 30
0
 40
0.9000
100
AcDbArc
 50
90
 51
180
  0
LINE
  5
32D
100
AcDbEntity
  8
DOOR
100
AcDbLine
 10
66
 20
14.5500
 30
0
 11
65.1000
 21
14.5500
 31
0
  0
ARC
  5
32E
100
AcDbEntity
  8
DOOR
100
AcDbCircle
 10
66
 20
20.5500
 30
0
 40
0.9000
100
AcDbArc
 50
90
 51
180
  0
LINE
  5
32F
100
AcDbEntity
  8
DOOR
100
AcDbLine
 10
66
 20
20.5500
 30
0
 11
65.1000
 21
20.5500
 31
0
  0
ARC
  5
330
100
AcDbEntity
  8
DOOR
100
AcDbCircle
 10
44.5500
 20
6
 30
0
 40
0.9000
100
AcDbArc
 50
0
 51
90
  0
LINE
  5
331
100
AcDbEntity
  8
DOOR
100
AcDbLine
 10
44.5500
 20
6
 30
0
 11
44.5500
 21
6.9000
 31
0
  0
ARC
  5
332
100
AcDbEntity
  8
DOOR
100
AcDbCircle
 10
50.5500
 20
6
 30
0
 40
0.9000
100
AcDbArc
 50
0
 51
90
  0
LINE
  5
333
100
AcDbEntity
  8
DOOR
100
AcDbLine
 10
50.5500
 20
6
 30
0
 11
50.5500
 21
6.9000
 31
0
  0
ARC
  5
334
100
AcDbEntity
  8
DOOR
100
AcDbCircle
 10
56.5500
 20
6
 30
0
 40
0.9000
100
AcDbArc
 50
0
 51
90
  0
LINE
  5
335
100
AcDbEntity
  8
DOOR
100
AcDbLine
 10
56.5500
 20
6
 30
0
 11
56.5500
 21
6.9000
 31
0
  0
ARC
  5
336
100
AcDbEntity
  8
DOOR
100
AcDbCircle
 10
62.5500
 20
6
 30
0
 40
0.9000
100
AcDbArc
 50
0
 51
90
  0
LINE
  5
337
100
AcDbEntity
  8
DOOR
100
AcDbLine
 10
62.5500
 20
6
 30
0
 11
62.5500
 21
6.9000
 31
0
  0
ARC
  5
338
100
AcDbEntity
  8
DOOR
100
AcDbCircle
 10
44.5500
 20
12
 30
0
 40
0.9000
100
AcDbArc
 50
0
 51
90
  0
LINE
  5
339
100
AcDbEntity
  8
DOOR
100
AcDbLine
 10
44.5500
 20
12
 30
0
 11
44.5500
 21
12.9000
 31
0
  0
ARC
  5
33A
100
AcDbEntity
  8
DOOR
100
AcDbCircle
 10
50.5500
 20
12
 30
0
 40
0.9000
100
AcDbArc
 50
0
 51
90
  0
LINE
  5
33B
100
AcDbEntity
  8
DOOR
100
AcDbLine
 10
50.5500
 20
12
 30
0
 11
50.5500
 21
12.9000
 31
0
  0
ARC
  5
33C
100
AcDbEntity
  8
DOOR
100
AcDbCircle
 10
56.5500
 20
12
 30
0
 40
0.9000
100
AcDbArc
 50
0
 51
90
  0
LINE
  5
33D
100
AcDbEntity
  8
DOOR
100
AcDbLine
 10
56.5500
 20
12
 30
0
 11
56.5500
 21
12.9000
 31
0
  0
ARC
  5
33E
100
AcDbEntity
  8
DOOR
100
AcDbCircle
 10
62.5500
 20
12
 30
0
 40
0.9000
100
AcDbArc
 50
0
 51
90
  0
LINE
  5
33F
100
AcDbEntity
  8
DOOR
100
AcDbLine
 10
62.5500
 20
12
 30
0
 11
62.5500
 21
12.9000
 31
0
  0
ARC
  5
340
100
AcDbEntity
  8
DOOR
100
AcDbCircle
 10
68.5500
 20
12
 30
0
 40
0.9000
100
AcDbArc
 50
0
 51
90
  0
LINE
  5
341
100
AcDbEntity
  8
DOOR
100
AcDbLine
 10
68.5500
 20
12
 30
0
 11
68.5500
 21
12.9000
 31
0
  0
ARC
  5
342
100
AcDbEntity
  8
DOOR
100
AcDbCircle
 10
44.5500
 20
18
 30
0
 40
0.9000
100
AcDbArc
 50
0
 51
90
  0
LINE
  5
343
100
AcDbEntity
  8
DOOR
100
AcDbLine
 10
44.5500
 20
18
 30
0
 11
44.5500
 21
18.9000
 31
0
  0
ARC
  5
344
100
AcDbEntity
  8
DOOR
100
AcDbCircle
 10
50.5500
 20
18
 30
0
 40
0.9000
100
AcDbArc
 50
0
 51
90
  0
LINE
  5
345
100
AcDbEntity
  8
DOOR
100
AcDbLine
 10
50.5500
 20
18
 30
0
 11
50.5500
 21
18.9000
 31
0
  0
ARC
  5
346
100
AcDbEntity
  8
DOOR
100
AcDbCircle
 10
56.5500
 20
18
 30
0
 40
0.9000
100
AcDbArc
 50
0
 51
90
  0
LINE
  5
347
100
AcDbEntity
  8
DOOR
100
AcDbLine
 10
56.5500
 20
18
 30
0
 11
56.5500
 21
18.9000
 31
0
  0
ARC
  5
348
100
AcDbEntity
  8
DOOR
100
AcDbCircle
 10
62.5500
 20
18
 30
0
 40
0.9000
100
AcDbArc
 50
0
 51
90
  0
LINE
  5
349
100
AcDbEntity
  8
DOOR
100
AcDbLine
 10
62.5500
 20
18
 30
0
 11
62.5500
 21
18.9000
 31
0
  0
ARC
  5
34A
100
AcDbEntity
  8
DOOR
100
AcDbCircle
 10
68.5500
 20
18
 30
0
 40
0.9000
100
AcDbArc
 50
0
 51
90
  0
LINE
  5
34B
100
AcDbEntity
  8
DOOR
100
AcDbLine
 10
68.5500
 20
18
 30
0
 11
68.5500
 21
18.9000
 31
0
  0
ARC
  5
34C
100
AcDbEntity
  8
DOOR
100
AcDbCircle
 10
50.5500
 20
24
 30
0
 40
0.9000
100
AcDbArc
 50
0
 51
90
  0
LINE
  5
34D
100
AcDbEntity
  8
DOOR
100
AcDbLine
 10
50.5500
 20
24
 30
0
 11
50.5500
 21
24.9000
 31
0
  0
ARC
  5
34E
100
AcDbEntity
  8
DOOR
100
AcDbCircle
 10
56.5500
 20
24
 30
0
 40
0.9000
100
AcDbArc
 50
0
 51
90
  0
LINE
  5
34F
100
AcDbEntity
  8
DOOR
100
AcDbLine
 10
56.5500
 20
24
 30
0
 11
56.5500
 21
24.9000
 31
0
  0
ARC
  5
350
100
AcDbEntity
  8
DOOR
100
AcDbCircle
 10
62.5500
 20
24
 30
0
 40
0.9000
100
AcDbArc
 50
0
 51
90
  0
LINE
  5
351
100
AcDbEntity
  8
DOOR
100
AcDbLine
 10
62.5500
 20
24
 30
0
 11
62.5500
 21
24.9000
 31
0
  0
ARC
  5
352
100
AcDbEntity
  8
DOOR
100
AcDbCircle
 10
68.5500
 20
24
 30
0
 40
0.9000
100
AcDbArc
 50
0
 51
90
  0
LINE
  5
353
100
AcDbEntity
  8
DOOR
100
AcDbLine
 10
68.5500
 20
24
 30
0
 11
68.5500
 21
24.9000
 31
0
  0
LINE
  5
354
100
AcDbEntity
  8
WALL
100
AcDbLine
370
50
 10
42
 20
-0.1500
 30
0
 11
44.4000
 21
-0.1500
 31
0
  0
LINE
  5
355
100
AcDbEntity
  8
WALL
100
AcDbLine
370
50
 10
42
 20
0.1500
 30
0
 11
44.4000
 21
0.1500
 31
0
  0
LINE
  5
356
100
AcDbEntity
  8
WALL
100
AcDbLine
370
50
 10
45.6000
 20
-0.1500
 30
0
 11
48
 21
-0.1500
 31
0
  0
LINE
  5
357
100
AcDbEntity
  8
WALL
100
AcDbLine
370
50
 10
45.6000
 20
0.1500
 30
0
 11
48
 21
0.1500
 31
0
  0
LINE
  5
358
100
AcDbEntity
  8
WALL
100
AcDbLine
370
50
 10
44.4000
 20
-0.1500
 30
0
 11
44.4000
 21
0.1500
 31
0
  0
LINE
  5
359
100
AcDbEntity
  8
WALL
100
AcDbLine
370
50
 10
45.6000
 20
-0.1500
 30
0
 11
45.6000
 21
0.1500
 31
0
  0
LINE
  5
35A
100
AcDbEntity
  8
WALL
100
AcDbLine
370
50
 10
42
 20
29.8500
 30
0
 11
44.4000
 21
29.8500
 31
0
  0
LINE
  5
35B
100
AcDbEntity
  8
WALL
100
AcDbLine
370
50
 10
42
 20
30.1500
 30
0
 11
44.4000
 21
30.1500
 31
0
  0
LINE
  5
35C
100
AcDbEntity
  8
WALL
100
AcDbLine
370
50
 10
45.6000
 20
29.8500
 30
0
 11
48
 21
29.8500
 31
0
  0
LINE
  5
35D
100
AcDbEntity
  8
WALL
100
AcDbLine
370
50
 10
45.6000
 20
30.1500
 30
0
 11
48
 21
30.1500
 31
0
  0
LINE
  5
35E
100
AcDbEntity
  8
WALL
100
AcDbLine
370
50
 10
44.4000
 20
29.8500
 30
0
 11
44.4000
 21
30.1500
 31
0
  0
LINE
  5
35F
100
AcDbEntity
  8
WALL
100
AcDbLine
370
50
 10
45.6000
 20
29.8500
 30
0
 11
45.6000
 21
30.1500
 31
0
  0
LINE
  5
360
100
AcDbEntity
  8
WALL
100
AcDbLine
370
50
 10
48
 20
-0.1500
 30
0
 11
50.4000
 21
-0.1500
 31
0
  0
LINE
  5
361
100
AcDbEntity
  8
WALL
100
AcDbLine
370
50
 10
48
 20
0.1500
 30
0
 11
50.4000
 21
0.1500
 31
0
  0
LINE
  5
362
100
AcDbEntity
  8
WALL
100
AcDbLine
370
50
 10
51.6000
 20
-0.1500
 30
0
 11
54
 21
-0.1500
 31
0
  0
LINE
  5
363
100
AcDbEntity
  8
WALL
100
AcDbLine
370
50
 10
51.6000
 20
0.1500
 30
0
 11
54
 21
0.1500
 31
0
  0
LINE
  5
364
100
AcDbEntity
  8
WALL
100
AcDbLine
370
50
 10
50.4000
 20
-0.1500
 30
0
 11
50.4000
 21
0.1500
 31
0
  0
LINE
  5
365
100
AcDbEntity
  8
WALL
100
AcDbLine
370
50
 10
51.6000
 20
-0.1500
 30
0
 11
51.6000
 21
0.1500
 31
0
  0
LINE
  5
366
100
AcDbEntity
  8
WALL
100
AcDbLine
370
50
 10
48
 20
29.8500
 30
0
 11
50.4000
 21
29.8500
 31
0
  0
LINE
  5
367
100
AcDbEntity
  8
WALL
100
AcDbLine
370
50
 10
48
 20
30.1500
 30
0
 11
50.4000
 21
30.1500
 31
0
  0
LINE
  5
368
100
AcDbEntity
  8
WALL
100
AcDbLine
370
50
 10
51.6000
 20
29.8500
 30
0
 11
54
 21
29.8500
 31
0
  0
LINE
  5
369
100
AcDbEntity
  8
WALL
100
AcDbLine
370
50
 10
51.6000
 20
30.1500
 30
0
 11
54
 21
30.1500
 31
0
  0
LINE
  5
36A
100
AcDbEntity
  8
WALL
100
AcDbLine
370
50
 10
50.4000
 20
29.8500
 30
0
 11
50.4000
 21
30.1500
 31
0
  0
LINE
  5
36B
100
AcDbEntity
  8
WALL
100
AcDbLine
370
50
 10
51.6000
 20
29.8500
 30
0
 11
51.6000
 21
30.1500
 31
0
  0
LINE
  5
36C
100
AcDbEntity
  8
WALL
100
AcDbLine
370
50
 10
54
 20
-0.1500
 30
0
 11
56.4000
 21
-0.1500
 31
0
  0
LINE
  5
36D
100
AcDbEntity
  8
WALL
100
AcDbLine
370
50
 10
54
 20
0.1500
 30
0
 11
56.4000
 21
0.1500
 31
0
  0
LINE
  5
36E
100
AcDbEntity
  8
WALL
100
AcDbLine
370
50
 10
57.6000
 20
-0.1500
 30
0
 11
60
 21
-0.1500
 31
0
  0
LINE
  5
36F
100
AcDbEntity
  8
WALL
100
AcDbLine
370
50
 10
57.6000
 20
0.1500
 30
0
 11
60
 21
0.1500
 31
0
  0
LINE
  5
370
100
AcDbEntity
  8
WALL
100
AcDbLine
370
50
 10
56.4000
 20
-0.1500
 30
0
 11
56.4000
 21
0.1500
 31
0
  0
LINE
  5
371
100
AcDbEntity
  8
WALL
100
AcDbLine
370
50
 10
57.6000
 20
-0.1500
 30
0
 11
57.6000
 21
0.1500
 31
0
  0
LINE
  5
372
100
AcDbEntity
  8
WALL
100
AcDbLine
370
50
 10
54
 20
29.8500
 30
0
 11
56.4000
 21
29.8500
 31
0
  0
LINE
  5
373
100
AcDbEntity
  8
WALL
100
AcDbLine
370
50
 10
54
 20
30.1500
 30
0
 11
56.4000
 21
30.1500
 31
0
  0
LINE
  5
374
100
AcDbEntity
  8
WALL
100
AcDbLine
370
50
 10
57.6000
 20
29.8500
 30
0
 11
60
 21
29.8500
 31
0
  0
LINE
  5
375
100
AcDbEntity
  8
WALL
100
AcDbLine
370
50
 10
57.6000
 20
30.1500
 30
0
 11
60
 21
30.1500
 31
0
  0
LINE
  5
376
100
AcDbEntity
  8
WALL
100
AcDbLine
370
50
 10
56.4000
 20
29.8500
 30
0
 11
56.4000
 21
30.1500
 31
0
  0
LINE
  5
377
100
AcDbEntity
  8
WALL
100
AcDbLine
370
50
 10
57.6000
 20
29.8500
 30
0
 11
57.6000
 21
30.1500
 31
0
  0
LINE
  5
378
100
AcDbEntity
  8
WALL
100
AcDbLine
370
50
 10
60
 20
-0.1500
 30
0
 11
62.4000
 21
-0.1500
 31
0
  0
LINE
  5
379
100
AcDbEntity
  8
WALL
100
AcDbLine
370
50
 10
60
 20
0.1500
 30
0
 11
62.4000
 21
0.1500
 31
0
  0
LINE
  5
37A
100
AcDbEntity
  8
WALL
100
AcDbLine
370
50
 10
63.6000
 20
-0.1500
 30
0
 11
66
 21
-0.1500
 31
0
  0
LINE
  5
37B
100
AcDbEntity
  8
WALL
100
AcDbLine
370
50
 10
63.6000
 20
0.1500
 30
0
 11
66
 21
0.1500
 31
0
  0
LINE
  5
37C
100
AcDbEntity
  8
WALL
100
AcDbLine
370
50
 10
62.4000
 20
-0.1500
 30
0
 11
62.4000
 21
0.1500
 31
0
  0
LINE
  5
37D
100
AcDbEntity
  8
WALL
100
AcDbLine
370
50
 10
63.6000
 20
-0.1500
 30
0
 11
63.6000
 21
0.1500
 31
0
  0
LINE
  5
37E
100
AcDbEntity
  8
WALL
100
AcDbLine
370
50
 10
60
 20
29.8500
 30
0
 11
62.4000
 21
29.8500
 31
0
  0
LINE
  5
37F
100
AcDbEntity
  8
WALL
100
AcDbLine
370
50
 10
60
 20
30.1500
 30
0
 11
62.4000
 21
30.1500
 31
0
  0
LINE
  5
380
100
AcDbEntity
  8
WALL
100
AcDbLine
370
50
 10
63.6000
 20
29.8500
 30
0
 11
66
 21
29.8500
 31
0
  0
LINE
  5
381
100
AcDbEntity
  8
WALL
100
AcDbLine
370
50
 10
63.6000
 20
30.1500
 30
0
 11
66
 21
30.1500
 31
0
  0
LINE
  5
382
100
AcDbEntity
  8
WALL
100
AcDbLine
370
50
 10
62.4000
 20
29.8500
 30
0
 11
62.4000
 21
30.1500
 31
0
  0
LINE
  5
383
100
AcDbEntity
  8
WALL
100
AcDbLine
370
50
 10
63.6000
 20
29.8500
 30
0
 11
63.6000
 21
30.1500
 31
0
  0
LINE
  5
384
100
AcDbEntity
  8
WALL
100
AcDbLine
370
50
 10
66
 20
-0.1500
 30
0
 11
68.4000
 21
-0.1500
 31
0
  0
LINE
  5
385
100
AcDbEntity
  8
WALL
100
AcDbLine
370
50
 10
66
 20
0.1500
 30
0
 11
68.4000
 21
0.1500
 31
0
  0
LINE
  5
386
100
AcDbEntity
  8
WALL
100
AcDbLine
370
50
 10
69.6000
 20
-0.1500
 30
0
 11
72
 21
-0.1500
 31
0
  0
LINE
  5
387
100
AcDbEntity
  8
WALL
100
AcDbLine
370
50
 10
69.6000
 20
0.1500
 30
0
 11
72
 21
0.1500
 31
0
  0
LINE
  5
388
100
AcDbEntity
  8
WALL
100
AcDbLine
370
50
 10
68.4000
 20
-0.1500
 30
0
 11
68.4000
 21
0.1500
 31
0
  0
LINE
  5
389
100
AcDbEntity
  8
WALL
100
AcDbLine
370
50
 10
69.6000
 20
-0.1500
 30
0
 11
69.6000
 21
0.1500
 31
0
  0
LINE
  5
38A
100
AcDbEntity
  8
WALL
100
AcDbLine
370
50
 10
66
 20
29.8500
 30
0
 11
68.4000
 21
29.8500
 31
0
  0
LINE
  5
38B
100
AcDbEntity
  8
WALL
100
AcDbLine
370
50
 10
66
 20
30.1500
 30
0
 11
68.4000
 21
30.1500
 31
0
  0
LINE
  5
38C
100
AcDbEntity
  8
WALL
100
AcDbLine
370
50
 10
69.6000
 20
29.8500
 30
0
 11
72
 21
29.8500
 31
0
  0
LINE
  5
38D
100
AcDbEntity
  8
WALL
100
AcDbLine
370
50
 10
69.6000
 20
30.1500
 30
0
 11
72
 21
30.1500
 31
0
  0
LINE
  5
38E
100
AcDbEntity
  8
WALL
100
AcDbLine
370
50
 10
68.4000
 20
29.8500
 30
0
 11
68.4000
 21
30.1500
 31
0
  0
LINE
  5
38F
100
AcDbEntity
  8
WALL
100
AcDbLine
370
50
 10
69.6000
 20
29.8500
 30
0
 11
69.6000
 21
30.1500
 31
0
  0
LINE
  5
390
100
AcDbEntity
  8
WALL
100
AcDbLine
370
50
 10
41.8500
 20
0
 30
0
 11
41.8500
 21
2.4000
 31
0
  0
LINE
  5
391
100
AcDbEntity
  8
WALL
100
AcDbLine
370
50
 10
42.1500
 20
0
 30
0
 11
42.1500
 21
2.4000
 31
0
  0
LINE
  5
392
100
AcDbEntity
  8
WALL
100
AcDbLine
370
50
 10
41.8500
 20
3.6000
 30
0
 11
41.8500
 21
6
 31
0
  0
LINE
  5
393
100
AcDbEntity
  8
WALL
100
AcDbLine
370
50
 10
42.1500
 20
3.6000
 30
0
 11
42.1500
 21
6
 31
0
  0
LINE
  5
394
100
AcDbEntity
  8
WALL
100
AcDbLine
370
50
 10
41.8500
 20
2.4000
 30
0
 11
42.1500
 21
2.4000
 31
0
  0
LINE
  5
395
100
AcDbEntity
  8
WALL
100
AcDbLine
370
50
 10
41.8500
 20
3.6000
 30
0
 11
42.1500
 21
3.6000
 31
0
  0
LINE
  5
396
100
AcDbEntity
  8
WALL
100
AcDbLine
370
50
 10
71.8500
 20
0
 30
0
 11
71.8500
 21
2.4000
 31
0
  0
LINE
  5
397
100
AcDbEntity
  8
WALL
100
AcDbLine
370
50
 10
72.1500
 20
0
 30
0
 11
72.1500
 21
2.4000
 31
0
  0
LINE
  5
398
100
AcDbEntity
  8
WALL
100
AcDbLine
370
50
 10
71.8500
 20
3.6000
 30
0
 11
71.8500
 21
6
 31
0
  0
LINE
  5
399
100
AcDbEntity
  8
WALL
100
AcDbLine
370
50
 10
72.1500
 20
3.6000
 30
0
 11
72.1500
 21
6
 31
0
  0
LINE
  5
39A
100
AcDbEntity
  8
WALL
100
AcDbLine
370
50
 10
71.8500
 20
2.4000
 30
0
 11
72.1500
 21
2.4000
 31
0
  0
LINE
  5
39B
100
AcDbEntity
  8
WALL
100
AcDbLine
370
50
 10
71.8500
 20
3.6000
 30
0
 11
72.1500
 21
3.6000
 31
0
  0
LINE
  5
39C
100
AcDbEntity
  8
WALL
100
AcDbLine
370
50
 10
41.8500
 20
6
 30
0
 11
41.8500
 21
8.4000
 31
0
  0
LINE
  5
39D
100
AcDbEntity
  8
WALL
100
AcDbLine
370
50
 10
42.1500
 20
6
 30
0
 11
42.1500
 21
8.4000
 31
0
  0
LINE
  5
39E
100
AcDbEntity
  8
WALL
100
AcDbLine
370
50
 10
41.8500
 20
9.6000
 30
0
 11
41.8500
 21
12
 31
0
  0
LINE
  5
39F
100
AcDbEntity
  8
WALL
100
AcDbLine
370
50
 10
42.1500
 20
9.6000
 30
0
 11
42.1500
 21
12
 31
0
  0
LINE
  5
3A0
100
AcDbEntity
  8
WALL
100
AcDbLine
370
50
 10
41.8500
 20
8.4000
 30
0
 11
42.1500
 21
8.4000
 31
0
  0
LINE
  5
3A1
100
AcDbEntity
  8
WALL
100
AcDbLine
370
50
 10
41.8500
 20
9.6000
 30
0
 11
42.1500
 21
9.6000
 31
0
  0
LINE
  5
3A2
100
AcDbEntity
  8
WALL
100
AcDbLine
370
50
 10
71.8500
 20
6
 30
0
 11
71.8500
 21
8.4000
 31
0
  0
LINE
  5
3A3
100
AcDbEntity
  8
WALL
100
AcDbLine
370
50
 10
72.1500
 20
6
 30
0
 11
72.1500
 21
8.4000
 31
0
  0
LINE
  5
3A4
100
AcDbEntity
  8
WALL
100
AcDbLine
370
50
 10
71.8500
 20
9.6000
 30
0
 11
71.8500
 21
12
 31
0
  0
LINE
  5
3A5
100
AcDbEntity
  8
WALL
100
AcDbLine
370
50
 10
72.1500
 20
9.6000
 30
0
 11
72.1500
 21
12
 31
0
  0
LINE
  5
3A6
100
AcDbEntity
  8
WALL
100
AcDbLine
370
50
 10
71.8500
 20
8.4000
 30
0
 11
72.1500
 21
8.4000
 31
0
  0
LINE
  5
3A7
100
AcDbEntity
  8
WALL
100
AcDbLine
370
50
 10
71.8500
 20
9.6000
 30
0
 11
72.1500
 21
9.6000
 31
0
  0
LINE
  5
3A8
100
AcDbEntity
  8
WALL
100
AcDbLine
370
50
 10
41.8500
 20
12
 30
0
 11
41.8500
 21
14.4000
 31
0
  0
LINE
  5
3A9
100
AcDbEntity
  8
WALL
100
AcDbLine
370
50
 10
42.1500
 20
12
 30
0
 11
42.1500
 21
14.4000
 31
0
  0
LINE
  5
3AA
100
AcDbEntity
  8
WALL
100
AcDbLine
370
50
 10
41.8500
 20
15.6000
 30
0
 11
41.8500
 21
18
 31
0
  0
LINE
  5
3AB
100
AcDbEntity
  8
WALL
100
AcDbLine
370
50
 10
42.1500
 20
15.6000
 30
0
 11
42.1500
 21
18
 31
0
  0
LINE
  5
3AC
100
AcDbEntity
  8
WALL
100
AcDbLine
370
50
 10
41.8500
 20
14.4000
 30
0
 11
42.1500
 21
14.4000
 31
0
  0
LINE
  5
3AD
100
AcDbEntity
  8
WALL
100
AcDbLine
370
50
 10
41.8500
 20
15.6000
 30
0
 11
42.1500
 21
15.6000
 31
0
  0
LINE
  5
3AE
100
AcDbEntity
  8
WALL
100
AcDbLine
370
50
 10
71.8500
 20
12
 30
0
 11
71.8500
 21
14.4000
 31
0
  0
LINE
  5
3AF
100
AcDbEntity
  8
WALL
100
AcDbLine
370
50
 10
72.1500
 20
12
 30
0
 11
72.1500
 21
14.4000
 31
0
  0
LINE
  5
3B0
100
AcDbEntity
  8
WALL
100
AcDbLine
370
50
 10
71.8500
 20
15.6000
 30
0
 11
71.8500
 21
18
 31
0
  0
LINE
  5
3B1
100
AcDbEntity
  8
WALL
100
AcDbLine
370
50
 10
72.1500
 20
15.6000
 30
0
 11
72.1500
 21
18
 31
0
  0
LINE
  5
3B2
100
AcDbEntity
  8
WALL
100
AcDbLine
370
50
 10
71.8500
 20
14.4000
 30
0
 11
72.1500
 21
14.4000
 31
0
  0
LINE
  5
3B3
100
AcDbEntity
  8
WALL
100
AcDbLine
370
50
 10
71.8500
 20
15.6000
 30
0
 11
72.1500
 21
15.6000
 31
0
  0
LINE
  5
3B4
100
AcDbEntity
  8
WALL
100
AcDbLine
370
50
 10
41.8500
 20
18
 30
0
 11
41.8500
 21
20.4000
 31
0
  0
LINE
  5
3B5
100
AcDbEntity
  8
WALL
100
AcDbLine
370
50
 10
42.1500
 20
18
 30
0
 11
42.1500
 21
20.4000
 31
0
  0
LINE
  5
3B6
100
AcDbEntity
  8
WALL
100
AcDbLine
370
50
 10
41.8500
 20
21.6000
 30
0
 11
41.8500
 21
24
 31
0
  0
LINE
  5
3B7
100
AcDbEntity
  8
WALL
100
AcDbLine
370
50
 10
42.1500
 20
21.6000
 30
0
 11
42.1500
 21
24
 31
0
  0
LINE
  5
3B8
100
AcDbEntity
  8
WALL
100
AcDbLine
370
50
 10
41.8500
 20
20.4000
 30
0
 11
42.1500
 21
20.4000
 31
0
  0
LINE
  5
3B9
100
AcDbEntity
  8
WALL
100
AcDbLine
370
50
 10
41.8500
 20
21.6000
 30
0
 11
42.1500
 21
21.6000
 31
0
  0
LINE
  5
3BA
100
AcDbEntity
  8
WALL
100
AcDbLine
370
50
 10
71.8500
 20
18
 30
0
 11
71.8500
 21
20.4000
 31
0
  0
LINE
  5
3BB
100
AcDbEntity
  8
WALL
100
AcDbLine
370
50
 10
72.1500
 20
18
 30
0
 11
72.1500
 21
20.4000
 31
0
  0
LINE
  5
3BC
100
AcDbEntity
  8
WALL
100
AcDbLine
370
50
 10
71.8500
 20
21.6000
 30
0
 11
71.8500
 21
24
 31
0
  0
LINE
  5
3BD
100
AcDbEntity
  8
WALL
100
AcDbLine
370
50
 10
72.1500
 20
21.6000
 30
0
 11
72.1500
 21
24
 31
0
  0
LINE
  5
3BE
100
AcDbEntity
  8
WALL
100
AcDbLine
370
50
 10
71.8500
 20
20.4000
 30
0
 11
72.1500
 21
20.4000
 31
0
  0
LINE
  5
3BF
100
AcDbEntity
  8
WALL
100
AcDbLine
370
50
 10
71.8500
 20
21.6000
 30
0
 11
72.1500
 21
21.6000
 31
0
  0
LINE
  5
3C0
100
AcDbEntity
  8
WALL
100
AcDbLine
370
50
 10
41.8500
 20
24
 30
0
 11
41.8500
 21
26.4000
 31
0
  0
LINE
  5
3C1
100
AcDbEntity
  8
WALL
100
AcDbLine
370
50
 10
42.1500
 20
24
 30
0
 11
42.1500
 21
26.4000
 31
0
  0
LINE
  5
3C2
100
AcDbEntity
  8
WALL
100
AcDbLine
370
50
 10
41.8500
 20
27.6000
 30
0
 11
41.8500
 21
30
 31
0
  0
LINE
  5
3C3
100
AcDbEntity
  8
WALL
100
AcDbLine
370
50
 10
42.1500
 20
27.6000
 30
0
 11
42.1500
 21
30
 31
0
  0
LINE
  5
3C4
100
AcDbEntity
  8
WALL
100
AcDbLine
370
50
 10
41.8500
 20
26.4000
 30
0
 11
42.1500
 21
26.4000
 31
0
  0
LINE
  5
3C5
100
AcDbEntity
  8
WALL
100
AcDbLine
370
50
 10
41.8500
 20
27.6000
 30
0
 11
42.1500
 21
27.6000
 31
0
  0
LINE
  5
3C6
100
AcDbEntity
  8
WALL
100
AcDbLine
370
50
 10
71.8500
 20
24
 30
0
 11
71.8500
 21
26.4000
 31
0
  0
LINE
  5
3C7
100
AcDbEntity
  8
WALL
100
AcDbLine
370
50
 10
72.1500
 20
24
 30
0
 11
72.1500
 21
26.4000
 31
0
  0
LINE
  5
3C8
100
AcDbEntity
  8
WALL
100
AcDbLine
370
50
 10
71.8500
 20
27.6000
 30
0
 11
71.8500
 21
30
 31
0
  0
LINE
  5
3C9
100
AcDbEntity
  8
WALL
100
AcDbLine
370
50
 10
72.1500
 20
27.6000
 30
0
 11
72.1500
 21
30
 31
0
  0
LINE
  5
3CA
100
AcDbEntity
  8
WALL
100
AcDbLine
370
50
 10
71.8500
 20
26.4000
 30
0
 11
72.1500
 21
26.4000
 31
0
  0
LINE
  5
3CB
100
AcDbEntity
  8
WALL
100
AcDbLine
370
50
 10
71.8500
 20
27.6000
 30
0
 11
72.1500
 21
27.6000
 31
0
  0
LINE
  5
3CC
100
AcDbEntity
  8
WALL
100
AcDbLine
370
50
 10
47.9250
 20
0
 30
0
 11
47.9250
 21
6
 31
0
  0
LINE
  5
3CD
100
AcDbEntity
  8
WALL
100
AcDbLine
370
50
 10
48.0750
 20
0
 30
0
 11
48.0750
 21
6
 31
0
  0
LINE
  5
3CE
100
AcDbEntity
  8
WALL
100
AcDbLine
370
50
 10
47.9250
 20
6
 30
0
 11
47.9250
 21
8.5500
 31
0
  0
LINE
  5
3CF
100
AcDbEntity
  8
WALL
100
AcDbLine
370
50
 10
48.0750
 20
6
 30
0
 11
48.0750
 21
8.5500
 31
0
  0
LINE
  5
3D0
100
AcDbEntity
  8
WALL
100
AcDbLine
370
50
 10
47.9250
 20
9.4500
 30
0
 11
47.9250
 21
12
 31
0
  0
LINE
  5
3D1
100
AcDbEntity
  8
WALL
100
AcDbLine
370
50
 10
48.0750
 20
9.4500
 30
0
 11
48.0750
 21
12
 31
0
  0
LINE
  5
3D2
100
AcDbEntity
  8
WALL
100
AcDbLine
370
50
 10
47.9250
 20
8.5500
 30
0
 11
48.0750
 21
8.5500
 31
0
  0
LINE
  5
3D3
100
AcDbEntity
  8
WALL
100
AcDbLine
370
50
 10
47.9250
 20
9.4500
 30
0
 11
48.0750
 21
9.4500
 31
0
  0
LINE
  5
3D4
100
AcDbEntity
  8
WALL
100
AcDbLine
370
50
 10
47.9250
 20
12
 30
0
 11
47.9250
 21
14.5500
 31
0
  0
LINE
  5
3D5
100
AcDbEntity
  8
WALL
100
AcDbLine
370
50
 10
48.0750
 20
12
 30
0
 11
48.0750
 21
14.5500
 31
0
  0
LINE
  5
3D6
100
AcDbEntity
  8
WALL
100
AcDbLine
370
50
 10
47.9250
 20
15.4500
 30
0
 11
47.9250
 21
18
 31
0
  0
LINE
  5
3D7
100
AcDbEntity
  8
WALL
100
AcDbLine
370
50
 10
48.0750
 20
15.4500
 30
0
 11
48.0750
 21
18
 31
0
  0
LINE
  5
3D8
100
AcDbEntity
  8
WALL
100
AcDbLine
370
50
 10
47.9250
 20
14.5500
 30
0
 11
48.0750
 21
14.5500
 31
0
  0
LINE
  5
3D9
100
AcDbEntity
  8
WALL
100
AcDbLine
370
50
 10
47.9250
 20
15.4500
 30
0
 11
48.0750
 21
15.4500
 31
0
  0
LINE
  5
3DA
100
AcDbEntity
  8
WALL
100
AcDbLine
370
50
 10
47.9250
 20
18
 30
0
 11
47.9250
 21
20.5500
 31
0
  0
LINE
  5
3DB
100
AcDbEntity
  8
WALL
100
AcDbLine
370
50
 10
48.0750
 20
18
 30
0
 11
48.0750
 21
20.5500
 31
0
  0
LINE
  5
3DC
100
AcDbEntity
  8
WALL
100
AcDbLine
370
50
 10
47.9250
 20
21.4500
 30
0
 11
47.9250
 21
24
 31
0
  0
LINE
  5
3DD
100
AcDbEntity
  8
WALL
100
AcDbLine
370
50
 10
48.0750
 20
21.4500
 30
0
 11
48.0750
 21
24
 31
0
  0
LINE
  5
3DE
100
AcDbEntity
  8
WALL
100
AcDbLine
370
50
 10
47.9250
 20
20.5500
 30
0
 11
48.0750
 21
20.5500
 31
0
  0
LINE
  5
3DF
100
AcDbEntity
  8
WALL
100
AcDbLine
370
50
 10
47.9250
 20
21.4500
 30
0
 11
48.0750
 21
21.4500
 31
0
  0
LINE
  5
3E0
100
AcDbEntity
  8
WALL
100
AcDbLine
370
50
 10
47.9250
 20
24
 30
0
 11
47.9250
 21
26.5500
 31
0
  0
LINE
  5
3E1
100
AcDbEntity
  8
WALL
100
AcDbLine
370
50
 10
48.0750
 20
24
 30
0
 11
48.0750
 21
26.5500
 31
0
  0
LINE
  5
3E2
100
AcDbEntity
  8
WALL
100
AcDbLine
370
50
 10
47.9250
 20
27.4500
 30
0
 11
47.9250
 21
30
 31
0
  0
LINE
  5
3E3
100
AcDbEntity
  8
WALL
100
AcDbLine
370
50
 10
48.0750
 20
27.4500
 30
0
 11
48.0750
 21
30
 31
0
  0
LINE
  5
3E4
100
AcDbEntity
  8
WALL
100
AcDbLine
370
50
 10
47.9250
 20
26.5500
 30
0
 11
48.0750
 21
26.5500
 31
0
  0
LINE
  5
3E5
100
AcDbEntity
  8
WALL
100
AcDbLine
370
50
 10
47.9250
 20
27.4500
 30
0
 11
48.0750
 21
27.4500
 31
0
  0
LINE
  5
3E6
100
AcDbEntity
  8
WALL
100
AcDbLine
370
50
 10
53.9250
 20
0
 30
0
 11
53.9250
 21
2.5500
 31
0
  0
LINE
  5
3E7
100
AcDbEntity
  8
WALL
100
AcDbLine
370
50
 10
54.0750
 20
0
 30
0
 11
54.0750
 21
2.5500
 31
0
  0
LINE
  5
3E8
100
AcDbEntity
  8
WALL
100
AcDbLine
370
50
 10
53.9250
 20
3.4500
 30
0
 11
53.9250
 21
6
 31
0
  0
LINE
  5
3E9
100
AcDbEntity
  8
WALL
100
AcDbLine
370
50
 10
54.0750
 20
3.4500
 30
0
 11
54.0750
 21
6
 31
0
  0
LINE
  5
3EA
100
AcDbEntity
  8
WALL
100
AcDbLine
370
50
 10
53.9250
 20
2.5500
 30
0
 11
54.0750
 21
2.5500
 31
0
  0
LINE
  5
3EB
100
AcDbEntity
  8
WALL
100
AcDbLine
370
50
 10
53.9250
 20
3.4500
 30
0
 11
54.0750
 21
3.4500
 31
0
  0
LINE
  5
3EC
100
AcDbEntity
  8
WALL
100
AcDbLine
370
50
 10
53.9250
 20
6
 30
0
 11
53.9250
 21
8.5500
 31
0
  0
LINE
  5
3ED
100
AcDbEntity
  8
WALL
100
AcDbLine
370
50
 10
54.0750
 20
6
 30
0
 11
54.0750
 21
8.5500
 31
0
  0
LINE
  5
3EE
100
AcDbEntity
  8
WALL
100
AcDbLine
370
50
 10
53.9250
 20
9.4500
 30
0
 11
53.9250
 21
12
 31
0
  0
LINE
  5
3EF
100
AcDbEntity
  8
WALL
100
AcDbLine
370
50
 10
54.0750
 20
9.4500
 30
0
 11
54.0750
 21
12
 31
0
  0
LINE
  5
3F0
100
AcDbEntity
  8
WALL
100
AcDbLine
370
50
 10
53.9250
 20
8.5500
 30
0
 11
54.0750
 21
8.5500
 31
0
  0
LINE
  5
3F1
100
AcDbEntity
  8
WALL
100
AcDbLine
370
50
 10
53.9250
 20
9.4500
 30
0
 11
54.0750
 21
9.4500
 31
0
  0
LINE
  5
3F2
100
AcDbEntity
  8
WALL
100
AcDbLine
370
50
 10
53.9250
 20
12
 30
0
 11
53.9250
 21
18
 31
0
  0
LINE
  5
3F3
100
AcDbEntity
  8
WALL
100
AcDbLine
370
50
 10
54.0750
 20
12
 30
0
 11
54.0750
 21
18
 31
0
  0
LINE
  5
3F4
100
AcDbEntity
  8
WALL
100
AcDbLine
370
50
 10
53.9250
 20
18
 30
0
 11
53.9250
 21
20.5500
 31
0
  0
LINE
  5
3F5
100
AcDbEntity
  8
WALL
100
AcDbLine
370
50
 10
54.0750
 20
18
 30
0
 11
54.0750
 21
20.5500
 31
0
  0
LINE
  5
3F6
100
AcDbEntity
  8
WALL
100
AcDbLine
370
50
 10
53.9250
 20
21.4500
 30
0
 11
53.9250
 21
24
 31
0
  0
LINE
  5
3F7
100
AcDbEntity
  8
WALL
100
AcDbLine
370
50
 10
54.0750
 20
21.4500
 30
0
 11
54.0750
 21
24
 31
0
  0
LINE
  5
3F8
100
AcDbEntity
  8
WALL
100
AcDbLine
370
50
 10
53.9250
 20
20.5500
 30
0
 11
54.0750
 21
20.5500
 31
0
  0
LINE
  5
3F9
100
AcDbEntity
  8
WALL
100
AcDbLine
370
50
 10
53.9250
 20
21.4500
 30
0
 11
54.0750
 21
21.4500
 31
0
  0
LINE
  5
3FA
100
AcDbEntity
  8
WALL
100
AcDbLine
370
50
 10
53.9250
 20
24
 30
0
 11
53.9250
 21
26.5500
 31
0
  0
LINE
  5
3FB
100
AcDbEntity
  8
WALL
100
AcDbLine
370
50
 10
54.0750
 20
24
 30
0
 11
54.0750
 21
26.5500
 31
0
  0
LINE
  5
3FC
100
AcDbEntity
  8
WALL
100
AcDbLine
370
50
 10
53.9250
 20
27.4500
 30
0
 11
53.9250
 21
30
 31
0
  0
LINE
  5
3FD
100
AcDbEntity
  8
WALL
100
AcDbLine
370
50
 10
54.0750
 20
27.4500
 30
0
 11
54.0750
 21
30
 31
0
  0
LINE
  5
3FE
100
AcDbEntity
  8
WALL
100
AcDbLine
370
50
 10
53.9250
 20
26.5500
 30
0
 11
54.0750
 21
26.5500
 31
0
  0
LINE
  5
3FF
100
AcDbEntity
  8
WALL
100
AcDbLine
370
50
 10
53.9250
 20
27.4500
 30
0
 11
54.0750
 21
27.4500
 31
0
  0
LINE
  5
400
100
AcDbEntity
  8
WALL
100
AcDbLine
370
50
 10
59.9250
 20
0
 30
0
 11
59.9250
 21
2.5500
 31
0
  0
LINE
  5
401
100
AcDbEntity
  8
WALL
100
AcDbLine
370
50
 10
60.0750
 20
0
 30
0
 11
60.0750
 21
2.5500
 31
0
  0
LINE
  5
402
100
AcDbEntity
  8
WALL
100
AcDbLine
370
50
 10
59.9250
 20
3.4500
 30
0
 11
59.9250
 21
6
 31
0
  0
LINE
  5
403
100
AcDbEntity
  8
WALL
100
AcDbLine
370
50
 10
60.0750
 20
3.4500
 30
0
 11
60.0750
 21
6
 31
0
  0
LINE
  5
404
100
AcDbEntity
  8
WALL
100
AcDbLine
370
50
 10
59.9250
 20
2.5500
 30
0
 11
60.0750
 21
2.5500
 31
0
  0
LINE
  5
405
100
AcDbEntity
  8
WALL
100
AcDbLine
370
50
 10
59.9250
 20
3.4500
 30
0
 11
60.0750
 21
3.4500
 31
0
  0
LINE
  5
406
100
AcDbEntity
  8
WALL
100
AcDbLine
370
50
 10
59.9250
 20
6
 30
0
 11
59.9250
 21
8.5500
 31
0
  0
LINE
  5
407
100
AcDbEntity
  8
WALL
100
AcDbLine
370
50
 10
60.0750
 20
6
 30
0
 11
60.0750
 21
8.5500
 31
0
  0
LINE
  5
408
100
AcDbEntity
  8
WALL
100
AcDbLine
370
50
 10
59.9250
 20
9.4500
 30
0
 11
59.9250
 21
12
 31
0
  0
LINE
  5
409
100
AcDbEntity
  8
WALL
100
AcDbLine
370
50
 10
60.0750
 20
9.4500
 30
0
 11
60.0750
 21
12
 31
0
  0
LINE
  5
40A
100
AcDbEntity
  8
WALL
100
AcDbLine
370
50
 10
59.9250
 20
8.5500
 30
0
 11
60.0750
 21
8.5500
 31
0
  0
LINE
  5
40B
100
AcDbEntity
  8
WALL
100
AcDbLine
370
50
 10
59.9250
 20
9.4500
 30
0
 11
60.0750
 21
9.4500
 31
0
  0
LINE
  5
40C
100
AcDbEntity
  8
WALL
100
AcDbLine
370
50
 10
59.9250
 20
12
 30
0
 11
59.9250
 21
14.5500
 31
0
  0
LINE
  5
40D
100
AcDbEntity
  8
WALL
100
AcDbLine
370
50
 10
60.0750
 20
12
 30
0
 11
60.0750
 21
14.5500
 31
0
  0
LINE
  5
40E
100
AcDbEntity
  8
WALL
100
AcDbLine
370
50
 10
59.9250
 20
15.4500
 30
0
 11
59.9250
 21
18
 31
0
  0
LINE
  5
40F
100
AcDbEntity
  8
WALL
100
AcDbLine
370
50
 10
60.0750
 20
15.4500
 30
0
 11
60.0750
 21
18
 31
0
  0
LINE
  5
410
100
AcDbEntity
  8
WALL
100
AcDbLine
370
50
 10
59.9250
 20
14.5500
 30
0
 11
60.0750
 21
14.5500
 31
0
  0
LINE
  5
411
100
AcDbEntity
  8
WALL
100
AcDbLine
370
50
 10
59.9250
 20
15.4500
 30
0
 11
60.0750
 21
15.4500
 31
0
  0
LINE
  5
412
100
AcDbEntity
  8
WALL
100
AcDbLine
370
50
 10
59.9250
 20
18
 30
0
 11
59.9250
 21
20.5500
 31
0
  0
LINE
  5
413
100
AcDbEntity
  8
WALL
100
AcDbLine
370
50
 10
60.0750
 20
18
 30
0
 11
60.0750
 21
20.5500
 31
0
  0
LINE
  5
414
100
AcDbEntity
  8
WALL
100
AcDbLine
370
50
 10
59.9250
 20
21.4500
 30
0
 11
59.9250
 21
24
 31
0
  0
LINE
  5
415
100
AcDbEntity
  8
WALL
100
AcDbLine
370
50
 10
60.0750
 20
21.4500
 30
0
 11
60.0750
 21
24
 31
0
  0
LINE
  5
416
100
AcDbEntity
  8
WALL
100
AcDbLine
370
50
 10
59.9250
 20
20.5500
 30
0
 11
60.0750
 21
20.5500
 31
0
  0
LINE
  5
417
100
AcDbEntity
  8
WALL
100
AcDbLine
370
50
 10
59.9250
 20
21.4500
 30
0
 11
60.0750
 21
21.4500
 31
0
  0
LINE
  5
418
100
AcDbEntity
  8
WALL
100
AcDbLine
370
50
 10
59.9250
 20
24
 30
0
 11
59.9250
 21
26.5500
 31
0
  0
LINE
  5
419
100
AcDbEntity
  8
WALL
100
AcDbLine
370
50
 10
60.0750
 20
24
 30
0
 11
60.0750
 21
26.5500
 31
0
  0
LINE
  5
41A
100
AcDbEntity
  8
WALL
100
AcDbLine
370
50
 10
59.9250
 20
27.4500
 30
0
 11
59.9250
 21
30
 31
0
  0
LINE
  5
41B
100
AcDbEntity
  8
WALL
100
AcDbLine
370
50
 10
60.0750
 20
27.4500
 30
0
 11
60.0750
 21
30
 31
0
  0
LINE
  5
41C
100
AcDbEntity
  8
WALL
100
AcDbLine
370
50
 10
59.9250
 20
26.5500
 30
0
 11
60.0750
 21
26.5500
 31
0
  0
LINE
  5
41D
100
AcDbEntity
  8
WALL
100
AcDbLine
370
50
 10
59.9250
 20
27.4500
 30
0
 11
60.0750
 21
27.4500
 31
0
  0
LINE
  5
41E
100
AcDbEntity
  8
WALL
100
AcDbLine
370
50
 10
65.9250
 20
0
 30
0
 11
65.9250
 21
2.5500
 31
0
  0
LINE
  5
41F
100
AcDbEntity
  8
WALL
100
AcDbLine
370
50
 10
66.0750
 20
0
 30
0
 11
66.0750
 21
2.5500
 31
0
  0
LINE
  5
420
100
AcDbEntity
  8
WALL
100
AcDbLine
370
50
 10
65.9250
 20
3.4500
 30
0
 11
65.9250
 21
6
 31
0
  0
LINE
  5
421
100
AcDbEntity
  8
WALL
100
AcDbLine
370
50
 10
66.0750
 20
3.4500
 30
0
 11
66.0750
 21
6
 31
0
  0
LINE
  5
422
100
AcDbEntity
  8
WALL
100
AcDbLine
370
50
 10
65.9250
 20
2.5500
 30
0
 11
66.0750
 21
2.5500
 31
0
  0
LINE
  5
423
100
AcDbEntity
  8
WALL
100
AcDbLine
370
50
 10
65.9250
 20
3.4500
 30
0
 11
66.0750
 21
3.4500
 31
0
  0
LINE
  5
424
100
AcDbEntity
  8
WALL
100
AcDbLine
370
50
 10
65.9250
 20
6
 30
0
 11
65.9250
 21
8.5500
 31
0
  0
LINE
  5
425
100
AcDbEntity
  8
WALL
100
AcDbLine
370
50
 10
66.0750
 20
6
 30
0
 11
66.0750
 21
8.5500
 31
0
  0
LINE
  5
426
100
AcDbEntity
  8
WALL
100
AcDbLine
370
50
 10
65.9250
 20
9.4500
 30
0
 11
65.9250
 21
12
 31
0
  0
LINE
  5
427
100
AcDbEntity
  8
WALL
100
AcDbLine
370
50
 10
66.0750
 20
9.4500
 30
0
 11
66.0750
 21
12
 31
0
  0
LINE
  5
428
100
AcDbEntity
  8
WALL
100
AcDbLine
370
50
 10
65.9250
 20
8.5500
 30
0
 11
66.0750
 21
8.5500
 31
0
  0
LINE
  5
429
100
AcDbEntity
  8
WALL
100
AcDbLine
370
50
 10
65.9250
 20
9.4500
 30
0
 11
66.0750
 21
9.4500
 31
0
  0
LINE
  5
42A
100
AcDbEntity
  8
WALL
100
AcDbLine
370
50
 10
65.9250
 20
12
 30
0
 11
65.9250
 21
14.5500
 31
0
  0
LINE
  5
42B
100
AcDbEntity
  8
WALL
100
AcDbLine
370
50
 10
66.0750
 20
12
 30
0
 11
66.0750
 21
14.5500
 31
0
  0
LINE
  5
42C
100
AcDbEntity
  8
WALL
100
AcDbLine
370
50
 10
65.9250
 20
15.4500
 30
0
 11
65.9250
 21
18
 31
0
  0
LINE
  5
42D
100
AcDbEntity
  8
WALL
100
AcDbLine
370
50
 10
66.0750
 20
15.4500
 30
0
 11
66.0750
 21
18
 31
0
  0
LINE
  5
42E
100
AcDbEntity
  8
WALL
100
AcDbLine
370
50
 10
65.9250
 20
14.5500
 30
0
 11
66.0750
 21
14.5500
 31
0
  0
LINE
  5
42F
100
AcDbEntity
  8
WALL
100
AcDbLine
370
50
 10
65.9250
 20
15.4500
 30
0
 11
66.0750
 21
15.4500
 31
0
  0
LINE
  5
430
100
AcDbEntity
  8
WALL
100
AcDbLine
370
50
 10
65.9250
 20
18
 30
0
 11
65.9250
 21
20.5500
 31
0
  0
LINE
  5
431
100
AcDbEntity
  8
WALL
100
AcDbLine
370
50
 10
66.0750
 20
18
 30
0
 11
66.0750
 21
20.5500
 31
0
  0
LINE
  5
432
100
AcDbEntity
  8
WALL
100
AcDbLine
370
50
 10
65.9250
 20
21.4500
 30
0
 11
65.9250
 21
24
 31
0
  0
LINE
  5
433
100
AcDbEntity
  8
WALL
100
AcDbLine
370
50
 10
66.0750
 20
21.4500
 30
0
 11
66.0750
 21
24
 31
0
  0
LINE
  5
434
100
AcDbEntity
  8
WALL
100
AcDbLine
370
50
 10
65.9250
 20
20.5500
 30
0
 11
66.0750
 21
20.5500
 31
0
  0
LINE
  5
435
100
AcDbEntity
  8
WALL
100
AcDbLine
370
50
 10
65.9250
 20
21.4500
 30
0
 11
66.0750
 21
21.4500
 31
0
  0
LINE
  5
436
100
AcDbEntity
  8
WALL
100
AcDbLine
370
50
 10
65.9250
 20
24
 30
0
 11
65.9250
 21
30
 31
0
  0
LINE
  5
437
100
AcDbEntity
  8
WALL
100
AcDbLine
370
50
 10
66.0750
 20
24
 30
0
 11
66.0750
 21
30
 31
0
  0
LINE
  5
438
100
AcDbEntity
  8
WALL
100
AcDbLine
370
50
 10
42
 20
5.9250
 30
0
 11
44.5500
 21
5.9250
 31
0
  0
LINE
  5
439
100
AcDbEntity
  8
WALL
100
AcDbLine
370
50
 10
42
 20
6.0750
 30
0
 11
44.5500
 21
6.0750
 31
0
  0
LINE
  5
43A
100
AcDbEntity
  8
WALL
100
AcDbLine
370
50
 10
45.4500
 20
5.9250
 30
0
 11
48
 21
5.9250
 31
0
  0
LINE
  5
43B
100
AcDbEntity
  8
WALL
100
AcDbLine
370
50
 10
45.4500
 20
6.0750
 30
0
 11
48
 21
6.0750
 31
0
  0
LINE
  5
43C
100
AcDbEntity
  8
WALL
100
AcDbLine
370
50
 10
44.5500
 20
5.9250
 30
0
 11
44.5500
 21
6.0750
 31
0
  0
LINE
  5
43D
100
AcDbEntity
  8
WALL
100
AcDbLine
370
50
 10
45.4500
 20
5.9250
 30
0
 11
45.4500
 21
6.0750
 31
0
  0
LINE
  5
43E
100
AcDbEntity
  8
WALL
100
AcDbLine
370
50
 10
48
 20
5.9250
 30
0
 11
50.5500
 21
5.9250
 31
0
  0
LINE
  5
43F
100
AcDbEntity
  8
WALL
100
AcDbLine
370
50
 10
48
 20
6.0750
 30
0
 11
50.5500
 21
6.0750
 31
0
  0
LINE
  5
440
100
AcDbEntity
  8
WALL
100
AcDbLine
370
50
 10
51.4500
 20
5.9250
 30
0
 11
54
 21
5.9250
 31
0
  0
LINE
  5
441
100
AcDbEntity
  8
WALL
100
AcDbLine
370
50
 10
51.4500
 20
6.0750
 30
0
 11
54
 21
6.0750
 31
0
  0
LINE
  5
442
100
AcDbEntity
  8
WALL
100
AcDbLine
370
50
 10
50.5500
 20
5.9250
 30
0
 11
50.5500
 21
6.0750
 31
0
  0
LINE
  5
443
100
AcDbEntity
  8
WALL
100
AcDbLine
370
50
 10
51.4500
 20
5.9250
 30
0
 11
51.4500
 21
6.0750
 31
0
  0
LINE
  5
444
100
AcDbEntity
  8
WALL
100
AcDbLine
370
50
 10
54
 20
5.9250
 30
0
 11
56.5500
 21
5.9250
 31
0
  0
LINE
  5
445
100
AcDbEntity
  8
WALL
100
AcDbLine
370
50
 10
54
 20
6.0750
 30
0
 11
56.5500
 21
6.0750
 31
0
  0
LINE
  5
446
100
AcDbEntity
  8
WALL
100
AcDbLine
370
50
 10
57.4500
 20
5.9250
 30
0
 11
60
 21
5.9250
 31
0
  0
LINE
  5
447
100
AcDbEntity
  8
WALL
100
AcDbLine
370
50
 10
57.4500
 20
6.0750
 30
0
 11
60
 21
6.0750
 31
0
  0
LINE
  5
448
100
AcDbEntity
  8
WALL
100
AcDbLine
370
50
 10
56.5500
 20
5.9250
 30
0
 11
56.5500
 21
6.0750
 31
0
  0
LINE
  5
449
100
AcDbEntity
  8
WALL
100
AcDbLine
370
50
 10
57.4500
 20
5.9250
 30
0
 11
57.4500
 21
6.0750
 31
0
  0
LINE
  5
44A
100
AcDbEntity
  8
WALL
100
AcDbLine
370
50
 10
60
 20
5.9250
 30
0
 11
62.5500
 21
5.9250
 31
0
  0
LINE
  5
44B
100
AcDbEntity
  8
WALL
100
AcDbLine
370
50
 10
60
 20
6.0750
 30
0
 11
62.5500
 21
6.0750
 31
0
  0
LINE
  5
44C
100
AcDbEntity
  8
WALL
100
AcDbLine
370
50
 10
63.4500
 20
5.9250
 30
0
 11
66
 21
5.9250
 31
0
  0
LINE
  5
44D
100
AcDbEntity
  8
WALL
100
AcDbLine
370
50
 10
63.4500
 20
6.0750
 30
0
 11
66
 21
6.0750
 31
0
  0
LINE
  5
44E
100
AcDbEntity
  8
WALL
100
AcDbLine
370
50
 10
62.5500
 20
5.9250
 30
0
 11
62.5500
 21
6.0750
 31
0
  0
LINE
  5
44F
100
AcDbEntity
  8
WALL
100
AcDbLine
370
50
 10
63.4500
 20
5.9250
 30
0
 11
63.4500
 21
6.0750
 31
0
  0
LINE
  5
450
100
AcDbEntity
  8
WALL
100
AcDbLine
370
50
 10
66
 20
5.9250
 30
0
 11
72
 21
5.9250
 31
0
  0
LINE
  5
451
100
AcDbEntity
  8
WALL
100
AcDbLine
370
50
 10
66
 20
6.0750
 30
0
 11
72
 21
6.0750
 31
0
  0
LINE
  5
452
100
AcDbEntity
  8
WALL
100
AcDbLine
370
50
 10
42
 20
11.9250
 30
0
 11
44.5500
 21
11.9250
 31
0
  0
LINE
  5
453
100
AcDbEntity
  8
WALL
100
AcDbLine
370
50
 10
42
 20
12.0750
 30
0
 11
44.5500
 21
12.0750
 31
0
  0
LINE
  5
454
100
AcDbEntity
  8
WALL
100
AcDbLine
370
50
 10
45.4500
 20
11.9250
 30
0
 11
48
 21
11.9250
 31
0
  0
LINE
  5
455
100
AcDbEntity
  8
WALL
100
AcDbLine
370
50
 10
45.4500
 20
12.0750
 30
0
 11
48
 21
12.0750
 31
0
  0
LINE
  5
456
100
AcDbEntity
  8
WALL
100
AcDbLine
370
50
 10
44.5500
 20
11.9250
 30
0
 11
44.5500
 21
12.0750
 31
0
  0
LINE
  5
457
100
AcDbEntity
  8
WALL
100
AcDbLine
370
50
 10
45.4500
 20
11.9250
 30
0
 11
45.4500
 21
12.0750
 31
0
  0
LINE
  5
458
100
AcDbEntity
  8
WALL
100
AcDbLine
370
50
 10
48
 20
11.9250
 30
0
 11
50.5500
 21
11.9250
 31
0
  0
LINE
  5
459
100
AcDbEntity
  8
WALL
100
AcDbLine
370
50
 10
48
 20
12.0750
 30
0
 11
50.5500
 21
12.0750
 31
0
  0
LINE
  5
45A
100
AcDbEntity
  8
WALL
100
AcDbLine
370
50
 10
51.4500
 20
11.9250
 30
0
 11
54
 21
11.9250
 31
0
  0
LINE
  5
45B
100
AcDbEntity
  8
WALL
100
AcDbLine
370
50
 10
51.4500
 20
12.0750
 30
0
 11
54
 21
12.0750
 31
0
  0
LINE
  5
45C
100
AcDbEntity
  8
WALL
100
AcDbLine
370
50
 10
50.5500
 20
11.9250
 30
0
 11
50.5500
 21
12.0750
 31
0
  0
LINE
  5
45D
100
AcDbEntity
  8
WALL
100
AcDbLine
370
50
 10
51.4500
 20
11.9250
 30
0
 11
51.4500
 21
12.0750
 31
0
  0
LINE
  5
45E
100
AcDbEntity
  8
WALL
100
AcDbLine
370
50
 10
54
 20
11.9250
 30
0
 11
56.5500
 21
11.9250
 31
0
  0
LINE
  5
45F
100
AcDbEntity
  8
WALL
100
AcDbLine
370
50
 10
54
 20
12.0750
 30
0
 11
56.5500
 21
12.0750
 31
0
  0
LINE
  5
460
100
AcDbEntity
  8
WALL
100
AcDbLine
370
50
 10
57.4500
 20
11.9250
 30
0
 11
60
 21
11.9250
 31
0
  0
LINE
  5
461
100
AcDbEntity
  8
WALL
100
AcDbLine
370
50
 10
57.4500
 20
12.0750
 30
0
 11
60
 21
12.0750
 31
0
  0
LINE
  5
462
100
AcDbEntity
  8
WALL
100
AcDbLine
370
50
 10
56.5500
 20
11.9250
 30
0
 11
56.5500
 21
12.0750
 31
0
  0
LINE
  5
463
100
AcDbEntity
  8
WALL
100
AcDbLine
370
50
 10
57.4500
 20
11.9250
 30
0
 11
57.4500
 21
12.0750
 31
0
  0
LINE
  5
464
100
AcDbEntity
  8
WALL
100
AcDbLine
370
50
 10
60
 20
11.9250
 30
0
 11
62.5500
 21
11.9250
 31
0
  0
LINE
  5
465
100
AcDbEntity
  8
WALL
100
AcDbLine
370
50
 10
60
 20
12.0750
 30
0
 11
62.5500
 21
12.0750
 31
0
  0
LINE
  5
466
100
AcDbEntity
  8
WALL
100
AcDbLine
370
50
 10
63.4500
 20
11.9250
 30
0
 11
66
 21
11.9250
 31
0
  0
LINE
  5
467
100
AcDbEntity
  8
WALL
100
AcDbLine
370
50
 10
63.4500
 20
12.0750
 30
0
 11
66
 21
12.0750
 31
0
  0
LINE
  5
468
100
AcDbEntity
  8
WALL
100
AcDbLine
370
50
 10
62.5500
 20
11.9250
 30
0
 11
62.5500
 21
12.0750
 31
0
  0
LINE
  5
469
100
AcDbEntity
  8
WALL
100
AcDbLine
370
50
 10
63.4500
 20
11.9250
 30
0
 11
63.4500
 21
12.0750
 31
0
  0
LINE
  5
46A
100
AcDbEntity
  8
WALL
100
AcDbLine
370
50
 10
66
 20
11.9250
 30
0
 11
68.5500
 21
11.9250
 31
0
  0
LINE
  5
46B
100
AcDbEntity
  8
WALL
100
AcDbLine
370
50
 10
66
 20
12.0750
 30
0
 11
68.5500
 21
12.0750
 31
0
  0
LINE
  5
46C
100
AcDbEntity
  8
WALL
100
AcDbLine
370
50
 10
69.4500
 20
11.9250
 30
0
 11
72
 21
11.9250
 31
0
  0
LINE
  5
46D
100
AcDbEntity
  8
WALL
100
AcDbLine
370
50
 10
69.4500
 20
12.0750
 30
0
 11
72
 21
12.0750
 31
0
  0
LINE
  5
46E
100
AcDbEntity
  8
WALL
100
AcDbLine
370
50
 10
68.5500
 20
11.9250
 30
0
 11
68.5500
 21
12.0750
 31
0
  0
LINE
  5
46F
100
AcDbEntity
  8
WALL
100
AcDbLine
370
50
 10
69.4500
 20
11.9250
 30
0
 11
69.4500
 21
12.0750
 31
0
  0
LINE
  5
470
100
AcDbEntity
  8
WALL
100
AcDbLine
370
50
 10
42
 20
17.9250
 30
0
 11
44.5500
 21
17.9250
 31
0
  0
LINE
  5
471
100
AcDbEntity
  8
WALL
100
AcDbLine
370
50
 10
42
 20
18.0750
 30
0
 11
44.5500
 21
18.0750
 31
0
  0
LINE
  5
472
100
AcDbEntity
  8
WALL
100
AcDbLine
370
50
 10
45.4500
 20
17.9250
 30
0
 11
48
 21
17.9250
 31
0
  0
LINE
  5
473
100
AcDbEntity
  8
WALL
100
AcDbLine
370
50
 10
45.4500
 20
18.0750
 30
0
 11
48
 21
18.0750
 31
0
  0
LINE
  5
474
100
AcDbEntity
  8
WALL
100
AcDbLine
370
50
 10
44.5500
 20
17.9250
 30
0
 11
44.5500
 21
18.0750
 31
0
  0
LINE
  5
475
100
AcDbEntity
  8
WALL
100
AcDbLine
370
50
 10
45.4500
 20
17.9250
 30
0
 11
45.4500
 21
18.0750
 31
0
  0
LINE
  5
476
100
AcDbEntity
  8
WALL
100
AcDbLine
370
50
 10
48
 20
17.9250
 30
0
 11
50.5500
 21
17.9250
 31
0
  0
LINE
  5
477
100
AcDbEntity
  8
WALL
100
AcDbLine
370
50
 10
48
 20
18.0750
 30
0
 11
50.5500
 21
18.0750
 31
0
  0
LINE
  5
478
100
AcDbEntity
  8
WALL
100
AcDbLine
370
50
 10
51.4500
 20
17.9250
 30
0
 11
54
 21
17.9250
 31
0
  0
LINE
  5
479
100
AcDbEntity
  8
WALL
100
AcDbLine
370
50
 10
51.4500
 20
18.0750
 30
0
 11
54
 21
18.0750
 31
0
  0
LINE
  5
47A
100
AcDbEntity
  8
WALL
100
AcDbLine
370
50
 10
50.5500
 20
17.9250
 30
0
 11
50.5500
 21
18.0750
 31
0
  0
LINE
  5
47B
100
AcDbEntity
  8
WALL
100
AcDbLine
370
50
 10
51.4500
 20
17.9250
 30
0
 11
51.4500
 21
18.0750
 31
0
  0
LINE
  5
47C
100
AcDbEntity
  8
WALL
100
AcDbLine
370
50
 10
54
 20
17.9250
 30
0
 11
56.5500
 21
17.9250
 31
0
  0
LINE
  5
47D
100
AcDbEntity
  8
WALL
100
AcDbLine
370
50
 10
54
 20
18.0750
 30
0
 11
56.5500
 21
18.0750
 31
0
  0
LINE
  5
47E
100
AcDbEntity
  8
WALL
100
AcDbLine
370
50
 10
57.4500
 20
17.9250
 30
0
 11
60
 21
17.9250
 31
0
  0
LINE
  5
47F
100
AcDbEntity
  8
WALL
100
AcDbLine
370
50
 10
57.4500
 20
18.0750
 30
0
 11
60
 21
18.0750
 31
0
  0
LINE
  5
480
100
AcDbEntity
  8
WALL
100
AcDbLine
370
50
 10
56.5500
 20
17.9250
 30
0
 11
56.5500
 21
18.0750
 31
0
  0
LINE
  5
481
100
AcDbEntity
  8
WALL
100
AcDbLine
370
50
 10
57.4500
 20
17.9250
 30
0
 11
57.4500
 21
18.0750
 31
0
  0
LINE
  5
482
100
AcDbEntity
  8
WALL
100
AcDbLine
370
50
 10
60
 20
17.9250
 30
0
 11
62.5500
 21
17.9250
 31
0
  0
LINE
  5
483
100
AcDbEntity
  8
WALL
100
AcDbLine
370
50
 10
60
 20
18.0750
 30
0
 11
62.5500
 21
18.0750
 31
0
  0
LINE
  5
484
100
AcDbEntity
  8
WALL
100
AcDbLine
370
50
 10
63.4500
 20
17.9250
 30
0
 11
66
 21
17.9250
 31
0
  0
LINE
  5
485
100
AcDbEntity
  8
WALL
100
AcDbLine
370
50
 10
63.4500
 20
18.0750
 30
0
 11
66
 21
18.0750
 31
0
  0
LINE
  5
486
100
AcDbEntity
  8
WALL
100
AcDbLine
370
50
 10
62.5500
 20
17.9250
 30
0
 11
62.5500
 21
18.0750
 31
0
  0
LINE
  5
487
100
AcDbEntity
  8
WALL
100
AcDbLine
370
50
 10
63.4500
 20
17.9250
 30
0
 11
63.4500
 21
18.0750
 31
0
  0
LINE
  5
488
100
AcDbEntity
  8
WALL
100
AcDbLine
370
50
 10
66
 20
17.9250
 30
0
 11
68.5500
 21
17.9250
 31
0
  0
LINE
  5
489
100
AcDbEntity
  8
WALL
100
AcDbLine
370
50
 10
66
 20
18.0750
 30
0
 11
68.5500
 21
18.0750
 31
0
  0
LINE
  5
48A
100
AcDbEntity
  8
WALL
100
AcDbLine
370
50
 10
69.4500
 20
17.9250
 30
0
 11
72
 21
17.9250
 31
0
  0
LINE
  5
48B
100
AcDbEntity
  8
WALL
100
AcDbLine
370
50
 10
69.4500
 20
18.0750
 30
0
 11
72
 21
18.0750
 31
0
  0
LINE
  5
48C
100
AcDbEntity
  8
WALL
100
AcDbLine
370
50
 10
68.5500
 20
17.9250
 30
0
 11
68.5500
 21
18.0750
 31
0
  0
LINE
  5
48D
100
AcDbEntity
  8
WALL
100
AcDbLine
370
50
 10
69.4500
 20
17.9250
 30
0
 11
69.4500
 21
18.0750
 31
0
  0
LINE
  5
48E
100
AcDbEntity
  8
WALL
100
AcDbLine
370
50
 10
42
 20
23.9250
 30
0
 11
48
 21
23.9250
 31
0
  0
LINE
  5
48F
100
AcDbEntity
  8
WALL
100
AcDbLine
370
50
 10
42
 20
24.0750
 30
0
 11
48
 21
24.0750
 31
0
  0
LINE
  5
490
100
AcDbEntity
  8
WALL
100
AcDbLine
370
50
 10
48
 20
23.9250
 30
0
 11
50.5500
 21
23.9250
 31
0
  0
LINE
  5
491
100
AcDbEntity
  8
WALL
100
AcDbLine
370
50
 10
48
 20
24.0750
 30
0
 11
50.5500
 21
24.0750
 31
0
  0
LINE
  5
492
100
AcDbEntity
  8
WALL
100
AcDbLine
370
50
 10
51.4500
 20
23.9250
 30
0
 11
54
 21
23.9250
 31
0
  0
LINE
  5
493
100
AcDbEntity
  8
WALL
100
AcDbLine
370
50
 10
51.4500
 20
24.0750
 30
0
 11
54
 21
24.0750
 31
0
  0
LINE
  5
494
100
AcDbEntity
  8
WALL
100
AcDbLine
370
50
 10
50.5500
 20
23.9250
 30
0
 11
50.5500
 21
24.0750
 31
0
  0
LINE
  5
495
100
AcDbEntity
  8
WALL
100
AcDbLine
370
50
 10
51.4500
 20
23.9250
 30
0
 11
51.4500
 21
24.0750
 31
0
  0
LINE
  5
496
100
AcDbEntity
  8
WALL
100
AcDbLine
370
50
 10
54
 20
23.9250
 30
0
 11
56.5500
 21
23.9250
 31
0
  0
LINE
  5
497
100
AcDbEntity
  8
WALL
100
AcDbLine
370
50
 10
54
 20
24.0750
 30
0
 11
56.5500
 21
24.0750
 31
0
  0
LINE
  5
498
100
AcDbEntity
  8
WALL
100
AcDbLine
370
50
 10
57.4500
 20
23.9250
 30
0
 11
60
 21
23.9250
 31
0
  0
LINE
  5
499
100
AcDbEntity
  8
WALL
100
AcDbLine
370
50
 10
57.4500
 20
24.0750
 30
0
 11
60
 21
24.0750
 31
0
  0
LINE
  5
49A
100
AcDbEntity
  8
WALL
100
AcDbLine
370
50
 10
56.5500
 20
23.9250
 30
0
 11
56.5500
 21
24.0750
 31
0
  0
LINE
  5
49B
100
AcDbEntity
  8
WALL
100
AcDbLine
370
50
 10
57.4500
 20
23.9250
 30
0
 11
57.4500
 21
24.0750
 31
0
  0
LINE
  5
49C
100
AcDbEntity
  8
WALL
100
AcDbLine
370
50
 10
60
 20
23.9250
 30
0
 11
62.5500
 21
23.9250
 31
0
  0
LINE
  5
49D
100
AcDbEntity
  8
WALL
100
AcDbLine
370
50
 10
60
 20
24.0750
 30
0
 11
62.5500
 21
24.0750
 31
0
  0
LINE
  5
49E
100
AcDbEntity
  8
WALL
100
AcDbLine
370
50
 10
63.4500
 20
23.9250
 30
0
 11
66
 21
23.9250
 31
0
  0
LINE
  5
49F
100
AcDbEntity
  8
WALL
100
AcDbLine
370
50
 10
63.4500
 20
24.0750
 30
0
 11
66
 21
24.0750
 31
0
  0
LINE
  5
4A0
100
AcDbEntity
  8
WALL
100
AcDbLine
370
50
 10
62.5500
 20
23.9250
 30
0
 11
62.5500
 21
24.0750
 31
0
  0
LINE
  5
4A1
100
AcDbEntity
  8
WALL
100
AcDbLine
370
50
 10
63.4500
 20
23.9250
 30
0
 11
63.4500
 21
24.0750
 31
0
  0
LINE
  5
4A2
100
AcDbEntity
  8
WALL
100
AcDbLine
370
50
 10
66
 20
23.9250
 30
0
 11
68.5500
 21
23.9250
 31
0
  0
LINE
  5
4A3
100
AcDbEntity
  8
WALL
100
AcDbLine
370
50
 10
66
 20
24.0750
 30
0
 11
68.5500
 21
24.0750
 31
0
  0
LINE
  5
4A4
100
AcDbEntity
  8
WALL
100
AcDbLine
370
50
 10
69.4500
 20
23.9250
 30
0
 11
72
 21
23.9250
 31
0
  0
LINE
  5
4A5
100
AcDbEntity
  8
WALL
100
AcDbLine
370
50
 10
69.4500
 20
24.0750
 30
0
 11
72
 21
24.0750
 31
0
  0
LINE
  5
4A6
100
AcDbEntity
  8
WALL
100
AcDbLine
370
50
 10
68.5500
 20
23.9250
 30
0
 11
68.5500
 21
24.0750
 31
0
  0
LINE
  5
4A7
100
AcDbEntity
  8
WALL
100
AcDbLine
370
50
 10
69.4500
 20
23.9250
 30
0
 11
69.4500
 21
24.0750
 31
0
  0
LWPOLYLINE
  5
4A8
100
AcDbEntity
  8
COLUMN
100
AcDbPolyline
 90
4
 70
1
 10
41.8850
 20
-0.1150
 10
42.1150
 20
-0.1150
 10
42.1150
 20
0.1150
 10
41.8850
 20
0.1150
  0
LWPOLYLINE
  5
4A9
100
AcDbEntity
  8
COLUMN
100
AcDbPolyline
 90
4
 70
1
 10
41.8850
 20
5.8850
 10
42.1150
 20
5.8850
 10
42.1150
 20
6.1150
 10
41.8850
 20
6.1150
  0
LWPOLYLINE
  5
4AA
100
AcDbEntity
  8
COLUMN
100
AcDbPolyline
 90
4
 70
1
 10
41.8850
 20
11.8850
 10
42.1150
 20
11.8850
 10
42.1150
 20
12.1150
 10
41.8850
 20
12.1150
  0
LWPOLYLINE
  5
4AB
100
AcDbEntity
  8
COLUMN
100
AcDbPolyline
 90
4
 70
1
 10
41.8850
 20
17.8850
 10
42.1150
 20
17.8850
 10
42.1150
 20
18.1150
 10
41.8850
 20
18.1150
  0
LWPOLYLINE
  5
4AC
100
AcDbEntity
  8
COLUMN
100
AcDbPolyline
 90
4
 70
1
 10
41.8850
 20
23.8850
 10
42.1150
 20
23.8850
 10
42.1150
 20
24.1150
 10
41.8850
 20
24.1150
  0
LWPOLYLINE
  5
4AD
100
AcDbEntity
  8
COLUMN
100
AcDbPolyline
 90
4
 70
1
 10
41.8850
 20
29.8850
 10
42.1150
 20
29.8850
 10
42.1150
 20
30.1150
 10
41.8850
 20
30.1150
  0
LWPOLYLINE
  5
4AE
100
AcDbEntity
  8
COLUMN
100
AcDbPolyline
 90
4
 70
1
 10
47.8850
 20
-0.1150
 10
48.1150
 20
-0.1150
 10
48.1150
 20
0.1150
 10
47.8850
 20
0.1150
  0
LWPOLYLINE
  5
4AF
100
AcDbEntity
  8
COLUMN
100
AcDbPolyline
 90
4
 70
1
 10
47.8850
 20
5.8850
 10
48.1150
 20
5.8850
 10
48.1150
 20
6.1150
 10
47.8850
 20
6.1150
  0
LWPOLYLINE
  5
4B0
100
AcDbEntity
  8
COLUMN
100
AcDbPolyline
 90
4
 70
1
 10
47.8850
 20
11.8850
 10
48.1150
 20
11.8850
 10
48.1150
 20
12.1150
 10
47.8850
 20
12.1150
  0
LWPOLYLINE
  5
4B1
100
AcDbEntity
  8
COLUMN
100
AcDbPolyline
 90
4
 70
1
 10
47.8850
 20
17.8850
 10
48.1150
 20
17.8850
 10
48.1150
 20
18.1150
 10
47.8850
 20
18.1150
  0
LWPOLYLINE
  5
4B2
100
AcDbEntity
  8
COLUMN
100
AcDbPolyline
 90
4
 70
1
 10
47.8850
 20
23.8850
 10
48.1150
 20
23.8850
 10
48.1150
 20
24.1150
 10
47.8850
 20
24.1150
  0
LWPOLYLINE
  5
4B3
100
AcDbEntity
  8
COLUMN
100
AcDbPolyline
 90
4
 70
1
 10
47.8850
 20
29.8850
 10
48.1150
 20
29.8850
 10
48.1150
 20
30.1150
 10
47.8850
 20
30.1150
  0
LWPOLYLINE
  5
4B4
100
AcDbEntity
  8
COLUMN
100
AcDbPolyline
 90
4
 70
1
 10
53.8850
 20
-0.1150
 10
54.1150
 20
-0.1150
 10
54.1150
 20
0.1150
 10
53.8850
 20
0.1150
  0
LWPOLYLINE
  5
4B5
100
AcDbEntity
  8
COLUMN
100
AcDbPolyline
 90
4
 70
1
 10
53.8850
 20
5.8850
 10
54.1150
 20
5.8850
 10
54.1150
 20
6.1150
 10
53.8850
 20
6.1150
  0
LWPOLYLINE
  5
4B6
100
AcDbEntity
  8
COLUMN
100
AcDbPolyline
 90
4
 70
1
 10
53.8850
 20
11.8850
 10
54.1150
 20
11.8850
 10
54.1150
 20
12.1150
 10
53.8850
 20
12.1150
  0
LWPOLYLINE
  5
4B7
100
AcDbEntity
  8
COLUMN
100
AcDbPolyline
 90
4
 70
1
 10
53.8850
 20
17.8850
 10
54.1150
 20
17.8850
 10
54.1150
 20
18.1150
 10
53.8850
 20
18.1150
  0
LWPOLYLINE
  5
4B8
100
AcDbEntity
  8
COLUMN
100
AcDbPolyline
 90
4
 70
1
 10
53.8850
 20
23.8850
 10
54.1150
 20
23.8850
 10
54.1150
 20
24.1150
 10
53.8850
 20
24.1150
  0
LWPOLYLINE
  5
4B9
100
AcDbEntity
  8
COLUMN
100
AcDbPolyline
 90
4
 70
1
 10
53.8850
 20
29.8850
 10
54.1150
 20
29.8850
 10
54.1150
 20
30.1150
 10
53.8850
 20
30.1150
  0
LWPOLYLINE
  5
4BA
100
AcDbEntity
  8
COLUMN
100
AcDbPolyline
 90
4
 70
1
 10
59.8850
 20
-0.1150
 10
60.1150
 20
-0.1150
 10
60.1150
 20
0.1150
 10
59.8850
 20
0.1150
  0
LWPOLYLINE
  5
4BB
100
AcDbEntity
  8
COLUMN
100
AcDbPolyline
 90
4
 70
1
 10
59.8850
 20
5.8850
 10
60.1150
 20
5.8850
 10
60.1150
 20
6.1150
 10
59.8850
 20
6.1150
  0
LWPOLYLINE
  5
4BC
100
AcDbEntity
  8
COLUMN
100
AcDbPolyline
 90
4
 70
1
 10
59.8850
 20
11.8850
 10
60.1150
 20
11.8850
 10
60.1150
 20
12.1150
 10
59.8850
 20
12.1150
  0
LWPOLYLINE
  5
4BD
100
AcDbEntity
  8
COLUMN
100
AcDbPolyline
 90
4
 70
1
 10
59.8850
 20
17.8850
 10
60.1150
 20
17.8850
 10
60.1150
 20
18.1150
 10
59.8850
 20
18.1150
  0
LWPOLYLINE
  5
4BE
100
AcDbEntity
  8
COLUMN
100
AcDbPolyline
 90
4
 70
1
 10
59.8850
 20
23.8850
 10
60.1150
 20
23.8850
 10
60.1150
 20
24.1150
 10
59.8850
 20
24.1150
  0
LWPOLYLINE
  5
4BF
100
AcDbEntity
  8
COLUMN
100
AcDbPolyline
 90
4
 70
1
 10
59.8850
 20
29.8850
 10
60.1150
 20
29.8850
 10
60.1150
 20
30.1150
 10
59.8850
 20
30.1150
  0
LWPOLYLINE
  5
4C0
100
AcDbEntity
  8
COLUMN
100
AcDbPolyline
 90
4
 70
1
 10
65.8850
 20
-0.1150
 10
66.1150
 20
-0.1150
 10
66.1150
 20
0.1150
 10
65.8850
 20
0.1150
  0
LWPOLYLINE
  5
4C1
100
AcDbEntity
  8
COLUMN
100
AcDbPolyline
 90
4
 70
1
 10
65.8850
 20
5.8850
 10
66.1150
 20
5.8850
 10
66.1150
 20
6.1150
 10
65.8850
 20
6.1150
  0
LWPOLYLINE
  5
4C2
100
AcDbEntity
  8
COLUMN
100
AcDbPolyline
 90
4
 70
1
 10
65.8850
 20
11.8850
 10
66.1150
 20
11.8850
 10
66.1150
 20
12.1150
 10
65.8850
 20
12.1150
  0
LWPOLYLINE
  5
4C3
100
AcDbEntity
  8
COLUMN
100
AcDbPolyline
 90
4
 70
1
 10
65.8850
 20
17.8850
 10
66.1150
 20
17.8850
 10
66.1150
 20
18.1150
 10
65.8850
 20
18.1150
  0
LWPOLYLINE
  5
4C4
100
AcDbEntity
  8
COLUMN
100
AcDbPolyline
 90
4
 70
1
 10
65.8850
 20
23.8850
 10
66.1150
 20
23.8850
 10
66.1150
 20
24.1150
 10
65.8850
 20
24.1150
  0
LWPOLYLINE
  5
4C5
100
AcDbEntity
  8
COLUMN
100
AcDbPolyline
 90
4
 70
1
 10
65.8850
 20
29.8850
 10
66.1150
 20
29.8850
 10
66.1150
 20
30.1150
 10
65.8850
 20
30.1150
  0
LWPOLYLINE
  5
4C6
100
AcDbEntity
  8
COLUMN
100
AcDbPolyline
 90
4
 70
1
 10
71.8850
 20
-0.1150
 10
72.1150
 20
-0.1150
 10
72.1150
 20
0.1150
 10
71.8850
 20
0.1150
  0
LWPOLYLINE
  5
4C7
100
AcDbEntity
  8
COLUMN
100
AcDbPolyline
 90
4
 70
1
 10
71.8850
 20
5.8850
 10
72.1150
 20
5.8850
 10
72.1150
 20
6.1150
 10
71.8850
 20
6.1150
  0
LWPOLYLINE
  5
4C8
100
AcDbEntity
  8
COLUMN
100
AcDbPolyline
 90
4
 70
1
 10
71.8850
 20
11.8850
 10
72.1150
 20
11.8850
 10
72.1150
 20
12.1150
 10
71.8850
 20
12.1150
  0
LWPOLYLINE
  5
4C9
100
AcDbEntity
  8
COLUMN
100
AcDbPolyline
 90
4
 70
1
 10
71.8850
 20
17.8850
 10
72.1150
 20
17.8850
 10
72.1150
 20
18.1150
 10
71.8850
 20
18.1150
  0
LWPOLYLINE
  5
4CA
100
AcDbEntity
  8
COLUMN
100
AcDbPolyline
 90
4
 70
1
 10
71.8850
 20
23.8850
 10
72.1150
 20
23.8850
 10
72.1150
 20
24.1150
 10
71.8850
 20
24.1150
  0
LWPOLYLINE
  5
4CB
100
AcDbEntity
  8
COLUMN
100
AcDbPolyline
 90
4
 70
1
 10
71.8850
 20
29.8850
 10
72.1150
 20
29.8850
 10
72.1150
 20
30.1150
 10
71.8850
 20
30.1150
  0
TEXT
  5
4CC
100
AcDbEntity
  8
TEXT
100
AcDbText
 10
44.5375
 20
3.0375
 30
0
 40
0.2500
  1
OFFICE 11
100
AcDbText
  0
TEXT
  5
4CD
100
AcDbEntity
  8
TEXT
100
AcDbText
 10
50.5000
 20
3.0375
 30
0
 40
0.2500
  1
OFFICE 12
100
AcDbText
  0
TEXT
  5
4CE
100
AcDbEntity
  8
TEXT
100
AcDbText
 10
56.5000
 20
3.0375
 30
0
 40
0.2500
  1
OFFICE 13
100
AcDbText
  0
TEXT
  5
4CF
100
AcDbEntity
  8
TEXT
100
AcDbText
 10
62.5000
 20
3.0375
 30
0
 40
0.2500
  1
OFFICE 14
100
AcDbText
  0
TEXT
  5
4D0
100
AcDbEntity
  8
TEXT
100
AcDbText
 10
68.4625
 20
3.0375
 30
0
 40
0.2500
  1
OFFICE 15
100
AcDbText
  0
TEXT
  5
4D1
100
AcDbEntity
  8
TEXT
100
AcDbText
 10
44.5375
 20
9
 30
0
 40
0.2500
  1
OFFICE 21
100
AcDbText
  0
TEXT
  5
4D2
100
AcDbEntity
  8
TEXT
100
AcDbText
 10
50.5000
 20
9
 30
0
 40
0.2500
  1
OFFICE 22
100
AcDbText
  0
TEXT
  5
4D3
100
AcDbEntity
  8
TEXT
100
AcDbText
 10
56.5000
 20
9
 30
0
 40
0.2500
  1
OFFICE 23
100
AcDbText
  0
TEXT
  5
4D4
100
AcDbEntity
  8
TEXT
100
AcDbText
 10
62.5000
 20
9
 30
0
 40
0.2500
  1
OFFICE 24
100
AcDbText
  0
TEXT
  5
4D5
100
AcDbEntity
  8
TEXT
100
AcDbText
 10
68.4625
 20
9
 30
0
 40
0.2500
  1
OFFICE 25
100
AcDbText
  0
TEXT
  5
4D6
100
AcDbEntity
  8
TEXT
100
AcDbText
 10
44.5375
 20
15
 30
0
 40
0.2500
  1
OFFICE 31
100
AcDbText
  0
TEXT
  5
4D7
100
AcDbEntity
  8
TEXT
100
AcDbText
 10
50.5000
 20
15
 30
0
 40
0.2500
  1
STAIR HALL
100
AcDbText
  0
TEXT
  5
4D8
100
AcDbEntity
  8
TEXT
100
AcDbText
 10
56.5000
 20
15
 30
0
 40
0.2500
  1
LIFT LOBBY
100
AcDbText
  0
TEXT
  5
4D9
100
AcDbEntity
  8
TEXT
100
AcDbText
 10
62.5000
 20
15
 30
0
 40
0.2500
  1
OFFICE 34
100
AcDbText
  0
LWPOLYLINE
  5
4DA
100
AcDbEntity
  8
SANITARY
100
AcDbPolyline
 90
4
 70
1
 10
60.4750
 20
17.0250
 10
60.8750
 20
17.0250
 10
60.8750
 20
17.6250
 10
60.4750
 20
17.6250
  0
TEXT
  5
4DB
100
AcDbEntity
  8
TEXT
100
AcDbText
 10
68.4625
 20
15
 30
0
 40
0.2500
  1
OFFICE 35
100
AcDbText
  0
TEXT
  5
4DC
100
AcDbEntity
  8
TEXT
100
AcDbText
 10
44.5375
 20
21
 30
0
 40
0.2500
  1
OFFICE 41
100
AcDbText
  0
TEXT
  5
4DD
100
AcDbEntity
  8
TEXT
100
AcDbText
 10
50.5000
 20
21
 30
0
 40
0.2500
  1
OFFICE 42
100
AcDbText
  0
TEXT
  5
4DE
100
AcDbEntity
  8
TEXT
100
AcDbText
 10
56.5000
 20
21
 30
0
 40
0.2500
  1
OFFICE 43
100
AcDbText
  0
TEXT
  5
4DF
100
AcDbEntity
  8
TEXT
100
AcDbText
 10
62.5000
 20
21
 30
0
 40
0.2500
  1
OFFICE 44
100
AcDbText
  0
TEXT
  5
4E0
100
AcDbEntity
  8
TEXT
100
AcDbText
 10
68.4625
 20
21
 30
0
 40
0.2500
  1
OFFICE 45
100
AcDbText
  0
TEXT
  5
4E1
100
AcDbEntity
  8
TEXT
100
AcDbText
 10
44.5375
 20
26.9625
 30
0
 40
0.2500
  1
OFFICE 51
100
AcDbText
  0
TEXT
  5
4E2
100
AcDbEntity
  8
TEXT
100
AcDbText
 10
50.5000
 20
26.9625
 30
0
 40
0.2500
  1
OFFICE 52
100
AcDbText
  0
TEXT
  5
4E3
100
AcDbEntity
  8
TEXT
100
AcDbText
 10
56.5000
 20
26.9625
 30
0
 40
0.2500
  1
OFFICE 53
100
AcDbText
  0
TEXT
  5
4E4
100
AcDbEntity
  8
TEXT
100
AcDbText
 10
62.5000
 20
26.9625
 30
0
 40
0.2500
  1
OFFICE 54
100
AcDbText
  0
TEXT
  5
4E5
100
AcDbEntity
  8
TEXT
100
AcDbText
 10
68.4625
 20
26.9625
 30
0
 40
0.2500
  1
OFFICE 55
100
AcDbText
  0
DIMENSION
  5
4E6
100
AcDbEntity
  8
DIM
100
AcDbDimension
  2
*D
 10
42
 20
-1.8000
 30
0
 11
57
 21
-1.5500
 31
0
 70
33
  1

 42
30
100
AcDbAlignedDimension
 13
42
 23
0
 33
0
 14
72
 24
0
 34
0
  0
DIMENSION
  5
4E7
100
AcDbEntity
  8
DIM
100
AcDbDimension
  2
*D
 10
40.2000
 20
0
 30
0
 11
40.4500
 21
15
 31
0
 70
33
  1

 42
30
100
AcDbAlignedDimension
 13
42
 23
0
 33
0
 14
42
 24
30
 34
0
  0
DIMENSION
  5
4E8
100
AcDbEntity
  8
DIM
100
AcDbDimension
  2
*D
 10
42
 20
31.2000
 30
0
 11
45
 21
31.4500
 31
0
 70
33
  1

 42
6
100
AcDbAlignedDimension
 13
42
 23
30
 33
0
 14
48
 24
30
 34
0
  0
DIMENSION
  5
4E9
100
AcDbEntity
  8
DIM
100
AcDbDimension
  2
*D
 10
48
 20
31.2000
 30
0
 11
51
 21
31.4500
 31
0
 70
33
  1

 42
6
100
AcDbAlignedDimension
 13
48
 23
30
 33
0
 14
54
 24
30
 34
0
  0
DIMENSION
  5
4EA
100
AcDbEntity
  8
DIM
100
AcDbDimension
  2
*D
 10
54
 20
31.2000
 30
0
 11
57
 21
31.4500
 31
0
 70
33
  1

 42
6
100
AcDbAlignedDimension
 13
54
 23
30
 33
0
 14
60
 24
30
 34
0
  0
DIMENSION
  5
4EB
100
AcDbEntity
  8
DIM
100
AcDbDimension
  2
*D
 10
60
 20
31.2000
 30
0
 11
63
 21
31.4500
 31
0
 70
33
  1

 42
6
100
AcDbAlignedDimension
 13
60
 23
30
 33
0
 14
66
 24
30
 34
0
  0
DIMENSION
  5
4EC
100
AcDbEntity
  8
DIM
100
AcDbDimension
  2
*D
 10
66
 20
31.2000
 30
0
 11
69
 21
31.4500
 31
0
 70
33
  1

 42
6
100
AcDbAlignedDimension
 13
66
 23
30
 33
0
 14
72
 24
30
 34
0
  0
DIMENSION
  5
4ED
100
AcDbEntity
  8
DIM
100
AcDbDimension
  2
*D
 10
73.2000
 20
0
 30
0
 11
73.4500
 21
3
 31
0
 70
33
  1

 42
6
100
AcDbAlignedDimension
 13
72
 23
0
 33
0
 14
72
 24
6
 34
0
  0
DIMENSION
  5
4EE
100
AcDbEntity
  8
DIM
100
AcDbDimension
  2
*D
 10
73.2000
 20
6
 30
0
 11
73.4500
 21
9
 31
0
 70
33
  1

 42
6
100
AcDbAlignedDimension
 13
72
 23
6
 33
0
 14
72
 24
12
 34
0
  0
DIMENSION
  5
4EF
100
AcDbEntity
  8
DIM
100
AcDbDimension
  2
*D
 10
73.2000
 20
12
 30
0
 11
73.4500
 21
15
 31
0
 70
33
  1

 42
6
100
AcDbAlignedDimension
 13
72
 23
12
 33
0
 14
72
 24
18
 34
0
  0
DIMENSION
  5
4F0
100
AcDbEntity
  8
DIM
100
AcDbDimension
  2
*D
 10
73.2000
 20
18
 30
0
 11
73.4500
 21
21
 31
0
 70
33
  1

 42
6
100
AcDbAlignedDimension
 13
72
 23
18
 33
0
 14
72
 24
24
 34
0
  0
DIMENSION
  5
4F1
100
AcDbEntity
  8
DIM
100
AcDbDimension
  2
*D
 10
73.2000
 20
24
 30
0
 11
73.4500
 21
27
 31
0
 70
33
  1

 42
6
100
AcDbAlignedDimension
 13
72
 23
24
 33
0
 14
72
 24
30
 34
0
  0
TEXT
  5
4F2
100
AcDbEntity
  8
TEXT
100
AcDbText
 10
42
 20
-3.2000
 30
0
 40
0.4500
  1
TYPICAL FLOOR PLAN (LEVELS 2-20)
100
AcDbText
  0
TEXT
  5
4F3
100
AcDbEntity
  8
TEXT
100
AcDbText
 10
74.6000
 20
15
 30
0
 40
0.3000
  1
+3450
100
AcDbText
  0
LINE
  5
4F4
100
AcDbEntity
  8
WALL
100
AcDbLine
370
50
 10
84
 20
0
 30
0
 11
114
 21
0
 31
0
  0
LINE
  5
4F5
100
AcDbEntity
  8
WALL
100
AcDbLine
370
50
 10
114
 20
0
 30
0
 11
114
 21
61.2000
 31
0
  0
LINE
  5
4F6
100
AcDbEntity
  8
WALL
100
AcDbLine
370
50
 10
114
 20
61.2000
 30
0
 11
84
 21
61.2000
 31
0
  0
LINE
  5
4F7
100
AcDbEntity
  8
WALL
100
AcDbLine
370
50
 10
84
 20
61.2000
 30
0
 11
84
 21
0
 31
0
  0
LINE
  5
4F8
100
AcDbEntity
  8
WALL
100
AcDbLine
 10
84
 20
0
 30
0
 11
114
 21
0
 31
0
  0
TEXT
  5
4F9
100
AcDbEntity
  8
TEXT
100
AcDbText
 10
114.9000
 20
0
 30
0
 40
0.2500
  1
+450 GROUND FLOOR LEVEL
100
AcDbText
  0
LWPOLYLINE
  5
4FA
100
AcDbEntity
  8
WIND
100
AcDbPolyline
 90
4
 70
1
 10
88.4000
 20
0.9000
 10
89.6000
 20
0.9000
 10
89.6000
 20
2.1000
 10
88.4000
 20
2.1000
  0
LWPOLYLINE
  5
4FB
100
AcDbEntity
  8
WIND
100
AcDbPolyline
 90
4
 70
1
 10
93.4000
 20
0.9000
 10
94.6000
 20
0.9000
 10
94.6000
 20
2.1000
 10
93.4000
 20
2.1000
  0
LWPOLYLINE
  5
4FC
100
AcDbEntity
  8
WIND
100
AcDbPolyline
 90
4
 70
1
 10
98.4000
 20
0.9000
 10
99.6000
 20
0.9000
 10
99.6000
 20
2.1000
 10
98.4000
 20
2.1000
  0
LWPOLYLINE
  5
4FD
100
AcDbEntity
  8
WIND
100
AcDbPolyline
 90
4
 70
1
 10
103.4000
 20
0.9000
 10
104.6000
 20
0.9000
 10
104.6000
 20
2.1000
 10
103.4000
 20
2.1000
  0
LWPOLYLINE
  5
4FE
100
AcDbEntity
  8
WIND
100
AcDbPolyline
 90
4
 70
1
 10
108.4000
 20
0.9000
 10
109.6000
 20
0.9000
 10
109.6000
 20
2.1000
 10
108.4000
 20
2.1000
  0
LINE
  5
4FF
100
AcDbEntity
  8
WALL
100
AcDbLine
 10
84
 20
3
 30
0
 11
114
 21
3
 31
0
  0
TEXT
  5
500
100
AcDbEntity
  8
TEXT
100
AcDbText
 10
114.9000
 20
3
 30
0
 40
0.2500
  1
+3450 FIRST FLOOR SLAB
100
AcDbText
  0
LWPOLYLINE
  5
501
100
AcDbEntity
  8
WIND
100
AcDbPolyline
 90
4
 70
1
 10
88.4000
 20
3.9000
 10
89.6000
 20
3.9000
 10
89.6000
 20
5.1000
 10
88.4000
 20
5.1000
  0
LWPOLYLINE
  5
502
100
AcDbEntity
  8
WIND
100
AcDbPolyline
 90
4
 70
1
 10
93.4000
 20
3.9000
 10
94.6000
 20
3.9000
 10
94.6000
 20
5.1000
 10
93.4000
 20
5.1000
  0
LWPOLYLINE
  5
503
100
AcDbEntity
  8
WIND
100
AcDbPolyline
 90
4
 70
1
 10
98.4000
 20
3.9000
 10
99.6000
 20
3.9000
 10
99.6000
 20
5.1000
 10
98.4000
 20
5.1000
  0
LWPOLYLINE
  5
504
100
AcDbEntity
  8
WIND
100
AcDbPolyline
 90
4
 70
1
 10
103.4000
 20
3.9000
 10
104.6000
 20
3.9000
 10
104.6000
 20
5.1000
 10
103.4000
 20
5.1000
  0
LWPOLYLINE
  5
505
100
AcDbEntity
  8
WIND
100
AcDbPolyline
 90
4
 70
1
 10
108.4000
 20
3.9000
 10
109.6000
 20
3.9000
 10
109.6000
 20
5.1000
 10
108.4000
 20
5.1000
  0
LINE
  5
506
100
AcDbEntity
  8
WALL
100
AcDbLine
 10
84
 20
6
 30
0
 11
114
 21
6
 31
0
  0
TEXT
  5
507
100
AcDbEntity
  8
TEXT
100
AcDbText
 10
114.9000
 20
6
 30
0
 40
0.2500
  1
+6450 SECOND FLOOR SLAB
100
AcDbText
  0
LWPOLYLINE
  5
508
100
AcDbEntity
  8
WIND
100
AcDbPolyline
 90
4
 70
1
 10
88.4000
 20
6.9000
 10
89.6000
 20
6.9000
 10
89.6000
 20
8.1000
 10
88.4000
 20
8.1000
  0
LWPOLYLINE
  5
509
100
AcDbEntity
  8
WIND
100
AcDbPolyline
 90
4
 70
1
 10
93.4000
 20
6.9000
 10
94.6000
 20
6.9000
 10
94.6000
 20
8.1000
 10
93.4000
 20
8.1000
  0
LWPOLYLINE
  5
50A
100
AcDbEntity
  8
WIND
100
AcDbPolyline
 90
4
 70
1
 10
98.4000
 20
6.9000
 10
99.6000
 20
6.9000
 10
99.6000
 20
8.1000
 10
98.4000
 20
8.1000
  0
LWPOLYLINE
  5
50B
100
AcDbEntity
  8
WIND
100
AcDbPolyline
 90
4
 70
1
 10
103.4000
 20
6.9000
 10
104.6000
 20
6.9000
 10
104.6000
 20
8.1000
 10
103.4000
 20
8.1000
  0
LWPOLYLINE
  5
50C
100
AcDbEntity
  8
WIND
100
AcDbPolyline
 90
4
 70
1
 10
108.4000
 20
6.9000
 10
109.6000
 20
6.9000
 10
109.6000
 20
8.1000
 10
108.4000
 20
8.1000
  0
LINE
  5
50D
100
AcDbEntity
  8
WALL
100
AcDbLine
 10
84
 20
9
 30
0
 11
114
 21
9
 31
0
  0
TEXT
  5
50E
100
AcDbEntity
  8
TEXT
100
AcDbText
 10
114.9000
 20
9
 30
0
 40
0.2500
  1
+9450 THIRD FLOOR SLAB
100
AcDbText
  0
LWPOLYLINE
  5
50F
100
AcDbEntity
  8
WIND
100
AcDbPolyline
 90
4
 70
1
 10
88.4000
 20
9.9000
 10
89.6000
 20
9.9000
 10
89.6000
 20
11.1000
 10
88.4000
 20
11.1000
  0
LWPOLYLINE
  5
510
100
AcDbEntity
  8
WIND
100
AcDbPolyline
 90
4
 70
1
 10
93.4000
 20
9.9000
 10
94.6000
 20
9.9000
 10
94.6000
 20
11.1000
 10
93.4000
 20
11.1000
  0
LWPOLYLINE
  5
511
100
AcDbEntity
  8
WIND
100
AcDbPolyline
 90
4
 70
1
 10
98.4000
 20
9.9000
 10
99.6000
 20
9.9000
 10
99.6000
 20
11.1000
 10
98.4000
 20
11.1000
  0
LWPOLYLINE
  5
512
100
AcDbEntity
  8
WIND
100
AcDbPolyline
 90
4
 70
1
 10
103.4000
 20
9.9000
 10
104.6000
 20
9.9000
 10
104.6000
 20
11.1000
 10
103.4000
 20
11.1000
  0
LWPOLYLINE
  5
513
100
AcDbEntity
  8
WIND
100
AcDbPolyline
 90
4
 70
1
 10
108.4000
 20
9.9000
 10
109.6000
 20
9.9000
 10
109.6000
 20
11.1000
 10
108.4000
 20
11.1000
  0
LINE
  5
514
100
AcDbEntity
  8
WALL
100
AcDbLine
 10
84
 20
12
 30
0
 11
114
 21
12
 31
0
  0
TEXT
  5
515
100
AcDbEntity
  8
TEXT
100
AcDbText
 10
114.9000
 20
12
 30
0
 40
0.2500
  1
+12450 LEVEL 4
100
AcDbText
  0
LWPOLYLINE
  5
516
100
AcDbEntity
  8
WIND
100
AcDbPolyline
 90
4
 70
1
 10
88.4000
 20
12.9000
 10
89.6000
 20
12.9000
 10
89.6000
 20
14.1000
 10
88.4000
 20
14.1000
  0
LWPOLYLINE
  5
517
100
AcDbEntity
  8
WIND
100
AcDbPolyline
 90
4
 70
1
 10
93.4000
 20
12.9000
 10
94.6000
 20
12.9000
 10
94.6000
 20
14.1000
 10
93.4000
 20
14.1000
  0
LWPOLYLINE
  5
518
100
AcDbEntity
  8
WIND
100
AcDbPolyline
 90
4
 70
1
 10
98.4000
 20
12.9000
 10
99.6000
 20
12.9000
 10
99.6000
 20
14.1000
 10
98.4000
 20
14.1000
  0
LWPOLYLINE
  5
519
100
AcDbEntity
  8
WIND
100
AcDbPolyline
 90
4
 70
1
 10
103.4000
 20
12.9000
 10
104.6000
 20
12.9000
 10
104.6000
 20
14.1000
 10
103.4000
 20
14.1000
  0
LWPOLYLINE
  5
51A
100
AcDbEntity
  8
WIND
100
AcDbPolyline
 90
4
 70
1
 10
108.4000
 20
12.9000
 10
109.6000
 20
12.9000
 10
109.6000
 20
14.1000
 10
108.4000
 20
14.1000
  0
LINE
  5
51B
100
AcDbEntity
  8
WALL
100
AcDbLine
 10
84
 20
15
 30
0
 11
114
 21
15
 31
0
  0
TEXT
  5
51C
100
AcDbEntity
  8
TEXT
100
AcDbText
 10
114.9000
 20
15
 30
0
 40
0.2500
  1
+15450 LEVEL 5
100
AcDbText
  0
LWPOLYLINE
  5
51D
100
AcDbEntity
  8
WIND
100
AcDbPolyline
 90
4
 70
1
 10
88.4000
 20
15.9000
 10
89.6000
 20
15.9000
 10
89.6000
 20
17.1000
 10
88.4000
 20
17.1000
  0
LWPOLYLINE
  5
51E
100
AcDbEntity
  8
WIND
100
AcDbPolyline
 90
4
 70
1
 10
93.4000
 20
15.9000
 10
94.6000
 20
15.9000
 10
94.6000
 20
17.1000
 10
93.4000
 20
17.1000
  0
LWPOLYLINE
  5
51F
100
AcDbEntity
  8
WIND
100
AcDbPolyline
 90
4
 70
1
 10
98.4000
 20
15.9000
 10
99.6000
 20
15.9000
 10
99.6000
 20
17.1000
 10
98.4000
 20
17.1000
  0
LWPOLYLINE
  5
520
100
AcDbEntity
  8
WIND
100
AcDbPolyline
 90
4
 70
1
 10
103.4000
 20
15.9000
 10
104.6000
 20
15.9000
 10
104.6000
 20
17.1000
 10
103.4000
 20
17.1000
  0
LWPOLYLINE
  5
521
100
AcDbEntity
  8
WIND
100
AcDbPolyline
 90
4
 70
1
 10
108.4000
 20
15.9000
 10
109.6000
 20
15.9000
 10
109.6000
 20
17.1000
 10
108.4000
 20
17.1000
  0
LINE
  5
522
100
AcDbEntity
  8
WALL
100
AcDbLine
 10
84
 20
18
 30
0
 11
114
 21
18
 31
0
  0
TEXT
  5
523
100
AcDbEntity
  8
TEXT
100
AcDbText
 10
114.9000
 20
18
 30
0
 40
0.2500
  1
+18450 LEVEL 6
100
AcDbText
  0
LWPOLYLINE
  5
524
100
AcDbEntity
  8
WIND
100
AcDbPolyline
 90
4
 70
1
 10
88.4000
 20
18.9000
 10
89.6000
 20
18.9000
 10
89.6000
 20
20.1000
 10
88.4000
 20
20.1000
  0
LWPOLYLINE
  5
525
100
AcDbEntity
  8
WIND
100
AcDbPolyline
 90
4
 70
1
 10
93.4000
 20
18.9000
 10
94.6000
 20
18.9000
 10
94.6000
 20
20.1000
 10
93.4000
 20
20.1000
  0
LWPOLYLINE
  5
526
100
AcDbEntity
  8
WIND
100
AcDbPolyline
 90
4
 70
1
 10
98.4000
 20
18.9000
 10
99.6000
 20
18.9000
 10
99.6000
 20
20.1000
 10
98.4000
 20
20.1000
  0
LWPOLYLINE
  5
527
100
AcDbEntity
  8
WIND
100
AcDbPolyline
 90
4
 70
1
 10
103.4000
 20
18.9000
 10
104.6000
 20
18.9000
 10
104.6000
 20
20.1000
 10
103.4000
 20
20.1000
  0
LWPOLYLINE
  5
528
100
AcDbEntity
  8
WIND
100
AcDbPolyline
 90
4
 70
1
 10
108.4000
 20
18.9000
 10
109.6000
 20
18.9000
 10
109.6000
 20
20.1000
 10
108.4000
 20
20.1000
  0
LINE
  5
529
100
AcDbEntity
  8
WALL
100
AcDbLine
 10
84
 20
21
 30
0
 11
114
 21
21
 31
0
  0
TEXT
  5
52A
100
AcDbEntity
  8
TEXT
100
AcDbText
 10
114.9000
 20
21
 30
0
 40
0.2500
  1
+21450 LEVEL 7
100
AcDbText
  0
LWPOLYLINE
  5
52B
100
AcDbEntity
  8
WIND
100
AcDbPolyline
 90
4
 70
1
 10
88.4000
 20
21.9000
 10
89.6000
 20
21.9000
 10
89.6000
 20
23.1000
 10
88.4000
 20
23.1000
  0
LWPOLYLINE
  5
52C
100
AcDbEntity
  8
WIND
100
AcDbPolyline
 90
4
 70
1
 10
93.4000
 20
21.9000
 10
94.6000
 20
21.9000
 10
94.6000
 20
23.1000
 10
93.4000
 20
23.1000
  0
LWPOLYLINE
  5
52D
100
AcDbEntity
  8
WIND
100
AcDbPolyline
 90
4
 70
1
 10
98.4000
 20
21.9000
 10
99.6000
 20
21.9000
 10
99.6000
 20
23.1000
 10
98.4000
 20
23.1000
  0
LWPOLYLINE
  5
52E
100
AcDbEntity
  8
WIND
100
AcDbPolyline
 90
4
 70
1
 10
103.4000
 20
21.9000
 10
104.6000
 20
21.9000
 10
104.6000
 20
23.1000
 10
103.4000
 20
23.1000
  0
LWPOLYLINE
  5
52F
100
AcDbEntity
  8
WIND
100
AcDbPolyline
 90
4
 70
1
 10
108.4000
 20
21.9000
 10
109.6000
 20
21.9000
 10
109.6000
 20
23.1000
 10
108.4000
 20
23.1000
  0
LINE
  5
530
100
AcDbEntity
  8
WALL
100
AcDbLine
 10
84
 20
24
 30
0
 11
114
 21
24
 31
0
  0
TEXT
  5
531
100
AcDbEntity
  8
TEXT
100
AcDbText
 10
114.9000
 20
24
 30
0
 40
0.2500
  1
+24450 LEVEL 8
100
AcDbText
  0
LWPOLYLINE
  5
532
100
AcDbEntity
  8
WIND
100
AcDbPolyline
 90
4
 70
1
 10
88.4000
 20
24.9000
 10
89.6000
 20
24.9000
 10
89.6000
 20
26.1000
 10
88.4000
 20
26.1000
  0
LWPOLYLINE
  5
533
100
AcDbEntity
  8
WIND
100
AcDbPolyline
 90
4
 70
1
 10
93.4000
 20
24.9000
 10
94.6000
 20
24.9000
 10
94.6000
 20
26.1000
 10
93.4000
 20
26.1000
  0
LWPOLYLINE
  5
534
100
AcDbEntity
  8
WIND
100
AcDbPolyline
 90
4
 70
1
 10
98.4000
 20
24.9000
 10
99.6000
 20
24.9000
 10
99.6000
 20
26.1000
 10
98.4000
 20
26.1000
  0
LWPOLYLINE
  5
535
100
AcDbEntity
  8
WIND
100
AcDbPolyline
 90
4
 70
1
 10
103.4000
 20
24.9000
 10
104.6000
 20
24.9000
 10
104.6000
 20
26.1000
 10
103.4000
 20
26.1000
  0
LWPOLYLINE
  5
536
100
AcDbEntity
  8
WIND
100
AcDbPolyline
 90
4
 70
1
 10
108.4000
 20
24.9000
 10
109.6000
 20
24.9000
 10
109.6000
 20
26.1000
 10
108.4000
 20
26.1000
  0
LINE
  5
537
100
AcDbEntity
  8
WALL
100
AcDbLine
 10
84
 20
27
 30
0
 11
114
 21
27
 31
0
  0
TEXT
  5
538
100
AcDbEntity
  8
TEXT
100
AcDbText
 10
114.9000
 20
27
 30
0
 40
0.2500
  1
+27450 LEVEL 9
100
AcDbText
  0
LWPOLYLINE
  5
539
100
AcDbEntity
  8
WIND
100
AcDbPolyline
 90
4
 70
1
 10
88.4000
 20
27.9000
 10
89.6000
 20
27.9000
 10
89.6000
 20
29.1000
 10
88.4000
 20
29.1000
  0
LWPOLYLINE
  5
53A
100
AcDbEntity
  8
WIND
100
AcDbPolyline
 90
4
 70
1
 10
93.4000
 20
27.9000
 10
94.6000
 20
27.9000
 10
94.6000
 20
29.1000
 10
93.4000
 20
29.1000
  0
LWPOLYLINE
  5
53B
100
AcDbEntity
  8
WIND
100
AcDbPolyline
 90
4
 70
1
 10
98.4000
 20
27.9000
 10
99.6000
 20
27.9000
 10
99.6000
 20
29.1000
 10
98.4000
 20
29.1000
  0
LWPOLYLINE
  5
53C
100
AcDbEntity
  8
WIND
100
AcDbPolyline
 90
4
 70
1
 10
103.4000
 20
27.9000
 10
104.6000
 20
27.9000
 10
104.6000
 20
29.1000
 10
103.4000
 20
29.1000
  0
LWPOLYLINE
  5
53D
100
AcDbEntity
  8
WIND
100
AcDbPolyline
 90
4
 70
1
 10
108.4000
 20
27.9000
 10
109.6000
 20
27.9000
 10
109.6000
 20
29.1000
 10
108.4000
 20
29.1000
  0
LINE
  5
53E
100
AcDbEntity
  8
WALL
100
AcDbLine
 10
84
 20
30
 30
0
 11
114
 21
30
 31
0
  0
TEXT
  5
53F
100
AcDbEntity
  8
TEXT
100
AcDbText
 10
114.9000
 20
30
 30
0
 40
0.2500
  1
+30450 LEVEL 10
100
AcDbText
  0
LWPOLYLINE
  5
540
100
AcDbEntity
  8
WIND
100
AcDbPolyline
 90
4
 70
1
 10
88.4000
 20
30.9000
 10
89.6000
 20
30.9000
 10
89.6000
 20
32.1000
 10
88.4000
 20
32.1000
  0
LWPOLYLINE
  5
541
100
AcDbEntity
  8
WIND
100
AcDbPolyline
 90
4
 70
1
 10
93.4000
 20
30.9000
 10
94.6000
 20
30.9000
 10
94.6000
 20
32.1000
 10
93.4000
 20
32.1000
  0
LWPOLYLINE
  5
542
100
AcDbEntity
  8
WIND
100
AcDbPolyline
 90
4
 70
1
 10
98.4000
 20
30.9000
 10
99.6000
 20
30.9000
 10
99.6000
 20
32.1000
 10
98.4000
 20
32.1000
  0
LWPOLYLINE
  5
543
100
AcDbEntity
  8
WIND
100
AcDbPolyline
 90
4
 70
1
 10
103.4000
 20
30.9000
 10
104.6000
 20
30.9000
 10
104.6000
 20
32.1000
 10
103.4000
 20
32.1000
  0
LWPOLYLINE
  5
544
100
AcDbEntity
  8
WIND
100
AcDbPolyline
 90
4
 70
1
 10
108.4000
 20
30.9000
 10
109.6000
 20
30.9000
 10
109.6000
 20
32.1000
 10
108.4000
 20
32.1000
  0
LINE
  5
545
100
AcDbEntity
  8
WALL
100
AcDbLine
 10
84
 20
33
 30
0
 11
114
 21
33
 31
0
  0
TEXT
  5
546
100
AcDbEntity
  8
TEXT
100
AcDbText
 10
114.9000
 20
33
 30
0
 40
0.2500
  1
+33450 LEVEL 11
100
AcDbText
  0
LWPOLYLINE
  5
547
100
AcDbEntity
  8
WIND
100
AcDbPolyline
 90
4
 70
1
 10
88.4000
 20
33.9000
 10
89.6000
 20
33.9000
 10
89.6000
 20
35.1000
 10
88.4000
 20
35.1000
  0
LWPOLYLINE
  5
548
100
AcDbEntity
  8
WIND
100
AcDbPolyline
 90
4
 70
1
 10
93.4000
 20
33.9000
 10
94.6000
 20
33.9000
 10
94.6000
 20
35.1000
 10
93.4000
 20
35.1000
  0
LWPOLYLINE
  5
549
100
AcDbEntity
  8
WIND
100
AcDbPolyline
 90
4
 70
1
 10
98.4000
 20
33.9000
 10
99.6000
 20
33.9000
 10
99.6000
 20
35.1000
 10
98.4000
 20
35.1000
  0
LWPOLYLINE
  5
54A
100
AcDbEntity
  8
WIND
100
AcDbPolyline
 90
4
 70
1
 10
103.4000
 20
33.9000
 10
104.6000
 20
33.9000
 10
104.6000
 20
35.1000
 10
103.4000
 20
35.1000
  0
LWPOLYLINE
  5
54B
100
AcDbEntity
  8
WIND
100
AcDbPolyline
 90
4
 70
1
 10
108.4000
 20
33.9000
 10
109.6000
 20
33.9000
 10
109.6000
 20
35.1000
 10
108.4000
 20
35.1000
  0
LINE
  5
54C
100
AcDbEntity
  8
WALL
100
AcDbLine
 10
84
 20
36
 30
0
 11
114
 21
36
 31
0
  0
TEXT
  5
54D
100
AcDbEntity
  8
TEXT
100
AcDbText
 10
114.9000
 20
36
 30
0
 40
0.2500
  1
+36450 LEVEL 12
100
AcDbText
  0
LWPOLYLINE
  5
54E
100
AcDbEntity
  8
WIND
100
AcDbPolyline
 90
4
 70
1
 10
88.4000
 20
36.9000
 10
89.6000
 20
36.9000
 10
89.6000
 20
38.1000
 10
88.4000
 20
38.1000
  0
LWPOLYLINE
  5
54F
100
AcDbEntity
  8
WIND
100
AcDbPolyline
 90
4
 70
1
 10
93.4000
 20
36.9000
 10
94.6000
 20
36.9000
 10
94.6000
 20
38.1000
 10
93.4000
 20
38.1000
  0
LWPOLYLINE
  5
550
100
AcDbEntity
  8
WIND
100
AcDbPolyline
 90
4
 70
1
 10
98.4000
 20
36.9000
 10
99.6000
 20
36.9000
 10
99.6000
 20
38.1000
 10
98.4000
 20
38.1000
  0
LWPOLYLINE
  5
551
100
AcDbEntity
  8
WIND
100
AcDbPolyline
 90
4
 70
1
 10
103.4000
 20
36.9000
 10
104.6000
 20
36.9000
 10
104.6000
 20
38.1000
 10
103.4000
 20
38.1000
  0
LWPOLYLINE
  5
552
100
AcDbEntity
  8
WIND
100
AcDbPolyline
 90
4
 70
1
 10
108.4000
 20
36.9000
 10
109.6000
 20
36.9000
 10
109.6000
 20
38.1000
 10
108.4000
 20
38.1000
  0
LINE
  5
553
100
AcDbEntity
  8
WALL
100
AcDbLine
 10
84
 20
39
 30
0
 11
114
 21
39
 31
0
  0
TEXT
  5
554
100
AcDbEntity
  8
TEXT
100
AcDbText
 10
114.9000
 20
39
 30
0
 40
0.2500
  1
+39450 LEVEL 13
100
AcDbText
  0
LWPOLYLINE
  5
555
100
AcDbEntity
  8
WIND
100
AcDbPolyline
 90
4
 70
1
 10
88.4000
 20
39.9000
 10
89.6000
 20
39.9000
 10
89.6000
 20
41.1000
 10
88.4000
 20
41.1000
  0
LWPOLYLINE
  5
556
100
AcDbEntity
  8
WIND
100
AcDbPolyline
 90
4
 70
1
 10
93.4000
 20
39.9000
 10
94.6000
 20
39.9000
 10
94.6000
 20
41.1000
 10
93.4000
 20
41.1000
  0
LWPOLYLINE
  5
557
100
AcDbEntity
  8
WIND
100
AcDbPolyline
 90
4
 70
1
 10
98.4000
 20
39.9000
 10
99.6000
 20
39.9000
 10
99.6000
 20
41.1000
 10
98.4000
 20
41.1000
  0
LWPOLYLINE
  5
558
100
AcDbEntity
  8
WIND
100
AcDbPolyline
 90
4
 70
1
 10
103.4000
 20
39.9000
 10
104.6000
 20
39.9000
 10
104.6000
 20
41.1000
 10
103.4000
 20
41.1000
  0
LWPOLYLINE
  5
559
100
AcDbEntity
  8
WIND
100
AcDbPolyline
 90
4
 70
1
 10
108.4000
 20
39.9000
 10
109.6000
 20
39.9000
 10
109.6000
 20
41.1000
 10
108.4000
 20
41.1000
  0
LINE
  5
55A
100
AcDbEntity
  8
WALL
100
AcDbLine
 10
84
 20
42
 30
0
 11
114
 21
42
 31
0
  0
TEXT
  5
55B
100
AcDbEntity
  8
TEXT
100
AcDbText
 10
114.9000
 20
42
 30
0
 40
0.2500
  1
+42450 LEVEL 14
100
AcDbText
  0
LWPOLYLINE
  5
55C
100
AcDbEntity
  8
WIND
100
AcDbPolyline
 90
4
 70
1
 10
88.4000
 20
42.9000
 10
89.6000
 20
42.9000
 10
89.6000
 20
44.1000
 10
88.4000
 20
44.1000
  0
LWPOLYLINE
  5
55D
100
AcDbEntity
  8
WIND
100
AcDbPolyline
 90
4
 70
1
 10
93.4000
 20
42.9000
 10
94.6000
 20
42.9000
 10
94.6000
 20
44.1000
 10
93.4000
 20
44.1000
  0
LWPOLYLINE
  5
55E
100
AcDbEntity
  8
WIND
100
AcDbPolyline
 90
4
 70
1
 10
98.4000
 20
42.9000
 10
99.6000
 20
42.9000
 10
99.6000
 20
44.1000
 10
98.4000
 20
44.1000
  0
LWPOLYLINE
  5
55F
100
AcDbEntity
  8
WIND
100
AcDbPolyline
 90
4
 70
1
 10
103.4000
 20
42.9000
 10
104.6000
 20
42.9000
 10
104.6000
 20
44.1000
 10
103.4000
 20
44.1000
  0
LWPOLYLINE
  5
560
100
AcDbEntity
  8
WIND
100
AcDbPolyline
 90
4
 70
1
 10
108.4000
 20
42.9000
 10
109.6000
 20
42.9000
 10
109.6000
 20
44.1000
 10
108.4000
 20
44.1000
  0
LINE
  5
561
100
AcDbEntity
  8
WALL
100
AcDbLine
 10
84
 20
45
 30
0
 11
114
 21
45
 31
0
  0
TEXT
  5
562
100
AcDbEntity
  8
TEXT
100
AcDbText
 10
114.9000
 20
45
 30
0
 40
0.2500
  1
+45450 LEVEL 15
100
AcDbText
  0
LWPOLYLINE
  5
563
100
AcDbEntity
  8
WIND
100
AcDbPolyline
 90
4
 70
1
 10
88.4000
 20
45.9000
 10
89.6000
 20
45.9000
 10
89.6000
 20
47.1000
 10
88.4000
 20
47.1000
  0
LWPOLYLINE
  5
564
100
AcDbEntity
  8
WIND
100
AcDbPolyline
 90
4
 70
1
 10
93.4000
 20
45.9000
 10
94.6000
 20
45.9000
 10
94.6000
 20
47.1000
 10
93.4000
 20
47.1000
  0
LWPOLYLINE
  5
565
100
AcDbEntity
  8
WIND
100
AcDbPolyline
 90
4
 70
1
 10
98.4000
 20
45.9000
 10
99.6000
 20
45.9000
 10
99.6000
 20
47.1000
 10
98.4000
 20
47.1000
  0
LWPOLYLINE
  5
566
100
AcDbEntity
  8
WIND
100
AcDbPolyline
 90
4
 70
1
 10
103.4000
 20
45.9000
 10
104.6000
 20
45.9000
 10
104.6000
 20
47.1000
 10
103.4000
 20
47.1000
  0
LWPOLYLINE
  5
567
100
AcDbEntity
  8
WIND
100
AcDbPolyline
 90
4
 70
1
 10
108.4000
 20
45.9000
 10
109.6000
 20
45.9000
 10
109.6000
 20
47.1000
 10
108.4000
 20
47.1000
  0
LINE
  5
568
100
AcDbEntity
  8
WALL
100
AcDbLine
 10
84
 20
48
 30
0
 11
114
 21
48
 31
0
  0
TEXT
  5
569
100
AcDbEntity
  8
TEXT
100
AcDbText
 10
114.9000
 20
48
 30
0
 40
0.2500
  1
+48450 LEVEL 16
100
AcDbText
  0
LWPOLYLINE
  5
56A
100
AcDbEntity
  8
WIND
100
AcDbPolyline
 90
4
 70
1
 10
88.4000
 20
48.9000
 10
89.6000
 20
48.9000
 10
89.6000
 20
50.1000
 10
88.4000
 20
50.1000
  0
LWPOLYLINE
  5
56B
100
AcDbEntity
  8
WIND
100
AcDbPolyline
 90
4
 70
1
 10
93.4000
 20
48.9000
 10
94.6000
 20
48.9000
 10
94.6000
 20
50.1000
 10
93.4000
 20
50.1000
  0
LWPOLYLINE
  5
56C
100
AcDbEntity
  8
WIND
100
AcDbPolyline
 90
4
 70
1
 10
98.4000
 20
48.9000
 10
99.6000
 20
48.9000
 10
99.6000
 20
50.1000
 10
98.4000
 20
50.1000
  0
LWPOLYLINE
  5
56D
100
AcDbEntity
  8
WIND
100
AcDbPolyline
 90
4
 70
1
 10
103.4000
 20
48.9000
 10
104.6000
 20
48.9000
 10
104.6000
 20
50.1000
 10
103.4000
 20
50.1000
  0
LWPOLYLINE
  5
56E
100
AcDbEntity
  8
WIND
100
AcDbPolyline
 90
4
 70
1
 10
108.4000
 20
48.9000
 10
109.6000
 20
48.9000
 10
109.6000
 20
50.1000
 10
108.4000
 20
50.1000
  0
LINE
  5
56F
100
AcDbEntity
  8
WALL
100
AcDbLine
 10
84
 20
51
 30
0
 11
114
 21
51
 31
0
  0
TEXT
  5
570
100
AcDbEntity
  8
TEXT
100
AcDbText
 10
114.9000
 20
51
 30
0
 40
0.2500
  1
+51450 LEVEL 17
100
AcDbText
  0
LWPOLYLINE
  5
571
100
AcDbEntity
  8
WIND
100
AcDbPolyline
 90
4
 70
1
 10
88.4000
 20
51.9000
 10
89.6000
 20
51.9000
 10
89.6000
 20
53.1000
 10
88.4000
 20
53.1000
  0
LWPOLYLINE
  5
572
100
AcDbEntity
  8
WIND
100
AcDbPolyline
 90
4
 70
1
 10
93.4000
 20
51.9000
 10
94.6000
 20
51.9000
 10
94.6000
 20
53.1000
 10
93.4000
 20
53.1000
  0
LWPOLYLINE
  5
573
100
AcDbEntity
  8
WIND
100
AcDbPolyline
 90
4
 70
1
 10
98.4000
 20
51.9000
 10
99.6000
 20
51.9000
 10
99.6000
 20
53.1000
 10
98.4000
 20
53.1000
  0
LWPOLYLINE
  5
574
100
AcDbEntity
  8
WIND
100
AcDbPolyline
 90
4
 70
1
 10
103.4000
 20
51.9000
 10
104.6000
 20
51.9000
 10
104.6000
 20
53.1000
 10
103.4000
 20
53.1000
  0
LWPOLYLINE
  5
575
100
AcDbEntity
  8
WIND
100
AcDbPolyline
 90
4
 70
1
 10
108.4000
 20
51.9000
 10
109.6000
 20
51.9000
 10
109.6000
 20
53.1000
 10
108.4000
 20
53.1000
  0
LINE
  5
576
100
AcDbEntity
  8
WALL
100
AcDbLine
 10
84
 20
54
 30
0
 11
114
 21
54
 31
0
  0
TEXT
  5
577
100
AcDbEntity
  8
TEXT
100
AcDbText
 10
114.9000
 20
54
 30
0
 40
0.2500
  1
+54450 LEVEL 18
100
AcDbText
  0
LWPOLYLINE
  5
578
100
AcDbEntity
  8
WIND
100
AcDbPolyline
 90
4
 70
1
 10
88.4000
 20
54.9000
 10
89.6000
 20
54.9000
 10
89.6000
 20
56.1000
 10
88.4000
 20
56.1000
  0
LWPOLYLINE
  5
579
100
AcDbEntity
  8
WIND
100
AcDbPolyline
 90
4
 70
1
 10
93.4000
 20
54.9000
 10
94.6000
 20
54.9000
 10
94.6000
 20
56.1000
 10
93.4000
 20
56.1000
  0
LWPOLYLINE
  5
57A
100
AcDbEntity
  8
WIND
100
AcDbPolyline
 90
4
 70
1
 10
98.4000
 20
54.9000
 10
99.6000
 20
54.9000
 10
99.6000
 20
56.1000
 10
98.4000
 20
56.1000
  0
LWPOLYLINE
  5
57B
100
AcDbEntity
  8
WIND
100
AcDbPolyline
 90
4
 70
1
 10
103.4000
 20
54.9000
 10
104.6000
 20
54.9000
 10
104.6000
 20
56.1000
 10
103.4000
 20
56.1000
  0
LWPOLYLINE
  5
57C
100
AcDbEntity
  8
WIND
100
AcDbPolyline
 90
4
 70
1
 10
108.4000
 20
54.9000
 10
109.6000
 20
54.9000
 10
109.6000
 20
56.1000
 10
108.4000
 20
56.1000
  0
LINE
  5
57D
100
AcDbEntity
  8
WALL
100
AcDbLine
 10
84
 20
57
 30
0
 11
114
 21
57
 31
0
  0
TEXT
  5
57E
100
AcDbEntity
  8
TEXT
100
AcDbText
 10
114.9000
 20
57
 30
0
 40
0.2500
  1
+57450 LEVEL 19
100
AcDbText
  0
LWPOLYLINE
  5
57F
100
AcDbEntity
  8
WIND
100
AcDbPolyline
 90
4
 70
1
 10
88.4000
 20
57.9000
 10
89.6000
 20
57.9000
 10
89.6000
 20
59.1000
 10
88.4000
 20
59.1000
  0
LWPOLYLINE
  5
580
100
AcDbEntity
  8
WIND
100
AcDbPolyline
 90
4
 70
1
 10
93.4000
 20
57.9000
 10
94.6000
 20
57.9000
 10
94.6000
 20
59.1000
 10
93.4000
 20
59.1000
  0
LWPOLYLINE
  5
581
100
AcDbEntity
  8
WIND
100
AcDbPolyline
 90
4
 70
1
 10
98.4000
 20
57.9000
 10
99.6000
 20
57.9000
 10
99.6000
 20
59.1000
 10
98.4000
 20
59.1000
  0
LWPOLYLINE
  5
582
100
AcDbEntity
  8
WIND
100
AcDbPolyline
 90
4
 70
1
 10
103.4000
 20
57.9000
 10
104.6000
 20
57.9000
 10
104.6000
 20
59.1000
 10
103.4000
 20
59.1000
  0
LWPOLYLINE
  5
583
100
AcDbEntity
  8
WIND
100
AcDbPolyline
 90
4
 70
1
 10
108.4000
 20
57.9000
 10
109.6000
 20
57.9000
 10
109.6000
 20
59.1000
 10
108.4000
 20
59.1000
  0
LINE
  5
584
100
AcDbEntity
  8
WALL
100
AcDbLine
 10
84
 20
60
 30
0
 11
114
 21
60
 31
0
  0
TEXT
  5
585
100
AcDbEntity
  8
TEXT
100
AcDbText
 10
114.9000
 20
60
 30
0
 40
0.2500
  1
+60450 ROOF LEVEL
100
AcDbText
  0
TEXT
  5
586
100
AcDbEntity
  8
TEXT
100
AcDbText
 10
84
 20
-3.2000
 30
0
 40
0.4500
  1
NORTH ELEVATION
100
AcDbText
  0
LINE
  5
587
100
AcDbEntity
  8
WALL
100
AcDbLine
370
50
 10
126
 20
0
 30
0
 11
156
 21
0
 31
0
  0
LINE
  5
588
100
AcDbEntity
  8
WALL
100
AcDbLine
370
50
 10
156
 20
0
 30
0
 11
156
 21
61.2000
 31
0
  0
LINE
  5
589
100
AcDbEntity
  8
WALL
100
AcDbLine
370
50
 10
156
 20
61.2000
 30
0
 11
126
 21
61.2000
 31
0
  0
LINE
  5
58A
100
AcDbEntity
  8
WALL
100
AcDbLine
370
50
 10
126
 20
61.2000
 30
0
 11
126
 21
0
 31
0
  0
LINE
  5
58B
100
AcDbEntity
  8
WALL
100
AcDbLine
370
50
 10
126
 20
0
 30
0
 11
156
 21
0
 31
0
  0
LINE
  5
58C
100
AcDbEntity
  8
WALL
100
AcDbLine
370
50
 10
126
 20
0.1500
 30
0
 11
156
 21
0.1500
 31
0
  0
TEXT
  5
58D
100
AcDbEntity
  8
TEXT
100
AcDbText
 10
156.9000
 20
0
 30
0
 40
0.2500
  1
+450 GROUND FLOOR LEVEL
100
AcDbText
  0
LINE
  5
58E
100
AcDbEntity
  8
WALL
100
AcDbLine
370
50
 10
126
 20
3
 30
0
 11
156
 21
3
 31
0
  0
LINE
  5
58F
100
AcDbEntity
  8
WALL
100
AcDbLine
370
50
 10
126
 20
3.1500
 30
0
 11
156
 21
3.1500
 31
0
  0
TEXT
  5
590
100
AcDbEntity
  8
TEXT
100
AcDbText
 10
156.9000
 20
3
 30
0
 40
0.2500
  1
+3450 FIRST FLOOR SLAB
100
AcDbText
  0
LINE
  5
591
100
AcDbEntity
  8
WALL
100
AcDbLine
370
50
 10
126
 20
6
 30
0
 11
156
 21
6
 31
0
  0
LINE
  5
592
100
AcDbEntity
  8
WALL
100
AcDbLine
370
50
 10
126
 20
6.1500
 30
0
 11
156
 21
6.1500
 31
0
  0
TEXT
  5
593
100
AcDbEntity
  8
TEXT
100
AcDbText
 10
156.9000
 20
6
 30
0
 40
0.2500
  1
+6450 SECOND FLOOR SLAB
100
AcDbText
  0
LINE
  5
594
100
AcDbEntity
  8
WALL
100
AcDbLine
370
50
 10
126
 20
9
 30
0
 11
156
 21
9
 31
0
  0
LINE
  5
595
100
AcDbEntity
  8
WALL
100
AcDbLine
370
50
 10
126
 20
9.1500
 30
0
 11
156
 21
9.1500
 31
0
  0
TEXT
  5
596
100
AcDbEntity
  8
TEXT
100
AcDbText
 10
156.9000
 20
9
 30
0
 40
0.2500
  1
+9450 THIRD FLOOR SLAB
100
AcDbText
  0
LINE
  5
597
100
AcDbEntity
  8
WALL
100
AcDbLine
370
50
 10
126
 20
12
 30
0
 11
156
 21
12
 31
0
  0
LINE
  5
598
100
AcDbEntity
  8
WALL
100
AcDbLine
370
50
 10
126
 20
12.1500
 30
0
 11
156
 21
12.1500
 31
0
  0
TEXT
  5
599
100
AcDbEntity
  8
TEXT
100
AcDbText
 10
156.9000
 20
12
 30
0
 40
0.2500
  1
+12450 LEVEL 4
100
AcDbText
  0
LINE
  5
59A
100
AcDbEntity
  8
WALL
100
AcDbLine
370
50
 10
126
 20
15
 30
0
 11
156
 21
15
 31
0
  0
LINE
  5
59B
100
AcDbEntity
  8
WALL
100
AcDbLine
370
50
 10
126
 20
15.1500
 30
0
 11
156
 21
15.1500
 31
0
  0
TEXT
  5
59C
100
AcDbEntity
  8
TEXT
100
AcDbText
 10
156.9000
 20
15
 30
0
 40
0.2500
  1
+15450 LEVEL 5
100
AcDbText
  0
LINE
  5
59D
100
AcDbEntity
  8
WALL
100
AcDbLine
370
50
 10
126
 20
18
 30
0
 11
156
 21
18
 31
0
  0
LINE
  5
59E
100
AcDbEntity
  8
WALL
100
AcDbLine
370
50
 10
126
 20
18.1500
 30
0
 11
156
 21
18.1500
 31
0
  0
TEXT
  5
59F
100
AcDbEntity
  8
TEXT
100
AcDbText
 10
156.9000
 20
18
 30
0
 40
0.2500
  1
+18450 LEVEL 6
100
AcDbText
  0
LINE
  5
5A0
100
AcDbEntity
  8
WALL
100
AcDbLine
370
50
 10
126
 20
21
 30
0
 11
156
 21
21
 31
0
  0
LINE
  5
5A1
100
AcDbEntity
  8
WALL
100
AcDbLine
370
50
 10
126
 20
21.1500
 30
0
 11
156
 21
21.1500
 31
0
  0
TEXT
  5
5A2
100
AcDbEntity
  8
TEXT
100
AcDbText
 10
156.9000
 20
21
 30
0
 40
0.2500
  1
+21450 LEVEL 7
100
AcDbText
  0
LINE
  5
5A3
100
AcDbEntity
  8
WALL
100
AcDbLine
370
50
 10
126
 20
24
 30
0
 11
156
 21
24
 31
0
  0
LINE
  5
5A4
100
AcDbEntity
  8
WALL
100
AcDbLine
370
50
 10
126
 20
24.1500
 30
0
 11
156
 21
24.1500
 31
0
  0
TEXT
  5
5A5
100
AcDbEntity
  8
TEXT
100
AcDbText
 10
156.9000
 20
24
 30
0
 40
0.2500
  1
+24450 LEVEL 8
100
AcDbText
  0
LINE
  5
5A6
100
AcDbEntity
  8
WALL
100
AcDbLine
370
50
 10
126
 20
27
 30
0
 11
156
 21
27
 31
0
  0
LINE
  5
5A7
100
AcDbEntity
  8
WALL
100
AcDbLine
370
50
 10
126
 20
27.1500
 30
0
 11
156
 21
27.1500
 31
0
  0
TEXT
  5
5A8
100
AcDbEntity
  8
TEXT
100
AcDbText
 10
156.9000
 20
27
 30
0
 40
0.2500
  1
+27450 LEVEL 9
100
AcDbText
  0
LINE
  5
5A9
100
AcDbEntity
  8
WALL
100
AcDbLine
370
50
 10
126
 20
30
 30
0
 11
156
 21
30
 31
0
  0
LINE
  5
5AA
100
AcDbEntity
  8
WALL
100
AcDbLine
370
50
 10
126
 20
30.1500
 30
0
 11
156
 21
30.1500
 31
0
  0
TEXT
  5
5AB
100
AcDbEntity
  8
TEXT
100
AcDbText
 10
156.9000
 20
30
 30
0
 40
0.2500
  1
+30450 LEVEL 10
100
AcDbText
  0
LINE
  5
5AC
100
AcDbEntity
  8
WALL
100
AcDbLine
370
50
 10
126
 20
33
 30
0
 11
156
 21
33
 31
0
  0
LINE
  5
5AD
100
AcDbEntity
  8
WALL
100
AcDbLine
370
50
 10
126
 20
33.1500
 30
0
 11
156
 21
33.1500
 31
0
  0
TEXT
  5
5AE
100
AcDbEntity
  8
TEXT
100
AcDbText
 10
156.9000
 20
33
 30
0
 40
0.2500
  1
+33450 LEVEL 11
100
AcDbText
  0
LINE
  5
5AF
100
AcDbEntity
  8
WALL
100
AcDbLine
370
50
 10
126
 20
36
 30
0
 11
156
 21
36
 31
0
  0
LINE
  5
5B0
100
AcDbEntity
  8
WALL
100
AcDbLine
370
50
 10
126
 20
36.1500
 30
0
 11
156
 21
36.1500
 31
0
  0
TEXT
  5
5B1
100
AcDbEntity
  8
TEXT
100
AcDbText
 10
156.9000
 20
36
 30
0
 40
0.2500
  1
+36450 LEVEL 12
100
AcDbText
  0
LINE
  5
5B2
100
AcDbEntity
  8
WALL
100
AcDbLine
370
50
 10
126
 20
39
 30
0
 11
156
 21
39
 31
0
  0
LINE
  5
5B3
100
AcDbEntity
  8
WALL
100
AcDbLine
370
50
 10
126
 20
39.1500
 30
0
 11
156
 21
39.1500
 31
0
  0
TEXT
  5
5B4
100
AcDbEntity
  8
TEXT
100
AcDbText
 10
156.9000
 20
39
 30
0
 40
0.2500
  1
+39450 LEVEL 13
100
AcDbText
  0
LINE
  5
5B5
100
AcDbEntity
  8
WALL
100
AcDbLine
370
50
 10
126
 20
42
 30
0
 11
156
 21
42
 31
0
  0
LINE
  5
5B6
100
AcDbEntity
  8
WALL
100
AcDbLine
370
50
 10
126
 20
42.1500
 30
0
 11
156
 21
42.1500
 31
0
  0
TEXT
  5
5B7
100
AcDbEntity
  8
TEXT
100
AcDbText
 10
156.9000
 20
42
 30
0
 40
0.2500
  1
+42450 LEVEL 14
100
AcDbText
  0
LINE
  5
5B8
100
AcDbEntity
  8
WALL
100
AcDbLine
370
50
 10
126
 20
45
 30
0
 11
156
 21
45
 31
0
  0
LINE
  5
5B9
100
AcDbEntity
  8
WALL
100
AcDbLine
370
50
 10
126
 20
45.1500
 30
0
 11
156
 21
45.1500
 31
0
  0
TEXT
  5
5BA
100
AcDbEntity
  8
TEXT
100
AcDbText
 10
156.9000
 20
45
 30
0
 40
0.2500
  1
+45450 LEVEL 15
100
AcDbText
  0
LINE
  5
5BB
100
AcDbEntity
  8
WALL
100
AcDbLine
370
50
 10
126
 20
48
 30
0
 11
156
 21
48
 31
0
  0
LINE
  5
5BC
100
AcDbEntity
  8
WALL
100
AcDbLine
370
50
 10
126
 20
48.1500
 30
0
 11
156
 21
48.1500
 31
0
  0
TEXT
  5
5BD
100
AcDbEntity
  8
TEXT
100
AcDbText
 10
156.9000
 20
48
 30
0
 40
0.2500
  1
+48450 LEVEL 16
100
AcDbText
  0
LINE
  5
5BE
100
AcDbEntity
  8
WALL
100
AcDbLine
370
50
 10
126
 20
51
 30
0
 11
156
 21
51
 31
0
  0
LINE
  5
5BF
100
AcDbEntity
  8
WALL
100
AcDbLine
370
50
 10
126
 20
51.1500
 30
0
 11
156
 21
51.1500
 31
0
  0
TEXT
  5
5C0
100
AcDbEntity
  8
TEXT
100
AcDbText
 10
156.9000
 20
51
 30
0
 40
0.2500
  1
+51450 LEVEL 17
100
AcDbText
  0
LINE
  5
5C1
100
AcDbEntity
  8
WALL
100
AcDbLine
370
50
 10
126
 20
54
 30
0
 11
156
 21
54
 31
0
  0
LINE
  5
5C2
100
AcDbEntity
  8
WALL
100
AcDbLine
370
50
 10
126
 20
54.1500
 30
0
 11
156
 21
54.1500
 31
0
  0
TEXT
  5
5C3
100
AcDbEntity
  8
TEXT
100
AcDbText
 10
156.9000
 20
54
 30
0
 40
0.2500
  1
+54450 LEVEL 18
100
AcDbText
  0
LINE
  5
5C4
100
AcDbEntity
  8
WALL
100
AcDbLine
370
50
 10
126
 20
57
 30
0
 11
156
 21
57
 31
0
  0
LINE
  5
5C5
100
AcDbEntity
  8
WALL
100
AcDbLine
370
50
 10
126
 20
57.1500
 30
0
 11
156
 21
57.1500
 31
0
  0
TEXT
  5
5C6
100
AcDbEntity
  8
TEXT
100
AcDbText
 10
156.9000
 20
57
 30
0
 40
0.2500
  1
+57450 LEVEL 19
100
AcDbText
  0
LINE
  5
5C7
100
AcDbEntity
  8
WALL
100
AcDbLine
370
50
 10
126
 20
60
 30
0
 11
156
 21
60
 31
0
  0
LINE
  5
5C8
100
AcDbEntity
  8
WALL
100
AcDbLine
370
50
 10
126
 20
60.1500
 30
0
 11
156
 21
60.1500
 31
0
  0
TEXT
  5
5C9
100
AcDbEntity
  8
TEXT
100
AcDbText
 10
156.9000
 20
60
 30
0
 40
0.2500
  1
+60450 ROOF LEVEL
100
AcDbText
  0
TEXT
  5
5CA
100
AcDbEntity
  8
TEXT
100
AcDbText
 10
127
 20
1.5000
 30
0
 40
0.2200
  1
19 NOS RISERS OF 158MM EACH AND TREADS OF 275MM
100
AcDbText
  0
TEXT
  5
5CB
100
AcDbEntity
  8
TEXT
100
AcDbText
 10
126
 20
-3.2000
 30
0
 40
0.4500
  1
SECTION A-A
100
AcDbText
  0
ENDSEC
  0
EOF
