  0
SECTION
  2
HEADER
  9
$ACADVER
  1
AC1015
  9
$INSUNITS
 70
4
  9
$MEASUREMENT
 70
1
  9
$HANDSEED
  5
FFFF
  0
ENDSEC
  0
SECTION
  2
TABLES
  0
TABLE
  2
LTYPE
  5
369
100
AcDbSymbolTable
 70
1
  0
LTYPE
  5
36A
330
369
100
AcDbSymbolTableRecord
100
AcDbLinetypeTableRecord
  2
CONTINUOUS
 70
0
  3
Solid line
 72
65
 73
0
 40
0
  0
ENDTAB
  0
TABLE
  2
LAYER
  5
36B
100
AcDbSymbolTable
 70
7
  0
LAYER
  5
36C
330
36B
100
AcDbSymbolTableRecord
100
AcDbLayerTableRecord
  2
0
 70
0
 62
1
  6
CONTINUOUS
  0
LAYER
  5
36D
330
36B
100
AcDbSymbolTableRecord
100
AcDbLayerTableRecord
  2
WIND
 70
0
 62
2
  6
CONTINUOUS
  0
LAYER
  5
36E
330
36B
100
AcDbSymbolTableRecord
100
AcDbLayerTableRecord
  2
DOOR
 70
0
 62
3
  6
CONTINUOUS
  0
LAYER
  5
36F
330
36B
100
AcDbSymbolTableRecord
100
AcDbLayerTableRecord
  2
WALL
 70
0
 62
4
  6
CONTINUOUS
  0
LAYER
  5
370
330
36B
100
AcDbSymbolTableRecord
100
AcDbLayerTableRecord
  2
TEXT
 70
0
 62
5
  6
CONTINUOUS
  0
LAYER
  5
371
330
36B
100
AcDbSymbolTableRecord
100
AcDbLayerTableRecord
  2
SANITARY
 70
0
 62
6
  6
CONTINUOUS
  0
LAYER
  5
372
330
36B
100
AcDbSymbolTableRecord
100
AcDbLayerTableRecord
  2
DIM
 70
0
 62
7
  6
CONTINUOUS
  0
ENDTAB
  0
TABLE
  2
BLOCK_RECORD
  5
373
100
AcDbSymbolTable
 70
2
  0
BLOCK_RECORD
  5
374
330
373
100
AcDbSymbolTableRecord
100
AcDbBlockTableRecord
  2
*Model_Space
  0
BLOCK_RECORD
  5
375
330
373
100
AcDbSymbolTableRecord
100
AcDbBlockTableRecord
  2
*Paper_Space
  0
ENDTAB
  0
ENDSEC
  0
SECTION
  2
BLOCKS
  0
ENDSEC
  0
SECTION
  2
ENTITIES
  0
LWPOLYLINE
  5
100
100
AcDbEntity
  8
WIND
100
AcDbPolyline
 90
4
 70
1
 10
-60
 20
1500
 10
60
 20
1500
 10
60
 20
2700
 10
-60
 20
2700
  0
LWPOLYLINE
  5
101
100
AcDbEntity
  8
WIND
100
AcDbPolyline
 90
4
 70
1
 10
-60
 20
4800
 10
60
 20
4800
 10
60
 20
6000
 10
-60
 20
6000
  0
LWPOLYLINE
  5
102
100
AcDbEntity
  8
WIND
100
AcDbPolyline
 90
4
 70
1
 10
-60
 20
7950
 10
60
 20
7950
 10
60
 20
9150
 10
-60
 20
9150
  0
LWPOLYLINE
  5
103
100
AcDbEntity
  8
WIND
100
AcDbPolyline
 90
4
 70
1
 10
11340
 20
1500
 10
11460
 20
1500
 10
11460
 20
2700
 10
11340
 20
2700
  0
LWPOLYLINE
  5
104
100
AcDbEntity
  8
WIND
100
AcDbPolyline
 90
4
 70
1
 10
11340
 20
4800
 10
11460
 20
4800
 10
11460
 20
6000
 10
11340
 20
6000
  0
LWPOLYLINE
  5
105
100
AcDbEntity
  8
WIND
100
AcDbPolyline
 90
4
 70
1
 10
11340
 20
7950
 10
11460
 20
7950
 10
11460
 20
9150
 10
11340
 20
9150
  0
LWPOLYLINE
  5
106
100
AcDbEntity
  8
WIND
100
AcDbPolyline
 90
4
 70
1
 10
1650
 20
-60
 10
2850
 20
-60
 10
2850
 20
60
 10
1650
 20
60
  0
LWPOLYLINE
  5
107
100
AcDbEntity
  8
WIND
100
AcDbPolyline
 90
4
 70
1
 10
5550
 20
-60
 10
6750
 20
-60
 10
6750
 20
60
 10
5550
 20
60
  0
LWPOLYLINE
  5
108
100
AcDbEntity
  8
WIND
100
AcDbPolyline
 90
4
 70
1
 10
9000
 20
-60
 10
10200
 20
-60
 10
10200
 20
60
 10
9000
 20
60
  0
LWPOLYLINE
  5
109
100
AcDbEntity
  8
WIND
100
AcDbPolyline
 90
4
 70
1
 10
1650
 20
10440
 10
2850
 20
10440
 10
2850
 20
10560
 10
1650
 20
10560
  0
LWPOLYLINE
  5
10A
100
AcDbEntity
  8
WIND
100
AcDbPolyline
 90
4
 70
1
 10
5550
 20
10440
 10
6750
 20
10440
 10
6750
 20
10560
 10
5550
 20
10560
  0
LWPOLYLINE
  5
10B
100
AcDbEntity
  8
WIND
100
AcDbPolyline
 90
4
 70
1
 10
9000
 20
10440
 10
10200
 20
10440
 10
10200
 20
10560
 10
9000
 20
10560
  0
ARC
  5
10C
100
AcDbEntity
  8
DOOR
100
AcDbCircle
 10
4500
 20
1650
 30
0
 40
900
100
AcDbArc
 50
90
 51
180
  0
LINE
  5
10D
100
AcDbEntity
  8
DOOR
100
AcDbLine
 10
4500
 20
1650
 30
0
 11
3600
 21
1650
 31
0
  0
ARC
  5
10E
100
AcDbEntity
  8
DOOR
100
AcDbCircle
 10
4500
 20
8100
 30
0
 40
900
100
AcDbArc
 50
90
 51
180
  0
LINE
  5
10F
100
AcDbEntity
  8
DOOR
100
AcDbLine
 10
4500
 20
8100
 30
0
 11
3600
 21
8100
 31
0
  0
ARC
  5
110
100
AcDbEntity
  8
DOOR
100
AcDbCircle
 10
7800
 20
1650
 30
0
 40
900
100
AcDbArc
 50
90
 51
180
  0
LINE
  5
111
100
AcDbEntity
  8
DOOR
100
AcDbLine
 10
7800
 20
1650
 30
0
 11
6900
 21
1650
 31
0
  0
ARC
  5
112
100
AcDbEntity
  8
DOOR
100
AcDbCircle
 10
7800
 20
4950
 30
0
 40
900
100
AcDbArc
 50
90
 51
180
  0
LINE
  5
113
100
AcDbEntity
  8
DOOR
100
AcDbLine
 10
7800
 20
4950
 30
0
 11
6900
 21
4950
 31
0
  0
ARC
  5
114
100
AcDbEntity
  8
DOOR
100
AcDbCircle
 10
7800
 20
8100
 30
0
 40
900
100
AcDbArc
 50
90
 51
180
  0
LINE
  5
115
100
AcDbEntity
  8
DOOR
100
AcDbLine
 10
7800
 20
8100
 30
0
 11
6900
 21
8100
 31
0
  0
ARC
  5
116
100
AcDbEntity
  8
DOOR
100
AcDbCircle
 10
1800
 20
4200
 30
0
 40
900
100
AcDbArc
 50
0
 51
90
  0
LINE
  5
117
100
AcDbEntity
  8
DOOR
100
AcDbLine
 10
1800
 20
4200
 30
0
 11
1800
 21
5100
 31
0
  0
ARC
  5
118
100
AcDbEntity
  8
DOOR
100
AcDbCircle
 10
5700
 20
4200
 30
0
 40
900
100
AcDbArc
 50
0
 51
90
  0
LINE
  5
119
100
AcDbEntity
  8
DOOR
100
AcDbLine
 10
5700
 20
4200
 30
0
 11
5700
 21
5100
 31
0
  0
ARC
  5
11A
100
AcDbEntity
  8
DOOR
100
AcDbCircle
 10
9150
 20
4200
 30
0
 40
900
100
AcDbArc
 50
0
 51
90
  0
LINE
  5
11B
100
AcDbEntity
  8
DOOR
100
AcDbLine
 10
9150
 20
4200
 30
0
 11
9150
 21
5100
 31
0
  0
ARC
  5
11C
100
AcDbEntity
  8
DOOR
100
AcDbCircle
 10
5700
 20
6600
 30
0
 40
900
100
AcDbArc
 50
0
 51
90
  0
LINE
  5
11D
100
AcDbEntity
  8
DOOR
100
AcDbLine
 10
5700
 20
6600
 30
0
 11
5700
 21
7500
 31
0
  0
ARC
  5
11E
100
AcDbEntity
  8
DOOR
100
AcDbCircle
 10
9150
 20
6600
 30
0
 40
900
100
AcDbArc
 50
0
 51
90
  0
LINE
  5
11F
100
AcDbEntity
  8
DOOR
100
AcDbLine
 10
9150
 20
6600
 30
0
 11
9150
 21
7500
 31
0
  0
LINE
  5
120
100
AcDbEntity
  8
WALL
100
AcDbLine
370
50
 10
-112.5000
 20
0
 30
0
 11
-112.5000
 21
1500
 31
0
  0
LINE
  5
121
100
AcDbEntity
  8
WALL
100
AcDbLine
370
50
 10
112.5000
 20
1500
 30
0
 11
112.5000
 21
0
 31
0
  0
LINE
  5
122
100
AcDbEntity
  8
WALL
100
AcDbLine
 10
-112.5000
 20
0
 30
0
 11
112.5000
 21
225
 31
0
  0
LINE
  5
123
100
AcDbEntity
  8
WALL
100
AcDbLine
 10
-112.5000
 20
150
 30
0
 11
112.5000
 21
375
 31
0
  0
LINE
  5
124
100
AcDbEntity
  8
WALL
100
AcDbLine
 10
-112.5000
 20
300
 30
0
 11
112.5000
 21
525
 31
0
  0
LINE
  5
125
100
AcDbEntity
  8
WALL
100
AcDbLine
 10
-112.5000
 20
450
 30
0
 11
112.5000
 21
675
 31
0
  0
LINE
  5
126
100
AcDbEntity
  8
WALL
100
AcDbLine
 10
-112.5000
 20
600
 30
0
 11
112.5000
 21
825
 31
0
  0
LINE
  5
127
100
AcDbEntity
  8
WALL
100
AcDbLine
 10
-112.5000
 20
750
 30
0
 11
112.5000
 21
975
 31
0
  0
LINE
  5
128
100
AcDbEntity
  8
WALL
100
AcDbLine
 10
-112.5000
 20
900
 30
0
 11
112.5000
 21
1125
 31
0
  0
LINE
  5
129
100
AcDbEntity
  8
WALL
100
AcDbLine
 10
-112.5000
 20
1050
 30
0
 11
112.5000
 21
1275
 31
0
  0
LINE
  5
12A
100
AcDbEntity
  8
WALL
100
AcDbLine
 10
-112.5000
 20
1200
 30
0
 11
112.5000
 21
1425
 31
0
  0
LINE
  5
12B
100
AcDbEntity
  8
WALL
100
AcDbLine
370
50
 10
-112.5000
 20
2700
 30
0
 11
-112.5000
 21
4200
 31
0
  0
LINE
  5
12C
100
AcDbEntity
  8
WALL
100
AcDbLine
370
50
 10
112.5000
 20
4200
 30
0
 11
112.5000
 21
2700
 31
0
  0
LINE
  5
12D
100
AcDbEntity
  8
WALL
100
AcDbLine
 10
-112.5000
 20
2700
 30
0
 11
112.5000
 21
2925
 31
0
  0
LINE
  5
12E
100
AcDbEntity
  8
WALL
100
AcDbLine
 10
-112.5000
 20
2850
 30
0
 11
112.5000
 21
3075
 31
0
  0
LINE
  5
12F
100
AcDbEntity
  8
WALL
100
AcDbLine
 10
-112.5000
 20
3000
 30
0
 11
112.5000
 21
3225
 31
0
  0
LINE
  5
130
100
AcDbEntity
  8
WALL
100
AcDbLine
 10
-112.5000
 20
3150
 30
0
 11
112.5000
 21
3375
 31
0
  0
LINE
  5
131
100
AcDbEntity
  8
WALL
100
AcDbLine
 10
-112.5000
 20
3300
 30
0
 11
112.5000
 21
3525
 31
0
  0
LINE
  5
132
100
AcDbEntity
  8
WALL
100
AcDbLine
 10
-112.5000
 20
3450
 30
0
 11
112.5000
 21
3675
 31
0
  0
LINE
  5
133
100
AcDbEntity
  8
WALL
100
AcDbLine
 10
-112.5000
 20
3600
 30
0
 11
112.5000
 21
3825
 31
0
  0
LINE
  5
134
100
AcDbEntity
  8
WALL
100
AcDbLine
 10
-112.5000
 20
3750
 30
0
 11
112.5000
 21
3975
 31
0
  0
LINE
  5
135
100
AcDbEntity
  8
WALL
100
AcDbLine
 10
-112.5000
 20
3900
 30
0
 11
112.5000
 21
4125
 31
0
  0
LINE
  5
136
100
AcDbEntity
  8
WALL
100
AcDbLine
370
50
 10
-112.5000
 20
1500
 30
0
 11
112.5000
 21
1500
 31
0
  0
LINE
  5
137
100
AcDbEntity
  8
WALL
100
AcDbLine
370
50
 10
-112.5000
 20
2700
 30
0
 11
112.5000
 21
2700
 31
0
  0
LINE
  5
138
100
AcDbEntity
  8
WALL
100
AcDbLine
370
50
 10
-112.5000
 20
4200
 30
0
 11
-112.5000
 21
4800
 31
0
  0
LINE
  5
139
100
AcDbEntity
  8
WALL
100
AcDbLine
370
50
 10
112.5000
 20
4800
 30
0
 11
112.5000
 21
4200
 31
0
  0
LINE
  5
13A
100
AcDbEntity
  8
WALL
100
AcDbLine
 10
-112.5000
 20
4200
 30
0
 11
112.5000
 21
4425
 31
0
  0
LINE
  5
13B
100
AcDbEntity
  8
WALL
100
AcDbLine
 10
-112.5000
 20
4350
 30
0
 11
112.5000
 21
4575
 31
0
  0
LINE
  5
13C
100
AcDbEntity
  8
WALL
100
AcDbLine
 10
-112.5000
 20
4500
 30
0
 11
112.5000
 21
4725
 31
0
  0
LINE
  5
13D
100
AcDbEntity
  8
WALL
100
AcDbLine
370
50
 10
-112.5000
 20
6000
 30
0
 11
-112.5000
 21
6600
 31
0
  0
LINE
  5
13E
100
AcDbEntity
  8
WALL
100
AcDbLine
370
50
 10
112.5000
 20
6600
 30
0
 11
112.5000
 21
6000
 31
0
  0
LINE
  5
13F
100
AcDbEntity
  8
WALL
100
AcDbLine
 10
-112.5000
 20
6000
 30
0
 11
112.5000
 21
6225
 31
0
  0
LINE
  5
140
100
AcDbEntity
  8
WALL
100
AcDbLine
 10
-112.5000
 20
6150
 30
0
 11
112.5000
 21
6375
 31
0
  0
LINE
  5
141
100
AcDbEntity
  8
WALL
100
AcDbLine
 10
-112.5000
 20
6300
 30
0
 11
112.5000
 21
6525
 31
0
  0
LINE
  5
142
100
AcDbEntity
  8
WALL
100
AcDbLine
370
50
 10
-112.5000
 20
4800
 30
0
 11
112.5000
 21
4800
 31
0
  0
LINE
  5
143
100
AcDbEntity
  8
WALL
100
AcDbLine
370
50
 10
-112.5000
 20
6000
 30
0
 11
112.5000
 21
6000
 31
0
  0
LINE
  5
144
100
AcDbEntity
  8
WALL
100
AcDbLine
370
50
 10
-112.5000
 20
6600
 30
0
 11
-112.5000
 21
7950
 31
0
  0
LINE
  5
145
100
AcDbEntity
  8
WALL
100
AcDbLine
370
50
 10
112.5000
 20
7950
 30
0
 11
112.5000
 21
6600
 31
0
  0
LINE
  5
146
100
AcDbEntity
  8
WALL
100
AcDbLine
 10
-112.5000
 20
6600
 30
0
 11
112.5000
 21
6825
 31
0
  0
LINE
  5
147
100
AcDbEntity
  8
WALL
100
AcDbLine
 10
-112.5000
 20
6750
 30
0
 11
112.5000
 21
6975
 31
0
  0
LINE
  5
148
100
AcDbEntity
  8
WALL
100
AcDbLine
 10
-112.5000
 20
6900
 30
0
 11
112.5000
 21
7125
 31
0
  0
LINE
  5
149
100
AcDbEntity
  8
WALL
100
AcDbLine
 10
-112.5000
 20
7050
 30
0
 11
112.5000
 21
7275
 31
0
  0
LINE
  5
14A
100
AcDbEntity
  8
WALL
100
AcDbLine
 10
-112.5000
 20
7200
 30
0
 11
112.5000
 21
7425
 31
0
  0
LINE
  5
14B
100
AcDbEntity
  8
WALL
100
AcDbLine
 10
-112.5000
 20
7350
 30
0
 11
112.5000
 21
7575
 31
0
  0
LINE
  5
14C
100
AcDbEntity
  8
WALL
100
AcDbLine
 10
-112.5000
 20
7500
 30
0
 11
112.5000
 21
7725
 31
0
  0
LINE
  5
14D
100
AcDbEntity
  8
WALL
100
AcDbLine
 10
-112.5000
 20
7650
 30
0
 11
112.5000
 21
7875
 31
0
  0
LINE
  5
14E
100
AcDbEntity
  8
WALL
100
AcDbLine
370
50
 10
-112.5000
 20
9150
 30
0
 11
-112.5000
 21
10500
 31
0
  0
LINE
  5
14F
100
AcDbEntity
  8
WALL
100
AcDbLine
370
50
 10
112.5000
 20
10500
 30
0
 11
112.5000
 21
9150
 31
0
  0
LINE
  5
150
100
AcDbEntity
  8
WALL
100
AcDbLine
 10
-112.5000
 20
9150
 30
0
 11
112.5000
 21
9375
 31
0
  0
LINE
  5
151
100
AcDbEntity
  8
WALL
100
AcDbLine
 10
-112.5000
 20
9300
 30
0
 11
112.5000
 21
9525
 31
0
  0
LINE
  5
152
100
AcDbEntity
  8
WALL
100
AcDbLine
 10
-112.5000
 20
9450
 30
0
 11
112.5000
 21
9675
 31
0
  0
LINE
  5
153
100
AcDbEntity
  8
WALL
100
AcDbLine
 10
-112.5000
 20
9600
 30
0
 11
112.5000
 21
9825
 31
0
  0
LINE
  5
154
100
AcDbEntity
  8
WALL
100
AcDbLine
 10
-112.5000
 20
9750
 30
0
 11
112.5000
 21
9975
 31
0
  0
LINE
  5
155
100
AcDbEntity
  8
WALL
100
AcDbLine
 10
-112.5000
 20
9900
 30
0
 11
112.5000
 21
10125
 31
0
  0
LINE
  5
156
100
AcDbEntity
  8
WALL
100
AcDbLine
 10
-112.5000
 20
10050
 30
0
 11
112.5000
 21
10275
 31
0
  0
LINE
  5
157
100
AcDbEntity
  8
WALL
100
AcDbLine
 10
-112.5000
 20
10200
 30
0
 11
112.5000
 21
10425
 31
0
  0
LINE
  5
158
100
AcDbEntity
  8
WALL
100
AcDbLine
370
50
 10
-112.5000
 20
7950
 30
0
 11
112.5000
 21
7950
 31
0
  0
LINE
  5
159
100
AcDbEntity
  8
WALL
100
AcDbLine
370
50
 10
-112.5000
 20
9150
 30
0
 11
112.5000
 21
9150
 31
0
  0
LINE
  5
15A
100
AcDbEntity
  8
WALL
100
AcDbLine
370
50
 10
11287.5000
 20
0
 30
0
 11
11287.5000
 21
1500
 31
0
  0
LINE
  5
15B
100
AcDbEntity
  8
WALL
100
AcDbLine
370
50
 10
11512.5000
 20
1500
 30
0
 11
11512.5000
 21
0
 31
0
  0
LINE
  5
15C
100
AcDbEntity
  8
WALL
100
AcDbLine
 10
11287.5000
 20
0
 30
0
 11
11512.5000
 21
225
 31
0
  0
LINE
  5
15D
100
AcDbEntity
  8
WALL
100
AcDbLine
 10
11287.5000
 20
150
 30
0
 11
11512.5000
 21
375
 31
0
  0
LINE
  5
15E
100
AcDbEntity
  8
WALL
100
AcDbLine
 10
11287.5000
 20
300
 30
0
 11
11512.5000
 21
525
 31
0
  0
LINE
  5
15F
100
AcDbEntity
  8
WALL
100
AcDbLine
 10
11287.5000
 20
450
 30
0
 11
11512.5000
 21
675
 31
0
  0
LINE
  5
160
100
AcDbEntity
  8
WALL
100
AcDbLine
 10
11287.5000
 20
600
 30
0
 11
11512.5000
 21
825
 31
0
  0
LINE
  5
161
100
AcDbEntity
  8
WALL
100
AcDbLine
 10
11287.5000
 20
750
 30
0
 11
11512.5000
 21
975
 31
0
  0
LINE
  5
162
100
AcDbEntity
  8
WALL
100
AcDbLine
 10
11287.5000
 20
900
 30
0
 11
11512.5000
 21
1125
 31
0
  0
LINE
  5
163
100
AcDbEntity
  8
WALL
100
AcDbLine
 10
11287.5000
 20
1050
 30
0
 11
11512.5000
 21
1275
 31
0
  0
LINE
  5
164
100
AcDbEntity
  8
WALL
100
AcDbLine
 10
11287.5000
 20
1200
 30
0
 11
11512.5000
 21
1425
 31
0
  0
LINE
  5
165
100
AcDbEntity
  8
WALL
100
AcDbLine
370
50
 10
11287.5000
 20
2700
 30
0
 11
11287.5000
 21
4200
 31
0
  0
LINE
  5
166
100
AcDbEntity
  8
WALL
100
AcDbLine
370
50
 10
11512.5000
 20
4200
 30
0
 11
11512.5000
 21
2700
 31
0
  0
LINE
  5
167
100
AcDbEntity
  8
WALL
100
AcDbLine
 10
11287.5000
 20
2700
 30
0
 11
11512.5000
 21
2925
 31
0
  0
LINE
  5
168
100
AcDbEntity
  8
WALL
100
AcDbLine
 10
11287.5000
 20
2850
 30
0
 11
11512.5000
 21
3075
 31
0
  0
LINE
  5
169
100
AcDbEntity
  8
WALL
100
AcDbLine
 10
11287.5000
 20
3000
 30
0
 11
11512.5000
 21
3225
 31
0
  0
LINE
  5
16A
100
AcDbEntity
  8
WALL
100
AcDbLine
 10
11287.5000
 20
3150
 30
0
 11
11512.5000
 21
3375
 31
0
  0
LINE
  5
16B
100
AcDbEntity
  8
WALL
100
AcDbLine
 10
11287.5000
 20
3300
 30
0
 11
11512.5000
 21
3525
 31
0
  0
LINE
  5
16C
100
AcDbEntity
  8
WALL
100
AcDbLine
 10
11287.5000
 20
3450
 30
0
 11
11512.5000
 21
3675
 31
0
  0
LINE
  5
16D
100
AcDbEntity
  8
WALL
100
AcDbLine
 10
11287.5000
 20
3600
 30
0
 11
11512.5000
 21
3825
 31
0
  0
LINE
  5
16E
100
AcDbEntity
  8
WALL
100
AcDbLine
 10
11287.5000
 20
3750
 30
0
 11
11512.5000
 21
3975
 31
0
  0
LINE
  5
16F
100
AcDbEntity
  8
WALL
100
AcDbLine
 10
11287.5000
 20
3900
 30
0
 11
11512.5000
 21
4125
 31
0
  0
LINE
  5
170
100
AcDbEntity
  8
WALL
100
AcDbLine
370
50
 10
11287.5000
 20
1500
 30
0
 11
11512.5000
 21
1500
 31
0
  0
LINE
  5
171
100
AcDbEntity
  8
WALL
100
AcDbLine
370
50
 10
11287.5000
 20
2700
 30
0
 11
11512.5000
 21
2700
 31
0
  0
LINE
  5
172
100
AcDbEntity
  8
WALL
100
AcDbLine
370
50
 10
11287.5000
 20
4200
 30
0
 11
11287.5000
 21
4800
 31
0
  0
LINE
  5
173
100
AcDbEntity
  8
WALL
100
AcDbLine
370
50
 10
11512.5000
 20
4800
 30
0
 11
11512.5000
 21
4200
 31
0
  0
LINE
  5
174
100
AcDbEntity
  8
WALL
100
AcDbLine
 10
11287.5000
 20
4200
 30
0
 11
11512.5000
 21
4425
 31
0
  0
LINE
  5
175
100
AcDbEntity
  8
WALL
100
AcDbLine
 10
11287.5000
 20
4350
 30
0
 11
11512.5000
 21
4575
 31
0
  0
LINE
  5
176
100
AcDbEntity
  8
WALL
100
AcDbLine
 10
11287.5000
 20
4500
 30
0
 11
11512.5000
 21
4725
 31
0
  0
LINE
  5
177
100
AcDbEntity
  8
WALL
100
AcDbLine
370
50
 10
11287.5000
 20
6000
 30
0
 11
11287.5000
 21
6600
 31
0
  0
LINE
  5
178
100
AcDbEntity
  8
WALL
100
AcDbLine
370
50
 10
11512.5000
 20
6600
 30
0
 11
11512.5000
 21
6000
 31
0
  0
LINE
  5
179
100
AcDbEntity
  8
WALL
100
AcDbLine
 10
11287.5000
 20
6000
 30
0
 11
11512.5000
 21
6225
 31
0
  0
LINE
  5
17A
100
AcDbEntity
  8
WALL
100
AcDbLine
 10
11287.5000
 20
6150
 30
0
 11
11512.5000
 21
6375
 31
0
  0
LINE
  5
17B
100
AcDbEntity
  8
WALL
100
AcDbLine
 10
11287.5000
 20
6300
 30
0
 11
11512.5000
 21
6525
 31
0
  0
LINE
  5
17C
100
AcDbEntity
  8
WALL
100
AcDbLine
370
50
 10
11287.5000
 20
4800
 30
0
 11
11512.5000
 21
4800
 31
0
  0
LINE
  5
17D
100
AcDbEntity
  8
WALL
100
AcDbLine
370
50
 10
11287.5000
 20
6000
 30
0
 11
11512.5000
 21
6000
 31
0
  0
LINE
  5
17E
100
AcDbEntity
  8
WALL
100
AcDbLine
370
50
 10
11287.5000
 20
6600
 30
0
 11
11287.5000
 21
7950
 31
0
  0
LINE
  5
17F
100
AcDbEntity
  8
WALL
100
AcDbLine
370
50
 10
11512.5000
 20
7950
 30
0
 11
11512.5000
 21
6600
 31
0
  0
LINE
  5
180
100
AcDbEntity
  8
WALL
100
AcDbLine
 10
11287.5000
 20
6600
 30
0
 11
11512.5000
 21
6825
 31
0
  0
LINE
  5
181
100
AcDbEntity
  8
WALL
100
AcDbLine
 10
11287.5000
 20
6750
 30
0
 11
11512.5000
 21
6975
 31
0
  0
LINE
  5
182
100
AcDbEntity
  8
WALL
100
AcDbLine
 10
11287.5000
 20
6900
 30
0
 11
11512.5000
 21
7125
 31
0
  0
LINE
  5
183
100
AcDbEntity
  8
WALL
100
AcDbLine
 10
11287.5000
 20
7050
 30
0
 11
11512.5000
 21
7275
 31
0
  0
LINE
  5
184
100
AcDbEntity
  8
WALL
100
AcDbLine
 10
11287.5000
 20
7200
 30
0
 11
11512.5000
 21
7425
 31
0
  0
LINE
  5
185
100
AcDbEntity
  8
WALL
100
AcDbLine
 10
11287.5000
 20
7350
 30
0
 11
11512.5000
 21
7575
 31
0
  0
LINE
  5
186
100
AcDbEntity
  8
WALL
100
AcDbLine
 10
11287.5000
 20
7500
 30
0
 11
11512.5000
 21
7725
 31
0
  0
LINE
  5
187
100
AcDbEntity
  8
WALL
100
AcDbLine
 10
11287.5000
 20
7650
 30
0
 11
11512.5000
 21
7875
 31
0
  0
LINE
  5
188
100
AcDbEntity
  8
WALL
100
AcDbLine
370
50
 10
11287.5000
 20
9150
 30
0
 11
11287.5000
 21
10500
 31
0
  0
LINE
  5
189
100
AcDbEntity
  8
WALL
100
AcDbLine
370
50
 10
11512.5000
 20
10500
 30
0
 11
11512.5000
 21
9150
 31
0
  0
LINE
  5
18A
100
AcDbEntity
  8
WALL
100
AcDbLine
 10
11287.5000
 20
9150
 30
0
 11
11512.5000
 21
9375
 31
0
  0
LINE
  5
18B
100
AcDbEntity
  8
WALL
100
AcDbLine
 10
11287.5000
 20
9300
 30
0
 11
11512.5000
 21
9525
 31
0
  0
LINE
  5
18C
100
AcDbEntity
  8
WALL
100
AcDbLine
 10
11287.5000
 20
9450
 30
0
 11
11512.5000
 21
9675
 31
0
  0
LINE
  5
18D
100
AcDbEntity
  8
WALL
100
AcDbLine
 10
11287.5000
 20
9600
 30
0
 11
11512.5000
 21
9825
 31
0
  0
LINE
  5
18E
100
AcDbEntity
  8
WALL
100
AcDbLine
 10
11287.5000
 20
9750
 30
0
 11
11512.5000
 21
9975
 31
0
  0
LINE
  5
18F
100
AcDbEntity
  8
WALL
100
AcDbLine
 10
11287.5000
 20
9900
 30
0
 11
11512.5000
 21
10125
 31
0
  0
LINE
  5
190
100
AcDbEntity
  8
WALL
100
AcDbLine
 10
11287.5000
 20
10050
 30
0
 11
11512.5000
 21
10275
 31
0
  0
LINE
  5
191
100
AcDbEntity
  8
WALL
100
AcDbLine
 10
11287.5000
 20
10200
 30
0
 11
11512.5000
 21
10425
 31
0
  0
LINE
  5
192
100
AcDbEntity
  8
WALL
100
AcDbLine
370
50
 10
11287.5000
 20
7950
 30
0
 11
11512.5000
 21
7950
 31
0
  0
LINE
  5
193
100
AcDbEntity
  8
WALL
100
AcDbLine
370
50
 10
11287.5000
 20
9150
 30
0
 11
11512.5000
 21
9150
 31
0
  0
LINE
  5
194
100
AcDbEntity
  8
WALL
100
AcDbLine
370
50
 10
0
 20
-112.5000
 30
0
 11
1650
 21
-112.5000
 31
0
  0
LINE
  5
195
100
AcDbEntity
  8
WALL
100
AcDbLine
370
50
 10
1650
 20
112.5000
 30
0
 11
0
 21
112.5000
 31
0
  0
LINE
  5
196
100
AcDbEntity
  8
WALL
100
AcDbLine
 10
0
 20
-112.5000
 30
0
 11
225
 21
112.5000
 31
0
  0
LINE
  5
197
100
AcDbEntity
  8
WALL
100
AcDbLine
 10
150
 20
-112.5000
 30
0
 11
375
 21
112.5000
 31
0
  0
LINE
  5
198
100
AcDbEntity
  8
WALL
100
AcDbLine
 10
300
 20
-112.5000
 30
0
 11
525
 21
112.5000
 31
0
  0
LINE
  5
199
100
AcDbEntity
  8
WALL
100
AcDbLine
 10
450
 20
-112.5000
 30
0
 11
675
 21
112.5000
 31
0
  0
LINE
  5
19A
100
AcDbEntity
  8
WALL
100
AcDbLine
 10
600
 20
-112.5000
 30
0
 11
825
 21
112.5000
 31
0
  0
LINE
  5
19B
100
AcDbEntity
  8
WALL
100
AcDbLine
 10
750
 20
-112.5000
 30
0
 11
975
 21
112.5000
 31
0
  0
LINE
  5
19C
100
AcDbEntity
  8
WALL
100
AcDbLine
 10
900
 20
-112.5000
 30
0
 11
1125
 21
112.5000
 31
0
  0
LINE
  5
19D
100
AcDbEntity
  8
WALL
100
AcDbLine
 10
1050
 20
-112.5000
 30
0
 11
1275
 21
112.5000
 31
0
  0
LINE
  5
19E
100
AcDbEntity
  8
WALL
100
AcDbLine
 10
1200
 20
-112.5000
 30
0
 11
1425
 21
112.5000
 31
0
  0
LINE
  5
19F
100
AcDbEntity
  8
WALL
100
AcDbLine
 10
1350
 20
-112.5000
 30
0
 11
1575
 21
112.5000
 31
0
  0
LINE
  5
1A0
100
AcDbEntity
  8
WALL
100
AcDbLine
370
50
 10
2850
 20
-112.5000
 30
0
 11
4500
 21
-112.5000
 31
0
  0
LINE
  5
1A1
100
AcDbEntity
  8
WALL
100
AcDbLine
370
50
 10
4500
 20
112.5000
 30
0
 11
2850
 21
112.5000
 31
0
  0
LINE
  5
1A2
100
AcDbEntity
  8
WALL
100
AcDbLine
 10
2850
 20
-112.5000
 30
0
 11
3075
 21
112.5000
 31
0
  0
LINE
  5
1A3
100
AcDbEntity
  8
WALL
100
AcDbLine
 10
3000
 20
-112.5000
 30
0
 11
3225
 21
112.5000
 31
0
  0
LINE
  5
1A4
100
AcDbEntity
  8
WALL
100
AcDbLine
 10
3150
 20
-112.5000
 30
0
 11
3375
 21
112.5000
 31
0
  0
LINE
  5
1A5
100
AcDbEntity
  8
WALL
100
AcDbLine
 10
3300
 20
-112.5000
 30
0
 11
3525
 21
112.5000
 31
0
  0
LINE
  5
1A6
100
AcDbEntity
  8
WALL
100
AcDbLine
 10
3450
 20
-112.5000
 30
0
 11
3675
 21
112.5000
 31
0
  0
LINE
  5
1A7
100
AcDbEntity
  8
WALL
100
AcDbLine
 10
3600
 20
-112.5000
 30
0
 11
3825
 21
112.5000
 31
0
  0
LINE
  5
1A8
100
AcDbEntity
  8
WALL
100
AcDbLine
 10
3750
 20
-112.5000
 30
0
 11
3975
 21
112.5000
 31
0
  0
LINE
  5
1A9
100
AcDbEntity
  8
WALL
100
AcDbLine
 10
3900
 20
-112.5000
 30
0
 11
4125
 21
112.5000
 31
0
  0
LINE
  5
1AA
100
AcDbEntity
  8
WALL
100
AcDbLine
 10
4050
 20
-112.5000
 30
0
 11
4275
 21
112.5000
 31
0
  0
LINE
  5
1AB
100
AcDbEntity
  8
WALL
100
AcDbLine
 10
4200
 20
-112.5000
 30
0
 11
4425
 21
112.5000
 31
0
  0
LINE
  5
1AC
100
AcDbEntity
  8
WALL
100
AcDbLine
370
50
 10
1650
 20
-112.5000
 30
0
 11
1650
 21
112.5000
 31
0
  0
LINE
  5
1AD
100
AcDbEntity
  8
WALL
100
AcDbLine
370
50
 10
2850
 20
-112.5000
 30
0
 11
2850
 21
112.5000
 31
0
  0
LINE
  5
1AE
100
AcDbEntity
  8
WALL
100
AcDbLine
370
50
 10
4500
 20
-112.5000
 30
0
 11
5550
 21
-112.5000
 31
0
  0
LINE
  5
1AF
100
AcDbEntity
  8
WALL
100
AcDbLine
370
50
 10
5550
 20
112.5000
 30
0
 11
4500
 21
112.5000
 31
0
  0
LINE
  5
1B0
100
AcDbEntity
  8
WALL
100
AcDbLine
 10
4500
 20
-112.5000
 30
0
 11
4725
 21
112.5000
 31
0
  0
LINE
  5
1B1
100
AcDbEntity
  8
WALL
100
AcDbLine
 10
4650
 20
-112.5000
 30
0
 11
4875
 21
112.5000
 31
0
  0
LINE
  5
1B2
100
AcDbEntity
  8
WALL
100
AcDbLine
 10
4800
 20
-112.5000
 30
0
 11
5025
 21
112.5000
 31
0
  0
LINE
  5
1B3
100
AcDbEntity
  8
WALL
100
AcDbLine
 10
4950
 20
-112.5000
 30
0
 11
5175
 21
112.5000
 31
0
  0
LINE
  5
1B4
100
AcDbEntity
  8
WALL
100
AcDbLine
 10
5100
 20
-112.5000
 30
0
 11
5325
 21
112.5000
 31
0
  0
LINE
  5
1B5
100
AcDbEntity
  8
WALL
100
AcDbLine
 10
5250
 20
-112.5000
 30
0
 11
5475
 21
112.5000
 31
0
  0
LINE
  5
1B6
100
AcDbEntity
  8
WALL
100
AcDbLine
370
50
 10
6750
 20
-112.5000
 30
0
 11
7800
 21
-112.5000
 31
0
  0
LINE
  5
1B7
100
AcDbEntity
  8
WALL
100
AcDbLine
370
50
 10
7800
 20
112.5000
 30
0
 11
6750
 21
112.5000
 31
0
  0
LINE
  5
1B8
100
AcDbEntity
  8
WALL
100
AcDbLine
 10
6750
 20
-112.5000
 30
0
 11
6975
 21
112.5000
 31
0
  0
LINE
  5
1B9
100
AcDbEntity
  8
WALL
100
AcDbLine
 10
6900
 20
-112.5000
 30
0
 11
7125
 21
112.5000
 31
0
  0
LINE
  5
1BA
100
AcDbEntity
  8
WALL
100
AcDbLine
 10
7050
 20
-112.5000
 30
0
 11
7275
 21
112.5000
 31
0
  0
LINE
  5
1BB
100
AcDbEntity
  8
WALL
100
AcDbLine
 10
7200
 20
-112.5000
 30
0
 11
7425
 21
112.5000
 31
0
  0
LINE
  5
1BC
100
AcDbEntity
  8
WALL
100
AcDbLine
 10
7350
 20
-112.5000
 30
0
 11
7575
 21
112.5000
 31
0
  0
LINE
  5
1BD
100
AcDbEntity
  8
WALL
100
AcDbLine
 10
7500
 20
-112.5000
 30
0
 11
7725
 21
112.5000
 31
0
  0
LINE
  5
1BE
100
AcDbEntity
  8
WALL
100
AcDbLine
370
50
 10
5550
 20
-112.5000
 30
0
 11
5550
 21
112.5000
 31
0
  0
LINE
  5
1BF
100
AcDbEntity
  8
WALL
100
AcDbLine
370
50
 10
6750
 20
-112.5000
 30
0
 11
6750
 21
112.5000
 31
0
  0
LINE
  5
1C0
100
AcDbEntity
  8
WALL
100
AcDbLine
370
50
 10
7800
 20
-112.5000
 30
0
 11
9000
 21
-112.5000
 31
0
  0
LINE
  5
1C1
100
AcDbEntity
  8
WALL
100
AcDbLine
370
50
 10
9000
 20
112.5000
 30
0
 11
7800
 21
112.5000
 31
0
  0
LINE
  5
1C2
100
AcDbEntity
  8
WALL
100
AcDbLine
 10
7800
 20
-112.5000
 30
0
 11
8025
 21
112.5000
 31
0
  0
LINE
  5
1C3
100
AcDbEntity
  8
WALL
100
AcDbLine
 10
7950
 20
-112.5000
 30
0
 11
8175
 21
112.5000
 31
0
  0
LINE
  5
1C4
100
AcDbEntity
  8
WALL
100
AcDbLine
 10
8100
 20
-112.5000
 30
0
 11
8325
 21
112.5000
 31
0
  0
LINE
  5
1C5
100
AcDbEntity
  8
WALL
100
AcDbLine
 10
8250
 20
-112.5000
 30
0
 11
8475
 21
112.5000
 31
0
  0
LINE
  5
1C6
100
AcDbEntity
  8
WALL
100
AcDbLine
 10
8400
 20
-112.5000
 30
0
 11
8625
 21
112.5000
 31
0
  0
LINE
  5
1C7
100
AcDbEntity
  8
WALL
100
AcDbLine
 10
8550
 20
-112.5000
 30
0
 11
8775
 21
112.5000
 31
0
  0
LINE
  5
1C8
100
AcDbEntity
  8
WALL
100
AcDbLine
 10
8700
 20
-112.5000
 30
0
 11
8925
 21
112.5000
 31
0
  0
LINE
  5
1C9
100
AcDbEntity
  8
WALL
100
AcDbLine
370
50
 10
10200
 20
-112.5000
 30
0
 11
11400
 21
-112.5000
 31
0
  0
LINE
  5
1CA
100
AcDbEntity
  8
WALL
100
AcDbLine
370
50
 10
11400
 20
112.5000
 30
0
 11
10200
 21
112.5000
 31
0
  0
LINE
  5
1CB
100
AcDbEntity
  8
WALL
100
AcDbLine
 10
10200
 20
-112.5000
 30
0
 11
10425
 21
112.5000
 31
0
  0
LINE
  5
1CC
100
AcDbEntity
  8
WALL
100
AcDbLine
 10
10350
 20
-112.5000
 30
0
 11
10575
 21
112.5000
 31
0
  0
LINE
  5
1CD
100
AcDbEntity
  8
WALL
100
AcDbLine
 10
10500
 20
-112.5000
 30
0
 11
10725
 21
112.5000
 31
0
  0
LINE
  5
1CE
100
AcDbEntity
  8
WALL
100
AcDbLine
 10
10650
 20
-112.5000
 30
0
 11
10875
 21
112.5000
 31
0
  0
LINE
  5
1CF
100
AcDbEntity
  8
WALL
100
AcDbLine
 10
10800
 20
-112.5000
 30
0
 11
11025
 21
112.5000
 31
0
  0
LINE
  5
1D0
100
AcDbEntity
  8
WALL
100
AcDbLine
 10
10950
 20
-112.5000
 30
0
 11
11175
 21
112.5000
 31
0
  0
LINE
  5
1D1
100
AcDbEntity
  8
WALL
100
AcDbLine
 10
11100
 20
-112.5000
 30
0
 11
11325
 21
112.5000
 31
0
  0
LINE
  5
1D2
100
AcDbEntity
  8
WALL
100
AcDbLine
370
50
 10
9000
 20
-112.5000
 30
0
 11
9000
 21
112.5000
 31
0
  0
LINE
  5
1D3
100
AcDbEntity
  8
WALL
100
AcDbLine
370
50
 10
10200
 20
-112.5000
 30
0
 11
10200
 21
112.5000
 31
0
  0
LINE
  5
1D4
100
AcDbEntity
  8
WALL
100
AcDbLine
370
50
 10
0
 20
10387.5000
 30
0
 11
1650
 21
10387.5000
 31
0
  0
LINE
  5
1D5
100
AcDbEntity
  8
WALL
100
AcDbLine
370
50
 10
1650
 20
10612.5000
 30
0
 11
0
 21
10612.5000
 31
0
  0
LINE
  5
1D6
100
AcDbEntity
  8
WALL
100
AcDbLine
 10
0
 20
10387.5000
 30
0
 11
225
 21
10612.5000
 31
0
  0
LINE
  5
1D7
100
AcDbEntity
  8
WALL
100
AcDbLine
 10
150
 20
10387.5000
 30
0
 11
375
 21
10612.5000
 31
0
  0
LINE
  5
1D8
100
AcDbEntity
  8
WALL
100
AcDbLine
 10
300
 20
10387.5000
 30
0
 11
525
 21
10612.5000
 31
0
  0
LINE
  5
1D9
100
AcDbEntity
  8
WALL
100
AcDbLine
 10
450
 20
10387.5000
 30
0
 11
675
 21
10612.5000
 31
0
  0
LINE
  5
1DA
100
AcDbEntity
  8
WALL
100
AcDbLine
 10
600
 20
10387.5000
 30
0
 11
825
 21
10612.5000
 31
0
  0
LINE
  5
1DB
100
AcDbEntity
  8
WALL
100
AcDbLine
 10
750
 20
10387.5000
 30
0
 11
975
 21
10612.5000
 31
0
  0
LINE
  5
1DC
100
AcDbEntity
  8
WALL
100
AcDbLine
 10
900
 20
10387.5000
 30
0
 11
1125
 21
10612.5000
 31
0
  0
LINE
  5
1DD
100
AcDbEntity
  8
WALL
100
AcDbLine
 10
1050
 20
10387.5000
 30
0
 11
1275
 21
10612.5000
 31
0
  0
LINE
  5
1DE
100
AcDbEntity
  8
WALL
100
AcDbLine
 10
1200
 20
10387.5000
 30
0
 11
1425
 21
10612.5000
 31
0
  0
LINE
  5
1DF
100
AcDbEntity
  8
WALL
100
AcDbLine
 10
1350
 20
10387.5000
 30
0
 11
1575
 21
10612.5000
 31
0
  0
LINE
  5
1E0
100
AcDbEntity
  8
WALL
100
AcDbLine
370
50
 10
2850
 20
10387.5000
 30
0
 11
4500
 21
10387.5000
 31
0
  0
LINE
  5
1E1
100
AcDbEntity
  8
WALL
100
AcDbLine
370
50
 10
4500
 20
10612.5000
 30
0
 11
2850
 21
10612.5000
 31
0
  0
LINE
  5
1E2
100
AcDbEntity
  8
WALL
100
AcDbLine
 10
2850
 20
10387.5000
 30
0
 11
3075
 21
10612.5000
 31
0
  0
LINE
  5
1E3
100
AcDbEntity
  8
WALL
100
AcDbLine
 10
3000
 20
10387.5000
 30
0
 11
3225
 21
10612.5000
 31
0
  0
LINE
  5
1E4
100
AcDbEntity
  8
WALL
100
AcDbLine
 10
3150
 20
10387.5000
 30
0
 11
3375
 21
10612.5000
 31
0
  0
LINE
  5
1E5
100
AcDbEntity
  8
WALL
100
AcDbLine
 10
3300
 20
10387.5000
 30
0
 11
3525
 21
10612.5000
 31
0
  0
LINE
  5
1E6
100
AcDbEntity
  8
WALL
100
AcDbLine
 10
3450
 20
10387.5000
 30
0
 11
3675
 21
10612.5000
 31
0
  0
LINE
  5
1E7
100
AcDbEntity
  8
WALL
100
AcDbLine
 10
3600
 20
10387.5000
 30
0
 11
3825
 21
10612.5000
 31
0
  0
LINE
  5
1E8
100
AcDbEntity
  8
WALL
100
AcDbLine
 10
3750
 20
10387.5000
 30
0
 11
3975
 21
10612.5000
 31
0
  0
LINE
  5
1E9
100
AcDbEntity
  8
WALL
100
AcDbLine
 10
3900
 20
10387.5000
 30
0
 11
4125
 21
10612.5000
 31
0
  0
LINE
  5
1EA
100
AcDbEntity
  8
WALL
100
AcDbLine
 10
4050
 20
10387.5000
 30
0
 11
4275
 21
10612.5000
 31
0
  0
LINE
  5
1EB
100
AcDbEntity
  8
WALL
100
AcDbLine
 10
4200
 20
10387.5000
 30
0
 11
4425
 21
10612.5000
 31
0
  0
LINE
  5
1EC
100
AcDbEntity
  8
WALL
100
AcDbLine
370
50
 10
1650
 20
10387.5000
 30
0
 11
1650
 21
10612.5000
 31
0
  0
LINE
  5
1ED
100
AcDbEntity
  8
WALL
100
AcDbLine
370
50
 10
2850
 20
10387.5000
 30
0
 11
2850
 21
10612.5000
 31
0
  0
LINE
  5
1EE
100
AcDbEntity
  8
WALL
100
AcDbLine
370
50
 10
4500
 20
10387.5000
 30
0
 11
5550
 21
10387.5000
 31
0
  0
LINE
  5
1EF
100
AcDbEntity
  8
WALL
100
AcDbLine
370
50
 10
5550
 20
10612.5000
 30
0
 11
4500
 21
10612.5000
 31
0
  0
LINE
  5
1F0
100
AcDbEntity
  8
WALL
100
AcDbLine
 10
4500
 20
10387.5000
 30
0
 11
4725
 21
10612.5000
 31
0
  0
LINE
  5
1F1
100
AcDbEntity
  8
WALL
100
AcDbLine
 10
4650
 20
10387.5000
 30
0
 11
4875
 21
10612.5000
 31
0
  0
LINE
  5
1F2
100
AcDbEntity
  8
WALL
100
AcDbLine
 10
4800
 20
10387.5000
 30
0
 11
5025
 21
10612.5000
 31
0
  0
LINE
  5
1F3
100
AcDbEntity
  8
WALL
100
AcDbLine
 10
4950
 20
10387.5000
 30
0
 11
5175
 21
10612.5000
 31
0
  0
LINE
  5
1F4
100
AcDbEntity
  8
WALL
100
AcDbLine
 10
5100
 20
10387.5000
 30
0
 11
5325
 21
10612.5000
 31
0
  0
LINE
  5
1F5
100
AcDbEntity
  8
WALL
100
AcDbLine
 10
5250
 20
10387.5000
 30
0
 11
5475
 21
10612.5000
 31
0
  0
LINE
  5
1F6
100
AcDbEntity
  8
WALL
100
AcDbLine
370
50
 10
6750
 20
10387.5000
 30
0
 11
7800
 21
10387.5000
 31
0
  0
LINE
  5
1F7
100
AcDbEntity
  8
WALL
100
AcDbLine
370
50
 10
7800
 20
10612.5000
 30
0
 11
6750
 21
10612.5000
 31
0
  0
LINE
  5
1F8
100
AcDbEntity
  8
WALL
100
AcDbLine
 10
6750
 20
10387.5000
 30
0
 11
6975
 21
10612.5000
 31
0
  0
LINE
  5
1F9
100
AcDbEntity
  8
WALL
100
AcDbLine
 10
6900
 20
10387.5000
 30
0
 11
7125
 21
10612.5000
 31
0
  0
LINE
  5
1FA
100
AcDbEntity
  8
WALL
100
AcDbLine
 10
7050
 20
10387.5000
 30
0
 11
7275
 21
10612.5000
 31
0
  0
LINE
  5
1FB
100
AcDbEntity
  8
WALL
100
AcDbLine
 10
7200
 20
10387.5000
 30
0
 11
7425
 21
10612.5000
 31
0
  0
LINE
  5
1FC
100
AcDbEntity
  8
WALL
100
AcDbLine
 10
7350
 20
10387.5000
 30
0
 11
7575
 21
10612.5000
 31
0
  0
LINE
  5
1FD
100
AcDbEntity
  8
WALL
100
AcDbLine
 10
7500
 20
10387.5000
 30
0
 11
7725
 21
10612.5000
 31
0
  0
LINE
  5
1FE
100
AcDbEntity
  8
WALL
100
AcDbLine
370
50
 10
5550
 20
10387.5000
 30
0
 11
5550
 21
10612.5000
 31
0
  0
LINE
  5
1FF
100
AcDbEntity
  8
WALL
100
AcDbLine
370
50
 10
6750
 20
10387.5000
 30
0
 11
6750
 21
10612.5000
 31
0
  0
LINE
  5
200
100
AcDbEntity
  8
WALL
100
AcDbLine
370
50
 10
7800
 20
10387.5000
 30
0
 11
9000
 21
10387.5000
 31
0
  0
LINE
  5
201
100
AcDbEntity
  8
WALL
100
AcDbLine
370
50
 10
9000
 20
10612.5000
 30
0
 11
7800
 21
10612.5000
 31
0
  0
LINE
  5
202
100
AcDbEntity
  8
WALL
100
AcDbLine
 10
7800
 20
10387.5000
 30
0
 11
8025
 21
10612.5000
 31
0
  0
LINE
  5
203
100
AcDbEntity
  8
WALL
100
AcDbLine
 10
7950
 20
10387.5000
 30
0
 11
8175
 21
10612.5000
 31
0
  0
LINE
  5
204
100
AcDbEntity
  8
WALL
100
AcDbLine
 10
8100
 20
10387.5000
 30
0
 11
8325
 21
10612.5000
 31
0
  0
LINE
  5
205
100
AcDbEntity
  8
WALL
100
AcDbLine
 10
8250
 20
10387.5000
 30
0
 11
8475
 21
10612.5000
 31
0
  0
LINE
  5
206
100
AcDbEntity
  8
WALL
100
AcDbLine
 10
8400
 20
10387.5000
 30
0
 11
8625
 21
10612.5000
 31
0
  0
LINE
  5
207
100
AcDbEntity
  8
WALL
100
AcDbLine
 10
8550
 20
10387.5000
 30
0
 11
8775
 21
10612.5000
 31
0
  0
LINE
  5
208
100
AcDbEntity
  8
WALL
100
AcDbLine
 10
8700
 20
10387.5000
 30
0
 11
8925
 21
10612.5000
 31
0
  0
LINE
  5
209
100
AcDbEntity
  8
WALL
100
AcDbLine
370
50
 10
10200
 20
10387.5000
 30
0
 11
11400
 21
10387.5000
 31
0
  0
LINE
  5
20A
100
AcDbEntity
  8
WALL
100
AcDbLine
370
50
 10
11400
 20
10612.5000
 30
0
 11
10200
 21
10612.5000
 31
0
  0
LINE
  5
20B
100
AcDbEntity
  8
WALL
100
AcDbLine
 10
10200
 20
10387.5000
 30
0
 11
10425
 21
10612.5000
 31
0
  0
LINE
  5
20C
100
AcDbEntity
  8
WALL
100
AcDbLine
 10
10350
 20
10387.5000
 30
0
 11
10575
 21
10612.5000
 31
0
  0
LINE
  5
20D
100
AcDbEntity
  8
WALL
100
AcDbLine
 10
10500
 20
10387.5000
 30
0
 11
10725
 21
10612.5000
 31
0
  0
LINE
  5
20E
100
AcDbEntity
  8
WALL
100
AcDbLine
 10
10650
 20
10387.5000
 30
0
 11
10875
 21
10612.5000
 31
0
  0
LINE
  5
20F
100
AcDbEntity
  8
WALL
100
AcDbLine
 10
10800
 20
10387.5000
 30
0
 11
11025
 21
10612.5000
 31
0
  0
LINE
  5
210
100
AcDbEntity
  8
WALL
100
AcDbLine
 10
10950
 20
10387.5000
 30
0
 11
11175
 21
10612.5000
 31
0
  0
LINE
  5
211
100
AcDbEntity
  8
WALL
100
AcDbLine
 10
11100
 20
10387.5000
 30
0
 11
11325
 21
10612.5000
 31
0
  0
LINE
  5
212
100
AcDbEntity
  8
WALL
100
AcDbLine
370
50
 10
9000
 20
10387.5000
 30
0
 11
9000
 21
10612.5000
 31
0
  0
LINE
  5
213
100
AcDbEntity
  8
WALL
100
AcDbLine
370
50
 10
10200
 20
10387.5000
 30
0
 11
10200
 21
10612.5000
 31
0
  0
LINE
  5
214
100
AcDbEntity
  8
WALL
100
AcDbLine
370
50
 10
4425
 20
0
 30
0
 11
4425
 21
1650
 31
0
  0
LINE
  5
215
100
AcDbEntity
  8
WALL
100
AcDbLine
370
50
 10
4575
 20
1650
 30
0
 11
4575
 21
0
 31
0
  0
LINE
  5
216
100
AcDbEntity
  8
WALL
100
AcDbLine
 10
4425
 20
0
 30
0
 11
4575
 21
150
 31
0
  0
LINE
  5
217
100
AcDbEntity
  8
WALL
100
AcDbLine
 10
4425
 20
150
 30
0
 11
4575
 21
300
 31
0
  0
LINE
  5
218
100
AcDbEntity
  8
WALL
100
AcDbLine
 10
4425
 20
300
 30
0
 11
4575
 21
450
 31
0
  0
LINE
  5
219
100
AcDbEntity
  8
WALL
100
AcDbLine
 10
4425
 20
450
 30
0
 11
4575
 21
600
 31
0
  0
LINE
  5
21A
100
AcDbEntity
  8
WALL
100
AcDbLine
 10
4425
 20
600
 30
0
 11
4575
 21
750
 31
0
  0
LINE
  5
21B
100
AcDbEntity
  8
WALL
100
AcDbLine
 10
4425
 20
750
 30
0
 11
4575
 21
900
 31
0
  0
LINE
  5
21C
100
AcDbEntity
  8
WALL
100
AcDbLine
 10
4425
 20
900
 30
0
 11
4575
 21
1050
 31
0
  0
LINE
  5
21D
100
AcDbEntity
  8
WALL
100
AcDbLine
 10
4425
 20
1050
 30
0
 11
4575
 21
1200
 31
0
  0
LINE
  5
21E
100
AcDbEntity
  8
WALL
100
AcDbLine
 10
4425
 20
1200
 30
0
 11
4575
 21
1350
 31
0
  0
LINE
  5
21F
100
AcDbEntity
  8
WALL
100
AcDbLine
 10
4425
 20
1350
 30
0
 11
4575
 21
1500
 31
0
  0
LINE
  5
220
100
AcDbEntity
  8
WALL
100
AcDbLine
 10
4425
 20
1500
 30
0
 11
4575
 21
1650
 31
0
  0
LINE
  5
221
100
AcDbEntity
  8
WALL
100
AcDbLine
370
50
 10
4425
 20
2550
 30
0
 11
4425
 21
4200
 31
0
  0
LINE
  5
222
100
AcDbEntity
  8
WALL
100
AcDbLine
370
50
 10
4575
 20
4200
 30
0
 11
4575
 21
2550
 31
0
  0
LINE
  5
223
100
AcDbEntity
  8
WALL
100
AcDbLine
 10
4425
 20
2550
 30
0
 11
4575
 21
2700
 31
0
  0
LINE
  5
224
100
AcDbEntity
  8
WALL
100
AcDbLine
 10
4425
 20
2700
 30
0
 11
4575
 21
2850
 31
0
  0
LINE
  5
225
100
AcDbEntity
  8
WALL
100
AcDbLine
 10
4425
 20
2850
 30
0
 11
4575
 21
3000
 31
0
  0
LINE
  5
226
100
AcDbEntity
  8
WALL
100
AcDbLine
 10
4425
 20
3000
 30
0
 11
4575
 21
3150
 31
0
  0
LINE
  5
227
100
AcDbEntity
  8
WALL
100
AcDbLine
 10
4425
 20
3150
 30
0
 11
4575
 21
3300
 31
0
  0
LINE
  5
228
100
AcDbEntity
  8
WALL
100
AcDbLine
 10
4425
 20
3300
 30
0
 11
4575
 21
3450
 31
0
  0
LINE
  5
229
100
AcDbEntity
  8
WALL
100
AcDbLine
 10
4425
 20
3450
 30
0
 11
4575
 21
3600
 31
0
  0
LINE
  5
22A
100
AcDbEntity
  8
WALL
100
AcDbLine
 10
4425
 20
3600
 30
0
 11
4575
 21
3750
 31
0
  0
LINE
  5
22B
100
AcDbEntity
  8
WALL
100
AcDbLine
 10
4425
 20
3750
 30
0
 11
4575
 21
3900
 31
0
  0
LINE
  5
22C
100
AcDbEntity
  8
WALL
100
AcDbLine
 10
4425
 20
3900
 30
0
 11
4575
 21
4050
 31
0
  0
LINE
  5
22D
100
AcDbEntity
  8
WALL
100
AcDbLine
 10
4425
 20
4050
 30
0
 11
4575
 21
4200
 31
0
  0
LINE
  5
22E
100
AcDbEntity
  8
WALL
100
AcDbLine
370
50
 10
4425
 20
1650
 30
0
 11
4575
 21
1650
 31
0
  0
LINE
  5
22F
100
AcDbEntity
  8
WALL
100
AcDbLine
370
50
 10
4425
 20
2550
 30
0
 11
4575
 21
2550
 31
0
  0
LINE
  5
230
100
AcDbEntity
  8
WALL
100
AcDbLine
370
50
 10
4425
 20
4200
 30
0
 11
4425
 21
6600
 31
0
  0
LINE
  5
231
100
AcDbEntity
  8
WALL
100
AcDbLine
370
50
 10
4575
 20
6600
 30
0
 11
4575
 21
4200
 31
0
  0
LINE
  5
232
100
AcDbEntity
  8
WALL
100
AcDbLine
 10
4425
 20
4200
 30
0
 11
4575
 21
4350
 31
0
  0
LINE
  5
233
100
AcDbEntity
  8
WALL
100
AcDbLine
 10
4425
 20
4350
 30
0
 11
4575
 21
4500
 31
0
  0
LINE
  5
234
100
AcDbEntity
  8
WALL
100
AcDbLine
 10
4425
 20
4500
 30
0
 11
4575
 21
4650
 31
0
  0
LINE
  5
235
100
AcDbEntity
  8
WALL
100
AcDbLine
 10
4425
 20
4650
 30
0
 11
4575
 21
4800
 31
0
  0
LINE
  5
236
100
AcDbEntity
  8
WALL
100
AcDbLine
 10
4425
 20
4800
 30
0
 11
4575
 21
4950
 31
0
  0
LINE
  5
237
100
AcDbEntity
  8
WALL
100
AcDbLine
 10
4425
 20
4950
 30
0
 11
4575
 21
5100
 31
0
  0
LINE
  5
238
100
AcDbEntity
  8
WALL
100
AcDbLine
 10
4425
 20
5100
 30
0
 11
4575
 21
5250
 31
0
  0
LINE
  5
239
100
AcDbEntity
  8
WALL
100
AcDbLine
 10
4425
 20
5250
 30
0
 11
4575
 21
5400
 31
0
  0
LINE
  5
23A
100
AcDbEntity
  8
WALL
100
AcDbLine
 10
4425
 20
5400
 30
0
 11
4575
 21
5550
 31
0
  0
LINE
  5
23B
100
AcDbEntity
  8
WALL
100
AcDbLine
 10
4425
 20
5550
 30
0
 11
4575
 21
5700
 31
0
  0
LINE
  5
23C
100
AcDbEntity
  8
WALL
100
AcDbLine
 10
4425
 20
5700
 30
0
 11
4575
 21
5850
 31
0
  0
LINE
  5
23D
100
AcDbEntity
  8
WALL
100
AcDbLine
 10
4425
 20
5850
 30
0
 11
4575
 21
6000
 31
0
  0
LINE
  5
23E
100
AcDbEntity
  8
WALL
100
AcDbLine
 10
4425
 20
6000
 30
0
 11
4575
 21
6150
 31
0
  0
LINE
  5
23F
100
AcDbEntity
  8
WALL
100
AcDbLine
 10
4425
 20
6150
 30
0
 11
4575
 21
6300
 31
0
  0
LINE
  5
240
100
AcDbEntity
  8
WALL
100
AcDbLine
 10
4425
 20
6300
 30
0
 11
4575
 21
6450
 31
0
  0
LINE
  5
241
100
AcDbEntity
  8
WALL
100
AcDbLine
 10
4425
 20
6450
 30
0
 11
4575
 21
6600
 31
0
  0
LINE
  5
242
100
AcDbEntity
  8
WALL
100
AcDbLine
370
50
 10
4425
 20
6600
 30
0
 11
4425
 21
8100
 31
0
  0
LINE
  5
243
100
AcDbEntity
  8
WALL
100
AcDbLine
370
50
 10
4575
 20
8100
 30
0
 11
4575
 21
6600
 31
0
  0
LINE
  5
244
100
AcDbEntity
  8
WALL
100
AcDbLine
 10
4425
 20
6600
 30
0
 11
4575
 21
6750
 31
0
  0
LINE
  5
245
100
AcDbEntity
  8
WALL
100
AcDbLine
 10
4425
 20
6750
 30
0
 11
4575
 21
6900
 31
0
  0
LINE
  5
246
100
AcDbEntity
  8
WALL
100
AcDbLine
 10
4425
 20
6900
 30
0
 11
4575
 21
7050
 31
0
  0
LINE
  5
247
100
AcDbEntity
  8
WALL
100
AcDbLine
 10
4425
 20
7050
 30
0
 11
4575
 21
7200
 31
0
  0
LINE
  5
248
100
AcDbEntity
  8
WALL
100
AcDbLine
 10
4425
 20
7200
 30
0
 11
4575
 21
7350
 31
0
  0
LINE
  5
249
100
AcDbEntity
  8
WALL
100
AcDbLine
 10
4425
 20
7350
 30
0
 11
4575
 21
7500
 31
0
  0
LINE
  5
24A
100
AcDbEntity
  8
WALL
100
AcDbLine
 10
4425
 20
7500
 30
0
 11
4575
 21
7650
 31
0
  0
LINE
  5
24B
100
AcDbEntity
  8
WALL
100
AcDbLine
 10
4425
 20
7650
 30
0
 11
4575
 21
7800
 31
0
  0
LINE
  5
24C
100
AcDbEntity
  8
WALL
100
AcDbLine
 10
4425
 20
7800
 30
0
 11
4575
 21
7950
 31
0
  0
LINE
  5
24D
100
AcDbEntity
  8
WALL
100
AcDbLine
 10
4425
 20
7950
 30
0
 11
4575
 21
8100
 31
0
  0
LINE
  5
24E
100
AcDbEntity
  8
WALL
100
AcDbLine
370
50
 10
4425
 20
9000
 30
0
 11
4425
 21
10500
 31
0
  0
LINE
  5
24F
100
AcDbEntity
  8
WALL
100
AcDbLine
370
50
 10
4575
 20
10500
 30
0
 11
4575
 21
9000
 31
0
  0
LINE
  5
250
100
AcDbEntity
  8
WALL
100
AcDbLine
 10
4425
 20
9000
 30
0
 11
4575
 21
9150
 31
0
  0
LINE
  5
251
100
AcDbEntity
  8
WALL
100
AcDbLine
 10
4425
 20
9150
 30
0
 11
4575
 21
9300
 31
0
  0
LINE
  5
252
100
AcDbEntity
  8
WALL
100
AcDbLine
 10
4425
 20
9300
 30
0
 11
4575
 21
9450
 31
0
  0
LINE
  5
253
100
AcDbEntity
  8
WALL
100
AcDbLine
 10
4425
 20
9450
 30
0
 11
4575
 21
9600
 31
0
  0
LINE
  5
254
100
AcDbEntity
  8
WALL
100
AcDbLine
 10
4425
 20
9600
 30
0
 11
4575
 21
9750
 31
0
  0
LINE
  5
255
100
AcDbEntity
  8
WALL
100
AcDbLine
 10
4425
 20
9750
 30
0
 11
4575
 21
9900
 31
0
  0
LINE
  5
256
100
AcDbEntity
  8
WALL
100
AcDbLine
 10
4425
 20
9900
 30
0
 11
4575
 21
10050
 31
0
  0
LINE
  5
257
100
AcDbEntity
  8
WALL
100
AcDbLine
 10
4425
 20
10050
 30
0
 11
4575
 21
10200
 31
0
  0
LINE
  5
258
100
AcDbEntity
  8
WALL
100
AcDbLine
 10
4425
 20
10200
 30
0
 11
4575
 21
10350
 31
0
  0
LINE
  5
259
100
AcDbEntity
  8
WALL
100
AcDbLine
 10
4425
 20
10350
 30
0
 11
4575
 21
10500
 31
0
  0
LINE
  5
25A
100
AcDbEntity
  8
WALL
100
AcDbLine
370
50
 10
4425
 20
8100
 30
0
 11
4575
 21
8100
 31
0
  0
LINE
  5
25B
100
AcDbEntity
  8
WALL
100
AcDbLine
370
50
 10
4425
 20
9000
 30
0
 11
4575
 21
9000
 31
0
  0
LINE
  5
25C
100
AcDbEntity
  8
WALL
100
AcDbLine
370
50
 10
7725
 20
0
 30
0
 11
7725
 21
1650
 31
0
  0
LINE
  5
25D
100
AcDbEntity
  8
WALL
100
AcDbLine
370
50
 10
7875
 20
1650
 30
0
 11
7875
 21
0
 31
0
  0
LINE
  5
25E
100
AcDbEntity
  8
WALL
100
AcDbLine
 10
7725
 20
0
 30
0
 11
7875
 21
150
 31
0
  0
LINE
  5
25F
100
AcDbEntity
  8
WALL
100
AcDbLine
 10
7725
 20
150
 30
0
 11
7875
 21
300
 31
0
  0
LINE
  5
260
100
AcDbEntity
  8
WALL
100
AcDbLine
 10
7725
 20
300
 30
0
 11
7875
 21
450
 31
0
  0
LINE
  5
261
100
AcDbEntity
  8
WALL
100
AcDbLine
 10
7725
 20
450
 30
0
 11
7875
 21
600
 31
0
  0
LINE
  5
262
100
AcDbEntity
  8
WALL
100
AcDbLine
 10
7725
 20
600
 30
0
 11
7875
 21
750
 31
0
  0
LINE
  5
263
100
AcDbEntity
  8
WALL
100
AcDbLine
 10
7725
 20
750
 30
0
 11
7875
 21
900
 31
0
  0
LINE
  5
264
100
AcDbEntity
  8
WALL
100
AcDbLine
 10
7725
 20
900
 30
0
 11
7875
 21
1050
 31
0
  0
LINE
  5
265
100
AcDbEntity
  8
WALL
100
AcDbLine
 10
7725
 20
1050
 30
0
 11
7875
 21
1200
 31
0
  0
LINE
  5
266
100
AcDbEntity
  8
WALL
100
AcDbLine
 10
7725
 20
1200
 30
0
 11
7875
 21
1350
 31
0
  0
LINE
  5
267
100
AcDbEntity
  8
WALL
100
AcDbLine
 10
7725
 20
1350
 30
0
 11
7875
 21
1500
 31
0
  0
LINE
  5
268
100
AcDbEntity
  8
WALL
100
AcDbLine
 10
7725
 20
1500
 30
0
 11
7875
 21
1650
 31
0
  0
LINE
  5
269
100
AcDbEntity
  8
WALL
100
AcDbLine
370
50
 10
7725
 20
2550
 30
0
 11
7725
 21
4200
 31
0
  0
LINE
  5
26A
100
AcDbEntity
  8
WALL
100
AcDbLine
370
50
 10
7875
 20
4200
 30
0
 11
7875
 21
2550
 31
0
  0
LINE
  5
26B
100
AcDbEntity
  8
WALL
100
AcDbLine
 10
7725
 20
2550
 30
0
 11
7875
 21
2700
 31
0
  0
LINE
  5
26C
100
AcDbEntity
  8
WALL
100
AcDbLine
 10
7725
 20
2700
 30
0
 11
7875
 21
2850
 31
0
  0
LINE
  5
26D
100
AcDbEntity
  8
WALL
100
AcDbLine
 10
7725
 20
2850
 30
0
 11
7875
 21
3000
 31
0
  0
LINE
  5
26E
100
AcDbEntity
  8
WALL
100
AcDbLine
 10
7725
 20
3000
 30
0
 11
7875
 21
3150
 31
0
  0
LINE
  5
26F
100
AcDbEntity
  8
WALL
100
AcDbLine
 10
7725
 20
3150
 30
0
 11
7875
 21
3300
 31
0
  0
LINE
  5
270
100
AcDbEntity
  8
WALL
100
AcDbLine
 10
7725
 20
3300
 30
0
 11
7875
 21
3450
 31
0
  0
LINE
  5
271
100
AcDbEntity
  8
WALL
100
AcDbLine
 10
7725
 20
3450
 30
0
 11
7875
 21
3600
 31
0
  0
LINE
  5
272
100
AcDbEntity
  8
WALL
100
AcDbLine
 10
7725
 20
3600
 30
0
 11
7875
 21
3750
 31
0
  0
LINE
  5
273
100
AcDbEntity
  8
WALL
100
AcDbLine
 10
7725
 20
3750
 30
0
 11
7875
 21
3900
 31
0
  0
LINE
  5
274
100
AcDbEntity
  8
WALL
100
AcDbLine
 10
7725
 20
3900
 30
0
 11
7875
 21
4050
 31
0
  0
LINE
  5
275
100
AcDbEntity
  8
WALL
100
AcDbLine
 10
7725
 20
4050
 30
0
 11
7875
 21
4200
 31
0
  0
LINE
  5
276
100
AcDbEntity
  8
WALL
100
AcDbLine
370
50
 10
7725
 20
1650
 30
0
 11
7875
 21
1650
 31
0
  0
LINE
  5
277
100
AcDbEntity
  8
WALL
100
AcDbLine
370
50
 10
7725
 20
2550
 30
0
 11
7875
 21
2550
 31
0
  0
LINE
  5
278
100
AcDbEntity
  8
WALL
100
AcDbLine
370
50
 10
7725
 20
4200
 30
0
 11
7725
 21
4950
 31
0
  0
LINE
  5
279
100
AcDbEntity
  8
WALL
100
AcDbLine
370
50
 10
7875
 20
4950
 30
0
 11
7875
 21
4200
 31
0
  0
LINE
  5
27A
100
AcDbEntity
  8
WALL
100
AcDbLine
 10
7725
 20
4200
 30
0
 11
7875
 21
4350
 31
0
  0
LINE
  5
27B
100
AcDbEntity
  8
WALL
100
AcDbLine
 10
7725
 20
4350
 30
0
 11
7875
 21
4500
 31
0
  0
LINE
  5
27C
100
AcDbEntity
  8
WALL
100
AcDbLine
 10
7725
 20
4500
 30
0
 11
7875
 21
4650
 31
0
  0
LINE
  5
27D
100
AcDbEntity
  8
WALL
100
AcDbLine
 10
7725
 20
4650
 30
0
 11
7875
 21
4800
 31
0
  0
LINE
  5
27E
100
AcDbEntity
  8
WALL
100
AcDbLine
 10
7725
 20
4800
 30
0
 11
7875
 21
4950
 31
0
  0
LINE
  5
27F
100
AcDbEntity
  8
WALL
100
AcDbLine
370
50
 10
7725
 20
5850
 30
0
 11
7725
 21
6600
 31
0
  0
LINE
  5
280
100
AcDbEntity
  8
WALL
100
AcDbLine
370
50
 10
7875
 20
6600
 30
0
 11
7875
 21
5850
 31
0
  0
LINE
  5
281
100
AcDbEntity
  8
WALL
100
AcDbLine
 10
7725
 20
5850
 30
0
 11
7875
 21
6000
 31
0
  0
LINE
  5
282
100
AcDbEntity
  8
WALL
100
AcDbLine
 10
7725
 20
6000
 30
0
 11
7875
 21
6150
 31
0
  0
LINE
  5
283
100
AcDbEntity
  8
WALL
100
AcDbLine
 10
7725
 20
6150
 30
0
 11
7875
 21
6300
 31
0
  0
LINE
  5
284
100
AcDbEntity
  8
WALL
100
AcDbLine
 10
7725
 20
6300
 30
0
 11
7875
 21
6450
 31
0
  0
LINE
  5
285
100
AcDbEntity
  8
WALL
100
AcDbLine
 10
7725
 20
6450
 30
0
 11
7875
 21
6600
 31
0
  0
LINE
  5
286
100
AcDbEntity
  8
WALL
100
AcDbLine
370
50
 10
7725
 20
4950
 30
0
 11
7875
 21
4950
 31
0
  0
LINE
  5
287
100
AcDbEntity
  8
WALL
100
AcDbLine
370
50
 10
7725
 20
5850
 30
0
 11
7875
 21
5850
 31
0
  0
LINE
  5
288
100
AcDbEntity
  8
WALL
100
AcDbLine
370
50
 10
7725
 20
6600
 30
0
 11
7725
 21
8100
 31
0
  0
LINE
  5
289
100
AcDbEntity
  8
WALL
100
AcDbLine
370
50
 10
7875
 20
8100
 30
0
 11
7875
 21
6600
 31
0
  0
LINE
  5
28A
100
AcDbEntity
  8
WALL
100
AcDbLine
 10
7725
 20
6600
 30
0
 11
7875
 21
6750
 31
0
  0
LINE
  5
28B
100
AcDbEntity
  8
WALL
100
AcDbLine
 10
7725
 20
6750
 30
0
 11
7875
 21
6900
 31
0
  0
LINE
  5
28C
100
AcDbEntity
  8
WALL
100
AcDbLine
 10
7725
 20
6900
 30
0
 11
7875
 21
7050
 31
0
  0
LINE
  5
28D
100
AcDbEntity
  8
WALL
100
AcDbLine
 10
7725
 20
7050
 30
0
 11
7875
 21
7200
 31
0
  0
LINE
  5
28E
100
AcDbEntity
  8
WALL
100
AcDbLine
 10
7725
 20
7200
 30
0
 11
7875
 21
7350
 31
0
  0
LINE
  5
28F
100
AcDbEntity
  8
WALL
100
AcDbLine
 10
7725
 20
7350
 30
0
 11
7875
 21
7500
 31
0
  0
LINE
  5
290
100
AcDbEntity
  8
WALL
100
AcDbLine
 10
7725
 20
7500
 30
0
 11
7875
 21
7650
 31
0
  0
LINE
  5
291
100
AcDbEntity
  8
WALL
100
AcDbLine
 10
7725
 20
7650
 30
0
 11
7875
 21
7800
 31
0
  0
LINE
  5
292
100
AcDbEntity
  8
WALL
100
AcDbLine
 10
7725
 20
7800
 30
0
 11
7875
 21
7950
 31
0
  0
LINE
  5
293
100
AcDbEntity
  8
WALL
100
AcDbLine
 10
7725
 20
7950
 30
0
 11
7875
 21
8100
 31
0
  0
LINE
  5
294
100
AcDbEntity
  8
WALL
100
AcDbLine
370
50
 10
7725
 20
9000
 30
0
 11
7725
 21
10500
 31
0
  0
LINE
  5
295
100
AcDbEntity
  8
WALL
100
AcDbLine
370
50
 10
7875
 20
10500
 30
0
 11
7875
 21
9000
 31
0
  0
LINE
  5
296
100
AcDbEntity
  8
WALL
100
AcDbLine
 10
7725
 20
9000
 30
0
 11
7875
 21
9150
 31
0
  0
LINE
  5
297
100
AcDbEntity
  8
WALL
100
AcDbLine
 10
7725
 20
9150
 30
0
 11
7875
 21
9300
 31
0
  0
LINE
  5
298
100
AcDbEntity
  8
WALL
100
AcDbLine
 10
7725
 20
9300
 30
0
 11
7875
 21
9450
 31
0
  0
LINE
  5
299
100
AcDbEntity
  8
WALL
100
AcDbLine
 10
7725
 20
9450
 30
0
 11
7875
 21
9600
 31
0
  0
LINE
  5
29A
100
AcDbEntity
  8
WALL
100
AcDbLine
 10
7725
 20
9600
 30
0
 11
7875
 21
9750
 31
0
  0
LINE
  5
29B
100
AcDbEntity
  8
WALL
100
AcDbLine
 10
7725
 20
9750
 30
0
 11
7875
 21
9900
 31
0
  0
LINE
  5
29C
100
AcDbEntity
  8
WALL
100
AcDbLine
 10
7725
 20
9900
 30
0
 11
7875
 21
10050
 31
0
  0
LINE
  5
29D
100
AcDbEntity
  8
WALL
100
AcDbLine
 10
7725
 20
10050
 30
0
 11
7875
 21
10200
 31
0
  0
LINE
  5
29E
100
AcDbEntity
  8
WALL
100
AcDbLine
 10
7725
 20
10200
 30
0
 11
7875
 21
10350
 31
0
  0
LINE
  5
29F
100
AcDbEntity
  8
WALL
100
AcDbLine
 10
7725
 20
10350
 30
0
 11
7875
 21
10500
 31
0
  0
LINE
  5
2A0
100
AcDbEntity
  8
WALL
100
AcDbLine
370
50
 10
7725
 20
8100
 30
0
 11
7875
 21
8100
 31
0
  0
LINE
  5
2A1
100
AcDbEntity
  8
WALL
100
AcDbLine
370
50
 10
7725
 20
9000
 30
0
 11
7875
 21
9000
 31
0
  0
LINE
  5
2A2
100
AcDbEntity
  8
WALL
100
AcDbLine
370
50
 10
0
 20
4125
 30
0
 11
1800
 21
4125
 31
0
  0
LINE
  5
2A3
100
AcDbEntity
  8
WALL
100
AcDbLine
370
50
 10
1800
 20
4275
 30
0
 11
0
 21
4275
 31
0
  0
LINE
  5
2A4
100
AcDbEntity
  8
WALL
100
AcDbLine
 10
0
 20
4125
 30
0
 11
150
 21
4275
 31
0
  0
LINE
  5
2A5
100
AcDbEntity
  8
WALL
100
AcDbLine
 10
150
 20
4125
 30
0
 11
300
 21
4275
 31
0
  0
LINE
  5
2A6
100
AcDbEntity
  8
WALL
100
AcDbLine
 10
300
 20
4125
 30
0
 11
450
 21
4275
 31
0
  0
LINE
  5
2A7
100
AcDbEntity
  8
WALL
100
AcDbLine
 10
450
 20
4125
 30
0
 11
600
 21
4275
 31
0
  0
LINE
  5
2A8
100
AcDbEntity
  8
WALL
100
AcDbLine
 10
600
 20
4125
 30
0
 11
750
 21
4275
 31
0
  0
LINE
  5
2A9
100
AcDbEntity
  8
WALL
100
AcDbLine
 10
750
 20
4125
 30
0
 11
900
 21
4275
 31
0
  0
LINE
  5
2AA
100
AcDbEntity
  8
WALL
100
AcDbLine
 10
900
 20
4125
 30
0
 11
1050
 21
4275
 31
0
  0
LINE
  5
2AB
100
AcDbEntity
  8
WALL
100
AcDbLine
 10
1050
 20
4125
 30
0
 11
1200
 21
4275
 31
0
  0
LINE
  5
2AC
100
AcDbEntity
  8
WALL
100
AcDbLine
 10
1200
 20
4125
 30
0
 11
1350
 21
4275
 31
0
  0
LINE
  5
2AD
100
AcDbEntity
  8
WALL
100
AcDbLine
 10
1350
 20
4125
 30
0
 11
1500
 21
4275
 31
0
  0
LINE
  5
2AE
100
AcDbEntity
  8
WALL
100
AcDbLine
 10
1500
 20
4125
 30
0
 11
1650
 21
4275
 31
0
  0
LINE
  5
2AF
100
AcDbEntity
  8
WALL
100
AcDbLine
 10
1650
 20
4125
 30
0
 11
1800
 21
4275
 31
0
  0
LINE
  5
2B0
100
AcDbEntity
  8
WALL
100
AcDbLine
370
50
 10
2700
 20
4125
 30
0
 11
4500
 21
4125
 31
0
  0
LINE
  5
2B1
100
AcDbEntity
  8
WALL
100
AcDbLine
370
50
 10
4500
 20
4275
 30
0
 11
2700
 21
4275
 31
0
  0
LINE
  5
2B2
100
AcDbEntity
  8
WALL
100
AcDbLine
 10
2700
 20
4125
 30
0
 11
2850
 21
4275
 31
0
  0
LINE
  5
2B3
100
AcDbEntity
  8
WALL
100
AcDbLine
 10
2850
 20
4125
 30
0
 11
3000
 21
4275
 31
0
  0
LINE
  5
2B4
100
AcDbEntity
  8
WALL
100
AcDbLine
 10
3000
 20
4125
 30
0
 11
3150
 21
4275
 31
0
  0
LINE
  5
2B5
100
AcDbEntity
  8
WALL
100
AcDbLine
 10
3150
 20
4125
 30
0
 11
3300
 21
4275
 31
0
  0
LINE
  5
2B6
100
AcDbEntity
  8
WALL
100
AcDbLine
 10
3300
 20
4125
 30
0
 11
3450
 21
4275
 31
0
  0
LINE
  5
2B7
100
AcDbEntity
  8
WALL
100
AcDbLine
 10
3450
 20
4125
 30
0
 11
3600
 21
4275
 31
0
  0
LINE
  5
2B8
100
AcDbEntity
  8
WALL
100
AcDbLine
 10
3600
 20
4125
 30
0
 11
3750
 21
4275
 31
0
  0
LINE
  5
2B9
100
AcDbEntity
  8
WALL
100
AcDbLine
 10
3750
 20
4125
 30
0
 11
3900
 21
4275
 31
0
  0
LINE
  5
2BA
100
AcDbEntity
  8
WALL
100
AcDbLine
 10
3900
 20
4125
 30
0
 11
4050
 21
4275
 31
0
  0
LINE
  5
2BB
100
AcDbEntity
  8
WALL
100
AcDbLine
 10
4050
 20
4125
 30
0
 11
4200
 21
4275
 31
0
  0
LINE
  5
2BC
100
AcDbEntity
  8
WALL
100
AcDbLine
 10
4200
 20
4125
 30
0
 11
4350
 21
4275
 31
0
  0
LINE
  5
2BD
100
AcDbEntity
  8
WALL
100
AcDbLine
 10
4350
 20
4125
 30
0
 11
4500
 21
4275
 31
0
  0
LINE
  5
2BE
100
AcDbEntity
  8
WALL
100
AcDbLine
370
50
 10
1800
 20
4125
 30
0
 11
1800
 21
4275
 31
0
  0
LINE
  5
2BF
100
AcDbEntity
  8
WALL
100
AcDbLine
370
50
 10
2700
 20
4125
 30
0
 11
2700
 21
4275
 31
0
  0
LINE
  5
2C0
100
AcDbEntity
  8
WALL
100
AcDbLine
370
50
 10
4500
 20
4125
 30
0
 11
5700
 21
4125
 31
0
  0
LINE
  5
2C1
100
AcDbEntity
  8
WALL
100
AcDbLine
370
50
 10
5700
 20
4275
 30
0
 11
4500
 21
4275
 31
0
  0
LINE
  5
2C2
100
AcDbEntity
  8
WALL
100
AcDbLine
 10
4500
 20
4125
 30
0
 11
4650
 21
4275
 31
0
  0
LINE
  5
2C3
100
AcDbEntity
  8
WALL
100
AcDbLine
 10
4650
 20
4125
 30
0
 11
4800
 21
4275
 31
0
  0
LINE
  5
2C4
100
AcDbEntity
  8
WALL
100
AcDbLine
 10
4800
 20
4125
 30
0
 11
4950
 21
4275
 31
0
  0
LINE
  5
2C5
100
AcDbEntity
  8
WALL
100
AcDbLine
 10
4950
 20
4125
 30
0
 11
5100
 21
4275
 31
0
  0
LINE
  5
2C6
100
AcDbEntity
  8
WALL
100
AcDbLine
 10
5100
 20
4125
 30
0
 11
5250
 21
4275
 31
0
  0
LINE
  5
2C7
100
AcDbEntity
  8
WALL
100
AcDbLine
 10
5250
 20
4125
 30
0
 11
5400
 21
4275
 31
0
  0
LINE
  5
2C8
100
AcDbEntity
  8
WALL
100
AcDbLine
 10
5400
 20
4125
 30
0
 11
5550
 21
4275
 31
0
  0
LINE
  5
2C9
100
AcDbEntity
  8
WALL
100
AcDbLine
 10
5550
 20
4125
 30
0
 11
5700
 21
4275
 31
0
  0
LINE
  5
2CA
100
AcDbEntity
  8
WALL
100
AcDbLine
370
50
 10
6600
 20
4125
 30
0
 11
7800
 21
4125
 31
0
  0
LINE
  5
2CB
100
AcDbEntity
  8
WALL
100
AcDbLine
370
50
 10
7800
 20
4275
 30
0
 11
6600
 21
4275
 31
0
  0
LINE
  5
2CC
100
AcDbEntity
  8
WALL
100
AcDbLine
 10
6600
 20
4125
 30
0
 11
6750
 21
4275
 31
0
  0
LINE
  5
2CD
100
AcDbEntity
  8
WALL
100
AcDbLine
 10
6750
 20
4125
 30
0
 11
6900
 21
4275
 31
0
  0
LINE
  5
2CE
100
AcDbEntity
  8
WALL
100
AcDbLine
 10
6900
 20
4125
 30
0
 11
7050
 21
4275
 31
0
  0
LINE
  5
2CF
100
AcDbEntity
  8
WALL
100
AcDbLine
 10
7050
 20
4125
 30
0
 11
7200
 21
4275
 31
0
  0
LINE
  5
2D0
100
AcDbEntity
  8
WALL
100
AcDbLine
 10
7200
 20
4125
 30
0
 11
7350
 21
4275
 31
0
  0
LINE
  5
2D1
100
AcDbEntity
  8
WALL
100
AcDbLine
 10
7350
 20
4125
 30
0
 11
7500
 21
4275
 31
0
  0
LINE
  5
2D2
100
AcDbEntity
  8
WALL
100
AcDbLine
 10
7500
 20
4125
 30
0
 11
7650
 21
4275
 31
0
  0
LINE
  5
2D3
100
AcDbEntity
  8
WALL
100
AcDbLine
 10
7650
 20
4125
 30
0
 11
7800
 21
4275
 31
0
  0
LINE
  5
2D4
100
AcDbEntity
  8
WALL
100
AcDbLine
370
50
 10
5700
 20
4125
 30
0
 11
5700
 21
4275
 31
0
  0
LINE
  5
2D5
100
AcDbEntity
  8
WALL
100
AcDbLine
370
50
 10
6600
 20
4125
 30
0
 11
6600
 21
4275
 31
0
  0
LINE
  5
2D6
100
AcDbEntity
  8
WALL
100
AcDbLine
370
50
 10
7800
 20
4125
 30
0
 11
9150
 21
4125
 31
0
  0
LINE
  5
2D7
100
AcDbEntity
  8
WALL
100
AcDbLine
370
50
 10
9150
 20
4275
 30
0
 11
7800
 21
4275
 31
0
  0
LINE
  5
2D8
100
AcDbEntity
  8
WALL
100
AcDbLine
 10
7800
 20
4125
 30
0
 11
7950
 21
4275
 31
0
  0
LINE
  5
2D9
100
AcDbEntity
  8
WALL
100
AcDbLine
 10
7950
 20
4125
 30
0
 11
8100
 21
4275
 31
0
  0
LINE
  5
2DA
100
AcDbEntity
  8
WALL
100
AcDbLine
 10
8100
 20
4125
 30
0
 11
8250
 21
4275
 31
0
  0
LINE
  5
2DB
100
AcDbEntity
  8
WALL
100
AcDbLine
 10
8250
 20
4125
 30
0
 11
8400
 21
4275
 31
0
  0
LINE
  5
2DC
100
AcDbEntity
  8
WALL
100
AcDbLine
 10
8400
 20
4125
 30
0
 11
8550
 21
4275
 31
0
  0
LINE
  5
2DD
100
AcDbEntity
  8
WALL
100
AcDbLine
 10
8550
 20
4125
 30
0
 11
8700
 21
4275
 31
0
  0
LINE
  5
2DE
100
AcDbEntity
  8
WALL
100
AcDbLine
 10
8700
 20
4125
 30
0
 11
8850
 21
4275
 31
0
  0
LINE
  5
2DF
100
AcDbEntity
  8
WALL
100
AcDbLine
 10
8850
 20
4125
 30
0
 11
9000
 21
4275
 31
0
  0
LINE
  5
2E0
100
AcDbEntity
  8
WALL
100
AcDbLine
 10
9000
 20
4125
 30
0
 11
9150
 21
4275
 31
0
  0
LINE
  5
2E1
100
AcDbEntity
  8
WALL
100
AcDbLine
370
50
 10
10050
 20
4125
 30
0
 11
11400
 21
4125
 31
0
  0
LINE
  5
2E2
100
AcDbEntity
  8
WALL
100
AcDbLine
370
50
 10
11400
 20
4275
 30
0
 11
10050
 21
4275
 31
0
  0
LINE
  5
2E3
100
AcDbEntity
  8
WALL
100
AcDbLine
 10
10050
 20
4125
 30
0
 11
10200
 21
4275
 31
0
  0
LINE
  5
2E4
100
AcDbEntity
  8
WALL
100
AcDbLine
 10
10200
 20
4125
 30
0
 11
10350
 21
4275
 31
0
  0
LINE
  5
2E5
100
AcDbEntity
  8
WALL
100
AcDbLine
 10
10350
 20
4125
 30
0
 11
10500
 21
4275
 31
0
  0
LINE
  5
2E6
100
AcDbEntity
  8
WALL
100
AcDbLine
 10
10500
 20
4125
 30
0
 11
10650
 21
4275
 31
0
  0
LINE
  5
2E7
100
AcDbEntity
  8
WALL
100
AcDbLine
 10
10650
 20
4125
 30
0
 11
10800
 21
4275
 31
0
  0
LINE
  5
2E8
100
AcDbEntity
  8
WALL
100
AcDbLine
 10
10800
 20
4125
 30
0
 11
10950
 21
4275
 31
0
  0
LINE
  5
2E9
100
AcDbEntity
  8
WALL
100
AcDbLine
 10
10950
 20
4125
 30
0
 11
11100
 21
4275
 31
0
  0
LINE
  5
2EA
100
AcDbEntity
  8
WALL
100
AcDbLine
 10
11100
 20
4125
 30
0
 11
11250
 21
4275
 31
0
  0
LINE
  5
2EB
100
AcDbEntity
  8
WALL
100
AcDbLine
 10
11250
 20
4125
 30
0
 11
11400
 21
4275
 31
0
  0
LINE
  5
2EC
100
AcDbEntity
  8
WALL
100
AcDbLine
370
50
 10
9150
 20
4125
 30
0
 11
9150
 21
4275
 31
0
  0
LINE
  5
2ED
100
AcDbEntity
  8
WALL
100
AcDbLine
370
50
 10
10050
 20
4125
 30
0
 11
10050
 21
4275
 31
0
  0
LINE
  5
2EE
100
AcDbEntity
  8
WALL
100
AcDbLine
370
50
 10
0
 20
6525
 30
0
 11
4500
 21
6525
 31
0
  0
LINE
  5
2EF
100
AcDbEntity
  8
WALL
100
AcDbLine
370
50
 10
4500
 20
6675
 30
0
 11
0
 21
6675
 31
0
  0
LINE
  5
2F0
100
AcDbEntity
  8
WALL
100
AcDbLine
 10
0
 20
6525
 30
0
 11
150
 21
6675
 31
0
  0
LINE
  5
2F1
100
AcDbEntity
  8
WALL
100
AcDbLine
 10
150
 20
6525
 30
0
 11
300
 21
6675
 31
0
  0
LINE
  5
2F2
100
AcDbEntity
  8
WALL
100
AcDbLine
 10
300
 20
6525
 30
0
 11
450
 21
6675
 31
0
  0
LINE
  5
2F3
100
AcDbEntity
  8
WALL
100
AcDbLine
 10
450
 20
6525
 30
0
 11
600
 21
6675
 31
0
  0
LINE
  5
2F4
100
AcDbEntity
  8
WALL
100
AcDbLine
 10
600
 20
6525
 30
0
 11
750
 21
6675
 31
0
  0
LINE
  5
2F5
100
AcDbEntity
  8
WALL
100
AcDbLine
 10
750
 20
6525
 30
0
 11
900
 21
6675
 31
0
  0
LINE
  5
2F6
100
AcDbEntity
  8
WALL
100
AcDbLine
 10
900
 20
6525
 30
0
 11
1050
 21
6675
 31
0
  0
LINE
  5
2F7
100
AcDbEntity
  8
WALL
100
AcDbLine
 10
1050
 20
6525
 30
0
 11
1200
 21
6675
 31
0
  0
LINE
  5
2F8
100
AcDbEntity
  8
WALL
100
AcDbLine
 10
1200
 20
6525
 30
0
 11
1350
 21
6675
 31
0
  0
LINE
  5
2F9
100
AcDbEntity
  8
WALL
100
AcDbLine
 10
1350
 20
6525
 30
0
 11
1500
 21
6675
 31
0
  0
LINE
  5
2FA
100
AcDbEntity
  8
WALL
100
AcDbLine
 10
1500
 20
6525
 30
0
 11
1650
 21
6675
 31
0
  0
LINE
  5
2FB
100
AcDbEntity
  8
WALL
100
AcDbLine
 10
1650
 20
6525
 30
0
 11
1800
 21
6675
 31
0
  0
LINE
  5
2FC
100
AcDbEntity
  8
WALL
100
AcDbLine
 10
1800
 20
6525
 30
0
 11
1950
 21
6675
 31
0
  0
LINE
  5
2FD
100
AcDbEntity
  8
WALL
100
AcDbLine
 10
1950
 20
6525
 30
0
 11
2100
 21
6675
 31
0
  0
LINE
  5
2FE
100
AcDbEntity
  8
WALL
100
AcDbLine
 10
2100
 20
6525
 30
0
 11
2250
 21
6675
 31
0
  0
LINE
  5
2FF
100
AcDbEntity
  8
WALL
100
AcDbLine
 10
2250
 20
6525
 30
0
 11
2400
 21
6675
 31
0
  0
LINE
  5
300
100
AcDbEntity
  8
WALL
100
AcDbLine
 10
2400
 20
6525
 30
0
 11
2550
 21
6675
 31
0
  0
LINE
  5
301
100
AcDbEntity
  8
WALL
100
AcDbLine
 10
2550
 20
6525
 30
0
 11
2700
 21
6675
 31
0
  0
LINE
  5
302
100
AcDbEntity
  8
WALL
100
AcDbLine
 10
2700
 20
6525
 30
0
 11
2850
 21
6675
 31
0
  0
LINE
  5
303
100
AcDbEntity
  8
WALL
100
AcDbLine
 10
2850
 20
6525
 30
0
 11
3000
 21
6675
 31
0
  0
LINE
  5
304
100
AcDbEntity
  8
WALL
100
AcDbLine
 10
3000
 20
6525
 30
0
 11
3150
 21
6675
 31
0
  0
LINE
  5
305
100
AcDbEntity
  8
WALL
100
AcDbLine
 10
3150
 20
6525
 30
0
 11
3300
 21
6675
 31
0
  0
LINE
  5
306
100
AcDbEntity
  8
WALL
100
AcDbLine
 10
3300
 20
6525
 30
0
 11
3450
 21
6675
 31
0
  0
LINE
  5
307
100
AcDbEntity
  8
WALL
100
AcDbLine
 10
3450
 20
6525
 30
0
 11
3600
 21
6675
 31
0
  0
LINE
  5
308
100
AcDbEntity
  8
WALL
100
AcDbLine
 10
3600
 20
6525
 30
0
 11
3750
 21
6675
 31
0
  0
LINE
  5
309
100
AcDbEntity
  8
WALL
100
AcDbLine
 10
3750
 20
6525
 30
0
 11
3900
 21
6675
 31
0
  0
LINE
  5
30A
100
AcDbEntity
  8
WALL
100
AcDbLine
 10
3900
 20
6525
 30
0
 11
4050
 21
6675
 31
0
  0
LINE
  5
30B
100
AcDbEntity
  8
WALL
100
AcDbLine
 10
4050
 20
6525
 30
0
 11
4200
 21
6675
 31
0
  0
LINE
  5
30C
100
AcDbEntity
  8
WALL
100
AcDbLine
 10
4200
 20
6525
 30
0
 11
4350
 21
6675
 31
0
  0
LINE
  5
30D
100
AcDbEntity
  8
WALL
100
AcDbLine
 10
4350
 20
6525
 30
0
 11
4500
 21
6675
 31
0
  0
LINE
  5
30E
100
AcDbEntity
  8
WALL
100
AcDbLine
370
50
 10
4500
 20
6525
 30
0
 11
5700
 21
6525
 31
0
  0
LINE
  5
30F
100
AcDbEntity
  8
WALL
100
AcDbLine
370
50
 10
5700
 20
6675
 30
0
 11
4500
 21
6675
 31
0
  0
LINE
  5
310
100
AcDbEntity
  8
WALL
100
AcDbLine
 10
4500
 20
6525
 30
0
 11
4650
 21
6675
 31
0
  0
LINE
  5
311
100
AcDbEntity
  8
WALL
100
AcDbLine
 10
4650
 20
6525
 30
0
 11
4800
 21
6675
 31
0
  0
LINE
  5
312
100
AcDbEntity
  8
WALL
100
AcDbLine
 10
4800
 20
6525
 30
0
 11
4950
 21
6675
 31
0
  0
LINE
  5
313
100
AcDbEntity
  8
WALL
100
AcDbLine
 10
4950
 20
6525
 30
0
 11
5100
 21
6675
 31
0
  0
LINE
  5
314
100
AcDbEntity
  8
WALL
100
AcDbLine
 10
5100
 20
6525
 30
0
 11
5250
 21
6675
 31
0
  0
LINE
  5
315
100
AcDbEntity
  8
WALL
100
AcDbLine
 10
5250
 20
6525
 30
0
 11
5400
 21
6675
 31
0
  0
LINE
  5
316
100
AcDbEntity
  8
WALL
100
AcDbLine
 10
5400
 20
6525
 30
0
 11
5550
 21
6675
 31
0
  0
LINE
  5
317
100
AcDbEntity
  8
WALL
100
AcDbLine
 10
5550
 20
6525
 30
0
 11
5700
 21
6675
 31
0
  0
LINE
  5
318
100
AcDbEntity
  8
WALL
100
AcDbLine
370
50
 10
6600
 20
6525
 30
0
 11
7800
 21
6525
 31
0
  0
LINE
  5
319
100
AcDbEntity
  8
WALL
100
AcDbLine
370
50
 10
7800
 20
6675
 30
0
 11
6600
 21
6675
 31
0
  0
LINE
  5
31A
100
AcDbEntity
  8
WALL
100
AcDbLine
 10
6600
 20
6525
 30
0
 11
6750
 21
6675
 31
0
  0
LINE
  5
31B
100
AcDbEntity
  8
WALL
100
AcDbLine
 10
6750
 20
6525
 30
0
 11
6900
 21
6675
 31
0
  0
LINE
  5
31C
100
AcDbEntity
  8
WALL
100
AcDbLine
 10
6900
 20
6525
 30
0
 11
7050
 21
6675
 31
0
  0
LINE
  5
31D
100
AcDbEntity
  8
WALL
100
AcDbLine
 10
7050
 20
6525
 30
0
 11
7200
 21
6675
 31
0
  0
LINE
  5
31E
100
AcDbEntity
  8
WALL
100
AcDbLine
 10
7200
 20
6525
 30
0
 11
7350
 21
6675
 31
0
  0
LINE
  5
31F
100
AcDbEntity
  8
WALL
100
AcDbLine
 10
7350
 20
6525
 30
0
 11
7500
 21
6675
 31
0
  0
LINE
  5
320
100
AcDbEntity
  8
WALL
100
AcDbLine
 10
7500
 20
6525
 30
0
 11
7650
 21
6675
 31
0
  0
LINE
  5
321
100
AcDbEntity
  8
WALL
100
AcDbLine
 10
7650
 20
6525
 30
0
 11
7800
 21
6675
 31
0
  0
LINE
  5
322
100
AcDbEntity
  8
WALL
100
AcDbLine
370
50
 10
5700
 20
6525
 30
0
 11
5700
 21
6675
 31
0
  0
LINE
  5
323
100
AcDbEntity
  8
WALL
100
AcDbLine
370
50
 10
6600
 20
6525
 30
0
 11
6600
 21
6675
 31
0
  0
LINE
  5
324
100
AcDbEntity
  8
WALL
100
AcDbLine
370
50
 10
7800
 20
6525
 30
0
 11
9150
 21
6525
 31
0
  0
LINE
  5
325
100
AcDbEntity
  8
WALL
100
AcDbLine
370
50
 10
9150
 20
6675
 30
0
 11
7800
 21
6675
 31
0
  0
LINE
  5
326
100
AcDbEntity
  8
WALL
100
AcDbLine
 10
7800
 20
6525
 30
0
 11
7950
 21
6675
 31
0
  0
LINE
  5
327
100
AcDbEntity
  8
WALL
100
AcDbLine
 10
7950
 20
6525
 30
0
 11
8100
 21
6675
 31
0
  0
LINE
  5
328
100
AcDbEntity
  8
WALL
100
AcDbLine
 10
8100
 20
6525
 30
0
 11
8250
 21
6675
 31
0
  0
LINE
  5
329
100
AcDbEntity
  8
WALL
100
AcDbLine
 10
8250
 20
6525
 30
0
 11
8400
 21
6675
 31
0
  0
LINE
  5
32A
100
AcDbEntity
  8
WALL
100
AcDbLine
 10
8400
 20
6525
 30
0
 11
8550
 21
6675
 31
0
  0
LINE
  5
32B
100
AcDbEntity
  8
WALL
100
AcDbLine
 10
8550
 20
6525
 30
0
 11
8700
 21
6675
 31
0
  0
LINE
  5
32C
100
AcDbEntity
  8
WALL
100
AcDbLine
 10
8700
 20
6525
 30
0
 11
8850
 21
6675
 31
0
  0
LINE
  5
32D
100
AcDbEntity
  8
WALL
100
AcDbLine
 10
8850
 20
6525
 30
0
 11
9000
 21
6675
 31
0
  0
LINE
  5
32E
100
AcDbEntity
  8
WALL
100
AcDbLine
 10
9000
 20
6525
 30
0
 11
9150
 21
6675
 31
0
  0
LINE
  5
32F
100
AcDbEntity
  8
WALL
100
AcDbLine
370
50
 10
10050
 20
6525
 30
0
 11
11400
 21
6525
 31
0
  0
LINE
  5
330
100
AcDbEntity
  8
WALL
100
AcDbLine
370
50
 10
11400
 20
6675
 30
0
 11
10050
 21
6675
 31
0
  0
LINE
  5
331
100
AcDbEntity
  8
WALL
100
AcDbLine
 10
10050
 20
6525
 30
0
 11
10200
 21
6675
 31
0
  0
LINE
  5
332
100
AcDbEntity
  8
WALL
100
AcDbLine
 10
10200
 20
6525
 30
0
 11
10350
 21
6675
 31
0
  0
LINE
  5
333
100
AcDbEntity
  8
WALL
100
AcDbLine
 10
10350
 20
6525
 30
0
 11
10500
 21
6675
 31
0
  0
LINE
  5
334
100
AcDbEntity
  8
WALL
100
AcDbLine
 10
10500
 20
6525
 30
0
 11
10650
 21
6675
 31
0
  0
LINE
  5
335
100
AcDbEntity
  8
WALL
100
AcDbLine
 10
10650
 20
6525
 30
0
 11
10800
 21
6675
 31
0
  0
LINE
  5
336
100
AcDbEntity
  8
WALL
100
AcDbLine
 10
10800
 20
6525
 30
0
 11
10950
 21
6675
 31
0
  0
LINE
  5
337
100
AcDbEntity
  8
WALL
100
AcDbLine
 10
10950
 20
6525
 30
0
 11
11100
 21
6675
 31
0
  0
LINE
  5
338
100
AcDbEntity
  8
WALL
100
AcDbLine
 10
11100
 20
6525
 30
0
 11
11250
 21
6675
 31
0
  0
LINE
  5
339
100
AcDbEntity
  8
WALL
100
AcDbLine
 10
11250
 20
6525
 30
0
 11
11400
 21
6675
 31
0
  0
LINE
  5
33A
100
AcDbEntity
  8
WALL
100
AcDbLine
370
50
 10
9150
 20
6525
 30
0
 11
9150
 21
6675
 31
0
  0
LINE
  5
33B
100
AcDbEntity
  8
WALL
100
AcDbLine
370
50
 10
10050
 20
6525
 30
0
 11
10050
 21
6675
 31
0
  0
TEXT
  5
33C
100
AcDbEntity
  8
TEXT
100
AcDbText
 10
1768.7500
 20
2118.7500
 30
0
 40
250
  1
LOUNGE
100
AcDbText
  0
TEXT
  5
33D
100
AcDbEntity
  8
TEXT
100
AcDbText
 10
5650
 20
2118.7500
 30
0
 40
250
  1
DINING
100
AcDbText
  0
TEXT
  5
33E
100
AcDbEntity
  8
TEXT
100
AcDbText
 10
9081.2500
 20
2118.7500
 30
0
 40
250
  1
KITCHEN
100
AcDbText
  0
TEXT
  5
33F
100
AcDbEntity
  8
TEXT
100
AcDbText
 10
1768.7500
 20
5400
 30
0
 40
250
  1
STORE
100
AcDbText
  0
TEXT
  5
340
100
AcDbEntity
  8
TEXT
100
AcDbText
 10
5650
 20
5400
 30
0
 40
250
  1
BATH
100
AcDbText
  0
LWPOLYLINE
  5
341
100
AcDbEntity
  8
SANITARY
100
AcDbPolyline
 90
4
 70
1
 10
4975
 20
5625
 10
5375
 20
5625
 10
5375
 20
6225
 10
4975
 20
6225
  0
TEXT
  5
342
100
AcDbEntity
  8
TEXT
100
AcDbText
 10
9081.2500
 20
5400
 30
0
 40
250
  1
WC
100
AcDbText
  0
LWPOLYLINE
  5
343
100
AcDbEntity
  8
SANITARY
100
AcDbPolyline
 90
4
 70
1
 10
8275
 20
5625
 10
8675
 20
5625
 10
8675
 20
6225
 10
8275
 20
6225
  0
TEXT
  5
344
100
AcDbEntity
  8
TEXT
100
AcDbText
 10
1768.7500
 20
8531.2500
 30
0
 40
250
  1
BEDROOM
100
AcDbText
  0
TEXT
  5
345
100
AcDbEntity
  8
TEXT
100
AcDbText
 10
5650
 20
8531.2500
 30
0
 40
250
  1
BEDROOM
100
AcDbText
  0
TEXT
  5
346
100
AcDbEntity
  8
TEXT
100
AcDbText
 10
9081.2500
 20
8531.2500
 30
0
 40
250
  1
MASTER BEDROOM
100
AcDbText
  0
DIMENSION
  5
347
100
AcDbEntity
  8
DIM
100
AcDbDimension
  2
*D
 10
0
 20
-1800
 30
0
 11
5700
 21
-1550
 31
0
 70
33
  1

 42
11400
100
AcDbAlignedDimension
 13
0
 23
0
 33
0
 14
11400
 24
0
 34
0
  0
DIMENSION
  5
348
100
AcDbEntity
  8
DIM
100
AcDbDimension
  2
*D
 10
-1800
 20
0
 30
0
 11
-1550
 21
5250
 31
0
 70
33
  1

 42
10500
100
AcDbAlignedDimension
 13
0
 23
0
 33
0
 14
0
 24
10500
 34
0
  0
DIMENSION
  5
349
100
AcDbEntity
  8
DIM
100
AcDbDimension
  2
*D
 10
0
 20
11700
 30
0
 11
2250
 21
11950
 31
0
 70
33
  1

 42
4500
100
AcDbAlignedDimension
 13
0
 23
10500
 33
0
 14
4500
 24
10500
 34
0
  0
DIMENSION
  5
34A
100
AcDbEntity
  8
DIM
100
AcDbDimension
  2
*D
 10
4500
 20
11700
 30
0
 11
6150
 21
11950
 31
0
 70
33
  1

 42
3300
100
AcDbAlignedDimension
 13
4500
 23
10500
 33
0
 14
7800
 24
10500
 34
0
  0
DIMENSION
  5
34B
100
AcDbEntity
  8
DIM
100
AcDbDimension
  2
*D
 10
7800
 20
11700
 30
0
 11
9600
 21
11950
 31
0
 70
33
  1

 42
3600
100
AcDbAlignedDimension
 13
7800
 23
10500
 33
0
 14
11400
 24
10500
 34
0
  0
DIMENSION
  5
34C
100
AcDbEntity
  8
DIM
100
AcDbDimension
  2
*D
 10
12600
 20
0
 30
0
 11
12850
 21
2100
 31
0
 70
33
  1

 42
4200
100
AcDbAlignedDimension
 13
11400
 23
0
 33
0
 14
11400
 24
4200
 34
0
  0
DIMENSION
  5
34D
100
AcDbEntity
  8
DIM
100
AcDbDimension
  2
*D
 10
12600
 20
4200
 30
0
 11
12850
 21
5400
 31
0
 70
33
  1

 42
2400
100
AcDbAlignedDimension
 13
11400
 23
4200
 33
0
 14
11400
 24
6600
 34
0
  0
DIMENSION
  5
34E
100
AcDbEntity
  8
DIM
100
AcDbDimension
  2
*D
 10
12600
 20
6600
 30
0
 11
12850
 21
8550
 31
0
 70
33
  1

 42
3900
100
AcDbAlignedDimension
 13
11400
 23
6600
 33
0
 14
11400
 24
10500
 34
0
  0
TEXT
  5
34F
100
AcDbEntity
  8
TEXT
100
AcDbText
 10
0
 20
-3200
 30
0
 40
450
  1
GROUND FLOOR PLAN
100
AcDbText
  0
TEXT
  5
350
100
AcDbEntity
  8
TEXT
100
AcDbText
 10
14000
 20
5250
 30
0
 40
300
  1
+450
100
AcDbText
  0
LINE
  5
351
100
AcDbEntity
  8
WALL
100
AcDbLine
370
50
 10
23400
 20
0
 30
0
 11
34800
 21
0
 31
0
  0
LINE
  5
352
100
AcDbEntity
  8
WALL
100
AcDbLine
370
50
 10
34800
 20
0
 30
0
 11
34800
 21
4200
 31
0
  0
LINE
  5
353
100
AcDbEntity
  8
WALL
100
AcDbLine
370
50
 10
34800
 20
4200
 30
0
 11
23400
 21
4200
 31
0
  0
LINE
  5
354
100
AcDbEntity
  8
WALL
100
AcDbLine
370
50
 10
23400
 20
4200
 30
0
 11
23400
 21
0
 31
0
  0
LINE
  5
355
100
AcDbEntity
  8
WALL
100
AcDbLine
 10
23400
 20
0
 30
0
 11
34800
 21
0
 31
0
  0
TEXT
  5
356
100
AcDbEntity
  8
TEXT
100
AcDbText
 10
35700
 20
0
 30
0
 40
250
  1
+450 GROUND FLOOR LEVEL
100
AcDbText
  0
LWPOLYLINE
  5
357
100
AcDbEntity
  8
WIND
100
AcDbPolyline
 90
4
 70
1
 10
25650
 20
900
 10
26850
 20
900
 10
26850
 20
2100
 10
25650
 20
2100
  0
LWPOLYLINE
  5
358
100
AcDbEntity
  8
WIND
100
AcDbPolyline
 90
4
 70
1
 10
28500
 20
900
 10
29700
 20
900
 10
29700
 20
2100
 10
28500
 20
2100
  0
LWPOLYLINE
  5
359
100
AcDbEntity
  8
WIND
100
AcDbPolyline
 90
4
 70
1
 10
31350
 20
900
 10
32550
 20
900
 10
32550
 20
2100
 10
31350
 20
2100
  0
LINE
  5
35A
100
AcDbEntity
  8
WALL
100
AcDbLine
 10
23400
 20
3000
 30
0
 11
34800
 21
3000
 31
0
  0
TEXT
  5
35B
100
AcDbEntity
  8
TEXT
100
AcDbText
 10
35700
 20
3000
 30
0
 40
250
  1
+3450 ROOF LEVEL
100
AcDbText
  0
TEXT
  5
35C
100
AcDbEntity
  8
TEXT
100
AcDbText
 10
23400
 20
-3200
 30
0
 40
450
  1
NORTH ELEVATION
100
AcDbText
  0
LINE
  5
35D
100
AcDbEntity
  8
WALL
100
AcDbLine
370
50
 10
46800
 20
0
 30
0
 11
57300
 21
0
 31
0
  0
LINE
  5
35E
100
AcDbEntity
  8
WALL
100
AcDbLine
370
50
 10
57300
 20
0
 30
0
 11
57300
 21
4200
 31
0
  0
LINE
  5
35F
100
AcDbEntity
  8
WALL
100
AcDbLine
370
50
 10
57300
 20
4200
 30
0
 11
46800
 21
4200
 31
0
  0
LINE
  5
360
100
AcDbEntity
  8
WALL
100
AcDbLine
370
50
 10
46800
 20
4200
 30
0
 11
46800
 21
0
 31
0
  0
LINE
  5
361
100
AcDbEntity
  8
WALL
100
AcDbLine
370
50
 10
46800
 20
0
 30
0
 11
57300
 21
0
 31
0
  0
LINE
  5
362
100
AcDbEntity
  8
WALL
100
AcDbLine
370
50
 10
46800
 20
150
 30
0
 11
57300
 21
150
 31
0
  0
TEXT
  5
363
100
AcDbEntity
  8
TEXT
100
AcDbText
 10
58200
 20
0
 30
0
 40
250
  1
+450 GROUND FLOOR LEVEL
100
AcDbText
  0
LINE
  5
364
100
AcDbEntity
  8
WALL
100
AcDbLine
370
50
 10
46800
 20
3000
 30
0
 11
57300
 21
3000
 31
0
  0
LINE
  5
365
100
AcDbEntity
  8
WALL
100
AcDbLine
370
50
 10
46800
 20
3150
 30
0
 11
57300
 21
3150
 31
0
  0
TEXT
  5
366
100
AcDbEntity
  8
TEXT
100
AcDbText
 10
58200
 20
3000
 30
0
 40
250
  1
+3450 ROOF LEVEL
100
AcDbText
  0
TEXT
  5
367
100
AcDbEntity
  8
TEXT
100
AcDbText
 10
47800
 20
1500
 30
0
 40
220
  1
19 NOS RISERS OF 158MM EACH AND TREADS OF 275MM
100
AcDbText
  0
TEXT
  5
368
100
AcDbEntity
  8
TEXT
100
AcDbText
 10
46800
 20
-3200
 30
0
 40
450
  1
SECTION A-A
100
AcDbText
  0
ENDSEC
  0
EOF
