  0
SECTION
  2
HEADER
  9
$ACADVER
  1
AC1015
  9
$INSUNITS
 70
4
  9
$MEASUREMENT
 70
1
  9
$HANDSEED
  5
FFFF
  0
ENDSEC
  0
SECTION
  2
TABLES
  0
TABLE
  2
LTYPE
  5
23B
100
AcDbSymbolTable
 70
1
  0
LTYPE
  5
23C
330
23B
100
AcDbSymbolTableRecord
100
AcDbLinetypeTableRecord
  2
CONTINUOUS
 70
0
  3
Solid line
 72
65
 73
0
 40
0
  0
ENDTAB
  0
TABLE
  2
LAYER
  5
23D
100
AcDbSymbolTable
 70
7
  0
LAYER
  5
23E
330
23D
100
AcDbSymbolTableRecord
100
AcDbLayerTableRecord
  2
0
 70
0
 62
1
  6
CONTINUOUS
  0
LAYER
  5
23F
330
23D
100
AcDbSymbolTableRecord
100
AcDbLayerTableRecord
  2
WIND
 70
0
 62
2
  6
CONTINUOUS
  0
LAYER
  5
240
330
23D
100
AcDbSymbolTableRecord
100
AcDbLayerTableRecord
  2
DOOR
 70
0
 62
3
  6
CONTINUOUS
  0
LAYER
  5
241
330
23D
100
AcDbSymbolTableRecord
100
AcDbLayerTableRecord
  2
WALL
 70
0
 62
4
  6
CONTINUOUS
  0
LAYER
  5
242
330
23D
100
AcDbSymbolTableRecord
100
AcDbLayerTableRecord
  2
TEXT
 70
0
 62
5
  6
CONTINUOUS
  0
LAYER
  5
243
330
23D
100
AcDbSymbolTableRecord
100
AcDbLayerTableRecord
  2
SANITARY
 70
0
 62
6
  6
CONTINUOUS
  0
LAYER
  5
244
330
23D
100
AcDbSymbolTableRecord
100
AcDbLayerTableRecord
  2
DIM
 70
0
 62
7
  6
CONTINUOUS
  0
ENDTAB
  0
TABLE
  2
BLOCK_RECORD
  5
245
100
AcDbSymbolTable
 70
5
  0
BLOCK_RECORD
  5
246
330
245
100
AcDbSymbolTableRecord
100
AcDbBlockTableRecord
  2
*Model_Space
  0
BLOCK_RECORD
  5
247
330
245
100
AcDbSymbolTableRecord
100
AcDbBlockTableRecord
  2
*Paper_Space
  0
BLOCK_RECORD
  5
248
330
245
100
AcDbSymbolTableRecord
100
AcDbBlockTableRecord
  2
DOOR
  0
BLOCK_RECORD
  5
249
330
245
100
AcDbSymbolTableRecord
100
AcDbBlockTableRecord
  2
WINDOW
  0
BLOCK_RECORD
  5
24A
330
245
100
AcDbSymbolTableRecord
100
AcDbBlockTableRecord
  2
WC-STD
  0
ENDTAB
  0
ENDSEC
  0
SECTION
  2
BLOCKS
  0
BLOCK
  5
102
100
AcDbEntity
  8
0
100
AcDbBlockBegin
  2
DOOR
 70
0
 10
0
 20
0
 30
0
  3
DOOR
  0
ARC
  5
100
100
AcDbEntity
  8
DOOR
100
AcDbCircle
 10
-500
 20
0
 30
0
 40
1000
100
AcDbArc
 50
0
 51
90
  0
LINE
  5
101
100
AcDbEntity
  8
DOOR
100
AcDbLine
 10
-500
 20
0
 30
0
 11
-500
 21
1000
 31
0
  0
ENDBLK
  5
103
100
AcDbEntity
  8
0
100
AcDbBlockEnd
  0
BLOCK
  5
105
100
AcDbEntity
  8
0
100
AcDbBlockBegin
  2
WINDOW
 70
0
 10
0
 20
0
 30
0
  3
WINDOW
  0
LWPOLYLINE
  5
104
100
AcDbEntity
  8
WIND
100
AcDbPolyline
 90
4
 70
1
 10
-750
 20
-60
 10
750
 20
-60
 10
750
 20
60
 10
-750
 20
60
  0
ENDBLK
  5
106
100
AcDbEntity
  8
0
100
AcDbBlockEnd
  0
BLOCK
  5
108
100
AcDbEntity
  8
0
100
AcDbBlockBegin
  2
WC-STD
 70
0
 10
0
 20
0
 30
0
  3
WC-STD
  0
LWPOLYLINE
  5
107
100
AcDbEntity
  8
SANITARY
100
AcDbPolyline
 90
4
 70
1
 10
-200
 20
-300
 10
200
 20
-300
 10
200
 20
300
 10
-200
 20
300
  0
ENDBLK
  5
109
100
AcDbEntity
  8
0
100
AcDbBlockEnd
  0
ENDSEC
  0
SECTION
  2
ENTITIES
  0
INSERT
  5
10A
100
AcDbEntity
  8
WIND
100
AcDbBlockReference
 66
1
  2
WINDOW
 10
0
 20
2100
 30
0
 41
1
 42
1
 43
1
 50
90
  0
ATTRIB
  5
10B
100
AcDbEntity
  8
TEXT
100
AcDbText
 10
150
 20
2250
 30
0
 40
200
  1
W01
100
AcDbAttribute
  2
MARK
 70
0
  0
ATTRIB
  5
10C
100
AcDbEntity
  8
TEXT
100
AcDbText
 10
150
 20
2550
 30
0
 40
200
  1
1500x1200
100
AcDbAttribute
  2
SIZE
 70
0
  0
SEQEND
  5
10D
100
AcDbEntity
  8
WIND
  0
INSERT
  5
10E
100
AcDbEntity
  8
WIND
100
AcDbBlockReference
 66
1
  2
WINDOW
 10
0
 20
5400
 30
0
 41
1
 42
1
 43
1
 50
90
  0
ATTRIB
  5
10F
100
AcDbEntity
  8
TEXT
100
AcDbText
 10
150
 20
5550
 30
0
 40
200
  1
W01
100
AcDbAttribute
  2
MARK
 70
0
  0
ATTRIB
  5
110
100
AcDbEntity
  8
TEXT
100
AcDbText
 10
150
 20
5850
 30
0
 40
200
  1
1500x1200
100
AcDbAttribute
  2
SIZE
 70
0
  0
SEQEND
  5
111
100
AcDbEntity
  8
WIND
  0
INSERT
  5
112
100
AcDbEntity
  8
WIND
100
AcDbBlockReference
 66
1
  2
WINDOW
 10
0
 20
8550
 30
0
 41
1
 42
1
 43
1
 50
90
  0
ATTRIB
  5
113
100
AcDbEntity
  8
TEXT
100
AcDbText
 10
150
 20
8700
 30
0
 40
200
  1
W01
100
AcDbAttribute
  2
MARK
 70
0
  0
ATTRIB
  5
114
100
AcDbEntity
  8
TEXT
100
AcDbText
 10
150
 20
9000
 30
0
 40
200
  1
1500x1200
100
AcDbAttribute
  2
SIZE
 70
0
  0
SEQEND
  5
115
100
AcDbEntity
  8
WIND
  0
INSERT
  5
116
100
AcDbEntity
  8
WIND
100
AcDbBlockReference
 66
1
  2
WINDOW
 10
11400
 20
2100
 30
0
 41
1
 42
1
 43
1
 50
90
  0
ATTRIB
  5
117
100
AcDbEntity
  8
TEXT
100
AcDbText
 10
11550
 20
2250
 30
0
 40
200
  1
W01
100
AcDbAttribute
  2
MARK
 70
0
  0
ATTRIB
  5
118
100
AcDbEntity
  8
TEXT
100
AcDbText
 10
11550
 20
2550
 30
0
 40
200
  1
1500x1200
100
AcDbAttribute
  2
SIZE
 70
0
  0
SEQEND
  5
119
100
AcDbEntity
  8
WIND
  0
INSERT
  5
11A
100
AcDbEntity
  8
WIND
100
AcDbBlockReference
 66
1
  2
WINDOW
 10
11400
 20
5400
 30
0
 41
1
 42
1
 43
1
 50
90
  0
ATTRIB
  5
11B
100
AcDbEntity
  8
TEXT
100
AcDbText
 10
11550
 20
5550
 30
0
 40
200
  1
W01
100
AcDbAttribute
  2
MARK
 70
0
  0
ATTRIB
  5
11C
100
AcDbEntity
  8
TEXT
100
AcDbText
 10
11550
 20
5850
 30
0
 40
200
  1
1500x1200
100
AcDbAttribute
  2
SIZE
 70
0
  0
SEQEND
  5
11D
100
AcDbEntity
  8
WIND
  0
INSERT
  5
11E
100
AcDbEntity
  8
WIND
100
AcDbBlockReference
 66
1
  2
WINDOW
 10
11400
 20
8550
 30
0
 41
1
 42
1
 43
1
 50
90
  0
ATTRIB
  5
11F
100
AcDbEntity
  8
TEXT
100
AcDbText
 10
11550
 20
8700
 30
0
 40
200
  1
W01
100
AcDbAttribute
  2
MARK
 70
0
  0
ATTRIB
  5
120
100
AcDbEntity
  8
TEXT
100
AcDbText
 10
11550
 20
9000
 30
0
 40
200
  1
1500x1200
100
AcDbAttribute
  2
SIZE
 70
0
  0
SEQEND
  5
121
100
AcDbEntity
  8
WIND
  0
INSERT
  5
122
100
AcDbEntity
  8
WIND
100
AcDbBlockReference
 66
1
  2
WINDOW
 10
2250
 20
0
 30
0
 41
1
 42
1
 43
1
 50
0
  0
ATTRIB
  5
123
100
AcDbEntity
  8
TEXT
100
AcDbText
 10
2400
 20
150
 30
0
 40
200
  1
W01
100
AcDbAttribute
  2
MARK
 70
0
  0
ATTRIB
  5
124
100
AcDbEntity
  8
TEXT
100
AcDbText
 10
2400
 20
450
 30
0
 40
200
  1
1500x1200
100
AcDbAttribute
  2
SIZE
 70
0
  0
SEQEND
  5
125
100
AcDbEntity
  8
WIND
  0
INSERT
  5
126
100
AcDbEntity
  8
WIND
100
AcDbBlockReference
 66
1
  2
WINDOW
 10
6150
 20
0
 30
0
 41
1
 42
1
 43
1
 50
0
  0
ATTRIB
  5
127
100
AcDbEntity
  8
TEXT
100
AcDbText
 10
6300
 20
150
 30
0
 40
200
  1
W01
100
AcDbAttribute
  2
MARK
 70
0
  0
ATTRIB
  5
128
100
AcDbEntity
  8
TEXT
100
AcDbText
 10
6300
 20
450
 30
0
 40
200
  1
1500x1200
100
AcDbAttribute
  2
SIZE
 70
0
  0
SEQEND
  5
129
100
AcDbEntity
  8
WIND
  0
INSERT
  5
12A
100
AcDbEntity
  8
WIND
100
AcDbBlockReference
 66
1
  2
WINDOW
 10
9600
 20
0
 30
0
 41
1
 42
1
 43
1
 50
0
  0
ATTRIB
  5
12B
100
AcDbEntity
  8
TEXT
100
AcDbText
 10
9750
 20
150
 30
0
 40
200
  1
W01
100
AcDbAttribute
  2
MARK
 70
0
  0
ATTRIB
  5
12C
100
AcDbEntity
  8
TEXT
100
AcDbText
 10
9750
 20
450
 30
0
 40
200
  1
1500x1200
100
AcDbAttribute
  2
SIZE
 70
0
  0
SEQEND
  5
12D
100
AcDbEntity
  8
WIND
  0
INSERT
  5
12E
100
AcDbEntity
  8
WIND
100
AcDbBlockReference
 66
1
  2
WINDOW
 10
2250
 20
10500
 30
0
 41
1
 42
1
 43
1
 50
0
  0
ATTRIB
  5
12F
100
AcDbEntity
  8
TEXT
100
AcDbText
 10
2400
 20
10650
 30
0
 40
200
  1
W01
100
AcDbAttribute
  2
MARK
 70
0
  0
ATTRIB
  5
130
100
AcDbEntity
  8
TEXT
100
AcDbText
 10
2400
 20
10950
 30
0
 40
200
  1
1500x1200
100
AcDbAttribute
  2
SIZE
 70
0
  0
SEQEND
  5
131
100
AcDbEntity
  8
WIND
  0
INSERT
  5
132
100
AcDbEntity
  8
WIND
100
AcDbBlockReference
 66
1
  2
WINDOW
 10
6150
 20
10500
 30
0
 41
1
 42
1
 43
1
 50
0
  0
ATTRIB
  5
133
100
AcDbEntity
  8
TEXT
100
AcDbText
 10
6300
 20
10650
 30
0
 40
200
  1
W01
100
AcDbAttribute
  2
MARK
 70
0
  0
ATTRIB
  5
134
100
AcDbEntity
  8
TEXT
100
AcDbText
 10
6300
 20
10950
 30
0
 40
200
  1
1500x1200
100
AcDbAttribute
  2
SIZE
 70
0
  0
SEQEND
  5
135
100
AcDbEntity
  8
WIND
  0
INSERT
  5
136
100
AcDbEntity
  8
WIND
100
AcDbBlockReference
 66
1
  2
WINDOW
 10
9600
 20
10500
 30
0
 41
1
 42
1
 43
1
 50
0
  0
ATTRIB
  5
137
100
AcDbEntity
  8
TEXT
100
AcDbText
 10
9750
 20
10650
 30
0
 40
200
  1
W01
100
AcDbAttribute
  2
MARK
 70
0
  0
ATTRIB
  5
138
100
AcDbEntity
  8
TEXT
100
AcDbText
 10
9750
 20
10950
 30
0
 40
200
  1
1500x1200
100
AcDbAttribute
  2
SIZE
 70
0
  0
SEQEND
  5
139
100
AcDbEntity
  8
WIND
  0
INSERT
  5
13A
100
AcDbEntity
  8
DOOR
100
AcDbBlockReference
 66
1
  2
DOOR
 10
4500
 20
2100
 30
0
 41
1
 42
1
 43
1
 50
90
  0
ATTRIB
  5
13B
100
AcDbEntity
  8
TEXT
100
AcDbText
 10
4650
 20
2250
 30
0
 40
200
  1
D01
100
AcDbAttribute
  2
MARK
 70
0
  0
ATTRIB
  5
13C
100
AcDbEntity
  8
TEXT
100
AcDbText
 10
4650
 20
2550
 30
0
 40
200
  1
1000
100
AcDbAttribute
  2
WIDTH
 70
0
  0
SEQEND
  5
13D
100
AcDbEntity
  8
DOOR
  0
INSERT
  5
13E
100
AcDbEntity
  8
DOOR
100
AcDbBlockReference
 66
1
  2
DOOR
 10
4500
 20
8550
 30
0
 41
1
 42
1
 43
1
 50
90
  0
ATTRIB
  5
13F
100
AcDbEntity
  8
TEXT
100
AcDbText
 10
4650
 20
8700
 30
0
 40
200
  1
D01
100
AcDbAttribute
  2
MARK
 70
0
  0
ATTRIB
  5
140
100
AcDbEntity
  8
TEXT
100
AcDbText
 10
4650
 20
9000
 30
0
 40
200
  1
1000
100
AcDbAttribute
  2
WIDTH
 70
0
  0
SEQEND
  5
141
100
AcDbEntity
  8
DOOR
  0
INSERT
  5
142
100
AcDbEntity
  8
DOOR
100
AcDbBlockReference
 66
1
  2
DOOR
 10
7800
 20
2100
 30
0
 41
1
 42
1
 43
1
 50
90
  0
ATTRIB
  5
143
100
AcDbEntity
  8
TEXT
100
AcDbText
 10
7950
 20
2250
 30
0
 40
200
  1
D01
100
AcDbAttribute
  2
MARK
 70
0
  0
ATTRIB
  5
144
100
AcDbEntity
  8
TEXT
100
AcDbText
 10
7950
 20
2550
 30
0
 40
200
  1
1000
100
AcDbAttribute
  2
WIDTH
 70
0
  0
SEQEND
  5
145
100
AcDbEntity
  8
DOOR
  0
INSERT
  5
146
100
AcDbEntity
  8
DOOR
100
AcDbBlockReference
 66
1
  2
DOOR
 10
7800
 20
5400
 30
0
 41
1
 42
1
 43
1
 50
90
  0
ATTRIB
  5
147
100
AcDbEntity
  8
TEXT
100
AcDbText
 10
7950
 20
5550
 30
0
 40
200
  1
D01
100
AcDbAttribute
  2
MARK
 70
0
  0
ATTRIB
  5
148
100
AcDbEntity
  8
TEXT
100
AcDbText
 10
7950
 20
5850
 30
0
 40
200
  1
1000
100
AcDbAttribute
  2
WIDTH
 70
0
  0
SEQEND
  5
149
100
AcDbEntity
  8
DOOR
  0
INSERT
  5
14A
100
AcDbEntity
  8
DOOR
100
AcDbBlockReference
 66
1
  2
DOOR
 10
7800
 20
8550
 30
0
 41
1
 42
1
 43
1
 50
90
  0
ATTRIB
  5
14B
100
AcDbEntity
  8
TEXT
100
AcDbText
 10
7950
 20
8700
 30
0
 40
200
  1
D01
100
AcDbAttribute
  2
MARK
 70
0
  0
ATTRIB
  5
14C
100
AcDbEntity
  8
TEXT
100
AcDbText
 10
7950
 20
9000
 30
0
 40
200
  1
1000
100
AcDbAttribute
  2
WIDTH
 70
0
  0
SEQEND
  5
14D
100
AcDbEntity
  8
DOOR
  0
INSERT
  5
14E
100
AcDbEntity
  8
DOOR
100
AcDbBlockReference
 66
1
  2
DOOR
 10
2250
 20
4200
 30
0
 41
1
 42
1
 43
1
 50
0
  0
ATTRIB
  5
14F
100
AcDbEntity
  8
TEXT
100
AcDbText
 10
2400
 20
4350
 30
0
 40
200
  1
D01
100
AcDbAttribute
  2
MARK
 70
0
  0
ATTRIB
  5
150
100
AcDbEntity
  8
TEXT
100
AcDbText
 10
2400
 20
4650
 30
0
 40
200
  1
1000
100
AcDbAttribute
  2
WIDTH
 70
0
  0
SEQEND
  5
151
100
AcDbEntity
  8
DOOR
  0
INSERT
  5
152
100
AcDbEntity
  8
DOOR
100
AcDbBlockReference
 66
1
  2
DOOR
 10
6150
 20
4200
 30
0
 41
1
 42
1
 43
1
 50
0
  0
ATTRIB
  5
153
100
AcDbEntity
  8
TEXT
100
AcDbText
 10
6300
 20
4350
 30
0
 40
200
  1
D01
100
AcDbAttribute
  2
MARK
 70
0
  0
ATTRIB
  5
154
100
AcDbEntity
  8
TEXT
100
AcDbText
 10
6300
 20
4650
 30
0
 40
200
  1
1000
100
AcDbAttribute
  2
WIDTH
 70
0
  0
SEQEND
  5
155
100
AcDbEntity
  8
DOOR
  0
INSERT
  5
156
100
AcDbEntity
  8
DOOR
100
AcDbBlockReference
 66
1
  2
DOOR
 10
9600
 20
4200
 30
0
 41
1
 42
1
 43
1
 50
0
  0
ATTRIB
  5
157
100
AcDbEntity
  8
TEXT
100
AcDbText
 10
9750
 20
4350
 30
0
 40
200
  1
D01
100
AcDbAttribute
  2
MARK
 70
0
  0
ATTRIB
  5
158
100
AcDbEntity
  8
TEXT
100
AcDbText
 10
9750
 20
4650
 30
0
 40
200
  1
1000
100
AcDbAttribute
  2
WIDTH
 70
0
  0
SEQEND
  5
159
100
AcDbEntity
  8
DOOR
  0
INSERT
  5
15A
100
AcDbEntity
  8
DOOR
100
AcDbBlockReference
 66
1
  2
DOOR
 10
6150
 20
6600
 30
0
 41
1
 42
1
 43
1
 50
0
  0
ATTRIB
  5
15B
100
AcDbEntity
  8
TEXT
100
AcDbText
 10
6300
 20
6750
 30
0
 40
200
  1
D01
100
AcDbAttribute
  2
MARK
 70
0
  0
ATTRIB
  5
15C
100
AcDbEntity
  8
TEXT
100
AcDbText
 10
6300
 20
7050
 30
0
 40
200
  1
1000
100
AcDbAttribute
  2
WIDTH
 70
0
  0
SEQEND
  5
15D
100
AcDbEntity
  8
DOOR
  0
INSERT
  5
15E
100
AcDbEntity
  8
DOOR
100
AcDbBlockReference
 66
1
  2
DOOR
 10
9600
 20
6600
 30
0
 41
1
 42
1
 43
1
 50
0
  0
ATTRIB
  5
15F
100
AcDbEntity
  8
TEXT
100
AcDbText
 10
9750
 20
6750
 30
0
 40
200
  1
D01
100
AcDbAttribute
  2
MARK
 70
0
  0
ATTRIB
  5
160
100
AcDbEntity
  8
TEXT
100
AcDbText
 10
9750
 20
7050
 30
0
 40
200
  1
1000
100
AcDbAttribute
  2
WIDTH
 70
0
  0
SEQEND
  5
161
100
AcDbEntity
  8
DOOR
  0
LINE
  5
162
100
AcDbEntity
  8
WALL
100
AcDbLine
370
50
 10
-112.5000
 20
0
 30
0
 11
-112.5000
 21
1350
 31
0
  0
LINE
  5
163
100
AcDbEntity
  8
WALL
100
AcDbLine
370
50
 10
112.5000
 20
1350
 30
0
 11
112.5000
 21
0
 31
0
  0
LINE
  5
164
100
AcDbEntity
  8
WALL
100
AcDbLine
370
50
 10
-112.5000
 20
2850
 30
0
 11
-112.5000
 21
4200
 31
0
  0
LINE
  5
165
100
AcDbEntity
  8
WALL
100
AcDbLine
370
50
 10
112.5000
 20
4200
 30
0
 11
112.5000
 21
2850
 31
0
  0
LINE
  5
166
100
AcDbEntity
  8
WALL
100
AcDbLine
370
50
 10
-112.5000
 20
1350
 30
0
 11
112.5000
 21
1350
 31
0
  0
LINE
  5
167
100
AcDbEntity
  8
WALL
100
AcDbLine
370
50
 10
-112.5000
 20
2850
 30
0
 11
112.5000
 21
2850
 31
0
  0
LINE
  5
168
100
AcDbEntity
  8
WALL
100
AcDbLine
370
50
 10
-112.5000
 20
4200
 30
0
 11
-112.5000
 21
4650
 31
0
  0
LINE
  5
169
100
AcDbEntity
  8
WALL
100
AcDbLine
370
50
 10
112.5000
 20
4650
 30
0
 11
112.5000
 21
4200
 31
0
  0
LINE
  5
16A
100
AcDbEntity
  8
WALL
100
AcDbLine
370
50
 10
-112.5000
 20
6150
 30
0
 11
-112.5000
 21
6600
 31
0
  0
LINE
  5
16B
100
AcDbEntity
  8
WALL
100
AcDbLine
370
50
 10
112.5000
 20
6600
 30
0
 11
112.5000
 21
6150
 31
0
  0
LINE
  5
16C
100
AcDbEntity
  8
WALL
100
AcDbLine
370
50
 10
-112.5000
 20
4650
 30
0
 11
112.5000
 21
4650
 31
0
  0
LINE
  5
16D
100
AcDbEntity
  8
WALL
100
AcDbLine
370
50
 10
-112.5000
 20
6150
 30
0
 11
112.5000
 21
6150
 31
0
  0
LINE
  5
16E
100
AcDbEntity
  8
WALL
100
AcDbLine
370
50
 10
-112.5000
 20
6600
 30
0
 11
-112.5000
 21
7800
 31
0
  0
LINE
  5
16F
100
AcDbEntity
  8
WALL
100
AcDbLine
370
50
 10
112.5000
 20
7800
 30
0
 11
112.5000
 21
6600
 31
0
  0
LINE
  5
170
100
AcDbEntity
  8
WALL
100
AcDbLine
370
50
 10
-112.5000
 20
9300
 30
0
 11
-112.5000
 21
10500
 31
0
  0
LINE
  5
171
100
AcDbEntity
  8
WALL
100
AcDbLine
370
50
 10
112.5000
 20
10500
 30
0
 11
112.5000
 21
9300
 31
0
  0
LINE
  5
172
100
AcDbEntity
  8
WALL
100
AcDbLine
370
50
 10
-112.5000
 20
7800
 30
0
 11
112.5000
 21
7800
 31
0
  0
LINE
  5
173
100
AcDbEntity
  8
WALL
100
AcDbLine
370
50
 10
-112.5000
 20
9300
 30
0
 11
112.5000
 21
9300
 31
0
  0
LINE
  5
174
100
AcDbEntity
  8
WALL
100
AcDbLine
370
50
 10
11287.5000
 20
0
 30
0
 11
11287.5000
 21
1350
 31
0
  0
LINE
  5
175
100
AcDbEntity
  8
WALL
100
AcDbLine
370
50
 10
11512.5000
 20
1350
 30
0
 11
11512.5000
 21
0
 31
0
  0
LINE
  5
176
100
AcDbEntity
  8
WALL
100
AcDbLine
370
50
 10
11287.5000
 20
2850
 30
0
 11
11287.5000
 21
4200
 31
0
  0
LINE
  5
177
100
AcDbEntity
  8
WALL
100
AcDbLine
370
50
 10
11512.5000
 20
4200
 30
0
 11
11512.5000
 21
2850
 31
0
  0
LINE
  5
178
100
AcDbEntity
  8
WALL
100
AcDbLine
370
50
 10
11287.5000
 20
1350
 30
0
 11
11512.5000
 21
1350
 31
0
  0
LINE
  5
179
100
AcDbEntity
  8
WALL
100
AcDbLine
370
50
 10
11287.5000
 20
2850
 30
0
 11
11512.5000
 21
2850
 31
0
  0
LINE
  5
17A
100
AcDbEntity
  8
WALL
100
AcDbLine
370
50
 10
11287.5000
 20
4200
 30
0
 11
11287.5000
 21
4650
 31
0
  0
LINE
  5
17B
100
AcDbEntity
  8
WALL
100
AcDbLine
370
50
 10
11512.5000
 20
4650
 30
0
 11
11512.5000
 21
4200
 31
0
  0
LINE
  5
17C
100
AcDbEntity
  8
WALL
100
AcDbLine
370
50
 10
11287.5000
 20
6150
 30
0
 11
11287.5000
 21
6600
 31
0
  0
LINE
  5
17D
100
AcDbEntity
  8
WALL
100
AcDbLine
370
50
 10
11512.5000
 20
6600
 30
0
 11
11512.5000
 21
6150
 31
0
  0
LINE
  5
17E
100
AcDbEntity
  8
WALL
100
AcDbLine
370
50
 10
11287.5000
 20
4650
 30
0
 11
11512.5000
 21
4650
 31
0
  0
LINE
  5
17F
100
AcDbEntity
  8
WALL
100
AcDbLine
370
50
 10
11287.5000
 20
6150
 30
0
 11
11512.5000
 21
6150
 31
0
  0
LINE
  5
180
100
AcDbEntity
  8
WALL
100
AcDbLine
370
50
 10
11287.5000
 20
6600
 30
0
 11
11287.5000
 21
7800
 31
0
  0
LINE
  5
181
100
AcDbEntity
  8
WALL
100
AcDbLine
370
50
 10
11512.5000
 20
7800
 30
0
 11
11512.5000
 21
6600
 31
0
  0
LINE
  5
182
100
AcDbEntity
  8
WALL
100
AcDbLine
370
50
 10
11287.5000
 20
9300
 30
0
 11
11287.5000
 21
10500
 31
0
  0
LINE
  5
183
100
AcDbEntity
  8
WALL
100
AcDbLine
370
50
 10
11512.5000
 20
10500
 30
0
 11
11512.5000
 21
9300
 31
0
  0
LINE
  5
184
100
AcDbEntity
  8
WALL
100
AcDbLine
370
50
 10
11287.5000
 20
7800
 30
0
 11
11512.5000
 21
7800
 31
0
  0
LINE
  5
185
100
AcDbEntity
  8
WALL
100
AcDbLine
370
50
 10
11287.5000
 20
9300
 30
0
 11
11512.5000
 21
9300
 31
0
  0
LINE
  5
186
100
AcDbEntity
  8
WALL
100
AcDbLine
370
50
 10
0
 20
-112.5000
 30
0
 11
1500
 21
-112.5000
 31
0
  0
LINE
  5
187
100
AcDbEntity
  8
WALL
100
AcDbLine
370
50
 10
1500
 20
112.5000
 30
0
 11
0
 21
112.5000
 31
0
  0
LINE
  5
188
100
AcDbEntity
  8
WALL
100
AcDbLine
370
50
 10
3000
 20
-112.5000
 30
0
 11
4500
 21
-112.5000
 31
0
  0
LINE
  5
189
100
AcDbEntity
  8
WALL
100
AcDbLine
370
50
 10
4500
 20
112.5000
 30
0
 11
3000
 21
112.5000
 31
0
  0
LINE
  5
18A
100
AcDbEntity
  8
WALL
100
AcDbLine
370
50
 10
1500
 20
-112.5000
 30
0
 11
1500
 21
112.5000
 31
0
  0
LINE
  5
18B
100
AcDbEntity
  8
WALL
100
AcDbLine
370
50
 10
3000
 20
-112.5000
 30
0
 11
3000
 21
112.5000
 31
0
  0
LINE
  5
18C
100
AcDbEntity
  8
WALL
100
AcDbLine
370
50
 10
4500
 20
-112.5000
 30
0
 11
5400
 21
-112.5000
 31
0
  0
LINE
  5
18D
100
AcDbEntity
  8
WALL
100
AcDbLine
370
50
 10
5400
 20
112.5000
 30
0
 11
4500
 21
112.5000
 31
0
  0
LINE
  5
18E
100
AcDbEntity
  8
WALL
100
AcDbLine
370
50
 10
6900
 20
-112.5000
 30
0
 11
7800
 21
-112.5000
 31
0
  0
LINE
  5
18F
100
AcDbEntity
  8
WALL
100
AcDbLine
370
50
 10
7800
 20
112.5000
 30
0
 11
6900
 21
112.5000
 31
0
  0
LINE
  5
190
100
AcDbEntity
  8
WALL
100
AcDbLine
370
50
 10
5400
 20
-112.5000
 30
0
 11
5400
 21
112.5000
 31
0
  0
LINE
  5
191
100
AcDbEntity
  8
WALL
100
AcDbLine
370
50
 10
6900
 20
-112.5000
 30
0
 11
6900
 21
112.5000
 31
0
  0
LINE
  5
192
100
AcDbEntity
  8
WALL
100
AcDbLine
370
50
 10
7800
 20
-112.5000
 30
0
 11
8850
 21
-112.5000
 31
0
  0
LINE
  5
193
100
AcDbEntity
  8
WALL
100
AcDbLine
370
50
 10
8850
 20
112.5000
 30
0
 11
7800
 21
112.5000
 31
0
  0
LINE
  5
194
100
AcDbEntity
  8
WALL
100
AcDbLine
370
50
 10
10350
 20
-112.5000
 30
0
 11
11400
 21
-112.5000
 31
0
  0
LINE
  5
195
100
AcDbEntity
  8
WALL
100
AcDbLine
370
50
 10
11400
 20
112.5000
 30
0
 11
10350
 21
112.5000
 31
0
  0
LINE
  5
196
100
AcDbEntity
  8
WALL
100
AcDbLine
370
50
 10
8850
 20
-112.5000
 30
0
 11
8850
 21
112.5000
 31
0
  0
LINE
  5
197
100
AcDbEntity
  8
WALL
100
AcDbLine
370
50
 10
10350
 20
-112.5000
 30
0
 11
10350
 21
112.5000
 31
0
  0
LINE
  5
198
100
AcDbEntity
  8
WALL
100
AcDbLine
370
50
 10
0
 20
10387.5000
 30
0
 11
1500
 21
10387.5000
 31
0
  0
LINE
  5
199
100
AcDbEntity
  8
WALL
100
AcDbLine
370
50
 10
1500
 20
10612.5000
 30
0
 11
0
 21
10612.5000
 31
0
  0
LINE
  5
19A
100
AcDbEntity
  8
WALL
100
AcDbLine
370
50
 10
3000
 20
10387.5000
 30
0
 11
4500
 21
10387.5000
 31
0
  0
LINE
  5
19B
100
AcDbEntity
  8
WALL
100
AcDbLine
370
50
 10
4500
 20
10612.5000
 30
0
 11
3000
 21
10612.5000
 31
0
  0
LINE
  5
19C
100
AcDbEntity
  8
WALL
100
AcDbLine
370
50
 10
1500
 20
10387.5000
 30
0
 11
1500
 21
10612.5000
 31
0
  0
LINE
  5
19D
100
AcDbEntity
  8
WALL
100
AcDbLine
370
50
 10
3000
 20
10387.5000
 30
0
 11
3000
 21
10612.5000
 31
0
  0
LINE
  5
19E
100
AcDbEntity
  8
WALL
100
AcDbLine
370
50
 10
4500
 20
10387.5000
 30
0
 11
5400
 21
10387.5000
 31
0
  0
LINE
  5
19F
100
AcDbEntity
  8
WALL
100
AcDbLine
370
50
 10
5400
 20
10612.5000
 30
0
 11
4500
 21
10612.5000
 31
0
  0
LINE
  5
1A0
100
AcDbEntity
  8
WALL
100
AcDbLine
370
50
 10
6900
 20
10387.5000
 30
0
 11
7800
 21
10387.5000
 31
0
  0
LINE
  5
1A1
100
AcDbEntity
  8
WALL
100
AcDbLine
370
50
 10
7800
 20
10612.5000
 30
0
 11
6900
 21
10612.5000
 31
0
  0
LINE
  5
1A2
100
AcDbEntity
  8
WALL
100
AcDbLine
370
50
 10
5400
 20
10387.5000
 30
0
 11
5400
 21
10612.5000
 31
0
  0
LINE
  5
1A3
100
AcDbEntity
  8
WALL
100
AcDbLine
370
50
 10
6900
 20
10387.5000
 30
0
 11
6900
 21
10612.5000
 31
0
  0
LINE
  5
1A4
100
AcDbEntity
  8
WALL
100
AcDbLine
370
50
 10
7800
 20
10387.5000
 30
0
 11
8850
 21
10387.5000
 31
0
  0
LINE
  5
1A5
100
AcDbEntity
  8
WALL
100
AcDbLine
370
50
 10
8850
 20
10612.5000
 30
0
 11
7800
 21
10612.5000
 31
0
  0
LINE
  5
1A6
100
AcDbEntity
  8
WALL
100
AcDbLine
370
50
 10
10350
 20
10387.5000
 30
0
 11
11400
 21
10387.5000
 31
0
  0
LINE
  5
1A7
100
AcDbEntity
  8
WALL
100
AcDbLine
370
50
 10
11400
 20
10612.5000
 30
0
 11
10350
 21
10612.5000
 31
0
  0
LINE
  5
1A8
100
AcDbEntity
  8
WALL
100
AcDbLine
370
50
 10
8850
 20
10387.5000
 30
0
 11
8850
 21
10612.5000
 31
0
  0
LINE
  5
1A9
100
AcDbEntity
  8
WALL
100
AcDbLine
370
50
 10
10350
 20
10387.5000
 30
0
 11
10350
 21
10612.5000
 31
0
  0
LINE
  5
1AA
100
AcDbEntity
  8
WALL
100
AcDbLine
370
50
 10
4425
 20
0
 30
0
 11
4425
 21
1600
 31
0
  0
LINE
  5
1AB
100
AcDbEntity
  8
WALL
100
AcDbLine
370
50
 10
4575
 20
1600
 30
0
 11
4575
 21
0
 31
0
  0
LINE
  5
1AC
100
AcDbEntity
  8
WALL
100
AcDbLine
370
50
 10
4425
 20
2600
 30
0
 11
4425
 21
4200
 31
0
  0
LINE
  5
1AD
100
AcDbEntity
  8
WALL
100
AcDbLine
370
50
 10
4575
 20
4200
 30
0
 11
4575
 21
2600
 31
0
  0
LINE
  5
1AE
100
AcDbEntity
  8
WALL
100
AcDbLine
370
50
 10
4425
 20
1600
 30
0
 11
4575
 21
1600
 31
0
  0
LINE
  5
1AF
100
AcDbEntity
  8
WALL
100
AcDbLine
370
50
 10
4425
 20
2600
 30
0
 11
4575
 21
2600
 31
0
  0
LINE
  5
1B0
100
AcDbEntity
  8
WALL
100
AcDbLine
370
50
 10
4425
 20
4200
 30
0
 11
4425
 21
6600
 31
0
  0
LINE
  5
1B1
100
AcDbEntity
  8
WALL
100
AcDbLine
370
50
 10
4575
 20
6600
 30
0
 11
4575
 21
4200
 31
0
  0
LINE
  5
1B2
100
AcDbEntity
  8
WALL
100
AcDbLine
370
50
 10
4425
 20
6600
 30
0
 11
4425
 21
8050
 31
0
  0
LINE
  5
1B3
100
AcDbEntity
  8
WALL
100
AcDbLine
370
50
 10
4575
 20
8050
 30
0
 11
4575
 21
6600
 31
0
  0
LINE
  5
1B4
100
AcDbEntity
  8
WALL
100
AcDbLine
370
50
 10
4425
 20
9050
 30
0
 11
4425
 21
10500
 31
0
  0
LINE
  5
1B5
100
AcDbEntity
  8
WALL
100
AcDbLine
370
50
 10
4575
 20
10500
 30
0
 11
4575
 21
9050
 31
0
  0
LINE
  5
1B6
100
AcDbEntity
  8
WALL
100
AcDbLine
370
50
 10
4425
 20
8050
 30
0
 11
4575
 21
8050
 31
0
  0
LINE
  5
1B7
100
AcDbEntity
  8
WALL
100
AcDbLine
370
50
 10
4425
 20
9050
 30
0
 11
4575
 21
9050
 31
0
  0
LINE
  5
1B8
100
AcDbEntity
  8
WALL
100
AcDbLine
370
50
 10
7725
 20
0
 30
0
 11
7725
 21
1600
 31
0
  0
LINE
  5
1B9
100
AcDbEntity
  8
WALL
100
AcDbLine
370
50
 10
7875
 20
1600
 30
0
 11
7875
 21
0
 31
0
  0
LINE
  5
1BA
100
AcDbEntity
  8
WALL
100
AcDbLine
370
50
 10
7725
 20
2600
 30
0
 11
7725
 21
4200
 31
0
  0
LINE
  5
1BB
100
AcDbEntity
  8
WALL
100
AcDbLine
370
50
 10
7875
 20
4200
 30
0
 11
7875
 21
2600
 31
0
  0
LINE
  5
1BC
100
AcDbEntity
  8
WALL
100
AcDbLine
370
50
 10
7725
 20
1600
 30
0
 11
7875
 21
1600
 31
0
  0
LINE
  5
1BD
100
AcDbEntity
  8
WALL
100
AcDbLine
370
50
 10
7725
 20
2600
 30
0
 11
7875
 21
2600
 31
0
  0
LINE
  5
1BE
100
AcDbEntity
  8
WALL
100
AcDbLine
370
50
 10
7725
 20
4200
 30
0
 11
7725
 21
4900
 31
0
  0
LINE
  5
1BF
100
AcDbEntity
  8
WALL
100
AcDbLine
370
50
 10
7875
 20
4900
 30
0
 11
7875
 21
4200
 31
0
  0
LINE
  5
1C0
100
AcDbEntity
  8
WALL
100
AcDbLine
370
50
 10
7725
 20
5900
 30
0
 11
7725
 21
6600
 31
0
  0
LINE
  5
1C1
100
AcDbEntity
  8
WALL
100
AcDbLine
370
50
 10
7875
 20
6600
 30
0
 11
7875
 21
5900
 31
0
  0
LINE
  5
1C2
100
AcDbEntity
  8
WALL
100
AcDbLine
370
50
 10
7725
 20
4900
 30
0
 11
7875
 21
4900
 31
0
  0
LINE
  5
1C3
100
AcDbEntity
  8
WALL
100
AcDbLine
370
50
 10
7725
 20
5900
 30
0
 11
7875
 21
5900
 31
0
  0
LINE
  5
1C4
100
AcDbEntity
  8
WALL
100
AcDbLine
370
50
 10
7725
 20
6600
 30
0
 11
7725
 21
8050
 31
0
  0
LINE
  5
1C5
100
AcDbEntity
  8
WALL
100
AcDbLine
370
50
 10
7875
 20
8050
 30
0
 11
7875
 21
6600
 31
0
  0
LINE
  5
1C6
100
AcDbEntity
  8
WALL
100
AcDbLine
370
50
 10
7725
 20
9050
 30
0
 11
7725
 21
10500
 31
0
  0
LINE
  5
1C7
100
AcDbEntity
  8
WALL
100
AcDbLine
370
50
 10
7875
 20
10500
 30
0
 11
7875
 21
9050
 31
0
  0
LINE
  5
1C8
100
AcDbEntity
  8
WALL
100
AcDbLine
370
50
 10
7725
 20
8050
 30
0
 11
7875
 21
8050
 31
0
  0
LINE
  5
1C9
100
AcDbEntity
  8
WALL
100
AcDbLine
370
50
 10
7725
 20
9050
 30
0
 11
7875
 21
9050
 31
0
  0
LINE
  5
1CA
100
AcDbEntity
  8
WALL
100
AcDbLine
370
50
 10
0
 20
4125
 30
0
 11
1750
 21
4125
 31
0
  0
LINE
  5
1CB
100
AcDbEntity
  8
WALL
100
AcDbLine
370
50
 10
1750
 20
4275
 30
0
 11
0
 21
4275
 31
0
  0
LINE
  5
1CC
100
AcDbEntity
  8
WALL
100
AcDbLine
370
50
 10
2750
 20
4125
 30
0
 11
4500
 21
4125
 31
0
  0
LINE
  5
1CD
100
AcDbEntity
  8
WALL
100
AcDbLine
370
50
 10
4500
 20
4275
 30
0
 11
2750
 21
4275
 31
0
  0
LINE
  5
1CE
100
AcDbEntity
  8
WALL
100
AcDbLine
370
50
 10
1750
 20
4125
 30
0
 11
1750
 21
4275
 31
0
  0
LINE
  5
1CF
100
AcDbEntity
  8
WALL
100
AcDbLine
370
50
 10
2750
 20
4125
 30
0
 11
2750
 21
4275
 31
0
  0
LINE
  5
1D0
100
AcDbEntity
  8
WALL
100
AcDbLine
370
50
 10
4500
 20
4125
 30
0
 11
5650
 21
4125
 31
0
  0
LINE
  5
1D1
100
AcDbEntity
  8
WALL
100
AcDbLine
370
50
 10
5650
 20
4275
 30
0
 11
4500
 21
4275
 31
0
  0
LINE
  5
1D2
100
AcDbEntity
  8
WALL
100
AcDbLine
370
50
 10
6650
 20
4125
 30
0
 11
7800
 21
4125
 31
0
  0
LINE
  5
1D3
100
AcDbEntity
  8
WALL
100
AcDbLine
370
50
 10
7800
 20
4275
 30
0
 11
6650
 21
4275
 31
0
  0
LINE
  5
1D4
100
AcDbEntity
  8
WALL
100
AcDbLine
370
50
 10
5650
 20
4125
 30
0
 11
5650
 21
4275
 31
0
  0
LINE
  5
1D5
100
AcDbEntity
  8
WALL
100
AcDbLine
370
50
 10
6650
 20
4125
 30
0
 11
6650
 21
4275
 31
0
  0
LINE
  5
1D6
100
AcDbEntity
  8
WALL
100
AcDbLine
370
50
 10
7800
 20
4125
 30
0
 11
9100
 21
4125
 31
0
  0
LINE
  5
1D7
100
AcDbEntity
  8
WALL
100
AcDbLine
370
50
 10
9100
 20
4275
 30
0
 11
7800
 21
4275
 31
0
  0
LINE
  5
1D8
100
AcDbEntity
  8
WALL
100
AcDbLine
370
50
 10
10100
 20
4125
 30
0
 11
11400
 21
4125
 31
0
  0
LINE
  5
1D9
100
AcDbEntity
  8
WALL
100
AcDbLine
370
50
 10
11400
 20
4275
 30
0
 11
10100
 21
4275
 31
0
  0
LINE
  5
1DA
100
AcDbEntity
  8
WALL
100
AcDbLine
370
50
 10
9100
 20
4125
 30
0
 11
9100
 21
4275
 31
0
  0
LINE
  5
1DB
100
AcDbEntity
  8
WALL
100
AcDbLine
370
50
 10
10100
 20
4125
 30
0
 11
10100
 21
4275
 31
0
  0
LINE
  5
1DC
100
AcDbEntity
  8
WALL
100
AcDbLine
370
50
 10
0
 20
6525
 30
0
 11
4500
 21
6525
 31
0
  0
LINE
  5
1DD
100
AcDbEntity
  8
WALL
100
AcDbLine
370
50
 10
4500
 20
6675
 30
0
 11
0
 21
6675
 31
0
  0
LINE
  5
1DE
100
AcDbEntity
  8
WALL
100
AcDbLine
370
50
 10
4500
 20
6525
 30
0
 11
5650
 21
6525
 31
0
  0
LINE
  5
1DF
100
AcDbEntity
  8
WALL
100
AcDbLine
370
50
 10
5650
 20
6675
 30
0
 11
4500
 21
6675
 31
0
  0
LINE
  5
1E0
100
AcDbEntity
  8
WALL
100
AcDbLine
370
50
 10
6650
 20
6525
 30
0
 11
7800
 21
6525
 31
0
  0
LINE
  5
1E1
100
AcDbEntity
  8
WALL
100
AcDbLine
370
50
 10
7800
 20
6675
 30
0
 11
6650
 21
6675
 31
0
  0
LINE
  5
1E2
100
AcDbEntity
  8
WALL
100
AcDbLine
370
50
 10
5650
 20
6525
 30
0
 11
5650
 21
6675
 31
0
  0
LINE
  5
1E3
100
AcDbEntity
  8
WALL
100
AcDbLine
370
50
 10
6650
 20
6525
 30
0
 11
6650
 21
6675
 31
0
  0
LINE
  5
1E4
100
AcDbEntity
  8
WALL
100
AcDbLine
370
50
 10
7800
 20
6525
 30
0
 11
9100
 21
6525
 31
0
  0
LINE
  5
1E5
100
AcDbEntity
  8
WALL
100
AcDbLine
370
50
 10
9100
 20
6675
 30
0
 11
7800
 21
6675
 31
0
  0
LINE
  5
1E6
100
AcDbEntity
  8
WALL
100
AcDbLine
370
50
 10
10100
 20
6525
 30
0
 11
11400
 21
6525
 31
0
  0
LINE
  5
1E7
100
AcDbEntity
  8
WALL
100
AcDbLine
370
50
 10
11400
 20
6675
 30
0
 11
10100
 21
6675
 31
0
  0
LINE
  5
1E8
100
AcDbEntity
  8
WALL
100
AcDbLine
370
50
 10
9100
 20
6525
 30
0
 11
9100
 21
6675
 31
0
  0
LINE
  5
1E9
100
AcDbEntity
  8
WALL
100
AcDbLine
370
50
 10
10100
 20
6525
 30
0
 11
10100
 21
6675
 31
0
  0
TEXT
  5
1EA
100
AcDbEntity
  8
TEXT
100
AcDbText
 10
1768.7500
 20
2118.7500
 30
0
 40
250
  1
LOUNGE
100
AcDbText
  0
TEXT
  5
1EB
100
AcDbEntity
  8
TEXT
100
AcDbText
 10
5650
 20
2118.7500
 30
0
 40
250
  1
DINING
100
AcDbText
  0
TEXT
  5
1EC
100
AcDbEntity
  8
TEXT
100
AcDbText
 10
9081.2500
 20
2118.7500
 30
0
 40
250
  1
KITCHEN
100
AcDbText
  0
TEXT
  5
1ED
100
AcDbEntity
  8
TEXT
100
AcDbText
 10
1768.7500
 20
5400
 30
0
 40
250
  1
STORE
100
AcDbText
  0
TEXT
  5
1EE
100
AcDbEntity
  8
TEXT
100
AcDbText
 10
5650
 20
5400
 30
0
 40
250
  1
BATH
100
AcDbText
  0
INSERT
  5
1EF
100
AcDbEntity
  8
SANITARY
100
AcDbBlockReference
  2
WC-STD
 10
5175
 20
5925
 30
0
 41
1
 42
1
 43
1
 50
0
  0
TEXT
  5
1F0
100
AcDbEntity
  8
TEXT
100
AcDbText
 10
9081.2500
 20
5400
 30
0
 40
250
  1
WC
100
AcDbText
  0
INSERT
  5
1F1
100
AcDbEntity
  8
SANITARY
100
AcDbBlockReference
  2
WC-STD
 10
8475
 20
5925
 30
0
 41
1
 42
1
 43
1
 50
0
  0
TEXT
  5
1F2
100
AcDbEntity
  8
TEXT
100
AcDbText
 10
1768.7500
 20
8531.2500
 30
0
 40
250
  1
BEDROOM
100
AcDbText
  0
TEXT
  5
1F3
100
AcDbEntity
  8
TEXT
100
AcDbText
 10
5650
 20
8531.2500
 30
0
 40
250
  1
BEDROOM
100
AcDbText
  0
TEXT
  5
1F4
100
AcDbEntity
  8
TEXT
100
AcDbText
 10
9081.2500
 20
8531.2500
 30
0
 40
250
  1
MASTER BEDROOM
100
AcDbText
  0
DIMENSION
  5
1F5
100
AcDbEntity
  8
DIM
100
AcDbDimension
  2
*D
 10
0
 20
-1800
 30
0
 11
5700
 21
-1550
 31
0
 70
33
  1

 42
11400
100
AcDbAlignedDimension
 13
0
 23
0
 33
0
 14
11400
 24
0
 34
0
  0
DIMENSION
  5
1F6
100
AcDbEntity
  8
DIM
100
AcDbDimension
  2
*D
 10
-1800
 20
0
 30
0
 11
-1550
 21
5250
 31
0
 70
33
  1

 42
10500
100
AcDbAlignedDimension
 13
0
 23
0
 33
0
 14
0
 24
10500
 34
0
  0
DIMENSION
  5
1F7
100
AcDbEntity
  8
DIM
100
AcDbDimension
  2
*D
 10
0
 20
11700
 30
0
 11
2250
 21
11950
 31
0
 70
33
  1

 42
4500
100
AcDbAlignedDimension
 13
0
 23
10500
 33
0
 14
4500
 24
10500
 34
0
  0
DIMENSION
  5
1F8
100
AcDbEntity
  8
DIM
100
AcDbDimension
  2
*D
 10
4500
 20
11700
 30
0
 11
6150
 21
11950
 31
0
 70
33
  1

 42
3300
100
AcDbAlignedDimension
 13
4500
 23
10500
 33
0
 14
7800
 24
10500
 34
0
  0
DIMENSION
  5
1F9
100
AcDbEntity
  8
DIM
100
AcDbDimension
  2
*D
 10
7800
 20
11700
 30
0
 11
9600
 21
11950
 31
0
 70
33
  1

 42
3600
100
AcDbAlignedDimension
 13
7800
 23
10500
 33
0
 14
11400
 24
10500
 34
0
  0
DIMENSION
  5
1FA
100
AcDbEntity
  8
DIM
100
AcDbDimension
  2
*D
 10
12600
 20
0
 30
0
 11
12850
 21
2100
 31
0
 70
33
  1

 42
4200
100
AcDbAlignedDimension
 13
11400
 23
0
 33
0
 14
11400
 24
4200
 34
0
  0
DIMENSION
  5
1FB
100
AcDbEntity
  8
DIM
100
AcDbDimension
  2
*D
 10
12600
 20
4200
 30
0
 11
12850
 21
5400
 31
0
 70
33
  1

 42
2400
100
AcDbAlignedDimension
 13
11400
 23
4200
 33
0
 14
11400
 24
6600
 34
0
  0
DIMENSION
  5
1FC
100
AcDbEntity
  8
DIM
100
AcDbDimension
  2
*D
 10
12600
 20
6600
 30
0
 11
12850
 21
8550
 31
0
 70
33
  1

 42
3900
100
AcDbAlignedDimension
 13
11400
 23
6600
 33
0
 14
11400
 24
10500
 34
0
  0
TEXT
  5
1FD
100
AcDbEntity
  8
TEXT
100
AcDbText
 10
0
 20
-3200
 30
0
 40
450
  1
GROUND FLOOR PLAN
100
AcDbText
  0
TEXT
  5
1FE
100
AcDbEntity
  8
TEXT
100
AcDbText
 10
14000
 20
5250
 30
0
 40
300
  1
+450
100
AcDbText
  0
LINE
  5
1FF
100
AcDbEntity
  8
WALL
100
AcDbLine
370
50
 10
23400
 20
0
 30
0
 11
34800
 21
0
 31
0
  0
LINE
  5
200
100
AcDbEntity
  8
WALL
100
AcDbLine
370
50
 10
34800
 20
0
 30
0
 11
34800
 21
4200
 31
0
  0
LINE
  5
201
100
AcDbEntity
  8
WALL
100
AcDbLine
370
50
 10
34800
 20
4200
 30
0
 11
23400
 21
4200
 31
0
  0
LINE
  5
202
100
AcDbEntity
  8
WALL
100
AcDbLine
370
50
 10
23400
 20
4200
 30
0
 11
23400
 21
0
 31
0
  0
LINE
  5
203
100
AcDbEntity
  8
WALL
100
AcDbLine
 10
23400
 20
0
 30
0
 11
34800
 21
0
 31
0
  0
TEXT
  5
204
100
AcDbEntity
  8
TEXT
100
AcDbText
 10
35700
 20
0
 30
0
 40
250
  1
+450 GROUND FLOOR LEVEL
100
AcDbText
  0
LWPOLYLINE
  5
205
100
AcDbEntity
  8
WIND
100
AcDbPolyline
 90
4
 70
1
 10
25500
 20
900
 10
27000
 20
900
 10
27000
 20
2100
 10
25500
 20
2100
  0
LWPOLYLINE
  5
206
100
AcDbEntity
  8
WIND
100
AcDbPolyline
 90
4
 70
1
 10
28350
 20
900
 10
29850
 20
900
 10
29850
 20
2100
 10
28350
 20
2100
  0
LWPOLYLINE
  5
207
100
AcDbEntity
  8
WIND
100
AcDbPolyline
 90
4
 70
1
 10
31200
 20
900
 10
32700
 20
900
 10
32700
 20
2100
 10
31200
 20
2100
  0
LINE
  5
208
100
AcDbEntity
  8
WALL
100
AcDbLine
 10
23400
 20
3000
 30
0
 11
34800
 21
3000
 31
0
  0
TEXT
  5
209
100
AcDbEntity
  8
TEXT
100
AcDbText
 10
35700
 20
3000
 30
0
 40
250
  1
+3450 ROOF LEVEL
100
AcDbText
  0
TEXT
  5
20A
100
AcDbEntity
  8
TEXT
100
AcDbText
 10
23400
 20
-3200
 30
0
 40
450
  1
NORTH ELEVATION
100
AcDbText
  0
LINE
  5
20B
100
AcDbEntity
  8
WALL
100
AcDbLine
370
50
 10
46800
 20
0
 30
0
 11
57300
 21
0
 31
0
  0
LINE
  5
20C
100
AcDbEntity
  8
WALL
100
AcDbLine
370
50
 10
57300
 20
0
 30
0
 11
57300
 21
4200
 31
0
  0
LINE
  5
20D
100
AcDbEntity
  8
WALL
100
AcDbLine
370
50
 10
57300
 20
4200
 30
0
 11
46800
 21
4200
 31
0
  0
LINE
  5
20E
100
AcDbEntity
  8
WALL
100
AcDbLine
370
50
 10
46800
 20
4200
 30
0
 11
46800
 21
0
 31
0
  0
LINE
  5
20F
100
AcDbEntity
  8
WALL
100
AcDbLine
370
50
 10
46800
 20
0
 30
0
 11
57300
 21
0
 31
0
  0
LINE
  5
210
100
AcDbEntity
  8
WALL
100
AcDbLine
370
50
 10
46800
 20
150
 30
0
 11
57300
 21
150
 31
0
  0
TEXT
  5
211
100
AcDbEntity
  8
TEXT
100
AcDbText
 10
58200
 20
0
 30
0
 40
250
  1
+450 GROUND FLOOR LEVEL
100
AcDbText
  0
LINE
  5
212
100
AcDbEntity
  8
WALL
100
AcDbLine
370
50
 10
46800
 20
3000
 30
0
 11
57300
 21
3000
 31
0
  0
LINE
  5
213
100
AcDbEntity
  8
WALL
100
AcDbLine
370
50
 10
46800
 20
3150
 30
0
 11
57300
 21
3150
 31
0
  0
TEXT
  5
214
100
AcDbEntity
  8
TEXT
100
AcDbText
 10
58200
 20
3000
 30
0
 40
250
  1
+3450 ROOF LEVEL
100
AcDbText
  0
TEXT
  5
215
100
AcDbEntity
  8
TEXT
100
AcDbText
 10
47800
 20
1500
 30
0
 40
220
  1
19 NOS RISERS OF 158MM EACH AND TREADS OF 275MM
100
AcDbText
  0
TEXT
  5
216
100
AcDbEntity
  8
TEXT
100
AcDbText
 10
46800
 20
-3200
 30
0
 40
450
  1
SECTION A-A
100
AcDbText
  0
TEXT
  5
217
100
AcDbEntity
  8
TEXT
100
AcDbText
 10
69300
 20
12300
 30
0
 40
350
  1
DOOR SCHEDULE
100
AcDbText
  0
LINE
  5
218
100
AcDbEntity
  8
0
100
AcDbLine
 10
69300
 20
12000
 30
0
 11
78300
 21
12000
 31
0
  0
LINE
  5
219
100
AcDbEntity
  8
0
100
AcDbLine
 10
69300
 20
11300
 30
0
 11
78300
 21
11300
 31
0
  0
LINE
  5
21A
100
AcDbEntity
  8
0
100
AcDbLine
 10
69300
 20
10600
 30
0
 11
78300
 21
10600
 31
0
  0
LINE
  5
21B
100
AcDbEntity
  8
0
100
AcDbLine
 10
69300
 20
12000
 30
0
 11
69300
 21
10600
 31
0
  0
LINE
  5
21C
100
AcDbEntity
  8
0
100
AcDbLine
 10
71700
 20
12000
 30
0
 11
71700
 21
10600
 31
0
  0
LINE
  5
21D
100
AcDbEntity
  8
0
100
AcDbLine
 10
74100
 20
12000
 30
0
 11
74100
 21
10600
 31
0
  0
LINE
  5
21E
100
AcDbEntity
  8
0
100
AcDbLine
 10
76500
 20
12000
 30
0
 11
76500
 21
10600
 31
0
  0
LINE
  5
21F
100
AcDbEntity
  8
0
100
AcDbLine
 10
78300
 20
12000
 30
0
 11
78300
 21
10600
 31
0
  0
TEXT
  5
220
100
AcDbEntity
  8
TEXT
100
AcDbText
 10
69500
 20
11500
 30
0
 40
250
  1
MARK
100
AcDbText
  0
TEXT
  5
221
100
AcDbEntity
  8
TEXT
100
AcDbText
 10
71900
 20
11500
 30
0
 40
250
  1
WIDTH
100
AcDbText
  0
TEXT
  5
222
100
AcDbEntity
  8
TEXT
100
AcDbText
 10
74300
 20
11500
 30
0
 40
250
  1
HEIGHT
100
AcDbText
  0
TEXT
  5
223
100
AcDbEntity
  8
TEXT
100
AcDbText
 10
76700
 20
11500
 30
0
 40
250
  1
NR
100
AcDbText
  0
TEXT
  5
224
100
AcDbEntity
  8
TEXT
100
AcDbText
 10
69500
 20
10800
 30
0
 40
250
  1
D01
100
AcDbText
  0
TEXT
  5
225
100
AcDbEntity
  8
TEXT
100
AcDbText
 10
71900
 20
10800
 30
0
 40
250
  1
1000
100
AcDbText
  0
TEXT
  5
226
100
AcDbEntity
  8
TEXT
100
AcDbText
 10
74300
 20
10800
 30
0
 40
250
  1
2100
100
AcDbText
  0
TEXT
  5
227
100
AcDbEntity
  8
TEXT
100
AcDbText
 10
76700
 20
10800
 30
0
 40
250
  1
10
100
AcDbText
  0
TEXT
  5
228
100
AcDbEntity
  8
TEXT
100
AcDbText
 10
69300
 20
8700
 30
0
 40
350
  1
WINDOW SCHEDULE
100
AcDbText
  0
LINE
  5
229
100
AcDbEntity
  8
0
100
AcDbLine
 10
69300
 20
8400
 30
0
 11
78300
 21
8400
 31
0
  0
LINE
  5
22A
100
AcDbEntity
  8
0
100
AcDbLine
 10
69300
 20
7700
 30
0
 11
78300
 21
7700
 31
0
  0
LINE
  5
22B
100
AcDbEntity
  8
0
100
AcDbLine
 10
69300
 20
7000
 30
0
 11
78300
 21
7000
 31
0
  0
LINE
  5
22C
100
AcDbEntity
  8
0
100
AcDbLine
 10
69300
 20
8400
 30
0
 11
69300
 21
7000
 31
0
  0
LINE
  5
22D
100
AcDbEntity
  8
0
100
AcDbLine
 10
71700
 20
8400
 30
0
 11
71700
 21
7000
 31
0
  0
LINE
  5
22E
100
AcDbEntity
  8
0
100
AcDbLine
 10
74100
 20
8400
 30
0
 11
74100
 21
7000
 31
0
  0
LINE
  5
22F
100
AcDbEntity
  8
0
100
AcDbLine
 10
76500
 20
8400
 30
0
 11
76500
 21
7000
 31
0
  0
LINE
  5
230
100
AcDbEntity
  8
0
100
AcDbLine
 10
78300
 20
8400
 30
0
 11
78300
 21
7000
 31
0
  0
TEXT
  5
231
100
AcDbEntity
  8
TEXT
100
AcDbText
 10
69500
 20
7900
 30
0
 40
250
  1
MARK
100
AcDbText
  0
TEXT
  5
232
100
AcDbEntity
  8
TEXT
100
AcDbText
 10
71900
 20
7900
 30
0
 40
250
  1
WIDTH
100
AcDbText
  0
TEXT
  5
233
100
AcDbEntity
  8
TEXT
100
AcDbText
 10
74300
 20
7900
 30
0
 40
250
  1
HEIGHT
100
AcDbText
  0
TEXT
  5
234
100
AcDbEntity
  8
TEXT
100
AcDbText
 10
76700
 20
7900
 30
0
 40
250
  1
NR
100
AcDbText
  0
TEXT
  5
235
100
AcDbEntity
  8
TEXT
100
AcDbText
 10
69500
 20
7200
 30
0
 40
250
  1
W01
100
AcDbText
  0
TEXT
  5
236
100
AcDbEntity
  8
TEXT
100
AcDbText
 10
71900
 20
7200
 30
0
 40
250
  1
1500
100
AcDbText
  0
TEXT
  5
237
100
AcDbEntity
  8
TEXT
100
AcDbText
 10
74300
 20
7200
 30
0
 40
250
  1
1200
100
AcDbText
  0
TEXT
  5
238
100
AcDbEntity
  8
TEXT
100
AcDbText
 10
76700
 20
7200
 30
0
 40
250
  1
12
100
AcDbText
  0
TEXT
  5
239
100
AcDbEntity
  8
TEXT
100
AcDbText
 10
69300
 20
-3200
 30
0
 40
450
  1
DOOR AND WINDOW SCHEDULE
100
AcDbText
  0
TEXT
  5
23A
100
AcDbEntity
  8
TEXT
100
AcDbText
 10
69300
 20
-4000
 30
0
 40
250
  1
ALL SIZES ARE STRUCTURAL OPENINGS IN MM.
100
AcDbText
  0
ENDSEC
  0
EOF
