  0
SECTION
  2
HEADER
  9
$ACADVER
  1
AC1015
  9
$INSUNITS
 70
6
  9
$MEASUREMENT
 70
1
  9
$HANDSEED
  5
FFFF
  0
ENDSEC
  0
SECTION
  2
TABLES
  0
TABLE
  2
LTYPE
  5
1D5
100
AcDbSymbolTable
 70
1
  0
LTYPE
  5
1D6
330
1D5
100
AcDbSymbolTableRecord
100
AcDbLinetypeTableRecord
  2
CONTINUOUS
 70
0
  3
Solid line
 72
65
 73
0
 40
0
  0
ENDTAB
  0
TABLE
  2
LAYER
  5
1D7
100
AcDbSymbolTable
 70
7
  0
LAYER
  5
1D8
330
1D7
100
AcDbSymbolTableRecord
100
AcDbLayerTableRecord
  2
0
 70
0
 62
1
  6
CONTINUOUS
  0
LAYER
  5
1D9
330
1D7
100
AcDbSymbolTableRecord
100
AcDbLayerTableRecord
  2
WIND
 70
0
 62
2
  6
CONTINUOUS
  0
LAYER
  5
1DA
330
1D7
100
AcDbSymbolTableRecord
100
AcDbLayerTableRecord
  2
DOOR
 70
0
 62
3
  6
CONTINUOUS
  0
LAYER
  5
1DB
330
1D7
100
AcDbSymbolTableRecord
100
AcDbLayerTableRecord
  2
WALL
 70
0
 62
4
  6
CONTINUOUS
  0
LAYER
  5
1DC
330
1D7
100
AcDbSymbolTableRecord
100
AcDbLayerTableRecord
  2
TEXT
 70
0
 62
5
  6
CONTINUOUS
  0
LAYER
  5
1DD
330
1D7
100
AcDbSymbolTableRecord
100
AcDbLayerTableRecord
  2
SANITARY
 70
0
 62
6
  6
CONTINUOUS
  0
LAYER
  5
1DE
330
1D7
100
AcDbSymbolTableRecord
100
AcDbLayerTableRecord
  2
DIM
 70
0
 62
7
  6
CONTINUOUS
  0
ENDTAB
  0
TABLE
  2
BLOCK_RECORD
  5
1DF
100
AcDbSymbolTable
 70
2
  0
BLOCK_RECORD
  5
1E0
330
1DF
100
AcDbSymbolTableRecord
100
AcDbBlockTableRecord
  2
*Model_Space
  0
BLOCK_RECORD
  5
1E1
330
1DF
100
AcDbSymbolTableRecord
100
AcDbBlockTableRecord
  2
*Paper_Space
  0
ENDTAB
  0
ENDSEC
  0
SECTION
  2
BLOCKS
  0
ENDSEC
  0
SECTION
  2
ENTITIES
  0
LWPOLYLINE
  5
100
100
AcDbEntity
  8
WIND
100
AcDbPolyline
 90
4
 70
1
 10
-0.0600
 20
1.5000
 10
0.0600
 20
1.5000
 10
0.0600
 20
2.7000
 10
-0.0600
 20
2.7000
  0
LWPOLYLINE
  5
101
100
AcDbEntity
  8
WIND
100
AcDbPolyline
 90
4
 70
1
 10
-0.0600
 20
4.8000
 10
0.0600
 20
4.8000
 10
0.0600
 20
6
 10
-0.0600
 20
6
  0
LWPOLYLINE
  5
102
100
AcDbEntity
  8
WIND
100
AcDbPolyline
 90
4
 70
1
 10
-0.0600
 20
7.9500
 10
0.0600
 20
7.9500
 10
0.0600
 20
9.1500
 10
-0.0600
 20
9.1500
  0
LWPOLYLINE
  5
103
100
AcDbEntity
  8
WIND
100
AcDbPolyline
 90
4
 70
1
 10
11.3400
 20
1.5000
 10
11.4600
 20
1.5000
 10
11.4600
 20
2.7000
 10
11.3400
 20
2.7000
  0
LWPOLYLINE
  5
104
100
AcDbEntity
  8
WIND
100
AcDbPolyline
 90
4
 70
1
 10
11.3400
 20
4.8000
 10
11.4600
 20
4.8000
 10
11.4600
 20
6
 10
11.3400
 20
6
  0
LWPOLYLINE
  5
105
100
AcDbEntity
  8
WIND
100
AcDbPolyline
 90
4
 70
1
 10
11.3400
 20
7.9500
 10
11.4600
 20
7.9500
 10
11.4600
 20
9.1500
 10
11.3400
 20
9.1500
  0
LWPOLYLINE
  5
106
100
AcDbEntity
  8
WIND
100
AcDbPolyline
 90
4
 70
1
 10
1.6500
 20
-0.0600
 10
2.8500
 20
-0.0600
 10
2.8500
 20
0.0600
 10
1.6500
 20
0.0600
  0
LWPOLYLINE
  5
107
100
AcDbEntity
  8
WIND
100
AcDbPolyline
 90
4
 70
1
 10
5.5500
 20
-0.0600
 10
6.7500
 20
-0.0600
 10
6.7500
 20
0.0600
 10
5.5500
 20
0.0600
  0
LWPOLYLINE
  5
108
100
AcDbEntity
  8
WIND
100
AcDbPolyline
 90
4
 70
1
 10
9
 20
-0.0600
 10
10.2000
 20
-0.0600
 10
10.2000
 20
0.0600
 10
9
 20
0.0600
  0
LWPOLYLINE
  5
109
100
AcDbEntity
  8
WIND
100
AcDbPolyline
 90
4
 70
1
 10
1.6500
 20
10.4400
 10
2.8500
 20
10.4400
 10
2.8500
 20
10.5600
 10
1.6500
 20
10.5600
  0
LWPOLYLINE
  5
10A
100
AcDbEntity
  8
WIND
100
AcDbPolyline
 90
4
 70
1
 10
5.5500
 20
10.4400
 10
6.7500
 20
10.4400
 10
6.7500
 20
10.5600
 10
5.5500
 20
10.5600
  0
LWPOLYLINE
  5
10B
100
AcDbEntity
  8
WIND
100
AcDbPolyline
 90
4
 70
1
 10
9
 20
10.4400
 10
10.2000
 20
10.4400
 10
10.2000
 20
10.5600
 10
9
 20
10.5600
  0
ARC
  5
10C
100
AcDbEntity
  8
DOOR
100
AcDbCircle
 10
4.5000
 20
1.6500
 30
0
 40
0.9000
100
AcDbArc
 50
90
 51
180
  0
LINE
  5
10D
100
AcDbEntity
  8
DOOR
100
AcDbLine
 10
4.5000
 20
1.6500
 30
0
 11
3.6000
 21
1.6500
 31
0
  0
ARC
  5
10E
100
AcDbEntity
  8
DOOR
100
AcDbCircle
 10
4.5000
 20
8.1000
 30
0
 40
0.9000
100
AcDbArc
 50
90
 51
180
  0
LINE
  5
10F
100
AcDbEntity
  8
DOOR
100
AcDbLine
 10
4.5000
 20
8.1000
 30
0
 11
3.6000
 21
8.1000
 31
0
  0
ARC
  5
110
100
AcDbEntity
  8
DOOR
100
AcDbCircle
 10
7.8000
 20
1.6500
 30
0
 40
0.9000
100
AcDbArc
 50
90
 51
180
  0
LINE
  5
111
100
AcDbEntity
  8
DOOR
100
AcDbLine
 10
7.8000
 20
1.6500
 30
0
 11
6.9000
 21
1.6500
 31
0
  0
ARC
  5
112
100
AcDbEntity
  8
DOOR
100
AcDbCircle
 10
7.8000
 20
4.9500
 30
0
 40
0.9000
100
AcDbArc
 50
90
 51
180
  0
LINE
  5
113
100
AcDbEntity
  8
DOOR
100
AcDbLine
 10
7.8000
 20
4.9500
 30
0
 11
6.9000
 21
4.9500
 31
0
  0
ARC
  5
114
100
AcDbEntity
  8
DOOR
100
AcDbCircle
 10
7.8000
 20
8.1000
 30
0
 40
0.9000
100
AcDbArc
 50
90
 51
180
  0
LINE
  5
115
100
AcDbEntity
  8
DOOR
100
AcDbLine
 10
7.8000
 20
8.1000
 30
0
 11
6.9000
 21
8.1000
 31
0
  0
ARC
  5
116
100
AcDbEntity
  8
DOOR
100
AcDbCircle
 10
1.8000
 20
4.2000
 30
0
 40
0.9000
100
AcDbArc
 50
0
 51
90
  0
LINE
  5
117
100
AcDbEntity
  8
DOOR
100
AcDbLine
 10
1.8000
 20
4.2000
 30
0
 11
1.8000
 21
5.1000
 31
0
  0
ARC
  5
118
100
AcDbEntity
  8
DOOR
100
AcDbCircle
 10
5.7000
 20
4.2000
 30
0
 40
0.9000
100
AcDbArc
 50
0
 51
90
  0
LINE
  5
119
100
AcDbEntity
  8
DOOR
100
AcDbLine
 10
5.7000
 20
4.2000
 30
0
 11
5.7000
 21
5.1000
 31
0
  0
ARC
  5
11A
100
AcDbEntity
  8
DOOR
100
AcDbCircle
 10
9.1500
 20
4.2000
 30
0
 40
0.9000
100
AcDbArc
 50
0
 51
90
  0
LINE
  5
11B
100
AcDbEntity
  8
DOOR
100
AcDbLine
 10
9.1500
 20
4.2000
 30
0
 11
9.1500
 21
5.1000
 31
0
  0
ARC
  5
11C
100
AcDbEntity
  8
DOOR
100
AcDbCircle
 10
5.7000
 20
6.6000
 30
0
 40
0.9000
100
AcDbArc
 50
0
 51
90
  0
LINE
  5
11D
100
AcDbEntity
  8
DOOR
100
AcDbLine
 10
5.7000
 20
6.6000
 30
0
 11
5.7000
 21
7.5000
 31
0
  0
ARC
  5
11E
100
AcDbEntity
  8
DOOR
100
AcDbCircle
 10
9.1500
 20
6.6000
 30
0
 40
0.9000
100
AcDbArc
 50
0
 51
90
  0
LINE
  5
11F
100
AcDbEntity
  8
DOOR
100
AcDbLine
 10
9.1500
 20
6.6000
 30
0
 11
9.1500
 21
7.5000
 31
0
  0
LINE
  5
120
100
AcDbEntity
  8
WALL
100
AcDbLine
370
50
 10
-0.1125
 20
0
 30
0
 11
-0.1125
 21
1.5000
 31
0
  0
LINE
  5
121
100
AcDbEntity
  8
WALL
100
AcDbLine
370
50
 10
0.1125
 20
1.5000
 30
0
 11
0.1125
 21
0
 31
0
  0
LINE
  5
122
100
AcDbEntity
  8
WALL
100
AcDbLine
370
50
 10
-0.1125
 20
2.7000
 30
0
 11
-0.1125
 21
4.2000
 31
0
  0
LINE
  5
123
100
AcDbEntity
  8
WALL
100
AcDbLine
370
50
 10
0.1125
 20
4.2000
 30
0
 11
0.1125
 21
2.7000
 31
0
  0
LINE
  5
124
100
AcDbEntity
  8
WALL
100
AcDbLine
370
50
 10
-0.1125
 20
1.5000
 30
0
 11
0.1125
 21
1.5000
 31
0
  0
LINE
  5
125
100
AcDbEntity
  8
WALL
100
AcDbLine
370
50
 10
-0.1125
 20
2.7000
 30
0
 11
0.1125
 21
2.7000
 31
0
  0
LINE
  5
126
100
AcDbEntity
  8
WALL
100
AcDbLine
370
50
 10
-0.1125
 20
4.2000
 30
0
 11
-0.1125
 21
4.8000
 31
0
  0
LINE
  5
127
100
AcDbEntity
  8
WALL
100
AcDbLine
370
50
 10
0.1125
 20
4.8000
 30
0
 11
0.1125
 21
4.2000
 31
0
  0
LINE
  5
128
100
AcDbEntity
  8
WALL
100
AcDbLine
370
50
 10
-0.1125
 20
6
 30
0
 11
-0.1125
 21
6.6000
 31
0
  0
LINE
  5
129
100
AcDbEntity
  8
WALL
100
AcDbLine
370
50
 10
0.1125
 20
6.6000
 30
0
 11
0.1125
 21
6
 31
0
  0
LINE
  5
12A
100
AcDbEntity
  8
WALL
100
AcDbLine
370
50
 10
-0.1125
 20
4.8000
 30
0
 11
0.1125
 21
4.8000
 31
0
  0
LINE
  5
12B
100
AcDbEntity
  8
WALL
100
AcDbLine
370
50
 10
-0.1125
 20
6
 30
0
 11
0.1125
 21
6
 31
0
  0
LINE
  5
12C
100
AcDbEntity
  8
WALL
100
AcDbLine
370
50
 10
-0.1125
 20
6.6000
 30
0
 11
-0.1125
 21
7.9500
 31
0
  0
LINE
  5
12D
100
AcDbEntity
  8
WALL
100
AcDbLine
370
50
 10
0.1125
 20
7.9500
 30
0
 11
0.1125
 21
6.6000
 31
0
  0
LINE
  5
12E
100
AcDbEntity
  8
WALL
100
AcDbLine
370
50
 10
-0.1125
 20
9.1500
 30
0
 11
-0.1125
 21
10.5000
 31
0
  0
LINE
  5
12F
100
AcDbEntity
  8
WALL
100
AcDbLine
370
50
 10
0.1125
 20
10.5000
 30
0
 11
0.1125
 21
9.1500
 31
0
  0
LINE
  5
130
100
AcDbEntity
  8
WALL
100
AcDbLine
370
50
 10
-0.1125
 20
7.9500
 30
0
 11
0.1125
 21
7.9500
 31
0
  0
LINE
  5
131
100
AcDbEntity
  8
WALL
100
AcDbLine
370
50
 10
-0.1125
 20
9.1500
 30
0
 11
0.1125
 21
9.1500
 31
0
  0
LINE
  5
132
100
AcDbEntity
  8
WALL
100
AcDbLine
370
50
 10
11.2875
 20
0
 30
0
 11
11.2875
 21
1.5000
 31
0
  0
LINE
  5
133
100
AcDbEntity
  8
WALL
100
AcDbLine
370
50
 10
11.5125
 20
1.5000
 30
0
 11
11.5125
 21
0
 31
0
  0
LINE
  5
134
100
AcDbEntity
  8
WALL
100
AcDbLine
370
50
 10
11.2875
 20
2.7000
 30
0
 11
11.2875
 21
4.2000
 31
0
  0
LINE
  5
135
100
AcDbEntity
  8
WALL
100
AcDbLine
370
50
 10
11.5125
 20
4.2000
 30
0
 11
11.5125
 21
2.7000
 31
0
  0
LINE
  5
136
100
AcDbEntity
  8
WALL
100
AcDbLine
370
50
 10
11.2875
 20
1.5000
 30
0
 11
11.5125
 21
1.5000
 31
0
  0
LINE
  5
137
100
AcDbEntity
  8
WALL
100
AcDbLine
370
50
 10
11.2875
 20
2.7000
 30
0
 11
11.5125
 21
2.7000
 31
0
  0
LINE
  5
138
100
AcDbEntity
  8
WALL
100
AcDbLine
370
50
 10
11.2875
 20
4.2000
 30
0
 11
11.2875
 21
4.8000
 31
0
  0
LINE
  5
139
100
AcDbEntity
  8
WALL
100
AcDbLine
370
50
 10
11.5125
 20
4.8000
 30
0
 11
11.5125
 21
4.2000
 31
0
  0
LINE
  5
13A
100
AcDbEntity
  8
WALL
100
AcDbLine
370
50
 10
11.2875
 20
6
 30
0
 11
11.2875
 21
6.6000
 31
0
  0
LINE
  5
13B
100
AcDbEntity
  8
WALL
100
AcDbLine
370
50
 10
11.5125
 20
6.6000
 30
0
 11
11.5125
 21
6
 31
0
  0
LINE
  5
13C
100
AcDbEntity
  8
WALL
100
AcDbLine
370
50
 10
11.2875
 20
4.8000
 30
0
 11
11.5125
 21
4.8000
 31
0
  0
LINE
  5
13D
100
AcDbEntity
  8
WALL
100
AcDbLine
370
50
 10
11.2875
 20
6
 30
0
 11
11.5125
 21
6
 31
0
  0
LINE
  5
13E
100
AcDbEntity
  8
WALL
100
AcDbLine
370
50
 10
11.2875
 20
6.6000
 30
0
 11
11.2875
 21
7.9500
 31
0
  0
LINE
  5
13F
100
AcDbEntity
  8
WALL
100
AcDbLine
370
50
 10
11.5125
 20
7.9500
 30
0
 11
11.5125
 21
6.6000
 31
0
  0
LINE
  5
140
100
AcDbEntity
  8
WALL
100
AcDbLine
370
50
 10
11.2875
 20
9.1500
 30
0
 11
11.2875
 21
10.5000
 31
0
  0
LINE
  5
141
100
AcDbEntity
  8
WALL
100
AcDbLine
370
50
 10
11.5125
 20
10.5000
 30
0
 11
11.5125
 21
9.1500
 31
0
  0
LINE
  5
142
100
AcDbEntity
  8
WALL
100
AcDbLine
370
50
 10
11.2875
 20
7.9500
 30
0
 11
11.5125
 21
7.9500
 31
0
  0
LINE
  5
143
100
AcDbEntity
  8
WALL
100
AcDbLine
370
50
 10
11.2875
 20
9.1500
 30
0
 11
11.5125
 21
9.1500
 31
0
  0
LINE
  5
144
100
AcDbEntity
  8
WALL
100
AcDbLine
370
50
 10
0
 20
-0.1125
 30
0
 11
1.6500
 21
-0.1125
 31
0
  0
LINE
  5
145
100
AcDbEntity
  8
WALL
100
AcDbLine
370
50
 10
1.6500
 20
0.1125
 30
0
 11
0
 21
0.1125
 31
0
  0
LINE
  5
146
100
AcDbEntity
  8
WALL
100
AcDbLine
370
50
 10
2.8500
 20
-0.1125
 30
0
 11
4.5000
 21
-0.1125
 31
0
  0
LINE
  5
147
100
AcDbEntity
  8
WALL
100
AcDbLine
370
50
 10
4.5000
 20
0.1125
 30
0
 11
2.8500
 21
0.1125
 31
0
  0
LINE
  5
148
100
AcDbEntity
  8
WALL
100
AcDbLine
370
50
 10
1.6500
 20
-0.1125
 30
0
 11
1.6500
 21
0.1125
 31
0
  0
LINE
  5
149
100
AcDbEntity
  8
WALL
100
AcDbLine
370
50
 10
2.8500
 20
-0.1125
 30
0
 11
2.8500
 21
0.1125
 31
0
  0
LINE
  5
14A
100
AcDbEntity
  8
WALL
100
AcDbLine
370
50
 10
4.5000
 20
-0.1125
 30
0
 11
5.5500
 21
-0.1125
 31
0
  0
LINE
  5
14B
100
AcDbEntity
  8
WALL
100
AcDbLine
370
50
 10
5.5500
 20
0.1125
 30
0
 11
4.5000
 21
0.1125
 31
0
  0
LINE
  5
14C
100
AcDbEntity
  8
WALL
100
AcDbLine
370
50
 10
6.7500
 20
-0.1125
 30
0
 11
7.8000
 21
-0.1125
 31
0
  0
LINE
  5
14D
100
AcDbEntity
  8
WALL
100
AcDbLine
370
50
 10
7.8000
 20
0.1125
 30
0
 11
6.7500
 21
0.1125
 31
0
  0
LINE
  5
14E
100
AcDbEntity
  8
WALL
100
AcDbLine
370
50
 10
5.5500
 20
-0.1125
 30
0
 11
5.5500
 21
0.1125
 31
0
  0
LINE
  5
14F
100
AcDbEntity
  8
WALL
100
AcDbLine
370
50
 10
6.7500
 20
-0.1125
 30
0
 11
6.7500
 21
0.1125
 31
0
  0
LINE
  5
150
100
AcDbEntity
  8
WALL
100
AcDbLine
370
50
 10
7.8000
 20
-0.1125
 30
0
 11
9
 21
-0.1125
 31
0
  0
LINE
  5
151
100
AcDbEntity
  8
WALL
100
AcDbLine
370
50
 10
9
 20
0.1125
 30
0
 11
7.8000
 21
0.1125
 31
0
  0
LINE
  5
152
100
AcDbEntity
  8
WALL
100
AcDbLine
370
50
 10
10.2000
 20
-0.1125
 30
0
 11
11.4000
 21
-0.1125
 31
0
  0
LINE
  5
153
100
AcDbEntity
  8
WALL
100
AcDbLine
370
50
 10
11.4000
 20
0.1125
 30
0
 11
10.2000
 21
0.1125
 31
0
  0
LINE
  5
154
100
AcDbEntity
  8
WALL
100
AcDbLine
370
50
 10
9
 20
-0.1125
 30
0
 11
9
 21
0.1125
 31
0
  0
LINE
  5
155
100
AcDbEntity
  8
WALL
100
AcDbLine
370
50
 10
10.2000
 20
-0.1125
 30
0
 11
10.2000
 21
0.1125
 31
0
  0
LINE
  5
156
100
AcDbEntity
  8
WALL
100
AcDbLine
370
50
 10
0
 20
10.3875
 30
0
 11
1.6500
 21
10.3875
 31
0
  0
LINE
  5
157
100
AcDbEntity
  8
WALL
100
AcDbLine
370
50
 10
1.6500
 20
10.6125
 30
0
 11
0
 21
10.6125
 31
0
  0
LINE
  5
158
100
AcDbEntity
  8
WALL
100
AcDbLine
370
50
 10
2.8500
 20
10.3875
 30
0
 11
4.5000
 21
10.3875
 31
0
  0
LINE
  5
159
100
AcDbEntity
  8
WALL
100
AcDbLine
370
50
 10
4.5000
 20
10.6125
 30
0
 11
2.8500
 21
10.6125
 31
0
  0
LINE
  5
15A
100
AcDbEntity
  8
WALL
100
AcDbLine
370
50
 10
1.6500
 20
10.3875
 30
0
 11
1.6500
 21
10.6125
 31
0
  0
LINE
  5
15B
100
AcDbEntity
  8
WALL
100
AcDbLine
370
50
 10
2.8500
 20
10.3875
 30
0
 11
2.8500
 21
10.6125
 31
0
  0
LINE
  5
15C
100
AcDbEntity
  8
WALL
100
AcDbLine
370
50
 10
4.5000
 20
10.3875
 30
0
 11
5.5500
 21
10.3875
 31
0
  0
LINE
  5
15D
100
AcDbEntity
  8
WALL
100
AcDbLine
370
50
 10
5.5500
 20
10.6125
 30
0
 11
4.5000
 21
10.6125
 31
0
  0
LINE
  5
15E
100
AcDbEntity
  8
WALL
100
AcDbLine
370
50
 10
6.7500
 20
10.3875
 30
0
 11
7.8000
 21
10.3875
 31
0
  0
LINE
  5
15F
100
AcDbEntity
  8
WALL
100
AcDbLine
370
50
 10
7.8000
 20
10.6125
 30
0
 11
6.7500
 21
10.6125
 31
0
  0
LINE
  5
160
100
AcDbEntity
  8
WALL
100
AcDbLine
370
50
 10
5.5500
 20
10.3875
 30
0
 11
5.5500
 21
10.6125
 31
0
  0
LINE
  5
161
100
AcDbEntity
  8
WALL
100
AcDbLine
370
50
 10
6.7500
 20
10.3875
 30
0
 11
6.7500
 21
10.6125
 31
0
  0
LINE
  5
162
100
AcDbEntity
  8
WALL
100
AcDbLine
370
50
 10
7.8000
 20
10.3875
 30
0
 11
9
 21
10.3875
 31
0
  0
LINE
  5
163
100
AcDbEntity
  8
WALL
100
AcDbLine
370
50
 10
9
 20
10.6125
 30
0
 11
7.8000
 21
10.6125
 31
0
  0
LINE
  5
164
100
AcDbEntity
  8
WALL
100
AcDbLine
370
50
 10
10.2000
 20
10.3875
 30
0
 11
11.4000
 21
10.3875
 31
0
  0
LINE
  5
165
100
AcDbEntity
  8
WALL
100
AcDbLine
370
50
 10
11.4000
 20
10.6125
 30
0
 11
10.2000
 21
10.6125
 31
0
  0
LINE
  5
166
100
AcDbEntity
  8
WALL
100
AcDbLine
370
50
 10
9
 20
10.3875
 30
0
 11
9
 21
10.6125
 31
0
  0
LINE
  5
167
100
AcDbEntity
  8
WALL
100
AcDbLine
370
50
 10
10.2000
 20
10.3875
 30
0
 11
10.2000
 21
10.6125
 31
0
  0
LINE
  5
168
100
AcDbEntity
  8
WALL
100
AcDbLine
370
50
 10
4.4250
 20
0
 30
0
 11
4.4250
 21
1.6500
 31
0
  0
LINE
  5
169
100
AcDbEntity
  8
WALL
100
AcDbLine
370
50
 10
4.5750
 20
1.6500
 30
0
 11
4.5750
 21
0
 31
0
  0
LINE
  5
16A
100
AcDbEntity
  8
WALL
100
AcDbLine
370
50
 10
4.4250
 20
2.5500
 30
0
 11
4.4250
 21
4.2000
 31
0
  0
LINE
  5
16B
100
AcDbEntity
  8
WALL
100
AcDbLine
370
50
 10
4.5750
 20
4.2000
 30
0
 11
4.5750
 21
2.5500
 31
0
  0
LINE
  5
16C
100
AcDbEntity
  8
WALL
100
AcDbLine
370
50
 10
4.4250
 20
1.6500
 30
0
 11
4.5750
 21
1.6500
 31
0
  0
LINE
  5
16D
100
AcDbEntity
  8
WALL
100
AcDbLine
370
50
 10
4.4250
 20
2.5500
 30
0
 11
4.5750
 21
2.5500
 31
0
  0
LINE
  5
16E
100
AcDbEntity
  8
WALL
100
AcDbLine
370
50
 10
4.4250
 20
4.2000
 30
0
 11
4.4250
 21
6.6000
 31
0
  0
LINE
  5
16F
100
AcDbEntity
  8
WALL
100
AcDbLine
370
50
 10
4.5750
 20
6.6000
 30
0
 11
4.5750
 21
4.2000
 31
0
  0
LINE
  5
170
100
AcDbEntity
  8
WALL
100
AcDbLine
370
50
 10
4.4250
 20
6.6000
 30
0
 11
4.4250
 21
8.1000
 31
0
  0
LINE
  5
171
100
AcDbEntity
  8
WALL
100
AcDbLine
370
50
 10
4.5750
 20
8.1000
 30
0
 11
4.5750
 21
6.6000
 31
0
  0
LINE
  5
172
100
AcDbEntity
  8
WALL
100
AcDbLine
370
50
 10
4.4250
 20
9
 30
0
 11
4.4250
 21
10.5000
 31
0
  0
LINE
  5
173
100
AcDbEntity
  8
WALL
100
AcDbLine
370
50
 10
4.5750
 20
10.5000
 30
0
 11
4.5750
 21
9
 31
0
  0
LINE
  5
174
100
AcDbEntity
  8
WALL
100
AcDbLine
370
50
 10
4.4250
 20
8.1000
 30
0
 11
4.5750
 21
8.1000
 31
0
  0
LINE
  5
175
100
AcDbEntity
  8
WALL
100
AcDbLine
370
50
 10
4.4250
 20
9
 30
0
 11
4.5750
 21
9
 31
0
  0
LINE
  5
176
100
AcDbEntity
  8
WALL
100
AcDbLine
370
50
 10
7.7250
 20
0
 30
0
 11
7.7250
 21
1.6500
 31
0
  0
LINE
  5
177
100
AcDbEntity
  8
WALL
100
AcDbLine
370
50
 10
7.8750
 20
1.6500
 30
0
 11
7.8750
 21
0
 31
0
  0
LINE
  5
178
100
AcDbEntity
  8
WALL
100
AcDbLine
370
50
 10
7.7250
 20
2.5500
 30
0
 11
7.7250
 21
4.2000
 31
0
  0
LINE
  5
179
100
AcDbEntity
  8
WALL
100
AcDbLine
370
50
 10
7.8750
 20
4.2000
 30
0
 11
7.8750
 21
2.5500
 31
0
  0
LINE
  5
17A
100
AcDbEntity
  8
WALL
100
AcDbLine
370
50
 10
7.7250
 20
1.6500
 30
0
 11
7.8750
 21
1.6500
 31
0
  0
LINE
  5
17B
100
AcDbEntity
  8
WALL
100
AcDbLine
370
50
 10
7.7250
 20
2.5500
 30
0
 11
7.8750
 21
2.5500
 31
0
  0
LINE
  5
17C
100
AcDbEntity
  8
WALL
100
AcDbLine
370
50
 10
7.7250
 20
4.2000
 30
0
 11
7.7250
 21
4.9500
 31
0
  0
LINE
  5
17D
100
AcDbEntity
  8
WALL
100
AcDbLine
370
50
 10
7.8750
 20
4.9500
 30
0
 11
7.8750
 21
4.2000
 31
0
  0
LINE
  5
17E
100
AcDbEntity
  8
WALL
100
AcDbLine
370
50
 10
7.7250
 20
5.8500
 30
0
 11
7.7250
 21
6.6000
 31
0
  0
LINE
  5
17F
100
AcDbEntity
  8
WALL
100
AcDbLine
370
50
 10
7.8750
 20
6.6000
 30
0
 11
7.8750
 21
5.8500
 31
0
  0
LINE
  5
180
100
AcDbEntity
  8
WALL
100
AcDbLine
370
50
 10
7.7250
 20
4.9500
 30
0
 11
7.8750
 21
4.9500
 31
0
  0
LINE
  5
181
100
AcDbEntity
  8
WALL
100
AcDbLine
370
50
 10
7.7250
 20
5.8500
 30
0
 11
7.8750
 21
5.8500
 31
0
  0
LINE
  5
182
100
AcDbEntity
  8
WALL
100
AcDbLine
370
50
 10
7.7250
 20
6.6000
 30
0
 11
7.7250
 21
8.1000
 31
0
  0
LINE
  5
183
100
AcDbEntity
  8
WALL
100
AcDbLine
370
50
 10
7.8750
 20
8.1000
 30
0
 11
7.8750
 21
6.6000
 31
0
  0
LINE
  5
184
100
AcDbEntity
  8
WALL
100
AcDbLine
370
50
 10
7.7250
 20
9
 30
0
 11
7.7250
 21
10.5000
 31
0
  0
LINE
  5
185
100
AcDbEntity
  8
WALL
100
AcDbLine
370
50
 10
7.8750
 20
10.5000
 30
0
 11
7.8750
 21
9
 31
0
  0
LINE
  5
186
100
AcDbEntity
  8
WALL
100
AcDbLine
370
50
 10
7.7250
 20
8.1000
 30
0
 11
7.8750
 21
8.1000
 31
0
  0
LINE
  5
187
100
AcDbEntity
  8
WALL
100
AcDbLine
370
50
 10
7.7250
 20
9
 30
0
 11
7.8750
 21
9
 31
0
  0
LINE
  5
188
100
AcDbEntity
  8
WALL
100
AcDbLine
370
50
 10
0
 20
4.1250
 30
0
 11
1.8000
 21
4.1250
 31
0
  0
LINE
  5
189
100
AcDbEntity
  8
WALL
100
AcDbLine
370
50
 10
1.8000
 20
4.2750
 30
0
 11
0
 21
4.2750
 31
0
  0
LINE
  5
18A
100
AcDbEntity
  8
WALL
100
AcDbLine
370
50
 10
2.7000
 20
4.1250
 30
0
 11
4.5000
 21
4.1250
 31
0
  0
LINE
  5
18B
100
AcDbEntity
  8
WALL
100
AcDbLine
370
50
 10
4.5000
 20
4.2750
 30
0
 11
2.7000
 21
4.2750
 31
0
  0
LINE
  5
18C
100
AcDbEntity
  8
WALL
100
AcDbLine
370
50
 10
1.8000
 20
4.1250
 30
0
 11
1.8000
 21
4.2750
 31
0
  0
LINE
  5
18D
100
AcDbEntity
  8
WALL
100
AcDbLine
370
50
 10
2.7000
 20
4.1250
 30
0
 11
2.7000
 21
4.2750
 31
0
  0
LINE
  5
18E
100
AcDbEntity
  8
WALL
100
AcDbLine
370
50
 10
4.5000
 20
4.1250
 30
0
 11
5.7000
 21
4.1250
 31
0
  0
LINE
  5
18F
100
AcDbEntity
  8
WALL
100
AcDbLine
370
50
 10
5.7000
 20
4.2750
 30
0
 11
4.5000
 21
4.2750
 31
0
  0
LINE
  5
190
100
AcDbEntity
  8
WALL
100
AcDbLine
370
50
 10
6.6000
 20
4.1250
 30
0
 11
7.8000
 21
4.1250
 31
0
  0
LINE
  5
191
100
AcDbEntity
  8
WALL
100
AcDbLine
370
50
 10
7.8000
 20
4.2750
 30
0
 11
6.6000
 21
4.2750
 31
0
  0
LINE
  5
192
100
AcDbEntity
  8
WALL
100
AcDbLine
370
50
 10
5.7000
 20
4.1250
 30
0
 11
5.7000
 21
4.2750
 31
0
  0
LINE
  5
193
100
AcDbEntity
  8
WALL
100
AcDbLine
370
50
 10
6.6000
 20
4.1250
 30
0
 11
6.6000
 21
4.2750
 31
0
  0
LINE
  5
194
100
AcDbEntity
  8
WALL
100
AcDbLine
370
50
 10
7.8000
 20
4.1250
 30
0
 11
9.1500
 21
4.1250
 31
0
  0
LINE
  5
195
100
AcDbEntity
  8
WALL
100
AcDbLine
370
50
 10
9.1500
 20
4.2750
 30
0
 11
7.8000
 21
4.2750
 31
0
  0
LINE
  5
196
100
AcDbEntity
  8
WALL
100
AcDbLine
370
50
 10
10.0500
 20
4.1250
 30
0
 11
11.4000
 21
4.1250
 31
0
  0
LINE
  5
197
100
AcDbEntity
  8
WALL
100
AcDbLine
370
50
 10
11.4000
 20
4.2750
 30
0
 11
10.0500
 21
4.2750
 31
0
  0
LINE
  5
198
100
AcDbEntity
  8
WALL
100
AcDbLine
370
50
 10
9.1500
 20
4.1250
 30
0
 11
9.1500
 21
4.2750
 31
0
  0
LINE
  5
199
100
AcDbEntity
  8
WALL
100
AcDbLine
370
50
 10
10.0500
 20
4.1250
 30
0
 11
10.0500
 21
4.2750
 31
0
  0
LINE
  5
19A
100
AcDbEntity
  8
WALL
100
AcDbLine
370
50
 10
0
 20
6.5250
 30
0
 11
4.5000
 21
6.5250
 31
0
  0
LINE
  5
19B
100
AcDbEntity
  8
WALL
100
AcDbLine
370
50
 10
4.5000
 20
6.6750
 30
0
 11
0
 21
6.6750
 31
0
  0
LINE
  5
19C
100
AcDbEntity
  8
WALL
100
AcDbLine
370
50
 10
4.5000
 20
6.5250
 30
0
 11
5.7000
 21
6.5250
 31
0
  0
LINE
  5
19D
100
AcDbEntity
  8
WALL
100
AcDbLine
370
50
 10
5.7000
 20
6.6750
 30
0
 11
4.5000
 21
6.6750
 31
0
  0
LINE
  5
19E
100
AcDbEntity
  8
WALL
100
AcDbLine
370
50
 10
6.6000
 20
6.5250
 30
0
 11
7.8000
 21
6.5250
 31
0
  0
LINE
  5
19F
100
AcDbEntity
  8
WALL
100
AcDbLine
370
50
 10
7.8000
 20
6.6750
 30
0
 11
6.6000
 21
6.6750
 31
0
  0
LINE
  5
1A0
100
AcDbEntity
  8
WALL
100
AcDbLine
370
50
 10
5.7000
 20
6.5250
 30
0
 11
5.7000
 21
6.6750
 31
0
  0
LINE
  5
1A1
100
AcDbEntity
  8
WALL
100
AcDbLine
370
50
 10
6.6000
 20
6.5250
 30
0
 11
6.6000
 21
6.6750
 31
0
  0
LINE
  5
1A2
100
AcDbEntity
  8
WALL
100
AcDbLine
370
50
 10
7.8000
 20
6.5250
 30
0
 11
9.1500
 21
6.5250
 31
0
  0
LINE
  5
1A3
100
AcDbEntity
  8
WALL
100
AcDbLine
370
50
 10
9.1500
 20
6.6750
 30
0
 11
7.8000
 21
6.6750
 31
0
  0
LINE
  5
1A4
100
AcDbEntity
  8
WALL
100
AcDbLine
370
50
 10
10.0500
 20
6.5250
 30
0
 11
11.4000
 21
6.5250
 31
0
  0
LINE
  5
1A5
100
AcDbEntity
  8
WALL
100
AcDbLine
370
50
 10
11.4000
 20
6.6750
 30
0
 11
10.0500
 21
6.6750
 31
0
  0
LINE
  5
1A6
100
AcDbEntity
  8
WALL
100
AcDbLine
370
50
 10
9.1500
 20
6.5250
 30
0
 11
9.1500
 21
6.6750
 31
0
  0
LINE
  5
1A7
100
AcDbEntity
  8
WALL
100
AcDbLine
370
50
 10
10.0500
 20
6.5250
 30
0
 11
10.0500
 21
6.6750
 31
0
  0
TEXT
  5
1A8
100
AcDbEntity
  8
TEXT
100
AcDbText
 10
1.7688
 20
2.1187
 30
0
 40
0.2500
  1
LOUNGE
100
AcDbText
  0
TEXT
  5
1A9
100
AcDbEntity
  8
TEXT
100
AcDbText
 10
5.6500
 20
2.1187
 30
0
 40
0.2500
  1
DINING
100
AcDbText
  0
TEXT
  5
1AA
100
AcDbEntity
  8
TEXT
100
AcDbText
 10
9.0813
 20
2.1187
 30
0
 40
0.2500
  1
KITCHEN
100
AcDbText
  0
TEXT
  5
1AB
100
AcDbEntity
  8
TEXT
100
AcDbText
 10
1.7688
 20
5.4000
 30
0
 40
0.2500
  1
STORE
100
AcDbText
  0
TEXT
  5
1AC
100
AcDbEntity
  8
TEXT
100
AcDbText
 10
5.6500
 20
5.4000
 30
0
 40
0.2500
  1
BATH
100
AcDbText
  0
LWPOLYLINE
  5
1AD
100
AcDbEntity
  8
SANITARY
100
AcDbPolyline
 90
4
 70
1
 10
4.9750
 20
5.6250
 10
5.3750
 20
5.6250
 10
5.3750
 20
6.2250
 10
4.9750
 20
6.2250
  0
TEXT
  5
1AE
100
AcDbEntity
  8
TEXT
100
AcDbText
 10
9.0813
 20
5.4000
 30
0
 40
0.2500
  1
WC
100
AcDbText
  0
LWPOLYLINE
  5
1AF
100
AcDbEntity
  8
SANITARY
100
AcDbPolyline
 90
4
 70
1
 10
8.2750
 20
5.6250
 10
8.6750
 20
5.6250
 10
8.6750
 20
6.2250
 10
8.2750
 20
6.2250
  0
TEXT
  5
1B0
100
AcDbEntity
  8
TEXT
100
AcDbText
 10
1.7688
 20
8.5313
 30
0
 40
0.2500
  1
BEDROOM
100
AcDbText
  0
TEXT
  5
1B1
100
AcDbEntity
  8
TEXT
100
AcDbText
 10
5.6500
 20
8.5313
 30
0
 40
0.2500
  1
BEDROOM
100
AcDbText
  0
TEXT
  5
1B2
100
AcDbEntity
  8
TEXT
100
AcDbText
 10
9.0813
 20
8.5313
 30
0
 40
0.2500
  1
MASTER BEDROOM
100
AcDbText
  0
DIMENSION
  5
1B3
100
AcDbEntity
  8
DIM
100
AcDbDimension
  2
*D
 10
0
 20
-1.8000
 30
0
 11
5.7000
 21
-1.5500
 31
0
 70
33
  1

 42
11.4000
100
AcDbAlignedDimension
 13
0
 23
0
 33
0
 14
11.4000
 24
0
 34
0
  0
DIMENSION
  5
1B4
100
AcDbEntity
  8
DIM
100
AcDbDimension
  2
*D
 10
-1.8000
 20
0
 30
0
 11
-1.5500
 21
5.2500
 31
0
 70
33
  1

 42
10.5000
100
AcDbAlignedDimension
 13
0
 23
0
 33
0
 14
0
 24
10.5000
 34
0
  0
DIMENSION
  5
1B5
100
AcDbEntity
  8
DIM
100
AcDbDimension
  2
*D
 10
0
 20
11.7000
 30
0
 11
2.2500
 21
11.9500
 31
0
 70
33
  1

 42
4.5000
100
AcDbAlignedDimension
 13
0
 23
10.5000
 33
0
 14
4.5000
 24
10.5000
 34
0
  0
DIMENSION
  5
1B6
100
AcDbEntity
  8
DIM
100
AcDbDimension
  2
*D
 10
4.5000
 20
11.7000
 30
0
 11
6.1500
 21
11.9500
 31
0
 70
33
  1

 42
3.3000
100
AcDbAlignedDimension
 13
4.5000
 23
10.5000
 33
0
 14
7.8000
 24
10.5000
 34
0
  0
DIMENSION
  5
1B7
100
AcDbEntity
  8
DIM
100
AcDbDimension
  2
*D
 10
7.8000
 20
11.7000
 30
0
 11
9.6000
 21
11.9500
 31
0
 70
33
  1

 42
3.6000
100
AcDbAlignedDimension
 13
7.8000
 23
10.5000
 33
0
 14
11.4000
 24
10.5000
 34
0
  0
DIMENSION
  5
1B8
100
AcDbEntity
  8
DIM
100
AcDbDimension
  2
*D
 10
12.6000
 20
0
 30
0
 11
12.8500
 21
2.1000
 31
0
 70
33
  1

 42
4.2000
100
AcDbAlignedDimension
 13
11.4000
 23
0
 33
0
 14
11.4000
 24
4.2000
 34
0
  0
DIMENSION
  5
1B9
100
AcDbEntity
  8
DIM
100
AcDbDimension
  2
*D
 10
12.6000
 20
4.2000
 30
0
 11
12.8500
 21
5.4000
 31
0
 70
33
  1

 42
2.4000
100
AcDbAlignedDimension
 13
11.4000
 23
4.2000
 33
0
 14
11.4000
 24
6.6000
 34
0
  0
DIMENSION
  5
1BA
100
AcDbEntity
  8
DIM
100
AcDbDimension
  2
*D
 10
12.6000
 20
6.6000
 30
0
 11
12.8500
 21
8.5500
 31
0
 70
33
  1

 42
3.9000
100
AcDbAlignedDimension
 13
11.4000
 23
6.6000
 33
0
 14
11.4000
 24
10.5000
 34
0
  0
TEXT
  5
1BB
100
AcDbEntity
  8
TEXT
100
AcDbText
 10
0
 20
-3.2000
 30
0
 40
0.4500
  1
GROUND FLOOR PLAN
100
AcDbText
  0
TEXT
  5
1BC
100
AcDbEntity
  8
TEXT
100
AcDbText
 10
14
 20
5.2500
 30
0
 40
0.3000
  1
+450
100
AcDbText
  0
LINE
  5
1BD
100
AcDbEntity
  8
WALL
100
AcDbLine
370
50
 10
23.4000
 20
0
 30
0
 11
34.8000
 21
0
 31
0
  0
LINE
  5
1BE
100
AcDbEntity
  8
WALL
100
AcDbLine
370
50
 10
34.8000
 20
0
 30
0
 11
34.8000
 21
4.2000
 31
0
  0
LINE
  5
1BF
100
AcDbEntity
  8
WALL
100
AcDbLine
370
50
 10
34.8000
 20
4.2000
 30
0
 11
23.4000
 21
4.2000
 31
0
  0
LINE
  5
1C0
100
AcDbEntity
  8
WALL
100
AcDbLine
370
50
 10
23.4000
 20
4.2000
 30
0
 11
23.4000
 21
0
 31
0
  0
LINE
  5
1C1
100
AcDbEntity
  8
WALL
100
AcDbLine
 10
23.4000
 20
0
 30
0
 11
34.8000
 21
0
 31
0
  0
TEXT
  5
1C2
100
AcDbEntity
  8
TEXT
100
AcDbText
 10
35.7000
 20
0
 30
0
 40
0.2500
  1
+450 GROUND FLOOR LEVEL
100
AcDbText
  0
LWPOLYLINE
  5
1C3
100
AcDbEntity
  8
WIND
100
AcDbPolyline
 90
4
 70
1
 10
25.6500
 20
0.9000
 10
26.8500
 20
0.9000
 10
26.8500
 20
2.1000
 10
25.6500
 20
2.1000
  0
LWPOLYLINE
  5
1C4
100
AcDbEntity
  8
WIND
100
AcDbPolyline
 90
4
 70
1
 10
28.5000
 20
0.9000
 10
29.7000
 20
0.9000
 10
29.7000
 20
2.1000
 10
28.5000
 20
2.1000
  0
LWPOLYLINE
  5
1C5
100
AcDbEntity
  8
WIND
100
AcDbPolyline
 90
4
 70
1
 10
31.3500
 20
0.9000
 10
32.5500
 20
0.9000
 10
32.5500
 20
2.1000
 10
31.3500
 20
2.1000
  0
LINE
  5
1C6
100
AcDbEntity
  8
WALL
100
AcDbLine
 10
23.4000
 20
3
 30
0
 11
34.8000
 21
3
 31
0
  0
TEXT
  5
1C7
100
AcDbEntity
  8
TEXT
100
AcDbText
 10
35.7000
 20
3
 30
0
 40
0.2500
  1
+3450 ROOF LEVEL
100
AcDbText
  0
TEXT
  5
1C8
100
AcDbEntity
  8
TEXT
100
AcDbText
 10
23.4000
 20
-3.2000
 30
0
 40
0.4500
  1
NORTH ELEVATION
100
AcDbText
  0
LINE
  5
1C9
100
AcDbEntity
  8
WALL
100
AcDbLine
370
50
 10
46.8000
 20
0
 30
0
 11
57.3000
 21
0
 31
0
  0
LINE
  5
1CA
100
AcDbEntity
  8
WALL
100
AcDbLine
370
50
 10
57.3000
 20
0
 30
0
 11
57.3000
 21
4.2000
 31
0
  0
LINE
  5
1CB
100
AcDbEntity
  8
WALL
100
AcDbLine
370
50
 10
57.3000
 20
4.2000
 30
0
 11
46.8000
 21
4.2000
 31
0
  0
LINE
  5
1CC
100
AcDbEntity
  8
WALL
100
AcDbLine
370
50
 10
46.8000
 20
4.2000
 30
0
 11
46.8000
 21
0
 31
0
  0
LINE
  5
1CD
100
AcDbEntity
  8
WALL
100
AcDbLine
370
50
 10
46.8000
 20
0
 30
0
 11
57.3000
 21
0
 31
0
  0
LINE
  5
1CE
100
AcDbEntity
  8
WALL
100
AcDbLine
370
50
 10
46.8000
 20
0.1500
 30
0
 11
57.3000
 21
0.1500
 31
0
  0
TEXT
  5
1CF
100
AcDbEntity
  8
TEXT
100
AcDbText
 10
58.2000
 20
0
 30
0
 40
0.2500
  1
+450 GROUND FLOOR LEVEL
100
AcDbText
  0
LINE
  5
1D0
100
AcDbEntity
  8
WALL
100
AcDbLine
370
50
 10
46.8000
 20
3
 30
0
 11
57.3000
 21
3
 31
0
  0
LINE
  5
1D1
100
AcDbEntity
  8
WALL
100
AcDbLine
370
50
 10
46.8000
 20
3.1500
 30
0
 11
57.3000
 21
3.1500
 31
0
  0
TEXT
  5
1D2
100
AcDbEntity
  8
TEXT
100
AcDbText
 10
58.2000
 20
3
 30
0
 40
0.2500
  1
+3450 ROOF LEVEL
100
AcDbText
  0
TEXT
  5
1D3
100
AcDbEntity
  8
TEXT
100
AcDbText
 10
47.8000
 20
1.5000
 30
0
 40
0.2200
  1
19 NOS RISERS OF 158MM EACH AND TREADS OF 275MM
100
AcDbText
  0
TEXT
  5
1D4
100
AcDbEntity
  8
TEXT
100
AcDbText
 10
46.8000
 20
-3.2000
 30
0
 40
0.4500
  1
SECTION A-A
100
AcDbText
  0
ENDSEC
  0
EOF
