  0
SECTION
  2
HEADER
  9
$ACADVER
  1
AC1015
  9
$INSUNITS
 70
6
  9
$MEASUREMENT
 70
1
  9
$HANDSEED
  5
FFFF
  0
ENDSEC
  0
SECTION
  2
TABLES
  0
TABLE
  2
LTYPE
  5
2B9
100
AcDbSymbolTable
 70
1
  0
LTYPE
  5
2BA
330
2B9
100
AcDbSymbolTableRecord
100
AcDbLinetypeTableRecord
  2
CONTINUOUS
 70
0
  3
Solid line
 72
65
 73
0
 40
0
  0
ENDTAB
  0
TABLE
  2
LAYER
  5
2BB
100
AcDbSymbolTable
 70
8
  0
LAYER
  5
2BC
330
2BB
100
AcDbSymbolTableRecord
100
AcDbLayerTableRecord
  2
0
 70
0
 62
1
  6
CONTINUOUS
  0
LAYER
  5
2BD
330
2BB
100
AcDbSymbolTableRecord
100
AcDbLayerTableRecord
  2
WIND
 70
0
 62
2
  6
CONTINUOUS
  0
LAYER
  5
2BE
330
2BB
100
AcDbSymbolTableRecord
100
AcDbLayerTableRecord
  2
DOOR
 70
0
 62
3
  6
CONTINUOUS
  0
LAYER
  5
2BF
330
2BB
100
AcDbSymbolTableRecord
100
AcDbLayerTableRecord
  2
WALL
 70
0
 62
4
  6
CONTINUOUS
  0
LAYER
  5
2C0
330
2BB
100
AcDbSymbolTableRecord
100
AcDbLayerTableRecord
  2
COLUMN
 70
0
 62
5
  6
CONTINUOUS
  0
LAYER
  5
2C1
330
2BB
100
AcDbSymbolTableRecord
100
AcDbLayerTableRecord
  2
TEXT
 70
0
 62
6
  6
CONTINUOUS
  0
LAYER
  5
2C2
330
2BB
100
AcDbSymbolTableRecord
100
AcDbLayerTableRecord
  2
SANITARY
 70
0
 62
7
  6
CONTINUOUS
  0
LAYER
  5
2C3
330
2BB
100
AcDbSymbolTableRecord
100
AcDbLayerTableRecord
  2
DIM
 70
0
 62
1
  6
CONTINUOUS
  0
ENDTAB
  0
TABLE
  2
BLOCK_RECORD
  5
2C4
100
AcDbSymbolTable
 70
2
  0
BLOCK_RECORD
  5
2C5
330
2C4
100
AcDbSymbolTableRecord
100
AcDbBlockTableRecord
  2
*Model_Space
  0
BLOCK_RECORD
  5
2C6
330
2C4
100
AcDbSymbolTableRecord
100
AcDbBlockTableRecord
  2
*Paper_Space
  0
ENDTAB
  0
ENDSEC
  0
SECTION
  2
BLOCKS
  0
ENDSEC
  0
SECTION
  2
ENTITIES
  0
LWPOLYLINE
  5
100
100
AcDbEntity
  8
WIND
100
AcDbPolyline
 90
4
 70
1
 10
1.6500
 20
-0.0600
 10
2.8500
 20
-0.0600
 10
2.8500
 20
0.0600
 10
1.6500
 20
0.0600
  0
LWPOLYLINE
  5
101
100
AcDbEntity
  8
WIND
100
AcDbPolyline
 90
4
 70
1
 10
1.6500
 20
10.4400
 10
2.8500
 20
10.4400
 10
2.8500
 20
10.5600
 10
1.6500
 20
10.5600
  0
LWPOLYLINE
  5
102
100
AcDbEntity
  8
WIND
100
AcDbPolyline
 90
4
 70
1
 10
5.5500
 20
-0.0600
 10
6.7500
 20
-0.0600
 10
6.7500
 20
0.0600
 10
5.5500
 20
0.0600
  0
LWPOLYLINE
  5
103
100
AcDbEntity
  8
WIND
100
AcDbPolyline
 90
4
 70
1
 10
5.5500
 20
10.4400
 10
6.7500
 20
10.4400
 10
6.7500
 20
10.5600
 10
5.5500
 20
10.5600
  0
LWPOLYLINE
  5
104
100
AcDbEntity
  8
WIND
100
AcDbPolyline
 90
4
 70
1
 10
9
 20
-0.0600
 10
10.2000
 20
-0.0600
 10
10.2000
 20
0.0600
 10
9
 20
0.0600
  0
LWPOLYLINE
  5
105
100
AcDbEntity
  8
WIND
100
AcDbPolyline
 90
4
 70
1
 10
9
 20
10.4400
 10
10.2000
 20
10.4400
 10
10.2000
 20
10.5600
 10
9
 20
10.5600
  0
LWPOLYLINE
  5
106
100
AcDbEntity
  8
WIND
100
AcDbPolyline
 90
4
 70
1
 10
-0.0600
 20
1.5000
 10
0.0600
 20
1.5000
 10
0.0600
 20
2.7000
 10
-0.0600
 20
2.7000
  0
LWPOLYLINE
  5
107
100
AcDbEntity
  8
WIND
100
AcDbPolyline
 90
4
 70
1
 10
11.3400
 20
1.5000
 10
11.4600
 20
1.5000
 10
11.4600
 20
2.7000
 10
11.3400
 20
2.7000
  0
LWPOLYLINE
  5
108
100
AcDbEntity
  8
WIND
100
AcDbPolyline
 90
4
 70
1
 10
-0.0600
 20
4.8000
 10
0.0600
 20
4.8000
 10
0.0600
 20
6
 10
-0.0600
 20
6
  0
LWPOLYLINE
  5
109
100
AcDbEntity
  8
WIND
100
AcDbPolyline
 90
4
 70
1
 10
11.3400
 20
4.8000
 10
11.4600
 20
4.8000
 10
11.4600
 20
6
 10
11.3400
 20
6
  0
LWPOLYLINE
  5
10A
100
AcDbEntity
  8
WIND
100
AcDbPolyline
 90
4
 70
1
 10
-0.0600
 20
7.9500
 10
0.0600
 20
7.9500
 10
0.0600
 20
9.1500
 10
-0.0600
 20
9.1500
  0
LWPOLYLINE
  5
10B
100
AcDbEntity
  8
WIND
100
AcDbPolyline
 90
4
 70
1
 10
11.3400
 20
7.9500
 10
11.4600
 20
7.9500
 10
11.4600
 20
9.1500
 10
11.3400
 20
9.1500
  0
ARC
  5
10C
100
AcDbEntity
  8
DOOR
100
AcDbCircle
 10
4.5000
 20
1.6500
 30
0
 40
0.9000
100
AcDbArc
 50
90
 51
180
  0
LINE
  5
10D
100
AcDbEntity
  8
DOOR
100
AcDbLine
 10
4.5000
 20
1.6500
 30
0
 11
3.6000
 21
1.6500
 31
0
  0
ARC
  5
10E
100
AcDbEntity
  8
DOOR
100
AcDbCircle
 10
4.5000
 20
8.1000
 30
0
 40
0.9000
100
AcDbArc
 50
90
 51
180
  0
LINE
  5
10F
100
AcDbEntity
  8
DOOR
100
AcDbLine
 10
4.5000
 20
8.1000
 30
0
 11
3.6000
 21
8.1000
 31
0
  0
ARC
  5
110
100
AcDbEntity
  8
DOOR
100
AcDbCircle
 10
7.8000
 20
1.6500
 30
0
 40
0.9000
100
AcDbArc
 50
90
 51
180
  0
LINE
  5
111
100
AcDbEntity
  8
DOOR
100
AcDbLine
 10
7.8000
 20
1.6500
 30
0
 11
6.9000
 21
1.6500
 31
0
  0
ARC
  5
112
100
AcDbEntity
  8
DOOR
100
AcDbCircle
 10
7.8000
 20
4.9500
 30
0
 40
0.9000
100
AcDbArc
 50
90
 51
180
  0
LINE
  5
113
100
AcDbEntity
  8
DOOR
100
AcDbLine
 10
7.8000
 20
4.9500
 30
0
 11
6.9000
 21
4.9500
 31
0
  0
ARC
  5
114
100
AcDbEntity
  8
DOOR
100
AcDbCircle
 10
7.8000
 20
8.1000
 30
0
 40
0.9000
100
AcDbArc
 50
90
 51
180
  0
LINE
  5
115
100
AcDbEntity
  8
DOOR
100
AcDbLine
 10
7.8000
 20
8.1000
 30
0
 11
6.9000
 21
8.1000
 31
0
  0
ARC
  5
116
100
AcDbEntity
  8
DOOR
100
AcDbCircle
 10
1.8000
 20
4.2000
 30
0
 40
0.9000
100
AcDbArc
 50
0
 51
90
  0
LINE
  5
117
100
AcDbEntity
  8
DOOR
100
AcDbLine
 10
1.8000
 20
4.2000
 30
0
 11
1.8000
 21
5.1000
 31
0
  0
ARC
  5
118
100
AcDbEntity
  8
DOOR
100
AcDbCircle
 10
5.7000
 20
4.2000
 30
0
 40
0.9000
100
AcDbArc
 50
0
 51
90
  0
LINE
  5
119
100
AcDbEntity
  8
DOOR
100
AcDbLine
 10
5.7000
 20
4.2000
 30
0
 11
5.7000
 21
5.1000
 31
0
  0
ARC
  5
11A
100
AcDbEntity
  8
DOOR
100
AcDbCircle
 10
9.1500
 20
4.2000
 30
0
 40
0.9000
100
AcDbArc
 50
0
 51
90
  0
LINE
  5
11B
100
AcDbEntity
  8
DOOR
100
AcDbLine
 10
9.1500
 20
4.2000
 30
0
 11
9.1500
 21
5.1000
 31
0
  0
ARC
  5
11C
100
AcDbEntity
  8
DOOR
100
AcDbCircle
 10
5.7000
 20
6.6000
 30
0
 40
0.9000
100
AcDbArc
 50
0
 51
90
  0
LINE
  5
11D
100
AcDbEntity
  8
DOOR
100
AcDbLine
 10
5.7000
 20
6.6000
 30
0
 11
5.7000
 21
7.5000
 31
0
  0
ARC
  5
11E
100
AcDbEntity
  8
DOOR
100
AcDbCircle
 10
9.1500
 20
6.6000
 30
0
 40
0.9000
100
AcDbArc
 50
0
 51
90
  0
LINE
  5
11F
100
AcDbEntity
  8
DOOR
100
AcDbLine
 10
9.1500
 20
6.6000
 30
0
 11
9.1500
 21
7.5000
 31
0
  0
LINE
  5
120
100
AcDbEntity
  8
WALL
100
AcDbLine
370
50
 10
0
 20
-0.1125
 30
0
 11
1.6500
 21
-0.1125
 31
0
  0
LINE
  5
121
100
AcDbEntity
  8
WALL
100
AcDbLine
370
50
 10
0
 20
0.1125
 30
0
 11
1.6500
 21
0.1125
 31
0
  0
LINE
  5
122
100
AcDbEntity
  8
WALL
100
AcDbLine
370
50
 10
2.8500
 20
-0.1125
 30
0
 11
4.5000
 21
-0.1125
 31
0
  0
LINE
  5
123
100
AcDbEntity
  8
WALL
100
AcDbLine
370
50
 10
2.8500
 20
0.1125
 30
0
 11
4.5000
 21
0.1125
 31
0
  0
LINE
  5
124
100
AcDbEntity
  8
WALL
100
AcDbLine
370
50
 10
1.6500
 20
-0.1125
 30
0
 11
1.6500
 21
0.1125
 31
0
  0
LINE
  5
125
100
AcDbEntity
  8
WALL
100
AcDbLine
370
50
 10
2.8500
 20
-0.1125
 30
0
 11
2.8500
 21
0.1125
 31
0
  0
LINE
  5
126
100
AcDbEntity
  8
WALL
100
AcDbLine
370
50
 10
0
 20
10.3875
 30
0
 11
1.6500
 21
10.3875
 31
0
  0
LINE
  5
127
100
AcDbEntity
  8
WALL
100
AcDbLine
370
50
 10
0
 20
10.6125
 30
0
 11
1.6500
 21
10.6125
 31
0
  0
LINE
  5
128
100
AcDbEntity
  8
WALL
100
AcDbLine
370
50
 10
2.8500
 20
10.3875
 30
0
 11
4.5000
 21
10.3875
 31
0
  0
LINE
  5
129
100
AcDbEntity
  8
WALL
100
AcDbLine
370
50
 10
2.8500
 20
10.6125
 30
0
 11
4.5000
 21
10.6125
 31
0
  0
LINE
  5
12A
100
AcDbEntity
  8
WALL
100
AcDbLine
370
50
 10
1.6500
 20
10.3875
 30
0
 11
1.6500
 21
10.6125
 31
0
  0
LINE
  5
12B
100
AcDbEntity
  8
WALL
100
AcDbLine
370
50
 10
2.8500
 20
10.3875
 30
0
 11
2.8500
 21
10.6125
 31
0
  0
LINE
  5
12C
100
AcDbEntity
  8
WALL
100
AcDbLine
370
50
 10
4.5000
 20
-0.1125
 30
0
 11
5.5500
 21
-0.1125
 31
0
  0
LINE
  5
12D
100
AcDbEntity
  8
WALL
100
AcDbLine
370
50
 10
4.5000
 20
0.1125
 30
0
 11
5.5500
 21
0.1125
 31
0
  0
LINE
  5
12E
100
AcDbEntity
  8
WALL
100
AcDbLine
370
50
 10
6.7500
 20
-0.1125
 30
0
 11
7.8000
 21
-0.1125
 31
0
  0
LINE
  5
12F
100
AcDbEntity
  8
WALL
100
AcDbLine
370
50
 10
6.7500
 20
0.1125
 30
0
 11
7.8000
 21
0.1125
 31
0
  0
LINE
  5
130
100
AcDbEntity
  8
WALL
100
AcDbLine
370
50
 10
5.5500
 20
-0.1125
 30
0
 11
5.5500
 21
0.1125
 31
0
  0
LINE
  5
131
100
AcDbEntity
  8
WALL
100
AcDbLine
370
50
 10
6.7500
 20
-0.1125
 30
0
 11
6.7500
 21
0.1125
 31
0
  0
LINE
  5
132
100
AcDbEntity
  8
WALL
100
AcDbLine
370
50
 10
4.5000
 20
10.3875
 30
0
 11
5.5500
 21
10.3875
 31
0
  0
LINE
  5
133
100
AcDbEntity
  8
WALL
100
AcDbLine
370
50
 10
4.5000
 20
10.6125
 30
0
 11
5.5500
 21
10.6125
 31
0
  0
LINE
  5
134
100
AcDbEntity
  8
WALL
100
AcDbLine
370
50
 10
6.7500
 20
10.3875
 30
0
 11
7.8000
 21
10.3875
 31
0
  0
LINE
  5
135
100
AcDbEntity
  8
WALL
100
AcDbLine
370
50
 10
6.7500
 20
10.6125
 30
0
 11
7.8000
 21
10.6125
 31
0
  0
LINE
  5
136
100
AcDbEntity
  8
WALL
100
AcDbLine
370
50
 10
5.5500
 20
10.3875
 30
0
 11
5.5500
 21
10.6125
 31
0
  0
LINE
  5
137
100
AcDbEntity
  8
WALL
100
AcDbLine
370
50
 10
6.7500
 20
10.3875
 30
0
 11
6.7500
 21
10.6125
 31
0
  0
LINE
  5
138
100
AcDbEntity
  8
WALL
100
AcDbLine
370
50
 10
7.8000
 20
-0.1125
 30
0
 11
9
 21
-0.1125
 31
0
  0
LINE
  5
139
100
AcDbEntity
  8
WALL
100
AcDbLine
370
50
 10
7.8000
 20
0.1125
 30
0
 11
9
 21
0.1125
 31
0
  0
LINE
  5
13A
100
AcDbEntity
  8
WALL
100
AcDbLine
370
50
 10
10.2000
 20
-0.1125
 30
0
 11
11.4000
 21
-0.1125
 31
0
  0
LINE
  5
13B
100
AcDbEntity
  8
WALL
100
AcDbLine
370
50
 10
10.2000
 20
0.1125
 30
0
 11
11.4000
 21
0.1125
 31
0
  0
LINE
  5
13C
100
AcDbEntity
  8
WALL
100
AcDbLine
370
50
 10
9
 20
-0.1125
 30
0
 11
9
 21
0.1125
 31
0
  0
LINE
  5
13D
100
AcDbEntity
  8
WALL
100
AcDbLine
370
50
 10
10.2000
 20
-0.1125
 30
0
 11
10.2000
 21
0.1125
 31
0
  0
LINE
  5
13E
100
AcDbEntity
  8
WALL
100
AcDbLine
370
50
 10
7.8000
 20
10.3875
 30
0
 11
9
 21
10.3875
 31
0
  0
LINE
  5
13F
100
AcDbEntity
  8
WALL
100
AcDbLine
370
50
 10
7.8000
 20
10.6125
 30
0
 11
9
 21
10.6125
 31
0
  0
LINE
  5
140
100
AcDbEntity
  8
WALL
100
AcDbLine
370
50
 10
10.2000
 20
10.3875
 30
0
 11
11.4000
 21
10.3875
 31
0
  0
LINE
  5
141
100
AcDbEntity
  8
WALL
100
AcDbLine
370
50
 10
10.2000
 20
10.6125
 30
0
 11
11.4000
 21
10.6125
 31
0
  0
LINE
  5
142
100
AcDbEntity
  8
WALL
100
AcDbLine
370
50
 10
9
 20
10.3875
 30
0
 11
9
 21
10.6125
 31
0
  0
LINE
  5
143
100
AcDbEntity
  8
WALL
100
AcDbLine
370
50
 10
10.2000
 20
10.3875
 30
0
 11
10.2000
 21
10.6125
 31
0
  0
LINE
  5
144
100
AcDbEntity
  8
WALL
100
AcDbLine
370
50
 10
-0.1125
 20
0
 30
0
 11
-0.1125
 21
1.5000
 31
0
  0
LINE
  5
145
100
AcDbEntity
  8
WALL
100
AcDbLine
370
50
 10
0.1125
 20
0
 30
0
 11
0.1125
 21
1.5000
 31
0
  0
LINE
  5
146
100
AcDbEntity
  8
WALL
100
AcDbLine
370
50
 10
-0.1125
 20
2.7000
 30
0
 11
-0.1125
 21
4.2000
 31
0
  0
LINE
  5
147
100
AcDbEntity
  8
WALL
100
AcDbLine
370
50
 10
0.1125
 20
2.7000
 30
0
 11
0.1125
 21
4.2000
 31
0
  0
LINE
  5
148
100
AcDbEntity
  8
WALL
100
AcDbLine
370
50
 10
-0.1125
 20
1.5000
 30
0
 11
0.1125
 21
1.5000
 31
0
  0
LINE
  5
149
100
AcDbEntity
  8
WALL
100
AcDbLine
370
50
 10
-0.1125
 20
2.7000
 30
0
 11
0.1125
 21
2.7000
 31
0
  0
LINE
  5
14A
100
AcDbEntity
  8
WALL
100
AcDbLine
370
50
 10
11.2875
 20
0
 30
0
 11
11.2875
 21
1.5000
 31
0
  0
LINE
  5
14B
100
AcDbEntity
  8
WALL
100
AcDbLine
370
50
 10
11.5125
 20
0
 30
0
 11
11.5125
 21
1.5000
 31
0
  0
LINE
  5
14C
100
AcDbEntity
  8
WALL
100
AcDbLine
370
50
 10
11.2875
 20
2.7000
 30
0
 11
11.2875
 21
4.2000
 31
0
  0
LINE
  5
14D
100
AcDbEntity
  8
WALL
100
AcDbLine
370
50
 10
11.5125
 20
2.7000
 30
0
 11
11.5125
 21
4.2000
 31
0
  0
LINE
  5
14E
100
AcDbEntity
  8
WALL
100
AcDbLine
370
50
 10
11.2875
 20
1.5000
 30
0
 11
11.5125
 21
1.5000
 31
0
  0
LINE
  5
14F
100
AcDbEntity
  8
WALL
100
AcDbLine
370
50
 10
11.2875
 20
2.7000
 30
0
 11
11.5125
 21
2.7000
 31
0
  0
LINE
  5
150
100
AcDbEntity
  8
WALL
100
AcDbLine
370
50
 10
-0.1125
 20
4.2000
 30
0
 11
-0.1125
 21
4.8000
 31
0
  0
LINE
  5
151
100
AcDbEntity
  8
WALL
100
AcDbLine
370
50
 10
0.1125
 20
4.2000
 30
0
 11
0.1125
 21
4.8000
 31
0
  0
LINE
  5
152
100
AcDbEntity
  8
WALL
100
AcDbLine
370
50
 10
-0.1125
 20
6
 30
0
 11
-0.1125
 21
6.6000
 31
0
  0
LINE
  5
153
100
AcDbEntity
  8
WALL
100
AcDbLine
370
50
 10
0.1125
 20
6
 30
0
 11
0.1125
 21
6.6000
 31
0
  0
LINE
  5
154
100
AcDbEntity
  8
WALL
100
AcDbLine
370
50
 10
-0.1125
 20
4.8000
 30
0
 11
0.1125
 21
4.8000
 31
0
  0
LINE
  5
155
100
AcDbEntity
  8
WALL
100
AcDbLine
370
50
 10
-0.1125
 20
6
 30
0
 11
0.1125
 21
6
 31
0
  0
LINE
  5
156
100
AcDbEntity
  8
WALL
100
AcDbLine
370
50
 10
11.2875
 20
4.2000
 30
0
 11
11.2875
 21
4.8000
 31
0
  0
LINE
  5
157
100
AcDbEntity
  8
WALL
100
AcDbLine
370
50
 10
11.5125
 20
4.2000
 30
0
 11
11.5125
 21
4.8000
 31
0
  0
LINE
  5
158
100
AcDbEntity
  8
WALL
100
AcDbLine
370
50
 10
11.2875
 20
6
 30
0
 11
11.2875
 21
6.6000
 31
0
  0
LINE
  5
159
100
AcDbEntity
  8
WALL
100
AcDbLine
370
50
 10
11.5125
 20
6
 30
0
 11
11.5125
 21
6.6000
 31
0
  0
LINE
  5
15A
100
AcDbEntity
  8
WALL
100
AcDbLine
370
50
 10
11.2875
 20
4.8000
 30
0
 11
11.5125
 21
4.8000
 31
0
  0
LINE
  5
15B
100
AcDbEntity
  8
WALL
100
AcDbLine
370
50
 10
11.2875
 20
6
 30
0
 11
11.5125
 21
6
 31
0
  0
LINE
  5
15C
100
AcDbEntity
  8
WALL
100
AcDbLine
370
50
 10
-0.1125
 20
6.6000
 30
0
 11
-0.1125
 21
7.9500
 31
0
  0
LINE
  5
15D
100
AcDbEntity
  8
WALL
100
AcDbLine
370
50
 10
0.1125
 20
6.6000
 30
0
 11
0.1125
 21
7.9500
 31
0
  0
LINE
  5
15E
100
AcDbEntity
  8
WALL
100
AcDbLine
370
50
 10
-0.1125
 20
9.1500
 30
0
 11
-0.1125
 21
10.5000
 31
0
  0
LINE
  5
15F
100
AcDbEntity
  8
WALL
100
AcDbLine
370
50
 10
0.1125
 20
9.1500
 30
0
 11
0.1125
 21
10.5000
 31
0
  0
LINE
  5
160
100
AcDbEntity
  8
WALL
100
AcDbLine
370
50
 10
-0.1125
 20
7.9500
 30
0
 11
0.1125
 21
7.9500
 31
0
  0
LINE
  5
161
100
AcDbEntity
  8
WALL
100
AcDbLine
370
50
 10
-0.1125
 20
9.1500
 30
0
 11
0.1125
 21
9.1500
 31
0
  0
LINE
  5
162
100
AcDbEntity
  8
WALL
100
AcDbLine
370
50
 10
11.2875
 20
6.6000
 30
0
 11
11.2875
 21
7.9500
 31
0
  0
LINE
  5
163
100
AcDbEntity
  8
WALL
100
AcDbLine
370
50
 10
11.5125
 20
6.6000
 30
0
 11
11.5125
 21
7.9500
 31
0
  0
LINE
  5
164
100
AcDbEntity
  8
WALL
100
AcDbLine
370
50
 10
11.2875
 20
9.1500
 30
0
 11
11.2875
 21
10.5000
 31
0
  0
LINE
  5
165
100
AcDbEntity
  8
WALL
100
AcDbLine
370
50
 10
11.5125
 20
9.1500
 30
0
 11
11.5125
 21
10.5000
 31
0
  0
LINE
  5
166
100
AcDbEntity
  8
WALL
100
AcDbLine
370
50
 10
11.2875
 20
7.9500
 30
0
 11
11.5125
 21
7.9500
 31
0
  0
LINE
  5
167
100
AcDbEntity
  8
WALL
100
AcDbLine
370
50
 10
11.2875
 20
9.1500
 30
0
 11
11.5125
 21
9.1500
 31
0
  0
LINE
  5
168
100
AcDbEntity
  8
WALL
100
AcDbLine
370
50
 10
4.4250
 20
0
 30
0
 11
4.4250
 21
1.6500
 31
0
  0
LINE
  5
169
100
AcDbEntity
  8
WALL
100
AcDbLine
370
50
 10
4.5750
 20
0
 30
0
 11
4.5750
 21
1.6500
 31
0
  0
LINE
  5
16A
100
AcDbEntity
  8
WALL
100
AcDbLine
370
50
 10
4.4250
 20
2.5500
 30
0
 11
4.4250
 21
4.2000
 31
0
  0
LINE
  5
16B
100
AcDbEntity
  8
WALL
100
AcDbLine
370
50
 10
4.5750
 20
2.5500
 30
0
 11
4.5750
 21
4.2000
 31
0
  0
LINE
  5
16C
100
AcDbEntity
  8
WALL
100
AcDbLine
370
50
 10
4.4250
 20
1.6500
 30
0
 11
4.5750
 21
1.6500
 31
0
  0
LINE
  5
16D
100
AcDbEntity
  8
WALL
100
AcDbLine
370
50
 10
4.4250
 20
2.5500
 30
0
 11
4.5750
 21
2.5500
 31
0
  0
LINE
  5
16E
100
AcDbEntity
  8
WALL
100
AcDbLine
370
50
 10
4.4250
 20
4.2000
 30
0
 11
4.4250
 21
6.6000
 31
0
  0
LINE
  5
16F
100
AcDbEntity
  8
WALL
100
AcDbLine
370
50
 10
4.5750
 20
4.2000
 30
0
 11
4.5750
 21
6.6000
 31
0
  0
LINE
  5
170
100
AcDbEntity
  8
WALL
100
AcDbLine
370
50
 10
4.4250
 20
6.6000
 30
0
 11
4.4250
 21
8.1000
 31
0
  0
LINE
  5
171
100
AcDbEntity
  8
WALL
100
AcDbLine
370
50
 10
4.5750
 20
6.6000
 30
0
 11
4.5750
 21
8.1000
 31
0
  0
LINE
  5
172
100
AcDbEntity
  8
WALL
100
AcDbLine
370
50
 10
4.4250
 20
9
 30
0
 11
4.4250
 21
10.5000
 31
0
  0
LINE
  5
173
100
AcDbEntity
  8
WALL
100
AcDbLine
370
50
 10
4.5750
 20
9
 30
0
 11
4.5750
 21
10.5000
 31
0
  0
LINE
  5
174
100
AcDbEntity
  8
WALL
100
AcDbLine
370
50
 10
4.4250
 20
8.1000
 30
0
 11
4.5750
 21
8.1000
 31
0
  0
LINE
  5
175
100
AcDbEntity
  8
WALL
100
AcDbLine
370
50
 10
4.4250
 20
9
 30
0
 11
4.5750
 21
9
 31
0
  0
LINE
  5
176
100
AcDbEntity
  8
WALL
100
AcDbLine
370
50
 10
7.7250
 20
0
 30
0
 11
7.7250
 21
1.6500
 31
0
  0
LINE
  5
177
100
AcDbEntity
  8
WALL
100
AcDbLine
370
50
 10
7.8750
 20
0
 30
0
 11
7.8750
 21
1.6500
 31
0
  0
LINE
  5
178
100
AcDbEntity
  8
WALL
100
AcDbLine
370
50
 10
7.7250
 20
2.5500
 30
0
 11
7.7250
 21
4.2000
 31
0
  0
LINE
  5
179
100
AcDbEntity
  8
WALL
100
AcDbLine
370
50
 10
7.8750
 20
2.5500
 30
0
 11
7.8750
 21
4.2000
 31
0
  0
LINE
  5
17A
100
AcDbEntity
  8
WALL
100
AcDbLine
370
50
 10
7.7250
 20
1.6500
 30
0
 11
7.8750
 21
1.6500
 31
0
  0
LINE
  5
17B
100
AcDbEntity
  8
WALL
100
AcDbLine
370
50
 10
7.7250
 20
2.5500
 30
0
 11
7.8750
 21
2.5500
 31
0
  0
LINE
  5
17C
100
AcDbEntity
  8
WALL
100
AcDbLine
370
50
 10
7.7250
 20
4.2000
 30
0
 11
7.7250
 21
4.9500
 31
0
  0
LINE
  5
17D
100
AcDbEntity
  8
WALL
100
AcDbLine
370
50
 10
7.8750
 20
4.2000
 30
0
 11
7.8750
 21
4.9500
 31
0
  0
LINE
  5
17E
100
AcDbEntity
  8
WALL
100
AcDbLine
370
50
 10
7.7250
 20
5.8500
 30
0
 11
7.7250
 21
6.6000
 31
0
  0
LINE
  5
17F
100
AcDbEntity
  8
WALL
100
AcDbLine
370
50
 10
7.8750
 20
5.8500
 30
0
 11
7.8750
 21
6.6000
 31
0
  0
LINE
  5
180
100
AcDbEntity
  8
WALL
100
AcDbLine
370
50
 10
7.7250
 20
4.9500
 30
0
 11
7.8750
 21
4.9500
 31
0
  0
LINE
  5
181
100
AcDbEntity
  8
WALL
100
AcDbLine
370
50
 10
7.7250
 20
5.8500
 30
0
 11
7.8750
 21
5.8500
 31
0
  0
LINE
  5
182
100
AcDbEntity
  8
WALL
100
AcDbLine
370
50
 10
7.7250
 20
6.6000
 30
0
 11
7.7250
 21
8.1000
 31
0
  0
LINE
  5
183
100
AcDbEntity
  8
WALL
100
AcDbLine
370
50
 10
7.8750
 20
6.6000
 30
0
 11
7.8750
 21
8.1000
 31
0
  0
LINE
  5
184
100
AcDbEntity
  8
WALL
100
AcDbLine
370
50
 10
7.7250
 20
9
 30
0
 11
7.7250
 21
10.5000
 31
0
  0
LINE
  5
185
100
AcDbEntity
  8
WALL
100
AcDbLine
370
50
 10
7.8750
 20
9
 30
0
 11
7.8750
 21
10.5000
 31
0
  0
LINE
  5
186
100
AcDbEntity
  8
WALL
100
AcDbLine
370
50
 10
7.7250
 20
8.1000
 30
0
 11
7.8750
 21
8.1000
 31
0
  0
LINE
  5
187
100
AcDbEntity
  8
WALL
100
AcDbLine
370
50
 10
7.7250
 20
9
 30
0
 11
7.8750
 21
9
 31
0
  0
LINE
  5
188
100
AcDbEntity
  8
WALL
100
AcDbLine
370
50
 10
0
 20
4.1250
 30
0
 11
1.8000
 21
4.1250
 31
0
  0
LINE
  5
189
100
AcDbEntity
  8
WALL
100
AcDbLine
370
50
 10
0
 20
4.2750
 30
0
 11
1.8000
 21
4.2750
 31
0
  0
LINE
  5
18A
100
AcDbEntity
  8
WALL
100
AcDbLine
370
50
 10
2.7000
 20
4.1250
 30
0
 11
4.5000
 21
4.1250
 31
0
  0
LINE
  5
18B
100
AcDbEntity
  8
WALL
100
AcDbLine
370
50
 10
2.7000
 20
4.2750
 30
0
 11
4.5000
 21
4.2750
 31
0
  0
LINE
  5
18C
100
AcDbEntity
  8
WALL
100
AcDbLine
370
50
 10
1.8000
 20
4.1250
 30
0
 11
1.8000
 21
4.2750
 31
0
  0
LINE
  5
18D
100
AcDbEntity
  8
WALL
100
AcDbLine
370
50
 10
2.7000
 20
4.1250
 30
0
 11
2.7000
 21
4.2750
 31
0
  0
LINE
  5
18E
100
AcDbEntity
  8
WALL
100
AcDbLine
370
50
 10
4.5000
 20
4.1250
 30
0
 11
5.7000
 21
4.1250
 31
0
  0
LINE
  5
18F
100
AcDbEntity
  8
WALL
100
AcDbLine
370
50
 10
4.5000
 20
4.2750
 30
0
 11
5.7000
 21
4.2750
 31
0
  0
LINE
  5
190
100
AcDbEntity
  8
WALL
100
AcDbLine
370
50
 10
6.6000
 20
4.1250
 30
0
 11
7.8000
 21
4.1250
 31
0
  0
LINE
  5
191
100
AcDbEntity
  8
WALL
100
AcDbLine
370
50
 10
6.6000
 20
4.2750
 30
0
 11
7.8000
 21
4.2750
 31
0
  0
LINE
  5
192
100
AcDbEntity
  8
WALL
100
AcDbLine
370
50
 10
5.7000
 20
4.1250
 30
0
 11
5.7000
 21
4.2750
 31
0
  0
LINE
  5
193
100
AcDbEntity
  8
WALL
100
AcDbLine
370
50
 10
6.6000
 20
4.1250
 30
0
 11
6.6000
 21
4.2750
 31
0
  0
LINE
  5
194
100
AcDbEntity
  8
WALL
100
AcDbLine
370
50
 10
7.8000
 20
4.1250
 30
0
 11
9.1500
 21
4.1250
 31
0
  0
LINE
  5
195
100
AcDbEntity
  8
WALL
100
AcDbLine
370
50
 10
7.8000
 20
4.2750
 30
0
 11
9.1500
 21
4.2750
 31
0
  0
LINE
  5
196
100
AcDbEntity
  8
WALL
100
AcDbLine
370
50
 10
10.0500
 20
4.1250
 30
0
 11
11.4000
 21
4.1250
 31
0
  0
LINE
  5
197
100
AcDbEntity
  8
WALL
100
AcDbLine
370
50
 10
10.0500
 20
4.2750
 30
0
 11
11.4000
 21
4.2750
 31
0
  0
LINE
  5
198
100
AcDbEntity
  8
WALL
100
AcDbLine
370
50
 10
9.1500
 20
4.1250
 30
0
 11
9.1500
 21
4.2750
 31
0
  0
LINE
  5
199
100
AcDbEntity
  8
WALL
100
AcDbLine
370
50
 10
10.0500
 20
4.1250
 30
0
 11
10.0500
 21
4.2750
 31
0
  0
LINE
  5
19A
100
AcDbEntity
  8
WALL
100
AcDbLine
370
50
 10
0
 20
6.5250
 30
0
 11
4.5000
 21
6.5250
 31
0
  0
LINE
  5
19B
100
AcDbEntity
  8
WALL
100
AcDbLine
370
50
 10
0
 20
6.6750
 30
0
 11
4.5000
 21
6.6750
 31
0
  0
LINE
  5
19C
100
AcDbEntity
  8
WALL
100
AcDbLine
370
50
 10
4.5000
 20
6.5250
 30
0
 11
5.7000
 21
6.5250
 31
0
  0
LINE
  5
19D
100
AcDbEntity
  8
WALL
100
AcDbLine
370
50
 10
4.5000
 20
6.6750
 30
0
 11
5.7000
 21
6.6750
 31
0
  0
LINE
  5
19E
100
AcDbEntity
  8
WALL
100
AcDbLine
370
50
 10
6.6000
 20
6.5250
 30
0
 11
7.8000
 21
6.5250
 31
0
  0
LINE
  5
19F
100
AcDbEntity
  8
WALL
100
AcDbLine
370
50
 10
6.6000
 20
6.6750
 30
0
 11
7.8000
 21
6.6750
 31
0
  0
LINE
  5
1A0
100
AcDbEntity
  8
WALL
100
AcDbLine
370
50
 10
5.7000
 20
6.5250
 30
0
 11
5.7000
 21
6.6750
 31
0
  0
LINE
  5
1A1
100
AcDbEntity
  8
WALL
100
AcDbLine
370
50
 10
6.6000
 20
6.5250
 30
0
 11
6.6000
 21
6.6750
 31
0
  0
LINE
  5
1A2
100
AcDbEntity
  8
WALL
100
AcDbLine
370
50
 10
7.8000
 20
6.5250
 30
0
 11
9.1500
 21
6.5250
 31
0
  0
LINE
  5
1A3
100
AcDbEntity
  8
WALL
100
AcDbLine
370
50
 10
7.8000
 20
6.6750
 30
0
 11
9.1500
 21
6.6750
 31
0
  0
LINE
  5
1A4
100
AcDbEntity
  8
WALL
100
AcDbLine
370
50
 10
10.0500
 20
6.5250
 30
0
 11
11.4000
 21
6.5250
 31
0
  0
LINE
  5
1A5
100
AcDbEntity
  8
WALL
100
AcDbLine
370
50
 10
10.0500
 20
6.6750
 30
0
 11
11.4000
 21
6.6750
 31
0
  0
LINE
  5
1A6
100
AcDbEntity
  8
WALL
100
AcDbLine
370
50
 10
9.1500
 20
6.5250
 30
0
 11
9.1500
 21
6.6750
 31
0
  0
LINE
  5
1A7
100
AcDbEntity
  8
WALL
100
AcDbLine
370
50
 10
10.0500
 20
6.5250
 30
0
 11
10.0500
 21
6.6750
 31
0
  0
LWPOLYLINE
  5
1A8
100
AcDbEntity
  8
COLUMN
100
AcDbPolyline
 90
4
 70
1
 10
-0.1150
 20
-0.1150
 10
0.1150
 20
-0.1150
 10
0.1150
 20
0.1150
 10
-0.1150
 20
0.1150
  0
LWPOLYLINE
  5
1A9
100
AcDbEntity
  8
COLUMN
100
AcDbPolyline
 90
4
 70
1
 10
-0.1150
 20
4.0850
 10
0.1150
 20
4.0850
 10
0.1150
 20
4.3150
 10
-0.1150
 20
4.3150
  0
LWPOLYLINE
  5
1AA
100
AcDbEntity
  8
COLUMN
100
AcDbPolyline
 90
4
 70
1
 10
-0.1150
 20
6.4850
 10
0.1150
 20
6.4850
 10
0.1150
 20
6.7150
 10
-0.1150
 20
6.7150
  0
LWPOLYLINE
  5
1AB
100
AcDbEntity
  8
COLUMN
100
AcDbPolyline
 90
4
 70
1
 10
-0.1150
 20
10.3850
 10
0.1150
 20
10.3850
 10
0.1150
 20
10.6150
 10
-0.1150
 20
10.6150
  0
LWPOLYLINE
  5
1AC
100
AcDbEntity
  8
COLUMN
100
AcDbPolyline
 90
4
 70
1
 10
4.3850
 20
-0.1150
 10
4.6150
 20
-0.1150
 10
4.6150
 20
0.1150
 10
4.3850
 20
0.1150
  0
LWPOLYLINE
  5
1AD
100
AcDbEntity
  8
COLUMN
100
AcDbPolyline
 90
4
 70
1
 10
4.3850
 20
4.0850
 10
4.6150
 20
4.0850
 10
4.6150
 20
4.3150
 10
4.3850
 20
4.3150
  0
LWPOLYLINE
  5
1AE
100
AcDbEntity
  8
COLUMN
100
AcDbPolyline
 90
4
 70
1
 10
4.3850
 20
6.4850
 10
4.6150
 20
6.4850
 10
4.6150
 20
6.7150
 10
4.3850
 20
6.7150
  0
LWPOLYLINE
  5
1AF
100
AcDbEntity
  8
COLUMN
100
AcDbPolyline
 90
4
 70
1
 10
4.3850
 20
10.3850
 10
4.6150
 20
10.3850
 10
4.6150
 20
10.6150
 10
4.3850
 20
10.6150
  0
LWPOLYLINE
  5
1B0
100
AcDbEntity
  8
COLUMN
100
AcDbPolyline
 90
4
 70
1
 10
7.6850
 20
-0.1150
 10
7.9150
 20
-0.1150
 10
7.9150
 20
0.1150
 10
7.6850
 20
0.1150
  0
LWPOLYLINE
  5
1B1
100
AcDbEntity
  8
COLUMN
100
AcDbPolyline
 90
4
 70
1
 10
7.6850
 20
4.0850
 10
7.9150
 20
4.0850
 10
7.9150
 20
4.3150
 10
7.6850
 20
4.3150
  0
LWPOLYLINE
  5
1B2
100
AcDbEntity
  8
COLUMN
100
AcDbPolyline
 90
4
 70
1
 10
7.6850
 20
6.4850
 10
7.9150
 20
6.4850
 10
7.9150
 20
6.7150
 10
7.6850
 20
6.7150
  0
LWPOLYLINE
  5
1B3
100
AcDbEntity
  8
COLUMN
100
AcDbPolyline
 90
4
 70
1
 10
7.6850
 20
10.3850
 10
7.9150
 20
10.3850
 10
7.9150
 20
10.6150
 10
7.6850
 20
10.6150
  0
LWPOLYLINE
  5
1B4
100
AcDbEntity
  8
COLUMN
100
AcDbPolyline
 90
4
 70
1
 10
11.2850
 20
-0.1150
 10
11.5150
 20
-0.1150
 10
11.5150
 20
0.1150
 10
11.2850
 20
0.1150
  0
LWPOLYLINE
  5
1B5
100
AcDbEntity
  8
COLUMN
100
AcDbPolyline
 90
4
 70
1
 10
11.2850
 20
4.0850
 10
11.5150
 20
4.0850
 10
11.5150
 20
4.3150
 10
11.2850
 20
4.3150
  0
LWPOLYLINE
  5
1B6
100
AcDbEntity
  8
COLUMN
100
AcDbPolyline
 90
4
 70
1
 10
11.2850
 20
6.4850
 10
11.5150
 20
6.4850
 10
11.5150
 20
6.7150
 10
11.2850
 20
6.7150
  0
LWPOLYLINE
  5
1B7
100
AcDbEntity
  8
COLUMN
100
AcDbPolyline
 90
4
 70
1
 10
11.2850
 20
10.3850
 10
11.5150
 20
10.3850
 10
11.5150
 20
10.6150
 10
11.2850
 20
10.6150
  0
TEXT
  5
1B8
100
AcDbEntity
  8
TEXT
100
AcDbText
 10
1.7688
 20
2.1187
 30
0
 40
0.2500
  1
LOUNGE
100
AcDbText
  0
TEXT
  5
1B9
100
AcDbEntity
  8
TEXT
100
AcDbText
 10
5.6500
 20
2.1187
 30
0
 40
0.2500
  1
DINING
100
AcDbText
  0
TEXT
  5
1BA
100
AcDbEntity
  8
TEXT
100
AcDbText
 10
9.0813
 20
2.1187
 30
0
 40
0.2500
  1
KITCHEN
100
AcDbText
  0
TEXT
  5
1BB
100
AcDbEntity
  8
TEXT
100
AcDbText
 10
1.7688
 20
5.4000
 30
0
 40
0.2500
  1
STUDY
100
AcDbText
  0
TEXT
  5
1BC
100
AcDbEntity
  8
TEXT
100
AcDbText
 10
5.6500
 20
5.4000
 30
0
 40
0.2500
  1
WC
100
AcDbText
  0
LWPOLYLINE
  5
1BD
100
AcDbEntity
  8
SANITARY
100
AcDbPolyline
 90
4
 70
1
 10
4.9750
 20
5.6250
 10
5.3750
 20
5.6250
 10
5.3750
 20
6.2250
 10
4.9750
 20
6.2250
  0
TEXT
  5
1BE
100
AcDbEntity
  8
TEXT
100
AcDbText
 10
9.0813
 20
5.4000
 30
0
 40
0.2500
  1
STORE
100
AcDbText
  0
TEXT
  5
1BF
100
AcDbEntity
  8
TEXT
100
AcDbText
 10
1.7688
 20
8.5313
 30
0
 40
0.2500
  1
GUEST BEDROOM
100
AcDbText
  0
TEXT
  5
1C0
100
AcDbEntity
  8
TEXT
100
AcDbText
 10
5.6500
 20
8.5313
 30
0
 40
0.2500
  1
LAUNDRY
100
AcDbText
  0
TEXT
  5
1C1
100
AcDbEntity
  8
TEXT
100
AcDbText
 10
9.0813
 20
8.5313
 30
0
 40
0.2500
  1
GARAGE
100
AcDbText
  0
DIMENSION
  5
1C2
100
AcDbEntity
  8
DIM
100
AcDbDimension
  2
*D
 10
0
 20
-1.8000
 30
0
 11
5.7000
 21
-1.5500
 31
0
 70
33
  1

 42
11.4000
100
AcDbAlignedDimension
 13
0
 23
0
 33
0
 14
11.4000
 24
0
 34
0
  0
DIMENSION
  5
1C3
100
AcDbEntity
  8
DIM
100
AcDbDimension
  2
*D
 10
-1.8000
 20
0
 30
0
 11
-1.5500
 21
5.2500
 31
0
 70
33
  1

 42
10.5000
100
AcDbAlignedDimension
 13
0
 23
0
 33
0
 14
0
 24
10.5000
 34
0
  0
DIMENSION
  5
1C4
100
AcDbEntity
  8
DIM
100
AcDbDimension
  2
*D
 10
0
 20
11.7000
 30
0
 11
2.2500
 21
11.9500
 31
0
 70
33
  1

 42
4.5000
100
AcDbAlignedDimension
 13
0
 23
10.5000
 33
0
 14
4.5000
 24
10.5000
 34
0
  0
DIMENSION
  5
1C5
100
AcDbEntity
  8
DIM
100
AcDbDimension
  2
*D
 10
4.5000
 20
11.7000
 30
0
 11
6.1500
 21
11.9500
 31
0
 70
33
  1

 42
3.3000
100
AcDbAlignedDimension
 13
4.5000
 23
10.5000
 33
0
 14
7.8000
 24
10.5000
 34
0
  0
DIMENSION
  5
1C6
100
AcDbEntity
  8
DIM
100
AcDbDimension
  2
*D
 10
7.8000
 20
11.7000
 30
0
 11
9.6000
 21
11.9500
 31
0
 70
33
  1

 42
3.6000
100
AcDbAlignedDimension
 13
7.8000
 23
10.5000
 33
0
 14
11.4000
 24
10.5000
 34
0
  0
DIMENSION
  5
1C7
100
AcDbEntity
  8
DIM
100
AcDbDimension
  2
*D
 10
12.6000
 20
0
 30
0
 11
12.8500
 21
2.1000
 31
0
 70
33
  1

 42
4.2000
100
AcDbAlignedDimension
 13
11.4000
 23
0
 33
0
 14
11.4000
 24
4.2000
 34
0
  0
DIMENSION
  5
1C8
100
AcDbEntity
  8
DIM
100
AcDbDimension
  2
*D
 10
12.6000
 20
4.2000
 30
0
 11
12.8500
 21
5.4000
 31
0
 70
33
  1

 42
2.4000
100
AcDbAlignedDimension
 13
11.4000
 23
4.2000
 33
0
 14
11.4000
 24
6.6000
 34
0
  0
DIMENSION
  5
1C9
100
AcDbEntity
  8
DIM
100
AcDbDimension
  2
*D
 10
12.6000
 20
6.6000
 30
0
 11
12.8500
 21
8.5500
 31
0
 70
33
  1

 42
3.9000
100
AcDbAlignedDimension
 13
11.4000
 23
6.6000
 33
0
 14
11.4000
 24
10.5000
 34
0
  0
TEXT
  5
1CA
100
AcDbEntity
  8
TEXT
100
AcDbText
 10
0
 20
-3.2000
 30
0
 40
0.4500
  1
GROUND FLOOR PLAN
100
AcDbText
  0
TEXT
  5
1CB
100
AcDbEntity
  8
TEXT
100
AcDbText
 10
14
 20
5.2500
 30
0
 40
0.3000
  1
+450
100
AcDbText
  0
LWPOLYLINE
  5
1CC
100
AcDbEntity
  8
WIND
100
AcDbPolyline
 90
4
 70
1
 10
25.0500
 20
-0.0600
 10
26.2500
 20
-0.0600
 10
26.2500
 20
0.0600
 10
25.0500
 20
0.0600
  0
LWPOLYLINE
  5
1CD
100
AcDbEntity
  8
WIND
100
AcDbPolyline
 90
4
 70
1
 10
25.0500
 20
10.4400
 10
26.2500
 20
10.4400
 10
26.2500
 20
10.5600
 10
25.0500
 20
10.5600
  0
LWPOLYLINE
  5
1CE
100
AcDbEntity
  8
WIND
100
AcDbPolyline
 90
4
 70
1
 10
28.9500
 20
-0.0600
 10
30.1500
 20
-0.0600
 10
30.1500
 20
0.0600
 10
28.9500
 20
0.0600
  0
LWPOLYLINE
  5
1CF
100
AcDbEntity
  8
WIND
100
AcDbPolyline
 90
4
 70
1
 10
28.9500
 20
10.4400
 10
30.1500
 20
10.4400
 10
30.1500
 20
10.5600
 10
28.9500
 20
10.5600
  0
LWPOLYLINE
  5
1D0
100
AcDbEntity
  8
WIND
100
AcDbPolyline
 90
4
 70
1
 10
32.4000
 20
-0.0600
 10
33.6000
 20
-0.0600
 10
33.6000
 20
0.0600
 10
32.4000
 20
0.0600
  0
LWPOLYLINE
  5
1D1
100
AcDbEntity
  8
WIND
100
AcDbPolyline
 90
4
 70
1
 10
32.4000
 20
10.4400
 10
33.6000
 20
10.4400
 10
33.6000
 20
10.5600
 10
32.4000
 20
10.5600
  0
LWPOLYLINE
  5
1D2
100
AcDbEntity
  8
WIND
100
AcDbPolyline
 90
4
 70
1
 10
23.3400
 20
1.5000
 10
23.4600
 20
1.5000
 10
23.4600
 20
2.7000
 10
23.3400
 20
2.7000
  0
LWPOLYLINE
  5
1D3
100
AcDbEntity
  8
WIND
100
AcDbPolyline
 90
4
 70
1
 10
34.7400
 20
1.5000
 10
34.8600
 20
1.5000
 10
34.8600
 20
2.7000
 10
34.7400
 20
2.7000
  0
LWPOLYLINE
  5
1D4
100
AcDbEntity
  8
WIND
100
AcDbPolyline
 90
4
 70
1
 10
23.3400
 20
4.8000
 10
23.4600
 20
4.8000
 10
23.4600
 20
6
 10
23.3400
 20
6
  0
LWPOLYLINE
  5
1D5
100
AcDbEntity
  8
WIND
100
AcDbPolyline
 90
4
 70
1
 10
34.7400
 20
4.8000
 10
34.8600
 20
4.8000
 10
34.8600
 20
6
 10
34.7400
 20
6
  0
LWPOLYLINE
  5
1D6
100
AcDbEntity
  8
WIND
100
AcDbPolyline
 90
4
 70
1
 10
23.3400
 20
7.9500
 10
23.4600
 20
7.9500
 10
23.4600
 20
9.1500
 10
23.3400
 20
9.1500
  0
LWPOLYLINE
  5
1D7
100
AcDbEntity
  8
WIND
100
AcDbPolyline
 90
4
 70
1
 10
34.7400
 20
7.9500
 10
34.8600
 20
7.9500
 10
34.8600
 20
9.1500
 10
34.7400
 20
9.1500
  0
ARC
  5
1D8
100
AcDbEntity
  8
DOOR
100
AcDbCircle
 10
27.9000
 20
1.6500
 30
0
 40
0.9000
100
AcDbArc
 50
90
 51
180
  0
LINE
  5
1D9
100
AcDbEntity
  8
DOOR
100
AcDbLine
 10
27.9000
 20
1.6500
 30
0
 11
27
 21
1.6500
 31
0
  0
ARC
  5
1DA
100
AcDbEntity
  8
DOOR
100
AcDbCircle
 10
27.9000
 20
8.1000
 30
0
 40
0.9000
100
AcDbArc
 50
90
 51
180
  0
LINE
  5
1DB
100
AcDbEntity
  8
DOOR
100
AcDbLine
 10
27.9000
 20
8.1000
 30
0
 11
27
 21
8.1000
 31
0
  0
ARC
  5
1DC
100
AcDbEntity
  8
DOOR
100
AcDbCircle
 10
31.2000
 20
1.6500
 30
0
 40
0.9000
100
AcDbArc
 50
90
 51
180
  0
LINE
  5
1DD
100
AcDbEntity
  8
DOOR
100
AcDbLine
 10
31.2000
 20
1.6500
 30
0
 11
30.3000
 21
1.6500
 31
0
  0
ARC
  5
1DE
100
AcDbEntity
  8
DOOR
100
AcDbCircle
 10
31.2000
 20
4.9500
 30
0
 40
0.9000
100
AcDbArc
 50
90
 51
180
  0
LINE
  5
1DF
100
AcDbEntity
  8
DOOR
100
AcDbLine
 10
31.2000
 20
4.9500
 30
0
 11
30.3000
 21
4.9500
 31
0
  0
ARC
  5
1E0
100
AcDbEntity
  8
DOOR
100
AcDbCircle
 10
31.2000
 20
8.1000
 30
0
 40
0.9000
100
AcDbArc
 50
90
 51
180
  0
LINE
  5
1E1
100
AcDbEntity
  8
DOOR
100
AcDbLine
 10
31.2000
 20
8.1000
 30
0
 11
30.3000
 21
8.1000
 31
0
  0
ARC
  5
1E2
100
AcDbEntity
  8
DOOR
100
AcDbCircle
 10
25.2000
 20
4.2000
 30
0
 40
0.9000
100
AcDbArc
 50
0
 51
90
  0
LINE
  5
1E3
100
AcDbEntity
  8
DOOR
100
AcDbLine
 10
25.2000
 20
4.2000
 30
0
 11
25.2000
 21
5.1000
 31
0
  0
ARC
  5
1E4
100
AcDbEntity
  8
DOOR
100
AcDbCircle
 10
29.1000
 20
4.2000
 30
0
 40
0.9000
100
AcDbArc
 50
0
 51
90
  0
LINE
  5
1E5
100
AcDbEntity
  8
DOOR
100
AcDbLine
 10
29.1000
 20
4.2000
 30
0
 11
29.1000
 21
5.1000
 31
0
  0
ARC
  5
1E6
100
AcDbEntity
  8
DOOR
100
AcDbCircle
 10
32.5500
 20
4.2000
 30
0
 40
0.9000
100
AcDbArc
 50
0
 51
90
  0
LINE
  5
1E7
100
AcDbEntity
  8
DOOR
100
AcDbLine
 10
32.5500
 20
4.2000
 30
0
 11
32.5500
 21
5.1000
 31
0
  0
ARC
  5
1E8
100
AcDbEntity
  8
DOOR
100
AcDbCircle
 10
29.1000
 20
6.6000
 30
0
 40
0.9000
100
AcDbArc
 50
0
 51
90
  0
LINE
  5
1E9
100
AcDbEntity
  8
DOOR
100
AcDbLine
 10
29.1000
 20
6.6000
 30
0
 11
29.1000
 21
7.5000
 31
0
  0
ARC
  5
1EA
100
AcDbEntity
  8
DOOR
100
AcDbCircle
 10
32.5500
 20
6.6000
 30
0
 40
0.9000
100
AcDbArc
 50
0
 51
90
  0
LINE
  5
1EB
100
AcDbEntity
  8
DOOR
100
AcDbLine
 10
32.5500
 20
6.6000
 30
0
 11
32.5500
 21
7.5000
 31
0
  0
LINE
  5
1EC
100
AcDbEntity
  8
WALL
100
AcDbLine
370
50
 10
23.4000
 20
-0.1125
 30
0
 11
25.0500
 21
-0.1125
 31
0
  0
LINE
  5
1ED
100
AcDbEntity
  8
WALL
100
AcDbLine
370
50
 10
23.4000
 20
0.1125
 30
0
 11
25.0500
 21
0.1125
 31
0
  0
LINE
  5
1EE
100
AcDbEntity
  8
WALL
100
AcDbLine
370
50
 10
26.2500
 20
-0.1125
 30
0
 11
27.9000
 21
-0.1125
 31
0
  0
LINE
  5
1EF
100
AcDbEntity
  8
WALL
100
AcDbLine
370
50
 10
26.2500
 20
0.1125
 30
0
 11
27.9000
 21
0.1125
 31
0
  0
LINE
  5
1F0
100
AcDbEntity
  8
WALL
100
AcDbLine
370
50
 10
25.0500
 20
-0.1125
 30
0
 11
25.0500
 21
0.1125
 31
0
  0
LINE
  5
1F1
100
AcDbEntity
  8
WALL
100
AcDbLine
370
50
 10
26.2500
 20
-0.1125
 30
0
 11
26.2500
 21
0.1125
 31
0
  0
LINE
  5
1F2
100
AcDbEntity
  8
WALL
100
AcDbLine
370
50
 10
23.4000
 20
10.3875
 30
0
 11
25.0500
 21
10.3875
 31
0
  0
LINE
  5
1F3
100
AcDbEntity
  8
WALL
100
AcDbLine
370
50
 10
23.4000
 20
10.6125
 30
0
 11
25.0500
 21
10.6125
 31
0
  0
LINE
  5
1F4
100
AcDbEntity
  8
WALL
100
AcDbLine
370
50
 10
26.2500
 20
10.3875
 30
0
 11
27.9000
 21
10.3875
 31
0
  0
LINE
  5
1F5
100
AcDbEntity
  8
WALL
100
AcDbLine
370
50
 10
26.2500
 20
10.6125
 30
0
 11
27.9000
 21
10.6125
 31
0
  0
LINE
  5
1F6
100
AcDbEntity
  8
WALL
100
AcDbLine
370
50
 10
25.0500
 20
10.3875
 30
0
 11
25.0500
 21
10.6125
 31
0
  0
LINE
  5
1F7
100
AcDbEntity
  8
WALL
100
AcDbLine
370
50
 10
26.2500
 20
10.3875
 30
0
 11
26.2500
 21
10.6125
 31
0
  0
LINE
  5
1F8
100
AcDbEntity
  8
WALL
100
AcDbLine
370
50
 10
27.9000
 20
-0.1125
 30
0
 11
28.9500
 21
-0.1125
 31
0
  0
LINE
  5
1F9
100
AcDbEntity
  8
WALL
100
AcDbLine
370
50
 10
27.9000
 20
0.1125
 30
0
 11
28.9500
 21
0.1125
 31
0
  0
LINE
  5
1FA
100
AcDbEntity
  8
WALL
100
AcDbLine
370
50
 10
30.1500
 20
-0.1125
 30
0
 11
31.2000
 21
-0.1125
 31
0
  0
LINE
  5
1FB
100
AcDbEntity
  8
WALL
100
AcDbLine
370
50
 10
30.1500
 20
0.1125
 30
0
 11
31.2000
 21
0.1125
 31
0
  0
LINE
  5
1FC
100
AcDbEntity
  8
WALL
100
AcDbLine
370
50
 10
28.9500
 20
-0.1125
 30
0
 11
28.9500
 21
0.1125
 31
0
  0
LINE
  5
1FD
100
AcDbEntity
  8
WALL
100
AcDbLine
370
50
 10
30.1500
 20
-0.1125
 30
0
 11
30.1500
 21
0.1125
 31
0
  0
LINE
  5
1FE
100
AcDbEntity
  8
WALL
100
AcDbLine
370
50
 10
27.9000
 20
10.3875
 30
0
 11
28.9500
 21
10.3875
 31
0
  0
LINE
  5
1FF
100
AcDbEntity
  8
WALL
100
AcDbLine
370
50
 10
27.9000
 20
10.6125
 30
0
 11
28.9500
 21
10.6125
 31
0
  0
LINE
  5
200
100
AcDbEntity
  8
WALL
100
AcDbLine
370
50
 10
30.1500
 20
10.3875
 30
0
 11
31.2000
 21
10.3875
 31
0
  0
LINE
  5
201
100
AcDbEntity
  8
WALL
100
AcDbLine
370
50
 10
30.1500
 20
10.6125
 30
0
 11
31.2000
 21
10.6125
 31
0
  0
LINE
  5
202
100
AcDbEntity
  8
WALL
100
AcDbLine
370
50
 10
28.9500
 20
10.3875
 30
0
 11
28.9500
 21
10.6125
 31
0
  0
LINE
  5
203
100
AcDbEntity
  8
WALL
100
AcDbLine
370
50
 10
30.1500
 20
10.3875
 30
0
 11
30.1500
 21
10.6125
 31
0
  0
LINE
  5
204
100
AcDbEntity
  8
WALL
100
AcDbLine
370
50
 10
31.2000
 20
-0.1125
 30
0
 11
32.4000
 21
-0.1125
 31
0
  0
LINE
  5
205
100
AcDbEntity
  8
WALL
100
AcDbLine
370
50
 10
31.2000
 20
0.1125
 30
0
 11
32.4000
 21
0.1125
 31
0
  0
LINE
  5
206
100
AcDbEntity
  8
WALL
100
AcDbLine
370
50
 10
33.6000
 20
-0.1125
 30
0
 11
34.8000
 21
-0.1125
 31
0
  0
LINE
  5
207
100
AcDbEntity
  8
WALL
100
AcDbLine
370
50
 10
33.6000
 20
0.1125
 30
0
 11
34.8000
 21
0.1125
 31
0
  0
LINE
  5
208
100
AcDbEntity
  8
WALL
100
AcDbLine
370
50
 10
32.4000
 20
-0.1125
 30
0
 11
32.4000
 21
0.1125
 31
0
  0
LINE
  5
209
100
AcDbEntity
  8
WALL
100
AcDbLine
370
50
 10
33.6000
 20
-0.1125
 30
0
 11
33.6000
 21
0.1125
 31
0
  0
LINE
  5
20A
100
AcDbEntity
  8
WALL
100
AcDbLine
370
50
 10
31.2000
 20
10.3875
 30
0
 11
32.4000
 21
10.3875
 31
0
  0
LINE
  5
20B
100
AcDbEntity
  8
WALL
100
AcDbLine
370
50
 10
31.2000
 20
10.6125
 30
0
 11
32.4000
 21
10.6125
 31
0
  0
LINE
  5
20C
100
AcDbEntity
  8
WALL
100
AcDbLine
370
50
 10
33.6000
 20
10.3875
 30
0
 11
34.8000
 21
10.3875
 31
0
  0
LINE
  5
20D
100
AcDbEntity
  8
WALL
100
AcDbLine
370
50
 10
33.6000
 20
10.6125
 30
0
 11
34.8000
 21
10.6125
 31
0
  0
LINE
  5
20E
100
AcDbEntity
  8
WALL
100
AcDbLine
370
50
 10
32.4000
 20
10.3875
 30
0
 11
32.4000
 21
10.6125
 31
0
  0
LINE
  5
20F
100
AcDbEntity
  8
WALL
100
AcDbLine
370
50
 10
33.6000
 20
10.3875
 30
0
 11
33.6000
 21
10.6125
 31
0
  0
LINE
  5
210
100
AcDbEntity
  8
WALL
100
AcDbLine
370
50
 10
23.2875
 20
0
 30
0
 11
23.2875
 21
1.5000
 31
0
  0
LINE
  5
211
100
AcDbEntity
  8
WALL
100
AcDbLine
370
50
 10
23.5125
 20
0
 30
0
 11
23.5125
 21
1.5000
 31
0
  0
LINE
  5
212
100
AcDbEntity
  8
WALL
100
AcDbLine
370
50
 10
23.2875
 20
2.7000
 30
0
 11
23.2875
 21
4.2000
 31
0
  0
LINE
  5
213
100
AcDbEntity
  8
WALL
100
AcDbLine
370
50
 10
23.5125
 20
2.7000
 30
0
 11
23.5125
 21
4.2000
 31
0
  0
LINE
  5
214
100
AcDbEntity
  8
WALL
100
AcDbLine
370
50
 10
23.2875
 20
1.5000
 30
0
 11
23.5125
 21
1.5000
 31
0
  0
LINE
  5
215
100
AcDbEntity
  8
WALL
100
AcDbLine
370
50
 10
23.2875
 20
2.7000
 30
0
 11
23.5125
 21
2.7000
 31
0
  0
LINE
  5
216
100
AcDbEntity
  8
WALL
100
AcDbLine
370
50
 10
34.6875
 20
0
 30
0
 11
34.6875
 21
1.5000
 31
0
  0
LINE
  5
217
100
AcDbEntity
  8
WALL
100
AcDbLine
370
50
 10
34.9125
 20
0
 30
0
 11
34.9125
 21
1.5000
 31
0
  0
LINE
  5
218
100
AcDbEntity
  8
WALL
100
AcDbLine
370
50
 10
34.6875
 20
2.7000
 30
0
 11
34.6875
 21
4.2000
 31
0
  0
LINE
  5
219
100
AcDbEntity
  8
WALL
100
AcDbLine
370
50
 10
34.9125
 20
2.7000
 30
0
 11
34.9125
 21
4.2000
 31
0
  0
LINE
  5
21A
100
AcDbEntity
  8
WALL
100
AcDbLine
370
50
 10
34.6875
 20
1.5000
 30
0
 11
34.9125
 21
1.5000
 31
0
  0
LINE
  5
21B
100
AcDbEntity
  8
WALL
100
AcDbLine
370
50
 10
34.6875
 20
2.7000
 30
0
 11
34.9125
 21
2.7000
 31
0
  0
LINE
  5
21C
100
AcDbEntity
  8
WALL
100
AcDbLine
370
50
 10
23.2875
 20
4.2000
 30
0
 11
23.2875
 21
4.8000
 31
0
  0
LINE
  5
21D
100
AcDbEntity
  8
WALL
100
AcDbLine
370
50
 10
23.5125
 20
4.2000
 30
0
 11
23.5125
 21
4.8000
 31
0
  0
LINE
  5
21E
100
AcDbEntity
  8
WALL
100
AcDbLine
370
50
 10
23.2875
 20
6
 30
0
 11
23.2875
 21
6.6000
 31
0
  0
LINE
  5
21F
100
AcDbEntity
  8
WALL
100
AcDbLine
370
50
 10
23.5125
 20
6
 30
0
 11
23.5125
 21
6.6000
 31
0
  0
LINE
  5
220
100
AcDbEntity
  8
WALL
100
AcDbLine
370
50
 10
23.2875
 20
4.8000
 30
0
 11
23.5125
 21
4.8000
 31
0
  0
LINE
  5
221
100
AcDbEntity
  8
WALL
100
AcDbLine
370
50
 10
23.2875
 20
6
 30
0
 11
23.5125
 21
6
 31
0
  0
LINE
  5
222
100
AcDbEntity
  8
WALL
100
AcDbLine
370
50
 10
34.6875
 20
4.2000
 30
0
 11
34.6875
 21
4.8000
 31
0
  0
LINE
  5
223
100
AcDbEntity
  8
WALL
100
AcDbLine
370
50
 10
34.9125
 20
4.2000
 30
0
 11
34.9125
 21
4.8000
 31
0
  0
LINE
  5
224
100
AcDbEntity
  8
WALL
100
AcDbLine
370
50
 10
34.6875
 20
6
 30
0
 11
34.6875
 21
6.6000
 31
0
  0
LINE
  5
225
100
AcDbEntity
  8
WALL
100
AcDbLine
370
50
 10
34.9125
 20
6
 30
0
 11
34.9125
 21
6.6000
 31
0
  0
LINE
  5
226
100
AcDbEntity
  8
WALL
100
AcDbLine
370
50
 10
34.6875
 20
4.8000
 30
0
 11
34.9125
 21
4.8000
 31
0
  0
LINE
  5
227
100
AcDbEntity
  8
WALL
100
AcDbLine
370
50
 10
34.6875
 20
6
 30
0
 11
34.9125
 21
6
 31
0
  0
LINE
  5
228
100
AcDbEntity
  8
WALL
100
AcDbLine
370
50
 10
23.2875
 20
6.6000
 30
0
 11
23.2875
 21
7.9500
 31
0
  0
LINE
  5
229
100
AcDbEntity
  8
WALL
100
AcDbLine
370
50
 10
23.5125
 20
6.6000
 30
0
 11
23.5125
 21
7.9500
 31
0
  0
LINE
  5
22A
100
AcDbEntity
  8
WALL
100
AcDbLine
370
50
 10
23.2875
 20
9.1500
 30
0
 11
23.2875
 21
10.5000
 31
0
  0
LINE
  5
22B
100
AcDbEntity
  8
WALL
100
AcDbLine
370
50
 10
23.5125
 20
9.1500
 30
0
 11
23.5125
 21
10.5000
 31
0
  0
LINE
  5
22C
100
AcDbEntity
  8
WALL
100
AcDbLine
370
50
 10
23.2875
 20
7.9500
 30
0
 11
23.5125
 21
7.9500
 31
0
  0
LINE
  5
22D
100
AcDbEntity
  8
WALL
100
AcDbLine
370
50
 10
23.2875
 20
9.1500
 30
0
 11
23.5125
 21
9.1500
 31
0
  0
LINE
  5
22E
100
AcDbEntity
  8
WALL
100
AcDbLine
370
50
 10
34.6875
 20
6.6000
 30
0
 11
34.6875
 21
7.9500
 31
0
  0
LINE
  5
22F
100
AcDbEntity
  8
WALL
100
AcDbLine
370
50
 10
34.9125
 20
6.6000
 30
0
 11
34.9125
 21
7.9500
 31
0
  0
LINE
  5
230
100
AcDbEntity
  8
WALL
100
AcDbLine
370
50
 10
34.6875
 20
9.1500
 30
0
 11
34.6875
 21
10.5000
 31
0
  0
LINE
  5
231
100
AcDbEntity
  8
WALL
100
AcDbLine
370
50
 10
34.9125
 20
9.1500
 30
0
 11
34.9125
 21
10.5000
 31
0
  0
LINE
  5
232
100
AcDbEntity
  8
WALL
100
AcDbLine
370
50
 10
34.6875
 20
7.9500
 30
0
 11
34.9125
 21
7.9500
 31
0
  0
LINE
  5
233
100
AcDbEntity
  8
WALL
100
AcDbLine
370
50
 10
34.6875
 20
9.1500
 30
0
 11
34.9125
 21
9.1500
 31
0
  0
LINE
  5
234
100
AcDbEntity
  8
WALL
100
AcDbLine
370
50
 10
27.8250
 20
0
 30
0
 11
27.8250
 21
1.6500
 31
0
  0
LINE
  5
235
100
AcDbEntity
  8
WALL
100
AcDbLine
370
50
 10
27.9750
 20
0
 30
0
 11
27.9750
 21
1.6500
 31
0
  0
LINE
  5
236
100
AcDbEntity
  8
WALL
100
AcDbLine
370
50
 10
27.8250
 20
2.5500
 30
0
 11
27.8250
 21
4.2000
 31
0
  0
LINE
  5
237
100
AcDbEntity
  8
WALL
100
AcDbLine
370
50
 10
27.9750
 20
2.5500
 30
0
 11
27.9750
 21
4.2000
 31
0
  0
LINE
  5
238
100
AcDbEntity
  8
WALL
100
AcDbLine
370
50
 10
27.8250
 20
1.6500
 30
0
 11
27.9750
 21
1.6500
 31
0
  0
LINE
  5
239
100
AcDbEntity
  8
WALL
100
AcDbLine
370
50
 10
27.8250
 20
2.5500
 30
0
 11
27.9750
 21
2.5500
 31
0
  0
LINE
  5
23A
100
AcDbEntity
  8
WALL
100
AcDbLine
370
50
 10
27.8250
 20
4.2000
 30
0
 11
27.8250
 21
6.6000
 31
0
  0
LINE
  5
23B
100
AcDbEntity
  8
WALL
100
AcDbLine
370
50
 10
27.9750
 20
4.2000
 30
0
 11
27.9750
 21
6.6000
 31
0
  0
LINE
  5
23C
100
AcDbEntity
  8
WALL
100
AcDbLine
370
50
 10
27.8250
 20
6.6000
 30
0
 11
27.8250
 21
8.1000
 31
0
  0
LINE
  5
23D
100
AcDbEntity
  8
WALL
100
AcDbLine
370
50
 10
27.9750
 20
6.6000
 30
0
 11
27.9750
 21
8.1000
 31
0
  0
LINE
  5
23E
100
AcDbEntity
  8
WALL
100
AcDbLine
370
50
 10
27.8250
 20
9
 30
0
 11
27.8250
 21
10.5000
 31
0
  0
LINE
  5
23F
100
AcDbEntity
  8
WALL
100
AcDbLine
370
50
 10
27.9750
 20
9
 30
0
 11
27.9750
 21
10.5000
 31
0
  0
LINE
  5
240
100
AcDbEntity
  8
WALL
100
AcDbLine
370
50
 10
27.8250
 20
8.1000
 30
0
 11
27.9750
 21
8.1000
 31
0
  0
LINE
  5
241
100
AcDbEntity
  8
WALL
100
AcDbLine
370
50
 10
27.8250
 20
9
 30
0
 11
27.9750
 21
9
 31
0
  0
LINE
  5
242
100
AcDbEntity
  8
WALL
100
AcDbLine
370
50
 10
31.1250
 20
0
 30
0
 11
31.1250
 21
1.6500
 31
0
  0
LINE
  5
243
100
AcDbEntity
  8
WALL
100
AcDbLine
370
50
 10
31.2750
 20
0
 30
0
 11
31.2750
 21
1.6500
 31
0
  0
LINE
  5
244
100
AcDbEntity
  8
WALL
100
AcDbLine
370
50
 10
31.1250
 20
2.5500
 30
0
 11
31.1250
 21
4.2000
 31
0
  0
LINE
  5
245
100
AcDbEntity
  8
WALL
100
AcDbLine
370
50
 10
31.2750
 20
2.5500
 30
0
 11
31.2750
 21
4.2000
 31
0
  0
LINE
  5
246
100
AcDbEntity
  8
WALL
100
AcDbLine
370
50
 10
31.1250
 20
1.6500
 30
0
 11
31.2750
 21
1.6500
 31
0
  0
LINE
  5
247
100
AcDbEntity
  8
WALL
100
AcDbLine
370
50
 10
31.1250
 20
2.5500
 30
0
 11
31.2750
 21
2.5500
 31
0
  0
LINE
  5
248
100
AcDbEntity
  8
WALL
100
AcDbLine
370
50
 10
31.1250
 20
4.2000
 30
0
 11
31.1250
 21
4.9500
 31
0
  0
LINE
  5
249
100
AcDbEntity
  8
WALL
100
AcDbLine
370
50
 10
31.2750
 20
4.2000
 30
0
 11
31.2750
 21
4.9500
 31
0
  0
LINE
  5
24A
100
AcDbEntity
  8
WALL
100
AcDbLine
370
50
 10
31.1250
 20
5.8500
 30
0
 11
31.1250
 21
6.6000
 31
0
  0
LINE
  5
24B
100
AcDbEntity
  8
WALL
100
AcDbLine
370
50
 10
31.2750
 20
5.8500
 30
0
 11
31.2750
 21
6.6000
 31
0
  0
LINE
  5
24C
100
AcDbEntity
  8
WALL
100
AcDbLine
370
50
 10
31.1250
 20
4.9500
 30
0
 11
31.2750
 21
4.9500
 31
0
  0
LINE
  5
24D
100
AcDbEntity
  8
WALL
100
AcDbLine
370
50
 10
31.1250
 20
5.8500
 30
0
 11
31.2750
 21
5.8500
 31
0
  0
LINE
  5
24E
100
AcDbEntity
  8
WALL
100
AcDbLine
370
50
 10
31.1250
 20
6.6000
 30
0
 11
31.1250
 21
8.1000
 31
0
  0
LINE
  5
24F
100
AcDbEntity
  8
WALL
100
AcDbLine
370
50
 10
31.2750
 20
6.6000
 30
0
 11
31.2750
 21
8.1000
 31
0
  0
LINE
  5
250
100
AcDbEntity
  8
WALL
100
AcDbLine
370
50
 10
31.1250
 20
9
 30
0
 11
31.1250
 21
10.5000
 31
0
  0
LINE
  5
251
100
AcDbEntity
  8
WALL
100
AcDbLine
370
50
 10
31.2750
 20
9
 30
0
 11
31.2750
 21
10.5000
 31
0
  0
LINE
  5
252
100
AcDbEntity
  8
WALL
100
AcDbLine
370
50
 10
31.1250
 20
8.1000
 30
0
 11
31.2750
 21
8.1000
 31
0
  0
LINE
  5
253
100
AcDbEntity
  8
WALL
100
AcDbLine
370
50
 10
31.1250
 20
9
 30
0
 11
31.2750
 21
9
 31
0
  0
LINE
  5
254
100
AcDbEntity
  8
WALL
100
AcDbLine
370
50
 10
23.4000
 20
4.1250
 30
0
 11
25.2000
 21
4.1250
 31
0
  0
LINE
  5
255
100
AcDbEntity
  8
WALL
100
AcDbLine
370
50
 10
23.4000
 20
4.2750
 30
0
 11
25.2000
 21
4.2750
 31
0
  0
LINE
  5
256
100
AcDbEntity
  8
WALL
100
AcDbLine
370
50
 10
26.1000
 20
4.1250
 30
0
 11
27.9000
 21
4.1250
 31
0
  0
LINE
  5
257
100
AcDbEntity
  8
WALL
100
AcDbLine
370
50
 10
26.1000
 20
4.2750
 30
0
 11
27.9000
 21
4.2750
 31
0
  0
LINE
  5
258
100
AcDbEntity
  8
WALL
100
AcDbLine
370
50
 10
25.2000
 20
4.1250
 30
0
 11
25.2000
 21
4.2750
 31
0
  0
LINE
  5
259
100
AcDbEntity
  8
WALL
100
AcDbLine
370
50
 10
26.1000
 20
4.1250
 30
0
 11
26.1000
 21
4.2750
 31
0
  0
LINE
  5
25A
100
AcDbEntity
  8
WALL
100
AcDbLine
370
50
 10
27.9000
 20
4.1250
 30
0
 11
29.1000
 21
4.1250
 31
0
  0
LINE
  5
25B
100
AcDbEntity
  8
WALL
100
AcDbLine
370
50
 10
27.9000
 20
4.2750
 30
0
 11
29.1000
 21
4.2750
 31
0
  0
LINE
  5
25C
100
AcDbEntity
  8
WALL
100
AcDbLine
370
50
 10
30
 20
4.1250
 30
0
 11
31.2000
 21
4.1250
 31
0
  0
LINE
  5
25D
100
AcDbEntity
  8
WALL
100
AcDbLine
370
50
 10
30
 20
4.2750
 30
0
 11
31.2000
 21
4.2750
 31
0
  0
LINE
  5
25E
100
AcDbEntity
  8
WALL
100
AcDbLine
370
50
 10
29.1000
 20
4.1250
 30
0
 11
29.1000
 21
4.2750
 31
0
  0
LINE
  5
25F
100
AcDbEntity
  8
WALL
100
AcDbLine
370
50
 10
30
 20
4.1250
 30
0
 11
30
 21
4.2750
 31
0
  0
LINE
  5
260
100
AcDbEntity
  8
WALL
100
AcDbLine
370
50
 10
31.2000
 20
4.1250
 30
0
 11
32.5500
 21
4.1250
 31
0
  0
LINE
  5
261
100
AcDbEntity
  8
WALL
100
AcDbLine
370
50
 10
31.2000
 20
4.2750
 30
0
 11
32.5500
 21
4.2750
 31
0
  0
LINE
  5
262
100
AcDbEntity
  8
WALL
100
AcDbLine
370
50
 10
33.4500
 20
4.1250
 30
0
 11
34.8000
 21
4.1250
 31
0
  0
LINE
  5
263
100
AcDbEntity
  8
WALL
100
AcDbLine
370
50
 10
33.4500
 20
4.2750
 30
0
 11
34.8000
 21
4.2750
 31
0
  0
LINE
  5
264
100
AcDbEntity
  8
WALL
100
AcDbLine
370
50
 10
32.5500
 20
4.1250
 30
0
 11
32.5500
 21
4.2750
 31
0
  0
LINE
  5
265
100
AcDbEntity
  8
WALL
100
AcDbLine
370
50
 10
33.4500
 20
4.1250
 30
0
 11
33.4500
 21
4.2750
 31
0
  0
LINE
  5
266
100
AcDbEntity
  8
WALL
100
AcDbLine
370
50
 10
23.4000
 20
6.5250
 30
0
 11
27.9000
 21
6.5250
 31
0
  0
LINE
  5
267
100
AcDbEntity
  8
WALL
100
AcDbLine
370
50
 10
23.4000
 20
6.6750
 30
0
 11
27.9000
 21
6.6750
 31
0
  0
LINE
  5
268
100
AcDbEntity
  8
WALL
100
AcDbLine
370
50
 10
27.9000
 20
6.5250
 30
0
 11
29.1000
 21
6.5250
 31
0
  0
LINE
  5
269
100
AcDbEntity
  8
WALL
100
AcDbLine
370
50
 10
27.9000
 20
6.6750
 30
0
 11
29.1000
 21
6.6750
 31
0
  0
LINE
  5
26A
100
AcDbEntity
  8
WALL
100
AcDbLine
370
50
 10
30
 20
6.5250
 30
0
 11
31.2000
 21
6.5250
 31
0
  0
LINE
  5
26B
100
AcDbEntity
  8
WALL
100
AcDbLine
370
50
 10
30
 20
6.6750
 30
0
 11
31.2000
 21
6.6750
 31
0
  0
LINE
  5
26C
100
AcDbEntity
  8
WALL
100
AcDbLine
370
50
 10
29.1000
 20
6.5250
 30
0
 11
29.1000
 21
6.6750
 31
0
  0
LINE
  5
26D
100
AcDbEntity
  8
WALL
100
AcDbLine
370
50
 10
30
 20
6.5250
 30
0
 11
30
 21
6.6750
 31
0
  0
LINE
  5
26E
100
AcDbEntity
  8
WALL
100
AcDbLine
370
50
 10
31.2000
 20
6.5250
 30
0
 11
32.5500
 21
6.5250
 31
0
  0
LINE
  5
26F
100
AcDbEntity
  8
WALL
100
AcDbLine
370
50
 10
31.2000
 20
6.6750
 30
0
 11
32.5500
 21
6.6750
 31
0
  0
LINE
  5
270
100
AcDbEntity
  8
WALL
100
AcDbLine
370
50
 10
33.4500
 20
6.5250
 30
0
 11
34.8000
 21
6.5250
 31
0
  0
LINE
  5
271
100
AcDbEntity
  8
WALL
100
AcDbLine
370
50
 10
33.4500
 20
6.6750
 30
0
 11
34.8000
 21
6.6750
 31
0
  0
LINE
  5
272
100
AcDbEntity
  8
WALL
100
AcDbLine
370
50
 10
32.5500
 20
6.5250
 30
0
 11
32.5500
 21
6.6750
 31
0
  0
LINE
  5
273
100
AcDbEntity
  8
WALL
100
AcDbLine
370
50
 10
33.4500
 20
6.5250
 30
0
 11
33.4500
 21
6.6750
 31
0
  0
LWPOLYLINE
  5
274
100
AcDbEntity
  8
COLUMN
100
AcDbPolyline
 90
4
 70
1
 10
23.2850
 20
-0.1150
 10
23.5150
 20
-0.1150
 10
23.5150
 20
0.1150
 10
23.2850
 20
0.1150
  0
LWPOLYLINE
  5
275
100
AcDbEntity
  8
COLUMN
100
AcDbPolyline
 90
4
 70
1
 10
23.2850
 20
4.0850
 10
23.5150
 20
4.0850
 10
23.5150
 20
4.3150
 10
23.2850
 20
4.3150
  0
LWPOLYLINE
  5
276
100
AcDbEntity
  8
COLUMN
100
AcDbPolyline
 90
4
 70
1
 10
23.2850
 20
6.4850
 10
23.5150
 20
6.4850
 10
23.5150
 20
6.7150
 10
23.2850
 20
6.7150
  0
LWPOLYLINE
  5
277
100
AcDbEntity
  8
COLUMN
100
AcDbPolyline
 90
4
 70
1
 10
23.2850
 20
10.3850
 10
23.5150
 20
10.3850
 10
23.5150
 20
10.6150
 10
23.2850
 20
10.6150
  0
LWPOLYLINE
  5
278
100
AcDbEntity
  8
COLUMN
100
AcDbPolyline
 90
4
 70
1
 10
27.7850
 20
-0.1150
 10
28.0150
 20
-0.1150
 10
28.0150
 20
0.1150
 10
27.7850
 20
0.1150
  0
LWPOLYLINE
  5
279
100
AcDbEntity
  8
COLUMN
100
AcDbPolyline
 90
4
 70
1
 10
27.7850
 20
4.0850
 10
28.0150
 20
4.0850
 10
28.0150
 20
4.3150
 10
27.7850
 20
4.3150
  0
LWPOLYLINE
  5
27A
100
AcDbEntity
  8
COLUMN
100
AcDbPolyline
 90
4
 70
1
 10
27.7850
 20
6.4850
 10
28.0150
 20
6.4850
 10
28.0150
 20
6.7150
 10
27.7850
 20
6.7150
  0
LWPOLYLINE
  5
27B
100
AcDbEntity
  8
COLUMN
100
AcDbPolyline
 90
4
 70
1
 10
27.7850
 20
10.3850
 10
28.0150
 20
10.3850
 10
28.0150
 20
10.6150
 10
27.7850
 20
10.6150
  0
LWPOLYLINE
  5
27C
100
AcDbEntity
  8
COLUMN
100
AcDbPolyline
 90
4
 70
1
 10
31.0850
 20
-0.1150
 10
31.3150
 20
-0.1150
 10
31.3150
 20
0.1150
 10
31.0850
 20
0.1150
  0
LWPOLYLINE
  5
27D
100
AcDbEntity
  8
COLUMN
100
AcDbPolyline
 90
4
 70
1
 10
31.0850
 20
4.0850
 10
31.3150
 20
4.0850
 10
31.3150
 20
4.3150
 10
31.0850
 20
4.3150
  0
LWPOLYLINE
  5
27E
100
AcDbEntity
  8
COLUMN
100
AcDbPolyline
 90
4
 70
1
 10
31.0850
 20
6.4850
 10
31.3150
 20
6.4850
 10
31.3150
 20
6.7150
 10
31.0850
 20
6.7150
  0
LWPOLYLINE
  5
27F
100
AcDbEntity
  8
COLUMN
100
AcDbPolyline
 90
4
 70
1
 10
31.0850
 20
10.3850
 10
31.3150
 20
10.3850
 10
31.3150
 20
10.6150
 10
31.0850
 20
10.6150
  0
LWPOLYLINE
  5
280
100
AcDbEntity
  8
COLUMN
100
AcDbPolyline
 90
4
 70
1
 10
34.6850
 20
-0.1150
 10
34.9150
 20
-0.1150
 10
34.9150
 20
0.1150
 10
34.6850
 20
0.1150
  0
LWPOLYLINE
  5
281
100
AcDbEntity
  8
COLUMN
100
AcDbPolyline
 90
4
 70
1
 10
34.6850
 20
4.0850
 10
34.9150
 20
4.0850
 10
34.9150
 20
4.3150
 10
34.6850
 20
4.3150
  0
LWPOLYLINE
  5
282
100
AcDbEntity
  8
COLUMN
100
AcDbPolyline
 90
4
 70
1
 10
34.6850
 20
6.4850
 10
34.9150
 20
6.4850
 10
34.9150
 20
6.7150
 10
34.6850
 20
6.7150
  0
LWPOLYLINE
  5
283
100
AcDbEntity
  8
COLUMN
100
AcDbPolyline
 90
4
 70
1
 10
34.6850
 20
10.3850
 10
34.9150
 20
10.3850
 10
34.9150
 20
10.6150
 10
34.6850
 20
10.6150
  0
TEXT
  5
284
100
AcDbEntity
  8
TEXT
100
AcDbText
 10
25.1687
 20
2.1187
 30
0
 40
0.2500
  1
BEDROOM
100
AcDbText
  0
TEXT
  5
285
100
AcDbEntity
  8
TEXT
100
AcDbText
 10
29.0500
 20
2.1187
 30
0
 40
0.2500
  1
BEDROOM
100
AcDbText
  0
TEXT
  5
286
100
AcDbEntity
  8
TEXT
100
AcDbText
 10
32.4813
 20
2.1187
 30
0
 40
0.2500
  1
BEDROOM
100
AcDbText
  0
TEXT
  5
287
100
AcDbEntity
  8
TEXT
100
AcDbText
 10
25.1687
 20
5.4000
 30
0
 40
0.2500
  1
BATH
100
AcDbText
  0
LWPOLYLINE
  5
288
100
AcDbEntity
  8
SANITARY
100
AcDbPolyline
 90
4
 70
1
 10
23.9125
 20
5.6250
 10
24.3125
 20
5.6250
 10
24.3125
 20
6.2250
 10
23.9125
 20
6.2250
  0
TEXT
  5
289
100
AcDbEntity
  8
TEXT
100
AcDbText
 10
29.0500
 20
5.4000
 30
0
 40
0.2500
  1
BATH
100
AcDbText
  0
LWPOLYLINE
  5
28A
100
AcDbEntity
  8
SANITARY
100
AcDbPolyline
 90
4
 70
1
 10
28.3750
 20
5.6250
 10
28.7750
 20
5.6250
 10
28.7750
 20
6.2250
 10
28.3750
 20
6.2250
  0
TEXT
  5
28B
100
AcDbEntity
  8
TEXT
100
AcDbText
 10
32.4813
 20
5.4000
 30
0
 40
0.2500
  1
DRESSING
100
AcDbText
  0
TEXT
  5
28C
100
AcDbEntity
  8
TEXT
100
AcDbText
 10
25.1687
 20
8.5313
 30
0
 40
0.2500
  1
FAMILY LOUNGE
100
AcDbText
  0
TEXT
  5
28D
100
AcDbEntity
  8
TEXT
100
AcDbText
 10
29.0500
 20
8.5313
 30
0
 40
0.2500
  1
STAIR HALL
100
AcDbText
  0
TEXT
  5
28E
100
AcDbEntity
  8
TEXT
100
AcDbText
 10
32.4813
 20
8.5313
 30
0
 40
0.2500
  1
MASTER BEDROOM
100
AcDbText
  0
DIMENSION
  5
28F
100
AcDbEntity
  8
DIM
100
AcDbDimension
  2
*D
 10
23.4000
 20
-1.8000
 30
0
 11
29.1000
 21
-1.5500
 31
0
 70
33
  1

 42
11.4000
100
AcDbAlignedDimension
 13
23.4000
 23
0
 33
0
 14
34.8000
 24
0
 34
0
  0
DIMENSION
  5
290
100
AcDbEntity
  8
DIM
100
AcDbDimension
  2
*D
 10
21.6000
 20
0
 30
0
 11
21.8500
 21
5.2500
 31
0
 70
33
  1

 42
10.5000
100
AcDbAlignedDimension
 13
23.4000
 23
0
 33
0
 14
23.4000
 24
10.5000
 34
0
  0
DIMENSION
  5
291
100
AcDbEntity
  8
DIM
100
AcDbDimension
  2
*D
 10
23.4000
 20
11.7000
 30
0
 11
25.6500
 21
11.9500
 31
0
 70
33
  1

 42
4.5000
100
AcDbAlignedDimension
 13
23.4000
 23
10.5000
 33
0
 14
27.9000
 24
10.5000
 34
0
  0
DIMENSION
  5
292
100
AcDbEntity
  8
DIM
100
AcDbDimension
  2
*D
 10
27.9000
 20
11.7000
 30
0
 11
29.5500
 21
11.9500
 31
0
 70
33
  1

 42
3.3000
100
AcDbAlignedDimension
 13
27.9000
 23
10.5000
 33
0
 14
31.2000
 24
10.5000
 34
0
  0
DIMENSION
  5
293
100
AcDbEntity
  8
DIM
100
AcDbDimension
  2
*D
 10
31.2000
 20
11.7000
 30
0
 11
33
 21
11.9500
 31
0
 70
33
  1

 42
3.6000
100
AcDbAlignedDimension
 13
31.2000
 23
10.5000
 33
0
 14
34.8000
 24
10.5000
 34
0
  0
DIMENSION
  5
294
100
AcDbEntity
  8
DIM
100
AcDbDimension
  2
*D
 10
36
 20
0
 30
0
 11
36.2500
 21
2.1000
 31
0
 70
33
  1

 42
4.2000
100
AcDbAlignedDimension
 13
34.8000
 23
0
 33
0
 14
34.8000
 24
4.2000
 34
0
  0
DIMENSION
  5
295
100
AcDbEntity
  8
DIM
100
AcDbDimension
  2
*D
 10
36
 20
4.2000
 30
0
 11
36.2500
 21
5.4000
 31
0
 70
33
  1

 42
2.4000
100
AcDbAlignedDimension
 13
34.8000
 23
4.2000
 33
0
 14
34.8000
 24
6.6000
 34
0
  0
DIMENSION
  5
296
100
AcDbEntity
  8
DIM
100
AcDbDimension
  2
*D
 10
36
 20
6.6000
 30
0
 11
36.2500
 21
8.5500
 31
0
 70
33
  1

 42
3.9000
100
AcDbAlignedDimension
 13
34.8000
 23
6.6000
 33
0
 14
34.8000
 24
10.5000
 34
0
  0
TEXT
  5
297
100
AcDbEntity
  8
TEXT
100
AcDbText
 10
23.4000
 20
-3.2000
 30
0
 40
0.4500
  1
FIRST FLOOR PLAN
100
AcDbText
  0
TEXT
  5
298
100
AcDbEntity
  8
TEXT
100
AcDbText
 10
37.4000
 20
5.2500
 30
0
 40
0.3000
  1
+3450
100
AcDbText
  0
LINE
  5
299
100
AcDbEntity
  8
WALL
100
AcDbLine
370
50
 10
46.8000
 20
0
 30
0
 11
58.2000
 21
0
 31
0
  0
LINE
  5
29A
100
AcDbEntity
  8
WALL
100
AcDbLine
370
50
 10
58.2000
 20
0
 30
0
 11
58.2000
 21
7.2000
 31
0
  0
LINE
  5
29B
100
AcDbEntity
  8
WALL
100
AcDbLine
370
50
 10
58.2000
 20
7.2000
 30
0
 11
46.8000
 21
7.2000
 31
0
  0
LINE
  5
29C
100
AcDbEntity
  8
WALL
100
AcDbLine
370
50
 10
46.8000
 20
7.2000
 30
0
 11
46.8000
 21
0
 31
0
  0
LINE
  5
29D
100
AcDbEntity
  8
WALL
100
AcDbLine
 10
46.8000
 20
0
 30
0
 11
58.2000
 21
0
 31
0
  0
TEXT
  5
29E
100
AcDbEntity
  8
TEXT
100
AcDbText
 10
59.1000
 20
0
 30
0
 40
0.2500
  1
+450 GROUND FLOOR LEVEL
100
AcDbText
  0
LWPOLYLINE
  5
29F
100
AcDbEntity
  8
WIND
100
AcDbPolyline
 90
4
 70
1
 10
49.0500
 20
0.9000
 10
50.2500
 20
0.9000
 10
50.2500
 20
2.1000
 10
49.0500
 20
2.1000
  0
LWPOLYLINE
  5
2A0
100
AcDbEntity
  8
WIND
100
AcDbPolyline
 90
4
 70
1
 10
51.9000
 20
0.9000
 10
53.1000
 20
0.9000
 10
53.1000
 20
2.1000
 10
51.9000
 20
2.1000
  0
LWPOLYLINE
  5
2A1
100
AcDbEntity
  8
WIND
100
AcDbPolyline
 90
4
 70
1
 10
54.7500
 20
0.9000
 10
55.9500
 20
0.9000
 10
55.9500
 20
2.1000
 10
54.7500
 20
2.1000
  0
LINE
  5
2A2
100
AcDbEntity
  8
WALL
100
AcDbLine
 10
46.8000
 20
3
 30
0
 11
58.2000
 21
3
 31
0
  0
TEXT
  5
2A3
100
AcDbEntity
  8
TEXT
100
AcDbText
 10
59.1000
 20
3
 30
0
 40
0.2500
  1
+3450 FIRST FLOOR SLAB
100
AcDbText
  0
LWPOLYLINE
  5
2A4
100
AcDbEntity
  8
WIND
100
AcDbPolyline
 90
4
 70
1
 10
49.0500
 20
3.9000
 10
50.2500
 20
3.9000
 10
50.2500
 20
5.1000
 10
49.0500
 20
5.1000
  0
LWPOLYLINE
  5
2A5
100
AcDbEntity
  8
WIND
100
AcDbPolyline
 90
4
 70
1
 10
51.9000
 20
3.9000
 10
53.1000
 20
3.9000
 10
53.1000
 20
5.1000
 10
51.9000
 20
5.1000
  0
LWPOLYLINE
  5
2A6
100
AcDbEntity
  8
WIND
100
AcDbPolyline
 90
4
 70
1
 10
54.7500
 20
3.9000
 10
55.9500
 20
3.9000
 10
55.9500
 20
5.1000
 10
54.7500
 20
5.1000
  0
LINE
  5
2A7
100
AcDbEntity
  8
WALL
100
AcDbLine
 10
46.8000
 20
6
 30
0
 11
58.2000
 21
6
 31
0
  0
TEXT
  5
2A8
100
AcDbEntity
  8
TEXT
100
AcDbText
 10
59.1000
 20
6
 30
0
 40
0.2500
  1
+6450 ROOF LEVEL
100
AcDbText
  0
TEXT
  5
2A9
100
AcDbEntity
  8
TEXT
100
AcDbText
 10
46.8000
 20
-3.2000
 30
0
 40
0.4500
  1
NORTH ELEVATION
100
AcDbText
  0
LINE
  5
2AA
100
AcDbEntity
  8
WALL
100
AcDbLine
370
50
 10
70.2000
 20
0
 30
0
 11
80.7000
 21
0
 31
0
  0
LINE
  5
2AB
100
AcDbEntity
  8
WALL
100
AcDbLine
370
50
 10
80.7000
 20
0
 30
0
 11
80.7000
 21
7.2000
 31
0
  0
LINE
  5
2AC
100
AcDbEntity
  8
WALL
100
AcDbLine
370
50
 10
80.7000
 20
7.2000
 30
0
 11
70.2000
 21
7.2000
 31
0
  0
LINE
  5
2AD
100
AcDbEntity
  8
WALL
100
AcDbLine
370
50
 10
70.2000
 20
7.2000
 30
0
 11
70.2000
 21
0
 31
0
  0
LINE
  5
2AE
100
AcDbEntity
  8
WALL
100
AcDbLine
370
50
 10
70.2000
 20
0
 30
0
 11
80.7000
 21
0
 31
0
  0
LINE
  5
2AF
100
AcDbEntity
  8
WALL
100
AcDbLine
370
50
 10
70.2000
 20
0.1500
 30
0
 11
80.7000
 21
0.1500
 31
0
  0
TEXT
  5
2B0
100
AcDbEntity
  8
TEXT
100
AcDbText
 10
81.6000
 20
0
 30
0
 40
0.2500
  1
+450 GROUND FLOOR LEVEL
100
AcDbText
  0
LINE
  5
2B1
100
AcDbEntity
  8
WALL
100
AcDbLine
370
50
 10
70.2000
 20
3
 30
0
 11
80.7000
 21
3
 31
0
  0
LINE
  5
2B2
100
AcDbEntity
  8
WALL
100
AcDbLine
370
50
 10
70.2000
 20
3.1500
 30
0
 11
80.7000
 21
3.1500
 31
0
  0
TEXT
  5
2B3
100
AcDbEntity
  8
TEXT
100
AcDbText
 10
81.6000
 20
3
 30
0
 40
0.2500
  1
+3450 FIRST FLOOR SLAB
100
AcDbText
  0
LINE
  5
2B4
100
AcDbEntity
  8
WALL
100
AcDbLine
370
50
 10
70.2000
 20
6
 30
0
 11
80.7000
 21
6
 31
0
  0
LINE
  5
2B5
100
AcDbEntity
  8
WALL
100
AcDbLine
370
50
 10
70.2000
 20
6.1500
 30
0
 11
80.7000
 21
6.1500
 31
0
  0
TEXT
  5
2B6
100
AcDbEntity
  8
TEXT
100
AcDbText
 10
81.6000
 20
6
 30
0
 40
0.2500
  1
+6450 ROOF LEVEL
100
AcDbText
  0
TEXT
  5
2B7
100
AcDbEntity
  8
TEXT
100
AcDbText
 10
71.2000
 20
1.5000
 30
0
 40
0.2200
  1
19 NOS RISERS OF 158MM EACH AND TREADS OF 275MM
100
AcDbText
  0
TEXT
  5
2B8
100
AcDbEntity
  8
TEXT
100
AcDbText
 10
70.2000
 20
-3.2000
 30
0
 40
0.4500
  1
SECTION A-A
100
AcDbText
  0
ENDSEC
  0
EOF
