  0
SECTION
  2
HEADER
  9
$ACADVER
  1
AC1015
  9
$INSUNITS
 70
4
  9
$MEASUREMENT
 70
1
  9
$HANDSEED
  5
FFFF
  0
ENDSEC
  0
SECTION
  2
TABLES
  0
TABLE
  2
LTYPE
  5
273
100
AcDbSymbolTable
 70
1
  0
LTYPE
  5
274
330
273
100
AcDbSymbolTableRecord
100
AcDbLinetypeTableRecord
  2
CONTINUOUS
 70
0
  3
Solid line
 72
65
 73
0
 40
0
  0
ENDTAB
  0
TABLE
  2
LAYER
  5
275
100
AcDbSymbolTable
 70
8
  0
LAYER
  5
276
330
275
100
AcDbSymbolTableRecord
100
AcDbLayerTableRecord
  2
0
 70
0
 62
1
  6
CONTINUOUS
  0
LAYER
  5
277
330
275
100
AcDbSymbolTableRecord
100
AcDbLayerTableRecord
  2
COLUMN
 70
0
 62
2
  6
CONTINUOUS
  0
LAYER
  5
278
330
275
100
AcDbSymbolTableRecord
100
AcDbLayerTableRecord
  2
TEXT
 70
0
 62
3
  6
CONTINUOUS
  0
LAYER
  5
279
330
275
100
AcDbSymbolTableRecord
100
AcDbLayerTableRecord
  2
DIM
 70
0
 62
4
  6
CONTINUOUS
  0
LAYER
  5
27A
330
275
100
AcDbSymbolTableRecord
100
AcDbLayerTableRecord
  2
WALL
 70
0
 62
5
  6
CONTINUOUS
  0
LAYER
  5
27B
330
275
100
AcDbSymbolTableRecord
100
AcDbLayerTableRecord
  2
WIND
 70
0
 62
6
  6
CONTINUOUS
  0
LAYER
  5
27C
330
275
100
AcDbSymbolTableRecord
100
AcDbLayerTableRecord
  2
DOOR
 70
0
 62
7
  6
CONTINUOUS
  0
LAYER
  5
27D
330
275
100
AcDbSymbolTableRecord
100
AcDbLayerTableRecord
  2
SANITARY
 70
0
 62
1
  6
CONTINUOUS
  0
ENDTAB
  0
TABLE
  2
BLOCK_RECORD
  5
27E
100
AcDbSymbolTable
 70
3
  0
BLOCK_RECORD
  5
27F
330
27E
100
AcDbSymbolTableRecord
100
AcDbBlockTableRecord
  2
*Model_Space
  0
BLOCK_RECORD
  5
280
330
27E
100
AcDbSymbolTableRecord
100
AcDbBlockTableRecord
  2
*Paper_Space
  0
BLOCK_RECORD
  5
281
330
27E
100
AcDbSymbolTableRecord
100
AcDbBlockTableRecord
  2
FLAT-TYPE-A
  0
ENDTAB
  0
ENDSEC
  0
SECTION
  2
BLOCKS
  0
BLOCK
  5
1A9
100
AcDbEntity
  8
0
100
AcDbBlockBegin
  2
FLAT-TYPE-A
 70
0
 10
0
 20
0
 30
0
  3
FLAT-TYPE-A
  0
LWPOLYLINE
  5
100
100
AcDbEntity
  8
WIND
100
AcDbPolyline
 90
4
 70
1
 10
-60
 20
3400
 10
60
 20
3400
 10
60
 20
4600
 10
-60
 20
4600
  0
LWPOLYLINE
  5
101
100
AcDbEntity
  8
WIND
100
AcDbPolyline
 90
4
 70
1
 10
-60
 20
11400
 10
60
 20
11400
 10
60
 20
12600
 10
-60
 20
12600
  0
LWPOLYLINE
  5
102
100
AcDbEntity
  8
WIND
100
AcDbPolyline
 90
4
 70
1
 10
-60
 20
19400
 10
60
 20
19400
 10
60
 20
20600
 10
-60
 20
20600
  0
LWPOLYLINE
  5
103
100
AcDbEntity
  8
WIND
100
AcDbPolyline
 90
4
 70
1
 10
1400
 20
-60
 10
2600
 20
-60
 10
2600
 20
60
 10
1400
 20
60
  0
LWPOLYLINE
  5
104
100
AcDbEntity
  8
WIND
100
AcDbPolyline
 90
4
 70
1
 10
5400
 20
-60
 10
6600
 20
-60
 10
6600
 20
60
 10
5400
 20
60
  0
LWPOLYLINE
  5
105
100
AcDbEntity
  8
WIND
100
AcDbPolyline
 90
4
 70
1
 10
9400
 20
-60
 10
10600
 20
-60
 10
10600
 20
60
 10
9400
 20
60
  0
LWPOLYLINE
  5
106
100
AcDbEntity
  8
WIND
100
AcDbPolyline
 90
4
 70
1
 10
1400
 20
23940
 10
2600
 20
23940
 10
2600
 20
24060
 10
1400
 20
24060
  0
LWPOLYLINE
  5
107
100
AcDbEntity
  8
WIND
100
AcDbPolyline
 90
4
 70
1
 10
5400
 20
23940
 10
6600
 20
23940
 10
6600
 20
24060
 10
5400
 20
24060
  0
LWPOLYLINE
  5
108
100
AcDbEntity
  8
WIND
100
AcDbPolyline
 90
4
 70
1
 10
9400
 20
23940
 10
10600
 20
23940
 10
10600
 20
24060
 10
9400
 20
24060
  0
ARC
  5
109
100
AcDbEntity
  8
DOOR
100
AcDbCircle
 10
4000
 20
3550
 30
0
 40
900
100
AcDbArc
 50
90
 51
180
  0
LINE
  5
10A
100
AcDbEntity
  8
DOOR
100
AcDbLine
 10
4000
 20
3550
 30
0
 11
3100
 21
3550
 31
0
  0
ARC
  5
10B
100
AcDbEntity
  8
DOOR
100
AcDbCircle
 10
4000
 20
11550
 30
0
 40
900
100
AcDbArc
 50
90
 51
180
  0
LINE
  5
10C
100
AcDbEntity
  8
DOOR
100
AcDbLine
 10
4000
 20
11550
 30
0
 11
3100
 21
11550
 31
0
  0
ARC
  5
10D
100
AcDbEntity
  8
DOOR
100
AcDbCircle
 10
4000
 20
19550
 30
0
 40
900
100
AcDbArc
 50
90
 51
180
  0
LINE
  5
10E
100
AcDbEntity
  8
DOOR
100
AcDbLine
 10
4000
 20
19550
 30
0
 11
3100
 21
19550
 31
0
  0
ARC
  5
10F
100
AcDbEntity
  8
DOOR
100
AcDbCircle
 10
8000
 20
3550
 30
0
 40
900
100
AcDbArc
 50
90
 51
180
  0
LINE
  5
110
100
AcDbEntity
  8
DOOR
100
AcDbLine
 10
8000
 20
3550
 30
0
 11
7100
 21
3550
 31
0
  0
ARC
  5
111
100
AcDbEntity
  8
DOOR
100
AcDbCircle
 10
8000
 20
11550
 30
0
 40
900
100
AcDbArc
 50
90
 51
180
  0
LINE
  5
112
100
AcDbEntity
  8
DOOR
100
AcDbLine
 10
8000
 20
11550
 30
0
 11
7100
 21
11550
 31
0
  0
ARC
  5
113
100
AcDbEntity
  8
DOOR
100
AcDbCircle
 10
8000
 20
19550
 30
0
 40
900
100
AcDbArc
 50
90
 51
180
  0
LINE
  5
114
100
AcDbEntity
  8
DOOR
100
AcDbLine
 10
8000
 20
19550
 30
0
 11
7100
 21
19550
 31
0
  0
ARC
  5
115
100
AcDbEntity
  8
DOOR
100
AcDbCircle
 10
5550
 20
8000
 30
0
 40
900
100
AcDbArc
 50
0
 51
90
  0
LINE
  5
116
100
AcDbEntity
  8
DOOR
100
AcDbLine
 10
5550
 20
8000
 30
0
 11
5550
 21
8900
 31
0
  0
ARC
  5
117
100
AcDbEntity
  8
DOOR
100
AcDbCircle
 10
9550
 20
8000
 30
0
 40
900
100
AcDbArc
 50
0
 51
90
  0
LINE
  5
118
100
AcDbEntity
  8
DOOR
100
AcDbLine
 10
9550
 20
8000
 30
0
 11
9550
 21
8900
 31
0
  0
ARC
  5
119
100
AcDbEntity
  8
DOOR
100
AcDbCircle
 10
1550
 20
16000
 30
0
 40
900
100
AcDbArc
 50
0
 51
90
  0
LINE
  5
11A
100
AcDbEntity
  8
DOOR
100
AcDbLine
 10
1550
 20
16000
 30
0
 11
1550
 21
16900
 31
0
  0
ARC
  5
11B
100
AcDbEntity
  8
DOOR
100
AcDbCircle
 10
5550
 20
16000
 30
0
 40
900
100
AcDbArc
 50
0
 51
90
  0
LINE
  5
11C
100
AcDbEntity
  8
DOOR
100
AcDbLine
 10
5550
 20
16000
 30
0
 11
5550
 21
16900
 31
0
  0
ARC
  5
11D
100
AcDbEntity
  8
DOOR
100
AcDbCircle
 10
9550
 20
16000
 30
0
 40
900
100
AcDbArc
 50
0
 51
90
  0
LINE
  5
11E
100
AcDbEntity
  8
DOOR
100
AcDbLine
 10
9550
 20
16000
 30
0
 11
9550
 21
16900
 31
0
  0
LINE
  5
11F
100
AcDbEntity
  8
WALL
100
AcDbLine
370
50
 10
-112.5000
 20
0
 30
0
 11
-112.5000
 21
3400
 31
0
  0
LINE
  5
120
100
AcDbEntity
  8
WALL
100
AcDbLine
370
50
 10
112.5000
 20
3400
 30
0
 11
112.5000
 21
0
 31
0
  0
LINE
  5
121
100
AcDbEntity
  8
WALL
100
AcDbLine
370
50
 10
-112.5000
 20
4600
 30
0
 11
-112.5000
 21
8000
 31
0
  0
LINE
  5
122
100
AcDbEntity
  8
WALL
100
AcDbLine
370
50
 10
112.5000
 20
8000
 30
0
 11
112.5000
 21
4600
 31
0
  0
LINE
  5
123
100
AcDbEntity
  8
WALL
100
AcDbLine
370
50
 10
-112.5000
 20
3400
 30
0
 11
112.5000
 21
3400
 31
0
  0
LINE
  5
124
100
AcDbEntity
  8
WALL
100
AcDbLine
370
50
 10
-112.5000
 20
4600
 30
0
 11
112.5000
 21
4600
 31
0
  0
LINE
  5
125
100
AcDbEntity
  8
WALL
100
AcDbLine
370
50
 10
-112.5000
 20
8000
 30
0
 11
-112.5000
 21
11400
 31
0
  0
LINE
  5
126
100
AcDbEntity
  8
WALL
100
AcDbLine
370
50
 10
112.5000
 20
11400
 30
0
 11
112.5000
 21
8000
 31
0
  0
LINE
  5
127
100
AcDbEntity
  8
WALL
100
AcDbLine
370
50
 10
-112.5000
 20
12600
 30
0
 11
-112.5000
 21
16000
 31
0
  0
LINE
  5
128
100
AcDbEntity
  8
WALL
100
AcDbLine
370
50
 10
112.5000
 20
16000
 30
0
 11
112.5000
 21
12600
 31
0
  0
LINE
  5
129
100
AcDbEntity
  8
WALL
100
AcDbLine
370
50
 10
-112.5000
 20
11400
 30
0
 11
112.5000
 21
11400
 31
0
  0
LINE
  5
12A
100
AcDbEntity
  8
WALL
100
AcDbLine
370
50
 10
-112.5000
 20
12600
 30
0
 11
112.5000
 21
12600
 31
0
  0
LINE
  5
12B
100
AcDbEntity
  8
WALL
100
AcDbLine
370
50
 10
-112.5000
 20
16000
 30
0
 11
-112.5000
 21
19400
 31
0
  0
LINE
  5
12C
100
AcDbEntity
  8
WALL
100
AcDbLine
370
50
 10
112.5000
 20
19400
 30
0
 11
112.5000
 21
16000
 31
0
  0
LINE
  5
12D
100
AcDbEntity
  8
WALL
100
AcDbLine
370
50
 10
-112.5000
 20
20600
 30
0
 11
-112.5000
 21
24000
 31
0
  0
LINE
  5
12E
100
AcDbEntity
  8
WALL
100
AcDbLine
370
50
 10
112.5000
 20
24000
 30
0
 11
112.5000
 21
20600
 31
0
  0
LINE
  5
12F
100
AcDbEntity
  8
WALL
100
AcDbLine
370
50
 10
-112.5000
 20
19400
 30
0
 11
112.5000
 21
19400
 31
0
  0
LINE
  5
130
100
AcDbEntity
  8
WALL
100
AcDbLine
370
50
 10
-112.5000
 20
20600
 30
0
 11
112.5000
 21
20600
 31
0
  0
LINE
  5
131
100
AcDbEntity
  8
WALL
100
AcDbLine
370
50
 10
0
 20
-112.5000
 30
0
 11
1400
 21
-112.5000
 31
0
  0
LINE
  5
132
100
AcDbEntity
  8
WALL
100
AcDbLine
370
50
 10
1400
 20
112.5000
 30
0
 11
0
 21
112.5000
 31
0
  0
LINE
  5
133
100
AcDbEntity
  8
WALL
100
AcDbLine
370
50
 10
2600
 20
-112.5000
 30
0
 11
4000
 21
-112.5000
 31
0
  0
LINE
  5
134
100
AcDbEntity
  8
WALL
100
AcDbLine
370
50
 10
4000
 20
112.5000
 30
0
 11
2600
 21
112.5000
 31
0
  0
LINE
  5
135
100
AcDbEntity
  8
WALL
100
AcDbLine
370
50
 10
1400
 20
-112.5000
 30
0
 11
1400
 21
112.5000
 31
0
  0
LINE
  5
136
100
AcDbEntity
  8
WALL
100
AcDbLine
370
50
 10
2600
 20
-112.5000
 30
0
 11
2600
 21
112.5000
 31
0
  0
LINE
  5
137
100
AcDbEntity
  8
WALL
100
AcDbLine
370
50
 10
4000
 20
-112.5000
 30
0
 11
5400
 21
-112.5000
 31
0
  0
LINE
  5
138
100
AcDbEntity
  8
WALL
100
AcDbLine
370
50
 10
5400
 20
112.5000
 30
0
 11
4000
 21
112.5000
 31
0
  0
LINE
  5
139
100
AcDbEntity
  8
WALL
100
AcDbLine
370
50
 10
6600
 20
-112.5000
 30
0
 11
8000
 21
-112.5000
 31
0
  0
LINE
  5
13A
100
AcDbEntity
  8
WALL
100
AcDbLine
370
50
 10
8000
 20
112.5000
 30
0
 11
6600
 21
112.5000
 31
0
  0
LINE
  5
13B
100
AcDbEntity
  8
WALL
100
AcDbLine
370
50
 10
5400
 20
-112.5000
 30
0
 11
5400
 21
112.5000
 31
0
  0
LINE
  5
13C
100
AcDbEntity
  8
WALL
100
AcDbLine
370
50
 10
6600
 20
-112.5000
 30
0
 11
6600
 21
112.5000
 31
0
  0
LINE
  5
13D
100
AcDbEntity
  8
WALL
100
AcDbLine
370
50
 10
8000
 20
-112.5000
 30
0
 11
9400
 21
-112.5000
 31
0
  0
LINE
  5
13E
100
AcDbEntity
  8
WALL
100
AcDbLine
370
50
 10
9400
 20
112.5000
 30
0
 11
8000
 21
112.5000
 31
0
  0
LINE
  5
13F
100
AcDbEntity
  8
WALL
100
AcDbLine
370
50
 10
10600
 20
-112.5000
 30
0
 11
12000
 21
-112.5000
 31
0
  0
LINE
  5
140
100
AcDbEntity
  8
WALL
100
AcDbLine
370
50
 10
12000
 20
112.5000
 30
0
 11
10600
 21
112.5000
 31
0
  0
LINE
  5
141
100
AcDbEntity
  8
WALL
100
AcDbLine
370
50
 10
9400
 20
-112.5000
 30
0
 11
9400
 21
112.5000
 31
0
  0
LINE
  5
142
100
AcDbEntity
  8
WALL
100
AcDbLine
370
50
 10
10600
 20
-112.5000
 30
0
 11
10600
 21
112.5000
 31
0
  0
LINE
  5
143
100
AcDbEntity
  8
WALL
100
AcDbLine
370
50
 10
0
 20
23887.5000
 30
0
 11
1400
 21
23887.5000
 31
0
  0
LINE
  5
144
100
AcDbEntity
  8
WALL
100
AcDbLine
370
50
 10
1400
 20
24112.5000
 30
0
 11
0
 21
24112.5000
 31
0
  0
LINE
  5
145
100
AcDbEntity
  8
WALL
100
AcDbLine
370
50
 10
2600
 20
23887.5000
 30
0
 11
4000
 21
23887.5000
 31
0
  0
LINE
  5
146
100
AcDbEntity
  8
WALL
100
AcDbLine
370
50
 10
4000
 20
24112.5000
 30
0
 11
2600
 21
24112.5000
 31
0
  0
LINE
  5
147
100
AcDbEntity
  8
WALL
100
AcDbLine
370
50
 10
1400
 20
23887.5000
 30
0
 11
1400
 21
24112.5000
 31
0
  0
LINE
  5
148
100
AcDbEntity
  8
WALL
100
AcDbLine
370
50
 10
2600
 20
23887.5000
 30
0
 11
2600
 21
24112.5000
 31
0
  0
LINE
  5
149
100
AcDbEntity
  8
WALL
100
AcDbLine
370
50
 10
4000
 20
23887.5000
 30
0
 11
5400
 21
23887.5000
 31
0
  0
LINE
  5
14A
100
AcDbEntity
  8
WALL
100
AcDbLine
370
50
 10
5400
 20
24112.5000
 30
0
 11
4000
 21
24112.5000
 31
0
  0
LINE
  5
14B
100
AcDbEntity
  8
WALL
100
AcDbLine
370
50
 10
6600
 20
23887.5000
 30
0
 11
8000
 21
23887.5000
 31
0
  0
LINE
  5
14C
100
AcDbEntity
  8
WALL
100
AcDbLine
370
50
 10
8000
 20
24112.5000
 30
0
 11
6600
 21
24112.5000
 31
0
  0
LINE
  5
14D
100
AcDbEntity
  8
WALL
100
AcDbLine
370
50
 10
5400
 20
23887.5000
 30
0
 11
5400
 21
24112.5000
 31
0
  0
LINE
  5
14E
100
AcDbEntity
  8
WALL
100
AcDbLine
370
50
 10
6600
 20
23887.5000
 30
0
 11
6600
 21
24112.5000
 31
0
  0
LINE
  5
14F
100
AcDbEntity
  8
WALL
100
AcDbLine
370
50
 10
8000
 20
23887.5000
 30
0
 11
9400
 21
23887.5000
 31
0
  0
LINE
  5
150
100
AcDbEntity
  8
WALL
100
AcDbLine
370
50
 10
9400
 20
24112.5000
 30
0
 11
8000
 21
24112.5000
 31
0
  0
LINE
  5
151
100
AcDbEntity
  8
WALL
100
AcDbLine
370
50
 10
10600
 20
23887.5000
 30
0
 11
12000
 21
23887.5000
 31
0
  0
LINE
  5
152
100
AcDbEntity
  8
WALL
100
AcDbLine
370
50
 10
12000
 20
24112.5000
 30
0
 11
10600
 21
24112.5000
 31
0
  0
LINE
  5
153
100
AcDbEntity
  8
WALL
100
AcDbLine
370
50
 10
9400
 20
23887.5000
 30
0
 11
9400
 21
24112.5000
 31
0
  0
LINE
  5
154
100
AcDbEntity
  8
WALL
100
AcDbLine
370
50
 10
10600
 20
23887.5000
 30
0
 11
10600
 21
24112.5000
 31
0
  0
LINE
  5
155
100
AcDbEntity
  8
WALL
100
AcDbLine
370
50
 10
3925
 20
0
 30
0
 11
3925
 21
3550
 31
0
  0
LINE
  5
156
100
AcDbEntity
  8
WALL
100
AcDbLine
370
50
 10
4075
 20
3550
 30
0
 11
4075
 21
0
 31
0
  0
LINE
  5
157
100
AcDbEntity
  8
WALL
100
AcDbLine
370
50
 10
3925
 20
4450
 30
0
 11
3925
 21
8000
 31
0
  0
LINE
  5
158
100
AcDbEntity
  8
WALL
100
AcDbLine
370
50
 10
4075
 20
8000
 30
0
 11
4075
 21
4450
 31
0
  0
LINE
  5
159
100
AcDbEntity
  8
WALL
100
AcDbLine
370
50
 10
3925
 20
3550
 30
0
 11
4075
 21
3550
 31
0
  0
LINE
  5
15A
100
AcDbEntity
  8
WALL
100
AcDbLine
370
50
 10
3925
 20
4450
 30
0
 11
4075
 21
4450
 31
0
  0
LINE
  5
15B
100
AcDbEntity
  8
WALL
100
AcDbLine
370
50
 10
3925
 20
8000
 30
0
 11
3925
 21
11550
 31
0
  0
LINE
  5
15C
100
AcDbEntity
  8
WALL
100
AcDbLine
370
50
 10
4075
 20
11550
 30
0
 11
4075
 21
8000
 31
0
  0
LINE
  5
15D
100
AcDbEntity
  8
WALL
100
AcDbLine
370
50
 10
3925
 20
12450
 30
0
 11
3925
 21
16000
 31
0
  0
LINE
  5
15E
100
AcDbEntity
  8
WALL
100
AcDbLine
370
50
 10
4075
 20
16000
 30
0
 11
4075
 21
12450
 31
0
  0
LINE
  5
15F
100
AcDbEntity
  8
WALL
100
AcDbLine
370
50
 10
3925
 20
11550
 30
0
 11
4075
 21
11550
 31
0
  0
LINE
  5
160
100
AcDbEntity
  8
WALL
100
AcDbLine
370
50
 10
3925
 20
12450
 30
0
 11
4075
 21
12450
 31
0
  0
LINE
  5
161
100
AcDbEntity
  8
WALL
100
AcDbLine
370
50
 10
3925
 20
16000
 30
0
 11
3925
 21
19550
 31
0
  0
LINE
  5
162
100
AcDbEntity
  8
WALL
100
AcDbLine
370
50
 10
4075
 20
19550
 30
0
 11
4075
 21
16000
 31
0
  0
LINE
  5
163
100
AcDbEntity
  8
WALL
100
AcDbLine
370
50
 10
3925
 20
20450
 30
0
 11
3925
 21
24000
 31
0
  0
LINE
  5
164
100
AcDbEntity
  8
WALL
100
AcDbLine
370
50
 10
4075
 20
24000
 30
0
 11
4075
 21
20450
 31
0
  0
LINE
  5
165
100
AcDbEntity
  8
WALL
100
AcDbLine
370
50
 10
3925
 20
19550
 30
0
 11
4075
 21
19550
 31
0
  0
LINE
  5
166
100
AcDbEntity
  8
WALL
100
AcDbLine
370
50
 10
3925
 20
20450
 30
0
 11
4075
 21
20450
 31
0
  0
LINE
  5
167
100
AcDbEntity
  8
WALL
100
AcDbLine
370
50
 10
7925
 20
0
 30
0
 11
7925
 21
3550
 31
0
  0
LINE
  5
168
100
AcDbEntity
  8
WALL
100
AcDbLine
370
50
 10
8075
 20
3550
 30
0
 11
8075
 21
0
 31
0
  0
LINE
  5
169
100
AcDbEntity
  8
WALL
100
AcDbLine
370
50
 10
7925
 20
4450
 30
0
 11
7925
 21
8000
 31
0
  0
LINE
  5
16A
100
AcDbEntity
  8
WALL
100
AcDbLine
370
50
 10
8075
 20
8000
 30
0
 11
8075
 21
4450
 31
0
  0
LINE
  5
16B
100
AcDbEntity
  8
WALL
100
AcDbLine
370
50
 10
7925
 20
3550
 30
0
 11
8075
 21
3550
 31
0
  0
LINE
  5
16C
100
AcDbEntity
  8
WALL
100
AcDbLine
370
50
 10
7925
 20
4450
 30
0
 11
8075
 21
4450
 31
0
  0
LINE
  5
16D
100
AcDbEntity
  8
WALL
100
AcDbLine
370
50
 10
7925
 20
8000
 30
0
 11
7925
 21
11550
 31
0
  0
LINE
  5
16E
100
AcDbEntity
  8
WALL
100
AcDbLine
370
50
 10
8075
 20
11550
 30
0
 11
8075
 21
8000
 31
0
  0
LINE
  5
16F
100
AcDbEntity
  8
WALL
100
AcDbLine
370
50
 10
7925
 20
12450
 30
0
 11
7925
 21
16000
 31
0
  0
LINE
  5
170
100
AcDbEntity
  8
WALL
100
AcDbLine
370
50
 10
8075
 20
16000
 30
0
 11
8075
 21
12450
 31
0
  0
LINE
  5
171
100
AcDbEntity
  8
WALL
100
AcDbLine
370
50
 10
7925
 20
11550
 30
0
 11
8075
 21
11550
 31
0
  0
LINE
  5
172
100
AcDbEntity
  8
WALL
100
AcDbLine
370
50
 10
7925
 20
12450
 30
0
 11
8075
 21
12450
 31
0
  0
LINE
  5
173
100
AcDbEntity
  8
WALL
100
AcDbLine
370
50
 10
7925
 20
16000
 30
0
 11
7925
 21
19550
 31
0
  0
LINE
  5
174
100
AcDbEntity
  8
WALL
100
AcDbLine
370
50
 10
8075
 20
19550
 30
0
 11
8075
 21
16000
 31
0
  0
LINE
  5
175
100
AcDbEntity
  8
WALL
100
AcDbLine
370
50
 10
7925
 20
20450
 30
0
 11
7925
 21
24000
 31
0
  0
LINE
  5
176
100
AcDbEntity
  8
WALL
100
AcDbLine
370
50
 10
8075
 20
24000
 30
0
 11
8075
 21
20450
 31
0
  0
LINE
  5
177
100
AcDbEntity
  8
WALL
100
AcDbLine
370
50
 10
7925
 20
19550
 30
0
 11
8075
 21
19550
 31
0
  0
LINE
  5
178
100
AcDbEntity
  8
WALL
100
AcDbLine
370
50
 10
7925
 20
20450
 30
0
 11
8075
 21
20450
 31
0
  0
LINE
  5
179
100
AcDbEntity
  8
WALL
100
AcDbLine
370
50
 10
11925
 20
0
 30
0
 11
11925
 21
8000
 31
0
  0
LINE
  5
17A
100
AcDbEntity
  8
WALL
100
AcDbLine
370
50
 10
11925
 20
8000
 30
0
 11
11925
 21
16000
 31
0
  0
LINE
  5
17B
100
AcDbEntity
  8
WALL
100
AcDbLine
370
50
 10
11925
 20
16000
 30
0
 11
11925
 21
24000
 31
0
  0
LINE
  5
17C
100
AcDbEntity
  8
WALL
100
AcDbLine
370
50
 10
0
 20
7925
 30
0
 11
4000
 21
7925
 31
0
  0
LINE
  5
17D
100
AcDbEntity
  8
WALL
100
AcDbLine
370
50
 10
4000
 20
8075
 30
0
 11
0
 21
8075
 31
0
  0
LINE
  5
17E
100
AcDbEntity
  8
WALL
100
AcDbLine
370
50
 10
4000
 20
7925
 30
0
 11
5550
 21
7925
 31
0
  0
LINE
  5
17F
100
AcDbEntity
  8
WALL
100
AcDbLine
370
50
 10
5550
 20
8075
 30
0
 11
4000
 21
8075
 31
0
  0
LINE
  5
180
100
AcDbEntity
  8
WALL
100
AcDbLine
370
50
 10
6450
 20
7925
 30
0
 11
8000
 21
7925
 31
0
  0
LINE
  5
181
100
AcDbEntity
  8
WALL
100
AcDbLine
370
50
 10
8000
 20
8075
 30
0
 11
6450
 21
8075
 31
0
  0
LINE
  5
182
100
AcDbEntity
  8
WALL
100
AcDbLine
370
50
 10
5550
 20
7925
 30
0
 11
5550
 21
8075
 31
0
  0
LINE
  5
183
100
AcDbEntity
  8
WALL
100
AcDbLine
370
50
 10
6450
 20
7925
 30
0
 11
6450
 21
8075
 31
0
  0
LINE
  5
184
100
AcDbEntity
  8
WALL
100
AcDbLine
370
50
 10
8000
 20
7925
 30
0
 11
9550
 21
7925
 31
0
  0
LINE
  5
185
100
AcDbEntity
  8
WALL
100
AcDbLine
370
50
 10
9550
 20
8075
 30
0
 11
8000
 21
8075
 31
0
  0
LINE
  5
186
100
AcDbEntity
  8
WALL
100
AcDbLine
370
50
 10
10450
 20
7925
 30
0
 11
12000
 21
7925
 31
0
  0
LINE
  5
187
100
AcDbEntity
  8
WALL
100
AcDbLine
370
50
 10
12000
 20
8075
 30
0
 11
10450
 21
8075
 31
0
  0
LINE
  5
188
100
AcDbEntity
  8
WALL
100
AcDbLine
370
50
 10
9550
 20
7925
 30
0
 11
9550
 21
8075
 31
0
  0
LINE
  5
189
100
AcDbEntity
  8
WALL
100
AcDbLine
370
50
 10
10450
 20
7925
 30
0
 11
10450
 21
8075
 31
0
  0
LINE
  5
18A
100
AcDbEntity
  8
WALL
100
AcDbLine
370
50
 10
0
 20
15925
 30
0
 11
1550
 21
15925
 31
0
  0
LINE
  5
18B
100
AcDbEntity
  8
WALL
100
AcDbLine
370
50
 10
1550
 20
16075
 30
0
 11
0
 21
16075
 31
0
  0
LINE
  5
18C
100
AcDbEntity
  8
WALL
100
AcDbLine
370
50
 10
2450
 20
15925
 30
0
 11
4000
 21
15925
 31
0
  0
LINE
  5
18D
100
AcDbEntity
  8
WALL
100
AcDbLine
370
50
 10
4000
 20
16075
 30
0
 11
2450
 21
16075
 31
0
  0
LINE
  5
18E
100
AcDbEntity
  8
WALL
100
AcDbLine
370
50
 10
1550
 20
15925
 30
0
 11
1550
 21
16075
 31
0
  0
LINE
  5
18F
100
AcDbEntity
  8
WALL
100
AcDbLine
370
50
 10
2450
 20
15925
 30
0
 11
2450
 21
16075
 31
0
  0
LINE
  5
190
100
AcDbEntity
  8
WALL
100
AcDbLine
370
50
 10
4000
 20
15925
 30
0
 11
5550
 21
15925
 31
0
  0
LINE
  5
191
100
AcDbEntity
  8
WALL
100
AcDbLine
370
50
 10
5550
 20
16075
 30
0
 11
4000
 21
16075
 31
0
  0
LINE
  5
192
100
AcDbEntity
  8
WALL
100
AcDbLine
370
50
 10
6450
 20
15925
 30
0
 11
8000
 21
15925
 31
0
  0
LINE
  5
193
100
AcDbEntity
  8
WALL
100
AcDbLine
370
50
 10
8000
 20
16075
 30
0
 11
6450
 21
16075
 31
0
  0
LINE
  5
194
100
AcDbEntity
  8
WALL
100
AcDbLine
370
50
 10
5550
 20
15925
 30
0
 11
5550
 21
16075
 31
0
  0
LINE
  5
195
100
AcDbEntity
  8
WALL
100
AcDbLine
370
50
 10
6450
 20
15925
 30
0
 11
6450
 21
16075
 31
0
  0
LINE
  5
196
100
AcDbEntity
  8
WALL
100
AcDbLine
370
50
 10
8000
 20
15925
 30
0
 11
9550
 21
15925
 31
0
  0
LINE
  5
197
100
AcDbEntity
  8
WALL
100
AcDbLine
370
50
 10
9550
 20
16075
 30
0
 11
8000
 21
16075
 31
0
  0
LINE
  5
198
100
AcDbEntity
  8
WALL
100
AcDbLine
370
50
 10
10450
 20
15925
 30
0
 11
12000
 21
15925
 31
0
  0
LINE
  5
199
100
AcDbEntity
  8
WALL
100
AcDbLine
370
50
 10
12000
 20
16075
 30
0
 11
10450
 21
16075
 31
0
  0
LINE
  5
19A
100
AcDbEntity
  8
WALL
100
AcDbLine
370
50
 10
9550
 20
15925
 30
0
 11
9550
 21
16075
 31
0
  0
LINE
  5
19B
100
AcDbEntity
  8
WALL
100
AcDbLine
370
50
 10
10450
 20
15925
 30
0
 11
10450
 21
16075
 31
0
  0
LWPOLYLINE
  5
19C
100
AcDbEntity
  8
COLUMN
100
AcDbPolyline
 90
4
 70
1
 10
-115
 20
-115
 10
115
 20
-115
 10
115
 20
115
 10
-115
 20
115
  0
LWPOLYLINE
  5
19D
100
AcDbEntity
  8
COLUMN
100
AcDbPolyline
 90
4
 70
1
 10
-115
 20
7885
 10
115
 20
7885
 10
115
 20
8115
 10
-115
 20
8115
  0
LWPOLYLINE
  5
19E
100
AcDbEntity
  8
COLUMN
100
AcDbPolyline
 90
4
 70
1
 10
-115
 20
15885
 10
115
 20
15885
 10
115
 20
16115
 10
-115
 20
16115
  0
LWPOLYLINE
  5
19F
100
AcDbEntity
  8
COLUMN
100
AcDbPolyline
 90
4
 70
1
 10
-115
 20
23885
 10
115
 20
23885
 10
115
 20
24115
 10
-115
 20
24115
  0
LWPOLYLINE
  5
1A0
100
AcDbEntity
  8
COLUMN
100
AcDbPolyline
 90
4
 70
1
 10
3885
 20
-115
 10
4115
 20
-115
 10
4115
 20
115
 10
3885
 20
115
  0
LWPOLYLINE
  5
1A1
100
AcDbEntity
  8
COLUMN
100
AcDbPolyline
 90
4
 70
1
 10
3885
 20
7885
 10
4115
 20
7885
 10
4115
 20
8115
 10
3885
 20
8115
  0
LWPOLYLINE
  5
1A2
100
AcDbEntity
  8
COLUMN
100
AcDbPolyline
 90
4
 70
1
 10
3885
 20
15885
 10
4115
 20
15885
 10
4115
 20
16115
 10
3885
 20
16115
  0
LWPOLYLINE
  5
1A3
100
AcDbEntity
  8
COLUMN
100
AcDbPolyline
 90
4
 70
1
 10
3885
 20
23885
 10
4115
 20
23885
 10
4115
 20
24115
 10
3885
 20
24115
  0
LWPOLYLINE
  5
1A4
100
AcDbEntity
  8
COLUMN
100
AcDbPolyline
 90
4
 70
1
 10
7885
 20
-115
 10
8115
 20
-115
 10
8115
 20
115
 10
7885
 20
115
  0
LWPOLYLINE
  5
1A5
100
AcDbEntity
  8
COLUMN
100
AcDbPolyline
 90
4
 70
1
 10
7885
 20
7885
 10
8115
 20
7885
 10
8115
 20
8115
 10
7885
 20
8115
  0
LWPOLYLINE
  5
1A6
100
AcDbEntity
  8
COLUMN
100
AcDbPolyline
 90
4
 70
1
 10
7885
 20
15885
 10
8115
 20
15885
 10
8115
 20
16115
 10
7885
 20
16115
  0
LWPOLYLINE
  5
1A7
100
AcDbEntity
  8
COLUMN
100
AcDbPolyline
 90
4
 70
1
 10
7885
 20
23885
 10
8115
 20
23885
 10
8115
 20
24115
 10
7885
 20
24115
  0
LWPOLYLINE
  5
1A8
100
AcDbEntity
  8
SANITARY
100
AcDbPolyline
 90
4
 70
1
 10
8475
 20
15025
 10
8875
 20
15025
 10
8875
 20
15625
 10
8475
 20
15625
  0
ENDBLK
  5
1AA
100
AcDbEntity
  8
0
100
AcDbBlockEnd
  0
ENDSEC
  0
SECTION
  2
ENTITIES
  0
INSERT
  5
1AB
100
AcDbEntity
  8
0
100
AcDbBlockReference
  2
FLAT-TYPE-A
 10
0
 20
0
 30
0
 41
1
 42
1
 43
1
 50
0
  0
INSERT
  5
1AC
100
AcDbEntity
  8
0
100
AcDbBlockReference
  2
FLAT-TYPE-A
 10
24000
 20
0
 30
0
 41
-1
 42
1
 43
1
 50
0
  0
LWPOLYLINE
  5
1AD
100
AcDbEntity
  8
COLUMN
100
AcDbPolyline
 90
4
 70
1
 10
11885
 20
-115
 10
12115
 20
-115
 10
12115
 20
115
 10
11885
 20
115
  0
LWPOLYLINE
  5
1AE
100
AcDbEntity
  8
COLUMN
100
AcDbPolyline
 90
4
 70
1
 10
11885
 20
7885
 10
12115
 20
7885
 10
12115
 20
8115
 10
11885
 20
8115
  0
LWPOLYLINE
  5
1AF
100
AcDbEntity
  8
COLUMN
100
AcDbPolyline
 90
4
 70
1
 10
11885
 20
15885
 10
12115
 20
15885
 10
12115
 20
16115
 10
11885
 20
16115
  0
LWPOLYLINE
  5
1B0
100
AcDbEntity
  8
COLUMN
100
AcDbPolyline
 90
4
 70
1
 10
11885
 20
23885
 10
12115
 20
23885
 10
12115
 20
24115
 10
11885
 20
24115
  0
TEXT
  5
1B1
100
AcDbEntity
  8
TEXT
100
AcDbText
 10
1518.7500
 20
4018.7500
 30
0
 40
250
  1
LOUNGE
100
AcDbText
  0
TEXT
  5
1B2
100
AcDbEntity
  8
TEXT
100
AcDbText
 10
5500
 20
4018.7500
 30
0
 40
250
  1
DINING
100
AcDbText
  0
TEXT
  5
1B3
100
AcDbEntity
  8
TEXT
100
AcDbText
 10
9500
 20
4018.7500
 30
0
 40
250
  1
KITCHEN
100
AcDbText
  0
TEXT
  5
1B4
100
AcDbEntity
  8
TEXT
100
AcDbText
 10
13500
 20
4018.7500
 30
0
 40
250
  1
KITCHEN
100
AcDbText
  0
TEXT
  5
1B5
100
AcDbEntity
  8
TEXT
100
AcDbText
 10
17500
 20
4018.7500
 30
0
 40
250
  1
DINING
100
AcDbText
  0
TEXT
  5
1B6
100
AcDbEntity
  8
TEXT
100
AcDbText
 10
21481.2500
 20
4018.7500
 30
0
 40
250
  1
LOUNGE
100
AcDbText
  0
TEXT
  5
1B7
100
AcDbEntity
  8
TEXT
100
AcDbText
 10
1518.7500
 20
12000
 30
0
 40
250
  1
STORE
100
AcDbText
  0
TEXT
  5
1B8
100
AcDbEntity
  8
TEXT
100
AcDbText
 10
5500
 20
12000
 30
0
 40
250
  1
STAIR HALL
100
AcDbText
  0
TEXT
  5
1B9
100
AcDbEntity
  8
TEXT
100
AcDbText
 10
9500
 20
12000
 30
0
 40
250
  1
DRESSING
100
AcDbText
  0
TEXT
  5
1BA
100
AcDbEntity
  8
TEXT
100
AcDbText
 10
13500
 20
12000
 30
0
 40
250
  1
DRESSING
100
AcDbText
  0
TEXT
  5
1BB
100
AcDbEntity
  8
TEXT
100
AcDbText
 10
17500
 20
12000
 30
0
 40
250
  1
STAIR HALL
100
AcDbText
  0
TEXT
  5
1BC
100
AcDbEntity
  8
TEXT
100
AcDbText
 10
21481.2500
 20
12000
 30
0
 40
250
  1
STORE
100
AcDbText
  0
TEXT
  5
1BD
100
AcDbEntity
  8
TEXT
100
AcDbText
 10
1518.7500
 20
19981.2500
 30
0
 40
250
  1
BEDROOM
100
AcDbText
  0
TEXT
  5
1BE
100
AcDbEntity
  8
TEXT
100
AcDbText
 10
5500
 20
19981.2500
 30
0
 40
250
  1
BEDROOM
100
AcDbText
  0
TEXT
  5
1BF
100
AcDbEntity
  8
TEXT
100
AcDbText
 10
9500
 20
19981.2500
 30
0
 40
250
  1
MASTER BEDROOM
100
AcDbText
  0
TEXT
  5
1C0
100
AcDbEntity
  8
TEXT
100
AcDbText
 10
13500
 20
19981.2500
 30
0
 40
250
  1
MASTER BEDROOM
100
AcDbText
  0
TEXT
  5
1C1
100
AcDbEntity
  8
TEXT
100
AcDbText
 10
17500
 20
19981.2500
 30
0
 40
250
  1
BEDROOM
100
AcDbText
  0
TEXT
  5
1C2
100
AcDbEntity
  8
TEXT
100
AcDbText
 10
21481.2500
 20
19981.2500
 30
0
 40
250
  1
BEDROOM
100
AcDbText
  0
DIMENSION
  5
1C3
100
AcDbEntity
  8
DIM
100
AcDbDimension
  2
*D
 10
0
 20
-1800
 30
0
 11
12000
 21
-1550
 31
0
 70
33
  1

 42
24000
100
AcDbAlignedDimension
 13
0
 23
0
 33
0
 14
24000
 24
0
 34
0
  0
DIMENSION
  5
1C4
100
AcDbEntity
  8
DIM
100
AcDbDimension
  2
*D
 10
-1800
 20
0
 30
0
 11
-1550
 21
12000
 31
0
 70
33
  1

 42
24000
100
AcDbAlignedDimension
 13
0
 23
0
 33
0
 14
0
 24
24000
 34
0
  0
DIMENSION
  5
1C5
100
AcDbEntity
  8
DIM
100
AcDbDimension
  2
*D
 10
0
 20
25200
 30
0
 11
2000
 21
25450
 31
0
 70
33
  1

 42
4000
100
AcDbAlignedDimension
 13
0
 23
24000
 33
0
 14
4000
 24
24000
 34
0
  0
DIMENSION
  5
1C6
100
AcDbEntity
  8
DIM
100
AcDbDimension
  2
*D
 10
4000
 20
25200
 30
0
 11
6000
 21
25450
 31
0
 70
33
  1

 42
4000
100
AcDbAlignedDimension
 13
4000
 23
24000
 33
0
 14
8000
 24
24000
 34
0
  0
DIMENSION
  5
1C7
100
AcDbEntity
  8
DIM
100
AcDbDimension
  2
*D
 10
8000
 20
25200
 30
0
 11
10000
 21
25450
 31
0
 70
33
  1

 42
4000
100
AcDbAlignedDimension
 13
8000
 23
24000
 33
0
 14
12000
 24
24000
 34
0
  0
DIMENSION
  5
1C8
100
AcDbEntity
  8
DIM
100
AcDbDimension
  2
*D
 10
12000
 20
25200
 30
0
 11
14000
 21
25450
 31
0
 70
33
  1

 42
4000
100
AcDbAlignedDimension
 13
12000
 23
24000
 33
0
 14
16000
 24
24000
 34
0
  0
DIMENSION
  5
1C9
100
AcDbEntity
  8
DIM
100
AcDbDimension
  2
*D
 10
16000
 20
25200
 30
0
 11
18000
 21
25450
 31
0
 70
33
  1

 42
4000
100
AcDbAlignedDimension
 13
16000
 23
24000
 33
0
 14
20000
 24
24000
 34
0
  0
DIMENSION
  5
1CA
100
AcDbEntity
  8
DIM
100
AcDbDimension
  2
*D
 10
20000
 20
25200
 30
0
 11
22000
 21
25450
 31
0
 70
33
  1

 42
4000
100
AcDbAlignedDimension
 13
20000
 23
24000
 33
0
 14
24000
 24
24000
 34
0
  0
DIMENSION
  5
1CB
100
AcDbEntity
  8
DIM
100
AcDbDimension
  2
*D
 10
25200
 20
0
 30
0
 11
25450
 21
4000
 31
0
 70
33
  1

 42
8000
100
AcDbAlignedDimension
 13
24000
 23
0
 33
0
 14
24000
 24
8000
 34
0
  0
DIMENSION
  5
1CC
100
AcDbEntity
  8
DIM
100
AcDbDimension
  2
*D
 10
25200
 20
8000
 30
0
 11
25450
 21
12000
 31
0
 70
33
  1

 42
8000
100
AcDbAlignedDimension
 13
24000
 23
8000
 33
0
 14
24000
 24
16000
 34
0
  0
DIMENSION
  5
1CD
100
AcDbEntity
  8
DIM
100
AcDbDimension
  2
*D
 10
25200
 20
16000
 30
0
 11
25450
 21
20000
 31
0
 70
33
  1

 42
8000
100
AcDbAlignedDimension
 13
24000
 23
16000
 33
0
 14
24000
 24
24000
 34
0
  0
TEXT
  5
1CE
100
AcDbEntity
  8
TEXT
100
AcDbText
 10
0
 20
-3200
 30
0
 40
450
  1
GROUND FLOOR PLAN
100
AcDbText
  0
TEXT
  5
1CF
100
AcDbEntity
  8
TEXT
100
AcDbText
 10
26600
 20
12000
 30
0
 40
300
  1
+450
100
AcDbText
  0
TEXT
  5
1D0
100
AcDbEntity
  8
TEXT
100
AcDbText
 10
0
 20
-4200
 30
0
 40
250
  1
EACH FLAT OCCUPIES 271 SQUARE METRES ONLY.
100
AcDbText
  0
INSERT
  5
1D1
100
AcDbEntity
  8
0
100
AcDbBlockReference
  2
FLAT-TYPE-A
 10
36000
 20
0
 30
0
 41
1
 42
1
 43
1
 50
0
  0
INSERT
  5
1D2
100
AcDbEntity
  8
0
100
AcDbBlockReference
  2
FLAT-TYPE-A
 10
60000
 20
0
 30
0
 41
-1
 42
1
 43
1
 50
0
  0
LWPOLYLINE
  5
1D3
100
AcDbEntity
  8
COLUMN
100
AcDbPolyline
 90
4
 70
1
 10
47885
 20
-115
 10
48115
 20
-115
 10
48115
 20
115
 10
47885
 20
115
  0
LWPOLYLINE
  5
1D4
100
AcDbEntity
  8
COLUMN
100
AcDbPolyline
 90
4
 70
1
 10
47885
 20
7885
 10
48115
 20
7885
 10
48115
 20
8115
 10
47885
 20
8115
  0
LWPOLYLINE
  5
1D5
100
AcDbEntity
  8
COLUMN
100
AcDbPolyline
 90
4
 70
1
 10
47885
 20
15885
 10
48115
 20
15885
 10
48115
 20
16115
 10
47885
 20
16115
  0
LWPOLYLINE
  5
1D6
100
AcDbEntity
  8
COLUMN
100
AcDbPolyline
 90
4
 70
1
 10
47885
 20
23885
 10
48115
 20
23885
 10
48115
 20
24115
 10
47885
 20
24115
  0
TEXT
  5
1D7
100
AcDbEntity
  8
TEXT
100
AcDbText
 10
37518.7500
 20
4018.7500
 30
0
 40
250
  1
LOUNGE
100
AcDbText
  0
TEXT
  5
1D8
100
AcDbEntity
  8
TEXT
100
AcDbText
 10
41500
 20
4018.7500
 30
0
 40
250
  1
DINING
100
AcDbText
  0
TEXT
  5
1D9
100
AcDbEntity
  8
TEXT
100
AcDbText
 10
45500
 20
4018.7500
 30
0
 40
250
  1
KITCHEN
100
AcDbText
  0
TEXT
  5
1DA
100
AcDbEntity
  8
TEXT
100
AcDbText
 10
49500
 20
4018.7500
 30
0
 40
250
  1
KITCHEN
100
AcDbText
  0
TEXT
  5
1DB
100
AcDbEntity
  8
TEXT
100
AcDbText
 10
53500
 20
4018.7500
 30
0
 40
250
  1
DINING
100
AcDbText
  0
TEXT
  5
1DC
100
AcDbEntity
  8
TEXT
100
AcDbText
 10
57481.2500
 20
4018.7500
 30
0
 40
250
  1
LOUNGE
100
AcDbText
  0
TEXT
  5
1DD
100
AcDbEntity
  8
TEXT
100
AcDbText
 10
37518.7500
 20
12000
 30
0
 40
250
  1
STORE
100
AcDbText
  0
TEXT
  5
1DE
100
AcDbEntity
  8
TEXT
100
AcDbText
 10
41500
 20
12000
 30
0
 40
250
  1
STAIR HALL
100
AcDbText
  0
TEXT
  5
1DF
100
AcDbEntity
  8
TEXT
100
AcDbText
 10
45500
 20
12000
 30
0
 40
250
  1
DRESSING
100
AcDbText
  0
TEXT
  5
1E0
100
AcDbEntity
  8
TEXT
100
AcDbText
 10
49500
 20
12000
 30
0
 40
250
  1
DRESSING
100
AcDbText
  0
TEXT
  5
1E1
100
AcDbEntity
  8
TEXT
100
AcDbText
 10
53500
 20
12000
 30
0
 40
250
  1
STAIR HALL
100
AcDbText
  0
TEXT
  5
1E2
100
AcDbEntity
  8
TEXT
100
AcDbText
 10
57481.2500
 20
12000
 30
0
 40
250
  1
STORE
100
AcDbText
  0
TEXT
  5
1E3
100
AcDbEntity
  8
TEXT
100
AcDbText
 10
37518.7500
 20
19981.2500
 30
0
 40
250
  1
BEDROOM
100
AcDbText
  0
TEXT
  5
1E4
100
AcDbEntity
  8
TEXT
100
AcDbText
 10
41500
 20
19981.2500
 30
0
 40
250
  1
BEDROOM
100
AcDbText
  0
TEXT
  5
1E5
100
AcDbEntity
  8
TEXT
100
AcDbText
 10
45500
 20
19981.2500
 30
0
 40
250
  1
MASTER BEDROOM
100
AcDbText
  0
TEXT
  5
1E6
100
AcDbEntity
  8
TEXT
100
AcDbText
 10
49500
 20
19981.2500
 30
0
 40
250
  1
MASTER BEDROOM
100
AcDbText
  0
TEXT
  5
1E7
100
AcDbEntity
  8
TEXT
100
AcDbText
 10
53500
 20
19981.2500
 30
0
 40
250
  1
BEDROOM
100
AcDbText
  0
TEXT
  5
1E8
100
AcDbEntity
  8
TEXT
100
AcDbText
 10
57481.2500
 20
19981.2500
 30
0
 40
250
  1
BEDROOM
100
AcDbText
  0
DIMENSION
  5
1E9
100
AcDbEntity
  8
DIM
100
AcDbDimension
  2
*D
 10
36000
 20
-1800
 30
0
 11
48000
 21
-1550
 31
0
 70
33
  1

 42
24000
100
AcDbAlignedDimension
 13
36000
 23
0
 33
0
 14
60000
 24
0
 34
0
  0
DIMENSION
  5
1EA
100
AcDbEntity
  8
DIM
100
AcDbDimension
  2
*D
 10
34200
 20
0
 30
0
 11
34450
 21
12000
 31
0
 70
33
  1

 42
24000
100
AcDbAlignedDimension
 13
36000
 23
0
 33
0
 14
36000
 24
24000
 34
0
  0
DIMENSION
  5
1EB
100
AcDbEntity
  8
DIM
100
AcDbDimension
  2
*D
 10
36000
 20
25200
 30
0
 11
38000
 21
25450
 31
0
 70
33
  1

 42
4000
100
AcDbAlignedDimension
 13
36000
 23
24000
 33
0
 14
40000
 24
24000
 34
0
  0
DIMENSION
  5
1EC
100
AcDbEntity
  8
DIM
100
AcDbDimension
  2
*D
 10
40000
 20
25200
 30
0
 11
42000
 21
25450
 31
0
 70
33
  1

 42
4000
100
AcDbAlignedDimension
 13
40000
 23
24000
 33
0
 14
44000
 24
24000
 34
0
  0
DIMENSION
  5
1ED
100
AcDbEntity
  8
DIM
100
AcDbDimension
  2
*D
 10
44000
 20
25200
 30
0
 11
46000
 21
25450
 31
0
 70
33
  1

 42
4000
100
AcDbAlignedDimension
 13
44000
 23
24000
 33
0
 14
48000
 24
24000
 34
0
  0
DIMENSION
  5
1EE
100
AcDbEntity
  8
DIM
100
AcDbDimension
  2
*D
 10
48000
 20
25200
 30
0
 11
50000
 21
25450
 31
0
 70
33
  1

 42
4000
100
AcDbAlignedDimension
 13
48000
 23
24000
 33
0
 14
52000
 24
24000
 34
0
  0
DIMENSION
  5
1EF
100
AcDbEntity
  8
DIM
100
AcDbDimension
  2
*D
 10
52000
 20
25200
 30
0
 11
54000
 21
25450
 31
0
 70
33
  1

 42
4000
100
AcDbAlignedDimension
 13
52000
 23
24000
 33
0
 14
56000
 24
24000
 34
0
  0
DIMENSION
  5
1F0
100
AcDbEntity
  8
DIM
100
AcDbDimension
  2
*D
 10
56000
 20
25200
 30
0
 11
58000
 21
25450
 31
0
 70
33
  1

 42
4000
100
AcDbAlignedDimension
 13
56000
 23
24000
 33
0
 14
60000
 24
24000
 34
0
  0
DIMENSION
  5
1F1
100
AcDbEntity
  8
DIM
100
AcDbDimension
  2
*D
 10
61200
 20
0
 30
0
 11
61450
 21
4000
 31
0
 70
33
  1

 42
8000
100
AcDbAlignedDimension
 13
60000
 23
0
 33
0
 14
60000
 24
8000
 34
0
  0
DIMENSION
  5
1F2
100
AcDbEntity
  8
DIM
100
AcDbDimension
  2
*D
 10
61200
 20
8000
 30
0
 11
61450
 21
12000
 31
0
 70
33
  1

 42
8000
100
AcDbAlignedDimension
 13
60000
 23
8000
 33
0
 14
60000
 24
16000
 34
0
  0
DIMENSION
  5
1F3
100
AcDbEntity
  8
DIM
100
AcDbDimension
  2
*D
 10
61200
 20
16000
 30
0
 11
61450
 21
20000
 31
0
 70
33
  1

 42
8000
100
AcDbAlignedDimension
 13
60000
 23
16000
 33
0
 14
60000
 24
24000
 34
0
  0
TEXT
  5
1F4
100
AcDbEntity
  8
TEXT
100
AcDbText
 10
36000
 20
-3200
 30
0
 40
450
  1
FIRST FLOOR PLAN
100
AcDbText
  0
TEXT
  5
1F5
100
AcDbEntity
  8
TEXT
100
AcDbText
 10
62600
 20
12000
 30
0
 40
300
  1
+3450
100
AcDbText
  0
TEXT
  5
1F6
100
AcDbEntity
  8
TEXT
100
AcDbText
 10
36000
 20
-4200
 30
0
 40
250
  1
EACH FLAT OCCUPIES 271 SQUARE METRES ONLY.
100
AcDbText
  0
INSERT
  5
1F7
100
AcDbEntity
  8
0
100
AcDbBlockReference
  2
FLAT-TYPE-A
 10
72000
 20
0
 30
0
 41
1
 42
1
 43
1
 50
0
  0
INSERT
  5
1F8
100
AcDbEntity
  8
0
100
AcDbBlockReference
  2
FLAT-TYPE-A
 10
96000
 20
0
 30
0
 41
-1
 42
1
 43
1
 50
0
  0
LWPOLYLINE
  5
1F9
100
AcDbEntity
  8
COLUMN
100
AcDbPolyline
 90
4
 70
1
 10
83885
 20
-115
 10
84115
 20
-115
 10
84115
 20
115
 10
83885
 20
115
  0
LWPOLYLINE
  5
1FA
100
AcDbEntity
  8
COLUMN
100
AcDbPolyline
 90
4
 70
1
 10
83885
 20
7885
 10
84115
 20
7885
 10
84115
 20
8115
 10
83885
 20
8115
  0
LWPOLYLINE
  5
1FB
100
AcDbEntity
  8
COLUMN
100
AcDbPolyline
 90
4
 70
1
 10
83885
 20
15885
 10
84115
 20
15885
 10
84115
 20
16115
 10
83885
 20
16115
  0
LWPOLYLINE
  5
1FC
100
AcDbEntity
  8
COLUMN
100
AcDbPolyline
 90
4
 70
1
 10
83885
 20
23885
 10
84115
 20
23885
 10
84115
 20
24115
 10
83885
 20
24115
  0
TEXT
  5
1FD
100
AcDbEntity
  8
TEXT
100
AcDbText
 10
73518.7500
 20
4018.7500
 30
0
 40
250
  1
LOUNGE
100
AcDbText
  0
TEXT
  5
1FE
100
AcDbEntity
  8
TEXT
100
AcDbText
 10
77500
 20
4018.7500
 30
0
 40
250
  1
DINING
100
AcDbText
  0
TEXT
  5
1FF
100
AcDbEntity
  8
TEXT
100
AcDbText
 10
81500
 20
4018.7500
 30
0
 40
250
  1
KITCHEN
100
AcDbText
  0
TEXT
  5
200
100
AcDbEntity
  8
TEXT
100
AcDbText
 10
85500
 20
4018.7500
 30
0
 40
250
  1
KITCHEN
100
AcDbText
  0
TEXT
  5
201
100
AcDbEntity
  8
TEXT
100
AcDbText
 10
89500
 20
4018.7500
 30
0
 40
250
  1
DINING
100
AcDbText
  0
TEXT
  5
202
100
AcDbEntity
  8
TEXT
100
AcDbText
 10
93481.2500
 20
4018.7500
 30
0
 40
250
  1
LOUNGE
100
AcDbText
  0
TEXT
  5
203
100
AcDbEntity
  8
TEXT
100
AcDbText
 10
73518.7500
 20
12000
 30
0
 40
250
  1
STORE
100
AcDbText
  0
TEXT
  5
204
100
AcDbEntity
  8
TEXT
100
AcDbText
 10
77500
 20
12000
 30
0
 40
250
  1
STAIR HALL
100
AcDbText
  0
TEXT
  5
205
100
AcDbEntity
  8
TEXT
100
AcDbText
 10
81500
 20
12000
 30
0
 40
250
  1
DRESSING
100
AcDbText
  0
TEXT
  5
206
100
AcDbEntity
  8
TEXT
100
AcDbText
 10
85500
 20
12000
 30
0
 40
250
  1
DRESSING
100
AcDbText
  0
TEXT
  5
207
100
AcDbEntity
  8
TEXT
100
AcDbText
 10
89500
 20
12000
 30
0
 40
250
  1
STAIR HALL
100
AcDbText
  0
TEXT
  5
208
100
AcDbEntity
  8
TEXT
100
AcDbText
 10
93481.2500
 20
12000
 30
0
 40
250
  1
STORE
100
AcDbText
  0
TEXT
  5
209
100
AcDbEntity
  8
TEXT
100
AcDbText
 10
73518.7500
 20
19981.2500
 30
0
 40
250
  1
BEDROOM
100
AcDbText
  0
TEXT
  5
20A
100
AcDbEntity
  8
TEXT
100
AcDbText
 10
77500
 20
19981.2500
 30
0
 40
250
  1
BEDROOM
100
AcDbText
  0
TEXT
  5
20B
100
AcDbEntity
  8
TEXT
100
AcDbText
 10
81500
 20
19981.2500
 30
0
 40
250
  1
MASTER BEDROOM
100
AcDbText
  0
TEXT
  5
20C
100
AcDbEntity
  8
TEXT
100
AcDbText
 10
85500
 20
19981.2500
 30
0
 40
250
  1
MASTER BEDROOM
100
AcDbText
  0
TEXT
  5
20D
100
AcDbEntity
  8
TEXT
100
AcDbText
 10
89500
 20
19981.2500
 30
0
 40
250
  1
BEDROOM
100
AcDbText
  0
TEXT
  5
20E
100
AcDbEntity
  8
TEXT
100
AcDbText
 10
93481.2500
 20
19981.2500
 30
0
 40
250
  1
BEDROOM
100
AcDbText
  0
DIMENSION
  5
20F
100
AcDbEntity
  8
DIM
100
AcDbDimension
  2
*D
 10
72000
 20
-1800
 30
0
 11
84000
 21
-1550
 31
0
 70
33
  1

 42
24000
100
AcDbAlignedDimension
 13
72000
 23
0
 33
0
 14
96000
 24
0
 34
0
  0
DIMENSION
  5
210
100
AcDbEntity
  8
DIM
100
AcDbDimension
  2
*D
 10
70200
 20
0
 30
0
 11
70450
 21
12000
 31
0
 70
33
  1

 42
24000
100
AcDbAlignedDimension
 13
72000
 23
0
 33
0
 14
72000
 24
24000
 34
0
  0
DIMENSION
  5
211
100
AcDbEntity
  8
DIM
100
AcDbDimension
  2
*D
 10
72000
 20
25200
 30
0
 11
74000
 21
25450
 31
0
 70
33
  1

 42
4000
100
AcDbAlignedDimension
 13
72000
 23
24000
 33
0
 14
76000
 24
24000
 34
0
  0
DIMENSION
  5
212
100
AcDbEntity
  8
DIM
100
AcDbDimension
  2
*D
 10
76000
 20
25200
 30
0
 11
78000
 21
25450
 31
0
 70
33
  1

 42
4000
100
AcDbAlignedDimension
 13
76000
 23
24000
 33
0
 14
80000
 24
24000
 34
0
  0
DIMENSION
  5
213
100
AcDbEntity
  8
DIM
100
AcDbDimension
  2
*D
 10
80000
 20
25200
 30
0
 11
82000
 21
25450
 31
0
 70
33
  1

 42
4000
100
AcDbAlignedDimension
 13
80000
 23
24000
 33
0
 14
84000
 24
24000
 34
0
  0
DIMENSION
  5
214
100
AcDbEntity
  8
DIM
100
AcDbDimension
  2
*D
 10
84000
 20
25200
 30
0
 11
86000
 21
25450
 31
0
 70
33
  1

 42
4000
100
AcDbAlignedDimension
 13
84000
 23
24000
 33
0
 14
88000
 24
24000
 34
0
  0
DIMENSION
  5
215
100
AcDbEntity
  8
DIM
100
AcDbDimension
  2
*D
 10
88000
 20
25200
 30
0
 11
90000
 21
25450
 31
0
 70
33
  1

 42
4000
100
AcDbAlignedDimension
 13
88000
 23
24000
 33
0
 14
92000
 24
24000
 34
0
  0
DIMENSION
  5
216
100
AcDbEntity
  8
DIM
100
AcDbDimension
  2
*D
 10
92000
 20
25200
 30
0
 11
94000
 21
25450
 31
0
 70
33
  1

 42
4000
100
AcDbAlignedDimension
 13
92000
 23
24000
 33
0
 14
96000
 24
24000
 34
0
  0
DIMENSION
  5
217
100
AcDbEntity
  8
DIM
100
AcDbDimension
  2
*D
 10
97200
 20
0
 30
0
 11
97450
 21
4000
 31
0
 70
33
  1

 42
8000
100
AcDbAlignedDimension
 13
96000
 23
0
 33
0
 14
96000
 24
8000
 34
0
  0
DIMENSION
  5
218
100
AcDbEntity
  8
DIM
100
AcDbDimension
  2
*D
 10
97200
 20
8000
 30
0
 11
97450
 21
12000
 31
0
 70
33
  1

 42
8000
100
AcDbAlignedDimension
 13
96000
 23
8000
 33
0
 14
96000
 24
16000
 34
0
  0
DIMENSION
  5
219
100
AcDbEntity
  8
DIM
100
AcDbDimension
  2
*D
 10
97200
 20
16000
 30
0
 11
97450
 21
20000
 31
0
 70
33
  1

 42
8000
100
AcDbAlignedDimension
 13
96000
 23
16000
 33
0
 14
96000
 24
24000
 34
0
  0
TEXT
  5
21A
100
AcDbEntity
  8
TEXT
100
AcDbText
 10
72000
 20
-3200
 30
0
 40
450
  1
SECOND FLOOR PLAN
100
AcDbText
  0
TEXT
  5
21B
100
AcDbEntity
  8
TEXT
100
AcDbText
 10
98600
 20
12000
 30
0
 40
300
  1
+6450
100
AcDbText
  0
TEXT
  5
21C
100
AcDbEntity
  8
TEXT
100
AcDbText
 10
72000
 20
-4200
 30
0
 40
250
  1
EACH FLAT OCCUPIES 271 SQUARE METRES ONLY.
100
AcDbText
  0
INSERT
  5
21D
100
AcDbEntity
  8
0
100
AcDbBlockReference
  2
FLAT-TYPE-A
 10
108000
 20
0
 30
0
 41
1
 42
1
 43
1
 50
0
  0
INSERT
  5
21E
100
AcDbEntity
  8
0
100
AcDbBlockReference
  2
FLAT-TYPE-A
 10
132000
 20
0
 30
0
 41
-1
 42
1
 43
1
 50
0
  0
LWPOLYLINE
  5
21F
100
AcDbEntity
  8
COLUMN
100
AcDbPolyline
 90
4
 70
1
 10
119885
 20
-115
 10
120115
 20
-115
 10
120115
 20
115
 10
119885
 20
115
  0
LWPOLYLINE
  5
220
100
AcDbEntity
  8
COLUMN
100
AcDbPolyline
 90
4
 70
1
 10
119885
 20
7885
 10
120115
 20
7885
 10
120115
 20
8115
 10
119885
 20
8115
  0
LWPOLYLINE
  5
221
100
AcDbEntity
  8
COLUMN
100
AcDbPolyline
 90
4
 70
1
 10
119885
 20
15885
 10
120115
 20
15885
 10
120115
 20
16115
 10
119885
 20
16115
  0
LWPOLYLINE
  5
222
100
AcDbEntity
  8
COLUMN
100
AcDbPolyline
 90
4
 70
1
 10
119885
 20
23885
 10
120115
 20
23885
 10
120115
 20
24115
 10
119885
 20
24115
  0
TEXT
  5
223
100
AcDbEntity
  8
TEXT
100
AcDbText
 10
109518.7500
 20
4018.7500
 30
0
 40
250
  1
LOUNGE
100
AcDbText
  0
TEXT
  5
224
100
AcDbEntity
  8
TEXT
100
AcDbText
 10
113500
 20
4018.7500
 30
0
 40
250
  1
DINING
100
AcDbText
  0
TEXT
  5
225
100
AcDbEntity
  8
TEXT
100
AcDbText
 10
117500
 20
4018.7500
 30
0
 40
250
  1
KITCHEN
100
AcDbText
  0
TEXT
  5
226
100
AcDbEntity
  8
TEXT
100
AcDbText
 10
121500
 20
4018.7500
 30
0
 40
250
  1
KITCHEN
100
AcDbText
  0
TEXT
  5
227
100
AcDbEntity
  8
TEXT
100
AcDbText
 10
125500
 20
4018.7500
 30
0
 40
250
  1
DINING
100
AcDbText
  0
TEXT
  5
228
100
AcDbEntity
  8
TEXT
100
AcDbText
 10
129481.2500
 20
4018.7500
 30
0
 40
250
  1
LOUNGE
100
AcDbText
  0
TEXT
  5
229
100
AcDbEntity
  8
TEXT
100
AcDbText
 10
109518.7500
 20
12000
 30
0
 40
250
  1
STORE
100
AcDbText
  0
TEXT
  5
22A
100
AcDbEntity
  8
TEXT
100
AcDbText
 10
113500
 20
12000
 30
0
 40
250
  1
STAIR HALL
100
AcDbText
  0
TEXT
  5
22B
100
AcDbEntity
  8
TEXT
100
AcDbText
 10
117500
 20
12000
 30
0
 40
250
  1
DRESSING
100
AcDbText
  0
TEXT
  5
22C
100
AcDbEntity
  8
TEXT
100
AcDbText
 10
121500
 20
12000
 30
0
 40
250
  1
DRESSING
100
AcDbText
  0
TEXT
  5
22D
100
AcDbEntity
  8
TEXT
100
AcDbText
 10
125500
 20
12000
 30
0
 40
250
  1
STAIR HALL
100
AcDbText
  0
TEXT
  5
22E
100
AcDbEntity
  8
TEXT
100
AcDbText
 10
129481.2500
 20
12000
 30
0
 40
250
  1
STORE
100
AcDbText
  0
TEXT
  5
22F
100
AcDbEntity
  8
TEXT
100
AcDbText
 10
109518.7500
 20
19981.2500
 30
0
 40
250
  1
BEDROOM
100
AcDbText
  0
TEXT
  5
230
100
AcDbEntity
  8
TEXT
100
AcDbText
 10
113500
 20
19981.2500
 30
0
 40
250
  1
BEDROOM
100
AcDbText
  0
TEXT
  5
231
100
AcDbEntity
  8
TEXT
100
AcDbText
 10
117500
 20
19981.2500
 30
0
 40
250
  1
MASTER BEDROOM
100
AcDbText
  0
TEXT
  5
232
100
AcDbEntity
  8
TEXT
100
AcDbText
 10
121500
 20
19981.2500
 30
0
 40
250
  1
MASTER BEDROOM
100
AcDbText
  0
TEXT
  5
233
100
AcDbEntity
  8
TEXT
100
AcDbText
 10
125500
 20
19981.2500
 30
0
 40
250
  1
BEDROOM
100
AcDbText
  0
TEXT
  5
234
100
AcDbEntity
  8
TEXT
100
AcDbText
 10
129481.2500
 20
19981.2500
 30
0
 40
250
  1
BEDROOM
100
AcDbText
  0
DIMENSION
  5
235
100
AcDbEntity
  8
DIM
100
AcDbDimension
  2
*D
 10
108000
 20
-1800
 30
0
 11
120000
 21
-1550
 31
0
 70
33
  1

 42
24000
100
AcDbAlignedDimension
 13
108000
 23
0
 33
0
 14
132000
 24
0
 34
0
  0
DIMENSION
  5
236
100
AcDbEntity
  8
DIM
100
AcDbDimension
  2
*D
 10
106200
 20
0
 30
0
 11
106450
 21
12000
 31
0
 70
33
  1

 42
24000
100
AcDbAlignedDimension
 13
108000
 23
0
 33
0
 14
108000
 24
24000
 34
0
  0
DIMENSION
  5
237
100
AcDbEntity
  8
DIM
100
AcDbDimension
  2
*D
 10
108000
 20
25200
 30
0
 11
110000
 21
25450
 31
0
 70
33
  1

 42
4000
100
AcDbAlignedDimension
 13
108000
 23
24000
 33
0
 14
112000
 24
24000
 34
0
  0
DIMENSION
  5
238
100
AcDbEntity
  8
DIM
100
AcDbDimension
  2
*D
 10
112000
 20
25200
 30
0
 11
114000
 21
25450
 31
0
 70
33
  1

 42
4000
100
AcDbAlignedDimension
 13
112000
 23
24000
 33
0
 14
116000
 24
24000
 34
0
  0
DIMENSION
  5
239
100
AcDbEntity
  8
DIM
100
AcDbDimension
  2
*D
 10
116000
 20
25200
 30
0
 11
118000
 21
25450
 31
0
 70
33
  1

 42
4000
100
AcDbAlignedDimension
 13
116000
 23
24000
 33
0
 14
120000
 24
24000
 34
0
  0
DIMENSION
  5
23A
100
AcDbEntity
  8
DIM
100
AcDbDimension
  2
*D
 10
120000
 20
25200
 30
0
 11
122000
 21
25450
 31
0
 70
33
  1

 42
4000
100
AcDbAlignedDimension
 13
120000
 23
24000
 33
0
 14
124000
 24
24000
 34
0
  0
DIMENSION
  5
23B
100
AcDbEntity
  8
DIM
100
AcDbDimension
  2
*D
 10
124000
 20
25200
 30
0
 11
126000
 21
25450
 31
0
 70
33
  1

 42
4000
100
AcDbAlignedDimension
 13
124000
 23
24000
 33
0
 14
128000
 24
24000
 34
0
  0
DIMENSION
  5
23C
100
AcDbEntity
  8
DIM
100
AcDbDimension
  2
*D
 10
128000
 20
25200
 30
0
 11
130000
 21
25450
 31
0
 70
33
  1

 42
4000
100
AcDbAlignedDimension
 13
128000
 23
24000
 33
0
 14
132000
 24
24000
 34
0
  0
DIMENSION
  5
23D
100
AcDbEntity
  8
DIM
100
AcDbDimension
  2
*D
 10
133200
 20
0
 30
0
 11
133450
 21
4000
 31
0
 70
33
  1

 42
8000
100
AcDbAlignedDimension
 13
132000
 23
0
 33
0
 14
132000
 24
8000
 34
0
  0
DIMENSION
  5
23E
100
AcDbEntity
  8
DIM
100
AcDbDimension
  2
*D
 10
133200
 20
8000
 30
0
 11
133450
 21
12000
 31
0
 70
33
  1

 42
8000
100
AcDbAlignedDimension
 13
132000
 23
8000
 33
0
 14
132000
 24
16000
 34
0
  0
DIMENSION
  5
23F
100
AcDbEntity
  8
DIM
100
AcDbDimension
  2
*D
 10
133200
 20
16000
 30
0
 11
133450
 21
20000
 31
0
 70
33
  1

 42
8000
100
AcDbAlignedDimension
 13
132000
 23
16000
 33
0
 14
132000
 24
24000
 34
0
  0
TEXT
  5
240
100
AcDbEntity
  8
TEXT
100
AcDbText
 10
108000
 20
-3200
 30
0
 40
450
  1
THIRD FLOOR PLAN
100
AcDbText
  0
TEXT
  5
241
100
AcDbEntity
  8
TEXT
100
AcDbText
 10
134600
 20
12000
 30
0
 40
300
  1
+9450
100
AcDbText
  0
TEXT
  5
242
100
AcDbEntity
  8
TEXT
100
AcDbText
 10
108000
 20
-4200
 30
0
 40
250
  1
EACH FLAT OCCUPIES 271 SQUARE METRES ONLY.
100
AcDbText
  0
LINE
  5
243
100
AcDbEntity
  8
WALL
100
AcDbLine
370
50
 10
144000
 20
0
 30
0
 11
168000
 21
0
 31
0
  0
LINE
  5
244
100
AcDbEntity
  8
WALL
100
AcDbLine
370
50
 10
168000
 20
0
 30
0
 11
168000
 21
13200
 31
0
  0
LINE
  5
245
100
AcDbEntity
  8
WALL
100
AcDbLine
370
50
 10
168000
 20
13200
 30
0
 11
144000
 21
13200
 31
0
  0
LINE
  5
246
100
AcDbEntity
  8
WALL
100
AcDbLine
370
50
 10
144000
 20
13200
 30
0
 11
144000
 21
0
 31
0
  0
LINE
  5
247
100
AcDbEntity
  8
WALL
100
AcDbLine
 10
144000
 20
0
 30
0
 11
168000
 21
0
 31
0
  0
TEXT
  5
248
100
AcDbEntity
  8
TEXT
100
AcDbText
 10
168900
 20
0
 30
0
 40
250
  1
+450 GROUND FLOOR LEVEL
100
AcDbText
  0
LWPOLYLINE
  5
249
100
AcDbEntity
  8
WIND
100
AcDbPolyline
 90
4
 70
1
 10
149400
 20
900
 10
150600
 20
900
 10
150600
 20
2100
 10
149400
 20
2100
  0
LWPOLYLINE
  5
24A
100
AcDbEntity
  8
WIND
100
AcDbPolyline
 90
4
 70
1
 10
155400
 20
900
 10
156600
 20
900
 10
156600
 20
2100
 10
155400
 20
2100
  0
LWPOLYLINE
  5
24B
100
AcDbEntity
  8
WIND
100
AcDbPolyline
 90
4
 70
1
 10
161400
 20
900
 10
162600
 20
900
 10
162600
 20
2100
 10
161400
 20
2100
  0
LINE
  5
24C
100
AcDbEntity
  8
WALL
100
AcDbLine
 10
144000
 20
3000
 30
0
 11
168000
 21
3000
 31
0
  0
TEXT
  5
24D
100
AcDbEntity
  8
TEXT
100
AcDbText
 10
168900
 20
3000
 30
0
 40
250
  1
+3450 FIRST FLOOR SLAB
100
AcDbText
  0
LWPOLYLINE
  5
24E
100
AcDbEntity
  8
WIND
100
AcDbPolyline
 90
4
 70
1
 10
149400
 20
3900
 10
150600
 20
3900
 10
150600
 20
5100
 10
149400
 20
5100
  0
LWPOLYLINE
  5
24F
100
AcDbEntity
  8
WIND
100
AcDbPolyline
 90
4
 70
1
 10
155400
 20
3900
 10
156600
 20
3900
 10
156600
 20
5100
 10
155400
 20
5100
  0
LWPOLYLINE
  5
250
100
AcDbEntity
  8
WIND
100
AcDbPolyline
 90
4
 70
1
 10
161400
 20
3900
 10
162600
 20
3900
 10
162600
 20
5100
 10
161400
 20
5100
  0
LINE
  5
251
100
AcDbEntity
  8
WALL
100
AcDbLine
 10
144000
 20
6000
 30
0
 11
168000
 21
6000
 31
0
  0
TEXT
  5
252
100
AcDbEntity
  8
TEXT
100
AcDbText
 10
168900
 20
6000
 30
0
 40
250
  1
+6450 SECOND FLOOR SLAB
100
AcDbText
  0
LWPOLYLINE
  5
253
100
AcDbEntity
  8
WIND
100
AcDbPolyline
 90
4
 70
1
 10
149400
 20
6900
 10
150600
 20
6900
 10
150600
 20
8100
 10
149400
 20
8100
  0
LWPOLYLINE
  5
254
100
AcDbEntity
  8
WIND
100
AcDbPolyline
 90
4
 70
1
 10
155400
 20
6900
 10
156600
 20
6900
 10
156600
 20
8100
 10
155400
 20
8100
  0
LWPOLYLINE
  5
255
100
AcDbEntity
  8
WIND
100
AcDbPolyline
 90
4
 70
1
 10
161400
 20
6900
 10
162600
 20
6900
 10
162600
 20
8100
 10
161400
 20
8100
  0
LINE
  5
256
100
AcDbEntity
  8
WALL
100
AcDbLine
 10
144000
 20
9000
 30
0
 11
168000
 21
9000
 31
0
  0
TEXT
  5
257
100
AcDbEntity
  8
TEXT
100
AcDbText
 10
168900
 20
9000
 30
0
 40
250
  1
+9450 THIRD FLOOR SLAB
100
AcDbText
  0
LWPOLYLINE
  5
258
100
AcDbEntity
  8
WIND
100
AcDbPolyline
 90
4
 70
1
 10
149400
 20
9900
 10
150600
 20
9900
 10
150600
 20
11100
 10
149400
 20
11100
  0
LWPOLYLINE
  5
259
100
AcDbEntity
  8
WIND
100
AcDbPolyline
 90
4
 70
1
 10
155400
 20
9900
 10
156600
 20
9900
 10
156600
 20
11100
 10
155400
 20
11100
  0
LWPOLYLINE
  5
25A
100
AcDbEntity
  8
WIND
100
AcDbPolyline
 90
4
 70
1
 10
161400
 20
9900
 10
162600
 20
9900
 10
162600
 20
11100
 10
161400
 20
11100
  0
LINE
  5
25B
100
AcDbEntity
  8
WALL
100
AcDbLine
 10
144000
 20
12000
 30
0
 11
168000
 21
12000
 31
0
  0
TEXT
  5
25C
100
AcDbEntity
  8
TEXT
100
AcDbText
 10
168900
 20
12000
 30
0
 40
250
  1
+12450 ROOF LEVEL
100
AcDbText
  0
TEXT
  5
25D
100
AcDbEntity
  8
TEXT
100
AcDbText
 10
144000
 20
-3200
 30
0
 40
450
  1
NORTH ELEVATION
100
AcDbText
  0
LINE
  5
25E
100
AcDbEntity
  8
WALL
100
AcDbLine
370
50
 10
180000
 20
0
 30
0
 11
204000
 21
0
 31
0
  0
LINE
  5
25F
100
AcDbEntity
  8
WALL
100
AcDbLine
370
50
 10
204000
 20
0
 30
0
 11
204000
 21
13200
 31
0
  0
LINE
  5
260
100
AcDbEntity
  8
WALL
100
AcDbLine
370
50
 10
204000
 20
13200
 30
0
 11
180000
 21
13200
 31
0
  0
LINE
  5
261
100
AcDbEntity
  8
WALL
100
AcDbLine
370
50
 10
180000
 20
13200
 30
0
 11
180000
 21
0
 31
0
  0
LINE
  5
262
100
AcDbEntity
  8
WALL
100
AcDbLine
370
50
 10
180000
 20
0
 30
0
 11
204000
 21
0
 31
0
  0
LINE
  5
263
100
AcDbEntity
  8
WALL
100
AcDbLine
370
50
 10
180000
 20
150
 30
0
 11
204000
 21
150
 31
0
  0
TEXT
  5
264
100
AcDbEntity
  8
TEXT
100
AcDbText
 10
204900
 20
0
 30
0
 40
250
  1
+450 GROUND FLOOR LEVEL
100
AcDbText
  0
LINE
  5
265
100
AcDbEntity
  8
WALL
100
AcDbLine
370
50
 10
180000
 20
3000
 30
0
 11
204000
 21
3000
 31
0
  0
LINE
  5
266
100
AcDbEntity
  8
WALL
100
AcDbLine
370
50
 10
180000
 20
3150
 30
0
 11
204000
 21
3150
 31
0
  0
TEXT
  5
267
100
AcDbEntity
  8
TEXT
100
AcDbText
 10
204900
 20
3000
 30
0
 40
250
  1
+3450 FIRST FLOOR SLAB
100
AcDbText
  0
LINE
  5
268
100
AcDbEntity
  8
WALL
100
AcDbLine
370
50
 10
180000
 20
6000
 30
0
 11
204000
 21
6000
 31
0
  0
LINE
  5
269
100
AcDbEntity
  8
WALL
100
AcDbLine
370
50
 10
180000
 20
6150
 30
0
 11
204000
 21
6150
 31
0
  0
TEXT
  5
26A
100
AcDbEntity
  8
TEXT
100
AcDbText
 10
204900
 20
6000
 30
0
 40
250
  1
+6450 SECOND FLOOR SLAB
100
AcDbText
  0
LINE
  5
26B
100
AcDbEntity
  8
WALL
100
AcDbLine
370
50
 10
180000
 20
9000
 30
0
 11
204000
 21
9000
 31
0
  0
LINE
  5
26C
100
AcDbEntity
  8
WALL
100
AcDbLine
370
50
 10
180000
 20
9150
 30
0
 11
204000
 21
9150
 31
0
  0
TEXT
  5
26D
100
AcDbEntity
  8
TEXT
100
AcDbText
 10
204900
 20
9000
 30
0
 40
250
  1
+9450 THIRD FLOOR SLAB
100
AcDbText
  0
LINE
  5
26E
100
AcDbEntity
  8
WALL
100
AcDbLine
370
50
 10
180000
 20
12000
 30
0
 11
204000
 21
12000
 31
0
  0
LINE
  5
26F
100
AcDbEntity
  8
WALL
100
AcDbLine
370
50
 10
180000
 20
12150
 30
0
 11
204000
 21
12150
 31
0
  0
TEXT
  5
270
100
AcDbEntity
  8
TEXT
100
AcDbText
 10
204900
 20
12000
 30
0
 40
250
  1
+12450 ROOF LEVEL
100
AcDbText
  0
TEXT
  5
271
100
AcDbEntity
  8
TEXT
100
AcDbText
 10
181000
 20
1500
 30
0
 40
220
  1
19 NOS RISERS OF 158MM EACH AND TREADS OF 275MM
100
AcDbText
  0
TEXT
  5
272
100
AcDbEntity
  8
TEXT
100
AcDbText
 10
180000
 20
-3200
 30
0
 40
450
  1
SECTION A-A
100
AcDbText
  0
ENDSEC
  0
EOF
